%FSLAX45Y45*%
G04 Gerber Fmt 4.5, Leading zero omitted, Abs format (unit mm)*
G04 Created by KiCad (PCBNEW (5.1.6)-1) date 2020-07-07 09:56:22*
%MOMM*%
%LPD*%
G01*
G04 APERTURE LIST*
%TA.AperFunction,Profile*%
%ADD10C,0.050000*%
%TD*%
%ADD11C,0.200000*%
%ADD12C,0.300000*%
G04 APERTURE END LIST*
D10*
X2794000Y-14478000D02*
X2794000Y-3429000D01*
X18542000Y-14478000D02*
X2794000Y-14478000D01*
X18542000Y-3429000D02*
X18542000Y-14478000D01*
X2794000Y-3429000D02*
X18542000Y-3429000D01*
D11*
X15469000Y-11532000D02*
X15519000Y-11582000D01*
X15519000Y-11532000D02*
X15469000Y-11582000D01*
X15469000Y-11682000D02*
X15519000Y-11732000D01*
X15519000Y-11682000D02*
X15469000Y-11732000D01*
X11913000Y-11532000D02*
X11963000Y-11582000D01*
X11963000Y-11532000D02*
X11913000Y-11582000D01*
X11913000Y-11682000D02*
X11963000Y-11732000D01*
X11963000Y-11682000D02*
X11913000Y-11732000D01*
X13246100Y-4572000D02*
G75*
G03*
X13246100Y-4572000I-38100J0D01*
G01*
X13500100Y-4572000D02*
G75*
G03*
X13500100Y-4572000I-38100J0D01*
G01*
X13754100Y-4572000D02*
G75*
G03*
X13754100Y-4572000I-38100J0D01*
G01*
X14008100Y-4572000D02*
G75*
G03*
X14008100Y-4572000I-38100J0D01*
G01*
X14262100Y-4572000D02*
G75*
G03*
X14262100Y-4572000I-38100J0D01*
G01*
X14516100Y-4572000D02*
G75*
G03*
X14516100Y-4572000I-38100J0D01*
G01*
X14770100Y-4572000D02*
G75*
G03*
X14770100Y-4572000I-38100J0D01*
G01*
X15024100Y-4572000D02*
G75*
G03*
X15024100Y-4572000I-38100J0D01*
G01*
X15278100Y-4572000D02*
G75*
G03*
X15278100Y-4572000I-38100J0D01*
G01*
X4064000Y-9104000D02*
X4064000Y-9184000D01*
X4024000Y-9144000D02*
X4104000Y-9144000D01*
X4064000Y-9358000D02*
X4064000Y-9438000D01*
X4024000Y-9398000D02*
X4104000Y-9398000D01*
X4064000Y-9612000D02*
X4064000Y-9692000D01*
X4024000Y-9652000D02*
X4104000Y-9652000D01*
X4064000Y-9866000D02*
X4064000Y-9946000D01*
X4024000Y-9906000D02*
X4104000Y-9906000D01*
X4064000Y-10120000D02*
X4064000Y-10200000D01*
X4024000Y-10160000D02*
X4104000Y-10160000D01*
X4064000Y-6818000D02*
X4064000Y-6898000D01*
X4024000Y-6858000D02*
X4104000Y-6858000D01*
X4064000Y-7072000D02*
X4064000Y-7152000D01*
X4024000Y-7112000D02*
X4104000Y-7112000D01*
X4064000Y-7326000D02*
X4064000Y-7406000D01*
X4024000Y-7366000D02*
X4104000Y-7366000D01*
X4064000Y-7580000D02*
X4064000Y-7660000D01*
X4024000Y-7620000D02*
X4104000Y-7620000D01*
X4064000Y-7834000D02*
X4064000Y-7914000D01*
X4024000Y-7874000D02*
X4104000Y-7874000D01*
X9144000Y-4532000D02*
X9144000Y-4612000D01*
X9104000Y-4572000D02*
X9184000Y-4572000D01*
X9398000Y-4532000D02*
X9398000Y-4612000D01*
X9358000Y-4572000D02*
X9438000Y-4572000D01*
X15113000Y-6564000D02*
X15113000Y-6644000D01*
X15073000Y-6604000D02*
X15153000Y-6604000D01*
X15113000Y-6818000D02*
X15113000Y-6898000D01*
X15073000Y-6858000D02*
X15153000Y-6858000D01*
X15113000Y-7072000D02*
X15113000Y-7152000D01*
X15073000Y-7112000D02*
X15153000Y-7112000D01*
X15113000Y-7326000D02*
X15113000Y-7406000D01*
X15073000Y-7366000D02*
X15153000Y-7366000D01*
X6477000Y-12025000D02*
X6477000Y-12105000D01*
X6437000Y-12065000D02*
X6517000Y-12065000D01*
X6477000Y-12279000D02*
X6477000Y-12359000D01*
X6437000Y-12319000D02*
X6517000Y-12319000D01*
X6477000Y-12533000D02*
X6477000Y-12613000D01*
X6437000Y-12573000D02*
X6517000Y-12573000D01*
X6477000Y-12787000D02*
X6477000Y-12867000D01*
X6437000Y-12827000D02*
X6517000Y-12827000D01*
X6477000Y-13041000D02*
X6477000Y-13121000D01*
X6437000Y-13081000D02*
X6517000Y-13081000D01*
X7747000Y-12025000D02*
X7747000Y-12105000D01*
X7707000Y-12065000D02*
X7787000Y-12065000D01*
X7747000Y-12279000D02*
X7747000Y-12359000D01*
X7707000Y-12319000D02*
X7787000Y-12319000D01*
X7747000Y-12533000D02*
X7747000Y-12613000D01*
X7707000Y-12573000D02*
X7787000Y-12573000D01*
X7747000Y-12787000D02*
X7747000Y-12867000D01*
X7707000Y-12827000D02*
X7787000Y-12827000D01*
X7747000Y-13041000D02*
X7747000Y-13121000D01*
X7707000Y-13081000D02*
X7787000Y-13081000D01*
X11101000Y-7453000D02*
X11101000Y-7533000D01*
X11061000Y-7493000D02*
X11141000Y-7493000D01*
X11101000Y-7707000D02*
X11101000Y-7787000D01*
X11061000Y-7747000D02*
X11141000Y-7747000D01*
X11101000Y-7961000D02*
X11101000Y-8041000D01*
X11061000Y-8001000D02*
X11141000Y-8001000D01*
X11101000Y-8215000D02*
X11101000Y-8295000D01*
X11061000Y-8255000D02*
X11141000Y-8255000D01*
X11101000Y-8469000D02*
X11101000Y-8549000D01*
X11061000Y-8509000D02*
X11141000Y-8509000D01*
X11101000Y-8723000D02*
X11101000Y-8803000D01*
X11061000Y-8763000D02*
X11141000Y-8763000D01*
X11101000Y-8977000D02*
X11101000Y-9057000D01*
X11061000Y-9017000D02*
X11141000Y-9017000D01*
X11101000Y-9231000D02*
X11101000Y-9311000D01*
X11061000Y-9271000D02*
X11141000Y-9271000D01*
X12676000Y-7453000D02*
X12676000Y-7533000D01*
X12636000Y-7493000D02*
X12716000Y-7493000D01*
X12676000Y-7707000D02*
X12676000Y-7787000D01*
X12636000Y-7747000D02*
X12716000Y-7747000D01*
X12676000Y-7961000D02*
X12676000Y-8041000D01*
X12636000Y-8001000D02*
X12716000Y-8001000D01*
X12676000Y-8215000D02*
X12676000Y-8295000D01*
X12636000Y-8255000D02*
X12716000Y-8255000D01*
X12676000Y-8469000D02*
X12676000Y-8549000D01*
X12636000Y-8509000D02*
X12716000Y-8509000D01*
X12676000Y-8723000D02*
X12676000Y-8803000D01*
X12636000Y-8763000D02*
X12716000Y-8763000D01*
X12676000Y-8977000D02*
X12676000Y-9057000D01*
X12636000Y-9017000D02*
X12716000Y-9017000D01*
X12676000Y-9231000D02*
X12676000Y-9311000D01*
X12636000Y-9271000D02*
X12716000Y-9271000D01*
X6350000Y-5675000D02*
X6350000Y-5755000D01*
X6310000Y-5715000D02*
X6390000Y-5715000D01*
X6350000Y-5929000D02*
X6350000Y-6009000D01*
X6310000Y-5969000D02*
X6390000Y-5969000D01*
X6350000Y-6183000D02*
X6350000Y-6263000D01*
X6310000Y-6223000D02*
X6390000Y-6223000D01*
X6350000Y-6437000D02*
X6350000Y-6517000D01*
X6310000Y-6477000D02*
X6390000Y-6477000D01*
X6350000Y-6691000D02*
X6350000Y-6771000D01*
X6310000Y-6731000D02*
X6390000Y-6731000D01*
X6350000Y-6945000D02*
X6350000Y-7025000D01*
X6310000Y-6985000D02*
X6390000Y-6985000D01*
X6350000Y-7199000D02*
X6350000Y-7279000D01*
X6310000Y-7239000D02*
X6390000Y-7239000D01*
X6350000Y-7453000D02*
X6350000Y-7533000D01*
X6310000Y-7493000D02*
X6390000Y-7493000D01*
X6350000Y-7707000D02*
X6350000Y-7787000D01*
X6310000Y-7747000D02*
X6390000Y-7747000D01*
X6350000Y-7961000D02*
X6350000Y-8041000D01*
X6310000Y-8001000D02*
X6390000Y-8001000D01*
X6350000Y-8215000D02*
X6350000Y-8295000D01*
X6310000Y-8255000D02*
X6390000Y-8255000D01*
X6350000Y-8469000D02*
X6350000Y-8549000D01*
X6310000Y-8509000D02*
X6390000Y-8509000D01*
X6350000Y-8723000D02*
X6350000Y-8803000D01*
X6310000Y-8763000D02*
X6390000Y-8763000D01*
X6350000Y-8977000D02*
X6350000Y-9057000D01*
X6310000Y-9017000D02*
X6390000Y-9017000D01*
X6350000Y-9231000D02*
X6350000Y-9311000D01*
X6310000Y-9271000D02*
X6390000Y-9271000D01*
X6350000Y-9485000D02*
X6350000Y-9565000D01*
X6310000Y-9525000D02*
X6390000Y-9525000D01*
X6350000Y-9739000D02*
X6350000Y-9819000D01*
X6310000Y-9779000D02*
X6390000Y-9779000D01*
X6350000Y-9993000D02*
X6350000Y-10073000D01*
X6310000Y-10033000D02*
X6390000Y-10033000D01*
X6350000Y-10247000D02*
X6350000Y-10327000D01*
X6310000Y-10287000D02*
X6390000Y-10287000D01*
X8920000Y-5675000D02*
X8920000Y-5755000D01*
X8880000Y-5715000D02*
X8960000Y-5715000D01*
X8920000Y-5929000D02*
X8920000Y-6009000D01*
X8880000Y-5969000D02*
X8960000Y-5969000D01*
X8920000Y-6183000D02*
X8920000Y-6263000D01*
X8880000Y-6223000D02*
X8960000Y-6223000D01*
X8920000Y-6437000D02*
X8920000Y-6517000D01*
X8880000Y-6477000D02*
X8960000Y-6477000D01*
X8920000Y-6691000D02*
X8920000Y-6771000D01*
X8880000Y-6731000D02*
X8960000Y-6731000D01*
X8920000Y-6945000D02*
X8920000Y-7025000D01*
X8880000Y-6985000D02*
X8960000Y-6985000D01*
X8920000Y-7199000D02*
X8920000Y-7279000D01*
X8880000Y-7239000D02*
X8960000Y-7239000D01*
X8920000Y-7453000D02*
X8920000Y-7533000D01*
X8880000Y-7493000D02*
X8960000Y-7493000D01*
X8920000Y-7707000D02*
X8920000Y-7787000D01*
X8880000Y-7747000D02*
X8960000Y-7747000D01*
X8920000Y-7961000D02*
X8920000Y-8041000D01*
X8880000Y-8001000D02*
X8960000Y-8001000D01*
X8920000Y-8215000D02*
X8920000Y-8295000D01*
X8880000Y-8255000D02*
X8960000Y-8255000D01*
X8920000Y-8469000D02*
X8920000Y-8549000D01*
X8880000Y-8509000D02*
X8960000Y-8509000D01*
X8920000Y-8723000D02*
X8920000Y-8803000D01*
X8880000Y-8763000D02*
X8960000Y-8763000D01*
X8920000Y-8977000D02*
X8920000Y-9057000D01*
X8880000Y-9017000D02*
X8960000Y-9017000D01*
X8920000Y-9231000D02*
X8920000Y-9311000D01*
X8880000Y-9271000D02*
X8960000Y-9271000D01*
X8920000Y-9485000D02*
X8920000Y-9565000D01*
X8880000Y-9525000D02*
X8960000Y-9525000D01*
X8920000Y-9739000D02*
X8920000Y-9819000D01*
X8880000Y-9779000D02*
X8960000Y-9779000D01*
X8920000Y-9993000D02*
X8920000Y-10073000D01*
X8880000Y-10033000D02*
X8960000Y-10033000D01*
X8920000Y-10247000D02*
X8920000Y-10327000D01*
X8880000Y-10287000D02*
X8960000Y-10287000D01*
X10541000Y-4532000D02*
X10541000Y-4612000D01*
X10501000Y-4572000D02*
X10581000Y-4572000D01*
X10795000Y-4532000D02*
X10795000Y-4612000D01*
X10755000Y-4572000D02*
X10835000Y-4572000D01*
X11049000Y-4532000D02*
X11049000Y-4612000D01*
X11009000Y-4572000D02*
X11089000Y-4572000D01*
X11303000Y-4532000D02*
X11303000Y-4612000D01*
X11263000Y-4572000D02*
X11343000Y-4572000D01*
X13493820Y-13112820D02*
X13493820Y-13049180D01*
X13430180Y-13049180D01*
X13430180Y-13112820D01*
X13493820Y-13112820D01*
X14378820Y-13112820D02*
X14378820Y-13049180D01*
X14315180Y-13049180D01*
X14315180Y-13112820D01*
X14378820Y-13112820D01*
X9398000Y-10083000D02*
X9448000Y-10033000D01*
X9398000Y-9983000D01*
X9348000Y-10033000D01*
X9398000Y-10083000D01*
X9652000Y-10083000D02*
X9702000Y-10033000D01*
X9652000Y-9983000D01*
X9602000Y-10033000D01*
X9652000Y-10083000D01*
X13081000Y-4114000D02*
X13131000Y-4064000D01*
X13081000Y-4014000D01*
X13031000Y-4064000D01*
X13081000Y-4114000D01*
X13716000Y-5384000D02*
X13766000Y-5334000D01*
X13716000Y-5284000D01*
X13666000Y-5334000D01*
X13716000Y-5384000D01*
X14224000Y-5384000D02*
X14274000Y-5334000D01*
X14224000Y-5284000D01*
X14174000Y-5334000D01*
X14224000Y-5384000D01*
X14478000Y-5384000D02*
X14528000Y-5334000D01*
X14478000Y-5284000D01*
X14428000Y-5334000D01*
X14478000Y-5384000D01*
X14732000Y-5384000D02*
X14782000Y-5334000D01*
X14732000Y-5284000D01*
X14682000Y-5334000D01*
X14732000Y-5384000D01*
X13462000Y-11607000D02*
X13512000Y-11557000D01*
X13462000Y-11507000D01*
X13412000Y-11557000D01*
X13462000Y-11607000D01*
X13716000Y-11607000D02*
X13766000Y-11557000D01*
X13716000Y-11507000D01*
X13666000Y-11557000D01*
X13716000Y-11607000D01*
X13970000Y-11607000D02*
X14020000Y-11557000D01*
X13970000Y-11507000D01*
X13920000Y-11557000D01*
X13970000Y-11607000D01*
X3406000Y-4041000D02*
X3706000Y-4341000D01*
X3706000Y-4041000D02*
X3406000Y-4341000D01*
X3706000Y-4191000D02*
G75*
G03*
X3706000Y-4191000I-150000J0D01*
G01*
X3406000Y-13566000D02*
X3706000Y-13866000D01*
X3706000Y-13566000D02*
X3406000Y-13866000D01*
X3706000Y-13716000D02*
G75*
G03*
X3706000Y-13716000I-150000J0D01*
G01*
X17630000Y-4041000D02*
X17930000Y-4341000D01*
X17930000Y-4041000D02*
X17630000Y-4341000D01*
X17930000Y-4191000D02*
G75*
G03*
X17930000Y-4191000I-150000J0D01*
G01*
X17630000Y-13566000D02*
X17930000Y-13866000D01*
X17930000Y-13566000D02*
X17630000Y-13866000D01*
X17930000Y-13716000D02*
G75*
G03*
X17930000Y-13716000I-150000J0D01*
G01*
D12*
X3077928Y-14946214D02*
X3077928Y-14646214D01*
X3149357Y-14646214D01*
X3192214Y-14660500D01*
X3220786Y-14689071D01*
X3235071Y-14717643D01*
X3249357Y-14774786D01*
X3249357Y-14817643D01*
X3235071Y-14874786D01*
X3220786Y-14903357D01*
X3192214Y-14931929D01*
X3149357Y-14946214D01*
X3077928Y-14946214D01*
X3377928Y-14946214D02*
X3377928Y-14746214D01*
X3377928Y-14803357D02*
X3392214Y-14774786D01*
X3406500Y-14760500D01*
X3435071Y-14746214D01*
X3463643Y-14746214D01*
X3563643Y-14946214D02*
X3563643Y-14746214D01*
X3563643Y-14646214D02*
X3549357Y-14660500D01*
X3563643Y-14674786D01*
X3577928Y-14660500D01*
X3563643Y-14646214D01*
X3563643Y-14674786D01*
X3749357Y-14946214D02*
X3720786Y-14931929D01*
X3706500Y-14903357D01*
X3706500Y-14646214D01*
X3906500Y-14946214D02*
X3877928Y-14931929D01*
X3863643Y-14903357D01*
X3863643Y-14646214D01*
X4249357Y-14946214D02*
X4249357Y-14646214D01*
X4349357Y-14860500D01*
X4449357Y-14646214D01*
X4449357Y-14946214D01*
X4720786Y-14946214D02*
X4720786Y-14789071D01*
X4706500Y-14760500D01*
X4677928Y-14746214D01*
X4620786Y-14746214D01*
X4592214Y-14760500D01*
X4720786Y-14931929D02*
X4692214Y-14946214D01*
X4620786Y-14946214D01*
X4592214Y-14931929D01*
X4577928Y-14903357D01*
X4577928Y-14874786D01*
X4592214Y-14846214D01*
X4620786Y-14831929D01*
X4692214Y-14831929D01*
X4720786Y-14817643D01*
X4863643Y-14746214D02*
X4863643Y-15046214D01*
X4863643Y-14760500D02*
X4892214Y-14746214D01*
X4949357Y-14746214D01*
X4977928Y-14760500D01*
X4992214Y-14774786D01*
X5006500Y-14803357D01*
X5006500Y-14889071D01*
X4992214Y-14917643D01*
X4977928Y-14931929D01*
X4949357Y-14946214D01*
X4892214Y-14946214D01*
X4863643Y-14931929D01*
X5135071Y-14917643D02*
X5149357Y-14931929D01*
X5135071Y-14946214D01*
X5120786Y-14931929D01*
X5135071Y-14917643D01*
X5135071Y-14946214D01*
X5135071Y-14760500D02*
X5149357Y-14774786D01*
X5135071Y-14789071D01*
X5120786Y-14774786D01*
X5135071Y-14760500D01*
X5135071Y-14789071D01*
X2741500Y-15415500D02*
X2791500Y-15465500D01*
X2791500Y-15415500D02*
X2741500Y-15465500D01*
X3135071Y-15276214D02*
X3163643Y-15276214D01*
X3192214Y-15290500D01*
X3206500Y-15304786D01*
X3220786Y-15333357D01*
X3235071Y-15390500D01*
X3235071Y-15461929D01*
X3220786Y-15519071D01*
X3206500Y-15547643D01*
X3192214Y-15561929D01*
X3163643Y-15576214D01*
X3135071Y-15576214D01*
X3106500Y-15561929D01*
X3092214Y-15547643D01*
X3077928Y-15519071D01*
X3063643Y-15461929D01*
X3063643Y-15390500D01*
X3077928Y-15333357D01*
X3092214Y-15304786D01*
X3106500Y-15290500D01*
X3135071Y-15276214D01*
X3363643Y-15547643D02*
X3377928Y-15561929D01*
X3363643Y-15576214D01*
X3349357Y-15561929D01*
X3363643Y-15547643D01*
X3363643Y-15576214D01*
X3649357Y-15276214D02*
X3506500Y-15276214D01*
X3492214Y-15419071D01*
X3506500Y-15404786D01*
X3535071Y-15390500D01*
X3606500Y-15390500D01*
X3635071Y-15404786D01*
X3649357Y-15419071D01*
X3663643Y-15447643D01*
X3663643Y-15519071D01*
X3649357Y-15547643D01*
X3635071Y-15561929D01*
X3606500Y-15576214D01*
X3535071Y-15576214D01*
X3506500Y-15561929D01*
X3492214Y-15547643D01*
X3849357Y-15276214D02*
X3877928Y-15276214D01*
X3906500Y-15290500D01*
X3920786Y-15304786D01*
X3935071Y-15333357D01*
X3949357Y-15390500D01*
X3949357Y-15461929D01*
X3935071Y-15519071D01*
X3920786Y-15547643D01*
X3906500Y-15561929D01*
X3877928Y-15576214D01*
X3849357Y-15576214D01*
X3820786Y-15561929D01*
X3806500Y-15547643D01*
X3792214Y-15519071D01*
X3777928Y-15461929D01*
X3777928Y-15390500D01*
X3792214Y-15333357D01*
X3806500Y-15304786D01*
X3820786Y-15290500D01*
X3849357Y-15276214D01*
X4077928Y-15576214D02*
X4077928Y-15376214D01*
X4077928Y-15404786D02*
X4092214Y-15390500D01*
X4120786Y-15376214D01*
X4163643Y-15376214D01*
X4192214Y-15390500D01*
X4206500Y-15419071D01*
X4206500Y-15576214D01*
X4206500Y-15419071D02*
X4220786Y-15390500D01*
X4249357Y-15376214D01*
X4292214Y-15376214D01*
X4320786Y-15390500D01*
X4335071Y-15419071D01*
X4335071Y-15576214D01*
X4477928Y-15576214D02*
X4477928Y-15376214D01*
X4477928Y-15404786D02*
X4492214Y-15390500D01*
X4520786Y-15376214D01*
X4563643Y-15376214D01*
X4592214Y-15390500D01*
X4606500Y-15419071D01*
X4606500Y-15576214D01*
X4606500Y-15419071D02*
X4620786Y-15390500D01*
X4649357Y-15376214D01*
X4692214Y-15376214D01*
X4720786Y-15390500D01*
X4735071Y-15419071D01*
X4735071Y-15576214D01*
X5320786Y-15261929D02*
X5063643Y-15647643D01*
X5706500Y-15276214D02*
X5735071Y-15276214D01*
X5763643Y-15290500D01*
X5777928Y-15304786D01*
X5792214Y-15333357D01*
X5806500Y-15390500D01*
X5806500Y-15461929D01*
X5792214Y-15519071D01*
X5777928Y-15547643D01*
X5763643Y-15561929D01*
X5735071Y-15576214D01*
X5706500Y-15576214D01*
X5677928Y-15561929D01*
X5663643Y-15547643D01*
X5649357Y-15519071D01*
X5635071Y-15461929D01*
X5635071Y-15390500D01*
X5649357Y-15333357D01*
X5663643Y-15304786D01*
X5677928Y-15290500D01*
X5706500Y-15276214D01*
X5935071Y-15547643D02*
X5949357Y-15561929D01*
X5935071Y-15576214D01*
X5920786Y-15561929D01*
X5935071Y-15547643D01*
X5935071Y-15576214D01*
X6135071Y-15276214D02*
X6163643Y-15276214D01*
X6192214Y-15290500D01*
X6206500Y-15304786D01*
X6220786Y-15333357D01*
X6235071Y-15390500D01*
X6235071Y-15461929D01*
X6220786Y-15519071D01*
X6206500Y-15547643D01*
X6192214Y-15561929D01*
X6163643Y-15576214D01*
X6135071Y-15576214D01*
X6106500Y-15561929D01*
X6092214Y-15547643D01*
X6077928Y-15519071D01*
X6063643Y-15461929D01*
X6063643Y-15390500D01*
X6077928Y-15333357D01*
X6092214Y-15304786D01*
X6106500Y-15290500D01*
X6135071Y-15276214D01*
X6349357Y-15304786D02*
X6363643Y-15290500D01*
X6392214Y-15276214D01*
X6463643Y-15276214D01*
X6492214Y-15290500D01*
X6506500Y-15304786D01*
X6520786Y-15333357D01*
X6520786Y-15361929D01*
X6506500Y-15404786D01*
X6335071Y-15576214D01*
X6520786Y-15576214D01*
X6706500Y-15276214D02*
X6735071Y-15276214D01*
X6763643Y-15290500D01*
X6777928Y-15304786D01*
X6792214Y-15333357D01*
X6806500Y-15390500D01*
X6806500Y-15461929D01*
X6792214Y-15519071D01*
X6777928Y-15547643D01*
X6763643Y-15561929D01*
X6735071Y-15576214D01*
X6706500Y-15576214D01*
X6677928Y-15561929D01*
X6663643Y-15547643D01*
X6649357Y-15519071D01*
X6635071Y-15461929D01*
X6635071Y-15390500D01*
X6649357Y-15333357D01*
X6663643Y-15304786D01*
X6677928Y-15290500D01*
X6706500Y-15276214D01*
X6920786Y-15276214D02*
X6920786Y-15333357D01*
X7035071Y-15276214D02*
X7035071Y-15333357D01*
X7477928Y-15690500D02*
X7463643Y-15676214D01*
X7435071Y-15633357D01*
X7420786Y-15604786D01*
X7406500Y-15561929D01*
X7392214Y-15490500D01*
X7392214Y-15433357D01*
X7406500Y-15361929D01*
X7420786Y-15319071D01*
X7435071Y-15290500D01*
X7463643Y-15247643D01*
X7477928Y-15233357D01*
X7720786Y-15376214D02*
X7720786Y-15576214D01*
X7649357Y-15261929D02*
X7577928Y-15476214D01*
X7763643Y-15476214D01*
X8106500Y-15576214D02*
X8106500Y-15276214D01*
X8235071Y-15576214D02*
X8235071Y-15419071D01*
X8220786Y-15390500D01*
X8192214Y-15376214D01*
X8149357Y-15376214D01*
X8120786Y-15390500D01*
X8106500Y-15404786D01*
X8420786Y-15576214D02*
X8392214Y-15561929D01*
X8377928Y-15547643D01*
X8363643Y-15519071D01*
X8363643Y-15433357D01*
X8377928Y-15404786D01*
X8392214Y-15390500D01*
X8420786Y-15376214D01*
X8463643Y-15376214D01*
X8492214Y-15390500D01*
X8506500Y-15404786D01*
X8520786Y-15433357D01*
X8520786Y-15519071D01*
X8506500Y-15547643D01*
X8492214Y-15561929D01*
X8463643Y-15576214D01*
X8420786Y-15576214D01*
X8692214Y-15576214D02*
X8663643Y-15561929D01*
X8649357Y-15533357D01*
X8649357Y-15276214D01*
X8920786Y-15561929D02*
X8892214Y-15576214D01*
X8835071Y-15576214D01*
X8806500Y-15561929D01*
X8792214Y-15533357D01*
X8792214Y-15419071D01*
X8806500Y-15390500D01*
X8835071Y-15376214D01*
X8892214Y-15376214D01*
X8920786Y-15390500D01*
X8935071Y-15419071D01*
X8935071Y-15447643D01*
X8792214Y-15476214D01*
X9049357Y-15561929D02*
X9077928Y-15576214D01*
X9135071Y-15576214D01*
X9163643Y-15561929D01*
X9177928Y-15533357D01*
X9177928Y-15519071D01*
X9163643Y-15490500D01*
X9135071Y-15476214D01*
X9092214Y-15476214D01*
X9063643Y-15461929D01*
X9049357Y-15433357D01*
X9049357Y-15419071D01*
X9063643Y-15390500D01*
X9092214Y-15376214D01*
X9135071Y-15376214D01*
X9163643Y-15390500D01*
X9277928Y-15690500D02*
X9292214Y-15676214D01*
X9320786Y-15633357D01*
X9335071Y-15604786D01*
X9349357Y-15561929D01*
X9363643Y-15490500D01*
X9363643Y-15433357D01*
X9349357Y-15361929D01*
X9335071Y-15319071D01*
X9320786Y-15290500D01*
X9292214Y-15247643D01*
X9277928Y-15233357D01*
X2791500Y-15836500D02*
G75*
G03*
X2791500Y-15836500I-38100J0D01*
G01*
X3135071Y-15672214D02*
X3163643Y-15672214D01*
X3192214Y-15686500D01*
X3206500Y-15700786D01*
X3220786Y-15729357D01*
X3235071Y-15786500D01*
X3235071Y-15857929D01*
X3220786Y-15915071D01*
X3206500Y-15943643D01*
X3192214Y-15957929D01*
X3163643Y-15972214D01*
X3135071Y-15972214D01*
X3106500Y-15957929D01*
X3092214Y-15943643D01*
X3077928Y-15915071D01*
X3063643Y-15857929D01*
X3063643Y-15786500D01*
X3077928Y-15729357D01*
X3092214Y-15700786D01*
X3106500Y-15686500D01*
X3135071Y-15672214D01*
X3363643Y-15943643D02*
X3377928Y-15957929D01*
X3363643Y-15972214D01*
X3349357Y-15957929D01*
X3363643Y-15943643D01*
X3363643Y-15972214D01*
X3477928Y-15672214D02*
X3677928Y-15672214D01*
X3549357Y-15972214D01*
X3920786Y-15672214D02*
X3863643Y-15672214D01*
X3835071Y-15686500D01*
X3820786Y-15700786D01*
X3792214Y-15743643D01*
X3777928Y-15800786D01*
X3777928Y-15915071D01*
X3792214Y-15943643D01*
X3806500Y-15957929D01*
X3835071Y-15972214D01*
X3892214Y-15972214D01*
X3920786Y-15957929D01*
X3935071Y-15943643D01*
X3949357Y-15915071D01*
X3949357Y-15843643D01*
X3935071Y-15815071D01*
X3920786Y-15800786D01*
X3892214Y-15786500D01*
X3835071Y-15786500D01*
X3806500Y-15800786D01*
X3792214Y-15815071D01*
X3777928Y-15843643D01*
X4077928Y-15972214D02*
X4077928Y-15772214D01*
X4077928Y-15800786D02*
X4092214Y-15786500D01*
X4120786Y-15772214D01*
X4163643Y-15772214D01*
X4192214Y-15786500D01*
X4206500Y-15815071D01*
X4206500Y-15972214D01*
X4206500Y-15815071D02*
X4220786Y-15786500D01*
X4249357Y-15772214D01*
X4292214Y-15772214D01*
X4320786Y-15786500D01*
X4335071Y-15815071D01*
X4335071Y-15972214D01*
X4477928Y-15972214D02*
X4477928Y-15772214D01*
X4477928Y-15800786D02*
X4492214Y-15786500D01*
X4520786Y-15772214D01*
X4563643Y-15772214D01*
X4592214Y-15786500D01*
X4606500Y-15815071D01*
X4606500Y-15972214D01*
X4606500Y-15815071D02*
X4620786Y-15786500D01*
X4649357Y-15772214D01*
X4692214Y-15772214D01*
X4720786Y-15786500D01*
X4735071Y-15815071D01*
X4735071Y-15972214D01*
X5320786Y-15657929D02*
X5063643Y-16043643D01*
X5706500Y-15672214D02*
X5735071Y-15672214D01*
X5763643Y-15686500D01*
X5777928Y-15700786D01*
X5792214Y-15729357D01*
X5806500Y-15786500D01*
X5806500Y-15857929D01*
X5792214Y-15915071D01*
X5777928Y-15943643D01*
X5763643Y-15957929D01*
X5735071Y-15972214D01*
X5706500Y-15972214D01*
X5677928Y-15957929D01*
X5663643Y-15943643D01*
X5649357Y-15915071D01*
X5635071Y-15857929D01*
X5635071Y-15786500D01*
X5649357Y-15729357D01*
X5663643Y-15700786D01*
X5677928Y-15686500D01*
X5706500Y-15672214D01*
X5935071Y-15943643D02*
X5949357Y-15957929D01*
X5935071Y-15972214D01*
X5920786Y-15957929D01*
X5935071Y-15943643D01*
X5935071Y-15972214D01*
X6135071Y-15672214D02*
X6163643Y-15672214D01*
X6192214Y-15686500D01*
X6206500Y-15700786D01*
X6220786Y-15729357D01*
X6235071Y-15786500D01*
X6235071Y-15857929D01*
X6220786Y-15915071D01*
X6206500Y-15943643D01*
X6192214Y-15957929D01*
X6163643Y-15972214D01*
X6135071Y-15972214D01*
X6106500Y-15957929D01*
X6092214Y-15943643D01*
X6077928Y-15915071D01*
X6063643Y-15857929D01*
X6063643Y-15786500D01*
X6077928Y-15729357D01*
X6092214Y-15700786D01*
X6106500Y-15686500D01*
X6135071Y-15672214D01*
X6335071Y-15672214D02*
X6520786Y-15672214D01*
X6420786Y-15786500D01*
X6463643Y-15786500D01*
X6492214Y-15800786D01*
X6506500Y-15815071D01*
X6520786Y-15843643D01*
X6520786Y-15915071D01*
X6506500Y-15943643D01*
X6492214Y-15957929D01*
X6463643Y-15972214D01*
X6377928Y-15972214D01*
X6349357Y-15957929D01*
X6335071Y-15943643D01*
X6706500Y-15672214D02*
X6735071Y-15672214D01*
X6763643Y-15686500D01*
X6777928Y-15700786D01*
X6792214Y-15729357D01*
X6806500Y-15786500D01*
X6806500Y-15857929D01*
X6792214Y-15915071D01*
X6777928Y-15943643D01*
X6763643Y-15957929D01*
X6735071Y-15972214D01*
X6706500Y-15972214D01*
X6677928Y-15957929D01*
X6663643Y-15943643D01*
X6649357Y-15915071D01*
X6635071Y-15857929D01*
X6635071Y-15786500D01*
X6649357Y-15729357D01*
X6663643Y-15700786D01*
X6677928Y-15686500D01*
X6706500Y-15672214D01*
X6920786Y-15672214D02*
X6920786Y-15729357D01*
X7035071Y-15672214D02*
X7035071Y-15729357D01*
X7477928Y-16086500D02*
X7463643Y-16072214D01*
X7435071Y-16029357D01*
X7420786Y-16000786D01*
X7406500Y-15957929D01*
X7392214Y-15886500D01*
X7392214Y-15829357D01*
X7406500Y-15757929D01*
X7420786Y-15715071D01*
X7435071Y-15686500D01*
X7463643Y-15643643D01*
X7477928Y-15629357D01*
X7606500Y-15972214D02*
X7663643Y-15972214D01*
X7692214Y-15957929D01*
X7706500Y-15943643D01*
X7735071Y-15900786D01*
X7749357Y-15843643D01*
X7749357Y-15729357D01*
X7735071Y-15700786D01*
X7720786Y-15686500D01*
X7692214Y-15672214D01*
X7635071Y-15672214D01*
X7606500Y-15686500D01*
X7592214Y-15700786D01*
X7577928Y-15729357D01*
X7577928Y-15800786D01*
X7592214Y-15829357D01*
X7606500Y-15843643D01*
X7635071Y-15857929D01*
X7692214Y-15857929D01*
X7720786Y-15843643D01*
X7735071Y-15829357D01*
X7749357Y-15800786D01*
X8106500Y-15972214D02*
X8106500Y-15672214D01*
X8235071Y-15972214D02*
X8235071Y-15815071D01*
X8220786Y-15786500D01*
X8192214Y-15772214D01*
X8149357Y-15772214D01*
X8120786Y-15786500D01*
X8106500Y-15800786D01*
X8420786Y-15972214D02*
X8392214Y-15957929D01*
X8377928Y-15943643D01*
X8363643Y-15915071D01*
X8363643Y-15829357D01*
X8377928Y-15800786D01*
X8392214Y-15786500D01*
X8420786Y-15772214D01*
X8463643Y-15772214D01*
X8492214Y-15786500D01*
X8506500Y-15800786D01*
X8520786Y-15829357D01*
X8520786Y-15915071D01*
X8506500Y-15943643D01*
X8492214Y-15957929D01*
X8463643Y-15972214D01*
X8420786Y-15972214D01*
X8692214Y-15972214D02*
X8663643Y-15957929D01*
X8649357Y-15929357D01*
X8649357Y-15672214D01*
X8920786Y-15957929D02*
X8892214Y-15972214D01*
X8835071Y-15972214D01*
X8806500Y-15957929D01*
X8792214Y-15929357D01*
X8792214Y-15815071D01*
X8806500Y-15786500D01*
X8835071Y-15772214D01*
X8892214Y-15772214D01*
X8920786Y-15786500D01*
X8935071Y-15815071D01*
X8935071Y-15843643D01*
X8792214Y-15872214D01*
X9049357Y-15957929D02*
X9077928Y-15972214D01*
X9135071Y-15972214D01*
X9163643Y-15957929D01*
X9177928Y-15929357D01*
X9177928Y-15915071D01*
X9163643Y-15886500D01*
X9135071Y-15872214D01*
X9092214Y-15872214D01*
X9063643Y-15857929D01*
X9049357Y-15829357D01*
X9049357Y-15815071D01*
X9063643Y-15786500D01*
X9092214Y-15772214D01*
X9135071Y-15772214D01*
X9163643Y-15786500D01*
X9277928Y-16086500D02*
X9292214Y-16072214D01*
X9320786Y-16029357D01*
X9335071Y-16000786D01*
X9349357Y-15957929D01*
X9363643Y-15886500D01*
X9363643Y-15829357D01*
X9349357Y-15757929D01*
X9335071Y-15715071D01*
X9320786Y-15686500D01*
X9292214Y-15643643D01*
X9277928Y-15629357D01*
X2751500Y-16192500D02*
X2751500Y-16272500D01*
X2711500Y-16232500D02*
X2791500Y-16232500D01*
X3135071Y-16068214D02*
X3163643Y-16068214D01*
X3192214Y-16082500D01*
X3206500Y-16096786D01*
X3220786Y-16125357D01*
X3235071Y-16182500D01*
X3235071Y-16253929D01*
X3220786Y-16311071D01*
X3206500Y-16339643D01*
X3192214Y-16353929D01*
X3163643Y-16368214D01*
X3135071Y-16368214D01*
X3106500Y-16353929D01*
X3092214Y-16339643D01*
X3077928Y-16311071D01*
X3063643Y-16253929D01*
X3063643Y-16182500D01*
X3077928Y-16125357D01*
X3092214Y-16096786D01*
X3106500Y-16082500D01*
X3135071Y-16068214D01*
X3363643Y-16339643D02*
X3377928Y-16353929D01*
X3363643Y-16368214D01*
X3349357Y-16353929D01*
X3363643Y-16339643D01*
X3363643Y-16368214D01*
X3549357Y-16196786D02*
X3520786Y-16182500D01*
X3506500Y-16168214D01*
X3492214Y-16139643D01*
X3492214Y-16125357D01*
X3506500Y-16096786D01*
X3520786Y-16082500D01*
X3549357Y-16068214D01*
X3606500Y-16068214D01*
X3635071Y-16082500D01*
X3649357Y-16096786D01*
X3663643Y-16125357D01*
X3663643Y-16139643D01*
X3649357Y-16168214D01*
X3635071Y-16182500D01*
X3606500Y-16196786D01*
X3549357Y-16196786D01*
X3520786Y-16211071D01*
X3506500Y-16225357D01*
X3492214Y-16253929D01*
X3492214Y-16311071D01*
X3506500Y-16339643D01*
X3520786Y-16353929D01*
X3549357Y-16368214D01*
X3606500Y-16368214D01*
X3635071Y-16353929D01*
X3649357Y-16339643D01*
X3663643Y-16311071D01*
X3663643Y-16253929D01*
X3649357Y-16225357D01*
X3635071Y-16211071D01*
X3606500Y-16196786D01*
X3849357Y-16068214D02*
X3877928Y-16068214D01*
X3906500Y-16082500D01*
X3920786Y-16096786D01*
X3935071Y-16125357D01*
X3949357Y-16182500D01*
X3949357Y-16253929D01*
X3935071Y-16311071D01*
X3920786Y-16339643D01*
X3906500Y-16353929D01*
X3877928Y-16368214D01*
X3849357Y-16368214D01*
X3820786Y-16353929D01*
X3806500Y-16339643D01*
X3792214Y-16311071D01*
X3777928Y-16253929D01*
X3777928Y-16182500D01*
X3792214Y-16125357D01*
X3806500Y-16096786D01*
X3820786Y-16082500D01*
X3849357Y-16068214D01*
X4077928Y-16368214D02*
X4077928Y-16168214D01*
X4077928Y-16196786D02*
X4092214Y-16182500D01*
X4120786Y-16168214D01*
X4163643Y-16168214D01*
X4192214Y-16182500D01*
X4206500Y-16211071D01*
X4206500Y-16368214D01*
X4206500Y-16211071D02*
X4220786Y-16182500D01*
X4249357Y-16168214D01*
X4292214Y-16168214D01*
X4320786Y-16182500D01*
X4335071Y-16211071D01*
X4335071Y-16368214D01*
X4477928Y-16368214D02*
X4477928Y-16168214D01*
X4477928Y-16196786D02*
X4492214Y-16182500D01*
X4520786Y-16168214D01*
X4563643Y-16168214D01*
X4592214Y-16182500D01*
X4606500Y-16211071D01*
X4606500Y-16368214D01*
X4606500Y-16211071D02*
X4620786Y-16182500D01*
X4649357Y-16168214D01*
X4692214Y-16168214D01*
X4720786Y-16182500D01*
X4735071Y-16211071D01*
X4735071Y-16368214D01*
X5320786Y-16053929D02*
X5063643Y-16439643D01*
X5706500Y-16068214D02*
X5735071Y-16068214D01*
X5763643Y-16082500D01*
X5777928Y-16096786D01*
X5792214Y-16125357D01*
X5806500Y-16182500D01*
X5806500Y-16253929D01*
X5792214Y-16311071D01*
X5777928Y-16339643D01*
X5763643Y-16353929D01*
X5735071Y-16368214D01*
X5706500Y-16368214D01*
X5677928Y-16353929D01*
X5663643Y-16339643D01*
X5649357Y-16311071D01*
X5635071Y-16253929D01*
X5635071Y-16182500D01*
X5649357Y-16125357D01*
X5663643Y-16096786D01*
X5677928Y-16082500D01*
X5706500Y-16068214D01*
X5935071Y-16339643D02*
X5949357Y-16353929D01*
X5935071Y-16368214D01*
X5920786Y-16353929D01*
X5935071Y-16339643D01*
X5935071Y-16368214D01*
X6135071Y-16068214D02*
X6163643Y-16068214D01*
X6192214Y-16082500D01*
X6206500Y-16096786D01*
X6220786Y-16125357D01*
X6235071Y-16182500D01*
X6235071Y-16253929D01*
X6220786Y-16311071D01*
X6206500Y-16339643D01*
X6192214Y-16353929D01*
X6163643Y-16368214D01*
X6135071Y-16368214D01*
X6106500Y-16353929D01*
X6092214Y-16339643D01*
X6077928Y-16311071D01*
X6063643Y-16253929D01*
X6063643Y-16182500D01*
X6077928Y-16125357D01*
X6092214Y-16096786D01*
X6106500Y-16082500D01*
X6135071Y-16068214D01*
X6335071Y-16068214D02*
X6520786Y-16068214D01*
X6420786Y-16182500D01*
X6463643Y-16182500D01*
X6492214Y-16196786D01*
X6506500Y-16211071D01*
X6520786Y-16239643D01*
X6520786Y-16311071D01*
X6506500Y-16339643D01*
X6492214Y-16353929D01*
X6463643Y-16368214D01*
X6377928Y-16368214D01*
X6349357Y-16353929D01*
X6335071Y-16339643D01*
X6806500Y-16368214D02*
X6635071Y-16368214D01*
X6720786Y-16368214D02*
X6720786Y-16068214D01*
X6692214Y-16111071D01*
X6663643Y-16139643D01*
X6635071Y-16153929D01*
X6920786Y-16068214D02*
X6920786Y-16125357D01*
X7035071Y-16068214D02*
X7035071Y-16125357D01*
X7477928Y-16482500D02*
X7463643Y-16468214D01*
X7435071Y-16425357D01*
X7420786Y-16396786D01*
X7406500Y-16353929D01*
X7392214Y-16282500D01*
X7392214Y-16225357D01*
X7406500Y-16153929D01*
X7420786Y-16111071D01*
X7435071Y-16082500D01*
X7463643Y-16039643D01*
X7477928Y-16025357D01*
X7635071Y-16196786D02*
X7606500Y-16182500D01*
X7592214Y-16168214D01*
X7577928Y-16139643D01*
X7577928Y-16125357D01*
X7592214Y-16096786D01*
X7606500Y-16082500D01*
X7635071Y-16068214D01*
X7692214Y-16068214D01*
X7720786Y-16082500D01*
X7735071Y-16096786D01*
X7749357Y-16125357D01*
X7749357Y-16139643D01*
X7735071Y-16168214D01*
X7720786Y-16182500D01*
X7692214Y-16196786D01*
X7635071Y-16196786D01*
X7606500Y-16211071D01*
X7592214Y-16225357D01*
X7577928Y-16253929D01*
X7577928Y-16311071D01*
X7592214Y-16339643D01*
X7606500Y-16353929D01*
X7635071Y-16368214D01*
X7692214Y-16368214D01*
X7720786Y-16353929D01*
X7735071Y-16339643D01*
X7749357Y-16311071D01*
X7749357Y-16253929D01*
X7735071Y-16225357D01*
X7720786Y-16211071D01*
X7692214Y-16196786D01*
X8006500Y-16168214D02*
X8006500Y-16368214D01*
X7935071Y-16053929D02*
X7863643Y-16268214D01*
X8049357Y-16268214D01*
X8392214Y-16368214D02*
X8392214Y-16068214D01*
X8520786Y-16368214D02*
X8520786Y-16211071D01*
X8506500Y-16182500D01*
X8477928Y-16168214D01*
X8435071Y-16168214D01*
X8406500Y-16182500D01*
X8392214Y-16196786D01*
X8706500Y-16368214D02*
X8677928Y-16353929D01*
X8663643Y-16339643D01*
X8649357Y-16311071D01*
X8649357Y-16225357D01*
X8663643Y-16196786D01*
X8677928Y-16182500D01*
X8706500Y-16168214D01*
X8749357Y-16168214D01*
X8777928Y-16182500D01*
X8792214Y-16196786D01*
X8806500Y-16225357D01*
X8806500Y-16311071D01*
X8792214Y-16339643D01*
X8777928Y-16353929D01*
X8749357Y-16368214D01*
X8706500Y-16368214D01*
X8977928Y-16368214D02*
X8949357Y-16353929D01*
X8935071Y-16325357D01*
X8935071Y-16068214D01*
X9206500Y-16353929D02*
X9177928Y-16368214D01*
X9120786Y-16368214D01*
X9092214Y-16353929D01*
X9077928Y-16325357D01*
X9077928Y-16211071D01*
X9092214Y-16182500D01*
X9120786Y-16168214D01*
X9177928Y-16168214D01*
X9206500Y-16182500D01*
X9220786Y-16211071D01*
X9220786Y-16239643D01*
X9077928Y-16268214D01*
X9335071Y-16353929D02*
X9363643Y-16368214D01*
X9420786Y-16368214D01*
X9449357Y-16353929D01*
X9463643Y-16325357D01*
X9463643Y-16311071D01*
X9449357Y-16282500D01*
X9420786Y-16268214D01*
X9377928Y-16268214D01*
X9349357Y-16253929D01*
X9335071Y-16225357D01*
X9335071Y-16211071D01*
X9349357Y-16182500D01*
X9377928Y-16168214D01*
X9420786Y-16168214D01*
X9449357Y-16182500D01*
X9563643Y-16482500D02*
X9577928Y-16468214D01*
X9606500Y-16425357D01*
X9620786Y-16396786D01*
X9635071Y-16353929D01*
X9649357Y-16282500D01*
X9649357Y-16225357D01*
X9635071Y-16153929D01*
X9620786Y-16111071D01*
X9606500Y-16082500D01*
X9577928Y-16039643D01*
X9563643Y-16025357D01*
X2778320Y-16660320D02*
X2778320Y-16596680D01*
X2714680Y-16596680D01*
X2714680Y-16660320D01*
X2778320Y-16660320D01*
X3135071Y-16464214D02*
X3163643Y-16464214D01*
X3192214Y-16478500D01*
X3206500Y-16492786D01*
X3220786Y-16521357D01*
X3235071Y-16578500D01*
X3235071Y-16649929D01*
X3220786Y-16707071D01*
X3206500Y-16735643D01*
X3192214Y-16749929D01*
X3163643Y-16764214D01*
X3135071Y-16764214D01*
X3106500Y-16749929D01*
X3092214Y-16735643D01*
X3077928Y-16707071D01*
X3063643Y-16649929D01*
X3063643Y-16578500D01*
X3077928Y-16521357D01*
X3092214Y-16492786D01*
X3106500Y-16478500D01*
X3135071Y-16464214D01*
X3363643Y-16735643D02*
X3377928Y-16749929D01*
X3363643Y-16764214D01*
X3349357Y-16749929D01*
X3363643Y-16735643D01*
X3363643Y-16764214D01*
X3520786Y-16764214D02*
X3577928Y-16764214D01*
X3606500Y-16749929D01*
X3620786Y-16735643D01*
X3649357Y-16692786D01*
X3663643Y-16635643D01*
X3663643Y-16521357D01*
X3649357Y-16492786D01*
X3635071Y-16478500D01*
X3606500Y-16464214D01*
X3549357Y-16464214D01*
X3520786Y-16478500D01*
X3506500Y-16492786D01*
X3492214Y-16521357D01*
X3492214Y-16592786D01*
X3506500Y-16621357D01*
X3520786Y-16635643D01*
X3549357Y-16649929D01*
X3606500Y-16649929D01*
X3635071Y-16635643D01*
X3649357Y-16621357D01*
X3663643Y-16592786D01*
X3849357Y-16464214D02*
X3877928Y-16464214D01*
X3906500Y-16478500D01*
X3920786Y-16492786D01*
X3935071Y-16521357D01*
X3949357Y-16578500D01*
X3949357Y-16649929D01*
X3935071Y-16707071D01*
X3920786Y-16735643D01*
X3906500Y-16749929D01*
X3877928Y-16764214D01*
X3849357Y-16764214D01*
X3820786Y-16749929D01*
X3806500Y-16735643D01*
X3792214Y-16707071D01*
X3777928Y-16649929D01*
X3777928Y-16578500D01*
X3792214Y-16521357D01*
X3806500Y-16492786D01*
X3820786Y-16478500D01*
X3849357Y-16464214D01*
X4077928Y-16764214D02*
X4077928Y-16564214D01*
X4077928Y-16592786D02*
X4092214Y-16578500D01*
X4120786Y-16564214D01*
X4163643Y-16564214D01*
X4192214Y-16578500D01*
X4206500Y-16607071D01*
X4206500Y-16764214D01*
X4206500Y-16607071D02*
X4220786Y-16578500D01*
X4249357Y-16564214D01*
X4292214Y-16564214D01*
X4320786Y-16578500D01*
X4335071Y-16607071D01*
X4335071Y-16764214D01*
X4477928Y-16764214D02*
X4477928Y-16564214D01*
X4477928Y-16592786D02*
X4492214Y-16578500D01*
X4520786Y-16564214D01*
X4563643Y-16564214D01*
X4592214Y-16578500D01*
X4606500Y-16607071D01*
X4606500Y-16764214D01*
X4606500Y-16607071D02*
X4620786Y-16578500D01*
X4649357Y-16564214D01*
X4692214Y-16564214D01*
X4720786Y-16578500D01*
X4735071Y-16607071D01*
X4735071Y-16764214D01*
X5320786Y-16449929D02*
X5063643Y-16835643D01*
X5706500Y-16464214D02*
X5735071Y-16464214D01*
X5763643Y-16478500D01*
X5777928Y-16492786D01*
X5792214Y-16521357D01*
X5806500Y-16578500D01*
X5806500Y-16649929D01*
X5792214Y-16707071D01*
X5777928Y-16735643D01*
X5763643Y-16749929D01*
X5735071Y-16764214D01*
X5706500Y-16764214D01*
X5677928Y-16749929D01*
X5663643Y-16735643D01*
X5649357Y-16707071D01*
X5635071Y-16649929D01*
X5635071Y-16578500D01*
X5649357Y-16521357D01*
X5663643Y-16492786D01*
X5677928Y-16478500D01*
X5706500Y-16464214D01*
X5935071Y-16735643D02*
X5949357Y-16749929D01*
X5935071Y-16764214D01*
X5920786Y-16749929D01*
X5935071Y-16735643D01*
X5935071Y-16764214D01*
X6135071Y-16464214D02*
X6163643Y-16464214D01*
X6192214Y-16478500D01*
X6206500Y-16492786D01*
X6220786Y-16521357D01*
X6235071Y-16578500D01*
X6235071Y-16649929D01*
X6220786Y-16707071D01*
X6206500Y-16735643D01*
X6192214Y-16749929D01*
X6163643Y-16764214D01*
X6135071Y-16764214D01*
X6106500Y-16749929D01*
X6092214Y-16735643D01*
X6077928Y-16707071D01*
X6063643Y-16649929D01*
X6063643Y-16578500D01*
X6077928Y-16521357D01*
X6092214Y-16492786D01*
X6106500Y-16478500D01*
X6135071Y-16464214D01*
X6335071Y-16464214D02*
X6520786Y-16464214D01*
X6420786Y-16578500D01*
X6463643Y-16578500D01*
X6492214Y-16592786D01*
X6506500Y-16607071D01*
X6520786Y-16635643D01*
X6520786Y-16707071D01*
X6506500Y-16735643D01*
X6492214Y-16749929D01*
X6463643Y-16764214D01*
X6377928Y-16764214D01*
X6349357Y-16749929D01*
X6335071Y-16735643D01*
X6792214Y-16464214D02*
X6649357Y-16464214D01*
X6635071Y-16607071D01*
X6649357Y-16592786D01*
X6677928Y-16578500D01*
X6749357Y-16578500D01*
X6777928Y-16592786D01*
X6792214Y-16607071D01*
X6806500Y-16635643D01*
X6806500Y-16707071D01*
X6792214Y-16735643D01*
X6777928Y-16749929D01*
X6749357Y-16764214D01*
X6677928Y-16764214D01*
X6649357Y-16749929D01*
X6635071Y-16735643D01*
X6920786Y-16464214D02*
X6920786Y-16521357D01*
X7035071Y-16464214D02*
X7035071Y-16521357D01*
X7477928Y-16878500D02*
X7463643Y-16864214D01*
X7435071Y-16821357D01*
X7420786Y-16792786D01*
X7406500Y-16749929D01*
X7392214Y-16678500D01*
X7392214Y-16621357D01*
X7406500Y-16549929D01*
X7420786Y-16507071D01*
X7435071Y-16478500D01*
X7463643Y-16435643D01*
X7477928Y-16421357D01*
X7577928Y-16492786D02*
X7592214Y-16478500D01*
X7620786Y-16464214D01*
X7692214Y-16464214D01*
X7720786Y-16478500D01*
X7735071Y-16492786D01*
X7749357Y-16521357D01*
X7749357Y-16549929D01*
X7735071Y-16592786D01*
X7563643Y-16764214D01*
X7749357Y-16764214D01*
X8106500Y-16764214D02*
X8106500Y-16464214D01*
X8235071Y-16764214D02*
X8235071Y-16607071D01*
X8220786Y-16578500D01*
X8192214Y-16564214D01*
X8149357Y-16564214D01*
X8120786Y-16578500D01*
X8106500Y-16592786D01*
X8420786Y-16764214D02*
X8392214Y-16749929D01*
X8377928Y-16735643D01*
X8363643Y-16707071D01*
X8363643Y-16621357D01*
X8377928Y-16592786D01*
X8392214Y-16578500D01*
X8420786Y-16564214D01*
X8463643Y-16564214D01*
X8492214Y-16578500D01*
X8506500Y-16592786D01*
X8520786Y-16621357D01*
X8520786Y-16707071D01*
X8506500Y-16735643D01*
X8492214Y-16749929D01*
X8463643Y-16764214D01*
X8420786Y-16764214D01*
X8692214Y-16764214D02*
X8663643Y-16749929D01*
X8649357Y-16721357D01*
X8649357Y-16464214D01*
X8920786Y-16749929D02*
X8892214Y-16764214D01*
X8835071Y-16764214D01*
X8806500Y-16749929D01*
X8792214Y-16721357D01*
X8792214Y-16607071D01*
X8806500Y-16578500D01*
X8835071Y-16564214D01*
X8892214Y-16564214D01*
X8920786Y-16578500D01*
X8935071Y-16607071D01*
X8935071Y-16635643D01*
X8792214Y-16664214D01*
X9049357Y-16749929D02*
X9077928Y-16764214D01*
X9135071Y-16764214D01*
X9163643Y-16749929D01*
X9177928Y-16721357D01*
X9177928Y-16707071D01*
X9163643Y-16678500D01*
X9135071Y-16664214D01*
X9092214Y-16664214D01*
X9063643Y-16649929D01*
X9049357Y-16621357D01*
X9049357Y-16607071D01*
X9063643Y-16578500D01*
X9092214Y-16564214D01*
X9135071Y-16564214D01*
X9163643Y-16578500D01*
X9277928Y-16878500D02*
X9292214Y-16864214D01*
X9320786Y-16821357D01*
X9335071Y-16792786D01*
X9349357Y-16749929D01*
X9363643Y-16678500D01*
X9363643Y-16621357D01*
X9349357Y-16549929D01*
X9335071Y-16507071D01*
X9320786Y-16478500D01*
X9292214Y-16435643D01*
X9277928Y-16421357D01*
X2741500Y-17074500D02*
X2791500Y-17024500D01*
X2741500Y-16974500D01*
X2691500Y-17024500D01*
X2741500Y-17074500D01*
X3235071Y-17160214D02*
X3063643Y-17160214D01*
X3149357Y-17160214D02*
X3149357Y-16860214D01*
X3120786Y-16903072D01*
X3092214Y-16931643D01*
X3063643Y-16945929D01*
X3363643Y-17131643D02*
X3377928Y-17145929D01*
X3363643Y-17160214D01*
X3349357Y-17145929D01*
X3363643Y-17131643D01*
X3363643Y-17160214D01*
X3563643Y-16860214D02*
X3592214Y-16860214D01*
X3620786Y-16874500D01*
X3635071Y-16888786D01*
X3649357Y-16917357D01*
X3663643Y-16974500D01*
X3663643Y-17045929D01*
X3649357Y-17103072D01*
X3635071Y-17131643D01*
X3620786Y-17145929D01*
X3592214Y-17160214D01*
X3563643Y-17160214D01*
X3535071Y-17145929D01*
X3520786Y-17131643D01*
X3506500Y-17103072D01*
X3492214Y-17045929D01*
X3492214Y-16974500D01*
X3506500Y-16917357D01*
X3520786Y-16888786D01*
X3535071Y-16874500D01*
X3563643Y-16860214D01*
X3849357Y-16860214D02*
X3877928Y-16860214D01*
X3906500Y-16874500D01*
X3920786Y-16888786D01*
X3935071Y-16917357D01*
X3949357Y-16974500D01*
X3949357Y-17045929D01*
X3935071Y-17103072D01*
X3920786Y-17131643D01*
X3906500Y-17145929D01*
X3877928Y-17160214D01*
X3849357Y-17160214D01*
X3820786Y-17145929D01*
X3806500Y-17131643D01*
X3792214Y-17103072D01*
X3777928Y-17045929D01*
X3777928Y-16974500D01*
X3792214Y-16917357D01*
X3806500Y-16888786D01*
X3820786Y-16874500D01*
X3849357Y-16860214D01*
X4077928Y-17160214D02*
X4077928Y-16960214D01*
X4077928Y-16988786D02*
X4092214Y-16974500D01*
X4120786Y-16960214D01*
X4163643Y-16960214D01*
X4192214Y-16974500D01*
X4206500Y-17003072D01*
X4206500Y-17160214D01*
X4206500Y-17003072D02*
X4220786Y-16974500D01*
X4249357Y-16960214D01*
X4292214Y-16960214D01*
X4320786Y-16974500D01*
X4335071Y-17003072D01*
X4335071Y-17160214D01*
X4477928Y-17160214D02*
X4477928Y-16960214D01*
X4477928Y-16988786D02*
X4492214Y-16974500D01*
X4520786Y-16960214D01*
X4563643Y-16960214D01*
X4592214Y-16974500D01*
X4606500Y-17003072D01*
X4606500Y-17160214D01*
X4606500Y-17003072D02*
X4620786Y-16974500D01*
X4649357Y-16960214D01*
X4692214Y-16960214D01*
X4720786Y-16974500D01*
X4735071Y-17003072D01*
X4735071Y-17160214D01*
X5320786Y-16845929D02*
X5063643Y-17231643D01*
X5706500Y-16860214D02*
X5735071Y-16860214D01*
X5763643Y-16874500D01*
X5777928Y-16888786D01*
X5792214Y-16917357D01*
X5806500Y-16974500D01*
X5806500Y-17045929D01*
X5792214Y-17103072D01*
X5777928Y-17131643D01*
X5763643Y-17145929D01*
X5735071Y-17160214D01*
X5706500Y-17160214D01*
X5677928Y-17145929D01*
X5663643Y-17131643D01*
X5649357Y-17103072D01*
X5635071Y-17045929D01*
X5635071Y-16974500D01*
X5649357Y-16917357D01*
X5663643Y-16888786D01*
X5677928Y-16874500D01*
X5706500Y-16860214D01*
X5935071Y-17131643D02*
X5949357Y-17145929D01*
X5935071Y-17160214D01*
X5920786Y-17145929D01*
X5935071Y-17131643D01*
X5935071Y-17160214D01*
X6135071Y-16860214D02*
X6163643Y-16860214D01*
X6192214Y-16874500D01*
X6206500Y-16888786D01*
X6220786Y-16917357D01*
X6235071Y-16974500D01*
X6235071Y-17045929D01*
X6220786Y-17103072D01*
X6206500Y-17131643D01*
X6192214Y-17145929D01*
X6163643Y-17160214D01*
X6135071Y-17160214D01*
X6106500Y-17145929D01*
X6092214Y-17131643D01*
X6077928Y-17103072D01*
X6063643Y-17045929D01*
X6063643Y-16974500D01*
X6077928Y-16917357D01*
X6092214Y-16888786D01*
X6106500Y-16874500D01*
X6135071Y-16860214D01*
X6335071Y-16860214D02*
X6520786Y-16860214D01*
X6420786Y-16974500D01*
X6463643Y-16974500D01*
X6492214Y-16988786D01*
X6506500Y-17003072D01*
X6520786Y-17031643D01*
X6520786Y-17103072D01*
X6506500Y-17131643D01*
X6492214Y-17145929D01*
X6463643Y-17160214D01*
X6377928Y-17160214D01*
X6349357Y-17145929D01*
X6335071Y-17131643D01*
X6663643Y-17160214D02*
X6720786Y-17160214D01*
X6749357Y-17145929D01*
X6763643Y-17131643D01*
X6792214Y-17088786D01*
X6806500Y-17031643D01*
X6806500Y-16917357D01*
X6792214Y-16888786D01*
X6777928Y-16874500D01*
X6749357Y-16860214D01*
X6692214Y-16860214D01*
X6663643Y-16874500D01*
X6649357Y-16888786D01*
X6635071Y-16917357D01*
X6635071Y-16988786D01*
X6649357Y-17017357D01*
X6663643Y-17031643D01*
X6692214Y-17045929D01*
X6749357Y-17045929D01*
X6777928Y-17031643D01*
X6792214Y-17017357D01*
X6806500Y-16988786D01*
X6920786Y-16860214D02*
X6920786Y-16917357D01*
X7035071Y-16860214D02*
X7035071Y-16917357D01*
X7477928Y-17274500D02*
X7463643Y-17260214D01*
X7435071Y-17217357D01*
X7420786Y-17188786D01*
X7406500Y-17145929D01*
X7392214Y-17074500D01*
X7392214Y-17017357D01*
X7406500Y-16945929D01*
X7420786Y-16903072D01*
X7435071Y-16874500D01*
X7463643Y-16831643D01*
X7477928Y-16817357D01*
X7749357Y-17160214D02*
X7577928Y-17160214D01*
X7663643Y-17160214D02*
X7663643Y-16860214D01*
X7635071Y-16903072D01*
X7606500Y-16931643D01*
X7577928Y-16945929D01*
X7935071Y-16860214D02*
X7963643Y-16860214D01*
X7992214Y-16874500D01*
X8006500Y-16888786D01*
X8020786Y-16917357D01*
X8035071Y-16974500D01*
X8035071Y-17045929D01*
X8020786Y-17103072D01*
X8006500Y-17131643D01*
X7992214Y-17145929D01*
X7963643Y-17160214D01*
X7935071Y-17160214D01*
X7906500Y-17145929D01*
X7892214Y-17131643D01*
X7877928Y-17103072D01*
X7863643Y-17045929D01*
X7863643Y-16974500D01*
X7877928Y-16917357D01*
X7892214Y-16888786D01*
X7906500Y-16874500D01*
X7935071Y-16860214D01*
X8392214Y-17160214D02*
X8392214Y-16860214D01*
X8520786Y-17160214D02*
X8520786Y-17003072D01*
X8506500Y-16974500D01*
X8477928Y-16960214D01*
X8435071Y-16960214D01*
X8406500Y-16974500D01*
X8392214Y-16988786D01*
X8706500Y-17160214D02*
X8677928Y-17145929D01*
X8663643Y-17131643D01*
X8649357Y-17103072D01*
X8649357Y-17017357D01*
X8663643Y-16988786D01*
X8677928Y-16974500D01*
X8706500Y-16960214D01*
X8749357Y-16960214D01*
X8777928Y-16974500D01*
X8792214Y-16988786D01*
X8806500Y-17017357D01*
X8806500Y-17103072D01*
X8792214Y-17131643D01*
X8777928Y-17145929D01*
X8749357Y-17160214D01*
X8706500Y-17160214D01*
X8977928Y-17160214D02*
X8949357Y-17145929D01*
X8935071Y-17117357D01*
X8935071Y-16860214D01*
X9206500Y-17145929D02*
X9177928Y-17160214D01*
X9120786Y-17160214D01*
X9092214Y-17145929D01*
X9077928Y-17117357D01*
X9077928Y-17003072D01*
X9092214Y-16974500D01*
X9120786Y-16960214D01*
X9177928Y-16960214D01*
X9206500Y-16974500D01*
X9220786Y-17003072D01*
X9220786Y-17031643D01*
X9077928Y-17060214D01*
X9335071Y-17145929D02*
X9363643Y-17160214D01*
X9420786Y-17160214D01*
X9449357Y-17145929D01*
X9463643Y-17117357D01*
X9463643Y-17103072D01*
X9449357Y-17074500D01*
X9420786Y-17060214D01*
X9377928Y-17060214D01*
X9349357Y-17045929D01*
X9335071Y-17017357D01*
X9335071Y-17003072D01*
X9349357Y-16974500D01*
X9377928Y-16960214D01*
X9420786Y-16960214D01*
X9449357Y-16974500D01*
X9563643Y-17274500D02*
X9577928Y-17260214D01*
X9606500Y-17217357D01*
X9620786Y-17188786D01*
X9635071Y-17145929D01*
X9649357Y-17074500D01*
X9649357Y-17017357D01*
X9635071Y-16945929D01*
X9620786Y-16903072D01*
X9606500Y-16874500D01*
X9577928Y-16831643D01*
X9563643Y-16817357D01*
X2491500Y-17270500D02*
X2791500Y-17570500D01*
X2791500Y-17270500D02*
X2491500Y-17570500D01*
X2791500Y-17420500D02*
G75*
G03*
X2791500Y-17420500I-150000J0D01*
G01*
X3049357Y-17256214D02*
X3235071Y-17256214D01*
X3135071Y-17370500D01*
X3177928Y-17370500D01*
X3206500Y-17384786D01*
X3220786Y-17399072D01*
X3235071Y-17427643D01*
X3235071Y-17499072D01*
X3220786Y-17527643D01*
X3206500Y-17541929D01*
X3177928Y-17556214D01*
X3092214Y-17556214D01*
X3063643Y-17541929D01*
X3049357Y-17527643D01*
X3363643Y-17527643D02*
X3377928Y-17541929D01*
X3363643Y-17556214D01*
X3349357Y-17541929D01*
X3363643Y-17527643D01*
X3363643Y-17556214D01*
X3563643Y-17256214D02*
X3592214Y-17256214D01*
X3620786Y-17270500D01*
X3635071Y-17284786D01*
X3649357Y-17313357D01*
X3663643Y-17370500D01*
X3663643Y-17441929D01*
X3649357Y-17499072D01*
X3635071Y-17527643D01*
X3620786Y-17541929D01*
X3592214Y-17556214D01*
X3563643Y-17556214D01*
X3535071Y-17541929D01*
X3520786Y-17527643D01*
X3506500Y-17499072D01*
X3492214Y-17441929D01*
X3492214Y-17370500D01*
X3506500Y-17313357D01*
X3520786Y-17284786D01*
X3535071Y-17270500D01*
X3563643Y-17256214D01*
X3849357Y-17256214D02*
X3877928Y-17256214D01*
X3906500Y-17270500D01*
X3920786Y-17284786D01*
X3935071Y-17313357D01*
X3949357Y-17370500D01*
X3949357Y-17441929D01*
X3935071Y-17499072D01*
X3920786Y-17527643D01*
X3906500Y-17541929D01*
X3877928Y-17556214D01*
X3849357Y-17556214D01*
X3820786Y-17541929D01*
X3806500Y-17527643D01*
X3792214Y-17499072D01*
X3777928Y-17441929D01*
X3777928Y-17370500D01*
X3792214Y-17313357D01*
X3806500Y-17284786D01*
X3820786Y-17270500D01*
X3849357Y-17256214D01*
X4077928Y-17556214D02*
X4077928Y-17356214D01*
X4077928Y-17384786D02*
X4092214Y-17370500D01*
X4120786Y-17356214D01*
X4163643Y-17356214D01*
X4192214Y-17370500D01*
X4206500Y-17399072D01*
X4206500Y-17556214D01*
X4206500Y-17399072D02*
X4220786Y-17370500D01*
X4249357Y-17356214D01*
X4292214Y-17356214D01*
X4320786Y-17370500D01*
X4335071Y-17399072D01*
X4335071Y-17556214D01*
X4477928Y-17556214D02*
X4477928Y-17356214D01*
X4477928Y-17384786D02*
X4492214Y-17370500D01*
X4520786Y-17356214D01*
X4563643Y-17356214D01*
X4592214Y-17370500D01*
X4606500Y-17399072D01*
X4606500Y-17556214D01*
X4606500Y-17399072D02*
X4620786Y-17370500D01*
X4649357Y-17356214D01*
X4692214Y-17356214D01*
X4720786Y-17370500D01*
X4735071Y-17399072D01*
X4735071Y-17556214D01*
X5320786Y-17241929D02*
X5063643Y-17627643D01*
X5706500Y-17256214D02*
X5735071Y-17256214D01*
X5763643Y-17270500D01*
X5777928Y-17284786D01*
X5792214Y-17313357D01*
X5806500Y-17370500D01*
X5806500Y-17441929D01*
X5792214Y-17499072D01*
X5777928Y-17527643D01*
X5763643Y-17541929D01*
X5735071Y-17556214D01*
X5706500Y-17556214D01*
X5677928Y-17541929D01*
X5663643Y-17527643D01*
X5649357Y-17499072D01*
X5635071Y-17441929D01*
X5635071Y-17370500D01*
X5649357Y-17313357D01*
X5663643Y-17284786D01*
X5677928Y-17270500D01*
X5706500Y-17256214D01*
X5935071Y-17527643D02*
X5949357Y-17541929D01*
X5935071Y-17556214D01*
X5920786Y-17541929D01*
X5935071Y-17527643D01*
X5935071Y-17556214D01*
X6235071Y-17556214D02*
X6063643Y-17556214D01*
X6149357Y-17556214D02*
X6149357Y-17256214D01*
X6120786Y-17299072D01*
X6092214Y-17327643D01*
X6063643Y-17341929D01*
X6520786Y-17556214D02*
X6349357Y-17556214D01*
X6435071Y-17556214D02*
X6435071Y-17256214D01*
X6406500Y-17299072D01*
X6377928Y-17327643D01*
X6349357Y-17341929D01*
X6692214Y-17384786D02*
X6663643Y-17370500D01*
X6649357Y-17356214D01*
X6635071Y-17327643D01*
X6635071Y-17313357D01*
X6649357Y-17284786D01*
X6663643Y-17270500D01*
X6692214Y-17256214D01*
X6749357Y-17256214D01*
X6777928Y-17270500D01*
X6792214Y-17284786D01*
X6806500Y-17313357D01*
X6806500Y-17327643D01*
X6792214Y-17356214D01*
X6777928Y-17370500D01*
X6749357Y-17384786D01*
X6692214Y-17384786D01*
X6663643Y-17399072D01*
X6649357Y-17413357D01*
X6635071Y-17441929D01*
X6635071Y-17499072D01*
X6649357Y-17527643D01*
X6663643Y-17541929D01*
X6692214Y-17556214D01*
X6749357Y-17556214D01*
X6777928Y-17541929D01*
X6792214Y-17527643D01*
X6806500Y-17499072D01*
X6806500Y-17441929D01*
X6792214Y-17413357D01*
X6777928Y-17399072D01*
X6749357Y-17384786D01*
X6920786Y-17256214D02*
X6920786Y-17313357D01*
X7035071Y-17256214D02*
X7035071Y-17313357D01*
X7477928Y-17670500D02*
X7463643Y-17656214D01*
X7435071Y-17613357D01*
X7420786Y-17584786D01*
X7406500Y-17541929D01*
X7392214Y-17470500D01*
X7392214Y-17413357D01*
X7406500Y-17341929D01*
X7420786Y-17299072D01*
X7435071Y-17270500D01*
X7463643Y-17227643D01*
X7477928Y-17213357D01*
X7720786Y-17356214D02*
X7720786Y-17556214D01*
X7649357Y-17241929D02*
X7577928Y-17456214D01*
X7763643Y-17456214D01*
X8106500Y-17556214D02*
X8106500Y-17256214D01*
X8235071Y-17556214D02*
X8235071Y-17399072D01*
X8220786Y-17370500D01*
X8192214Y-17356214D01*
X8149357Y-17356214D01*
X8120786Y-17370500D01*
X8106500Y-17384786D01*
X8420786Y-17556214D02*
X8392214Y-17541929D01*
X8377928Y-17527643D01*
X8363643Y-17499072D01*
X8363643Y-17413357D01*
X8377928Y-17384786D01*
X8392214Y-17370500D01*
X8420786Y-17356214D01*
X8463643Y-17356214D01*
X8492214Y-17370500D01*
X8506500Y-17384786D01*
X8520786Y-17413357D01*
X8520786Y-17499072D01*
X8506500Y-17527643D01*
X8492214Y-17541929D01*
X8463643Y-17556214D01*
X8420786Y-17556214D01*
X8692214Y-17556214D02*
X8663643Y-17541929D01*
X8649357Y-17513357D01*
X8649357Y-17256214D01*
X8920786Y-17541929D02*
X8892214Y-17556214D01*
X8835071Y-17556214D01*
X8806500Y-17541929D01*
X8792214Y-17513357D01*
X8792214Y-17399072D01*
X8806500Y-17370500D01*
X8835071Y-17356214D01*
X8892214Y-17356214D01*
X8920786Y-17370500D01*
X8935071Y-17399072D01*
X8935071Y-17427643D01*
X8792214Y-17456214D01*
X9049357Y-17541929D02*
X9077928Y-17556214D01*
X9135071Y-17556214D01*
X9163643Y-17541929D01*
X9177928Y-17513357D01*
X9177928Y-17499072D01*
X9163643Y-17470500D01*
X9135071Y-17456214D01*
X9092214Y-17456214D01*
X9063643Y-17441929D01*
X9049357Y-17413357D01*
X9049357Y-17399072D01*
X9063643Y-17370500D01*
X9092214Y-17356214D01*
X9135071Y-17356214D01*
X9163643Y-17370500D01*
X9277928Y-17670500D02*
X9292214Y-17656214D01*
X9320786Y-17613357D01*
X9335071Y-17584786D01*
X9349357Y-17541929D01*
X9363643Y-17470500D01*
X9363643Y-17413357D01*
X9349357Y-17341929D01*
X9335071Y-17299072D01*
X9320786Y-17270500D01*
X9292214Y-17227643D01*
X9277928Y-17213357D01*
M02*
