%FSLAX45Y45*%
G04 Gerber Fmt 4.5, Leading zero omitted, Abs format (unit mm)*
G04 Created by KiCad (PCBNEW (5.1.6)-1) date 2020-07-17 12:23:26*
%MOMM*%
%LPD*%
G01*
G04 APERTURE LIST*
%TA.AperFunction,Profile*%
%ADD10C,0.050000*%
%TD*%
%ADD11C,0.200000*%
%ADD12C,0.300000*%
G04 APERTURE END LIST*
D10*
X2794000Y-14478000D02*
X2794000Y-3429000D01*
X18542000Y-3429000D02*
X18542000Y-14478000D01*
X18542000Y-14478000D02*
X2794000Y-14478000D01*
X2794000Y-3429000D02*
X18542000Y-3429000D01*
D11*
X12040000Y-12421000D02*
X12090000Y-12471000D01*
X12090000Y-12421000D02*
X12040000Y-12471000D01*
X12675000Y-5309000D02*
X12725000Y-5359000D01*
X12725000Y-5309000D02*
X12675000Y-5359000D01*
X13818000Y-5563000D02*
X13868000Y-5613000D01*
X13868000Y-5563000D02*
X13818000Y-5613000D01*
X14834000Y-3912000D02*
X14884000Y-3962000D01*
X14884000Y-3912000D02*
X14834000Y-3962000D01*
X10959500Y-12573000D02*
G75*
G03*
X10959500Y-12573000I-37500J0D01*
G01*
X11086500Y-12573000D02*
G75*
G03*
X11086500Y-12573000I-37500J0D01*
G01*
X11213500Y-12573000D02*
G75*
G03*
X11213500Y-12573000I-37500J0D01*
G01*
X13208000Y-4533900D02*
X13208000Y-4610100D01*
X13169900Y-4572000D02*
X13246100Y-4572000D01*
X13462000Y-4533900D02*
X13462000Y-4610100D01*
X13423900Y-4572000D02*
X13500100Y-4572000D01*
X13716000Y-4533900D02*
X13716000Y-4610100D01*
X13677900Y-4572000D02*
X13754100Y-4572000D01*
X13970000Y-4533900D02*
X13970000Y-4610100D01*
X13931900Y-4572000D02*
X14008100Y-4572000D01*
X14224000Y-4533900D02*
X14224000Y-4610100D01*
X14185900Y-4572000D02*
X14262100Y-4572000D01*
X14478000Y-4533900D02*
X14478000Y-4610100D01*
X14439900Y-4572000D02*
X14516100Y-4572000D01*
X14732000Y-4533900D02*
X14732000Y-4610100D01*
X14693900Y-4572000D02*
X14770100Y-4572000D01*
X14986000Y-4533900D02*
X14986000Y-4610100D01*
X14947900Y-4572000D02*
X15024100Y-4572000D01*
X15240000Y-4533900D02*
X15240000Y-4610100D01*
X15201900Y-4572000D02*
X15278100Y-4572000D01*
X11077285Y-11585284D02*
X11077285Y-11528715D01*
X11020716Y-11528715D01*
X11020716Y-11585284D01*
X11077285Y-11585284D01*
X11077285Y-11839284D02*
X11077285Y-11782715D01*
X11020716Y-11782715D01*
X11020716Y-11839284D01*
X11077285Y-11839284D01*
X11129285Y-7521284D02*
X11129285Y-7464715D01*
X11072716Y-7464715D01*
X11072716Y-7521284D01*
X11129285Y-7521284D01*
X11129285Y-7775284D02*
X11129285Y-7718715D01*
X11072716Y-7718715D01*
X11072716Y-7775284D01*
X11129285Y-7775284D01*
X11129285Y-8029284D02*
X11129285Y-7972715D01*
X11072716Y-7972715D01*
X11072716Y-8029284D01*
X11129285Y-8029284D01*
X11129285Y-8283284D02*
X11129285Y-8226715D01*
X11072716Y-8226715D01*
X11072716Y-8283284D01*
X11129285Y-8283284D01*
X11129285Y-8537285D02*
X11129285Y-8480716D01*
X11072716Y-8480716D01*
X11072716Y-8537285D01*
X11129285Y-8537285D01*
X11129285Y-8791285D02*
X11129285Y-8734716D01*
X11072716Y-8734716D01*
X11072716Y-8791285D01*
X11129285Y-8791285D01*
X11129285Y-9045285D02*
X11129285Y-8988716D01*
X11072716Y-8988716D01*
X11072716Y-9045285D01*
X11129285Y-9045285D01*
X11129285Y-9299285D02*
X11129285Y-9242716D01*
X11072716Y-9242716D01*
X11072716Y-9299285D01*
X11129285Y-9299285D01*
X12704285Y-7521284D02*
X12704285Y-7464715D01*
X12647716Y-7464715D01*
X12647716Y-7521284D01*
X12704285Y-7521284D01*
X12704285Y-7775284D02*
X12704285Y-7718715D01*
X12647716Y-7718715D01*
X12647716Y-7775284D01*
X12704285Y-7775284D01*
X12704285Y-8029284D02*
X12704285Y-7972715D01*
X12647716Y-7972715D01*
X12647716Y-8029284D01*
X12704285Y-8029284D01*
X12704285Y-8283284D02*
X12704285Y-8226715D01*
X12647716Y-8226715D01*
X12647716Y-8283284D01*
X12704285Y-8283284D01*
X12704285Y-8537285D02*
X12704285Y-8480716D01*
X12647716Y-8480716D01*
X12647716Y-8537285D01*
X12704285Y-8537285D01*
X12704285Y-8791285D02*
X12704285Y-8734716D01*
X12647716Y-8734716D01*
X12647716Y-8791285D01*
X12704285Y-8791285D01*
X12704285Y-9045285D02*
X12704285Y-8988716D01*
X12647716Y-8988716D01*
X12647716Y-9045285D01*
X12704285Y-9045285D01*
X12704285Y-9299285D02*
X12704285Y-9242716D01*
X12647716Y-9242716D01*
X12647716Y-9299285D01*
X12704285Y-9299285D01*
X10569285Y-3838284D02*
X10569285Y-3781715D01*
X10512716Y-3781715D01*
X10512716Y-3838284D01*
X10569285Y-3838284D01*
X10823285Y-3838284D02*
X10823285Y-3781715D01*
X10766716Y-3781715D01*
X10766716Y-3838284D01*
X10823285Y-3838284D01*
X9172285Y-4600285D02*
X9172285Y-4543716D01*
X9115716Y-4543716D01*
X9115716Y-4600285D01*
X9172285Y-4600285D01*
X9426285Y-4600285D02*
X9426285Y-4543716D01*
X9369716Y-4543716D01*
X9369716Y-4600285D01*
X9426285Y-4600285D01*
X12601284Y-13998284D02*
X12601284Y-13941715D01*
X12544715Y-13941715D01*
X12544715Y-13998284D01*
X12601284Y-13998284D01*
X12855284Y-13998284D02*
X12855284Y-13941715D01*
X12798715Y-13941715D01*
X12798715Y-13998284D01*
X12855284Y-13998284D01*
X6505284Y-12093284D02*
X6505284Y-12036715D01*
X6448715Y-12036715D01*
X6448715Y-12093284D01*
X6505284Y-12093284D01*
X6505284Y-12347284D02*
X6505284Y-12290715D01*
X6448715Y-12290715D01*
X6448715Y-12347284D01*
X6505284Y-12347284D01*
X6505284Y-12601284D02*
X6505284Y-12544715D01*
X6448715Y-12544715D01*
X6448715Y-12601284D01*
X6505284Y-12601284D01*
X6505284Y-12855284D02*
X6505284Y-12798715D01*
X6448715Y-12798715D01*
X6448715Y-12855284D01*
X6505284Y-12855284D01*
X6505284Y-13109284D02*
X6505284Y-13052715D01*
X6448715Y-13052715D01*
X6448715Y-13109284D01*
X6505284Y-13109284D01*
X7775284Y-12093284D02*
X7775284Y-12036715D01*
X7718715Y-12036715D01*
X7718715Y-12093284D01*
X7775284Y-12093284D01*
X7775284Y-12347284D02*
X7775284Y-12290715D01*
X7718715Y-12290715D01*
X7718715Y-12347284D01*
X7775284Y-12347284D01*
X7775284Y-12601284D02*
X7775284Y-12544715D01*
X7718715Y-12544715D01*
X7718715Y-12601284D01*
X7775284Y-12601284D01*
X7775284Y-12855284D02*
X7775284Y-12798715D01*
X7718715Y-12798715D01*
X7718715Y-12855284D01*
X7775284Y-12855284D01*
X7775284Y-13109284D02*
X7775284Y-13052715D01*
X7718715Y-13052715D01*
X7718715Y-13109284D01*
X7775284Y-13109284D01*
X6378284Y-5743284D02*
X6378284Y-5686715D01*
X6321715Y-5686715D01*
X6321715Y-5743284D01*
X6378284Y-5743284D01*
X6378284Y-5997284D02*
X6378284Y-5940715D01*
X6321715Y-5940715D01*
X6321715Y-5997284D01*
X6378284Y-5997284D01*
X6378284Y-6251284D02*
X6378284Y-6194715D01*
X6321715Y-6194715D01*
X6321715Y-6251284D01*
X6378284Y-6251284D01*
X6378284Y-6505284D02*
X6378284Y-6448715D01*
X6321715Y-6448715D01*
X6321715Y-6505284D01*
X6378284Y-6505284D01*
X6378284Y-6759284D02*
X6378284Y-6702715D01*
X6321715Y-6702715D01*
X6321715Y-6759284D01*
X6378284Y-6759284D01*
X6378284Y-7013284D02*
X6378284Y-6956715D01*
X6321715Y-6956715D01*
X6321715Y-7013284D01*
X6378284Y-7013284D01*
X6378284Y-7267284D02*
X6378284Y-7210715D01*
X6321715Y-7210715D01*
X6321715Y-7267284D01*
X6378284Y-7267284D01*
X6378284Y-7521284D02*
X6378284Y-7464715D01*
X6321715Y-7464715D01*
X6321715Y-7521284D01*
X6378284Y-7521284D01*
X6378284Y-7775284D02*
X6378284Y-7718715D01*
X6321715Y-7718715D01*
X6321715Y-7775284D01*
X6378284Y-7775284D01*
X6378284Y-8029284D02*
X6378284Y-7972715D01*
X6321715Y-7972715D01*
X6321715Y-8029284D01*
X6378284Y-8029284D01*
X6378284Y-8283284D02*
X6378284Y-8226715D01*
X6321715Y-8226715D01*
X6321715Y-8283284D01*
X6378284Y-8283284D01*
X6378284Y-8537285D02*
X6378284Y-8480716D01*
X6321715Y-8480716D01*
X6321715Y-8537285D01*
X6378284Y-8537285D01*
X6378284Y-8791285D02*
X6378284Y-8734716D01*
X6321715Y-8734716D01*
X6321715Y-8791285D01*
X6378284Y-8791285D01*
X6378284Y-9045285D02*
X6378284Y-8988716D01*
X6321715Y-8988716D01*
X6321715Y-9045285D01*
X6378284Y-9045285D01*
X6378284Y-9299285D02*
X6378284Y-9242716D01*
X6321715Y-9242716D01*
X6321715Y-9299285D01*
X6378284Y-9299285D01*
X6378284Y-9553285D02*
X6378284Y-9496716D01*
X6321715Y-9496716D01*
X6321715Y-9553285D01*
X6378284Y-9553285D01*
X6378284Y-9807285D02*
X6378284Y-9750716D01*
X6321715Y-9750716D01*
X6321715Y-9807285D01*
X6378284Y-9807285D01*
X6378284Y-10061285D02*
X6378284Y-10004716D01*
X6321715Y-10004716D01*
X6321715Y-10061285D01*
X6378284Y-10061285D01*
X6378284Y-10315285D02*
X6378284Y-10258716D01*
X6321715Y-10258716D01*
X6321715Y-10315285D01*
X6378284Y-10315285D01*
X8948285Y-5743284D02*
X8948285Y-5686715D01*
X8891716Y-5686715D01*
X8891716Y-5743284D01*
X8948285Y-5743284D01*
X8948285Y-5997284D02*
X8948285Y-5940715D01*
X8891716Y-5940715D01*
X8891716Y-5997284D01*
X8948285Y-5997284D01*
X8948285Y-6251284D02*
X8948285Y-6194715D01*
X8891716Y-6194715D01*
X8891716Y-6251284D01*
X8948285Y-6251284D01*
X8948285Y-6505284D02*
X8948285Y-6448715D01*
X8891716Y-6448715D01*
X8891716Y-6505284D01*
X8948285Y-6505284D01*
X8948285Y-6759284D02*
X8948285Y-6702715D01*
X8891716Y-6702715D01*
X8891716Y-6759284D01*
X8948285Y-6759284D01*
X8948285Y-7013284D02*
X8948285Y-6956715D01*
X8891716Y-6956715D01*
X8891716Y-7013284D01*
X8948285Y-7013284D01*
X8948285Y-7267284D02*
X8948285Y-7210715D01*
X8891716Y-7210715D01*
X8891716Y-7267284D01*
X8948285Y-7267284D01*
X8948285Y-7521284D02*
X8948285Y-7464715D01*
X8891716Y-7464715D01*
X8891716Y-7521284D01*
X8948285Y-7521284D01*
X8948285Y-7775284D02*
X8948285Y-7718715D01*
X8891716Y-7718715D01*
X8891716Y-7775284D01*
X8948285Y-7775284D01*
X8948285Y-8029284D02*
X8948285Y-7972715D01*
X8891716Y-7972715D01*
X8891716Y-8029284D01*
X8948285Y-8029284D01*
X8948285Y-8283284D02*
X8948285Y-8226715D01*
X8891716Y-8226715D01*
X8891716Y-8283284D01*
X8948285Y-8283284D01*
X8948285Y-8537285D02*
X8948285Y-8480716D01*
X8891716Y-8480716D01*
X8891716Y-8537285D01*
X8948285Y-8537285D01*
X8948285Y-8791285D02*
X8948285Y-8734716D01*
X8891716Y-8734716D01*
X8891716Y-8791285D01*
X8948285Y-8791285D01*
X8948285Y-9045285D02*
X8948285Y-8988716D01*
X8891716Y-8988716D01*
X8891716Y-9045285D01*
X8948285Y-9045285D01*
X8948285Y-9299285D02*
X8948285Y-9242716D01*
X8891716Y-9242716D01*
X8891716Y-9299285D01*
X8948285Y-9299285D01*
X8948285Y-9553285D02*
X8948285Y-9496716D01*
X8891716Y-9496716D01*
X8891716Y-9553285D01*
X8948285Y-9553285D01*
X8948285Y-9807285D02*
X8948285Y-9750716D01*
X8891716Y-9750716D01*
X8891716Y-9807285D01*
X8948285Y-9807285D01*
X8948285Y-10061285D02*
X8948285Y-10004716D01*
X8891716Y-10004716D01*
X8891716Y-10061285D01*
X8948285Y-10061285D01*
X8948285Y-10315285D02*
X8948285Y-10258716D01*
X8891716Y-10258716D01*
X8891716Y-10315285D01*
X8948285Y-10315285D01*
X10569285Y-4600285D02*
X10569285Y-4543716D01*
X10512716Y-4543716D01*
X10512716Y-4600285D01*
X10569285Y-4600285D01*
X10823285Y-4600285D02*
X10823285Y-4543716D01*
X10766716Y-4543716D01*
X10766716Y-4600285D01*
X10823285Y-4600285D01*
X11077285Y-4600285D02*
X11077285Y-4543716D01*
X11020716Y-4543716D01*
X11020716Y-4600285D01*
X11077285Y-4600285D01*
X11331284Y-4600285D02*
X11331284Y-4543716D01*
X11274715Y-4543716D01*
X11274715Y-4600285D01*
X11331284Y-4600285D01*
X15141284Y-6632284D02*
X15141284Y-6575715D01*
X15084715Y-6575715D01*
X15084715Y-6632284D01*
X15141284Y-6632284D01*
X15141284Y-6886284D02*
X15141284Y-6829715D01*
X15084715Y-6829715D01*
X15084715Y-6886284D01*
X15141284Y-6886284D01*
X15141284Y-7140284D02*
X15141284Y-7083715D01*
X15084715Y-7083715D01*
X15084715Y-7140284D01*
X15141284Y-7140284D01*
X15141284Y-7394284D02*
X15141284Y-7337715D01*
X15084715Y-7337715D01*
X15084715Y-7394284D01*
X15141284Y-7394284D01*
X9680285Y-5362285D02*
X9680285Y-5305716D01*
X9623716Y-5305716D01*
X9623716Y-5362285D01*
X9680285Y-5362285D01*
X9934285Y-5362285D02*
X9934285Y-5305716D01*
X9877716Y-5305716D01*
X9877716Y-5362285D01*
X9934285Y-5362285D01*
X4092284Y-6886284D02*
X4092284Y-6829715D01*
X4035715Y-6829715D01*
X4035715Y-6886284D01*
X4092284Y-6886284D01*
X4092284Y-7140284D02*
X4092284Y-7083715D01*
X4035715Y-7083715D01*
X4035715Y-7140284D01*
X4092284Y-7140284D01*
X4092284Y-7394284D02*
X4092284Y-7337715D01*
X4035715Y-7337715D01*
X4035715Y-7394284D01*
X4092284Y-7394284D01*
X4092284Y-7648284D02*
X4092284Y-7591715D01*
X4035715Y-7591715D01*
X4035715Y-7648284D01*
X4092284Y-7648284D01*
X4092284Y-7902284D02*
X4092284Y-7845715D01*
X4035715Y-7845715D01*
X4035715Y-7902284D01*
X4092284Y-7902284D01*
X12842584Y-10759785D02*
X12842584Y-10703216D01*
X12786015Y-10703216D01*
X12786015Y-10759785D01*
X12842584Y-10759785D01*
X12842584Y-12474284D02*
X12842584Y-12417715D01*
X12786015Y-12417715D01*
X12786015Y-12474284D01*
X12842584Y-12474284D01*
X16792285Y-10759785D02*
X16792285Y-10703216D01*
X16735715Y-10703216D01*
X16735715Y-10759785D01*
X16792285Y-10759785D01*
X16792285Y-12474284D02*
X16792285Y-12417715D01*
X16735715Y-12417715D01*
X16735715Y-12474284D01*
X16792285Y-12474284D01*
X4092284Y-9172285D02*
X4092284Y-9115716D01*
X4035715Y-9115716D01*
X4035715Y-9172285D01*
X4092284Y-9172285D01*
X4092284Y-9426285D02*
X4092284Y-9369716D01*
X4035715Y-9369716D01*
X4035715Y-9426285D01*
X4092284Y-9426285D01*
X4092284Y-9680285D02*
X4092284Y-9623716D01*
X4035715Y-9623716D01*
X4035715Y-9680285D01*
X4092284Y-9680285D01*
X4092284Y-9934285D02*
X4092284Y-9877716D01*
X4035715Y-9877716D01*
X4035715Y-9934285D01*
X4092284Y-9934285D01*
X4092284Y-10188285D02*
X4092284Y-10131716D01*
X4035715Y-10131716D01*
X4035715Y-10188285D01*
X4092284Y-10188285D01*
X16002000Y-14015000D02*
X16047000Y-13970000D01*
X16002000Y-13925000D01*
X15957000Y-13970000D01*
X16002000Y-14015000D01*
X16887000Y-14015000D02*
X16932000Y-13970000D01*
X16887000Y-13925000D01*
X16842000Y-13970000D01*
X16887000Y-14015000D01*
X11756000Y-4517000D02*
X11866000Y-4627000D01*
X11866000Y-4517000D02*
X11756000Y-4627000D01*
X11866000Y-4572000D02*
G75*
G03*
X11866000Y-4572000I-55000J0D01*
G01*
X12010000Y-4517000D02*
X12120000Y-4627000D01*
X12120000Y-4517000D02*
X12010000Y-4627000D01*
X12120000Y-4572000D02*
G75*
G03*
X12120000Y-4572000I-55000J0D01*
G01*
X12264000Y-4517000D02*
X12374000Y-4627000D01*
X12374000Y-4517000D02*
X12264000Y-4627000D01*
X12374000Y-4572000D02*
G75*
G03*
X12374000Y-4572000I-55000J0D01*
G01*
X12518000Y-4517000D02*
X12628000Y-4627000D01*
X12628000Y-4517000D02*
X12518000Y-4627000D01*
X12628000Y-4572000D02*
G75*
G03*
X12628000Y-4572000I-55000J0D01*
G01*
X11883000Y-5914000D02*
X11993000Y-6024000D01*
X11993000Y-5914000D02*
X11883000Y-6024000D01*
X11993000Y-5969000D02*
G75*
G03*
X11993000Y-5969000I-55000J0D01*
G01*
X12137000Y-5914000D02*
X12247000Y-6024000D01*
X12247000Y-5914000D02*
X12137000Y-6024000D01*
X12247000Y-5969000D02*
G75*
G03*
X12247000Y-5969000I-55000J0D01*
G01*
X12391000Y-5914000D02*
X12501000Y-6024000D01*
X12501000Y-5914000D02*
X12391000Y-6024000D01*
X12501000Y-5969000D02*
G75*
G03*
X12501000Y-5969000I-55000J0D01*
G01*
X12645000Y-5914000D02*
X12755000Y-6024000D01*
X12755000Y-5914000D02*
X12645000Y-6024000D01*
X12755000Y-5969000D02*
G75*
G03*
X12755000Y-5969000I-55000J0D01*
G01*
X13534000Y-5914000D02*
X13644000Y-6024000D01*
X13644000Y-5914000D02*
X13534000Y-6024000D01*
X13644000Y-5969000D02*
G75*
G03*
X13644000Y-5969000I-55000J0D01*
G01*
X13788000Y-5914000D02*
X13898000Y-6024000D01*
X13898000Y-5914000D02*
X13788000Y-6024000D01*
X13898000Y-5969000D02*
G75*
G03*
X13898000Y-5969000I-55000J0D01*
G01*
X14042000Y-5914000D02*
X14152000Y-6024000D01*
X14152000Y-5914000D02*
X14042000Y-6024000D01*
X14152000Y-5969000D02*
G75*
G03*
X14152000Y-5969000I-55000J0D01*
G01*
X14296000Y-5914000D02*
X14406000Y-6024000D01*
X14406000Y-5914000D02*
X14296000Y-6024000D01*
X14406000Y-5969000D02*
G75*
G03*
X14406000Y-5969000I-55000J0D01*
G01*
X3406000Y-4041000D02*
X3706000Y-4341000D01*
X3706000Y-4041000D02*
X3406000Y-4341000D01*
X3556000Y-4041000D02*
X3556000Y-4341000D01*
X3406000Y-4191000D02*
X3706000Y-4191000D01*
X3406000Y-13566000D02*
X3706000Y-13866000D01*
X3706000Y-13566000D02*
X3406000Y-13866000D01*
X3556000Y-13566000D02*
X3556000Y-13866000D01*
X3406000Y-13716000D02*
X3706000Y-13716000D01*
X17630000Y-4041000D02*
X17930000Y-4341000D01*
X17930000Y-4041000D02*
X17630000Y-4341000D01*
X17780000Y-4041000D02*
X17780000Y-4341000D01*
X17630000Y-4191000D02*
X17930000Y-4191000D01*
X17630000Y-13566000D02*
X17930000Y-13866000D01*
X17930000Y-13566000D02*
X17630000Y-13866000D01*
X17780000Y-13566000D02*
X17780000Y-13866000D01*
X17630000Y-13716000D02*
X17930000Y-13716000D01*
D12*
X3077928Y-14946214D02*
X3077928Y-14646214D01*
X3149357Y-14646214D01*
X3192214Y-14660500D01*
X3220786Y-14689071D01*
X3235071Y-14717643D01*
X3249357Y-14774786D01*
X3249357Y-14817643D01*
X3235071Y-14874786D01*
X3220786Y-14903357D01*
X3192214Y-14931929D01*
X3149357Y-14946214D01*
X3077928Y-14946214D01*
X3377928Y-14946214D02*
X3377928Y-14746214D01*
X3377928Y-14803357D02*
X3392214Y-14774786D01*
X3406500Y-14760500D01*
X3435071Y-14746214D01*
X3463643Y-14746214D01*
X3563643Y-14946214D02*
X3563643Y-14746214D01*
X3563643Y-14646214D02*
X3549357Y-14660500D01*
X3563643Y-14674786D01*
X3577928Y-14660500D01*
X3563643Y-14646214D01*
X3563643Y-14674786D01*
X3749357Y-14946214D02*
X3720786Y-14931929D01*
X3706500Y-14903357D01*
X3706500Y-14646214D01*
X3906500Y-14946214D02*
X3877928Y-14931929D01*
X3863643Y-14903357D01*
X3863643Y-14646214D01*
X4249357Y-14946214D02*
X4249357Y-14646214D01*
X4349357Y-14860500D01*
X4449357Y-14646214D01*
X4449357Y-14946214D01*
X4720786Y-14946214D02*
X4720786Y-14789071D01*
X4706500Y-14760500D01*
X4677928Y-14746214D01*
X4620786Y-14746214D01*
X4592214Y-14760500D01*
X4720786Y-14931929D02*
X4692214Y-14946214D01*
X4620786Y-14946214D01*
X4592214Y-14931929D01*
X4577928Y-14903357D01*
X4577928Y-14874786D01*
X4592214Y-14846214D01*
X4620786Y-14831929D01*
X4692214Y-14831929D01*
X4720786Y-14817643D01*
X4863643Y-14746214D02*
X4863643Y-15046214D01*
X4863643Y-14760500D02*
X4892214Y-14746214D01*
X4949357Y-14746214D01*
X4977928Y-14760500D01*
X4992214Y-14774786D01*
X5006500Y-14803357D01*
X5006500Y-14889071D01*
X4992214Y-14917643D01*
X4977928Y-14931929D01*
X4949357Y-14946214D01*
X4892214Y-14946214D01*
X4863643Y-14931929D01*
X5135071Y-14917643D02*
X5149357Y-14931929D01*
X5135071Y-14946214D01*
X5120786Y-14931929D01*
X5135071Y-14917643D01*
X5135071Y-14946214D01*
X5135071Y-14760500D02*
X5149357Y-14774786D01*
X5135071Y-14789071D01*
X5120786Y-14774786D01*
X5135071Y-14760500D01*
X5135071Y-14789071D01*
X2741500Y-15415500D02*
X2791500Y-15465500D01*
X2791500Y-15415500D02*
X2741500Y-15465500D01*
X3135071Y-15276214D02*
X3163643Y-15276214D01*
X3192214Y-15290500D01*
X3206500Y-15304786D01*
X3220786Y-15333357D01*
X3235071Y-15390500D01*
X3235071Y-15461929D01*
X3220786Y-15519071D01*
X3206500Y-15547643D01*
X3192214Y-15561929D01*
X3163643Y-15576214D01*
X3135071Y-15576214D01*
X3106500Y-15561929D01*
X3092214Y-15547643D01*
X3077928Y-15519071D01*
X3063643Y-15461929D01*
X3063643Y-15390500D01*
X3077928Y-15333357D01*
X3092214Y-15304786D01*
X3106500Y-15290500D01*
X3135071Y-15276214D01*
X3363643Y-15547643D02*
X3377928Y-15561929D01*
X3363643Y-15576214D01*
X3349357Y-15561929D01*
X3363643Y-15547643D01*
X3363643Y-15576214D01*
X3649357Y-15276214D02*
X3506500Y-15276214D01*
X3492214Y-15419071D01*
X3506500Y-15404786D01*
X3535071Y-15390500D01*
X3606500Y-15390500D01*
X3635071Y-15404786D01*
X3649357Y-15419071D01*
X3663643Y-15447643D01*
X3663643Y-15519071D01*
X3649357Y-15547643D01*
X3635071Y-15561929D01*
X3606500Y-15576214D01*
X3535071Y-15576214D01*
X3506500Y-15561929D01*
X3492214Y-15547643D01*
X3849357Y-15276214D02*
X3877928Y-15276214D01*
X3906500Y-15290500D01*
X3920786Y-15304786D01*
X3935071Y-15333357D01*
X3949357Y-15390500D01*
X3949357Y-15461929D01*
X3935071Y-15519071D01*
X3920786Y-15547643D01*
X3906500Y-15561929D01*
X3877928Y-15576214D01*
X3849357Y-15576214D01*
X3820786Y-15561929D01*
X3806500Y-15547643D01*
X3792214Y-15519071D01*
X3777928Y-15461929D01*
X3777928Y-15390500D01*
X3792214Y-15333357D01*
X3806500Y-15304786D01*
X3820786Y-15290500D01*
X3849357Y-15276214D01*
X4077928Y-15576214D02*
X4077928Y-15376214D01*
X4077928Y-15404786D02*
X4092214Y-15390500D01*
X4120786Y-15376214D01*
X4163643Y-15376214D01*
X4192214Y-15390500D01*
X4206500Y-15419071D01*
X4206500Y-15576214D01*
X4206500Y-15419071D02*
X4220786Y-15390500D01*
X4249357Y-15376214D01*
X4292214Y-15376214D01*
X4320786Y-15390500D01*
X4335071Y-15419071D01*
X4335071Y-15576214D01*
X4477928Y-15576214D02*
X4477928Y-15376214D01*
X4477928Y-15404786D02*
X4492214Y-15390500D01*
X4520786Y-15376214D01*
X4563643Y-15376214D01*
X4592214Y-15390500D01*
X4606500Y-15419071D01*
X4606500Y-15576214D01*
X4606500Y-15419071D02*
X4620786Y-15390500D01*
X4649357Y-15376214D01*
X4692214Y-15376214D01*
X4720786Y-15390500D01*
X4735071Y-15419071D01*
X4735071Y-15576214D01*
X5320786Y-15261929D02*
X5063643Y-15647643D01*
X5706500Y-15276214D02*
X5735071Y-15276214D01*
X5763643Y-15290500D01*
X5777928Y-15304786D01*
X5792214Y-15333357D01*
X5806500Y-15390500D01*
X5806500Y-15461929D01*
X5792214Y-15519071D01*
X5777928Y-15547643D01*
X5763643Y-15561929D01*
X5735071Y-15576214D01*
X5706500Y-15576214D01*
X5677928Y-15561929D01*
X5663643Y-15547643D01*
X5649357Y-15519071D01*
X5635071Y-15461929D01*
X5635071Y-15390500D01*
X5649357Y-15333357D01*
X5663643Y-15304786D01*
X5677928Y-15290500D01*
X5706500Y-15276214D01*
X5935071Y-15547643D02*
X5949357Y-15561929D01*
X5935071Y-15576214D01*
X5920786Y-15561929D01*
X5935071Y-15547643D01*
X5935071Y-15576214D01*
X6135071Y-15276214D02*
X6163643Y-15276214D01*
X6192214Y-15290500D01*
X6206500Y-15304786D01*
X6220786Y-15333357D01*
X6235071Y-15390500D01*
X6235071Y-15461929D01*
X6220786Y-15519071D01*
X6206500Y-15547643D01*
X6192214Y-15561929D01*
X6163643Y-15576214D01*
X6135071Y-15576214D01*
X6106500Y-15561929D01*
X6092214Y-15547643D01*
X6077928Y-15519071D01*
X6063643Y-15461929D01*
X6063643Y-15390500D01*
X6077928Y-15333357D01*
X6092214Y-15304786D01*
X6106500Y-15290500D01*
X6135071Y-15276214D01*
X6349357Y-15304786D02*
X6363643Y-15290500D01*
X6392214Y-15276214D01*
X6463643Y-15276214D01*
X6492214Y-15290500D01*
X6506500Y-15304786D01*
X6520786Y-15333357D01*
X6520786Y-15361929D01*
X6506500Y-15404786D01*
X6335071Y-15576214D01*
X6520786Y-15576214D01*
X6706500Y-15276214D02*
X6735071Y-15276214D01*
X6763643Y-15290500D01*
X6777928Y-15304786D01*
X6792214Y-15333357D01*
X6806500Y-15390500D01*
X6806500Y-15461929D01*
X6792214Y-15519071D01*
X6777928Y-15547643D01*
X6763643Y-15561929D01*
X6735071Y-15576214D01*
X6706500Y-15576214D01*
X6677928Y-15561929D01*
X6663643Y-15547643D01*
X6649357Y-15519071D01*
X6635071Y-15461929D01*
X6635071Y-15390500D01*
X6649357Y-15333357D01*
X6663643Y-15304786D01*
X6677928Y-15290500D01*
X6706500Y-15276214D01*
X6920786Y-15276214D02*
X6920786Y-15333357D01*
X7035071Y-15276214D02*
X7035071Y-15333357D01*
X7477928Y-15690500D02*
X7463643Y-15676214D01*
X7435071Y-15633357D01*
X7420786Y-15604786D01*
X7406500Y-15561929D01*
X7392214Y-15490500D01*
X7392214Y-15433357D01*
X7406500Y-15361929D01*
X7420786Y-15319071D01*
X7435071Y-15290500D01*
X7463643Y-15247643D01*
X7477928Y-15233357D01*
X7720786Y-15376214D02*
X7720786Y-15576214D01*
X7649357Y-15261929D02*
X7577928Y-15476214D01*
X7763643Y-15476214D01*
X8106500Y-15576214D02*
X8106500Y-15276214D01*
X8235071Y-15576214D02*
X8235071Y-15419071D01*
X8220786Y-15390500D01*
X8192214Y-15376214D01*
X8149357Y-15376214D01*
X8120786Y-15390500D01*
X8106500Y-15404786D01*
X8420786Y-15576214D02*
X8392214Y-15561929D01*
X8377928Y-15547643D01*
X8363643Y-15519071D01*
X8363643Y-15433357D01*
X8377928Y-15404786D01*
X8392214Y-15390500D01*
X8420786Y-15376214D01*
X8463643Y-15376214D01*
X8492214Y-15390500D01*
X8506500Y-15404786D01*
X8520786Y-15433357D01*
X8520786Y-15519071D01*
X8506500Y-15547643D01*
X8492214Y-15561929D01*
X8463643Y-15576214D01*
X8420786Y-15576214D01*
X8692214Y-15576214D02*
X8663643Y-15561929D01*
X8649357Y-15533357D01*
X8649357Y-15276214D01*
X8920786Y-15561929D02*
X8892214Y-15576214D01*
X8835071Y-15576214D01*
X8806500Y-15561929D01*
X8792214Y-15533357D01*
X8792214Y-15419071D01*
X8806500Y-15390500D01*
X8835071Y-15376214D01*
X8892214Y-15376214D01*
X8920786Y-15390500D01*
X8935071Y-15419071D01*
X8935071Y-15447643D01*
X8792214Y-15476214D01*
X9049357Y-15561929D02*
X9077928Y-15576214D01*
X9135071Y-15576214D01*
X9163643Y-15561929D01*
X9177928Y-15533357D01*
X9177928Y-15519071D01*
X9163643Y-15490500D01*
X9135071Y-15476214D01*
X9092214Y-15476214D01*
X9063643Y-15461929D01*
X9049357Y-15433357D01*
X9049357Y-15419071D01*
X9063643Y-15390500D01*
X9092214Y-15376214D01*
X9135071Y-15376214D01*
X9163643Y-15390500D01*
X9277928Y-15690500D02*
X9292214Y-15676214D01*
X9320786Y-15633357D01*
X9335071Y-15604786D01*
X9349357Y-15561929D01*
X9363643Y-15490500D01*
X9363643Y-15433357D01*
X9349357Y-15361929D01*
X9335071Y-15319071D01*
X9320786Y-15290500D01*
X9292214Y-15247643D01*
X9277928Y-15233357D01*
X2791500Y-15836500D02*
G75*
G03*
X2791500Y-15836500I-37500J0D01*
G01*
X3135071Y-15672214D02*
X3163643Y-15672214D01*
X3192214Y-15686500D01*
X3206500Y-15700786D01*
X3220786Y-15729357D01*
X3235071Y-15786500D01*
X3235071Y-15857929D01*
X3220786Y-15915071D01*
X3206500Y-15943643D01*
X3192214Y-15957929D01*
X3163643Y-15972214D01*
X3135071Y-15972214D01*
X3106500Y-15957929D01*
X3092214Y-15943643D01*
X3077928Y-15915071D01*
X3063643Y-15857929D01*
X3063643Y-15786500D01*
X3077928Y-15729357D01*
X3092214Y-15700786D01*
X3106500Y-15686500D01*
X3135071Y-15672214D01*
X3363643Y-15943643D02*
X3377928Y-15957929D01*
X3363643Y-15972214D01*
X3349357Y-15957929D01*
X3363643Y-15943643D01*
X3363643Y-15972214D01*
X3477928Y-15672214D02*
X3677928Y-15672214D01*
X3549357Y-15972214D01*
X3935071Y-15672214D02*
X3792214Y-15672214D01*
X3777928Y-15815071D01*
X3792214Y-15800786D01*
X3820786Y-15786500D01*
X3892214Y-15786500D01*
X3920786Y-15800786D01*
X3935071Y-15815071D01*
X3949357Y-15843643D01*
X3949357Y-15915071D01*
X3935071Y-15943643D01*
X3920786Y-15957929D01*
X3892214Y-15972214D01*
X3820786Y-15972214D01*
X3792214Y-15957929D01*
X3777928Y-15943643D01*
X4077928Y-15972214D02*
X4077928Y-15772214D01*
X4077928Y-15800786D02*
X4092214Y-15786500D01*
X4120786Y-15772214D01*
X4163643Y-15772214D01*
X4192214Y-15786500D01*
X4206500Y-15815071D01*
X4206500Y-15972214D01*
X4206500Y-15815071D02*
X4220786Y-15786500D01*
X4249357Y-15772214D01*
X4292214Y-15772214D01*
X4320786Y-15786500D01*
X4335071Y-15815071D01*
X4335071Y-15972214D01*
X4477928Y-15972214D02*
X4477928Y-15772214D01*
X4477928Y-15800786D02*
X4492214Y-15786500D01*
X4520786Y-15772214D01*
X4563643Y-15772214D01*
X4592214Y-15786500D01*
X4606500Y-15815071D01*
X4606500Y-15972214D01*
X4606500Y-15815071D02*
X4620786Y-15786500D01*
X4649357Y-15772214D01*
X4692214Y-15772214D01*
X4720786Y-15786500D01*
X4735071Y-15815071D01*
X4735071Y-15972214D01*
X5320786Y-15657929D02*
X5063643Y-16043643D01*
X5706500Y-15672214D02*
X5735071Y-15672214D01*
X5763643Y-15686500D01*
X5777928Y-15700786D01*
X5792214Y-15729357D01*
X5806500Y-15786500D01*
X5806500Y-15857929D01*
X5792214Y-15915071D01*
X5777928Y-15943643D01*
X5763643Y-15957929D01*
X5735071Y-15972214D01*
X5706500Y-15972214D01*
X5677928Y-15957929D01*
X5663643Y-15943643D01*
X5649357Y-15915071D01*
X5635071Y-15857929D01*
X5635071Y-15786500D01*
X5649357Y-15729357D01*
X5663643Y-15700786D01*
X5677928Y-15686500D01*
X5706500Y-15672214D01*
X5935071Y-15943643D02*
X5949357Y-15957929D01*
X5935071Y-15972214D01*
X5920786Y-15957929D01*
X5935071Y-15943643D01*
X5935071Y-15972214D01*
X6135071Y-15672214D02*
X6163643Y-15672214D01*
X6192214Y-15686500D01*
X6206500Y-15700786D01*
X6220786Y-15729357D01*
X6235071Y-15786500D01*
X6235071Y-15857929D01*
X6220786Y-15915071D01*
X6206500Y-15943643D01*
X6192214Y-15957929D01*
X6163643Y-15972214D01*
X6135071Y-15972214D01*
X6106500Y-15957929D01*
X6092214Y-15943643D01*
X6077928Y-15915071D01*
X6063643Y-15857929D01*
X6063643Y-15786500D01*
X6077928Y-15729357D01*
X6092214Y-15700786D01*
X6106500Y-15686500D01*
X6135071Y-15672214D01*
X6335071Y-15672214D02*
X6520786Y-15672214D01*
X6420786Y-15786500D01*
X6463643Y-15786500D01*
X6492214Y-15800786D01*
X6506500Y-15815071D01*
X6520786Y-15843643D01*
X6520786Y-15915071D01*
X6506500Y-15943643D01*
X6492214Y-15957929D01*
X6463643Y-15972214D01*
X6377928Y-15972214D01*
X6349357Y-15957929D01*
X6335071Y-15943643D01*
X6706500Y-15672214D02*
X6735071Y-15672214D01*
X6763643Y-15686500D01*
X6777928Y-15700786D01*
X6792214Y-15729357D01*
X6806500Y-15786500D01*
X6806500Y-15857929D01*
X6792214Y-15915071D01*
X6777928Y-15943643D01*
X6763643Y-15957929D01*
X6735071Y-15972214D01*
X6706500Y-15972214D01*
X6677928Y-15957929D01*
X6663643Y-15943643D01*
X6649357Y-15915071D01*
X6635071Y-15857929D01*
X6635071Y-15786500D01*
X6649357Y-15729357D01*
X6663643Y-15700786D01*
X6677928Y-15686500D01*
X6706500Y-15672214D01*
X6920786Y-15672214D02*
X6920786Y-15729357D01*
X7035071Y-15672214D02*
X7035071Y-15729357D01*
X7477928Y-16086500D02*
X7463643Y-16072214D01*
X7435071Y-16029357D01*
X7420786Y-16000786D01*
X7406500Y-15957929D01*
X7392214Y-15886500D01*
X7392214Y-15829357D01*
X7406500Y-15757929D01*
X7420786Y-15715071D01*
X7435071Y-15686500D01*
X7463643Y-15643643D01*
X7477928Y-15629357D01*
X7563643Y-15672214D02*
X7749357Y-15672214D01*
X7649357Y-15786500D01*
X7692214Y-15786500D01*
X7720786Y-15800786D01*
X7735071Y-15815071D01*
X7749357Y-15843643D01*
X7749357Y-15915071D01*
X7735071Y-15943643D01*
X7720786Y-15957929D01*
X7692214Y-15972214D01*
X7606500Y-15972214D01*
X7577928Y-15957929D01*
X7563643Y-15943643D01*
X8106500Y-15972214D02*
X8106500Y-15672214D01*
X8235071Y-15972214D02*
X8235071Y-15815071D01*
X8220786Y-15786500D01*
X8192214Y-15772214D01*
X8149357Y-15772214D01*
X8120786Y-15786500D01*
X8106500Y-15800786D01*
X8420786Y-15972214D02*
X8392214Y-15957929D01*
X8377928Y-15943643D01*
X8363643Y-15915071D01*
X8363643Y-15829357D01*
X8377928Y-15800786D01*
X8392214Y-15786500D01*
X8420786Y-15772214D01*
X8463643Y-15772214D01*
X8492214Y-15786500D01*
X8506500Y-15800786D01*
X8520786Y-15829357D01*
X8520786Y-15915071D01*
X8506500Y-15943643D01*
X8492214Y-15957929D01*
X8463643Y-15972214D01*
X8420786Y-15972214D01*
X8692214Y-15972214D02*
X8663643Y-15957929D01*
X8649357Y-15929357D01*
X8649357Y-15672214D01*
X8920786Y-15957929D02*
X8892214Y-15972214D01*
X8835071Y-15972214D01*
X8806500Y-15957929D01*
X8792214Y-15929357D01*
X8792214Y-15815071D01*
X8806500Y-15786500D01*
X8835071Y-15772214D01*
X8892214Y-15772214D01*
X8920786Y-15786500D01*
X8935071Y-15815071D01*
X8935071Y-15843643D01*
X8792214Y-15872214D01*
X9049357Y-15957929D02*
X9077928Y-15972214D01*
X9135071Y-15972214D01*
X9163643Y-15957929D01*
X9177928Y-15929357D01*
X9177928Y-15915071D01*
X9163643Y-15886500D01*
X9135071Y-15872214D01*
X9092214Y-15872214D01*
X9063643Y-15857929D01*
X9049357Y-15829357D01*
X9049357Y-15815071D01*
X9063643Y-15786500D01*
X9092214Y-15772214D01*
X9135071Y-15772214D01*
X9163643Y-15786500D01*
X9277928Y-16086500D02*
X9292214Y-16072214D01*
X9320786Y-16029357D01*
X9335071Y-16000786D01*
X9349357Y-15957929D01*
X9363643Y-15886500D01*
X9363643Y-15829357D01*
X9349357Y-15757929D01*
X9335071Y-15715071D01*
X9320786Y-15686500D01*
X9292214Y-15643643D01*
X9277928Y-15629357D01*
X2753400Y-16194400D02*
X2753400Y-16270600D01*
X2715300Y-16232500D02*
X2791500Y-16232500D01*
X3135071Y-16068214D02*
X3163643Y-16068214D01*
X3192214Y-16082500D01*
X3206500Y-16096786D01*
X3220786Y-16125357D01*
X3235071Y-16182500D01*
X3235071Y-16253929D01*
X3220786Y-16311071D01*
X3206500Y-16339643D01*
X3192214Y-16353929D01*
X3163643Y-16368214D01*
X3135071Y-16368214D01*
X3106500Y-16353929D01*
X3092214Y-16339643D01*
X3077928Y-16311071D01*
X3063643Y-16253929D01*
X3063643Y-16182500D01*
X3077928Y-16125357D01*
X3092214Y-16096786D01*
X3106500Y-16082500D01*
X3135071Y-16068214D01*
X3363643Y-16339643D02*
X3377928Y-16353929D01*
X3363643Y-16368214D01*
X3349357Y-16353929D01*
X3363643Y-16339643D01*
X3363643Y-16368214D01*
X3477928Y-16068214D02*
X3677928Y-16068214D01*
X3549357Y-16368214D01*
X3920786Y-16068214D02*
X3863643Y-16068214D01*
X3835071Y-16082500D01*
X3820786Y-16096786D01*
X3792214Y-16139643D01*
X3777928Y-16196786D01*
X3777928Y-16311071D01*
X3792214Y-16339643D01*
X3806500Y-16353929D01*
X3835071Y-16368214D01*
X3892214Y-16368214D01*
X3920786Y-16353929D01*
X3935071Y-16339643D01*
X3949357Y-16311071D01*
X3949357Y-16239643D01*
X3935071Y-16211071D01*
X3920786Y-16196786D01*
X3892214Y-16182500D01*
X3835071Y-16182500D01*
X3806500Y-16196786D01*
X3792214Y-16211071D01*
X3777928Y-16239643D01*
X4077928Y-16368214D02*
X4077928Y-16168214D01*
X4077928Y-16196786D02*
X4092214Y-16182500D01*
X4120786Y-16168214D01*
X4163643Y-16168214D01*
X4192214Y-16182500D01*
X4206500Y-16211071D01*
X4206500Y-16368214D01*
X4206500Y-16211071D02*
X4220786Y-16182500D01*
X4249357Y-16168214D01*
X4292214Y-16168214D01*
X4320786Y-16182500D01*
X4335071Y-16211071D01*
X4335071Y-16368214D01*
X4477928Y-16368214D02*
X4477928Y-16168214D01*
X4477928Y-16196786D02*
X4492214Y-16182500D01*
X4520786Y-16168214D01*
X4563643Y-16168214D01*
X4592214Y-16182500D01*
X4606500Y-16211071D01*
X4606500Y-16368214D01*
X4606500Y-16211071D02*
X4620786Y-16182500D01*
X4649357Y-16168214D01*
X4692214Y-16168214D01*
X4720786Y-16182500D01*
X4735071Y-16211071D01*
X4735071Y-16368214D01*
X5320786Y-16053929D02*
X5063643Y-16439643D01*
X5706500Y-16068214D02*
X5735071Y-16068214D01*
X5763643Y-16082500D01*
X5777928Y-16096786D01*
X5792214Y-16125357D01*
X5806500Y-16182500D01*
X5806500Y-16253929D01*
X5792214Y-16311071D01*
X5777928Y-16339643D01*
X5763643Y-16353929D01*
X5735071Y-16368214D01*
X5706500Y-16368214D01*
X5677928Y-16353929D01*
X5663643Y-16339643D01*
X5649357Y-16311071D01*
X5635071Y-16253929D01*
X5635071Y-16182500D01*
X5649357Y-16125357D01*
X5663643Y-16096786D01*
X5677928Y-16082500D01*
X5706500Y-16068214D01*
X5935071Y-16339643D02*
X5949357Y-16353929D01*
X5935071Y-16368214D01*
X5920786Y-16353929D01*
X5935071Y-16339643D01*
X5935071Y-16368214D01*
X6135071Y-16068214D02*
X6163643Y-16068214D01*
X6192214Y-16082500D01*
X6206500Y-16096786D01*
X6220786Y-16125357D01*
X6235071Y-16182500D01*
X6235071Y-16253929D01*
X6220786Y-16311071D01*
X6206500Y-16339643D01*
X6192214Y-16353929D01*
X6163643Y-16368214D01*
X6135071Y-16368214D01*
X6106500Y-16353929D01*
X6092214Y-16339643D01*
X6077928Y-16311071D01*
X6063643Y-16253929D01*
X6063643Y-16182500D01*
X6077928Y-16125357D01*
X6092214Y-16096786D01*
X6106500Y-16082500D01*
X6135071Y-16068214D01*
X6335071Y-16068214D02*
X6520786Y-16068214D01*
X6420786Y-16182500D01*
X6463643Y-16182500D01*
X6492214Y-16196786D01*
X6506500Y-16211071D01*
X6520786Y-16239643D01*
X6520786Y-16311071D01*
X6506500Y-16339643D01*
X6492214Y-16353929D01*
X6463643Y-16368214D01*
X6377928Y-16368214D01*
X6349357Y-16353929D01*
X6335071Y-16339643D01*
X6706500Y-16068214D02*
X6735071Y-16068214D01*
X6763643Y-16082500D01*
X6777928Y-16096786D01*
X6792214Y-16125357D01*
X6806500Y-16182500D01*
X6806500Y-16253929D01*
X6792214Y-16311071D01*
X6777928Y-16339643D01*
X6763643Y-16353929D01*
X6735071Y-16368214D01*
X6706500Y-16368214D01*
X6677928Y-16353929D01*
X6663643Y-16339643D01*
X6649357Y-16311071D01*
X6635071Y-16253929D01*
X6635071Y-16182500D01*
X6649357Y-16125357D01*
X6663643Y-16096786D01*
X6677928Y-16082500D01*
X6706500Y-16068214D01*
X6920786Y-16068214D02*
X6920786Y-16125357D01*
X7035071Y-16068214D02*
X7035071Y-16125357D01*
X7477928Y-16482500D02*
X7463643Y-16468214D01*
X7435071Y-16425357D01*
X7420786Y-16396786D01*
X7406500Y-16353929D01*
X7392214Y-16282500D01*
X7392214Y-16225357D01*
X7406500Y-16153929D01*
X7420786Y-16111071D01*
X7435071Y-16082500D01*
X7463643Y-16039643D01*
X7477928Y-16025357D01*
X7606500Y-16368214D02*
X7663643Y-16368214D01*
X7692214Y-16353929D01*
X7706500Y-16339643D01*
X7735071Y-16296786D01*
X7749357Y-16239643D01*
X7749357Y-16125357D01*
X7735071Y-16096786D01*
X7720786Y-16082500D01*
X7692214Y-16068214D01*
X7635071Y-16068214D01*
X7606500Y-16082500D01*
X7592214Y-16096786D01*
X7577928Y-16125357D01*
X7577928Y-16196786D01*
X7592214Y-16225357D01*
X7606500Y-16239643D01*
X7635071Y-16253929D01*
X7692214Y-16253929D01*
X7720786Y-16239643D01*
X7735071Y-16225357D01*
X7749357Y-16196786D01*
X8106500Y-16368214D02*
X8106500Y-16068214D01*
X8235071Y-16368214D02*
X8235071Y-16211071D01*
X8220786Y-16182500D01*
X8192214Y-16168214D01*
X8149357Y-16168214D01*
X8120786Y-16182500D01*
X8106500Y-16196786D01*
X8420786Y-16368214D02*
X8392214Y-16353929D01*
X8377928Y-16339643D01*
X8363643Y-16311071D01*
X8363643Y-16225357D01*
X8377928Y-16196786D01*
X8392214Y-16182500D01*
X8420786Y-16168214D01*
X8463643Y-16168214D01*
X8492214Y-16182500D01*
X8506500Y-16196786D01*
X8520786Y-16225357D01*
X8520786Y-16311071D01*
X8506500Y-16339643D01*
X8492214Y-16353929D01*
X8463643Y-16368214D01*
X8420786Y-16368214D01*
X8692214Y-16368214D02*
X8663643Y-16353929D01*
X8649357Y-16325357D01*
X8649357Y-16068214D01*
X8920786Y-16353929D02*
X8892214Y-16368214D01*
X8835071Y-16368214D01*
X8806500Y-16353929D01*
X8792214Y-16325357D01*
X8792214Y-16211071D01*
X8806500Y-16182500D01*
X8835071Y-16168214D01*
X8892214Y-16168214D01*
X8920786Y-16182500D01*
X8935071Y-16211071D01*
X8935071Y-16239643D01*
X8792214Y-16268214D01*
X9049357Y-16353929D02*
X9077928Y-16368214D01*
X9135071Y-16368214D01*
X9163643Y-16353929D01*
X9177928Y-16325357D01*
X9177928Y-16311071D01*
X9163643Y-16282500D01*
X9135071Y-16268214D01*
X9092214Y-16268214D01*
X9063643Y-16253929D01*
X9049357Y-16225357D01*
X9049357Y-16211071D01*
X9063643Y-16182500D01*
X9092214Y-16168214D01*
X9135071Y-16168214D01*
X9163643Y-16182500D01*
X9277928Y-16482500D02*
X9292214Y-16468214D01*
X9320786Y-16425357D01*
X9335071Y-16396786D01*
X9349357Y-16353929D01*
X9363643Y-16282500D01*
X9363643Y-16225357D01*
X9349357Y-16153929D01*
X9335071Y-16111071D01*
X9320786Y-16082500D01*
X9292214Y-16039643D01*
X9277928Y-16025357D01*
X2779784Y-16656785D02*
X2779784Y-16600216D01*
X2723215Y-16600216D01*
X2723215Y-16656785D01*
X2779784Y-16656785D01*
X3135071Y-16464214D02*
X3163643Y-16464214D01*
X3192214Y-16478500D01*
X3206500Y-16492786D01*
X3220786Y-16521357D01*
X3235071Y-16578500D01*
X3235071Y-16649929D01*
X3220786Y-16707071D01*
X3206500Y-16735643D01*
X3192214Y-16749929D01*
X3163643Y-16764214D01*
X3135071Y-16764214D01*
X3106500Y-16749929D01*
X3092214Y-16735643D01*
X3077928Y-16707071D01*
X3063643Y-16649929D01*
X3063643Y-16578500D01*
X3077928Y-16521357D01*
X3092214Y-16492786D01*
X3106500Y-16478500D01*
X3135071Y-16464214D01*
X3363643Y-16735643D02*
X3377928Y-16749929D01*
X3363643Y-16764214D01*
X3349357Y-16749929D01*
X3363643Y-16735643D01*
X3363643Y-16764214D01*
X3549357Y-16592786D02*
X3520786Y-16578500D01*
X3506500Y-16564214D01*
X3492214Y-16535643D01*
X3492214Y-16521357D01*
X3506500Y-16492786D01*
X3520786Y-16478500D01*
X3549357Y-16464214D01*
X3606500Y-16464214D01*
X3635071Y-16478500D01*
X3649357Y-16492786D01*
X3663643Y-16521357D01*
X3663643Y-16535643D01*
X3649357Y-16564214D01*
X3635071Y-16578500D01*
X3606500Y-16592786D01*
X3549357Y-16592786D01*
X3520786Y-16607071D01*
X3506500Y-16621357D01*
X3492214Y-16649929D01*
X3492214Y-16707071D01*
X3506500Y-16735643D01*
X3520786Y-16749929D01*
X3549357Y-16764214D01*
X3606500Y-16764214D01*
X3635071Y-16749929D01*
X3649357Y-16735643D01*
X3663643Y-16707071D01*
X3663643Y-16649929D01*
X3649357Y-16621357D01*
X3635071Y-16607071D01*
X3606500Y-16592786D01*
X3849357Y-16464214D02*
X3877928Y-16464214D01*
X3906500Y-16478500D01*
X3920786Y-16492786D01*
X3935071Y-16521357D01*
X3949357Y-16578500D01*
X3949357Y-16649929D01*
X3935071Y-16707071D01*
X3920786Y-16735643D01*
X3906500Y-16749929D01*
X3877928Y-16764214D01*
X3849357Y-16764214D01*
X3820786Y-16749929D01*
X3806500Y-16735643D01*
X3792214Y-16707071D01*
X3777928Y-16649929D01*
X3777928Y-16578500D01*
X3792214Y-16521357D01*
X3806500Y-16492786D01*
X3820786Y-16478500D01*
X3849357Y-16464214D01*
X4077928Y-16764214D02*
X4077928Y-16564214D01*
X4077928Y-16592786D02*
X4092214Y-16578500D01*
X4120786Y-16564214D01*
X4163643Y-16564214D01*
X4192214Y-16578500D01*
X4206500Y-16607071D01*
X4206500Y-16764214D01*
X4206500Y-16607071D02*
X4220786Y-16578500D01*
X4249357Y-16564214D01*
X4292214Y-16564214D01*
X4320786Y-16578500D01*
X4335071Y-16607071D01*
X4335071Y-16764214D01*
X4477928Y-16764214D02*
X4477928Y-16564214D01*
X4477928Y-16592786D02*
X4492214Y-16578500D01*
X4520786Y-16564214D01*
X4563643Y-16564214D01*
X4592214Y-16578500D01*
X4606500Y-16607071D01*
X4606500Y-16764214D01*
X4606500Y-16607071D02*
X4620786Y-16578500D01*
X4649357Y-16564214D01*
X4692214Y-16564214D01*
X4720786Y-16578500D01*
X4735071Y-16607071D01*
X4735071Y-16764214D01*
X5320786Y-16449929D02*
X5063643Y-16835643D01*
X5706500Y-16464214D02*
X5735071Y-16464214D01*
X5763643Y-16478500D01*
X5777928Y-16492786D01*
X5792214Y-16521357D01*
X5806500Y-16578500D01*
X5806500Y-16649929D01*
X5792214Y-16707071D01*
X5777928Y-16735643D01*
X5763643Y-16749929D01*
X5735071Y-16764214D01*
X5706500Y-16764214D01*
X5677928Y-16749929D01*
X5663643Y-16735643D01*
X5649357Y-16707071D01*
X5635071Y-16649929D01*
X5635071Y-16578500D01*
X5649357Y-16521357D01*
X5663643Y-16492786D01*
X5677928Y-16478500D01*
X5706500Y-16464214D01*
X5935071Y-16735643D02*
X5949357Y-16749929D01*
X5935071Y-16764214D01*
X5920786Y-16749929D01*
X5935071Y-16735643D01*
X5935071Y-16764214D01*
X6135071Y-16464214D02*
X6163643Y-16464214D01*
X6192214Y-16478500D01*
X6206500Y-16492786D01*
X6220786Y-16521357D01*
X6235071Y-16578500D01*
X6235071Y-16649929D01*
X6220786Y-16707071D01*
X6206500Y-16735643D01*
X6192214Y-16749929D01*
X6163643Y-16764214D01*
X6135071Y-16764214D01*
X6106500Y-16749929D01*
X6092214Y-16735643D01*
X6077928Y-16707071D01*
X6063643Y-16649929D01*
X6063643Y-16578500D01*
X6077928Y-16521357D01*
X6092214Y-16492786D01*
X6106500Y-16478500D01*
X6135071Y-16464214D01*
X6335071Y-16464214D02*
X6520786Y-16464214D01*
X6420786Y-16578500D01*
X6463643Y-16578500D01*
X6492214Y-16592786D01*
X6506500Y-16607071D01*
X6520786Y-16635643D01*
X6520786Y-16707071D01*
X6506500Y-16735643D01*
X6492214Y-16749929D01*
X6463643Y-16764214D01*
X6377928Y-16764214D01*
X6349357Y-16749929D01*
X6335071Y-16735643D01*
X6806500Y-16764214D02*
X6635071Y-16764214D01*
X6720786Y-16764214D02*
X6720786Y-16464214D01*
X6692214Y-16507071D01*
X6663643Y-16535643D01*
X6635071Y-16549929D01*
X6920786Y-16464214D02*
X6920786Y-16521357D01*
X7035071Y-16464214D02*
X7035071Y-16521357D01*
X7477928Y-16878500D02*
X7463643Y-16864214D01*
X7435071Y-16821357D01*
X7420786Y-16792786D01*
X7406500Y-16749929D01*
X7392214Y-16678500D01*
X7392214Y-16621357D01*
X7406500Y-16549929D01*
X7420786Y-16507071D01*
X7435071Y-16478500D01*
X7463643Y-16435643D01*
X7477928Y-16421357D01*
X7606500Y-16764214D02*
X7663643Y-16764214D01*
X7692214Y-16749929D01*
X7706500Y-16735643D01*
X7735071Y-16692786D01*
X7749357Y-16635643D01*
X7749357Y-16521357D01*
X7735071Y-16492786D01*
X7720786Y-16478500D01*
X7692214Y-16464214D01*
X7635071Y-16464214D01*
X7606500Y-16478500D01*
X7592214Y-16492786D01*
X7577928Y-16521357D01*
X7577928Y-16592786D01*
X7592214Y-16621357D01*
X7606500Y-16635643D01*
X7635071Y-16649929D01*
X7692214Y-16649929D01*
X7720786Y-16635643D01*
X7735071Y-16621357D01*
X7749357Y-16592786D01*
X8006500Y-16464214D02*
X7949357Y-16464214D01*
X7920786Y-16478500D01*
X7906500Y-16492786D01*
X7877928Y-16535643D01*
X7863643Y-16592786D01*
X7863643Y-16707071D01*
X7877928Y-16735643D01*
X7892214Y-16749929D01*
X7920786Y-16764214D01*
X7977928Y-16764214D01*
X8006500Y-16749929D01*
X8020786Y-16735643D01*
X8035071Y-16707071D01*
X8035071Y-16635643D01*
X8020786Y-16607071D01*
X8006500Y-16592786D01*
X7977928Y-16578500D01*
X7920786Y-16578500D01*
X7892214Y-16592786D01*
X7877928Y-16607071D01*
X7863643Y-16635643D01*
X8392214Y-16764214D02*
X8392214Y-16464214D01*
X8520786Y-16764214D02*
X8520786Y-16607071D01*
X8506500Y-16578500D01*
X8477928Y-16564214D01*
X8435071Y-16564214D01*
X8406500Y-16578500D01*
X8392214Y-16592786D01*
X8706500Y-16764214D02*
X8677928Y-16749929D01*
X8663643Y-16735643D01*
X8649357Y-16707071D01*
X8649357Y-16621357D01*
X8663643Y-16592786D01*
X8677928Y-16578500D01*
X8706500Y-16564214D01*
X8749357Y-16564214D01*
X8777928Y-16578500D01*
X8792214Y-16592786D01*
X8806500Y-16621357D01*
X8806500Y-16707071D01*
X8792214Y-16735643D01*
X8777928Y-16749929D01*
X8749357Y-16764214D01*
X8706500Y-16764214D01*
X8977928Y-16764214D02*
X8949357Y-16749929D01*
X8935071Y-16721357D01*
X8935071Y-16464214D01*
X9206500Y-16749929D02*
X9177928Y-16764214D01*
X9120786Y-16764214D01*
X9092214Y-16749929D01*
X9077928Y-16721357D01*
X9077928Y-16607071D01*
X9092214Y-16578500D01*
X9120786Y-16564214D01*
X9177928Y-16564214D01*
X9206500Y-16578500D01*
X9220786Y-16607071D01*
X9220786Y-16635643D01*
X9077928Y-16664214D01*
X9335071Y-16749929D02*
X9363643Y-16764214D01*
X9420786Y-16764214D01*
X9449357Y-16749929D01*
X9463643Y-16721357D01*
X9463643Y-16707071D01*
X9449357Y-16678500D01*
X9420786Y-16664214D01*
X9377928Y-16664214D01*
X9349357Y-16649929D01*
X9335071Y-16621357D01*
X9335071Y-16607071D01*
X9349357Y-16578500D01*
X9377928Y-16564214D01*
X9420786Y-16564214D01*
X9449357Y-16578500D01*
X9563643Y-16878500D02*
X9577928Y-16864214D01*
X9606500Y-16821357D01*
X9620786Y-16792786D01*
X9635071Y-16749929D01*
X9649357Y-16678500D01*
X9649357Y-16621357D01*
X9635071Y-16549929D01*
X9620786Y-16507071D01*
X9606500Y-16478500D01*
X9577928Y-16435643D01*
X9563643Y-16421357D01*
X2746500Y-17069500D02*
X2791500Y-17024500D01*
X2746500Y-16979500D01*
X2701500Y-17024500D01*
X2746500Y-17069500D01*
X3135071Y-16860214D02*
X3163643Y-16860214D01*
X3192214Y-16874500D01*
X3206500Y-16888786D01*
X3220786Y-16917357D01*
X3235071Y-16974500D01*
X3235071Y-17045929D01*
X3220786Y-17103072D01*
X3206500Y-17131643D01*
X3192214Y-17145929D01*
X3163643Y-17160214D01*
X3135071Y-17160214D01*
X3106500Y-17145929D01*
X3092214Y-17131643D01*
X3077928Y-17103072D01*
X3063643Y-17045929D01*
X3063643Y-16974500D01*
X3077928Y-16917357D01*
X3092214Y-16888786D01*
X3106500Y-16874500D01*
X3135071Y-16860214D01*
X3363643Y-17131643D02*
X3377928Y-17145929D01*
X3363643Y-17160214D01*
X3349357Y-17145929D01*
X3363643Y-17131643D01*
X3363643Y-17160214D01*
X3520786Y-17160214D02*
X3577928Y-17160214D01*
X3606500Y-17145929D01*
X3620786Y-17131643D01*
X3649357Y-17088786D01*
X3663643Y-17031643D01*
X3663643Y-16917357D01*
X3649357Y-16888786D01*
X3635071Y-16874500D01*
X3606500Y-16860214D01*
X3549357Y-16860214D01*
X3520786Y-16874500D01*
X3506500Y-16888786D01*
X3492214Y-16917357D01*
X3492214Y-16988786D01*
X3506500Y-17017357D01*
X3520786Y-17031643D01*
X3549357Y-17045929D01*
X3606500Y-17045929D01*
X3635071Y-17031643D01*
X3649357Y-17017357D01*
X3663643Y-16988786D01*
X3849357Y-16860214D02*
X3877928Y-16860214D01*
X3906500Y-16874500D01*
X3920786Y-16888786D01*
X3935071Y-16917357D01*
X3949357Y-16974500D01*
X3949357Y-17045929D01*
X3935071Y-17103072D01*
X3920786Y-17131643D01*
X3906500Y-17145929D01*
X3877928Y-17160214D01*
X3849357Y-17160214D01*
X3820786Y-17145929D01*
X3806500Y-17131643D01*
X3792214Y-17103072D01*
X3777928Y-17045929D01*
X3777928Y-16974500D01*
X3792214Y-16917357D01*
X3806500Y-16888786D01*
X3820786Y-16874500D01*
X3849357Y-16860214D01*
X4077928Y-17160214D02*
X4077928Y-16960214D01*
X4077928Y-16988786D02*
X4092214Y-16974500D01*
X4120786Y-16960214D01*
X4163643Y-16960214D01*
X4192214Y-16974500D01*
X4206500Y-17003072D01*
X4206500Y-17160214D01*
X4206500Y-17003072D02*
X4220786Y-16974500D01*
X4249357Y-16960214D01*
X4292214Y-16960214D01*
X4320786Y-16974500D01*
X4335071Y-17003072D01*
X4335071Y-17160214D01*
X4477928Y-17160214D02*
X4477928Y-16960214D01*
X4477928Y-16988786D02*
X4492214Y-16974500D01*
X4520786Y-16960214D01*
X4563643Y-16960214D01*
X4592214Y-16974500D01*
X4606500Y-17003072D01*
X4606500Y-17160214D01*
X4606500Y-17003072D02*
X4620786Y-16974500D01*
X4649357Y-16960214D01*
X4692214Y-16960214D01*
X4720786Y-16974500D01*
X4735071Y-17003072D01*
X4735071Y-17160214D01*
X5320786Y-16845929D02*
X5063643Y-17231643D01*
X5706500Y-16860214D02*
X5735071Y-16860214D01*
X5763643Y-16874500D01*
X5777928Y-16888786D01*
X5792214Y-16917357D01*
X5806500Y-16974500D01*
X5806500Y-17045929D01*
X5792214Y-17103072D01*
X5777928Y-17131643D01*
X5763643Y-17145929D01*
X5735071Y-17160214D01*
X5706500Y-17160214D01*
X5677928Y-17145929D01*
X5663643Y-17131643D01*
X5649357Y-17103072D01*
X5635071Y-17045929D01*
X5635071Y-16974500D01*
X5649357Y-16917357D01*
X5663643Y-16888786D01*
X5677928Y-16874500D01*
X5706500Y-16860214D01*
X5935071Y-17131643D02*
X5949357Y-17145929D01*
X5935071Y-17160214D01*
X5920786Y-17145929D01*
X5935071Y-17131643D01*
X5935071Y-17160214D01*
X6135071Y-16860214D02*
X6163643Y-16860214D01*
X6192214Y-16874500D01*
X6206500Y-16888786D01*
X6220786Y-16917357D01*
X6235071Y-16974500D01*
X6235071Y-17045929D01*
X6220786Y-17103072D01*
X6206500Y-17131643D01*
X6192214Y-17145929D01*
X6163643Y-17160214D01*
X6135071Y-17160214D01*
X6106500Y-17145929D01*
X6092214Y-17131643D01*
X6077928Y-17103072D01*
X6063643Y-17045929D01*
X6063643Y-16974500D01*
X6077928Y-16917357D01*
X6092214Y-16888786D01*
X6106500Y-16874500D01*
X6135071Y-16860214D01*
X6335071Y-16860214D02*
X6520786Y-16860214D01*
X6420786Y-16974500D01*
X6463643Y-16974500D01*
X6492214Y-16988786D01*
X6506500Y-17003072D01*
X6520786Y-17031643D01*
X6520786Y-17103072D01*
X6506500Y-17131643D01*
X6492214Y-17145929D01*
X6463643Y-17160214D01*
X6377928Y-17160214D01*
X6349357Y-17145929D01*
X6335071Y-17131643D01*
X6792214Y-16860214D02*
X6649357Y-16860214D01*
X6635071Y-17003072D01*
X6649357Y-16988786D01*
X6677928Y-16974500D01*
X6749357Y-16974500D01*
X6777928Y-16988786D01*
X6792214Y-17003072D01*
X6806500Y-17031643D01*
X6806500Y-17103072D01*
X6792214Y-17131643D01*
X6777928Y-17145929D01*
X6749357Y-17160214D01*
X6677928Y-17160214D01*
X6649357Y-17145929D01*
X6635071Y-17131643D01*
X6920786Y-16860214D02*
X6920786Y-16917357D01*
X7035071Y-16860214D02*
X7035071Y-16917357D01*
X7477928Y-17274500D02*
X7463643Y-17260214D01*
X7435071Y-17217357D01*
X7420786Y-17188786D01*
X7406500Y-17145929D01*
X7392214Y-17074500D01*
X7392214Y-17017357D01*
X7406500Y-16945929D01*
X7420786Y-16903072D01*
X7435071Y-16874500D01*
X7463643Y-16831643D01*
X7477928Y-16817357D01*
X7577928Y-16888786D02*
X7592214Y-16874500D01*
X7620786Y-16860214D01*
X7692214Y-16860214D01*
X7720786Y-16874500D01*
X7735071Y-16888786D01*
X7749357Y-16917357D01*
X7749357Y-16945929D01*
X7735071Y-16988786D01*
X7563643Y-17160214D01*
X7749357Y-17160214D01*
X8106500Y-17160214D02*
X8106500Y-16860214D01*
X8235071Y-17160214D02*
X8235071Y-17003072D01*
X8220786Y-16974500D01*
X8192214Y-16960214D01*
X8149357Y-16960214D01*
X8120786Y-16974500D01*
X8106500Y-16988786D01*
X8420786Y-17160214D02*
X8392214Y-17145929D01*
X8377928Y-17131643D01*
X8363643Y-17103072D01*
X8363643Y-17017357D01*
X8377928Y-16988786D01*
X8392214Y-16974500D01*
X8420786Y-16960214D01*
X8463643Y-16960214D01*
X8492214Y-16974500D01*
X8506500Y-16988786D01*
X8520786Y-17017357D01*
X8520786Y-17103072D01*
X8506500Y-17131643D01*
X8492214Y-17145929D01*
X8463643Y-17160214D01*
X8420786Y-17160214D01*
X8692214Y-17160214D02*
X8663643Y-17145929D01*
X8649357Y-17117357D01*
X8649357Y-16860214D01*
X8920786Y-17145929D02*
X8892214Y-17160214D01*
X8835071Y-17160214D01*
X8806500Y-17145929D01*
X8792214Y-17117357D01*
X8792214Y-17003072D01*
X8806500Y-16974500D01*
X8835071Y-16960214D01*
X8892214Y-16960214D01*
X8920786Y-16974500D01*
X8935071Y-17003072D01*
X8935071Y-17031643D01*
X8792214Y-17060214D01*
X9049357Y-17145929D02*
X9077928Y-17160214D01*
X9135071Y-17160214D01*
X9163643Y-17145929D01*
X9177928Y-17117357D01*
X9177928Y-17103072D01*
X9163643Y-17074500D01*
X9135071Y-17060214D01*
X9092214Y-17060214D01*
X9063643Y-17045929D01*
X9049357Y-17017357D01*
X9049357Y-17003072D01*
X9063643Y-16974500D01*
X9092214Y-16960214D01*
X9135071Y-16960214D01*
X9163643Y-16974500D01*
X9277928Y-17274500D02*
X9292214Y-17260214D01*
X9320786Y-17217357D01*
X9335071Y-17188786D01*
X9349357Y-17145929D01*
X9363643Y-17074500D01*
X9363643Y-17017357D01*
X9349357Y-16945929D01*
X9335071Y-16903072D01*
X9320786Y-16874500D01*
X9292214Y-16831643D01*
X9277928Y-16817357D01*
X2681500Y-17365500D02*
X2791500Y-17475500D01*
X2791500Y-17365500D02*
X2681500Y-17475500D01*
X2791500Y-17420500D02*
G75*
G03*
X2791500Y-17420500I-55000J0D01*
G01*
X3235071Y-17556214D02*
X3063643Y-17556214D01*
X3149357Y-17556214D02*
X3149357Y-17256214D01*
X3120786Y-17299072D01*
X3092214Y-17327643D01*
X3063643Y-17341929D01*
X3363643Y-17527643D02*
X3377928Y-17541929D01*
X3363643Y-17556214D01*
X3349357Y-17541929D01*
X3363643Y-17527643D01*
X3363643Y-17556214D01*
X3663643Y-17556214D02*
X3492214Y-17556214D01*
X3577928Y-17556214D02*
X3577928Y-17256214D01*
X3549357Y-17299072D01*
X3520786Y-17327643D01*
X3492214Y-17341929D01*
X3849357Y-17256214D02*
X3877928Y-17256214D01*
X3906500Y-17270500D01*
X3920786Y-17284786D01*
X3935071Y-17313357D01*
X3949357Y-17370500D01*
X3949357Y-17441929D01*
X3935071Y-17499072D01*
X3920786Y-17527643D01*
X3906500Y-17541929D01*
X3877928Y-17556214D01*
X3849357Y-17556214D01*
X3820786Y-17541929D01*
X3806500Y-17527643D01*
X3792214Y-17499072D01*
X3777928Y-17441929D01*
X3777928Y-17370500D01*
X3792214Y-17313357D01*
X3806500Y-17284786D01*
X3820786Y-17270500D01*
X3849357Y-17256214D01*
X4077928Y-17556214D02*
X4077928Y-17356214D01*
X4077928Y-17384786D02*
X4092214Y-17370500D01*
X4120786Y-17356214D01*
X4163643Y-17356214D01*
X4192214Y-17370500D01*
X4206500Y-17399072D01*
X4206500Y-17556214D01*
X4206500Y-17399072D02*
X4220786Y-17370500D01*
X4249357Y-17356214D01*
X4292214Y-17356214D01*
X4320786Y-17370500D01*
X4335071Y-17399072D01*
X4335071Y-17556214D01*
X4477928Y-17556214D02*
X4477928Y-17356214D01*
X4477928Y-17384786D02*
X4492214Y-17370500D01*
X4520786Y-17356214D01*
X4563643Y-17356214D01*
X4592214Y-17370500D01*
X4606500Y-17399072D01*
X4606500Y-17556214D01*
X4606500Y-17399072D02*
X4620786Y-17370500D01*
X4649357Y-17356214D01*
X4692214Y-17356214D01*
X4720786Y-17370500D01*
X4735071Y-17399072D01*
X4735071Y-17556214D01*
X5320786Y-17241929D02*
X5063643Y-17627643D01*
X5706500Y-17256214D02*
X5735071Y-17256214D01*
X5763643Y-17270500D01*
X5777928Y-17284786D01*
X5792214Y-17313357D01*
X5806500Y-17370500D01*
X5806500Y-17441929D01*
X5792214Y-17499072D01*
X5777928Y-17527643D01*
X5763643Y-17541929D01*
X5735071Y-17556214D01*
X5706500Y-17556214D01*
X5677928Y-17541929D01*
X5663643Y-17527643D01*
X5649357Y-17499072D01*
X5635071Y-17441929D01*
X5635071Y-17370500D01*
X5649357Y-17313357D01*
X5663643Y-17284786D01*
X5677928Y-17270500D01*
X5706500Y-17256214D01*
X5935071Y-17527643D02*
X5949357Y-17541929D01*
X5935071Y-17556214D01*
X5920786Y-17541929D01*
X5935071Y-17527643D01*
X5935071Y-17556214D01*
X6135071Y-17256214D02*
X6163643Y-17256214D01*
X6192214Y-17270500D01*
X6206500Y-17284786D01*
X6220786Y-17313357D01*
X6235071Y-17370500D01*
X6235071Y-17441929D01*
X6220786Y-17499072D01*
X6206500Y-17527643D01*
X6192214Y-17541929D01*
X6163643Y-17556214D01*
X6135071Y-17556214D01*
X6106500Y-17541929D01*
X6092214Y-17527643D01*
X6077928Y-17499072D01*
X6063643Y-17441929D01*
X6063643Y-17370500D01*
X6077928Y-17313357D01*
X6092214Y-17284786D01*
X6106500Y-17270500D01*
X6135071Y-17256214D01*
X6492214Y-17356214D02*
X6492214Y-17556214D01*
X6420786Y-17241929D02*
X6349357Y-17456214D01*
X6535071Y-17456214D01*
X6620786Y-17256214D02*
X6806500Y-17256214D01*
X6706500Y-17370500D01*
X6749357Y-17370500D01*
X6777928Y-17384786D01*
X6792214Y-17399072D01*
X6806500Y-17427643D01*
X6806500Y-17499072D01*
X6792214Y-17527643D01*
X6777928Y-17541929D01*
X6749357Y-17556214D01*
X6663643Y-17556214D01*
X6635071Y-17541929D01*
X6620786Y-17527643D01*
X6920786Y-17256214D02*
X6920786Y-17313357D01*
X7035071Y-17256214D02*
X7035071Y-17313357D01*
X7477928Y-17670500D02*
X7463643Y-17656214D01*
X7435071Y-17613357D01*
X7420786Y-17584786D01*
X7406500Y-17541929D01*
X7392214Y-17470500D01*
X7392214Y-17413357D01*
X7406500Y-17341929D01*
X7420786Y-17299072D01*
X7435071Y-17270500D01*
X7463643Y-17227643D01*
X7477928Y-17213357D01*
X7749357Y-17556214D02*
X7577928Y-17556214D01*
X7663643Y-17556214D02*
X7663643Y-17256214D01*
X7635071Y-17299072D01*
X7606500Y-17327643D01*
X7577928Y-17341929D01*
X7863643Y-17284786D02*
X7877928Y-17270500D01*
X7906500Y-17256214D01*
X7977928Y-17256214D01*
X8006500Y-17270500D01*
X8020786Y-17284786D01*
X8035071Y-17313357D01*
X8035071Y-17341929D01*
X8020786Y-17384786D01*
X7849357Y-17556214D01*
X8035071Y-17556214D01*
X8392214Y-17556214D02*
X8392214Y-17256214D01*
X8520786Y-17556214D02*
X8520786Y-17399072D01*
X8506500Y-17370500D01*
X8477928Y-17356214D01*
X8435071Y-17356214D01*
X8406500Y-17370500D01*
X8392214Y-17384786D01*
X8706500Y-17556214D02*
X8677928Y-17541929D01*
X8663643Y-17527643D01*
X8649357Y-17499072D01*
X8649357Y-17413357D01*
X8663643Y-17384786D01*
X8677928Y-17370500D01*
X8706500Y-17356214D01*
X8749357Y-17356214D01*
X8777928Y-17370500D01*
X8792214Y-17384786D01*
X8806500Y-17413357D01*
X8806500Y-17499072D01*
X8792214Y-17527643D01*
X8777928Y-17541929D01*
X8749357Y-17556214D01*
X8706500Y-17556214D01*
X8977928Y-17556214D02*
X8949357Y-17541929D01*
X8935071Y-17513357D01*
X8935071Y-17256214D01*
X9206500Y-17541929D02*
X9177928Y-17556214D01*
X9120786Y-17556214D01*
X9092214Y-17541929D01*
X9077928Y-17513357D01*
X9077928Y-17399072D01*
X9092214Y-17370500D01*
X9120786Y-17356214D01*
X9177928Y-17356214D01*
X9206500Y-17370500D01*
X9220786Y-17399072D01*
X9220786Y-17427643D01*
X9077928Y-17456214D01*
X9335071Y-17541929D02*
X9363643Y-17556214D01*
X9420786Y-17556214D01*
X9449357Y-17541929D01*
X9463643Y-17513357D01*
X9463643Y-17499072D01*
X9449357Y-17470500D01*
X9420786Y-17456214D01*
X9377928Y-17456214D01*
X9349357Y-17441929D01*
X9335071Y-17413357D01*
X9335071Y-17399072D01*
X9349357Y-17370500D01*
X9377928Y-17356214D01*
X9420786Y-17356214D01*
X9449357Y-17370500D01*
X9563643Y-17670500D02*
X9577928Y-17656214D01*
X9606500Y-17613357D01*
X9620786Y-17584786D01*
X9635071Y-17541929D01*
X9649357Y-17470500D01*
X9649357Y-17413357D01*
X9635071Y-17341929D01*
X9620786Y-17299072D01*
X9606500Y-17270500D01*
X9577928Y-17227643D01*
X9563643Y-17213357D01*
X2491500Y-17666500D02*
X2791500Y-17966500D01*
X2791500Y-17666500D02*
X2491500Y-17966500D01*
X2641500Y-17666500D02*
X2641500Y-17966500D01*
X2491500Y-17816500D02*
X2791500Y-17816500D01*
X3049357Y-17652214D02*
X3235071Y-17652214D01*
X3135071Y-17766500D01*
X3177928Y-17766500D01*
X3206500Y-17780786D01*
X3220786Y-17795072D01*
X3235071Y-17823643D01*
X3235071Y-17895072D01*
X3220786Y-17923643D01*
X3206500Y-17937929D01*
X3177928Y-17952214D01*
X3092214Y-17952214D01*
X3063643Y-17937929D01*
X3049357Y-17923643D01*
X3363643Y-17923643D02*
X3377928Y-17937929D01*
X3363643Y-17952214D01*
X3349357Y-17937929D01*
X3363643Y-17923643D01*
X3363643Y-17952214D01*
X3563643Y-17652214D02*
X3592214Y-17652214D01*
X3620786Y-17666500D01*
X3635071Y-17680786D01*
X3649357Y-17709357D01*
X3663643Y-17766500D01*
X3663643Y-17837929D01*
X3649357Y-17895072D01*
X3635071Y-17923643D01*
X3620786Y-17937929D01*
X3592214Y-17952214D01*
X3563643Y-17952214D01*
X3535071Y-17937929D01*
X3520786Y-17923643D01*
X3506500Y-17895072D01*
X3492214Y-17837929D01*
X3492214Y-17766500D01*
X3506500Y-17709357D01*
X3520786Y-17680786D01*
X3535071Y-17666500D01*
X3563643Y-17652214D01*
X3849357Y-17652214D02*
X3877928Y-17652214D01*
X3906500Y-17666500D01*
X3920786Y-17680786D01*
X3935071Y-17709357D01*
X3949357Y-17766500D01*
X3949357Y-17837929D01*
X3935071Y-17895072D01*
X3920786Y-17923643D01*
X3906500Y-17937929D01*
X3877928Y-17952214D01*
X3849357Y-17952214D01*
X3820786Y-17937929D01*
X3806500Y-17923643D01*
X3792214Y-17895072D01*
X3777928Y-17837929D01*
X3777928Y-17766500D01*
X3792214Y-17709357D01*
X3806500Y-17680786D01*
X3820786Y-17666500D01*
X3849357Y-17652214D01*
X4077928Y-17952214D02*
X4077928Y-17752214D01*
X4077928Y-17780786D02*
X4092214Y-17766500D01*
X4120786Y-17752214D01*
X4163643Y-17752214D01*
X4192214Y-17766500D01*
X4206500Y-17795072D01*
X4206500Y-17952214D01*
X4206500Y-17795072D02*
X4220786Y-17766500D01*
X4249357Y-17752214D01*
X4292214Y-17752214D01*
X4320786Y-17766500D01*
X4335071Y-17795072D01*
X4335071Y-17952214D01*
X4477928Y-17952214D02*
X4477928Y-17752214D01*
X4477928Y-17780786D02*
X4492214Y-17766500D01*
X4520786Y-17752214D01*
X4563643Y-17752214D01*
X4592214Y-17766500D01*
X4606500Y-17795072D01*
X4606500Y-17952214D01*
X4606500Y-17795072D02*
X4620786Y-17766500D01*
X4649357Y-17752214D01*
X4692214Y-17752214D01*
X4720786Y-17766500D01*
X4735071Y-17795072D01*
X4735071Y-17952214D01*
X5320786Y-17637929D02*
X5063643Y-18023643D01*
X5706500Y-17652214D02*
X5735071Y-17652214D01*
X5763643Y-17666500D01*
X5777928Y-17680786D01*
X5792214Y-17709357D01*
X5806500Y-17766500D01*
X5806500Y-17837929D01*
X5792214Y-17895072D01*
X5777928Y-17923643D01*
X5763643Y-17937929D01*
X5735071Y-17952214D01*
X5706500Y-17952214D01*
X5677928Y-17937929D01*
X5663643Y-17923643D01*
X5649357Y-17895072D01*
X5635071Y-17837929D01*
X5635071Y-17766500D01*
X5649357Y-17709357D01*
X5663643Y-17680786D01*
X5677928Y-17666500D01*
X5706500Y-17652214D01*
X5935071Y-17923643D02*
X5949357Y-17937929D01*
X5935071Y-17952214D01*
X5920786Y-17937929D01*
X5935071Y-17923643D01*
X5935071Y-17952214D01*
X6235071Y-17952214D02*
X6063643Y-17952214D01*
X6149357Y-17952214D02*
X6149357Y-17652214D01*
X6120786Y-17695072D01*
X6092214Y-17723643D01*
X6063643Y-17737929D01*
X6520786Y-17952214D02*
X6349357Y-17952214D01*
X6435071Y-17952214D02*
X6435071Y-17652214D01*
X6406500Y-17695072D01*
X6377928Y-17723643D01*
X6349357Y-17737929D01*
X6692214Y-17780786D02*
X6663643Y-17766500D01*
X6649357Y-17752214D01*
X6635071Y-17723643D01*
X6635071Y-17709357D01*
X6649357Y-17680786D01*
X6663643Y-17666500D01*
X6692214Y-17652214D01*
X6749357Y-17652214D01*
X6777928Y-17666500D01*
X6792214Y-17680786D01*
X6806500Y-17709357D01*
X6806500Y-17723643D01*
X6792214Y-17752214D01*
X6777928Y-17766500D01*
X6749357Y-17780786D01*
X6692214Y-17780786D01*
X6663643Y-17795072D01*
X6649357Y-17809357D01*
X6635071Y-17837929D01*
X6635071Y-17895072D01*
X6649357Y-17923643D01*
X6663643Y-17937929D01*
X6692214Y-17952214D01*
X6749357Y-17952214D01*
X6777928Y-17937929D01*
X6792214Y-17923643D01*
X6806500Y-17895072D01*
X6806500Y-17837929D01*
X6792214Y-17809357D01*
X6777928Y-17795072D01*
X6749357Y-17780786D01*
X6920786Y-17652214D02*
X6920786Y-17709357D01*
X7035071Y-17652214D02*
X7035071Y-17709357D01*
X7477928Y-18066500D02*
X7463643Y-18052214D01*
X7435071Y-18009357D01*
X7420786Y-17980786D01*
X7406500Y-17937929D01*
X7392214Y-17866500D01*
X7392214Y-17809357D01*
X7406500Y-17737929D01*
X7420786Y-17695072D01*
X7435071Y-17666500D01*
X7463643Y-17623643D01*
X7477928Y-17609357D01*
X7720786Y-17752214D02*
X7720786Y-17952214D01*
X7649357Y-17637929D02*
X7577928Y-17852214D01*
X7763643Y-17852214D01*
X8106500Y-17952214D02*
X8106500Y-17652214D01*
X8235071Y-17952214D02*
X8235071Y-17795072D01*
X8220786Y-17766500D01*
X8192214Y-17752214D01*
X8149357Y-17752214D01*
X8120786Y-17766500D01*
X8106500Y-17780786D01*
X8420786Y-17952214D02*
X8392214Y-17937929D01*
X8377928Y-17923643D01*
X8363643Y-17895072D01*
X8363643Y-17809357D01*
X8377928Y-17780786D01*
X8392214Y-17766500D01*
X8420786Y-17752214D01*
X8463643Y-17752214D01*
X8492214Y-17766500D01*
X8506500Y-17780786D01*
X8520786Y-17809357D01*
X8520786Y-17895072D01*
X8506500Y-17923643D01*
X8492214Y-17937929D01*
X8463643Y-17952214D01*
X8420786Y-17952214D01*
X8692214Y-17952214D02*
X8663643Y-17937929D01*
X8649357Y-17909357D01*
X8649357Y-17652214D01*
X8920786Y-17937929D02*
X8892214Y-17952214D01*
X8835071Y-17952214D01*
X8806500Y-17937929D01*
X8792214Y-17909357D01*
X8792214Y-17795072D01*
X8806500Y-17766500D01*
X8835071Y-17752214D01*
X8892214Y-17752214D01*
X8920786Y-17766500D01*
X8935071Y-17795072D01*
X8935071Y-17823643D01*
X8792214Y-17852214D01*
X9049357Y-17937929D02*
X9077928Y-17952214D01*
X9135071Y-17952214D01*
X9163643Y-17937929D01*
X9177928Y-17909357D01*
X9177928Y-17895072D01*
X9163643Y-17866500D01*
X9135071Y-17852214D01*
X9092214Y-17852214D01*
X9063643Y-17837929D01*
X9049357Y-17809357D01*
X9049357Y-17795072D01*
X9063643Y-17766500D01*
X9092214Y-17752214D01*
X9135071Y-17752214D01*
X9163643Y-17766500D01*
X9277928Y-18066500D02*
X9292214Y-18052214D01*
X9320786Y-18009357D01*
X9335071Y-17980786D01*
X9349357Y-17937929D01*
X9363643Y-17866500D01*
X9363643Y-17809357D01*
X9349357Y-17737929D01*
X9335071Y-17695072D01*
X9320786Y-17666500D01*
X9292214Y-17623643D01*
X9277928Y-17609357D01*
M02*
