%TF.GenerationSoftware,KiCad,Pcbnew,(5.1.6)-1*%
%TF.CreationDate,2020-07-07T09:56:18-05:00*%
%TF.ProjectId,Covid,436f7669-642e-46b6-9963-61645f706362,rev?*%
%TF.SameCoordinates,Original*%
%TF.FileFunction,Other,Fab,Top*%
%FSLAX46Y46*%
G04 Gerber Fmt 4.6, Leading zero omitted, Abs format (unit mm)*
G04 Created by KiCad (PCBNEW (5.1.6)-1) date 2020-07-07 09:56:18*
%MOMM*%
%LPD*%
G01*
G04 APERTURE LIST*
%ADD10C,0.100000*%
%ADD11C,0.150000*%
G04 APERTURE END LIST*
D10*
%TO.C,U6*%
X131953000Y-114300000D02*
X131953000Y-118872000D01*
X131953000Y-114300000D02*
X142367000Y-114300000D01*
X131953000Y-112776000D02*
X131953000Y-114300000D01*
X131953000Y-112776000D02*
X142367000Y-112776000D01*
X132334000Y-110236000D02*
X132334000Y-112776000D01*
X141986000Y-110236000D02*
X132334000Y-110236000D01*
X141986000Y-112776000D02*
X141986000Y-110236000D01*
X140106400Y-116332000D02*
X139293600Y-116332000D01*
X137566400Y-116332000D02*
X136753600Y-116332000D01*
X135026400Y-116332000D02*
X134213600Y-116332000D01*
X133350000Y-116332000D02*
X134213600Y-116332000D01*
X135026400Y-116332000D02*
X136753600Y-116332000D01*
X137566400Y-116332000D02*
X139293600Y-116332000D01*
X140106400Y-116332000D02*
X140970000Y-116332000D01*
X140970000Y-114300000D02*
X140970000Y-116332000D01*
X133350000Y-116332000D02*
X133350000Y-114300000D01*
X142367000Y-112776000D02*
X142367000Y-114300000D01*
X142367000Y-114300000D02*
X142367000Y-118872000D01*
X142367000Y-118872000D02*
X131953000Y-118872000D01*
%TD*%
%TO.C,U3*%
D11*
X171458571Y-94146666D02*
X171934761Y-94146666D01*
X171363333Y-94432380D02*
X171696666Y-93432380D01*
X172030000Y-94432380D01*
X172363333Y-94432380D02*
X172363333Y-93432380D01*
X172696666Y-94146666D01*
X173030000Y-93432380D01*
X173030000Y-94432380D01*
X173506190Y-94432380D02*
X173506190Y-93432380D01*
X173887142Y-93432380D01*
X173982380Y-93480000D01*
X174030000Y-93527619D01*
X174077619Y-93622857D01*
X174077619Y-93765714D01*
X174030000Y-93860952D01*
X173982380Y-93908571D01*
X173887142Y-93956190D01*
X173506190Y-93956190D01*
X174982380Y-94432380D02*
X174506190Y-94432380D01*
X174506190Y-93432380D01*
X175315714Y-94432380D02*
X175315714Y-93432380D01*
X176125238Y-93908571D02*
X175791904Y-93908571D01*
X175791904Y-94432380D02*
X175791904Y-93432380D01*
X176268095Y-93432380D01*
X176649047Y-94432380D02*
X176649047Y-93432380D01*
X177696666Y-94337142D02*
X177649047Y-94384761D01*
X177506190Y-94432380D01*
X177410952Y-94432380D01*
X177268095Y-94384761D01*
X177172857Y-94289523D01*
X177125238Y-94194285D01*
X177077619Y-94003809D01*
X177077619Y-93860952D01*
X177125238Y-93670476D01*
X177172857Y-93575238D01*
X177268095Y-93480000D01*
X177410952Y-93432380D01*
X177506190Y-93432380D01*
X177649047Y-93480000D01*
X177696666Y-93527619D01*
X178077619Y-94146666D02*
X178553809Y-94146666D01*
X177982380Y-94432380D02*
X178315714Y-93432380D01*
X178649047Y-94432380D01*
X178982380Y-94432380D02*
X178982380Y-93432380D01*
X179220476Y-93432380D01*
X179363333Y-93480000D01*
X179458571Y-93575238D01*
X179506190Y-93670476D01*
X179553809Y-93860952D01*
X179553809Y-94003809D01*
X179506190Y-94194285D01*
X179458571Y-94289523D01*
X179363333Y-94384761D01*
X179220476Y-94432380D01*
X178982380Y-94432380D01*
X180172857Y-93432380D02*
X180363333Y-93432380D01*
X180458571Y-93480000D01*
X180553809Y-93575238D01*
X180601428Y-93765714D01*
X180601428Y-94099047D01*
X180553809Y-94289523D01*
X180458571Y-94384761D01*
X180363333Y-94432380D01*
X180172857Y-94432380D01*
X180077619Y-94384761D01*
X179982380Y-94289523D01*
X179934761Y-94099047D01*
X179934761Y-93765714D01*
X179982380Y-93575238D01*
X180077619Y-93480000D01*
X180172857Y-93432380D01*
X181601428Y-94432380D02*
X181268095Y-93956190D01*
X181030000Y-94432380D02*
X181030000Y-93432380D01*
X181410952Y-93432380D01*
X181506190Y-93480000D01*
X181553809Y-93527619D01*
X181601428Y-93622857D01*
X181601428Y-93765714D01*
X181553809Y-93860952D01*
X181506190Y-93908571D01*
X181410952Y-93956190D01*
X181030000Y-93956190D01*
%TO.C,U1*%
X61357142Y-54538571D02*
X61690476Y-54538571D01*
X61833333Y-55062380D02*
X61357142Y-55062380D01*
X61357142Y-54062380D01*
X61833333Y-54062380D01*
X62214285Y-55014761D02*
X62357142Y-55062380D01*
X62595238Y-55062380D01*
X62690476Y-55014761D01*
X62738095Y-54967142D01*
X62785714Y-54871904D01*
X62785714Y-54776666D01*
X62738095Y-54681428D01*
X62690476Y-54633809D01*
X62595238Y-54586190D01*
X62404761Y-54538571D01*
X62309523Y-54490952D01*
X62261904Y-54443333D01*
X62214285Y-54348095D01*
X62214285Y-54252857D01*
X62261904Y-54157619D01*
X62309523Y-54110000D01*
X62404761Y-54062380D01*
X62642857Y-54062380D01*
X62785714Y-54110000D01*
X63214285Y-55062380D02*
X63214285Y-54062380D01*
X63595238Y-54062380D01*
X63690476Y-54110000D01*
X63738095Y-54157619D01*
X63785714Y-54252857D01*
X63785714Y-54395714D01*
X63738095Y-54490952D01*
X63690476Y-54538571D01*
X63595238Y-54586190D01*
X63214285Y-54586190D01*
X64119047Y-54062380D02*
X64738095Y-54062380D01*
X64404761Y-54443333D01*
X64547619Y-54443333D01*
X64642857Y-54490952D01*
X64690476Y-54538571D01*
X64738095Y-54633809D01*
X64738095Y-54871904D01*
X64690476Y-54967142D01*
X64642857Y-55014761D01*
X64547619Y-55062380D01*
X64261904Y-55062380D01*
X64166666Y-55014761D01*
X64119047Y-54967142D01*
X65119047Y-54157619D02*
X65166666Y-54110000D01*
X65261904Y-54062380D01*
X65500000Y-54062380D01*
X65595238Y-54110000D01*
X65642857Y-54157619D01*
X65690476Y-54252857D01*
X65690476Y-54348095D01*
X65642857Y-54490952D01*
X65071428Y-55062380D01*
X65690476Y-55062380D01*
%TO.C,U2*%
X88082380Y-47267619D02*
X88082380Y-47743809D01*
X87082380Y-47743809D01*
X87796666Y-46981904D02*
X87796666Y-46505714D01*
X88082380Y-47077142D02*
X87082380Y-46743809D01*
X88082380Y-46410476D01*
X88034761Y-46124761D02*
X88082380Y-45981904D01*
X88082380Y-45743809D01*
X88034761Y-45648571D01*
X87987142Y-45600952D01*
X87891904Y-45553333D01*
X87796666Y-45553333D01*
X87701428Y-45600952D01*
X87653809Y-45648571D01*
X87606190Y-45743809D01*
X87558571Y-45934285D01*
X87510952Y-46029523D01*
X87463333Y-46077142D01*
X87368095Y-46124761D01*
X87272857Y-46124761D01*
X87177619Y-46077142D01*
X87130000Y-46029523D01*
X87082380Y-45934285D01*
X87082380Y-45696190D01*
X87130000Y-45553333D01*
X87558571Y-45124761D02*
X87558571Y-44791428D01*
X88082380Y-44648571D02*
X88082380Y-45124761D01*
X87082380Y-45124761D01*
X87082380Y-44648571D01*
X88082380Y-43648571D02*
X87606190Y-43981904D01*
X88082380Y-44220000D02*
X87082380Y-44220000D01*
X87082380Y-43839047D01*
X87130000Y-43743809D01*
X87177619Y-43696190D01*
X87272857Y-43648571D01*
X87415714Y-43648571D01*
X87510952Y-43696190D01*
X87558571Y-43743809D01*
X87606190Y-43839047D01*
X87606190Y-44220000D01*
%TO.C,U4*%
X62206666Y-109942380D02*
X62778095Y-109942380D01*
X62492380Y-110942380D02*
X62492380Y-109942380D01*
X63111428Y-110942380D02*
X63111428Y-110275714D01*
X63111428Y-110466190D02*
X63159047Y-110370952D01*
X63206666Y-110323333D01*
X63301904Y-110275714D01*
X63397142Y-110275714D01*
X63730476Y-110942380D02*
X63730476Y-110275714D01*
X63730476Y-109942380D02*
X63682857Y-109990000D01*
X63730476Y-110037619D01*
X63778095Y-109990000D01*
X63730476Y-109942380D01*
X63730476Y-110037619D01*
X64206666Y-110275714D02*
X64206666Y-110942380D01*
X64206666Y-110370952D02*
X64254285Y-110323333D01*
X64349523Y-110275714D01*
X64492380Y-110275714D01*
X64587619Y-110323333D01*
X64635238Y-110418571D01*
X64635238Y-110942380D01*
X65111428Y-110942380D02*
X65111428Y-109942380D01*
X65206666Y-110561428D02*
X65492380Y-110942380D01*
X65492380Y-110275714D02*
X65111428Y-110656666D01*
X66301904Y-110894761D02*
X66206666Y-110942380D01*
X66016190Y-110942380D01*
X65920952Y-110894761D01*
X65873333Y-110799523D01*
X65873333Y-110418571D01*
X65920952Y-110323333D01*
X66016190Y-110275714D01*
X66206666Y-110275714D01*
X66301904Y-110323333D01*
X66349523Y-110418571D01*
X66349523Y-110513809D01*
X65873333Y-110609047D01*
X66635238Y-110275714D02*
X67016190Y-110275714D01*
X66778095Y-109942380D02*
X66778095Y-110799523D01*
X66825714Y-110894761D01*
X66920952Y-110942380D01*
X67016190Y-110942380D01*
X67111428Y-111037619D02*
X67873333Y-111037619D01*
X68111428Y-110942380D02*
X68111428Y-109942380D01*
X68444761Y-110656666D01*
X68778095Y-109942380D01*
X68778095Y-110942380D01*
X69444761Y-109942380D02*
X69540000Y-109942380D01*
X69635238Y-109990000D01*
X69682857Y-110037619D01*
X69730476Y-110132857D01*
X69778095Y-110323333D01*
X69778095Y-110561428D01*
X69730476Y-110751904D01*
X69682857Y-110847142D01*
X69635238Y-110894761D01*
X69540000Y-110942380D01*
X69444761Y-110942380D01*
X69349523Y-110894761D01*
X69301904Y-110847142D01*
X69254285Y-110751904D01*
X69206666Y-110561428D01*
X69206666Y-110323333D01*
X69254285Y-110132857D01*
X69301904Y-110037619D01*
X69349523Y-109990000D01*
X69444761Y-109942380D01*
%TO.C,U5*%
X121132858Y-94702380D02*
X121132858Y-95416666D01*
X121085239Y-95559523D01*
X120990001Y-95654761D01*
X120847143Y-95702380D01*
X120751905Y-95702380D01*
X122275715Y-95797619D02*
X122180477Y-95750000D01*
X122085239Y-95654761D01*
X121942381Y-95511904D01*
X121847143Y-95464285D01*
X121751905Y-95464285D01*
X121799524Y-95702380D02*
X121704286Y-95654761D01*
X121609048Y-95559523D01*
X121561429Y-95369047D01*
X121561429Y-95035714D01*
X121609048Y-94845238D01*
X121704286Y-94750000D01*
X121799524Y-94702380D01*
X121990001Y-94702380D01*
X122085239Y-94750000D01*
X122180477Y-94845238D01*
X122228096Y-95035714D01*
X122228096Y-95369047D01*
X122180477Y-95559523D01*
X122085239Y-95654761D01*
X121990001Y-95702380D01*
X121799524Y-95702380D01*
X123085239Y-94702380D02*
X122894762Y-94702380D01*
X122799524Y-94750000D01*
X122751905Y-94797619D01*
X122656667Y-94940476D01*
X122609048Y-95130952D01*
X122609048Y-95511904D01*
X122656667Y-95607142D01*
X122704286Y-95654761D01*
X122799524Y-95702380D01*
X122990001Y-95702380D01*
X123085239Y-95654761D01*
X123132858Y-95607142D01*
X123180477Y-95511904D01*
X123180477Y-95273809D01*
X123132858Y-95178571D01*
X123085239Y-95130952D01*
X122990001Y-95083333D01*
X122799524Y-95083333D01*
X122704286Y-95130952D01*
X122656667Y-95178571D01*
X122609048Y-95273809D01*
X124085239Y-94702380D02*
X123609048Y-94702380D01*
X123561429Y-95178571D01*
X123609048Y-95130952D01*
X123704286Y-95083333D01*
X123942381Y-95083333D01*
X124037620Y-95130952D01*
X124085239Y-95178571D01*
X124132858Y-95273809D01*
X124132858Y-95511904D01*
X124085239Y-95607142D01*
X124037620Y-95654761D01*
X123942381Y-95702380D01*
X123704286Y-95702380D01*
X123609048Y-95654761D01*
X123561429Y-95607142D01*
X124751905Y-94702380D02*
X124847143Y-94702380D01*
X124942381Y-94750000D01*
X124990001Y-94797619D01*
X125037620Y-94892857D01*
X125085239Y-95083333D01*
X125085239Y-95321428D01*
X125037620Y-95511904D01*
X124990001Y-95607142D01*
X124942381Y-95654761D01*
X124847143Y-95702380D01*
X124751905Y-95702380D01*
X124656667Y-95654761D01*
X124609048Y-95607142D01*
X124561429Y-95511904D01*
X124513810Y-95321428D01*
X124513810Y-95083333D01*
X124561429Y-94892857D01*
X124609048Y-94797619D01*
X124656667Y-94750000D01*
X124751905Y-94702380D01*
X125704286Y-94702380D02*
X125799524Y-94702380D01*
X125894762Y-94750000D01*
X125942381Y-94797619D01*
X125990001Y-94892857D01*
X126037620Y-95083333D01*
X126037620Y-95321428D01*
X125990001Y-95511904D01*
X125942381Y-95607142D01*
X125894762Y-95654761D01*
X125799524Y-95702380D01*
X125704286Y-95702380D01*
X125609048Y-95654761D01*
X125561429Y-95607142D01*
X125513810Y-95511904D01*
X125466191Y-95321428D01*
X125466191Y-95083333D01*
X125513810Y-94892857D01*
X125561429Y-94797619D01*
X125609048Y-94750000D01*
X125704286Y-94702380D01*
X126466191Y-95321428D02*
X127228096Y-95321428D01*
X128228096Y-95702380D02*
X127656667Y-95702380D01*
X127942381Y-95702380D02*
X127942381Y-94702380D01*
X127847143Y-94845238D01*
X127751905Y-94940476D01*
X127656667Y-94988095D01*
X129085239Y-94702380D02*
X128894762Y-94702380D01*
X128799524Y-94750000D01*
X128751905Y-94797619D01*
X128656667Y-94940476D01*
X128609048Y-95130952D01*
X128609048Y-95511904D01*
X128656667Y-95607142D01*
X128704286Y-95654761D01*
X128799524Y-95702380D01*
X128990001Y-95702380D01*
X129085239Y-95654761D01*
X129132858Y-95607142D01*
X129180477Y-95511904D01*
X129180477Y-95273809D01*
X129132858Y-95178571D01*
X129085239Y-95130952D01*
X128990001Y-95083333D01*
X128799524Y-95083333D01*
X128704286Y-95130952D01*
X128656667Y-95178571D01*
X128609048Y-95273809D01*
X129609048Y-95702380D02*
X129609048Y-94702380D01*
X129990001Y-94702380D01*
X130085239Y-94750000D01*
X130132858Y-94797619D01*
X130180477Y-94892857D01*
X130180477Y-95035714D01*
X130132858Y-95130952D01*
X130085239Y-95178571D01*
X129990001Y-95226190D01*
X129609048Y-95226190D01*
%TO.C,U6*%
X135564761Y-120467380D02*
X135088571Y-120467380D01*
X135088571Y-119467380D01*
X135802857Y-119467380D02*
X136469523Y-119467380D01*
X136040952Y-120467380D01*
X136993333Y-119895952D02*
X136898095Y-119848333D01*
X136850476Y-119800714D01*
X136802857Y-119705476D01*
X136802857Y-119657857D01*
X136850476Y-119562619D01*
X136898095Y-119515000D01*
X136993333Y-119467380D01*
X137183809Y-119467380D01*
X137279047Y-119515000D01*
X137326666Y-119562619D01*
X137374285Y-119657857D01*
X137374285Y-119705476D01*
X137326666Y-119800714D01*
X137279047Y-119848333D01*
X137183809Y-119895952D01*
X136993333Y-119895952D01*
X136898095Y-119943571D01*
X136850476Y-119991190D01*
X136802857Y-120086428D01*
X136802857Y-120276904D01*
X136850476Y-120372142D01*
X136898095Y-120419761D01*
X136993333Y-120467380D01*
X137183809Y-120467380D01*
X137279047Y-120419761D01*
X137326666Y-120372142D01*
X137374285Y-120276904D01*
X137374285Y-120086428D01*
X137326666Y-119991190D01*
X137279047Y-119943571D01*
X137183809Y-119895952D01*
X137993333Y-119467380D02*
X138088571Y-119467380D01*
X138183809Y-119515000D01*
X138231428Y-119562619D01*
X138279047Y-119657857D01*
X138326666Y-119848333D01*
X138326666Y-120086428D01*
X138279047Y-120276904D01*
X138231428Y-120372142D01*
X138183809Y-120419761D01*
X138088571Y-120467380D01*
X137993333Y-120467380D01*
X137898095Y-120419761D01*
X137850476Y-120372142D01*
X137802857Y-120276904D01*
X137755238Y-120086428D01*
X137755238Y-119848333D01*
X137802857Y-119657857D01*
X137850476Y-119562619D01*
X137898095Y-119515000D01*
X137993333Y-119467380D01*
X139231428Y-119467380D02*
X138755238Y-119467380D01*
X138707619Y-119943571D01*
X138755238Y-119895952D01*
X138850476Y-119848333D01*
X139088571Y-119848333D01*
X139183809Y-119895952D01*
X139231428Y-119943571D01*
X139279047Y-120038809D01*
X139279047Y-120276904D01*
X139231428Y-120372142D01*
X139183809Y-120419761D01*
X139088571Y-120467380D01*
X138850476Y-120467380D01*
X138755238Y-120419761D01*
X138707619Y-120372142D01*
X136398095Y-113066580D02*
X136398095Y-113876104D01*
X136445714Y-113971342D01*
X136493333Y-114018961D01*
X136588571Y-114066580D01*
X136779047Y-114066580D01*
X136874285Y-114018961D01*
X136921904Y-113971342D01*
X136969523Y-113876104D01*
X136969523Y-113066580D01*
X137874285Y-113066580D02*
X137683809Y-113066580D01*
X137588571Y-113114200D01*
X137540952Y-113161819D01*
X137445714Y-113304676D01*
X137398095Y-113495152D01*
X137398095Y-113876104D01*
X137445714Y-113971342D01*
X137493333Y-114018961D01*
X137588571Y-114066580D01*
X137779047Y-114066580D01*
X137874285Y-114018961D01*
X137921904Y-113971342D01*
X137969523Y-113876104D01*
X137969523Y-113638009D01*
X137921904Y-113542771D01*
X137874285Y-113495152D01*
X137779047Y-113447533D01*
X137588571Y-113447533D01*
X137493333Y-113495152D01*
X137445714Y-113542771D01*
X137398095Y-113638009D01*
%TO.C,U7*%
X39219523Y-87558571D02*
X39362380Y-87606190D01*
X39410000Y-87653809D01*
X39457619Y-87749047D01*
X39457619Y-87891904D01*
X39410000Y-87987142D01*
X39362380Y-88034761D01*
X39267142Y-88082380D01*
X38886190Y-88082380D01*
X38886190Y-87082380D01*
X39219523Y-87082380D01*
X39314761Y-87130000D01*
X39362380Y-87177619D01*
X39410000Y-87272857D01*
X39410000Y-87368095D01*
X39362380Y-87463333D01*
X39314761Y-87510952D01*
X39219523Y-87558571D01*
X38886190Y-87558571D01*
X40029047Y-88082380D02*
X39933809Y-88034761D01*
X39886190Y-87987142D01*
X39838571Y-87891904D01*
X39838571Y-87606190D01*
X39886190Y-87510952D01*
X39933809Y-87463333D01*
X40029047Y-87415714D01*
X40171904Y-87415714D01*
X40267142Y-87463333D01*
X40314761Y-87510952D01*
X40362380Y-87606190D01*
X40362380Y-87891904D01*
X40314761Y-87987142D01*
X40267142Y-88034761D01*
X40171904Y-88082380D01*
X40029047Y-88082380D01*
X40648095Y-87415714D02*
X41029047Y-87415714D01*
X40790952Y-87082380D02*
X40790952Y-87939523D01*
X40838571Y-88034761D01*
X40933809Y-88082380D01*
X41029047Y-88082380D01*
X41505238Y-88082380D02*
X41410000Y-88034761D01*
X41362380Y-87987142D01*
X41314761Y-87891904D01*
X41314761Y-87606190D01*
X41362380Y-87510952D01*
X41410000Y-87463333D01*
X41505238Y-87415714D01*
X41648095Y-87415714D01*
X41743333Y-87463333D01*
X41790952Y-87510952D01*
X41838571Y-87606190D01*
X41838571Y-87891904D01*
X41790952Y-87987142D01*
X41743333Y-88034761D01*
X41648095Y-88082380D01*
X41505238Y-88082380D01*
X42267142Y-87415714D02*
X42267142Y-88082380D01*
X42267142Y-87510952D02*
X42314761Y-87463333D01*
X42410000Y-87415714D01*
X42552857Y-87415714D01*
X42648095Y-87463333D01*
X42695714Y-87558571D01*
X42695714Y-88082380D01*
X42933809Y-88177619D02*
X43695714Y-88177619D01*
X43933809Y-88082380D02*
X43933809Y-87082380D01*
X44981428Y-88082380D02*
X44648095Y-87606190D01*
X44410000Y-88082380D02*
X44410000Y-87082380D01*
X44790952Y-87082380D01*
X44886190Y-87130000D01*
X44933809Y-87177619D01*
X44981428Y-87272857D01*
X44981428Y-87415714D01*
X44933809Y-87510952D01*
X44886190Y-87558571D01*
X44790952Y-87606190D01*
X44410000Y-87606190D01*
%TO.C,U8*%
X39219523Y-64698571D02*
X39362380Y-64746190D01*
X39410000Y-64793809D01*
X39457619Y-64889047D01*
X39457619Y-65031904D01*
X39410000Y-65127142D01*
X39362380Y-65174761D01*
X39267142Y-65222380D01*
X38886190Y-65222380D01*
X38886190Y-64222380D01*
X39219523Y-64222380D01*
X39314761Y-64270000D01*
X39362380Y-64317619D01*
X39410000Y-64412857D01*
X39410000Y-64508095D01*
X39362380Y-64603333D01*
X39314761Y-64650952D01*
X39219523Y-64698571D01*
X38886190Y-64698571D01*
X40029047Y-65222380D02*
X39933809Y-65174761D01*
X39886190Y-65127142D01*
X39838571Y-65031904D01*
X39838571Y-64746190D01*
X39886190Y-64650952D01*
X39933809Y-64603333D01*
X40029047Y-64555714D01*
X40171904Y-64555714D01*
X40267142Y-64603333D01*
X40314761Y-64650952D01*
X40362380Y-64746190D01*
X40362380Y-65031904D01*
X40314761Y-65127142D01*
X40267142Y-65174761D01*
X40171904Y-65222380D01*
X40029047Y-65222380D01*
X40648095Y-64555714D02*
X41029047Y-64555714D01*
X40790952Y-64222380D02*
X40790952Y-65079523D01*
X40838571Y-65174761D01*
X40933809Y-65222380D01*
X41029047Y-65222380D01*
X41505238Y-65222380D02*
X41410000Y-65174761D01*
X41362380Y-65127142D01*
X41314761Y-65031904D01*
X41314761Y-64746190D01*
X41362380Y-64650952D01*
X41410000Y-64603333D01*
X41505238Y-64555714D01*
X41648095Y-64555714D01*
X41743333Y-64603333D01*
X41790952Y-64650952D01*
X41838571Y-64746190D01*
X41838571Y-65031904D01*
X41790952Y-65127142D01*
X41743333Y-65174761D01*
X41648095Y-65222380D01*
X41505238Y-65222380D01*
X42267142Y-64555714D02*
X42267142Y-65222380D01*
X42267142Y-64650952D02*
X42314761Y-64603333D01*
X42410000Y-64555714D01*
X42552857Y-64555714D01*
X42648095Y-64603333D01*
X42695714Y-64698571D01*
X42695714Y-65222380D01*
X42933809Y-65317619D02*
X43695714Y-65317619D01*
X43933809Y-65222380D02*
X43933809Y-64222380D01*
X44981428Y-65222380D02*
X44648095Y-64746190D01*
X44410000Y-65222380D02*
X44410000Y-64222380D01*
X44790952Y-64222380D01*
X44886190Y-64270000D01*
X44933809Y-64317619D01*
X44981428Y-64412857D01*
X44981428Y-64555714D01*
X44933809Y-64650952D01*
X44886190Y-64698571D01*
X44790952Y-64746190D01*
X44410000Y-64746190D01*
%TO.C,U9*%
X103322380Y-48045238D02*
X102322380Y-48045238D01*
X103036666Y-47711904D01*
X102322380Y-47378571D01*
X103322380Y-47378571D01*
X103322380Y-46426190D02*
X103322380Y-46902380D01*
X102322380Y-46902380D01*
X102322380Y-46188095D02*
X103322380Y-45521428D01*
X102322380Y-45521428D02*
X103322380Y-46188095D01*
X103322380Y-45092857D02*
X103322380Y-44902380D01*
X103274761Y-44807142D01*
X103227142Y-44759523D01*
X103084285Y-44664285D01*
X102893809Y-44616666D01*
X102512857Y-44616666D01*
X102417619Y-44664285D01*
X102370000Y-44711904D01*
X102322380Y-44807142D01*
X102322380Y-44997619D01*
X102370000Y-45092857D01*
X102417619Y-45140476D01*
X102512857Y-45188095D01*
X102750952Y-45188095D01*
X102846190Y-45140476D01*
X102893809Y-45092857D01*
X102941428Y-44997619D01*
X102941428Y-44807142D01*
X102893809Y-44711904D01*
X102846190Y-44664285D01*
X102750952Y-44616666D01*
X102322380Y-43997619D02*
X102322380Y-43902380D01*
X102370000Y-43807142D01*
X102417619Y-43759523D01*
X102512857Y-43711904D01*
X102703333Y-43664285D01*
X102941428Y-43664285D01*
X103131904Y-43711904D01*
X103227142Y-43759523D01*
X103274761Y-43807142D01*
X103322380Y-43902380D01*
X103322380Y-43997619D01*
X103274761Y-44092857D01*
X103227142Y-44140476D01*
X103131904Y-44188095D01*
X102941428Y-44235714D01*
X102703333Y-44235714D01*
X102512857Y-44188095D01*
X102417619Y-44140476D01*
X102370000Y-44092857D01*
X102322380Y-43997619D01*
X102322380Y-42807142D02*
X102322380Y-42997619D01*
X102370000Y-43092857D01*
X102417619Y-43140476D01*
X102560476Y-43235714D01*
X102750952Y-43283333D01*
X103131904Y-43283333D01*
X103227142Y-43235714D01*
X103274761Y-43188095D01*
X103322380Y-43092857D01*
X103322380Y-42902380D01*
X103274761Y-42807142D01*
X103227142Y-42759523D01*
X103131904Y-42711904D01*
X102893809Y-42711904D01*
X102798571Y-42759523D01*
X102750952Y-42807142D01*
X102703333Y-42902380D01*
X102703333Y-43092857D01*
X102750952Y-43188095D01*
X102798571Y-43235714D01*
X102893809Y-43283333D01*
X103322380Y-41759523D02*
X103322380Y-42330952D01*
X103322380Y-42045238D02*
X102322380Y-42045238D01*
X102465238Y-42140476D01*
X102560476Y-42235714D01*
X102608095Y-42330952D01*
X102655714Y-40902380D02*
X103322380Y-40902380D01*
X102274761Y-41140476D02*
X102989047Y-41378571D01*
X102989047Y-40759523D01*
%TO.C,U10*%
X131214761Y-136135714D02*
X131262380Y-135992857D01*
X131262380Y-135754761D01*
X131214761Y-135659523D01*
X131167142Y-135611904D01*
X131071904Y-135564285D01*
X130976666Y-135564285D01*
X130881428Y-135611904D01*
X130833809Y-135659523D01*
X130786190Y-135754761D01*
X130738571Y-135945238D01*
X130690952Y-136040476D01*
X130643333Y-136088095D01*
X130548095Y-136135714D01*
X130452857Y-136135714D01*
X130357619Y-136088095D01*
X130310000Y-136040476D01*
X130262380Y-135945238D01*
X130262380Y-135707142D01*
X130310000Y-135564285D01*
X130262380Y-134945238D02*
X130262380Y-134754761D01*
X130310000Y-134659523D01*
X130405238Y-134564285D01*
X130595714Y-134516666D01*
X130929047Y-134516666D01*
X131119523Y-134564285D01*
X131214761Y-134659523D01*
X131262380Y-134754761D01*
X131262380Y-134945238D01*
X131214761Y-135040476D01*
X131119523Y-135135714D01*
X130929047Y-135183333D01*
X130595714Y-135183333D01*
X130405238Y-135135714D01*
X130310000Y-135040476D01*
X130262380Y-134945238D01*
X130262380Y-134088095D02*
X131071904Y-134088095D01*
X131167142Y-134040476D01*
X131214761Y-133992857D01*
X131262380Y-133897619D01*
X131262380Y-133707142D01*
X131214761Y-133611904D01*
X131167142Y-133564285D01*
X131071904Y-133516666D01*
X130262380Y-133516666D01*
X131262380Y-132469047D02*
X130786190Y-132802380D01*
X131262380Y-133040476D02*
X130262380Y-133040476D01*
X130262380Y-132659523D01*
X130310000Y-132564285D01*
X130357619Y-132516666D01*
X130452857Y-132469047D01*
X130595714Y-132469047D01*
X130690952Y-132516666D01*
X130738571Y-132564285D01*
X130786190Y-132659523D01*
X130786190Y-133040476D01*
X131167142Y-131469047D02*
X131214761Y-131516666D01*
X131262380Y-131659523D01*
X131262380Y-131754761D01*
X131214761Y-131897619D01*
X131119523Y-131992857D01*
X131024285Y-132040476D01*
X130833809Y-132088095D01*
X130690952Y-132088095D01*
X130500476Y-132040476D01*
X130405238Y-131992857D01*
X130310000Y-131897619D01*
X130262380Y-131754761D01*
X130262380Y-131659523D01*
X130310000Y-131516666D01*
X130357619Y-131469047D01*
X130738571Y-131040476D02*
X130738571Y-130707142D01*
X131262380Y-130564285D02*
X131262380Y-131040476D01*
X130262380Y-131040476D01*
X130262380Y-130564285D01*
%TO.C,C1*%
X119189523Y-110847142D02*
X119141904Y-110894761D01*
X118999047Y-110942380D01*
X118903809Y-110942380D01*
X118760952Y-110894761D01*
X118665714Y-110799523D01*
X118618095Y-110704285D01*
X118570476Y-110513809D01*
X118570476Y-110370952D01*
X118618095Y-110180476D01*
X118665714Y-110085238D01*
X118760952Y-109990000D01*
X118903809Y-109942380D01*
X118999047Y-109942380D01*
X119141904Y-109990000D01*
X119189523Y-110037619D01*
X119618095Y-110942380D02*
X119618095Y-109942380D01*
X119999047Y-109942380D01*
X120094285Y-109990000D01*
X120141904Y-110037619D01*
X120189523Y-110132857D01*
X120189523Y-110275714D01*
X120141904Y-110370952D01*
X120094285Y-110418571D01*
X119999047Y-110466190D01*
X119618095Y-110466190D01*
%TO.C,C2*%
X154749523Y-110847142D02*
X154701904Y-110894761D01*
X154559047Y-110942380D01*
X154463809Y-110942380D01*
X154320952Y-110894761D01*
X154225714Y-110799523D01*
X154178095Y-110704285D01*
X154130476Y-110513809D01*
X154130476Y-110370952D01*
X154178095Y-110180476D01*
X154225714Y-110085238D01*
X154320952Y-109990000D01*
X154463809Y-109942380D01*
X154559047Y-109942380D01*
X154701904Y-109990000D01*
X154749523Y-110037619D01*
X155178095Y-110942380D02*
X155178095Y-109942380D01*
X155559047Y-109942380D01*
X155654285Y-109990000D01*
X155701904Y-110037619D01*
X155749523Y-110132857D01*
X155749523Y-110275714D01*
X155701904Y-110370952D01*
X155654285Y-110418571D01*
X155559047Y-110466190D01*
X155178095Y-110466190D01*
%TO.C,U11*%
X128722380Y-47656190D02*
X127722380Y-47656190D01*
X127722380Y-47275238D01*
X127770000Y-47180000D01*
X127817619Y-47132380D01*
X127912857Y-47084761D01*
X128055714Y-47084761D01*
X128150952Y-47132380D01*
X128198571Y-47180000D01*
X128246190Y-47275238D01*
X128246190Y-47656190D01*
X128722380Y-46227619D02*
X128198571Y-46227619D01*
X128103333Y-46275238D01*
X128055714Y-46370476D01*
X128055714Y-46560952D01*
X128103333Y-46656190D01*
X128674761Y-46227619D02*
X128722380Y-46322857D01*
X128722380Y-46560952D01*
X128674761Y-46656190D01*
X128579523Y-46703809D01*
X128484285Y-46703809D01*
X128389047Y-46656190D01*
X128341428Y-46560952D01*
X128341428Y-46322857D01*
X128293809Y-46227619D01*
X128055714Y-45751428D02*
X128722380Y-45751428D01*
X128150952Y-45751428D02*
X128103333Y-45703809D01*
X128055714Y-45608571D01*
X128055714Y-45465714D01*
X128103333Y-45370476D01*
X128198571Y-45322857D01*
X128722380Y-45322857D01*
X128055714Y-44989523D02*
X128055714Y-44608571D01*
X127722380Y-44846666D02*
X128579523Y-44846666D01*
X128674761Y-44799047D01*
X128722380Y-44703809D01*
X128722380Y-44608571D01*
X128722380Y-43846666D02*
X128198571Y-43846666D01*
X128103333Y-43894285D01*
X128055714Y-43989523D01*
X128055714Y-44180000D01*
X128103333Y-44275238D01*
X128674761Y-43846666D02*
X128722380Y-43941904D01*
X128722380Y-44180000D01*
X128674761Y-44275238D01*
X128579523Y-44322857D01*
X128484285Y-44322857D01*
X128389047Y-44275238D01*
X128341428Y-44180000D01*
X128341428Y-43941904D01*
X128293809Y-43846666D01*
X128722380Y-43227619D02*
X128674761Y-43322857D01*
X128579523Y-43370476D01*
X127722380Y-43370476D01*
X128722380Y-42703809D02*
X128674761Y-42799047D01*
X128579523Y-42846666D01*
X127722380Y-42846666D01*
X128722380Y-41894285D02*
X128198571Y-41894285D01*
X128103333Y-41941904D01*
X128055714Y-42037142D01*
X128055714Y-42227619D01*
X128103333Y-42322857D01*
X128674761Y-41894285D02*
X128722380Y-41989523D01*
X128722380Y-42227619D01*
X128674761Y-42322857D01*
X128579523Y-42370476D01*
X128484285Y-42370476D01*
X128389047Y-42322857D01*
X128341428Y-42227619D01*
X128341428Y-41989523D01*
X128293809Y-41894285D01*
X128817619Y-41656190D02*
X128817619Y-40894285D01*
X128674761Y-40703809D02*
X128722380Y-40560952D01*
X128722380Y-40322857D01*
X128674761Y-40227619D01*
X128627142Y-40180000D01*
X128531904Y-40132380D01*
X128436666Y-40132380D01*
X128341428Y-40180000D01*
X128293809Y-40227619D01*
X128246190Y-40322857D01*
X128198571Y-40513333D01*
X128150952Y-40608571D01*
X128103333Y-40656190D01*
X128008095Y-40703809D01*
X127912857Y-40703809D01*
X127817619Y-40656190D01*
X127770000Y-40608571D01*
X127722380Y-40513333D01*
X127722380Y-40275238D01*
X127770000Y-40132380D01*
X128722380Y-39703809D02*
X127722380Y-39703809D01*
X127722380Y-39322857D01*
X127770000Y-39227619D01*
X127817619Y-39180000D01*
X127912857Y-39132380D01*
X128055714Y-39132380D01*
X128150952Y-39180000D01*
X128198571Y-39227619D01*
X128246190Y-39322857D01*
X128246190Y-39703809D01*
X128722380Y-38703809D02*
X127722380Y-38703809D01*
%TD*%
M02*
