%TF.GenerationSoftware,KiCad,Pcbnew,(5.1.6)-1*%
%TF.CreationDate,2020-07-17T12:23:20-05:00*%
%TF.ProjectId,Covid,436f7669-642e-46b6-9963-61645f706362,rev?*%
%TF.SameCoordinates,Original*%
%TF.FileFunction,Copper,L2,Bot*%
%TF.FilePolarity,Positive*%
%FSLAX46Y46*%
G04 Gerber Fmt 4.6, Leading zero omitted, Abs format (unit mm)*
G04 Created by KiCad (PCBNEW (5.1.6)-1) date 2020-07-17 12:23:20*
%MOMM*%
%LPD*%
G01*
G04 APERTURE LIST*
%TA.AperFunction,ComponentPad*%
%ADD10O,3.000000X1.750000*%
%TD*%
%TA.AperFunction,ComponentPad*%
%ADD11O,1.750000X3.000000*%
%TD*%
%TA.AperFunction,ComponentPad*%
%ADD12O,1.500000X2.500000*%
%TD*%
%TA.AperFunction,ComponentPad*%
%ADD13C,3.000000*%
%TD*%
%TA.AperFunction,ComponentPad*%
%ADD14R,1.050000X1.500000*%
%TD*%
%TA.AperFunction,ComponentPad*%
%ADD15C,1.600000*%
%TD*%
%TA.AperFunction,ComponentPad*%
%ADD16O,1.600000X1.600000*%
%TD*%
%TA.AperFunction,ComponentPad*%
%ADD17O,3.000000X2.000000*%
%TD*%
%TA.AperFunction,ComponentPad*%
%ADD18R,2.100000X2.100000*%
%TD*%
%TA.AperFunction,ComponentPad*%
%ADD19C,2.100000*%
%TD*%
%TA.AperFunction,ViaPad*%
%ADD20C,4.000000*%
%TD*%
%TA.AperFunction,ViaPad*%
%ADD21C,1.000000*%
%TD*%
%TA.AperFunction,Conductor*%
%ADD22C,1.200000*%
%TD*%
%TA.AperFunction,Conductor*%
%ADD23C,1.500000*%
%TD*%
%TA.AperFunction,Conductor*%
%ADD24C,1.000000*%
%TD*%
%TA.AperFunction,Conductor*%
%ADD25C,0.254000*%
%TD*%
G04 APERTURE END LIST*
D10*
%TO.P,U3,4*%
%TO.N,GND*%
X151130000Y-66040000D03*
%TO.P,U3,3*%
%TO.N,AUDIO-*%
X151130000Y-68580000D03*
%TO.P,U3,2*%
%TO.N,AUDIO+*%
X151130000Y-71120000D03*
%TO.P,U3,1*%
%TO.N,VCC_12V*%
X151130000Y-73660000D03*
%TD*%
%TO.P,U4,1*%
%TO.N,Net-(U4-Pad1)*%
X64770000Y-120650000D03*
%TO.P,U4,2*%
%TO.N,Net-(U4-Pad2)*%
X64770000Y-123190000D03*
%TO.P,U4,3*%
%TO.N,Net-(U4-Pad3)*%
X64770000Y-125730000D03*
%TO.P,U4,4*%
%TO.N,Net-(U4-Pad4)*%
X64770000Y-128270000D03*
%TO.P,U4,5*%
%TO.N,VCC_5V*%
X64770000Y-130810000D03*
%TO.P,U4,6*%
%TO.N,Net-(U4-Pad6)*%
X77470000Y-130810000D03*
%TO.P,U4,7*%
%TO.N,GND*%
X77470000Y-128270000D03*
%TO.P,U4,8*%
%TO.N,RX_TX_BAR*%
X77470000Y-125730000D03*
%TO.P,U4,9*%
%TO.N,TX_RX_BAR*%
X77470000Y-123190000D03*
%TO.P,U4,10*%
%TO.N,Net-(U4-Pad10)*%
X77470000Y-120650000D03*
%TD*%
%TO.P,U1,1*%
%TO.N,VCC_3V*%
X63500000Y-57150000D03*
%TO.P,U1,2*%
%TO.N,Net-(U1-Pad2)*%
X63500000Y-59690000D03*
%TO.P,U1,3*%
%TO.N,Net-(U1-Pad3)*%
X63500000Y-62230000D03*
%TO.P,U1,4*%
%TO.N,Net-(U1-Pad4)*%
X63500000Y-64770000D03*
%TO.P,U1,5*%
%TO.N,Net-(U1-Pad5)*%
X63500000Y-67310000D03*
%TO.P,U1,6*%
%TO.N,Net-(U1-Pad6)*%
X63500000Y-69850000D03*
%TO.P,U1,7*%
%TO.N,Net-(U1-Pad7)*%
X63500000Y-72390000D03*
%TO.P,U1,8*%
%TO.N,SIRENA*%
X63500000Y-74930000D03*
%TO.P,U1,9*%
%TO.N,LASER*%
X63500000Y-77470000D03*
%TO.P,U1,10*%
%TO.N,NO*%
X63500000Y-80010000D03*
%TO.P,U1,11*%
%TO.N,SI*%
X63500000Y-82550000D03*
%TO.P,U1,12*%
%TO.N,Net-(U1-Pad12)*%
X63500000Y-85090000D03*
%TO.P,U1,13*%
%TO.N,Net-(U1-Pad13)*%
X63500000Y-87630000D03*
%TO.P,U1,14*%
%TO.N,GND*%
X63500000Y-90170000D03*
%TO.P,U1,15*%
%TO.N,Net-(U1-Pad15)*%
X63500000Y-92710000D03*
%TO.P,U1,16*%
%TO.N,TX_TAR_SON*%
X63500000Y-95250000D03*
%TO.P,U1,17*%
%TO.N,RX_TAR_SON*%
X63500000Y-97790000D03*
%TO.P,U1,18*%
%TO.N,Net-(U1-Pad18)*%
X63500000Y-100330000D03*
%TO.P,U1,19*%
%TO.N,VCC_5V*%
X63500000Y-102870000D03*
%TO.P,U1,20*%
%TO.N,Net-(U1-Pad20)*%
X89200000Y-102870000D03*
%TO.P,U1,21*%
%TO.N,Net-(U1-Pad21)*%
X89200000Y-100330000D03*
%TO.P,U1,22*%
%TO.N,Net-(U1-Pad22)*%
X89200000Y-97790000D03*
%TO.P,U1,23*%
%TO.N,CS*%
X89200000Y-95250000D03*
%TO.P,U1,24*%
%TO.N,RESET*%
X89200000Y-92710000D03*
%TO.P,U1,25*%
%TO.N,Net-(U1-Pad25)*%
X89200000Y-90170000D03*
%TO.P,U1,26*%
%TO.N,DC*%
X89200000Y-87630000D03*
%TO.P,U1,27*%
%TO.N,RX_TX_BAR*%
X89200000Y-85090000D03*
%TO.P,U1,28*%
%TO.N,TX_RX_BAR*%
X89200000Y-82550000D03*
%TO.P,U1,29*%
%TO.N,Net-(U1-Pad29)*%
X89200000Y-80010000D03*
%TO.P,U1,30*%
%TO.N,RX_SCK*%
X89200000Y-77470000D03*
%TO.P,U1,31*%
%TO.N,TX_MISO*%
X89200000Y-74930000D03*
%TO.P,U1,32*%
%TO.N,GND*%
X89200000Y-72390000D03*
%TO.P,U1,33*%
%TO.N,SDA*%
X89200000Y-69850000D03*
%TO.P,U1,34*%
%TO.N,Net-(U1-Pad34)*%
X89200000Y-67310000D03*
%TO.P,U1,35*%
%TO.N,Net-(U1-Pad35)*%
X89200000Y-64770000D03*
%TO.P,U1,36*%
%TO.N,SCL*%
X89200000Y-62230000D03*
%TO.P,U1,37*%
%TO.N,MOSI*%
X89200000Y-59690000D03*
%TO.P,U1,38*%
%TO.N,GND*%
X89200000Y-57150000D03*
%TD*%
D11*
%TO.P,U2,1*%
%TO.N,LASER*%
X91440000Y-45720000D03*
%TO.P,U2,2*%
%TO.N,GND*%
X93980000Y-45720000D03*
%TD*%
D10*
%TO.P,U5,1*%
%TO.N,Net-(U5-Pad1)*%
X126760001Y-92710000D03*
%TO.P,U5,2*%
%TO.N,Net-(U5-Pad2)*%
X126760001Y-90170000D03*
%TO.P,U5,3*%
%TO.N,Net-(U5-Pad3)*%
X126760001Y-87630000D03*
%TO.P,U5,4*%
%TO.N,Net-(U5-Pad4)*%
X126760001Y-85090000D03*
%TO.P,U5,5*%
%TO.N,Net-(U5-Pad5)*%
X126760001Y-82550000D03*
%TO.P,U5,6*%
%TO.N,Net-(U5-Pad6)*%
X126760001Y-80010000D03*
%TO.P,U5,7*%
%TO.N,Net-(U5-Pad7)*%
X126760001Y-77470000D03*
%TO.P,U5,8*%
%TO.N,Net-(U5-Pad8)*%
X126760001Y-74930000D03*
%TO.P,U5,9*%
%TO.N,TX_RX_AUDIO*%
X111010001Y-74930000D03*
%TO.P,U5,10*%
%TO.N,RX_TX_AUDIO*%
X111010001Y-77470000D03*
%TO.P,U5,11*%
%TO.N,GND*%
X111010001Y-80010000D03*
%TO.P,U5,12*%
%TO.N,VCC_5V*%
X111010001Y-82550000D03*
%TO.P,U5,13*%
%TO.N,Net-(U5-Pad13)*%
X111010001Y-85090000D03*
%TO.P,U5,14*%
%TO.N,Net-(U5-Pad14)*%
X111010001Y-87630000D03*
%TO.P,U5,15*%
%TO.N,AUDIO-*%
X111010001Y-90170000D03*
%TO.P,U5,16*%
%TO.N,AUDIO+*%
X111010001Y-92710000D03*
%TD*%
%TO.P,U7,1*%
%TO.N,VCC_12V*%
X40640000Y-91440000D03*
%TO.P,U7,2*%
%TO.N,GND*%
X40640000Y-93980000D03*
%TO.P,U7,3*%
X40640000Y-96520000D03*
%TO.P,U7,4*%
%TO.N,SI*%
X40640000Y-99060000D03*
%TO.P,U7,5*%
%TO.N,GND*%
X40640000Y-101600000D03*
%TD*%
%TO.P,U8,5*%
%TO.N,GND*%
X40640000Y-78740000D03*
%TO.P,U8,4*%
%TO.N,NO*%
X40640000Y-76200000D03*
%TO.P,U8,3*%
%TO.N,GND*%
X40640000Y-73660000D03*
%TO.P,U8,2*%
X40640000Y-71120000D03*
%TO.P,U8,1*%
%TO.N,VCC_12V*%
X40640000Y-68580000D03*
%TD*%
D11*
%TO.P,U9,1*%
%TO.N,VCC_3V*%
X105410000Y-45720000D03*
%TO.P,U9,2*%
%TO.N,GND*%
X107950000Y-45720000D03*
%TO.P,U9,3*%
%TO.N,SCL*%
X110490000Y-45720000D03*
%TO.P,U9,4*%
%TO.N,SDA*%
X113030000Y-45720000D03*
%TD*%
D12*
%TO.P,U11,1*%
%TO.N,MISO*%
X132080000Y-45720000D03*
%TO.P,U11,2*%
%TO.N,VCC_5V*%
X134620000Y-45720000D03*
%TO.P,U11,3*%
%TO.N,SCK*%
X137160000Y-45720000D03*
%TO.P,U11,4*%
%TO.N,MOSI*%
X139700000Y-45720000D03*
%TO.P,U11,5*%
%TO.N,DC*%
X142240000Y-45720000D03*
%TO.P,U11,6*%
%TO.N,RESET*%
X144780000Y-45720000D03*
%TO.P,U11,7*%
%TO.N,CS*%
X147320000Y-45720000D03*
%TO.P,U11,8*%
%TO.N,GND*%
X149860000Y-45720000D03*
%TO.P,U11,9*%
%TO.N,VCC_3V*%
X152400000Y-45720000D03*
%TD*%
D13*
%TO.P,U10,1*%
%TO.N,VCC_12V*%
X160020000Y-139700000D03*
%TO.P,U10,2*%
%TO.N,GND*%
X168870000Y-139700000D03*
%TD*%
%TO.P,Q1,2*%
%TO.N,Net-(Q1-Pad2)*%
%TA.AperFunction,ComponentPad*%
G36*
G01*
X111015000Y-125242500D02*
X111015000Y-126217500D01*
G75*
G02*
X110752500Y-126480000I-262500J0D01*
G01*
X110227500Y-126480000D01*
G75*
G02*
X109965000Y-126217500I0J262500D01*
G01*
X109965000Y-125242500D01*
G75*
G02*
X110227500Y-124980000I262500J0D01*
G01*
X110752500Y-124980000D01*
G75*
G02*
X111015000Y-125242500I0J-262500D01*
G01*
G37*
%TD.AperFunction*%
%TO.P,Q1,3*%
%TO.N,Net-(Q1-Pad3)*%
%TA.AperFunction,ComponentPad*%
G36*
G01*
X109745000Y-125242500D02*
X109745000Y-126217500D01*
G75*
G02*
X109482500Y-126480000I-262500J0D01*
G01*
X108957500Y-126480000D01*
G75*
G02*
X108695000Y-126217500I0J262500D01*
G01*
X108695000Y-125242500D01*
G75*
G02*
X108957500Y-124980000I262500J0D01*
G01*
X109482500Y-124980000D01*
G75*
G02*
X109745000Y-125242500I0J-262500D01*
G01*
G37*
%TD.AperFunction*%
D14*
%TO.P,Q1,1*%
%TO.N,GND*%
X111760000Y-125730000D03*
%TD*%
D15*
%TO.P,R1,1*%
%TO.N,Net-(Q1-Pad2)*%
X110490000Y-118110000D03*
D16*
%TO.P,R1,2*%
%TO.N,SIRENA*%
X110490000Y-115570000D03*
%TD*%
D17*
%TO.P,U6,1*%
%TO.N,VCC_12V*%
X167640000Y-124460000D03*
%TO.P,U6,2*%
%TO.N,GND*%
X167640000Y-107315000D03*
%TO.P,U6,3*%
%TO.N,VCC_5V*%
X128143000Y-124460000D03*
%TO.P,U6,4*%
%TO.N,GND*%
X128143000Y-107315000D03*
%TD*%
D11*
%TO.P,U12,1*%
%TO.N,VCC_12V*%
X128270000Y-139700000D03*
%TO.P,U12,2*%
%TO.N,Net-(Q1-Pad3)*%
X125730000Y-139700000D03*
%TD*%
D18*
%TO.P,J1,1*%
%TO.N,MISO*%
X119380000Y-59690000D03*
D19*
%TO.P,J1,2*%
%TO.N,TX_MISO*%
X121920000Y-59690000D03*
%TO.P,J1,3*%
%TO.N,TX_RX_AUDIO*%
X124460000Y-59690000D03*
%TO.P,J1,4*%
%TO.N,TX_TAR_SON*%
X127000000Y-59690000D03*
%TD*%
%TO.P,J2,4*%
%TO.N,RX_TAR_SON*%
X143510000Y-59690000D03*
%TO.P,J2,3*%
%TO.N,RX_TX_AUDIO*%
X140970000Y-59690000D03*
%TO.P,J2,2*%
%TO.N,RX_SCK*%
X138430000Y-59690000D03*
D18*
%TO.P,J2,1*%
%TO.N,SCK*%
X135890000Y-59690000D03*
%TD*%
D16*
%TO.P,R2,2*%
%TO.N,VCC_3V*%
X96520000Y-53340000D03*
D15*
%TO.P,R2,1*%
%TO.N,SCL*%
X99060000Y-53340000D03*
%TD*%
%TO.P,R3,1*%
%TO.N,SDA*%
X107950000Y-38100000D03*
D16*
%TO.P,R3,2*%
%TO.N,VCC_3V*%
X105410000Y-38100000D03*
%TD*%
D18*
%TO.P,U13,1*%
%TO.N,VCC_3V*%
X125730000Y-45720000D03*
D19*
%TO.P,U13,2*%
%TO.N,GND*%
X123190000Y-45720000D03*
%TO.P,U13,3*%
%TO.N,SCL*%
X120650000Y-45720000D03*
%TO.P,U13,4*%
%TO.N,SDA*%
X118110000Y-45720000D03*
%TD*%
D20*
%TO.N,GND*%
X177800000Y-41910000D03*
X35560000Y-137160000D03*
X35560000Y-41910000D03*
X177800000Y-137160000D03*
D21*
%TO.N,VCC_5V*%
X120650000Y-124460000D03*
X148590000Y-39370000D03*
%TO.N,MOSI*%
X138430000Y-55880000D03*
%TO.N,TX_TAR_SON*%
X127000000Y-53340000D03*
%TD*%
D22*
%TO.N,VCC_3V*%
X63500000Y-57150000D02*
X74930000Y-57150000D01*
X74930000Y-57150000D02*
X91440000Y-40640000D01*
X91440000Y-40640000D02*
X102870000Y-40640000D01*
X105410000Y-43180000D02*
X105410000Y-45720000D01*
X102870000Y-40640000D02*
X105410000Y-43180000D01*
X105410000Y-38100000D02*
X102870000Y-40640000D01*
X96520000Y-53340000D02*
X96520000Y-52070000D01*
X96520000Y-52070000D02*
X99060000Y-49530000D01*
X99060000Y-49530000D02*
X104140000Y-49530000D01*
X105410000Y-48260000D02*
X105410000Y-45720000D01*
X104140000Y-49530000D02*
X105410000Y-48260000D01*
X152400000Y-45720000D02*
X152400000Y-40640000D01*
X152400000Y-40640000D02*
X148590000Y-36830000D01*
X148590000Y-36830000D02*
X132080000Y-36830000D01*
X125730000Y-43180000D02*
X125730000Y-45720000D01*
X132080000Y-36830000D02*
X125730000Y-43180000D01*
%TO.N,LASER*%
X91440000Y-45720000D02*
X91440000Y-49530000D01*
X91440000Y-49530000D02*
X72390000Y-68580000D01*
X72390000Y-68580000D02*
X72390000Y-73660000D01*
X68580000Y-77470000D02*
X63500000Y-77470000D01*
X72390000Y-73660000D02*
X68580000Y-77470000D01*
%TO.N,NO*%
X40640000Y-76200000D02*
X52070000Y-76200000D01*
X55880000Y-80010000D02*
X63500000Y-80010000D01*
X52070000Y-76200000D02*
X55880000Y-80010000D01*
%TO.N,SI*%
X59850000Y-82550000D02*
X63500000Y-82550000D01*
X43340000Y-99060000D02*
X59850000Y-82550000D01*
X40640000Y-99060000D02*
X43340000Y-99060000D01*
D23*
%TO.N,VCC_5V*%
X128143000Y-124460000D02*
X120650000Y-124460000D01*
X120650000Y-124460000D02*
X118110000Y-121920000D01*
X118110000Y-121920000D02*
X118110000Y-85090000D01*
X115570000Y-82550000D02*
X111010001Y-82550000D01*
X118110000Y-85090000D02*
X115570000Y-82550000D01*
D22*
X64770000Y-130810000D02*
X59690000Y-130810000D01*
X59690000Y-130810000D02*
X57150000Y-128270000D01*
X57150000Y-128270000D02*
X57150000Y-104140000D01*
X58420000Y-102870000D02*
X63500000Y-102870000D01*
X57150000Y-104140000D02*
X58420000Y-102870000D01*
D24*
X134620000Y-45720000D02*
X134620000Y-41910000D01*
X134620000Y-41910000D02*
X137160000Y-39370000D01*
X137160000Y-39370000D02*
X148590000Y-39370000D01*
X148590000Y-39370000D02*
X148590000Y-39370000D01*
D22*
%TO.N,RX_TX_BAR*%
X89200000Y-85090000D02*
X87630000Y-85090000D01*
X87630000Y-85090000D02*
X86360000Y-86360000D01*
X86360000Y-86360000D02*
X86360000Y-121920000D01*
X82550000Y-125730000D02*
X77470000Y-125730000D01*
X86360000Y-121920000D02*
X82550000Y-125730000D01*
%TO.N,TX_RX_BAR*%
X77470000Y-123190000D02*
X80010000Y-123190000D01*
X80010000Y-123190000D02*
X83820000Y-119380000D01*
X86500000Y-82550000D02*
X89200000Y-82550000D01*
X83820000Y-85230000D02*
X86500000Y-82550000D01*
X83820000Y-119380000D02*
X83820000Y-85230000D01*
%TO.N,RX_TX_AUDIO*%
X140970000Y-59690000D02*
X140970000Y-63500000D01*
X140970000Y-63500000D02*
X138430000Y-66040000D01*
X138430000Y-66040000D02*
X125730000Y-66040000D01*
X125730000Y-66040000D02*
X114300000Y-77470000D01*
X114300000Y-77470000D02*
X111010001Y-77470000D01*
%TO.N,TX_RX_AUDIO*%
X111010001Y-74930000D02*
X113030000Y-74930000D01*
X124460000Y-63500000D02*
X124460000Y-59690000D01*
X113030000Y-74930000D02*
X124460000Y-63500000D01*
%TO.N,SDA*%
X113030000Y-45720000D02*
X113030000Y-49530000D01*
X92710000Y-69850000D02*
X89200000Y-69850000D01*
X113030000Y-49530000D02*
X92710000Y-69850000D01*
X113030000Y-43180000D02*
X113030000Y-45720000D01*
X107950000Y-38100000D02*
X113030000Y-43180000D01*
%TO.N,SCL*%
X89200000Y-62230000D02*
X97790000Y-62230000D01*
X110490000Y-49530000D02*
X110490000Y-45720000D01*
X97790000Y-62230000D02*
X110490000Y-49530000D01*
X106680000Y-53340000D02*
X110490000Y-49530000D01*
X99060000Y-53340000D02*
X106680000Y-53340000D01*
D23*
%TO.N,VCC_12V*%
X160020000Y-139700000D02*
X160020000Y-128270000D01*
X163830000Y-124460000D02*
X167640000Y-124460000D01*
X160020000Y-128270000D02*
X163830000Y-124460000D01*
X154940000Y-73660000D02*
X151130000Y-73660000D01*
X158750000Y-77470000D02*
X154940000Y-73660000D01*
X163830000Y-124460000D02*
X158750000Y-119380000D01*
X158750000Y-119380000D02*
X158750000Y-77470000D01*
X128270000Y-139700000D02*
X128270000Y-135890000D01*
X128270000Y-135890000D02*
X130810000Y-133350000D01*
X130810000Y-133350000D02*
X140970000Y-133350000D01*
X147320000Y-139700000D02*
X160020000Y-139700000D01*
X140970000Y-133350000D02*
X147320000Y-139700000D01*
D22*
X40640000Y-68580000D02*
X36830000Y-68580000D01*
X36830000Y-68580000D02*
X34290000Y-71120000D01*
X34290000Y-71120000D02*
X34290000Y-88900000D01*
X36830000Y-91440000D02*
X40640000Y-91440000D01*
X34290000Y-88900000D02*
X36830000Y-91440000D01*
X36830000Y-91440000D02*
X34290000Y-93980000D01*
X34290000Y-93980000D02*
X34290000Y-113030000D01*
X34290000Y-113030000D02*
X64770000Y-143510000D01*
X128270000Y-142400000D02*
X128270000Y-139700000D01*
X127160000Y-143510000D02*
X128270000Y-142400000D01*
X64770000Y-143510000D02*
X127160000Y-143510000D01*
%TO.N,SCK*%
X135890000Y-59690000D02*
X135890000Y-52070000D01*
X137160000Y-50800000D02*
X137160000Y-45720000D01*
X135890000Y-52070000D02*
X137160000Y-50800000D01*
%TO.N,MISO*%
X119380000Y-59690000D02*
X119380000Y-55880000D01*
X119380000Y-55880000D02*
X124460000Y-50800000D01*
X124460000Y-50800000D02*
X129540000Y-50800000D01*
X132080000Y-48260000D02*
X132080000Y-45720000D01*
X129540000Y-50800000D02*
X132080000Y-48260000D01*
%TO.N,MOSI*%
X139700000Y-45720000D02*
X139700000Y-54610000D01*
X139700000Y-54610000D02*
X138430000Y-55880000D01*
D24*
%TO.N,Net-(Q1-Pad2)*%
X110490000Y-125730000D02*
X110490000Y-118110000D01*
%TO.N,Net-(Q1-Pad3)*%
X109220000Y-125730000D02*
X109220000Y-128270000D01*
X109220000Y-128270000D02*
X114300000Y-133350000D01*
X114300000Y-133350000D02*
X123190000Y-133350000D01*
X125730000Y-135890000D02*
X125730000Y-139700000D01*
X123190000Y-133350000D02*
X125730000Y-135890000D01*
D22*
%TO.N,TX_MISO*%
X89200000Y-74930000D02*
X100330000Y-74930000D01*
X100330000Y-74930000D02*
X111760000Y-63500000D01*
X111760000Y-63500000D02*
X120650000Y-63500000D01*
X121920000Y-62230000D02*
X121920000Y-59690000D01*
X120650000Y-63500000D02*
X121920000Y-62230000D01*
%TO.N,TX_TAR_SON*%
X127000000Y-59690000D02*
X127000000Y-53340000D01*
%TD*%
D25*
%TO.N,GND*%
G36*
X131390551Y-35798167D02*
G01*
X131202498Y-35952498D01*
X131163826Y-35999620D01*
X124899625Y-42263821D01*
X124852498Y-42302498D01*
X124698167Y-42490552D01*
X124583489Y-42705100D01*
X124583489Y-42705101D01*
X124512870Y-42937898D01*
X124489025Y-43180000D01*
X124495000Y-43240666D01*
X124495000Y-44062546D01*
X124435820Y-44080498D01*
X124325506Y-44139463D01*
X124228815Y-44218815D01*
X124149463Y-44315506D01*
X124090498Y-44425820D01*
X124054188Y-44545518D01*
X124041928Y-44670000D01*
X124041928Y-46770000D01*
X124054188Y-46894482D01*
X124090498Y-47014180D01*
X124149463Y-47124494D01*
X124228815Y-47221185D01*
X124325506Y-47300537D01*
X124435820Y-47359502D01*
X124555518Y-47395812D01*
X124680000Y-47408072D01*
X126780000Y-47408072D01*
X126904482Y-47395812D01*
X127024180Y-47359502D01*
X127134494Y-47300537D01*
X127231185Y-47221185D01*
X127310537Y-47124494D01*
X127369502Y-47014180D01*
X127405812Y-46894482D01*
X127418072Y-46770000D01*
X127418072Y-44670000D01*
X127405812Y-44545518D01*
X127369502Y-44425820D01*
X127310537Y-44315506D01*
X127231185Y-44218815D01*
X127134494Y-44139463D01*
X127024180Y-44080498D01*
X126965000Y-44062546D01*
X126965000Y-43691553D01*
X132591554Y-38065000D01*
X148078447Y-38065000D01*
X148248447Y-38235000D01*
X137215741Y-38235000D01*
X137159999Y-38229510D01*
X137104257Y-38235000D01*
X137104248Y-38235000D01*
X136937501Y-38251423D01*
X136723553Y-38316324D01*
X136526377Y-38421716D01*
X136353551Y-38563551D01*
X136318009Y-38606859D01*
X133856860Y-41068009D01*
X133813552Y-41103551D01*
X133671717Y-41276377D01*
X133643350Y-41329448D01*
X133566324Y-41473554D01*
X133501423Y-41687502D01*
X133479509Y-41910000D01*
X133485001Y-41965761D01*
X133485000Y-44419814D01*
X133462843Y-44446813D01*
X133350000Y-44657927D01*
X133237157Y-44446812D01*
X133064080Y-44235919D01*
X132853187Y-44062843D01*
X132612580Y-43934236D01*
X132351506Y-43855040D01*
X132080000Y-43828299D01*
X131808493Y-43855040D01*
X131547419Y-43934236D01*
X131306812Y-44062843D01*
X131095919Y-44235920D01*
X130922843Y-44446813D01*
X130794236Y-44687420D01*
X130715040Y-44948494D01*
X130695000Y-45151964D01*
X130695000Y-46288037D01*
X130715040Y-46491507D01*
X130794236Y-46752581D01*
X130845001Y-46847555D01*
X130845000Y-47748446D01*
X129028447Y-49565000D01*
X124520665Y-49565000D01*
X124460000Y-49559025D01*
X124399335Y-49565000D01*
X124217898Y-49582870D01*
X123985099Y-49653489D01*
X123770551Y-49768167D01*
X123582498Y-49922498D01*
X123543826Y-49969620D01*
X118549621Y-54963826D01*
X118502499Y-55002498D01*
X118348168Y-55190551D01*
X118267016Y-55342376D01*
X118233489Y-55405101D01*
X118162870Y-55637898D01*
X118139025Y-55880000D01*
X118145001Y-55940675D01*
X118145000Y-58032546D01*
X118085820Y-58050498D01*
X117975506Y-58109463D01*
X117878815Y-58188815D01*
X117799463Y-58285506D01*
X117740498Y-58395820D01*
X117704188Y-58515518D01*
X117691928Y-58640000D01*
X117691928Y-60740000D01*
X117704188Y-60864482D01*
X117740498Y-60984180D01*
X117799463Y-61094494D01*
X117878815Y-61191185D01*
X117975506Y-61270537D01*
X118085820Y-61329502D01*
X118205518Y-61365812D01*
X118330000Y-61378072D01*
X120430000Y-61378072D01*
X120554482Y-61365812D01*
X120674180Y-61329502D01*
X120685000Y-61323718D01*
X120685000Y-61718446D01*
X120138447Y-62265000D01*
X111820664Y-62265000D01*
X111759999Y-62259025D01*
X111517897Y-62282870D01*
X111492201Y-62290665D01*
X111285099Y-62353489D01*
X111070551Y-62468167D01*
X110882498Y-62622498D01*
X110843826Y-62669620D01*
X99818447Y-73695000D01*
X90700375Y-73695000D01*
X90667970Y-73668406D01*
X90405648Y-73528192D01*
X90121012Y-73441849D01*
X89899178Y-73420000D01*
X88500822Y-73420000D01*
X88278988Y-73441849D01*
X87994352Y-73528192D01*
X87732030Y-73668406D01*
X87502103Y-73857103D01*
X87313406Y-74087030D01*
X87173192Y-74349352D01*
X87086849Y-74633988D01*
X87057694Y-74930000D01*
X87086849Y-75226012D01*
X87173192Y-75510648D01*
X87313406Y-75772970D01*
X87502103Y-76002897D01*
X87732030Y-76191594D01*
X87747757Y-76200000D01*
X87732030Y-76208406D01*
X87502103Y-76397103D01*
X87313406Y-76627030D01*
X87173192Y-76889352D01*
X87086849Y-77173988D01*
X87057694Y-77470000D01*
X87086849Y-77766012D01*
X87173192Y-78050648D01*
X87313406Y-78312970D01*
X87502103Y-78542897D01*
X87732030Y-78731594D01*
X87747757Y-78740000D01*
X87732030Y-78748406D01*
X87502103Y-78937103D01*
X87313406Y-79167030D01*
X87173192Y-79429352D01*
X87086849Y-79713988D01*
X87057694Y-80010000D01*
X87086849Y-80306012D01*
X87173192Y-80590648D01*
X87313406Y-80852970D01*
X87502103Y-81082897D01*
X87732030Y-81271594D01*
X87747757Y-81280000D01*
X87732030Y-81288406D01*
X87699625Y-81315000D01*
X86560654Y-81315000D01*
X86499999Y-81309026D01*
X86439344Y-81315000D01*
X86439335Y-81315000D01*
X86257898Y-81332870D01*
X86025099Y-81403489D01*
X85810551Y-81518167D01*
X85622498Y-81672498D01*
X85583826Y-81719620D01*
X82989621Y-84313826D01*
X82942499Y-84352498D01*
X82788168Y-84540551D01*
X82673490Y-84755099D01*
X82673489Y-84755101D01*
X82602870Y-84987898D01*
X82579025Y-85230000D01*
X82585001Y-85290675D01*
X82585000Y-118868446D01*
X79498447Y-121955000D01*
X78970375Y-121955000D01*
X78937970Y-121928406D01*
X78922243Y-121920000D01*
X78937970Y-121911594D01*
X79167897Y-121722897D01*
X79356594Y-121492970D01*
X79496808Y-121230648D01*
X79583151Y-120946012D01*
X79612306Y-120650000D01*
X79583151Y-120353988D01*
X79496808Y-120069352D01*
X79356594Y-119807030D01*
X79167897Y-119577103D01*
X78937970Y-119388406D01*
X78675648Y-119248192D01*
X78391012Y-119161849D01*
X78169178Y-119140000D01*
X76770822Y-119140000D01*
X76548988Y-119161849D01*
X76264352Y-119248192D01*
X76002030Y-119388406D01*
X75772103Y-119577103D01*
X75583406Y-119807030D01*
X75443192Y-120069352D01*
X75356849Y-120353988D01*
X75327694Y-120650000D01*
X75356849Y-120946012D01*
X75443192Y-121230648D01*
X75583406Y-121492970D01*
X75772103Y-121722897D01*
X76002030Y-121911594D01*
X76017757Y-121920000D01*
X76002030Y-121928406D01*
X75772103Y-122117103D01*
X75583406Y-122347030D01*
X75443192Y-122609352D01*
X75356849Y-122893988D01*
X75327694Y-123190000D01*
X75356849Y-123486012D01*
X75443192Y-123770648D01*
X75583406Y-124032970D01*
X75772103Y-124262897D01*
X76002030Y-124451594D01*
X76017757Y-124460000D01*
X76002030Y-124468406D01*
X75772103Y-124657103D01*
X75583406Y-124887030D01*
X75443192Y-125149352D01*
X75356849Y-125433988D01*
X75327694Y-125730000D01*
X75356849Y-126026012D01*
X75443192Y-126310648D01*
X75583406Y-126572970D01*
X75772103Y-126802897D01*
X76002030Y-126991594D01*
X76264352Y-127131808D01*
X76548988Y-127218151D01*
X76770822Y-127240000D01*
X78169178Y-127240000D01*
X78391012Y-127218151D01*
X78675648Y-127131808D01*
X78937970Y-126991594D01*
X78970375Y-126965000D01*
X82489335Y-126965000D01*
X82550000Y-126970975D01*
X82610665Y-126965000D01*
X82792102Y-126947130D01*
X83024901Y-126876511D01*
X83239449Y-126761833D01*
X83427502Y-126607502D01*
X83466178Y-126560375D01*
X87190380Y-122836174D01*
X87237502Y-122797502D01*
X87391833Y-122609449D01*
X87506511Y-122394901D01*
X87577130Y-122162102D01*
X87595000Y-121980665D01*
X87600975Y-121920000D01*
X87595000Y-121859335D01*
X87595000Y-104019136D01*
X87732030Y-104131594D01*
X87994352Y-104271808D01*
X88278988Y-104358151D01*
X88500822Y-104380000D01*
X89899178Y-104380000D01*
X90121012Y-104358151D01*
X90405648Y-104271808D01*
X90667970Y-104131594D01*
X90897897Y-103942897D01*
X91086594Y-103712970D01*
X91226808Y-103450648D01*
X91313151Y-103166012D01*
X91342306Y-102870000D01*
X91313151Y-102573988D01*
X91226808Y-102289352D01*
X91086594Y-102027030D01*
X90897897Y-101797103D01*
X90667970Y-101608406D01*
X90652243Y-101600000D01*
X90667970Y-101591594D01*
X90897897Y-101402897D01*
X91086594Y-101172970D01*
X91226808Y-100910648D01*
X91313151Y-100626012D01*
X91342306Y-100330000D01*
X91313151Y-100033988D01*
X91226808Y-99749352D01*
X91086594Y-99487030D01*
X90897897Y-99257103D01*
X90667970Y-99068406D01*
X90652243Y-99060000D01*
X90667970Y-99051594D01*
X90897897Y-98862897D01*
X91086594Y-98632970D01*
X91226808Y-98370648D01*
X91313151Y-98086012D01*
X91342306Y-97790000D01*
X91313151Y-97493988D01*
X91226808Y-97209352D01*
X91086594Y-96947030D01*
X90897897Y-96717103D01*
X90667970Y-96528406D01*
X90652243Y-96520000D01*
X90667970Y-96511594D01*
X90897897Y-96322897D01*
X91086594Y-96092970D01*
X91226808Y-95830648D01*
X91313151Y-95546012D01*
X91342306Y-95250000D01*
X91313151Y-94953988D01*
X91226808Y-94669352D01*
X91086594Y-94407030D01*
X90897897Y-94177103D01*
X90667970Y-93988406D01*
X90652243Y-93980000D01*
X90667970Y-93971594D01*
X90897897Y-93782897D01*
X91086594Y-93552970D01*
X91226808Y-93290648D01*
X91313151Y-93006012D01*
X91342306Y-92710000D01*
X91313151Y-92413988D01*
X91226808Y-92129352D01*
X91086594Y-91867030D01*
X90897897Y-91637103D01*
X90667970Y-91448406D01*
X90652243Y-91440000D01*
X90667970Y-91431594D01*
X90897897Y-91242897D01*
X91086594Y-91012970D01*
X91226808Y-90750648D01*
X91313151Y-90466012D01*
X91342306Y-90170000D01*
X91313151Y-89873988D01*
X91226808Y-89589352D01*
X91086594Y-89327030D01*
X90897897Y-89097103D01*
X90667970Y-88908406D01*
X90652243Y-88900000D01*
X90667970Y-88891594D01*
X90897897Y-88702897D01*
X91086594Y-88472970D01*
X91226808Y-88210648D01*
X91313151Y-87926012D01*
X91342306Y-87630000D01*
X91313151Y-87333988D01*
X91226808Y-87049352D01*
X91086594Y-86787030D01*
X90897897Y-86557103D01*
X90667970Y-86368406D01*
X90652243Y-86360000D01*
X90667970Y-86351594D01*
X90897897Y-86162897D01*
X91086594Y-85932970D01*
X91226808Y-85670648D01*
X91313151Y-85386012D01*
X91342306Y-85090000D01*
X91313151Y-84793988D01*
X91226808Y-84509352D01*
X91086594Y-84247030D01*
X90897897Y-84017103D01*
X90667970Y-83828406D01*
X90652243Y-83820000D01*
X90667970Y-83811594D01*
X90897897Y-83622897D01*
X91086594Y-83392970D01*
X91226808Y-83130648D01*
X91313151Y-82846012D01*
X91342306Y-82550000D01*
X108867695Y-82550000D01*
X108896850Y-82846012D01*
X108983193Y-83130648D01*
X109123407Y-83392970D01*
X109312104Y-83622897D01*
X109542031Y-83811594D01*
X109557758Y-83820000D01*
X109542031Y-83828406D01*
X109312104Y-84017103D01*
X109123407Y-84247030D01*
X108983193Y-84509352D01*
X108896850Y-84793988D01*
X108867695Y-85090000D01*
X108896850Y-85386012D01*
X108983193Y-85670648D01*
X109123407Y-85932970D01*
X109312104Y-86162897D01*
X109542031Y-86351594D01*
X109557758Y-86360000D01*
X109542031Y-86368406D01*
X109312104Y-86557103D01*
X109123407Y-86787030D01*
X108983193Y-87049352D01*
X108896850Y-87333988D01*
X108867695Y-87630000D01*
X108896850Y-87926012D01*
X108983193Y-88210648D01*
X109123407Y-88472970D01*
X109312104Y-88702897D01*
X109542031Y-88891594D01*
X109557758Y-88900000D01*
X109542031Y-88908406D01*
X109312104Y-89097103D01*
X109123407Y-89327030D01*
X108983193Y-89589352D01*
X108896850Y-89873988D01*
X108867695Y-90170000D01*
X108896850Y-90466012D01*
X108983193Y-90750648D01*
X109123407Y-91012970D01*
X109312104Y-91242897D01*
X109542031Y-91431594D01*
X109557758Y-91440000D01*
X109542031Y-91448406D01*
X109312104Y-91637103D01*
X109123407Y-91867030D01*
X108983193Y-92129352D01*
X108896850Y-92413988D01*
X108867695Y-92710000D01*
X108896850Y-93006012D01*
X108983193Y-93290648D01*
X109123407Y-93552970D01*
X109312104Y-93782897D01*
X109542031Y-93971594D01*
X109804353Y-94111808D01*
X110088989Y-94198151D01*
X110310823Y-94220000D01*
X111709179Y-94220000D01*
X111931013Y-94198151D01*
X112215649Y-94111808D01*
X112477971Y-93971594D01*
X112707898Y-93782897D01*
X112896595Y-93552970D01*
X113036809Y-93290648D01*
X113123152Y-93006012D01*
X113152307Y-92710000D01*
X113123152Y-92413988D01*
X113036809Y-92129352D01*
X112896595Y-91867030D01*
X112707898Y-91637103D01*
X112477971Y-91448406D01*
X112462244Y-91440000D01*
X112477971Y-91431594D01*
X112707898Y-91242897D01*
X112896595Y-91012970D01*
X113036809Y-90750648D01*
X113123152Y-90466012D01*
X113152307Y-90170000D01*
X113123152Y-89873988D01*
X113036809Y-89589352D01*
X112896595Y-89327030D01*
X112707898Y-89097103D01*
X112477971Y-88908406D01*
X112462244Y-88900000D01*
X112477971Y-88891594D01*
X112707898Y-88702897D01*
X112896595Y-88472970D01*
X113036809Y-88210648D01*
X113123152Y-87926012D01*
X113152307Y-87630000D01*
X113123152Y-87333988D01*
X113036809Y-87049352D01*
X112896595Y-86787030D01*
X112707898Y-86557103D01*
X112477971Y-86368406D01*
X112462244Y-86360000D01*
X112477971Y-86351594D01*
X112707898Y-86162897D01*
X112896595Y-85932970D01*
X113036809Y-85670648D01*
X113123152Y-85386012D01*
X113152307Y-85090000D01*
X113123152Y-84793988D01*
X113036809Y-84509352D01*
X112896595Y-84247030D01*
X112707898Y-84017103D01*
X112607856Y-83935000D01*
X114996315Y-83935000D01*
X116725001Y-85663686D01*
X116725000Y-121851971D01*
X116718300Y-121920000D01*
X116725000Y-121988029D01*
X116725000Y-121988036D01*
X116730462Y-122043489D01*
X116745040Y-122191507D01*
X116792218Y-122347030D01*
X116824236Y-122452580D01*
X116952843Y-122693187D01*
X116990359Y-122738900D01*
X117061020Y-122825000D01*
X117125919Y-122904080D01*
X117178765Y-122947450D01*
X119622546Y-125391231D01*
X119665919Y-125444081D01*
X119876812Y-125617157D01*
X120117419Y-125745764D01*
X120378493Y-125824960D01*
X120581963Y-125845000D01*
X120581972Y-125845000D01*
X120649999Y-125851700D01*
X120718026Y-125845000D01*
X126765736Y-125845000D01*
X127014285Y-125977852D01*
X127322484Y-126071343D01*
X127562678Y-126095000D01*
X128723322Y-126095000D01*
X128963516Y-126071343D01*
X129271715Y-125977852D01*
X129555752Y-125826031D01*
X129804714Y-125621714D01*
X130009031Y-125372752D01*
X130160852Y-125088715D01*
X130254343Y-124780516D01*
X130285911Y-124460000D01*
X130254343Y-124139484D01*
X130160852Y-123831285D01*
X130009031Y-123547248D01*
X129804714Y-123298286D01*
X129555752Y-123093969D01*
X129271715Y-122942148D01*
X128963516Y-122848657D01*
X128723322Y-122825000D01*
X127562678Y-122825000D01*
X127322484Y-122848657D01*
X127014285Y-122942148D01*
X126765736Y-123075000D01*
X121223685Y-123075000D01*
X119495000Y-121346315D01*
X119495000Y-85158026D01*
X119501700Y-85089999D01*
X119495000Y-85021972D01*
X119495000Y-85021963D01*
X119474960Y-84818493D01*
X119395764Y-84557419D01*
X119267157Y-84316812D01*
X119094081Y-84105919D01*
X119041231Y-84062546D01*
X116597454Y-81618769D01*
X116554081Y-81565919D01*
X116343188Y-81392843D01*
X116102581Y-81264236D01*
X115841507Y-81185040D01*
X115638037Y-81165000D01*
X115638029Y-81165000D01*
X115570000Y-81158300D01*
X115501971Y-81165000D01*
X112247095Y-81165000D01*
X112215649Y-81148192D01*
X111931013Y-81061849D01*
X111709179Y-81040000D01*
X110310823Y-81040000D01*
X110088989Y-81061849D01*
X109804353Y-81148192D01*
X109542031Y-81288406D01*
X109312104Y-81477103D01*
X109123407Y-81707030D01*
X108983193Y-81969352D01*
X108896850Y-82253988D01*
X108867695Y-82550000D01*
X91342306Y-82550000D01*
X91313151Y-82253988D01*
X91226808Y-81969352D01*
X91086594Y-81707030D01*
X90897897Y-81477103D01*
X90667970Y-81288406D01*
X90652243Y-81280000D01*
X90667970Y-81271594D01*
X90897897Y-81082897D01*
X91086594Y-80852970D01*
X91226808Y-80590648D01*
X91313151Y-80306012D01*
X91342306Y-80010000D01*
X91313151Y-79713988D01*
X91226808Y-79429352D01*
X91086594Y-79167030D01*
X90897897Y-78937103D01*
X90667970Y-78748406D01*
X90652243Y-78740000D01*
X90667970Y-78731594D01*
X90897897Y-78542897D01*
X91086594Y-78312970D01*
X91226808Y-78050648D01*
X91313151Y-77766012D01*
X91342306Y-77470000D01*
X91313151Y-77173988D01*
X91226808Y-76889352D01*
X91086594Y-76627030D01*
X90897897Y-76397103D01*
X90667970Y-76208406D01*
X90652243Y-76200000D01*
X90667970Y-76191594D01*
X90700375Y-76165000D01*
X100269335Y-76165000D01*
X100330000Y-76170975D01*
X100390665Y-76165000D01*
X100572102Y-76147130D01*
X100804901Y-76076511D01*
X101019449Y-75961833D01*
X101207502Y-75807502D01*
X101246179Y-75760374D01*
X112271554Y-64735000D01*
X120589335Y-64735000D01*
X120650000Y-64740975D01*
X120710665Y-64735000D01*
X120892102Y-64717130D01*
X121124901Y-64646511D01*
X121339449Y-64531833D01*
X121527502Y-64377502D01*
X121566178Y-64330375D01*
X122750381Y-63146173D01*
X122797502Y-63107502D01*
X122951833Y-62919449D01*
X123066511Y-62704901D01*
X123077213Y-62669620D01*
X123137130Y-62472103D01*
X123160975Y-62230001D01*
X123155000Y-62169336D01*
X123155000Y-60837950D01*
X123190000Y-60802950D01*
X123225001Y-60837951D01*
X123225000Y-62988446D01*
X112518447Y-73695000D01*
X112510376Y-73695000D01*
X112477971Y-73668406D01*
X112215649Y-73528192D01*
X111931013Y-73441849D01*
X111709179Y-73420000D01*
X110310823Y-73420000D01*
X110088989Y-73441849D01*
X109804353Y-73528192D01*
X109542031Y-73668406D01*
X109312104Y-73857103D01*
X109123407Y-74087030D01*
X108983193Y-74349352D01*
X108896850Y-74633988D01*
X108867695Y-74930000D01*
X108896850Y-75226012D01*
X108983193Y-75510648D01*
X109123407Y-75772970D01*
X109312104Y-76002897D01*
X109542031Y-76191594D01*
X109557758Y-76200000D01*
X109542031Y-76208406D01*
X109312104Y-76397103D01*
X109123407Y-76627030D01*
X108983193Y-76889352D01*
X108896850Y-77173988D01*
X108867695Y-77470000D01*
X108896850Y-77766012D01*
X108983193Y-78050648D01*
X109123407Y-78312970D01*
X109312104Y-78542897D01*
X109542031Y-78731594D01*
X109804353Y-78871808D01*
X110088989Y-78958151D01*
X110310823Y-78980000D01*
X111709179Y-78980000D01*
X111931013Y-78958151D01*
X112215649Y-78871808D01*
X112477971Y-78731594D01*
X112510376Y-78705000D01*
X114239335Y-78705000D01*
X114300000Y-78710975D01*
X114360665Y-78705000D01*
X114542102Y-78687130D01*
X114774901Y-78616511D01*
X114989449Y-78501833D01*
X115177502Y-78347502D01*
X115216179Y-78300374D01*
X118586553Y-74930000D01*
X124617695Y-74930000D01*
X124646850Y-75226012D01*
X124733193Y-75510648D01*
X124873407Y-75772970D01*
X125062104Y-76002897D01*
X125292031Y-76191594D01*
X125307758Y-76200000D01*
X125292031Y-76208406D01*
X125062104Y-76397103D01*
X124873407Y-76627030D01*
X124733193Y-76889352D01*
X124646850Y-77173988D01*
X124617695Y-77470000D01*
X124646850Y-77766012D01*
X124733193Y-78050648D01*
X124873407Y-78312970D01*
X125062104Y-78542897D01*
X125292031Y-78731594D01*
X125307758Y-78740000D01*
X125292031Y-78748406D01*
X125062104Y-78937103D01*
X124873407Y-79167030D01*
X124733193Y-79429352D01*
X124646850Y-79713988D01*
X124617695Y-80010000D01*
X124646850Y-80306012D01*
X124733193Y-80590648D01*
X124873407Y-80852970D01*
X125062104Y-81082897D01*
X125292031Y-81271594D01*
X125307758Y-81280000D01*
X125292031Y-81288406D01*
X125062104Y-81477103D01*
X124873407Y-81707030D01*
X124733193Y-81969352D01*
X124646850Y-82253988D01*
X124617695Y-82550000D01*
X124646850Y-82846012D01*
X124733193Y-83130648D01*
X124873407Y-83392970D01*
X125062104Y-83622897D01*
X125292031Y-83811594D01*
X125307758Y-83820000D01*
X125292031Y-83828406D01*
X125062104Y-84017103D01*
X124873407Y-84247030D01*
X124733193Y-84509352D01*
X124646850Y-84793988D01*
X124617695Y-85090000D01*
X124646850Y-85386012D01*
X124733193Y-85670648D01*
X124873407Y-85932970D01*
X125062104Y-86162897D01*
X125292031Y-86351594D01*
X125307758Y-86360000D01*
X125292031Y-86368406D01*
X125062104Y-86557103D01*
X124873407Y-86787030D01*
X124733193Y-87049352D01*
X124646850Y-87333988D01*
X124617695Y-87630000D01*
X124646850Y-87926012D01*
X124733193Y-88210648D01*
X124873407Y-88472970D01*
X125062104Y-88702897D01*
X125292031Y-88891594D01*
X125307758Y-88900000D01*
X125292031Y-88908406D01*
X125062104Y-89097103D01*
X124873407Y-89327030D01*
X124733193Y-89589352D01*
X124646850Y-89873988D01*
X124617695Y-90170000D01*
X124646850Y-90466012D01*
X124733193Y-90750648D01*
X124873407Y-91012970D01*
X125062104Y-91242897D01*
X125292031Y-91431594D01*
X125307758Y-91440000D01*
X125292031Y-91448406D01*
X125062104Y-91637103D01*
X124873407Y-91867030D01*
X124733193Y-92129352D01*
X124646850Y-92413988D01*
X124617695Y-92710000D01*
X124646850Y-93006012D01*
X124733193Y-93290648D01*
X124873407Y-93552970D01*
X125062104Y-93782897D01*
X125292031Y-93971594D01*
X125554353Y-94111808D01*
X125838989Y-94198151D01*
X126060823Y-94220000D01*
X127459179Y-94220000D01*
X127681013Y-94198151D01*
X127965649Y-94111808D01*
X128227971Y-93971594D01*
X128457898Y-93782897D01*
X128646595Y-93552970D01*
X128786809Y-93290648D01*
X128873152Y-93006012D01*
X128902307Y-92710000D01*
X128873152Y-92413988D01*
X128786809Y-92129352D01*
X128646595Y-91867030D01*
X128457898Y-91637103D01*
X128227971Y-91448406D01*
X128212244Y-91440000D01*
X128227971Y-91431594D01*
X128457898Y-91242897D01*
X128646595Y-91012970D01*
X128786809Y-90750648D01*
X128873152Y-90466012D01*
X128902307Y-90170000D01*
X128873152Y-89873988D01*
X128786809Y-89589352D01*
X128646595Y-89327030D01*
X128457898Y-89097103D01*
X128227971Y-88908406D01*
X128212244Y-88900000D01*
X128227971Y-88891594D01*
X128457898Y-88702897D01*
X128646595Y-88472970D01*
X128786809Y-88210648D01*
X128873152Y-87926012D01*
X128902307Y-87630000D01*
X128873152Y-87333988D01*
X128786809Y-87049352D01*
X128646595Y-86787030D01*
X128457898Y-86557103D01*
X128227971Y-86368406D01*
X128212244Y-86360000D01*
X128227971Y-86351594D01*
X128457898Y-86162897D01*
X128646595Y-85932970D01*
X128786809Y-85670648D01*
X128873152Y-85386012D01*
X128902307Y-85090000D01*
X128873152Y-84793988D01*
X128786809Y-84509352D01*
X128646595Y-84247030D01*
X128457898Y-84017103D01*
X128227971Y-83828406D01*
X128212244Y-83820000D01*
X128227971Y-83811594D01*
X128457898Y-83622897D01*
X128646595Y-83392970D01*
X128786809Y-83130648D01*
X128873152Y-82846012D01*
X128902307Y-82550000D01*
X128873152Y-82253988D01*
X128786809Y-81969352D01*
X128646595Y-81707030D01*
X128457898Y-81477103D01*
X128227971Y-81288406D01*
X128212244Y-81280000D01*
X128227971Y-81271594D01*
X128457898Y-81082897D01*
X128646595Y-80852970D01*
X128786809Y-80590648D01*
X128873152Y-80306012D01*
X128902307Y-80010000D01*
X128873152Y-79713988D01*
X128786809Y-79429352D01*
X128646595Y-79167030D01*
X128457898Y-78937103D01*
X128227971Y-78748406D01*
X128212244Y-78740000D01*
X128227971Y-78731594D01*
X128457898Y-78542897D01*
X128646595Y-78312970D01*
X128786809Y-78050648D01*
X128873152Y-77766012D01*
X128902307Y-77470000D01*
X128873152Y-77173988D01*
X128786809Y-76889352D01*
X128646595Y-76627030D01*
X128457898Y-76397103D01*
X128227971Y-76208406D01*
X128212244Y-76200000D01*
X128227971Y-76191594D01*
X128457898Y-76002897D01*
X128646595Y-75772970D01*
X128786809Y-75510648D01*
X128873152Y-75226012D01*
X128902307Y-74930000D01*
X128873152Y-74633988D01*
X128786809Y-74349352D01*
X128646595Y-74087030D01*
X128457898Y-73857103D01*
X128227971Y-73668406D01*
X127965649Y-73528192D01*
X127681013Y-73441849D01*
X127459179Y-73420000D01*
X126060823Y-73420000D01*
X125838989Y-73441849D01*
X125554353Y-73528192D01*
X125292031Y-73668406D01*
X125062104Y-73857103D01*
X124873407Y-74087030D01*
X124733193Y-74349352D01*
X124646850Y-74633988D01*
X124617695Y-74930000D01*
X118586553Y-74930000D01*
X126241554Y-67275000D01*
X138369335Y-67275000D01*
X138430000Y-67280975D01*
X138490665Y-67275000D01*
X138672102Y-67257130D01*
X138904901Y-67186511D01*
X139119449Y-67071833D01*
X139307502Y-66917502D01*
X139346178Y-66870375D01*
X141800381Y-64416173D01*
X141847502Y-64377502D01*
X142001833Y-64189449D01*
X142116511Y-63974901D01*
X142187130Y-63742102D01*
X142205000Y-63560665D01*
X142205000Y-63560656D01*
X142210974Y-63500001D01*
X142205000Y-63439346D01*
X142205000Y-60837950D01*
X142240000Y-60802950D01*
X142435875Y-60998825D01*
X142711853Y-61183228D01*
X143018504Y-61310246D01*
X143344042Y-61375000D01*
X143675958Y-61375000D01*
X144001496Y-61310246D01*
X144308147Y-61183228D01*
X144584125Y-60998825D01*
X144818825Y-60764125D01*
X145003228Y-60488147D01*
X145130246Y-60181496D01*
X145195000Y-59855958D01*
X145195000Y-59524042D01*
X145130246Y-59198504D01*
X145003228Y-58891853D01*
X144818825Y-58615875D01*
X144584125Y-58381175D01*
X144308147Y-58196772D01*
X144001496Y-58069754D01*
X143675958Y-58005000D01*
X143344042Y-58005000D01*
X143018504Y-58069754D01*
X142711853Y-58196772D01*
X142435875Y-58381175D01*
X142240000Y-58577050D01*
X142044125Y-58381175D01*
X141768147Y-58196772D01*
X141461496Y-58069754D01*
X141135958Y-58005000D01*
X140804042Y-58005000D01*
X140478504Y-58069754D01*
X140171853Y-58196772D01*
X139895875Y-58381175D01*
X139700000Y-58577050D01*
X139504125Y-58381175D01*
X139228147Y-58196772D01*
X138921496Y-58069754D01*
X138595958Y-58005000D01*
X138264042Y-58005000D01*
X137938504Y-58069754D01*
X137631853Y-58196772D01*
X137478042Y-58299546D01*
X137470537Y-58285506D01*
X137391185Y-58188815D01*
X137294494Y-58109463D01*
X137184180Y-58050498D01*
X137125000Y-58032546D01*
X137125000Y-52581553D01*
X137990381Y-51716173D01*
X138037502Y-51677502D01*
X138191833Y-51489449D01*
X138306511Y-51274901D01*
X138377130Y-51042102D01*
X138395000Y-50860665D01*
X138395000Y-50860664D01*
X138400975Y-50800001D01*
X138395000Y-50739336D01*
X138395000Y-46847554D01*
X138430000Y-46782073D01*
X138465000Y-46847554D01*
X138465001Y-54098445D01*
X137513827Y-55049620D01*
X137398168Y-55190552D01*
X137283489Y-55405101D01*
X137212870Y-55637898D01*
X137189025Y-55880000D01*
X137212870Y-56122102D01*
X137283489Y-56354899D01*
X137398168Y-56569448D01*
X137552499Y-56757501D01*
X137740552Y-56911832D01*
X137955101Y-57026511D01*
X138187898Y-57097130D01*
X138430000Y-57120975D01*
X138672102Y-57097130D01*
X138904899Y-57026511D01*
X139119448Y-56911832D01*
X139260380Y-56796173D01*
X140530380Y-55526174D01*
X140577502Y-55487502D01*
X140731833Y-55299449D01*
X140846511Y-55084901D01*
X140917130Y-54852102D01*
X140928812Y-54733489D01*
X140940975Y-54610001D01*
X140935000Y-54549336D01*
X140935000Y-46847554D01*
X140970000Y-46782073D01*
X141082843Y-46993188D01*
X141255920Y-47204081D01*
X141466813Y-47377157D01*
X141707420Y-47505764D01*
X141968494Y-47584960D01*
X142240000Y-47611701D01*
X142511507Y-47584960D01*
X142772581Y-47505764D01*
X143013188Y-47377157D01*
X143224081Y-47204081D01*
X143397157Y-46993188D01*
X143510000Y-46782073D01*
X143622843Y-46993188D01*
X143795920Y-47204081D01*
X144006813Y-47377157D01*
X144247420Y-47505764D01*
X144508494Y-47584960D01*
X144780000Y-47611701D01*
X145051507Y-47584960D01*
X145312581Y-47505764D01*
X145553188Y-47377157D01*
X145764081Y-47204081D01*
X145937157Y-46993188D01*
X146050000Y-46782073D01*
X146162843Y-46993188D01*
X146335920Y-47204081D01*
X146546813Y-47377157D01*
X146787420Y-47505764D01*
X147048494Y-47584960D01*
X147320000Y-47611701D01*
X147591507Y-47584960D01*
X147852581Y-47505764D01*
X148093188Y-47377157D01*
X148304081Y-47204081D01*
X148477157Y-46993188D01*
X148605764Y-46752581D01*
X148684960Y-46491507D01*
X148705000Y-46288037D01*
X148705000Y-45151963D01*
X148684960Y-44948493D01*
X148605764Y-44687419D01*
X148477157Y-44446812D01*
X148304080Y-44235919D01*
X148093187Y-44062843D01*
X147852580Y-43934236D01*
X147591506Y-43855040D01*
X147320000Y-43828299D01*
X147048493Y-43855040D01*
X146787419Y-43934236D01*
X146546812Y-44062843D01*
X146335919Y-44235920D01*
X146162843Y-44446813D01*
X146050000Y-44657927D01*
X145937157Y-44446812D01*
X145764080Y-44235919D01*
X145553187Y-44062843D01*
X145312580Y-43934236D01*
X145051506Y-43855040D01*
X144780000Y-43828299D01*
X144508493Y-43855040D01*
X144247419Y-43934236D01*
X144006812Y-44062843D01*
X143795919Y-44235920D01*
X143622843Y-44446813D01*
X143510000Y-44657927D01*
X143397157Y-44446812D01*
X143224080Y-44235919D01*
X143013187Y-44062843D01*
X142772580Y-43934236D01*
X142511506Y-43855040D01*
X142240000Y-43828299D01*
X141968493Y-43855040D01*
X141707419Y-43934236D01*
X141466812Y-44062843D01*
X141255919Y-44235920D01*
X141082843Y-44446813D01*
X140970000Y-44657927D01*
X140857157Y-44446812D01*
X140684080Y-44235919D01*
X140473187Y-44062843D01*
X140232580Y-43934236D01*
X139971506Y-43855040D01*
X139700000Y-43828299D01*
X139428493Y-43855040D01*
X139167419Y-43934236D01*
X138926812Y-44062843D01*
X138715919Y-44235920D01*
X138542843Y-44446813D01*
X138430000Y-44657927D01*
X138317157Y-44446812D01*
X138144080Y-44235919D01*
X137933187Y-44062843D01*
X137692580Y-43934236D01*
X137431506Y-43855040D01*
X137160000Y-43828299D01*
X136888493Y-43855040D01*
X136627419Y-43934236D01*
X136386812Y-44062843D01*
X136175919Y-44235920D01*
X136002843Y-44446813D01*
X135890000Y-44657927D01*
X135777157Y-44446812D01*
X135755000Y-44419814D01*
X135755000Y-42380131D01*
X137630132Y-40505000D01*
X148701788Y-40505000D01*
X148756747Y-40494068D01*
X148812499Y-40488577D01*
X148866106Y-40472315D01*
X148921067Y-40461383D01*
X148972842Y-40439937D01*
X149026447Y-40423676D01*
X149075851Y-40397269D01*
X149127624Y-40375824D01*
X149174214Y-40344693D01*
X149223623Y-40318284D01*
X149266932Y-40282741D01*
X149313520Y-40251612D01*
X149353141Y-40211991D01*
X149396449Y-40176449D01*
X149431991Y-40133141D01*
X149471612Y-40093520D01*
X149502741Y-40046932D01*
X149538284Y-40003623D01*
X149564693Y-39954214D01*
X149595824Y-39907624D01*
X149617269Y-39855851D01*
X149643676Y-39806447D01*
X149659937Y-39752842D01*
X149681383Y-39701067D01*
X149686880Y-39673433D01*
X151165001Y-41151555D01*
X151165000Y-44592447D01*
X151114236Y-44687420D01*
X151035040Y-44948494D01*
X151015000Y-45151964D01*
X151015000Y-46288037D01*
X151035040Y-46491507D01*
X151114236Y-46752581D01*
X151242843Y-46993188D01*
X151415920Y-47204081D01*
X151626813Y-47377157D01*
X151867420Y-47505764D01*
X152128494Y-47584960D01*
X152400000Y-47611701D01*
X152671507Y-47584960D01*
X152932581Y-47505764D01*
X153173188Y-47377157D01*
X153384081Y-47204081D01*
X153557157Y-46993188D01*
X153685764Y-46752581D01*
X153764960Y-46491507D01*
X153785000Y-46288037D01*
X153785000Y-45151963D01*
X153764960Y-44948493D01*
X153685764Y-44687419D01*
X153635000Y-44592446D01*
X153635000Y-40700665D01*
X153640975Y-40640000D01*
X153617130Y-40397898D01*
X153592979Y-40318284D01*
X153546511Y-40165099D01*
X153431833Y-39950551D01*
X153277502Y-39762498D01*
X153230380Y-39723826D01*
X149506178Y-35999625D01*
X149467502Y-35952498D01*
X149279449Y-35798167D01*
X149071470Y-35687000D01*
X184023000Y-35687000D01*
X184023000Y-143383000D01*
X129033554Y-143383000D01*
X129100381Y-143316173D01*
X129147502Y-143277502D01*
X129301833Y-143089449D01*
X129416511Y-142874901D01*
X129475749Y-142679620D01*
X129487130Y-142642103D01*
X129510975Y-142400001D01*
X129505000Y-142339336D01*
X129505000Y-141200375D01*
X129531594Y-141167970D01*
X129671808Y-140905648D01*
X129758151Y-140621012D01*
X129780000Y-140399178D01*
X129780000Y-139000822D01*
X129758151Y-138778988D01*
X129671808Y-138494352D01*
X129655000Y-138462906D01*
X129655000Y-136463685D01*
X131383685Y-134735000D01*
X140396315Y-134735000D01*
X146292550Y-140631236D01*
X146335919Y-140684081D01*
X146388764Y-140727450D01*
X146388766Y-140727452D01*
X146420720Y-140753676D01*
X146546812Y-140857157D01*
X146787419Y-140985764D01*
X147048493Y-141064960D01*
X147251963Y-141085000D01*
X147251972Y-141085000D01*
X147319999Y-141091700D01*
X147388026Y-141085000D01*
X158385654Y-141085000D01*
X158659017Y-141358363D01*
X159008698Y-141592012D01*
X159397244Y-141752953D01*
X159809721Y-141835000D01*
X160230279Y-141835000D01*
X160642756Y-141752953D01*
X161031302Y-141592012D01*
X161380983Y-141358363D01*
X161678363Y-141060983D01*
X161912012Y-140711302D01*
X162072953Y-140322756D01*
X162155000Y-139910279D01*
X162155000Y-139489721D01*
X162072953Y-139077244D01*
X161912012Y-138688698D01*
X161678363Y-138339017D01*
X161405000Y-138065654D01*
X161405000Y-128843685D01*
X164403686Y-125845000D01*
X166262736Y-125845000D01*
X166511285Y-125977852D01*
X166819484Y-126071343D01*
X167059678Y-126095000D01*
X168220322Y-126095000D01*
X168460516Y-126071343D01*
X168768715Y-125977852D01*
X169052752Y-125826031D01*
X169301714Y-125621714D01*
X169506031Y-125372752D01*
X169657852Y-125088715D01*
X169751343Y-124780516D01*
X169782911Y-124460000D01*
X169751343Y-124139484D01*
X169657852Y-123831285D01*
X169506031Y-123547248D01*
X169301714Y-123298286D01*
X169052752Y-123093969D01*
X168768715Y-122942148D01*
X168460516Y-122848657D01*
X168220322Y-122825000D01*
X167059678Y-122825000D01*
X166819484Y-122848657D01*
X166511285Y-122942148D01*
X166262736Y-123075000D01*
X164403686Y-123075000D01*
X160135000Y-118806315D01*
X160135000Y-77538029D01*
X160141700Y-77470000D01*
X160135000Y-77401971D01*
X160135000Y-77401963D01*
X160114960Y-77198493D01*
X160035764Y-76937419D01*
X159907157Y-76696812D01*
X159849888Y-76627030D01*
X159777452Y-76538766D01*
X159777450Y-76538764D01*
X159734081Y-76485919D01*
X159681236Y-76442550D01*
X155967454Y-72728769D01*
X155924081Y-72675919D01*
X155713188Y-72502843D01*
X155472581Y-72374236D01*
X155211507Y-72295040D01*
X155008037Y-72275000D01*
X155008029Y-72275000D01*
X154940000Y-72268300D01*
X154871971Y-72275000D01*
X152727855Y-72275000D01*
X152827897Y-72192897D01*
X153016594Y-71962970D01*
X153156808Y-71700648D01*
X153243151Y-71416012D01*
X153272306Y-71120000D01*
X153243151Y-70823988D01*
X153156808Y-70539352D01*
X153016594Y-70277030D01*
X152827897Y-70047103D01*
X152597970Y-69858406D01*
X152582243Y-69850000D01*
X152597970Y-69841594D01*
X152827897Y-69652897D01*
X153016594Y-69422970D01*
X153156808Y-69160648D01*
X153243151Y-68876012D01*
X153272306Y-68580000D01*
X153243151Y-68283988D01*
X153156808Y-67999352D01*
X153016594Y-67737030D01*
X152827897Y-67507103D01*
X152597970Y-67318406D01*
X152335648Y-67178192D01*
X152051012Y-67091849D01*
X151829178Y-67070000D01*
X150430822Y-67070000D01*
X150208988Y-67091849D01*
X149924352Y-67178192D01*
X149662030Y-67318406D01*
X149432103Y-67507103D01*
X149243406Y-67737030D01*
X149103192Y-67999352D01*
X149016849Y-68283988D01*
X148987694Y-68580000D01*
X149016849Y-68876012D01*
X149103192Y-69160648D01*
X149243406Y-69422970D01*
X149432103Y-69652897D01*
X149662030Y-69841594D01*
X149677757Y-69850000D01*
X149662030Y-69858406D01*
X149432103Y-70047103D01*
X149243406Y-70277030D01*
X149103192Y-70539352D01*
X149016849Y-70823988D01*
X148987694Y-71120000D01*
X149016849Y-71416012D01*
X149103192Y-71700648D01*
X149243406Y-71962970D01*
X149432103Y-72192897D01*
X149662030Y-72381594D01*
X149677757Y-72390000D01*
X149662030Y-72398406D01*
X149432103Y-72587103D01*
X149243406Y-72817030D01*
X149103192Y-73079352D01*
X149016849Y-73363988D01*
X148987694Y-73660000D01*
X149016849Y-73956012D01*
X149103192Y-74240648D01*
X149243406Y-74502970D01*
X149432103Y-74732897D01*
X149662030Y-74921594D01*
X149924352Y-75061808D01*
X150208988Y-75148151D01*
X150430822Y-75170000D01*
X151829178Y-75170000D01*
X152051012Y-75148151D01*
X152335648Y-75061808D01*
X152367094Y-75045000D01*
X154366315Y-75045000D01*
X157365001Y-78043687D01*
X157365000Y-119311971D01*
X157358300Y-119380000D01*
X157365000Y-119448029D01*
X157365000Y-119448036D01*
X157385040Y-119651506D01*
X157464236Y-119912580D01*
X157592843Y-120153187D01*
X157765919Y-120364080D01*
X157818765Y-120407450D01*
X161871314Y-124460000D01*
X159088764Y-127242551D01*
X159035920Y-127285919D01*
X158992551Y-127338764D01*
X158992548Y-127338767D01*
X158862844Y-127496812D01*
X158734236Y-127737420D01*
X158655040Y-127998493D01*
X158628300Y-128270000D01*
X158635001Y-128338039D01*
X158635000Y-138065654D01*
X158385654Y-138315000D01*
X147893686Y-138315000D01*
X141997454Y-132418769D01*
X141954081Y-132365919D01*
X141743188Y-132192843D01*
X141502581Y-132064236D01*
X141241507Y-131985040D01*
X141038037Y-131965000D01*
X141038029Y-131965000D01*
X140970000Y-131958300D01*
X140901971Y-131965000D01*
X130878026Y-131965000D01*
X130809999Y-131958300D01*
X130741972Y-131965000D01*
X130741963Y-131965000D01*
X130538493Y-131985040D01*
X130277419Y-132064236D01*
X130036812Y-132192843D01*
X129825919Y-132365919D01*
X129782546Y-132418769D01*
X127338765Y-134862550D01*
X127285920Y-134905919D01*
X127242551Y-134958764D01*
X127242548Y-134958767D01*
X127112844Y-135116812D01*
X126984236Y-135357420D01*
X126905040Y-135618493D01*
X126878300Y-135890000D01*
X126885001Y-135958039D01*
X126885000Y-138102146D01*
X126865000Y-138077775D01*
X126865000Y-135945741D01*
X126870490Y-135889999D01*
X126865000Y-135834257D01*
X126865000Y-135834248D01*
X126848577Y-135667501D01*
X126783676Y-135453553D01*
X126678284Y-135256377D01*
X126536449Y-135083551D01*
X126493141Y-135048009D01*
X124031996Y-132586865D01*
X123996449Y-132543551D01*
X123823623Y-132401716D01*
X123626447Y-132296324D01*
X123412499Y-132231423D01*
X123245752Y-132215000D01*
X123245751Y-132215000D01*
X123190000Y-132209509D01*
X123134249Y-132215000D01*
X114770132Y-132215000D01*
X110355000Y-127799869D01*
X110355000Y-127118072D01*
X110752500Y-127118072D01*
X110928193Y-127100768D01*
X111097134Y-127049520D01*
X111252831Y-126966298D01*
X111389301Y-126854301D01*
X111501298Y-126717831D01*
X111584520Y-126562134D01*
X111635768Y-126393193D01*
X111653072Y-126217500D01*
X111653072Y-125242500D01*
X111635768Y-125066807D01*
X111625000Y-125031310D01*
X111625000Y-118994284D01*
X111761680Y-118789727D01*
X111869853Y-118528574D01*
X111925000Y-118251335D01*
X111925000Y-117968665D01*
X111869853Y-117691426D01*
X111761680Y-117430273D01*
X111604637Y-117195241D01*
X111404759Y-116995363D01*
X111172241Y-116840000D01*
X111404759Y-116684637D01*
X111604637Y-116484759D01*
X111761680Y-116249727D01*
X111869853Y-115988574D01*
X111925000Y-115711335D01*
X111925000Y-115428665D01*
X111869853Y-115151426D01*
X111761680Y-114890273D01*
X111604637Y-114655241D01*
X111404759Y-114455363D01*
X111169727Y-114298320D01*
X110908574Y-114190147D01*
X110631335Y-114135000D01*
X110348665Y-114135000D01*
X110071426Y-114190147D01*
X109810273Y-114298320D01*
X109575241Y-114455363D01*
X109375363Y-114655241D01*
X109218320Y-114890273D01*
X109110147Y-115151426D01*
X109055000Y-115428665D01*
X109055000Y-115711335D01*
X109110147Y-115988574D01*
X109218320Y-116249727D01*
X109375363Y-116484759D01*
X109575241Y-116684637D01*
X109807759Y-116840000D01*
X109575241Y-116995363D01*
X109375363Y-117195241D01*
X109218320Y-117430273D01*
X109110147Y-117691426D01*
X109055000Y-117968665D01*
X109055000Y-118251335D01*
X109110147Y-118528574D01*
X109218320Y-118789727D01*
X109355001Y-118994285D01*
X109355000Y-124341928D01*
X108957500Y-124341928D01*
X108781807Y-124359232D01*
X108612866Y-124410480D01*
X108457169Y-124493702D01*
X108320699Y-124605699D01*
X108208702Y-124742169D01*
X108125480Y-124897866D01*
X108074232Y-125066807D01*
X108056928Y-125242500D01*
X108056928Y-126217500D01*
X108074232Y-126393193D01*
X108085000Y-126428691D01*
X108085001Y-128214239D01*
X108079509Y-128270000D01*
X108101423Y-128492498D01*
X108166324Y-128706446D01*
X108166325Y-128706447D01*
X108271717Y-128903623D01*
X108413552Y-129076449D01*
X108456860Y-129111991D01*
X113458009Y-134113141D01*
X113493551Y-134156449D01*
X113645600Y-134281233D01*
X113666377Y-134298284D01*
X113863553Y-134403676D01*
X114077501Y-134468577D01*
X114300000Y-134490491D01*
X114355751Y-134485000D01*
X122719869Y-134485000D01*
X124595000Y-136360132D01*
X124595001Y-138077776D01*
X124468407Y-138232030D01*
X124328192Y-138494352D01*
X124241849Y-138778988D01*
X124220000Y-139000822D01*
X124220000Y-140399177D01*
X124241849Y-140621011D01*
X124328192Y-140905647D01*
X124468406Y-141167969D01*
X124657103Y-141397897D01*
X124887030Y-141586594D01*
X125149352Y-141726808D01*
X125433988Y-141813151D01*
X125730000Y-141842306D01*
X126026011Y-141813151D01*
X126310647Y-141726808D01*
X126572969Y-141586594D01*
X126802897Y-141397897D01*
X126991594Y-141167970D01*
X127000000Y-141152243D01*
X127008406Y-141167969D01*
X127035000Y-141200374D01*
X127035000Y-141888446D01*
X126648447Y-142275000D01*
X65281554Y-142275000D01*
X35525000Y-112518447D01*
X35525000Y-104140000D01*
X55909025Y-104140000D01*
X55915001Y-104200675D01*
X55915000Y-128209335D01*
X55909025Y-128270000D01*
X55915000Y-128330664D01*
X55932870Y-128512101D01*
X56003489Y-128744900D01*
X56118167Y-128959448D01*
X56272498Y-129147502D01*
X56319625Y-129186178D01*
X58773826Y-131640380D01*
X58812498Y-131687502D01*
X59000551Y-131841833D01*
X59215099Y-131956511D01*
X59447898Y-132027130D01*
X59629335Y-132045000D01*
X59629344Y-132045000D01*
X59689999Y-132050974D01*
X59750654Y-132045000D01*
X63269625Y-132045000D01*
X63302030Y-132071594D01*
X63564352Y-132211808D01*
X63848988Y-132298151D01*
X64070822Y-132320000D01*
X65469178Y-132320000D01*
X65691012Y-132298151D01*
X65975648Y-132211808D01*
X66237970Y-132071594D01*
X66467897Y-131882897D01*
X66656594Y-131652970D01*
X66796808Y-131390648D01*
X66883151Y-131106012D01*
X66912306Y-130810000D01*
X75327694Y-130810000D01*
X75356849Y-131106012D01*
X75443192Y-131390648D01*
X75583406Y-131652970D01*
X75772103Y-131882897D01*
X76002030Y-132071594D01*
X76264352Y-132211808D01*
X76548988Y-132298151D01*
X76770822Y-132320000D01*
X78169178Y-132320000D01*
X78391012Y-132298151D01*
X78675648Y-132211808D01*
X78937970Y-132071594D01*
X79167897Y-131882897D01*
X79356594Y-131652970D01*
X79496808Y-131390648D01*
X79583151Y-131106012D01*
X79612306Y-130810000D01*
X79583151Y-130513988D01*
X79496808Y-130229352D01*
X79356594Y-129967030D01*
X79167897Y-129737103D01*
X78937970Y-129548406D01*
X78675648Y-129408192D01*
X78391012Y-129321849D01*
X78169178Y-129300000D01*
X76770822Y-129300000D01*
X76548988Y-129321849D01*
X76264352Y-129408192D01*
X76002030Y-129548406D01*
X75772103Y-129737103D01*
X75583406Y-129967030D01*
X75443192Y-130229352D01*
X75356849Y-130513988D01*
X75327694Y-130810000D01*
X66912306Y-130810000D01*
X66883151Y-130513988D01*
X66796808Y-130229352D01*
X66656594Y-129967030D01*
X66467897Y-129737103D01*
X66237970Y-129548406D01*
X66222243Y-129540000D01*
X66237970Y-129531594D01*
X66467897Y-129342897D01*
X66656594Y-129112970D01*
X66796808Y-128850648D01*
X66883151Y-128566012D01*
X66912306Y-128270000D01*
X66883151Y-127973988D01*
X66796808Y-127689352D01*
X66656594Y-127427030D01*
X66467897Y-127197103D01*
X66237970Y-127008406D01*
X66222243Y-127000000D01*
X66237970Y-126991594D01*
X66467897Y-126802897D01*
X66656594Y-126572970D01*
X66796808Y-126310648D01*
X66883151Y-126026012D01*
X66912306Y-125730000D01*
X66883151Y-125433988D01*
X66796808Y-125149352D01*
X66656594Y-124887030D01*
X66467897Y-124657103D01*
X66237970Y-124468406D01*
X66222243Y-124460000D01*
X66237970Y-124451594D01*
X66467897Y-124262897D01*
X66656594Y-124032970D01*
X66796808Y-123770648D01*
X66883151Y-123486012D01*
X66912306Y-123190000D01*
X66883151Y-122893988D01*
X66796808Y-122609352D01*
X66656594Y-122347030D01*
X66467897Y-122117103D01*
X66237970Y-121928406D01*
X66222243Y-121920000D01*
X66237970Y-121911594D01*
X66467897Y-121722897D01*
X66656594Y-121492970D01*
X66796808Y-121230648D01*
X66883151Y-120946012D01*
X66912306Y-120650000D01*
X66883151Y-120353988D01*
X66796808Y-120069352D01*
X66656594Y-119807030D01*
X66467897Y-119577103D01*
X66237970Y-119388406D01*
X65975648Y-119248192D01*
X65691012Y-119161849D01*
X65469178Y-119140000D01*
X64070822Y-119140000D01*
X63848988Y-119161849D01*
X63564352Y-119248192D01*
X63302030Y-119388406D01*
X63072103Y-119577103D01*
X62883406Y-119807030D01*
X62743192Y-120069352D01*
X62656849Y-120353988D01*
X62627694Y-120650000D01*
X62656849Y-120946012D01*
X62743192Y-121230648D01*
X62883406Y-121492970D01*
X63072103Y-121722897D01*
X63302030Y-121911594D01*
X63317757Y-121920000D01*
X63302030Y-121928406D01*
X63072103Y-122117103D01*
X62883406Y-122347030D01*
X62743192Y-122609352D01*
X62656849Y-122893988D01*
X62627694Y-123190000D01*
X62656849Y-123486012D01*
X62743192Y-123770648D01*
X62883406Y-124032970D01*
X63072103Y-124262897D01*
X63302030Y-124451594D01*
X63317757Y-124460000D01*
X63302030Y-124468406D01*
X63072103Y-124657103D01*
X62883406Y-124887030D01*
X62743192Y-125149352D01*
X62656849Y-125433988D01*
X62627694Y-125730000D01*
X62656849Y-126026012D01*
X62743192Y-126310648D01*
X62883406Y-126572970D01*
X63072103Y-126802897D01*
X63302030Y-126991594D01*
X63317757Y-127000000D01*
X63302030Y-127008406D01*
X63072103Y-127197103D01*
X62883406Y-127427030D01*
X62743192Y-127689352D01*
X62656849Y-127973988D01*
X62627694Y-128270000D01*
X62656849Y-128566012D01*
X62743192Y-128850648D01*
X62883406Y-129112970D01*
X63072103Y-129342897D01*
X63302030Y-129531594D01*
X63317757Y-129540000D01*
X63302030Y-129548406D01*
X63269625Y-129575000D01*
X60201554Y-129575000D01*
X58385000Y-127758447D01*
X58385000Y-104651553D01*
X58931554Y-104105000D01*
X61999625Y-104105000D01*
X62032030Y-104131594D01*
X62294352Y-104271808D01*
X62578988Y-104358151D01*
X62800822Y-104380000D01*
X64199178Y-104380000D01*
X64421012Y-104358151D01*
X64705648Y-104271808D01*
X64967970Y-104131594D01*
X65197897Y-103942897D01*
X65386594Y-103712970D01*
X65526808Y-103450648D01*
X65613151Y-103166012D01*
X65642306Y-102870000D01*
X65613151Y-102573988D01*
X65526808Y-102289352D01*
X65386594Y-102027030D01*
X65197897Y-101797103D01*
X64967970Y-101608406D01*
X64952243Y-101600000D01*
X64967970Y-101591594D01*
X65197897Y-101402897D01*
X65386594Y-101172970D01*
X65526808Y-100910648D01*
X65613151Y-100626012D01*
X65642306Y-100330000D01*
X65613151Y-100033988D01*
X65526808Y-99749352D01*
X65386594Y-99487030D01*
X65197897Y-99257103D01*
X64967970Y-99068406D01*
X64952243Y-99060000D01*
X64967970Y-99051594D01*
X65197897Y-98862897D01*
X65386594Y-98632970D01*
X65526808Y-98370648D01*
X65613151Y-98086012D01*
X65642306Y-97790000D01*
X65613151Y-97493988D01*
X65526808Y-97209352D01*
X65386594Y-96947030D01*
X65197897Y-96717103D01*
X64967970Y-96528406D01*
X64952243Y-96520000D01*
X64967970Y-96511594D01*
X65197897Y-96322897D01*
X65386594Y-96092970D01*
X65526808Y-95830648D01*
X65613151Y-95546012D01*
X65642306Y-95250000D01*
X65613151Y-94953988D01*
X65526808Y-94669352D01*
X65386594Y-94407030D01*
X65197897Y-94177103D01*
X64967970Y-93988406D01*
X64952243Y-93980000D01*
X64967970Y-93971594D01*
X65197897Y-93782897D01*
X65386594Y-93552970D01*
X65526808Y-93290648D01*
X65613151Y-93006012D01*
X65642306Y-92710000D01*
X65613151Y-92413988D01*
X65526808Y-92129352D01*
X65386594Y-91867030D01*
X65197897Y-91637103D01*
X64967970Y-91448406D01*
X64705648Y-91308192D01*
X64421012Y-91221849D01*
X64199178Y-91200000D01*
X62800822Y-91200000D01*
X62578988Y-91221849D01*
X62294352Y-91308192D01*
X62032030Y-91448406D01*
X61802103Y-91637103D01*
X61613406Y-91867030D01*
X61473192Y-92129352D01*
X61386849Y-92413988D01*
X61357694Y-92710000D01*
X61386849Y-93006012D01*
X61473192Y-93290648D01*
X61613406Y-93552970D01*
X61802103Y-93782897D01*
X62032030Y-93971594D01*
X62047757Y-93980000D01*
X62032030Y-93988406D01*
X61802103Y-94177103D01*
X61613406Y-94407030D01*
X61473192Y-94669352D01*
X61386849Y-94953988D01*
X61357694Y-95250000D01*
X61386849Y-95546012D01*
X61473192Y-95830648D01*
X61613406Y-96092970D01*
X61802103Y-96322897D01*
X62032030Y-96511594D01*
X62047757Y-96520000D01*
X62032030Y-96528406D01*
X61802103Y-96717103D01*
X61613406Y-96947030D01*
X61473192Y-97209352D01*
X61386849Y-97493988D01*
X61357694Y-97790000D01*
X61386849Y-98086012D01*
X61473192Y-98370648D01*
X61613406Y-98632970D01*
X61802103Y-98862897D01*
X62032030Y-99051594D01*
X62047757Y-99060000D01*
X62032030Y-99068406D01*
X61802103Y-99257103D01*
X61613406Y-99487030D01*
X61473192Y-99749352D01*
X61386849Y-100033988D01*
X61357694Y-100330000D01*
X61386849Y-100626012D01*
X61473192Y-100910648D01*
X61613406Y-101172970D01*
X61802103Y-101402897D01*
X62032030Y-101591594D01*
X62047757Y-101600000D01*
X62032030Y-101608406D01*
X61999625Y-101635000D01*
X58480664Y-101635000D01*
X58419999Y-101629025D01*
X58177897Y-101652870D01*
X57945099Y-101723489D01*
X57730551Y-101838167D01*
X57542498Y-101992498D01*
X57503826Y-102039620D01*
X56319621Y-103223826D01*
X56272499Y-103262498D01*
X56118168Y-103450551D01*
X56003490Y-103665099D01*
X56003489Y-103665101D01*
X55932870Y-103897898D01*
X55909025Y-104140000D01*
X35525000Y-104140000D01*
X35525000Y-94491553D01*
X37341554Y-92675000D01*
X39139625Y-92675000D01*
X39172030Y-92701594D01*
X39434352Y-92841808D01*
X39718988Y-92928151D01*
X39940822Y-92950000D01*
X41339178Y-92950000D01*
X41561012Y-92928151D01*
X41845648Y-92841808D01*
X42107970Y-92701594D01*
X42337897Y-92512897D01*
X42526594Y-92282970D01*
X42666808Y-92020648D01*
X42753151Y-91736012D01*
X42782306Y-91440000D01*
X42753151Y-91143988D01*
X42666808Y-90859352D01*
X42526594Y-90597030D01*
X42337897Y-90367103D01*
X42107970Y-90178406D01*
X41845648Y-90038192D01*
X41561012Y-89951849D01*
X41339178Y-89930000D01*
X39940822Y-89930000D01*
X39718988Y-89951849D01*
X39434352Y-90038192D01*
X39172030Y-90178406D01*
X39139625Y-90205000D01*
X37341554Y-90205000D01*
X35525000Y-88388447D01*
X35525000Y-76200000D01*
X38497694Y-76200000D01*
X38526849Y-76496012D01*
X38613192Y-76780648D01*
X38753406Y-77042970D01*
X38942103Y-77272897D01*
X39172030Y-77461594D01*
X39434352Y-77601808D01*
X39718988Y-77688151D01*
X39940822Y-77710000D01*
X41339178Y-77710000D01*
X41561012Y-77688151D01*
X41845648Y-77601808D01*
X42107970Y-77461594D01*
X42140375Y-77435000D01*
X51558447Y-77435000D01*
X54963826Y-80840380D01*
X55002498Y-80887502D01*
X55190551Y-81041833D01*
X55405099Y-81156511D01*
X55637898Y-81227130D01*
X55880000Y-81250975D01*
X55940665Y-81245000D01*
X61999625Y-81245000D01*
X62032030Y-81271594D01*
X62047757Y-81280000D01*
X62032030Y-81288406D01*
X61999625Y-81315000D01*
X59910665Y-81315000D01*
X59850000Y-81309025D01*
X59789335Y-81315000D01*
X59607898Y-81332870D01*
X59375099Y-81403489D01*
X59160551Y-81518167D01*
X58972498Y-81672498D01*
X58933826Y-81719620D01*
X42828447Y-97825000D01*
X42140375Y-97825000D01*
X42107970Y-97798406D01*
X41845648Y-97658192D01*
X41561012Y-97571849D01*
X41339178Y-97550000D01*
X39940822Y-97550000D01*
X39718988Y-97571849D01*
X39434352Y-97658192D01*
X39172030Y-97798406D01*
X38942103Y-97987103D01*
X38753406Y-98217030D01*
X38613192Y-98479352D01*
X38526849Y-98763988D01*
X38497694Y-99060000D01*
X38526849Y-99356012D01*
X38613192Y-99640648D01*
X38753406Y-99902970D01*
X38942103Y-100132897D01*
X39172030Y-100321594D01*
X39434352Y-100461808D01*
X39718988Y-100548151D01*
X39940822Y-100570000D01*
X41339178Y-100570000D01*
X41561012Y-100548151D01*
X41845648Y-100461808D01*
X42107970Y-100321594D01*
X42140375Y-100295000D01*
X43279335Y-100295000D01*
X43340000Y-100300975D01*
X43400665Y-100295000D01*
X43582102Y-100277130D01*
X43814901Y-100206511D01*
X44029449Y-100091833D01*
X44217502Y-99937502D01*
X44256179Y-99890374D01*
X60361554Y-83785000D01*
X61999625Y-83785000D01*
X62032030Y-83811594D01*
X62047757Y-83820000D01*
X62032030Y-83828406D01*
X61802103Y-84017103D01*
X61613406Y-84247030D01*
X61473192Y-84509352D01*
X61386849Y-84793988D01*
X61357694Y-85090000D01*
X61386849Y-85386012D01*
X61473192Y-85670648D01*
X61613406Y-85932970D01*
X61802103Y-86162897D01*
X62032030Y-86351594D01*
X62047757Y-86360000D01*
X62032030Y-86368406D01*
X61802103Y-86557103D01*
X61613406Y-86787030D01*
X61473192Y-87049352D01*
X61386849Y-87333988D01*
X61357694Y-87630000D01*
X61386849Y-87926012D01*
X61473192Y-88210648D01*
X61613406Y-88472970D01*
X61802103Y-88702897D01*
X62032030Y-88891594D01*
X62294352Y-89031808D01*
X62578988Y-89118151D01*
X62800822Y-89140000D01*
X64199178Y-89140000D01*
X64421012Y-89118151D01*
X64705648Y-89031808D01*
X64967970Y-88891594D01*
X65197897Y-88702897D01*
X65386594Y-88472970D01*
X65526808Y-88210648D01*
X65613151Y-87926012D01*
X65642306Y-87630000D01*
X65613151Y-87333988D01*
X65526808Y-87049352D01*
X65386594Y-86787030D01*
X65197897Y-86557103D01*
X64967970Y-86368406D01*
X64952243Y-86360000D01*
X64967970Y-86351594D01*
X65197897Y-86162897D01*
X65386594Y-85932970D01*
X65526808Y-85670648D01*
X65613151Y-85386012D01*
X65642306Y-85090000D01*
X65613151Y-84793988D01*
X65526808Y-84509352D01*
X65386594Y-84247030D01*
X65197897Y-84017103D01*
X64967970Y-83828406D01*
X64952243Y-83820000D01*
X64967970Y-83811594D01*
X65197897Y-83622897D01*
X65386594Y-83392970D01*
X65526808Y-83130648D01*
X65613151Y-82846012D01*
X65642306Y-82550000D01*
X65613151Y-82253988D01*
X65526808Y-81969352D01*
X65386594Y-81707030D01*
X65197897Y-81477103D01*
X64967970Y-81288406D01*
X64952243Y-81280000D01*
X64967970Y-81271594D01*
X65197897Y-81082897D01*
X65386594Y-80852970D01*
X65526808Y-80590648D01*
X65613151Y-80306012D01*
X65642306Y-80010000D01*
X65613151Y-79713988D01*
X65526808Y-79429352D01*
X65386594Y-79167030D01*
X65197897Y-78937103D01*
X64967970Y-78748406D01*
X64952243Y-78740000D01*
X64967970Y-78731594D01*
X65000375Y-78705000D01*
X68519335Y-78705000D01*
X68580000Y-78710975D01*
X68640665Y-78705000D01*
X68822102Y-78687130D01*
X69054901Y-78616511D01*
X69269449Y-78501833D01*
X69457502Y-78347502D01*
X69496178Y-78300375D01*
X73220380Y-74576174D01*
X73267502Y-74537502D01*
X73421833Y-74349449D01*
X73536511Y-74134901D01*
X73607130Y-73902102D01*
X73625000Y-73720665D01*
X73630975Y-73660000D01*
X73625000Y-73599335D01*
X73625000Y-69091553D01*
X92270381Y-50446173D01*
X92317502Y-50407502D01*
X92471833Y-50219449D01*
X92586511Y-50004901D01*
X92657130Y-49772102D01*
X92675000Y-49590665D01*
X92675000Y-49590656D01*
X92680974Y-49530001D01*
X92675000Y-49469346D01*
X92675000Y-47220375D01*
X92701594Y-47187970D01*
X92841808Y-46925648D01*
X92928151Y-46641012D01*
X92950000Y-46419178D01*
X92950000Y-45020822D01*
X92928151Y-44798988D01*
X92841808Y-44514352D01*
X92701594Y-44252030D01*
X92512897Y-44022103D01*
X92282969Y-43833406D01*
X92020647Y-43693192D01*
X91736011Y-43606849D01*
X91440000Y-43577694D01*
X91143988Y-43606849D01*
X90859352Y-43693192D01*
X90597030Y-43833406D01*
X90367103Y-44022103D01*
X90178406Y-44252031D01*
X90038192Y-44514353D01*
X89951849Y-44798989D01*
X89930000Y-45020823D01*
X89930000Y-46419178D01*
X89951849Y-46641012D01*
X90038192Y-46925648D01*
X90178407Y-47187970D01*
X90205000Y-47220374D01*
X90205001Y-49018445D01*
X71559626Y-67663821D01*
X71512498Y-67702498D01*
X71358167Y-67890552D01*
X71243489Y-68105100D01*
X71243489Y-68105101D01*
X71172870Y-68337898D01*
X71149025Y-68580000D01*
X71155000Y-68640665D01*
X71155001Y-73148445D01*
X68068447Y-76235000D01*
X65000375Y-76235000D01*
X64967970Y-76208406D01*
X64952243Y-76200000D01*
X64967970Y-76191594D01*
X65197897Y-76002897D01*
X65386594Y-75772970D01*
X65526808Y-75510648D01*
X65613151Y-75226012D01*
X65642306Y-74930000D01*
X65613151Y-74633988D01*
X65526808Y-74349352D01*
X65386594Y-74087030D01*
X65197897Y-73857103D01*
X64967970Y-73668406D01*
X64952243Y-73660000D01*
X64967970Y-73651594D01*
X65197897Y-73462897D01*
X65386594Y-73232970D01*
X65526808Y-72970648D01*
X65613151Y-72686012D01*
X65642306Y-72390000D01*
X65613151Y-72093988D01*
X65526808Y-71809352D01*
X65386594Y-71547030D01*
X65197897Y-71317103D01*
X64967970Y-71128406D01*
X64952243Y-71120000D01*
X64967970Y-71111594D01*
X65197897Y-70922897D01*
X65386594Y-70692970D01*
X65526808Y-70430648D01*
X65613151Y-70146012D01*
X65642306Y-69850000D01*
X65613151Y-69553988D01*
X65526808Y-69269352D01*
X65386594Y-69007030D01*
X65197897Y-68777103D01*
X64967970Y-68588406D01*
X64952243Y-68580000D01*
X64967970Y-68571594D01*
X65197897Y-68382897D01*
X65386594Y-68152970D01*
X65526808Y-67890648D01*
X65613151Y-67606012D01*
X65642306Y-67310000D01*
X65613151Y-67013988D01*
X65526808Y-66729352D01*
X65386594Y-66467030D01*
X65197897Y-66237103D01*
X64967970Y-66048406D01*
X64952243Y-66040000D01*
X64967970Y-66031594D01*
X65197897Y-65842897D01*
X65386594Y-65612970D01*
X65526808Y-65350648D01*
X65613151Y-65066012D01*
X65642306Y-64770000D01*
X65613151Y-64473988D01*
X65526808Y-64189352D01*
X65386594Y-63927030D01*
X65197897Y-63697103D01*
X64967970Y-63508406D01*
X64952243Y-63500000D01*
X64967970Y-63491594D01*
X65197897Y-63302897D01*
X65386594Y-63072970D01*
X65526808Y-62810648D01*
X65613151Y-62526012D01*
X65642306Y-62230000D01*
X65613151Y-61933988D01*
X65526808Y-61649352D01*
X65386594Y-61387030D01*
X65197897Y-61157103D01*
X64967970Y-60968406D01*
X64952243Y-60960000D01*
X64967970Y-60951594D01*
X65197897Y-60762897D01*
X65386594Y-60532970D01*
X65526808Y-60270648D01*
X65613151Y-59986012D01*
X65642306Y-59690000D01*
X65613151Y-59393988D01*
X65526808Y-59109352D01*
X65386594Y-58847030D01*
X65197897Y-58617103D01*
X64967970Y-58428406D01*
X64952243Y-58420000D01*
X64967970Y-58411594D01*
X65000375Y-58385000D01*
X74869335Y-58385000D01*
X74930000Y-58390975D01*
X74990665Y-58385000D01*
X75172102Y-58367130D01*
X75404901Y-58296511D01*
X75619449Y-58181833D01*
X75807502Y-58027502D01*
X75846179Y-57980374D01*
X91951554Y-41875000D01*
X102358447Y-41875000D01*
X104175000Y-43691554D01*
X104175000Y-44219626D01*
X104148406Y-44252031D01*
X104008192Y-44514353D01*
X103921849Y-44798989D01*
X103900000Y-45020823D01*
X103900000Y-46419178D01*
X103921849Y-46641012D01*
X104008192Y-46925648D01*
X104148407Y-47187970D01*
X104175000Y-47220374D01*
X104175000Y-47748446D01*
X103628447Y-48295000D01*
X99120654Y-48295000D01*
X99059999Y-48289026D01*
X98999344Y-48295000D01*
X98999335Y-48295000D01*
X98817898Y-48312870D01*
X98585099Y-48383489D01*
X98370551Y-48498167D01*
X98182498Y-48652498D01*
X98143826Y-48699620D01*
X95689621Y-51153826D01*
X95642499Y-51192498D01*
X95488168Y-51380551D01*
X95373489Y-51595099D01*
X95336762Y-51716173D01*
X95302870Y-51827898D01*
X95279025Y-52070000D01*
X95285000Y-52130665D01*
X95285000Y-52605377D01*
X95248320Y-52660273D01*
X95140147Y-52921426D01*
X95085000Y-53198665D01*
X95085000Y-53481335D01*
X95140147Y-53758574D01*
X95248320Y-54019727D01*
X95405363Y-54254759D01*
X95605241Y-54454637D01*
X95840273Y-54611680D01*
X96101426Y-54719853D01*
X96378665Y-54775000D01*
X96661335Y-54775000D01*
X96938574Y-54719853D01*
X97199727Y-54611680D01*
X97434759Y-54454637D01*
X97634637Y-54254759D01*
X97790000Y-54022241D01*
X97945363Y-54254759D01*
X98145241Y-54454637D01*
X98380273Y-54611680D01*
X98641426Y-54719853D01*
X98918665Y-54775000D01*
X99201335Y-54775000D01*
X99478574Y-54719853D01*
X99739727Y-54611680D01*
X99794623Y-54575000D01*
X103698446Y-54575000D01*
X97278447Y-60995000D01*
X90700375Y-60995000D01*
X90667970Y-60968406D01*
X90652243Y-60960000D01*
X90667970Y-60951594D01*
X90897897Y-60762897D01*
X91086594Y-60532970D01*
X91226808Y-60270648D01*
X91313151Y-59986012D01*
X91342306Y-59690000D01*
X91313151Y-59393988D01*
X91226808Y-59109352D01*
X91086594Y-58847030D01*
X90897897Y-58617103D01*
X90667970Y-58428406D01*
X90405648Y-58288192D01*
X90121012Y-58201849D01*
X89899178Y-58180000D01*
X88500822Y-58180000D01*
X88278988Y-58201849D01*
X87994352Y-58288192D01*
X87732030Y-58428406D01*
X87502103Y-58617103D01*
X87313406Y-58847030D01*
X87173192Y-59109352D01*
X87086849Y-59393988D01*
X87057694Y-59690000D01*
X87086849Y-59986012D01*
X87173192Y-60270648D01*
X87313406Y-60532970D01*
X87502103Y-60762897D01*
X87732030Y-60951594D01*
X87747757Y-60960000D01*
X87732030Y-60968406D01*
X87502103Y-61157103D01*
X87313406Y-61387030D01*
X87173192Y-61649352D01*
X87086849Y-61933988D01*
X87057694Y-62230000D01*
X87086849Y-62526012D01*
X87173192Y-62810648D01*
X87313406Y-63072970D01*
X87502103Y-63302897D01*
X87732030Y-63491594D01*
X87747757Y-63500000D01*
X87732030Y-63508406D01*
X87502103Y-63697103D01*
X87313406Y-63927030D01*
X87173192Y-64189352D01*
X87086849Y-64473988D01*
X87057694Y-64770000D01*
X87086849Y-65066012D01*
X87173192Y-65350648D01*
X87313406Y-65612970D01*
X87502103Y-65842897D01*
X87732030Y-66031594D01*
X87747757Y-66040000D01*
X87732030Y-66048406D01*
X87502103Y-66237103D01*
X87313406Y-66467030D01*
X87173192Y-66729352D01*
X87086849Y-67013988D01*
X87057694Y-67310000D01*
X87086849Y-67606012D01*
X87173192Y-67890648D01*
X87313406Y-68152970D01*
X87502103Y-68382897D01*
X87732030Y-68571594D01*
X87747757Y-68580000D01*
X87732030Y-68588406D01*
X87502103Y-68777103D01*
X87313406Y-69007030D01*
X87173192Y-69269352D01*
X87086849Y-69553988D01*
X87057694Y-69850000D01*
X87086849Y-70146012D01*
X87173192Y-70430648D01*
X87313406Y-70692970D01*
X87502103Y-70922897D01*
X87732030Y-71111594D01*
X87994352Y-71251808D01*
X88278988Y-71338151D01*
X88500822Y-71360000D01*
X89899178Y-71360000D01*
X90121012Y-71338151D01*
X90405648Y-71251808D01*
X90667970Y-71111594D01*
X90700375Y-71085000D01*
X92649335Y-71085000D01*
X92710000Y-71090975D01*
X92770665Y-71085000D01*
X92952102Y-71067130D01*
X93184901Y-70996511D01*
X93399449Y-70881833D01*
X93587502Y-70727502D01*
X93626179Y-70680374D01*
X113860374Y-50446179D01*
X113907502Y-50407502D01*
X114061833Y-50219449D01*
X114176511Y-50004901D01*
X114247130Y-49772102D01*
X114265000Y-49590665D01*
X114265000Y-49590664D01*
X114270975Y-49530000D01*
X114265000Y-49469335D01*
X114265000Y-47220375D01*
X114291594Y-47187970D01*
X114431808Y-46925648D01*
X114518151Y-46641012D01*
X114540000Y-46419178D01*
X114540000Y-45554042D01*
X116425000Y-45554042D01*
X116425000Y-45885958D01*
X116489754Y-46211496D01*
X116616772Y-46518147D01*
X116801175Y-46794125D01*
X117035875Y-47028825D01*
X117311853Y-47213228D01*
X117618504Y-47340246D01*
X117944042Y-47405000D01*
X118275958Y-47405000D01*
X118601496Y-47340246D01*
X118908147Y-47213228D01*
X119184125Y-47028825D01*
X119380000Y-46832950D01*
X119575875Y-47028825D01*
X119851853Y-47213228D01*
X120158504Y-47340246D01*
X120484042Y-47405000D01*
X120815958Y-47405000D01*
X121141496Y-47340246D01*
X121448147Y-47213228D01*
X121724125Y-47028825D01*
X121958825Y-46794125D01*
X122143228Y-46518147D01*
X122270246Y-46211496D01*
X122335000Y-45885958D01*
X122335000Y-45554042D01*
X122270246Y-45228504D01*
X122143228Y-44921853D01*
X121958825Y-44645875D01*
X121724125Y-44411175D01*
X121448147Y-44226772D01*
X121141496Y-44099754D01*
X120815958Y-44035000D01*
X120484042Y-44035000D01*
X120158504Y-44099754D01*
X119851853Y-44226772D01*
X119575875Y-44411175D01*
X119380000Y-44607050D01*
X119184125Y-44411175D01*
X118908147Y-44226772D01*
X118601496Y-44099754D01*
X118275958Y-44035000D01*
X117944042Y-44035000D01*
X117618504Y-44099754D01*
X117311853Y-44226772D01*
X117035875Y-44411175D01*
X116801175Y-44645875D01*
X116616772Y-44921853D01*
X116489754Y-45228504D01*
X116425000Y-45554042D01*
X114540000Y-45554042D01*
X114540000Y-45020822D01*
X114518151Y-44798988D01*
X114431808Y-44514352D01*
X114291594Y-44252030D01*
X114265000Y-44219625D01*
X114265000Y-43240665D01*
X114270975Y-43180000D01*
X114247130Y-42937898D01*
X114222979Y-42858283D01*
X114176511Y-42705099D01*
X114061833Y-42490551D01*
X113907502Y-42302498D01*
X113860381Y-42263827D01*
X109342734Y-37746181D01*
X109329853Y-37681426D01*
X109221680Y-37420273D01*
X109064637Y-37185241D01*
X108864759Y-36985363D01*
X108629727Y-36828320D01*
X108368574Y-36720147D01*
X108091335Y-36665000D01*
X107808665Y-36665000D01*
X107531426Y-36720147D01*
X107270273Y-36828320D01*
X107035241Y-36985363D01*
X106835363Y-37185241D01*
X106680000Y-37417759D01*
X106524637Y-37185241D01*
X106324759Y-36985363D01*
X106089727Y-36828320D01*
X105828574Y-36720147D01*
X105551335Y-36665000D01*
X105268665Y-36665000D01*
X104991426Y-36720147D01*
X104730273Y-36828320D01*
X104495241Y-36985363D01*
X104295363Y-37185241D01*
X104138320Y-37420273D01*
X104030147Y-37681426D01*
X104017267Y-37746180D01*
X102358447Y-39405000D01*
X91500665Y-39405000D01*
X91440000Y-39399025D01*
X91379335Y-39405000D01*
X91197898Y-39422870D01*
X90965099Y-39493489D01*
X90750551Y-39608167D01*
X90562498Y-39762498D01*
X90523827Y-39809619D01*
X74418447Y-55915000D01*
X65000375Y-55915000D01*
X64967970Y-55888406D01*
X64705648Y-55748192D01*
X64421012Y-55661849D01*
X64199178Y-55640000D01*
X62800822Y-55640000D01*
X62578988Y-55661849D01*
X62294352Y-55748192D01*
X62032030Y-55888406D01*
X61802103Y-56077103D01*
X61613406Y-56307030D01*
X61473192Y-56569352D01*
X61386849Y-56853988D01*
X61357694Y-57150000D01*
X61386849Y-57446012D01*
X61473192Y-57730648D01*
X61613406Y-57992970D01*
X61802103Y-58222897D01*
X62032030Y-58411594D01*
X62047757Y-58420000D01*
X62032030Y-58428406D01*
X61802103Y-58617103D01*
X61613406Y-58847030D01*
X61473192Y-59109352D01*
X61386849Y-59393988D01*
X61357694Y-59690000D01*
X61386849Y-59986012D01*
X61473192Y-60270648D01*
X61613406Y-60532970D01*
X61802103Y-60762897D01*
X62032030Y-60951594D01*
X62047757Y-60960000D01*
X62032030Y-60968406D01*
X61802103Y-61157103D01*
X61613406Y-61387030D01*
X61473192Y-61649352D01*
X61386849Y-61933988D01*
X61357694Y-62230000D01*
X61386849Y-62526012D01*
X61473192Y-62810648D01*
X61613406Y-63072970D01*
X61802103Y-63302897D01*
X62032030Y-63491594D01*
X62047757Y-63500000D01*
X62032030Y-63508406D01*
X61802103Y-63697103D01*
X61613406Y-63927030D01*
X61473192Y-64189352D01*
X61386849Y-64473988D01*
X61357694Y-64770000D01*
X61386849Y-65066012D01*
X61473192Y-65350648D01*
X61613406Y-65612970D01*
X61802103Y-65842897D01*
X62032030Y-66031594D01*
X62047757Y-66040000D01*
X62032030Y-66048406D01*
X61802103Y-66237103D01*
X61613406Y-66467030D01*
X61473192Y-66729352D01*
X61386849Y-67013988D01*
X61357694Y-67310000D01*
X61386849Y-67606012D01*
X61473192Y-67890648D01*
X61613406Y-68152970D01*
X61802103Y-68382897D01*
X62032030Y-68571594D01*
X62047757Y-68580000D01*
X62032030Y-68588406D01*
X61802103Y-68777103D01*
X61613406Y-69007030D01*
X61473192Y-69269352D01*
X61386849Y-69553988D01*
X61357694Y-69850000D01*
X61386849Y-70146012D01*
X61473192Y-70430648D01*
X61613406Y-70692970D01*
X61802103Y-70922897D01*
X62032030Y-71111594D01*
X62047757Y-71120000D01*
X62032030Y-71128406D01*
X61802103Y-71317103D01*
X61613406Y-71547030D01*
X61473192Y-71809352D01*
X61386849Y-72093988D01*
X61357694Y-72390000D01*
X61386849Y-72686012D01*
X61473192Y-72970648D01*
X61613406Y-73232970D01*
X61802103Y-73462897D01*
X62032030Y-73651594D01*
X62047757Y-73660000D01*
X62032030Y-73668406D01*
X61802103Y-73857103D01*
X61613406Y-74087030D01*
X61473192Y-74349352D01*
X61386849Y-74633988D01*
X61357694Y-74930000D01*
X61386849Y-75226012D01*
X61473192Y-75510648D01*
X61613406Y-75772970D01*
X61802103Y-76002897D01*
X62032030Y-76191594D01*
X62047757Y-76200000D01*
X62032030Y-76208406D01*
X61802103Y-76397103D01*
X61613406Y-76627030D01*
X61473192Y-76889352D01*
X61386849Y-77173988D01*
X61357694Y-77470000D01*
X61386849Y-77766012D01*
X61473192Y-78050648D01*
X61613406Y-78312970D01*
X61802103Y-78542897D01*
X62032030Y-78731594D01*
X62047757Y-78740000D01*
X62032030Y-78748406D01*
X61999625Y-78775000D01*
X56391554Y-78775000D01*
X52986178Y-75369625D01*
X52947502Y-75322498D01*
X52759449Y-75168167D01*
X52544901Y-75053489D01*
X52312102Y-74982870D01*
X52130665Y-74965000D01*
X52070000Y-74959025D01*
X52009335Y-74965000D01*
X42140375Y-74965000D01*
X42107970Y-74938406D01*
X41845648Y-74798192D01*
X41561012Y-74711849D01*
X41339178Y-74690000D01*
X39940822Y-74690000D01*
X39718988Y-74711849D01*
X39434352Y-74798192D01*
X39172030Y-74938406D01*
X38942103Y-75127103D01*
X38753406Y-75357030D01*
X38613192Y-75619352D01*
X38526849Y-75903988D01*
X38497694Y-76200000D01*
X35525000Y-76200000D01*
X35525000Y-71631553D01*
X37341554Y-69815000D01*
X39139625Y-69815000D01*
X39172030Y-69841594D01*
X39434352Y-69981808D01*
X39718988Y-70068151D01*
X39940822Y-70090000D01*
X41339178Y-70090000D01*
X41561012Y-70068151D01*
X41845648Y-69981808D01*
X42107970Y-69841594D01*
X42337897Y-69652897D01*
X42526594Y-69422970D01*
X42666808Y-69160648D01*
X42753151Y-68876012D01*
X42782306Y-68580000D01*
X42753151Y-68283988D01*
X42666808Y-67999352D01*
X42526594Y-67737030D01*
X42337897Y-67507103D01*
X42107970Y-67318406D01*
X41845648Y-67178192D01*
X41561012Y-67091849D01*
X41339178Y-67070000D01*
X39940822Y-67070000D01*
X39718988Y-67091849D01*
X39434352Y-67178192D01*
X39172030Y-67318406D01*
X39139625Y-67345000D01*
X36890654Y-67345000D01*
X36829999Y-67339026D01*
X36769344Y-67345000D01*
X36769335Y-67345000D01*
X36587898Y-67362870D01*
X36355099Y-67433489D01*
X36140551Y-67548167D01*
X35952498Y-67702498D01*
X35913826Y-67749620D01*
X33459625Y-70203822D01*
X33412498Y-70242498D01*
X33258167Y-70430552D01*
X33143489Y-70645100D01*
X33143489Y-70645101D01*
X33072870Y-70877898D01*
X33049025Y-71120000D01*
X33055000Y-71180665D01*
X33055001Y-88839325D01*
X33049025Y-88900000D01*
X33072870Y-89142102D01*
X33128968Y-89327030D01*
X33143490Y-89374901D01*
X33258168Y-89589449D01*
X33412499Y-89777502D01*
X33459621Y-89816174D01*
X35083446Y-91440000D01*
X33459625Y-93063822D01*
X33412498Y-93102498D01*
X33258167Y-93290552D01*
X33143489Y-93505100D01*
X33143489Y-93505101D01*
X33072870Y-93737898D01*
X33049025Y-93980000D01*
X33055000Y-94040665D01*
X33055001Y-112969325D01*
X33049025Y-113030000D01*
X33072870Y-113272102D01*
X33143489Y-113504899D01*
X33143490Y-113504901D01*
X33258168Y-113719449D01*
X33412499Y-113907502D01*
X33459621Y-113946174D01*
X62896446Y-143383000D01*
X29337000Y-143383000D01*
X29337000Y-35687000D01*
X131598530Y-35687000D01*
X131390551Y-35798167D01*
G37*
X131390551Y-35798167D02*
X131202498Y-35952498D01*
X131163826Y-35999620D01*
X124899625Y-42263821D01*
X124852498Y-42302498D01*
X124698167Y-42490552D01*
X124583489Y-42705100D01*
X124583489Y-42705101D01*
X124512870Y-42937898D01*
X124489025Y-43180000D01*
X124495000Y-43240666D01*
X124495000Y-44062546D01*
X124435820Y-44080498D01*
X124325506Y-44139463D01*
X124228815Y-44218815D01*
X124149463Y-44315506D01*
X124090498Y-44425820D01*
X124054188Y-44545518D01*
X124041928Y-44670000D01*
X124041928Y-46770000D01*
X124054188Y-46894482D01*
X124090498Y-47014180D01*
X124149463Y-47124494D01*
X124228815Y-47221185D01*
X124325506Y-47300537D01*
X124435820Y-47359502D01*
X124555518Y-47395812D01*
X124680000Y-47408072D01*
X126780000Y-47408072D01*
X126904482Y-47395812D01*
X127024180Y-47359502D01*
X127134494Y-47300537D01*
X127231185Y-47221185D01*
X127310537Y-47124494D01*
X127369502Y-47014180D01*
X127405812Y-46894482D01*
X127418072Y-46770000D01*
X127418072Y-44670000D01*
X127405812Y-44545518D01*
X127369502Y-44425820D01*
X127310537Y-44315506D01*
X127231185Y-44218815D01*
X127134494Y-44139463D01*
X127024180Y-44080498D01*
X126965000Y-44062546D01*
X126965000Y-43691553D01*
X132591554Y-38065000D01*
X148078447Y-38065000D01*
X148248447Y-38235000D01*
X137215741Y-38235000D01*
X137159999Y-38229510D01*
X137104257Y-38235000D01*
X137104248Y-38235000D01*
X136937501Y-38251423D01*
X136723553Y-38316324D01*
X136526377Y-38421716D01*
X136353551Y-38563551D01*
X136318009Y-38606859D01*
X133856860Y-41068009D01*
X133813552Y-41103551D01*
X133671717Y-41276377D01*
X133643350Y-41329448D01*
X133566324Y-41473554D01*
X133501423Y-41687502D01*
X133479509Y-41910000D01*
X133485001Y-41965761D01*
X133485000Y-44419814D01*
X133462843Y-44446813D01*
X133350000Y-44657927D01*
X133237157Y-44446812D01*
X133064080Y-44235919D01*
X132853187Y-44062843D01*
X132612580Y-43934236D01*
X132351506Y-43855040D01*
X132080000Y-43828299D01*
X131808493Y-43855040D01*
X131547419Y-43934236D01*
X131306812Y-44062843D01*
X131095919Y-44235920D01*
X130922843Y-44446813D01*
X130794236Y-44687420D01*
X130715040Y-44948494D01*
X130695000Y-45151964D01*
X130695000Y-46288037D01*
X130715040Y-46491507D01*
X130794236Y-46752581D01*
X130845001Y-46847555D01*
X130845000Y-47748446D01*
X129028447Y-49565000D01*
X124520665Y-49565000D01*
X124460000Y-49559025D01*
X124399335Y-49565000D01*
X124217898Y-49582870D01*
X123985099Y-49653489D01*
X123770551Y-49768167D01*
X123582498Y-49922498D01*
X123543826Y-49969620D01*
X118549621Y-54963826D01*
X118502499Y-55002498D01*
X118348168Y-55190551D01*
X118267016Y-55342376D01*
X118233489Y-55405101D01*
X118162870Y-55637898D01*
X118139025Y-55880000D01*
X118145001Y-55940675D01*
X118145000Y-58032546D01*
X118085820Y-58050498D01*
X117975506Y-58109463D01*
X117878815Y-58188815D01*
X117799463Y-58285506D01*
X117740498Y-58395820D01*
X117704188Y-58515518D01*
X117691928Y-58640000D01*
X117691928Y-60740000D01*
X117704188Y-60864482D01*
X117740498Y-60984180D01*
X117799463Y-61094494D01*
X117878815Y-61191185D01*
X117975506Y-61270537D01*
X118085820Y-61329502D01*
X118205518Y-61365812D01*
X118330000Y-61378072D01*
X120430000Y-61378072D01*
X120554482Y-61365812D01*
X120674180Y-61329502D01*
X120685000Y-61323718D01*
X120685000Y-61718446D01*
X120138447Y-62265000D01*
X111820664Y-62265000D01*
X111759999Y-62259025D01*
X111517897Y-62282870D01*
X111492201Y-62290665D01*
X111285099Y-62353489D01*
X111070551Y-62468167D01*
X110882498Y-62622498D01*
X110843826Y-62669620D01*
X99818447Y-73695000D01*
X90700375Y-73695000D01*
X90667970Y-73668406D01*
X90405648Y-73528192D01*
X90121012Y-73441849D01*
X89899178Y-73420000D01*
X88500822Y-73420000D01*
X88278988Y-73441849D01*
X87994352Y-73528192D01*
X87732030Y-73668406D01*
X87502103Y-73857103D01*
X87313406Y-74087030D01*
X87173192Y-74349352D01*
X87086849Y-74633988D01*
X87057694Y-74930000D01*
X87086849Y-75226012D01*
X87173192Y-75510648D01*
X87313406Y-75772970D01*
X87502103Y-76002897D01*
X87732030Y-76191594D01*
X87747757Y-76200000D01*
X87732030Y-76208406D01*
X87502103Y-76397103D01*
X87313406Y-76627030D01*
X87173192Y-76889352D01*
X87086849Y-77173988D01*
X87057694Y-77470000D01*
X87086849Y-77766012D01*
X87173192Y-78050648D01*
X87313406Y-78312970D01*
X87502103Y-78542897D01*
X87732030Y-78731594D01*
X87747757Y-78740000D01*
X87732030Y-78748406D01*
X87502103Y-78937103D01*
X87313406Y-79167030D01*
X87173192Y-79429352D01*
X87086849Y-79713988D01*
X87057694Y-80010000D01*
X87086849Y-80306012D01*
X87173192Y-80590648D01*
X87313406Y-80852970D01*
X87502103Y-81082897D01*
X87732030Y-81271594D01*
X87747757Y-81280000D01*
X87732030Y-81288406D01*
X87699625Y-81315000D01*
X86560654Y-81315000D01*
X86499999Y-81309026D01*
X86439344Y-81315000D01*
X86439335Y-81315000D01*
X86257898Y-81332870D01*
X86025099Y-81403489D01*
X85810551Y-81518167D01*
X85622498Y-81672498D01*
X85583826Y-81719620D01*
X82989621Y-84313826D01*
X82942499Y-84352498D01*
X82788168Y-84540551D01*
X82673490Y-84755099D01*
X82673489Y-84755101D01*
X82602870Y-84987898D01*
X82579025Y-85230000D01*
X82585001Y-85290675D01*
X82585000Y-118868446D01*
X79498447Y-121955000D01*
X78970375Y-121955000D01*
X78937970Y-121928406D01*
X78922243Y-121920000D01*
X78937970Y-121911594D01*
X79167897Y-121722897D01*
X79356594Y-121492970D01*
X79496808Y-121230648D01*
X79583151Y-120946012D01*
X79612306Y-120650000D01*
X79583151Y-120353988D01*
X79496808Y-120069352D01*
X79356594Y-119807030D01*
X79167897Y-119577103D01*
X78937970Y-119388406D01*
X78675648Y-119248192D01*
X78391012Y-119161849D01*
X78169178Y-119140000D01*
X76770822Y-119140000D01*
X76548988Y-119161849D01*
X76264352Y-119248192D01*
X76002030Y-119388406D01*
X75772103Y-119577103D01*
X75583406Y-119807030D01*
X75443192Y-120069352D01*
X75356849Y-120353988D01*
X75327694Y-120650000D01*
X75356849Y-120946012D01*
X75443192Y-121230648D01*
X75583406Y-121492970D01*
X75772103Y-121722897D01*
X76002030Y-121911594D01*
X76017757Y-121920000D01*
X76002030Y-121928406D01*
X75772103Y-122117103D01*
X75583406Y-122347030D01*
X75443192Y-122609352D01*
X75356849Y-122893988D01*
X75327694Y-123190000D01*
X75356849Y-123486012D01*
X75443192Y-123770648D01*
X75583406Y-124032970D01*
X75772103Y-124262897D01*
X76002030Y-124451594D01*
X76017757Y-124460000D01*
X76002030Y-124468406D01*
X75772103Y-124657103D01*
X75583406Y-124887030D01*
X75443192Y-125149352D01*
X75356849Y-125433988D01*
X75327694Y-125730000D01*
X75356849Y-126026012D01*
X75443192Y-126310648D01*
X75583406Y-126572970D01*
X75772103Y-126802897D01*
X76002030Y-126991594D01*
X76264352Y-127131808D01*
X76548988Y-127218151D01*
X76770822Y-127240000D01*
X78169178Y-127240000D01*
X78391012Y-127218151D01*
X78675648Y-127131808D01*
X78937970Y-126991594D01*
X78970375Y-126965000D01*
X82489335Y-126965000D01*
X82550000Y-126970975D01*
X82610665Y-126965000D01*
X82792102Y-126947130D01*
X83024901Y-126876511D01*
X83239449Y-126761833D01*
X83427502Y-126607502D01*
X83466178Y-126560375D01*
X87190380Y-122836174D01*
X87237502Y-122797502D01*
X87391833Y-122609449D01*
X87506511Y-122394901D01*
X87577130Y-122162102D01*
X87595000Y-121980665D01*
X87600975Y-121920000D01*
X87595000Y-121859335D01*
X87595000Y-104019136D01*
X87732030Y-104131594D01*
X87994352Y-104271808D01*
X88278988Y-104358151D01*
X88500822Y-104380000D01*
X89899178Y-104380000D01*
X90121012Y-104358151D01*
X90405648Y-104271808D01*
X90667970Y-104131594D01*
X90897897Y-103942897D01*
X91086594Y-103712970D01*
X91226808Y-103450648D01*
X91313151Y-103166012D01*
X91342306Y-102870000D01*
X91313151Y-102573988D01*
X91226808Y-102289352D01*
X91086594Y-102027030D01*
X90897897Y-101797103D01*
X90667970Y-101608406D01*
X90652243Y-101600000D01*
X90667970Y-101591594D01*
X90897897Y-101402897D01*
X91086594Y-101172970D01*
X91226808Y-100910648D01*
X91313151Y-100626012D01*
X91342306Y-100330000D01*
X91313151Y-100033988D01*
X91226808Y-99749352D01*
X91086594Y-99487030D01*
X90897897Y-99257103D01*
X90667970Y-99068406D01*
X90652243Y-99060000D01*
X90667970Y-99051594D01*
X90897897Y-98862897D01*
X91086594Y-98632970D01*
X91226808Y-98370648D01*
X91313151Y-98086012D01*
X91342306Y-97790000D01*
X91313151Y-97493988D01*
X91226808Y-97209352D01*
X91086594Y-96947030D01*
X90897897Y-96717103D01*
X90667970Y-96528406D01*
X90652243Y-96520000D01*
X90667970Y-96511594D01*
X90897897Y-96322897D01*
X91086594Y-96092970D01*
X91226808Y-95830648D01*
X91313151Y-95546012D01*
X91342306Y-95250000D01*
X91313151Y-94953988D01*
X91226808Y-94669352D01*
X91086594Y-94407030D01*
X90897897Y-94177103D01*
X90667970Y-93988406D01*
X90652243Y-93980000D01*
X90667970Y-93971594D01*
X90897897Y-93782897D01*
X91086594Y-93552970D01*
X91226808Y-93290648D01*
X91313151Y-93006012D01*
X91342306Y-92710000D01*
X91313151Y-92413988D01*
X91226808Y-92129352D01*
X91086594Y-91867030D01*
X90897897Y-91637103D01*
X90667970Y-91448406D01*
X90652243Y-91440000D01*
X90667970Y-91431594D01*
X90897897Y-91242897D01*
X91086594Y-91012970D01*
X91226808Y-90750648D01*
X91313151Y-90466012D01*
X91342306Y-90170000D01*
X91313151Y-89873988D01*
X91226808Y-89589352D01*
X91086594Y-89327030D01*
X90897897Y-89097103D01*
X90667970Y-88908406D01*
X90652243Y-88900000D01*
X90667970Y-88891594D01*
X90897897Y-88702897D01*
X91086594Y-88472970D01*
X91226808Y-88210648D01*
X91313151Y-87926012D01*
X91342306Y-87630000D01*
X91313151Y-87333988D01*
X91226808Y-87049352D01*
X91086594Y-86787030D01*
X90897897Y-86557103D01*
X90667970Y-86368406D01*
X90652243Y-86360000D01*
X90667970Y-86351594D01*
X90897897Y-86162897D01*
X91086594Y-85932970D01*
X91226808Y-85670648D01*
X91313151Y-85386012D01*
X91342306Y-85090000D01*
X91313151Y-84793988D01*
X91226808Y-84509352D01*
X91086594Y-84247030D01*
X90897897Y-84017103D01*
X90667970Y-83828406D01*
X90652243Y-83820000D01*
X90667970Y-83811594D01*
X90897897Y-83622897D01*
X91086594Y-83392970D01*
X91226808Y-83130648D01*
X91313151Y-82846012D01*
X91342306Y-82550000D01*
X108867695Y-82550000D01*
X108896850Y-82846012D01*
X108983193Y-83130648D01*
X109123407Y-83392970D01*
X109312104Y-83622897D01*
X109542031Y-83811594D01*
X109557758Y-83820000D01*
X109542031Y-83828406D01*
X109312104Y-84017103D01*
X109123407Y-84247030D01*
X108983193Y-84509352D01*
X108896850Y-84793988D01*
X108867695Y-85090000D01*
X108896850Y-85386012D01*
X108983193Y-85670648D01*
X109123407Y-85932970D01*
X109312104Y-86162897D01*
X109542031Y-86351594D01*
X109557758Y-86360000D01*
X109542031Y-86368406D01*
X109312104Y-86557103D01*
X109123407Y-86787030D01*
X108983193Y-87049352D01*
X108896850Y-87333988D01*
X108867695Y-87630000D01*
X108896850Y-87926012D01*
X108983193Y-88210648D01*
X109123407Y-88472970D01*
X109312104Y-88702897D01*
X109542031Y-88891594D01*
X109557758Y-88900000D01*
X109542031Y-88908406D01*
X109312104Y-89097103D01*
X109123407Y-89327030D01*
X108983193Y-89589352D01*
X108896850Y-89873988D01*
X108867695Y-90170000D01*
X108896850Y-90466012D01*
X108983193Y-90750648D01*
X109123407Y-91012970D01*
X109312104Y-91242897D01*
X109542031Y-91431594D01*
X109557758Y-91440000D01*
X109542031Y-91448406D01*
X109312104Y-91637103D01*
X109123407Y-91867030D01*
X108983193Y-92129352D01*
X108896850Y-92413988D01*
X108867695Y-92710000D01*
X108896850Y-93006012D01*
X108983193Y-93290648D01*
X109123407Y-93552970D01*
X109312104Y-93782897D01*
X109542031Y-93971594D01*
X109804353Y-94111808D01*
X110088989Y-94198151D01*
X110310823Y-94220000D01*
X111709179Y-94220000D01*
X111931013Y-94198151D01*
X112215649Y-94111808D01*
X112477971Y-93971594D01*
X112707898Y-93782897D01*
X112896595Y-93552970D01*
X113036809Y-93290648D01*
X113123152Y-93006012D01*
X113152307Y-92710000D01*
X113123152Y-92413988D01*
X113036809Y-92129352D01*
X112896595Y-91867030D01*
X112707898Y-91637103D01*
X112477971Y-91448406D01*
X112462244Y-91440000D01*
X112477971Y-91431594D01*
X112707898Y-91242897D01*
X112896595Y-91012970D01*
X113036809Y-90750648D01*
X113123152Y-90466012D01*
X113152307Y-90170000D01*
X113123152Y-89873988D01*
X113036809Y-89589352D01*
X112896595Y-89327030D01*
X112707898Y-89097103D01*
X112477971Y-88908406D01*
X112462244Y-88900000D01*
X112477971Y-88891594D01*
X112707898Y-88702897D01*
X112896595Y-88472970D01*
X113036809Y-88210648D01*
X113123152Y-87926012D01*
X113152307Y-87630000D01*
X113123152Y-87333988D01*
X113036809Y-87049352D01*
X112896595Y-86787030D01*
X112707898Y-86557103D01*
X112477971Y-86368406D01*
X112462244Y-86360000D01*
X112477971Y-86351594D01*
X112707898Y-86162897D01*
X112896595Y-85932970D01*
X113036809Y-85670648D01*
X113123152Y-85386012D01*
X113152307Y-85090000D01*
X113123152Y-84793988D01*
X113036809Y-84509352D01*
X112896595Y-84247030D01*
X112707898Y-84017103D01*
X112607856Y-83935000D01*
X114996315Y-83935000D01*
X116725001Y-85663686D01*
X116725000Y-121851971D01*
X116718300Y-121920000D01*
X116725000Y-121988029D01*
X116725000Y-121988036D01*
X116730462Y-122043489D01*
X116745040Y-122191507D01*
X116792218Y-122347030D01*
X116824236Y-122452580D01*
X116952843Y-122693187D01*
X116990359Y-122738900D01*
X117061020Y-122825000D01*
X117125919Y-122904080D01*
X117178765Y-122947450D01*
X119622546Y-125391231D01*
X119665919Y-125444081D01*
X119876812Y-125617157D01*
X120117419Y-125745764D01*
X120378493Y-125824960D01*
X120581963Y-125845000D01*
X120581972Y-125845000D01*
X120649999Y-125851700D01*
X120718026Y-125845000D01*
X126765736Y-125845000D01*
X127014285Y-125977852D01*
X127322484Y-126071343D01*
X127562678Y-126095000D01*
X128723322Y-126095000D01*
X128963516Y-126071343D01*
X129271715Y-125977852D01*
X129555752Y-125826031D01*
X129804714Y-125621714D01*
X130009031Y-125372752D01*
X130160852Y-125088715D01*
X130254343Y-124780516D01*
X130285911Y-124460000D01*
X130254343Y-124139484D01*
X130160852Y-123831285D01*
X130009031Y-123547248D01*
X129804714Y-123298286D01*
X129555752Y-123093969D01*
X129271715Y-122942148D01*
X128963516Y-122848657D01*
X128723322Y-122825000D01*
X127562678Y-122825000D01*
X127322484Y-122848657D01*
X127014285Y-122942148D01*
X126765736Y-123075000D01*
X121223685Y-123075000D01*
X119495000Y-121346315D01*
X119495000Y-85158026D01*
X119501700Y-85089999D01*
X119495000Y-85021972D01*
X119495000Y-85021963D01*
X119474960Y-84818493D01*
X119395764Y-84557419D01*
X119267157Y-84316812D01*
X119094081Y-84105919D01*
X119041231Y-84062546D01*
X116597454Y-81618769D01*
X116554081Y-81565919D01*
X116343188Y-81392843D01*
X116102581Y-81264236D01*
X115841507Y-81185040D01*
X115638037Y-81165000D01*
X115638029Y-81165000D01*
X115570000Y-81158300D01*
X115501971Y-81165000D01*
X112247095Y-81165000D01*
X112215649Y-81148192D01*
X111931013Y-81061849D01*
X111709179Y-81040000D01*
X110310823Y-81040000D01*
X110088989Y-81061849D01*
X109804353Y-81148192D01*
X109542031Y-81288406D01*
X109312104Y-81477103D01*
X109123407Y-81707030D01*
X108983193Y-81969352D01*
X108896850Y-82253988D01*
X108867695Y-82550000D01*
X91342306Y-82550000D01*
X91313151Y-82253988D01*
X91226808Y-81969352D01*
X91086594Y-81707030D01*
X90897897Y-81477103D01*
X90667970Y-81288406D01*
X90652243Y-81280000D01*
X90667970Y-81271594D01*
X90897897Y-81082897D01*
X91086594Y-80852970D01*
X91226808Y-80590648D01*
X91313151Y-80306012D01*
X91342306Y-80010000D01*
X91313151Y-79713988D01*
X91226808Y-79429352D01*
X91086594Y-79167030D01*
X90897897Y-78937103D01*
X90667970Y-78748406D01*
X90652243Y-78740000D01*
X90667970Y-78731594D01*
X90897897Y-78542897D01*
X91086594Y-78312970D01*
X91226808Y-78050648D01*
X91313151Y-77766012D01*
X91342306Y-77470000D01*
X91313151Y-77173988D01*
X91226808Y-76889352D01*
X91086594Y-76627030D01*
X90897897Y-76397103D01*
X90667970Y-76208406D01*
X90652243Y-76200000D01*
X90667970Y-76191594D01*
X90700375Y-76165000D01*
X100269335Y-76165000D01*
X100330000Y-76170975D01*
X100390665Y-76165000D01*
X100572102Y-76147130D01*
X100804901Y-76076511D01*
X101019449Y-75961833D01*
X101207502Y-75807502D01*
X101246179Y-75760374D01*
X112271554Y-64735000D01*
X120589335Y-64735000D01*
X120650000Y-64740975D01*
X120710665Y-64735000D01*
X120892102Y-64717130D01*
X121124901Y-64646511D01*
X121339449Y-64531833D01*
X121527502Y-64377502D01*
X121566178Y-64330375D01*
X122750381Y-63146173D01*
X122797502Y-63107502D01*
X122951833Y-62919449D01*
X123066511Y-62704901D01*
X123077213Y-62669620D01*
X123137130Y-62472103D01*
X123160975Y-62230001D01*
X123155000Y-62169336D01*
X123155000Y-60837950D01*
X123190000Y-60802950D01*
X123225001Y-60837951D01*
X123225000Y-62988446D01*
X112518447Y-73695000D01*
X112510376Y-73695000D01*
X112477971Y-73668406D01*
X112215649Y-73528192D01*
X111931013Y-73441849D01*
X111709179Y-73420000D01*
X110310823Y-73420000D01*
X110088989Y-73441849D01*
X109804353Y-73528192D01*
X109542031Y-73668406D01*
X109312104Y-73857103D01*
X109123407Y-74087030D01*
X108983193Y-74349352D01*
X108896850Y-74633988D01*
X108867695Y-74930000D01*
X108896850Y-75226012D01*
X108983193Y-75510648D01*
X109123407Y-75772970D01*
X109312104Y-76002897D01*
X109542031Y-76191594D01*
X109557758Y-76200000D01*
X109542031Y-76208406D01*
X109312104Y-76397103D01*
X109123407Y-76627030D01*
X108983193Y-76889352D01*
X108896850Y-77173988D01*
X108867695Y-77470000D01*
X108896850Y-77766012D01*
X108983193Y-78050648D01*
X109123407Y-78312970D01*
X109312104Y-78542897D01*
X109542031Y-78731594D01*
X109804353Y-78871808D01*
X110088989Y-78958151D01*
X110310823Y-78980000D01*
X111709179Y-78980000D01*
X111931013Y-78958151D01*
X112215649Y-78871808D01*
X112477971Y-78731594D01*
X112510376Y-78705000D01*
X114239335Y-78705000D01*
X114300000Y-78710975D01*
X114360665Y-78705000D01*
X114542102Y-78687130D01*
X114774901Y-78616511D01*
X114989449Y-78501833D01*
X115177502Y-78347502D01*
X115216179Y-78300374D01*
X118586553Y-74930000D01*
X124617695Y-74930000D01*
X124646850Y-75226012D01*
X124733193Y-75510648D01*
X124873407Y-75772970D01*
X125062104Y-76002897D01*
X125292031Y-76191594D01*
X125307758Y-76200000D01*
X125292031Y-76208406D01*
X125062104Y-76397103D01*
X124873407Y-76627030D01*
X124733193Y-76889352D01*
X124646850Y-77173988D01*
X124617695Y-77470000D01*
X124646850Y-77766012D01*
X124733193Y-78050648D01*
X124873407Y-78312970D01*
X125062104Y-78542897D01*
X125292031Y-78731594D01*
X125307758Y-78740000D01*
X125292031Y-78748406D01*
X125062104Y-78937103D01*
X124873407Y-79167030D01*
X124733193Y-79429352D01*
X124646850Y-79713988D01*
X124617695Y-80010000D01*
X124646850Y-80306012D01*
X124733193Y-80590648D01*
X124873407Y-80852970D01*
X125062104Y-81082897D01*
X125292031Y-81271594D01*
X125307758Y-81280000D01*
X125292031Y-81288406D01*
X125062104Y-81477103D01*
X124873407Y-81707030D01*
X124733193Y-81969352D01*
X124646850Y-82253988D01*
X124617695Y-82550000D01*
X124646850Y-82846012D01*
X124733193Y-83130648D01*
X124873407Y-83392970D01*
X125062104Y-83622897D01*
X125292031Y-83811594D01*
X125307758Y-83820000D01*
X125292031Y-83828406D01*
X125062104Y-84017103D01*
X124873407Y-84247030D01*
X124733193Y-84509352D01*
X124646850Y-84793988D01*
X124617695Y-85090000D01*
X124646850Y-85386012D01*
X124733193Y-85670648D01*
X124873407Y-85932970D01*
X125062104Y-86162897D01*
X125292031Y-86351594D01*
X125307758Y-86360000D01*
X125292031Y-86368406D01*
X125062104Y-86557103D01*
X124873407Y-86787030D01*
X124733193Y-87049352D01*
X124646850Y-87333988D01*
X124617695Y-87630000D01*
X124646850Y-87926012D01*
X124733193Y-88210648D01*
X124873407Y-88472970D01*
X125062104Y-88702897D01*
X125292031Y-88891594D01*
X125307758Y-88900000D01*
X125292031Y-88908406D01*
X125062104Y-89097103D01*
X124873407Y-89327030D01*
X124733193Y-89589352D01*
X124646850Y-89873988D01*
X124617695Y-90170000D01*
X124646850Y-90466012D01*
X124733193Y-90750648D01*
X124873407Y-91012970D01*
X125062104Y-91242897D01*
X125292031Y-91431594D01*
X125307758Y-91440000D01*
X125292031Y-91448406D01*
X125062104Y-91637103D01*
X124873407Y-91867030D01*
X124733193Y-92129352D01*
X124646850Y-92413988D01*
X124617695Y-92710000D01*
X124646850Y-93006012D01*
X124733193Y-93290648D01*
X124873407Y-93552970D01*
X125062104Y-93782897D01*
X125292031Y-93971594D01*
X125554353Y-94111808D01*
X125838989Y-94198151D01*
X126060823Y-94220000D01*
X127459179Y-94220000D01*
X127681013Y-94198151D01*
X127965649Y-94111808D01*
X128227971Y-93971594D01*
X128457898Y-93782897D01*
X128646595Y-93552970D01*
X128786809Y-93290648D01*
X128873152Y-93006012D01*
X128902307Y-92710000D01*
X128873152Y-92413988D01*
X128786809Y-92129352D01*
X128646595Y-91867030D01*
X128457898Y-91637103D01*
X128227971Y-91448406D01*
X128212244Y-91440000D01*
X128227971Y-91431594D01*
X128457898Y-91242897D01*
X128646595Y-91012970D01*
X128786809Y-90750648D01*
X128873152Y-90466012D01*
X128902307Y-90170000D01*
X128873152Y-89873988D01*
X128786809Y-89589352D01*
X128646595Y-89327030D01*
X128457898Y-89097103D01*
X128227971Y-88908406D01*
X128212244Y-88900000D01*
X128227971Y-88891594D01*
X128457898Y-88702897D01*
X128646595Y-88472970D01*
X128786809Y-88210648D01*
X128873152Y-87926012D01*
X128902307Y-87630000D01*
X128873152Y-87333988D01*
X128786809Y-87049352D01*
X128646595Y-86787030D01*
X128457898Y-86557103D01*
X128227971Y-86368406D01*
X128212244Y-86360000D01*
X128227971Y-86351594D01*
X128457898Y-86162897D01*
X128646595Y-85932970D01*
X128786809Y-85670648D01*
X128873152Y-85386012D01*
X128902307Y-85090000D01*
X128873152Y-84793988D01*
X128786809Y-84509352D01*
X128646595Y-84247030D01*
X128457898Y-84017103D01*
X128227971Y-83828406D01*
X128212244Y-83820000D01*
X128227971Y-83811594D01*
X128457898Y-83622897D01*
X128646595Y-83392970D01*
X128786809Y-83130648D01*
X128873152Y-82846012D01*
X128902307Y-82550000D01*
X128873152Y-82253988D01*
X128786809Y-81969352D01*
X128646595Y-81707030D01*
X128457898Y-81477103D01*
X128227971Y-81288406D01*
X128212244Y-81280000D01*
X128227971Y-81271594D01*
X128457898Y-81082897D01*
X128646595Y-80852970D01*
X128786809Y-80590648D01*
X128873152Y-80306012D01*
X128902307Y-80010000D01*
X128873152Y-79713988D01*
X128786809Y-79429352D01*
X128646595Y-79167030D01*
X128457898Y-78937103D01*
X128227971Y-78748406D01*
X128212244Y-78740000D01*
X128227971Y-78731594D01*
X128457898Y-78542897D01*
X128646595Y-78312970D01*
X128786809Y-78050648D01*
X128873152Y-77766012D01*
X128902307Y-77470000D01*
X128873152Y-77173988D01*
X128786809Y-76889352D01*
X128646595Y-76627030D01*
X128457898Y-76397103D01*
X128227971Y-76208406D01*
X128212244Y-76200000D01*
X128227971Y-76191594D01*
X128457898Y-76002897D01*
X128646595Y-75772970D01*
X128786809Y-75510648D01*
X128873152Y-75226012D01*
X128902307Y-74930000D01*
X128873152Y-74633988D01*
X128786809Y-74349352D01*
X128646595Y-74087030D01*
X128457898Y-73857103D01*
X128227971Y-73668406D01*
X127965649Y-73528192D01*
X127681013Y-73441849D01*
X127459179Y-73420000D01*
X126060823Y-73420000D01*
X125838989Y-73441849D01*
X125554353Y-73528192D01*
X125292031Y-73668406D01*
X125062104Y-73857103D01*
X124873407Y-74087030D01*
X124733193Y-74349352D01*
X124646850Y-74633988D01*
X124617695Y-74930000D01*
X118586553Y-74930000D01*
X126241554Y-67275000D01*
X138369335Y-67275000D01*
X138430000Y-67280975D01*
X138490665Y-67275000D01*
X138672102Y-67257130D01*
X138904901Y-67186511D01*
X139119449Y-67071833D01*
X139307502Y-66917502D01*
X139346178Y-66870375D01*
X141800381Y-64416173D01*
X141847502Y-64377502D01*
X142001833Y-64189449D01*
X142116511Y-63974901D01*
X142187130Y-63742102D01*
X142205000Y-63560665D01*
X142205000Y-63560656D01*
X142210974Y-63500001D01*
X142205000Y-63439346D01*
X142205000Y-60837950D01*
X142240000Y-60802950D01*
X142435875Y-60998825D01*
X142711853Y-61183228D01*
X143018504Y-61310246D01*
X143344042Y-61375000D01*
X143675958Y-61375000D01*
X144001496Y-61310246D01*
X144308147Y-61183228D01*
X144584125Y-60998825D01*
X144818825Y-60764125D01*
X145003228Y-60488147D01*
X145130246Y-60181496D01*
X145195000Y-59855958D01*
X145195000Y-59524042D01*
X145130246Y-59198504D01*
X145003228Y-58891853D01*
X144818825Y-58615875D01*
X144584125Y-58381175D01*
X144308147Y-58196772D01*
X144001496Y-58069754D01*
X143675958Y-58005000D01*
X143344042Y-58005000D01*
X143018504Y-58069754D01*
X142711853Y-58196772D01*
X142435875Y-58381175D01*
X142240000Y-58577050D01*
X142044125Y-58381175D01*
X141768147Y-58196772D01*
X141461496Y-58069754D01*
X141135958Y-58005000D01*
X140804042Y-58005000D01*
X140478504Y-58069754D01*
X140171853Y-58196772D01*
X139895875Y-58381175D01*
X139700000Y-58577050D01*
X139504125Y-58381175D01*
X139228147Y-58196772D01*
X138921496Y-58069754D01*
X138595958Y-58005000D01*
X138264042Y-58005000D01*
X137938504Y-58069754D01*
X137631853Y-58196772D01*
X137478042Y-58299546D01*
X137470537Y-58285506D01*
X137391185Y-58188815D01*
X137294494Y-58109463D01*
X137184180Y-58050498D01*
X137125000Y-58032546D01*
X137125000Y-52581553D01*
X137990381Y-51716173D01*
X138037502Y-51677502D01*
X138191833Y-51489449D01*
X138306511Y-51274901D01*
X138377130Y-51042102D01*
X138395000Y-50860665D01*
X138395000Y-50860664D01*
X138400975Y-50800001D01*
X138395000Y-50739336D01*
X138395000Y-46847554D01*
X138430000Y-46782073D01*
X138465000Y-46847554D01*
X138465001Y-54098445D01*
X137513827Y-55049620D01*
X137398168Y-55190552D01*
X137283489Y-55405101D01*
X137212870Y-55637898D01*
X137189025Y-55880000D01*
X137212870Y-56122102D01*
X137283489Y-56354899D01*
X137398168Y-56569448D01*
X137552499Y-56757501D01*
X137740552Y-56911832D01*
X137955101Y-57026511D01*
X138187898Y-57097130D01*
X138430000Y-57120975D01*
X138672102Y-57097130D01*
X138904899Y-57026511D01*
X139119448Y-56911832D01*
X139260380Y-56796173D01*
X140530380Y-55526174D01*
X140577502Y-55487502D01*
X140731833Y-55299449D01*
X140846511Y-55084901D01*
X140917130Y-54852102D01*
X140928812Y-54733489D01*
X140940975Y-54610001D01*
X140935000Y-54549336D01*
X140935000Y-46847554D01*
X140970000Y-46782073D01*
X141082843Y-46993188D01*
X141255920Y-47204081D01*
X141466813Y-47377157D01*
X141707420Y-47505764D01*
X141968494Y-47584960D01*
X142240000Y-47611701D01*
X142511507Y-47584960D01*
X142772581Y-47505764D01*
X143013188Y-47377157D01*
X143224081Y-47204081D01*
X143397157Y-46993188D01*
X143510000Y-46782073D01*
X143622843Y-46993188D01*
X143795920Y-47204081D01*
X144006813Y-47377157D01*
X144247420Y-47505764D01*
X144508494Y-47584960D01*
X144780000Y-47611701D01*
X145051507Y-47584960D01*
X145312581Y-47505764D01*
X145553188Y-47377157D01*
X145764081Y-47204081D01*
X145937157Y-46993188D01*
X146050000Y-46782073D01*
X146162843Y-46993188D01*
X146335920Y-47204081D01*
X146546813Y-47377157D01*
X146787420Y-47505764D01*
X147048494Y-47584960D01*
X147320000Y-47611701D01*
X147591507Y-47584960D01*
X147852581Y-47505764D01*
X148093188Y-47377157D01*
X148304081Y-47204081D01*
X148477157Y-46993188D01*
X148605764Y-46752581D01*
X148684960Y-46491507D01*
X148705000Y-46288037D01*
X148705000Y-45151963D01*
X148684960Y-44948493D01*
X148605764Y-44687419D01*
X148477157Y-44446812D01*
X148304080Y-44235919D01*
X148093187Y-44062843D01*
X147852580Y-43934236D01*
X147591506Y-43855040D01*
X147320000Y-43828299D01*
X147048493Y-43855040D01*
X146787419Y-43934236D01*
X146546812Y-44062843D01*
X146335919Y-44235920D01*
X146162843Y-44446813D01*
X146050000Y-44657927D01*
X145937157Y-44446812D01*
X145764080Y-44235919D01*
X145553187Y-44062843D01*
X145312580Y-43934236D01*
X145051506Y-43855040D01*
X144780000Y-43828299D01*
X144508493Y-43855040D01*
X144247419Y-43934236D01*
X144006812Y-44062843D01*
X143795919Y-44235920D01*
X143622843Y-44446813D01*
X143510000Y-44657927D01*
X143397157Y-44446812D01*
X143224080Y-44235919D01*
X143013187Y-44062843D01*
X142772580Y-43934236D01*
X142511506Y-43855040D01*
X142240000Y-43828299D01*
X141968493Y-43855040D01*
X141707419Y-43934236D01*
X141466812Y-44062843D01*
X141255919Y-44235920D01*
X141082843Y-44446813D01*
X140970000Y-44657927D01*
X140857157Y-44446812D01*
X140684080Y-44235919D01*
X140473187Y-44062843D01*
X140232580Y-43934236D01*
X139971506Y-43855040D01*
X139700000Y-43828299D01*
X139428493Y-43855040D01*
X139167419Y-43934236D01*
X138926812Y-44062843D01*
X138715919Y-44235920D01*
X138542843Y-44446813D01*
X138430000Y-44657927D01*
X138317157Y-44446812D01*
X138144080Y-44235919D01*
X137933187Y-44062843D01*
X137692580Y-43934236D01*
X137431506Y-43855040D01*
X137160000Y-43828299D01*
X136888493Y-43855040D01*
X136627419Y-43934236D01*
X136386812Y-44062843D01*
X136175919Y-44235920D01*
X136002843Y-44446813D01*
X135890000Y-44657927D01*
X135777157Y-44446812D01*
X135755000Y-44419814D01*
X135755000Y-42380131D01*
X137630132Y-40505000D01*
X148701788Y-40505000D01*
X148756747Y-40494068D01*
X148812499Y-40488577D01*
X148866106Y-40472315D01*
X148921067Y-40461383D01*
X148972842Y-40439937D01*
X149026447Y-40423676D01*
X149075851Y-40397269D01*
X149127624Y-40375824D01*
X149174214Y-40344693D01*
X149223623Y-40318284D01*
X149266932Y-40282741D01*
X149313520Y-40251612D01*
X149353141Y-40211991D01*
X149396449Y-40176449D01*
X149431991Y-40133141D01*
X149471612Y-40093520D01*
X149502741Y-40046932D01*
X149538284Y-40003623D01*
X149564693Y-39954214D01*
X149595824Y-39907624D01*
X149617269Y-39855851D01*
X149643676Y-39806447D01*
X149659937Y-39752842D01*
X149681383Y-39701067D01*
X149686880Y-39673433D01*
X151165001Y-41151555D01*
X151165000Y-44592447D01*
X151114236Y-44687420D01*
X151035040Y-44948494D01*
X151015000Y-45151964D01*
X151015000Y-46288037D01*
X151035040Y-46491507D01*
X151114236Y-46752581D01*
X151242843Y-46993188D01*
X151415920Y-47204081D01*
X151626813Y-47377157D01*
X151867420Y-47505764D01*
X152128494Y-47584960D01*
X152400000Y-47611701D01*
X152671507Y-47584960D01*
X152932581Y-47505764D01*
X153173188Y-47377157D01*
X153384081Y-47204081D01*
X153557157Y-46993188D01*
X153685764Y-46752581D01*
X153764960Y-46491507D01*
X153785000Y-46288037D01*
X153785000Y-45151963D01*
X153764960Y-44948493D01*
X153685764Y-44687419D01*
X153635000Y-44592446D01*
X153635000Y-40700665D01*
X153640975Y-40640000D01*
X153617130Y-40397898D01*
X153592979Y-40318284D01*
X153546511Y-40165099D01*
X153431833Y-39950551D01*
X153277502Y-39762498D01*
X153230380Y-39723826D01*
X149506178Y-35999625D01*
X149467502Y-35952498D01*
X149279449Y-35798167D01*
X149071470Y-35687000D01*
X184023000Y-35687000D01*
X184023000Y-143383000D01*
X129033554Y-143383000D01*
X129100381Y-143316173D01*
X129147502Y-143277502D01*
X129301833Y-143089449D01*
X129416511Y-142874901D01*
X129475749Y-142679620D01*
X129487130Y-142642103D01*
X129510975Y-142400001D01*
X129505000Y-142339336D01*
X129505000Y-141200375D01*
X129531594Y-141167970D01*
X129671808Y-140905648D01*
X129758151Y-140621012D01*
X129780000Y-140399178D01*
X129780000Y-139000822D01*
X129758151Y-138778988D01*
X129671808Y-138494352D01*
X129655000Y-138462906D01*
X129655000Y-136463685D01*
X131383685Y-134735000D01*
X140396315Y-134735000D01*
X146292550Y-140631236D01*
X146335919Y-140684081D01*
X146388764Y-140727450D01*
X146388766Y-140727452D01*
X146420720Y-140753676D01*
X146546812Y-140857157D01*
X146787419Y-140985764D01*
X147048493Y-141064960D01*
X147251963Y-141085000D01*
X147251972Y-141085000D01*
X147319999Y-141091700D01*
X147388026Y-141085000D01*
X158385654Y-141085000D01*
X158659017Y-141358363D01*
X159008698Y-141592012D01*
X159397244Y-141752953D01*
X159809721Y-141835000D01*
X160230279Y-141835000D01*
X160642756Y-141752953D01*
X161031302Y-141592012D01*
X161380983Y-141358363D01*
X161678363Y-141060983D01*
X161912012Y-140711302D01*
X162072953Y-140322756D01*
X162155000Y-139910279D01*
X162155000Y-139489721D01*
X162072953Y-139077244D01*
X161912012Y-138688698D01*
X161678363Y-138339017D01*
X161405000Y-138065654D01*
X161405000Y-128843685D01*
X164403686Y-125845000D01*
X166262736Y-125845000D01*
X166511285Y-125977852D01*
X166819484Y-126071343D01*
X167059678Y-126095000D01*
X168220322Y-126095000D01*
X168460516Y-126071343D01*
X168768715Y-125977852D01*
X169052752Y-125826031D01*
X169301714Y-125621714D01*
X169506031Y-125372752D01*
X169657852Y-125088715D01*
X169751343Y-124780516D01*
X169782911Y-124460000D01*
X169751343Y-124139484D01*
X169657852Y-123831285D01*
X169506031Y-123547248D01*
X169301714Y-123298286D01*
X169052752Y-123093969D01*
X168768715Y-122942148D01*
X168460516Y-122848657D01*
X168220322Y-122825000D01*
X167059678Y-122825000D01*
X166819484Y-122848657D01*
X166511285Y-122942148D01*
X166262736Y-123075000D01*
X164403686Y-123075000D01*
X160135000Y-118806315D01*
X160135000Y-77538029D01*
X160141700Y-77470000D01*
X160135000Y-77401971D01*
X160135000Y-77401963D01*
X160114960Y-77198493D01*
X160035764Y-76937419D01*
X159907157Y-76696812D01*
X159849888Y-76627030D01*
X159777452Y-76538766D01*
X159777450Y-76538764D01*
X159734081Y-76485919D01*
X159681236Y-76442550D01*
X155967454Y-72728769D01*
X155924081Y-72675919D01*
X155713188Y-72502843D01*
X155472581Y-72374236D01*
X155211507Y-72295040D01*
X155008037Y-72275000D01*
X155008029Y-72275000D01*
X154940000Y-72268300D01*
X154871971Y-72275000D01*
X152727855Y-72275000D01*
X152827897Y-72192897D01*
X153016594Y-71962970D01*
X153156808Y-71700648D01*
X153243151Y-71416012D01*
X153272306Y-71120000D01*
X153243151Y-70823988D01*
X153156808Y-70539352D01*
X153016594Y-70277030D01*
X152827897Y-70047103D01*
X152597970Y-69858406D01*
X152582243Y-69850000D01*
X152597970Y-69841594D01*
X152827897Y-69652897D01*
X153016594Y-69422970D01*
X153156808Y-69160648D01*
X153243151Y-68876012D01*
X153272306Y-68580000D01*
X153243151Y-68283988D01*
X153156808Y-67999352D01*
X153016594Y-67737030D01*
X152827897Y-67507103D01*
X152597970Y-67318406D01*
X152335648Y-67178192D01*
X152051012Y-67091849D01*
X151829178Y-67070000D01*
X150430822Y-67070000D01*
X150208988Y-67091849D01*
X149924352Y-67178192D01*
X149662030Y-67318406D01*
X149432103Y-67507103D01*
X149243406Y-67737030D01*
X149103192Y-67999352D01*
X149016849Y-68283988D01*
X148987694Y-68580000D01*
X149016849Y-68876012D01*
X149103192Y-69160648D01*
X149243406Y-69422970D01*
X149432103Y-69652897D01*
X149662030Y-69841594D01*
X149677757Y-69850000D01*
X149662030Y-69858406D01*
X149432103Y-70047103D01*
X149243406Y-70277030D01*
X149103192Y-70539352D01*
X149016849Y-70823988D01*
X148987694Y-71120000D01*
X149016849Y-71416012D01*
X149103192Y-71700648D01*
X149243406Y-71962970D01*
X149432103Y-72192897D01*
X149662030Y-72381594D01*
X149677757Y-72390000D01*
X149662030Y-72398406D01*
X149432103Y-72587103D01*
X149243406Y-72817030D01*
X149103192Y-73079352D01*
X149016849Y-73363988D01*
X148987694Y-73660000D01*
X149016849Y-73956012D01*
X149103192Y-74240648D01*
X149243406Y-74502970D01*
X149432103Y-74732897D01*
X149662030Y-74921594D01*
X149924352Y-75061808D01*
X150208988Y-75148151D01*
X150430822Y-75170000D01*
X151829178Y-75170000D01*
X152051012Y-75148151D01*
X152335648Y-75061808D01*
X152367094Y-75045000D01*
X154366315Y-75045000D01*
X157365001Y-78043687D01*
X157365000Y-119311971D01*
X157358300Y-119380000D01*
X157365000Y-119448029D01*
X157365000Y-119448036D01*
X157385040Y-119651506D01*
X157464236Y-119912580D01*
X157592843Y-120153187D01*
X157765919Y-120364080D01*
X157818765Y-120407450D01*
X161871314Y-124460000D01*
X159088764Y-127242551D01*
X159035920Y-127285919D01*
X158992551Y-127338764D01*
X158992548Y-127338767D01*
X158862844Y-127496812D01*
X158734236Y-127737420D01*
X158655040Y-127998493D01*
X158628300Y-128270000D01*
X158635001Y-128338039D01*
X158635000Y-138065654D01*
X158385654Y-138315000D01*
X147893686Y-138315000D01*
X141997454Y-132418769D01*
X141954081Y-132365919D01*
X141743188Y-132192843D01*
X141502581Y-132064236D01*
X141241507Y-131985040D01*
X141038037Y-131965000D01*
X141038029Y-131965000D01*
X140970000Y-131958300D01*
X140901971Y-131965000D01*
X130878026Y-131965000D01*
X130809999Y-131958300D01*
X130741972Y-131965000D01*
X130741963Y-131965000D01*
X130538493Y-131985040D01*
X130277419Y-132064236D01*
X130036812Y-132192843D01*
X129825919Y-132365919D01*
X129782546Y-132418769D01*
X127338765Y-134862550D01*
X127285920Y-134905919D01*
X127242551Y-134958764D01*
X127242548Y-134958767D01*
X127112844Y-135116812D01*
X126984236Y-135357420D01*
X126905040Y-135618493D01*
X126878300Y-135890000D01*
X126885001Y-135958039D01*
X126885000Y-138102146D01*
X126865000Y-138077775D01*
X126865000Y-135945741D01*
X126870490Y-135889999D01*
X126865000Y-135834257D01*
X126865000Y-135834248D01*
X126848577Y-135667501D01*
X126783676Y-135453553D01*
X126678284Y-135256377D01*
X126536449Y-135083551D01*
X126493141Y-135048009D01*
X124031996Y-132586865D01*
X123996449Y-132543551D01*
X123823623Y-132401716D01*
X123626447Y-132296324D01*
X123412499Y-132231423D01*
X123245752Y-132215000D01*
X123245751Y-132215000D01*
X123190000Y-132209509D01*
X123134249Y-132215000D01*
X114770132Y-132215000D01*
X110355000Y-127799869D01*
X110355000Y-127118072D01*
X110752500Y-127118072D01*
X110928193Y-127100768D01*
X111097134Y-127049520D01*
X111252831Y-126966298D01*
X111389301Y-126854301D01*
X111501298Y-126717831D01*
X111584520Y-126562134D01*
X111635768Y-126393193D01*
X111653072Y-126217500D01*
X111653072Y-125242500D01*
X111635768Y-125066807D01*
X111625000Y-125031310D01*
X111625000Y-118994284D01*
X111761680Y-118789727D01*
X111869853Y-118528574D01*
X111925000Y-118251335D01*
X111925000Y-117968665D01*
X111869853Y-117691426D01*
X111761680Y-117430273D01*
X111604637Y-117195241D01*
X111404759Y-116995363D01*
X111172241Y-116840000D01*
X111404759Y-116684637D01*
X111604637Y-116484759D01*
X111761680Y-116249727D01*
X111869853Y-115988574D01*
X111925000Y-115711335D01*
X111925000Y-115428665D01*
X111869853Y-115151426D01*
X111761680Y-114890273D01*
X111604637Y-114655241D01*
X111404759Y-114455363D01*
X111169727Y-114298320D01*
X110908574Y-114190147D01*
X110631335Y-114135000D01*
X110348665Y-114135000D01*
X110071426Y-114190147D01*
X109810273Y-114298320D01*
X109575241Y-114455363D01*
X109375363Y-114655241D01*
X109218320Y-114890273D01*
X109110147Y-115151426D01*
X109055000Y-115428665D01*
X109055000Y-115711335D01*
X109110147Y-115988574D01*
X109218320Y-116249727D01*
X109375363Y-116484759D01*
X109575241Y-116684637D01*
X109807759Y-116840000D01*
X109575241Y-116995363D01*
X109375363Y-117195241D01*
X109218320Y-117430273D01*
X109110147Y-117691426D01*
X109055000Y-117968665D01*
X109055000Y-118251335D01*
X109110147Y-118528574D01*
X109218320Y-118789727D01*
X109355001Y-118994285D01*
X109355000Y-124341928D01*
X108957500Y-124341928D01*
X108781807Y-124359232D01*
X108612866Y-124410480D01*
X108457169Y-124493702D01*
X108320699Y-124605699D01*
X108208702Y-124742169D01*
X108125480Y-124897866D01*
X108074232Y-125066807D01*
X108056928Y-125242500D01*
X108056928Y-126217500D01*
X108074232Y-126393193D01*
X108085000Y-126428691D01*
X108085001Y-128214239D01*
X108079509Y-128270000D01*
X108101423Y-128492498D01*
X108166324Y-128706446D01*
X108166325Y-128706447D01*
X108271717Y-128903623D01*
X108413552Y-129076449D01*
X108456860Y-129111991D01*
X113458009Y-134113141D01*
X113493551Y-134156449D01*
X113645600Y-134281233D01*
X113666377Y-134298284D01*
X113863553Y-134403676D01*
X114077501Y-134468577D01*
X114300000Y-134490491D01*
X114355751Y-134485000D01*
X122719869Y-134485000D01*
X124595000Y-136360132D01*
X124595001Y-138077776D01*
X124468407Y-138232030D01*
X124328192Y-138494352D01*
X124241849Y-138778988D01*
X124220000Y-139000822D01*
X124220000Y-140399177D01*
X124241849Y-140621011D01*
X124328192Y-140905647D01*
X124468406Y-141167969D01*
X124657103Y-141397897D01*
X124887030Y-141586594D01*
X125149352Y-141726808D01*
X125433988Y-141813151D01*
X125730000Y-141842306D01*
X126026011Y-141813151D01*
X126310647Y-141726808D01*
X126572969Y-141586594D01*
X126802897Y-141397897D01*
X126991594Y-141167970D01*
X127000000Y-141152243D01*
X127008406Y-141167969D01*
X127035000Y-141200374D01*
X127035000Y-141888446D01*
X126648447Y-142275000D01*
X65281554Y-142275000D01*
X35525000Y-112518447D01*
X35525000Y-104140000D01*
X55909025Y-104140000D01*
X55915001Y-104200675D01*
X55915000Y-128209335D01*
X55909025Y-128270000D01*
X55915000Y-128330664D01*
X55932870Y-128512101D01*
X56003489Y-128744900D01*
X56118167Y-128959448D01*
X56272498Y-129147502D01*
X56319625Y-129186178D01*
X58773826Y-131640380D01*
X58812498Y-131687502D01*
X59000551Y-131841833D01*
X59215099Y-131956511D01*
X59447898Y-132027130D01*
X59629335Y-132045000D01*
X59629344Y-132045000D01*
X59689999Y-132050974D01*
X59750654Y-132045000D01*
X63269625Y-132045000D01*
X63302030Y-132071594D01*
X63564352Y-132211808D01*
X63848988Y-132298151D01*
X64070822Y-132320000D01*
X65469178Y-132320000D01*
X65691012Y-132298151D01*
X65975648Y-132211808D01*
X66237970Y-132071594D01*
X66467897Y-131882897D01*
X66656594Y-131652970D01*
X66796808Y-131390648D01*
X66883151Y-131106012D01*
X66912306Y-130810000D01*
X75327694Y-130810000D01*
X75356849Y-131106012D01*
X75443192Y-131390648D01*
X75583406Y-131652970D01*
X75772103Y-131882897D01*
X76002030Y-132071594D01*
X76264352Y-132211808D01*
X76548988Y-132298151D01*
X76770822Y-132320000D01*
X78169178Y-132320000D01*
X78391012Y-132298151D01*
X78675648Y-132211808D01*
X78937970Y-132071594D01*
X79167897Y-131882897D01*
X79356594Y-131652970D01*
X79496808Y-131390648D01*
X79583151Y-131106012D01*
X79612306Y-130810000D01*
X79583151Y-130513988D01*
X79496808Y-130229352D01*
X79356594Y-129967030D01*
X79167897Y-129737103D01*
X78937970Y-129548406D01*
X78675648Y-129408192D01*
X78391012Y-129321849D01*
X78169178Y-129300000D01*
X76770822Y-129300000D01*
X76548988Y-129321849D01*
X76264352Y-129408192D01*
X76002030Y-129548406D01*
X75772103Y-129737103D01*
X75583406Y-129967030D01*
X75443192Y-130229352D01*
X75356849Y-130513988D01*
X75327694Y-130810000D01*
X66912306Y-130810000D01*
X66883151Y-130513988D01*
X66796808Y-130229352D01*
X66656594Y-129967030D01*
X66467897Y-129737103D01*
X66237970Y-129548406D01*
X66222243Y-129540000D01*
X66237970Y-129531594D01*
X66467897Y-129342897D01*
X66656594Y-129112970D01*
X66796808Y-128850648D01*
X66883151Y-128566012D01*
X66912306Y-128270000D01*
X66883151Y-127973988D01*
X66796808Y-127689352D01*
X66656594Y-127427030D01*
X66467897Y-127197103D01*
X66237970Y-127008406D01*
X66222243Y-127000000D01*
X66237970Y-126991594D01*
X66467897Y-126802897D01*
X66656594Y-126572970D01*
X66796808Y-126310648D01*
X66883151Y-126026012D01*
X66912306Y-125730000D01*
X66883151Y-125433988D01*
X66796808Y-125149352D01*
X66656594Y-124887030D01*
X66467897Y-124657103D01*
X66237970Y-124468406D01*
X66222243Y-124460000D01*
X66237970Y-124451594D01*
X66467897Y-124262897D01*
X66656594Y-124032970D01*
X66796808Y-123770648D01*
X66883151Y-123486012D01*
X66912306Y-123190000D01*
X66883151Y-122893988D01*
X66796808Y-122609352D01*
X66656594Y-122347030D01*
X66467897Y-122117103D01*
X66237970Y-121928406D01*
X66222243Y-121920000D01*
X66237970Y-121911594D01*
X66467897Y-121722897D01*
X66656594Y-121492970D01*
X66796808Y-121230648D01*
X66883151Y-120946012D01*
X66912306Y-120650000D01*
X66883151Y-120353988D01*
X66796808Y-120069352D01*
X66656594Y-119807030D01*
X66467897Y-119577103D01*
X66237970Y-119388406D01*
X65975648Y-119248192D01*
X65691012Y-119161849D01*
X65469178Y-119140000D01*
X64070822Y-119140000D01*
X63848988Y-119161849D01*
X63564352Y-119248192D01*
X63302030Y-119388406D01*
X63072103Y-119577103D01*
X62883406Y-119807030D01*
X62743192Y-120069352D01*
X62656849Y-120353988D01*
X62627694Y-120650000D01*
X62656849Y-120946012D01*
X62743192Y-121230648D01*
X62883406Y-121492970D01*
X63072103Y-121722897D01*
X63302030Y-121911594D01*
X63317757Y-121920000D01*
X63302030Y-121928406D01*
X63072103Y-122117103D01*
X62883406Y-122347030D01*
X62743192Y-122609352D01*
X62656849Y-122893988D01*
X62627694Y-123190000D01*
X62656849Y-123486012D01*
X62743192Y-123770648D01*
X62883406Y-124032970D01*
X63072103Y-124262897D01*
X63302030Y-124451594D01*
X63317757Y-124460000D01*
X63302030Y-124468406D01*
X63072103Y-124657103D01*
X62883406Y-124887030D01*
X62743192Y-125149352D01*
X62656849Y-125433988D01*
X62627694Y-125730000D01*
X62656849Y-126026012D01*
X62743192Y-126310648D01*
X62883406Y-126572970D01*
X63072103Y-126802897D01*
X63302030Y-126991594D01*
X63317757Y-127000000D01*
X63302030Y-127008406D01*
X63072103Y-127197103D01*
X62883406Y-127427030D01*
X62743192Y-127689352D01*
X62656849Y-127973988D01*
X62627694Y-128270000D01*
X62656849Y-128566012D01*
X62743192Y-128850648D01*
X62883406Y-129112970D01*
X63072103Y-129342897D01*
X63302030Y-129531594D01*
X63317757Y-129540000D01*
X63302030Y-129548406D01*
X63269625Y-129575000D01*
X60201554Y-129575000D01*
X58385000Y-127758447D01*
X58385000Y-104651553D01*
X58931554Y-104105000D01*
X61999625Y-104105000D01*
X62032030Y-104131594D01*
X62294352Y-104271808D01*
X62578988Y-104358151D01*
X62800822Y-104380000D01*
X64199178Y-104380000D01*
X64421012Y-104358151D01*
X64705648Y-104271808D01*
X64967970Y-104131594D01*
X65197897Y-103942897D01*
X65386594Y-103712970D01*
X65526808Y-103450648D01*
X65613151Y-103166012D01*
X65642306Y-102870000D01*
X65613151Y-102573988D01*
X65526808Y-102289352D01*
X65386594Y-102027030D01*
X65197897Y-101797103D01*
X64967970Y-101608406D01*
X64952243Y-101600000D01*
X64967970Y-101591594D01*
X65197897Y-101402897D01*
X65386594Y-101172970D01*
X65526808Y-100910648D01*
X65613151Y-100626012D01*
X65642306Y-100330000D01*
X65613151Y-100033988D01*
X65526808Y-99749352D01*
X65386594Y-99487030D01*
X65197897Y-99257103D01*
X64967970Y-99068406D01*
X64952243Y-99060000D01*
X64967970Y-99051594D01*
X65197897Y-98862897D01*
X65386594Y-98632970D01*
X65526808Y-98370648D01*
X65613151Y-98086012D01*
X65642306Y-97790000D01*
X65613151Y-97493988D01*
X65526808Y-97209352D01*
X65386594Y-96947030D01*
X65197897Y-96717103D01*
X64967970Y-96528406D01*
X64952243Y-96520000D01*
X64967970Y-96511594D01*
X65197897Y-96322897D01*
X65386594Y-96092970D01*
X65526808Y-95830648D01*
X65613151Y-95546012D01*
X65642306Y-95250000D01*
X65613151Y-94953988D01*
X65526808Y-94669352D01*
X65386594Y-94407030D01*
X65197897Y-94177103D01*
X64967970Y-93988406D01*
X64952243Y-93980000D01*
X64967970Y-93971594D01*
X65197897Y-93782897D01*
X65386594Y-93552970D01*
X65526808Y-93290648D01*
X65613151Y-93006012D01*
X65642306Y-92710000D01*
X65613151Y-92413988D01*
X65526808Y-92129352D01*
X65386594Y-91867030D01*
X65197897Y-91637103D01*
X64967970Y-91448406D01*
X64705648Y-91308192D01*
X64421012Y-91221849D01*
X64199178Y-91200000D01*
X62800822Y-91200000D01*
X62578988Y-91221849D01*
X62294352Y-91308192D01*
X62032030Y-91448406D01*
X61802103Y-91637103D01*
X61613406Y-91867030D01*
X61473192Y-92129352D01*
X61386849Y-92413988D01*
X61357694Y-92710000D01*
X61386849Y-93006012D01*
X61473192Y-93290648D01*
X61613406Y-93552970D01*
X61802103Y-93782897D01*
X62032030Y-93971594D01*
X62047757Y-93980000D01*
X62032030Y-93988406D01*
X61802103Y-94177103D01*
X61613406Y-94407030D01*
X61473192Y-94669352D01*
X61386849Y-94953988D01*
X61357694Y-95250000D01*
X61386849Y-95546012D01*
X61473192Y-95830648D01*
X61613406Y-96092970D01*
X61802103Y-96322897D01*
X62032030Y-96511594D01*
X62047757Y-96520000D01*
X62032030Y-96528406D01*
X61802103Y-96717103D01*
X61613406Y-96947030D01*
X61473192Y-97209352D01*
X61386849Y-97493988D01*
X61357694Y-97790000D01*
X61386849Y-98086012D01*
X61473192Y-98370648D01*
X61613406Y-98632970D01*
X61802103Y-98862897D01*
X62032030Y-99051594D01*
X62047757Y-99060000D01*
X62032030Y-99068406D01*
X61802103Y-99257103D01*
X61613406Y-99487030D01*
X61473192Y-99749352D01*
X61386849Y-100033988D01*
X61357694Y-100330000D01*
X61386849Y-100626012D01*
X61473192Y-100910648D01*
X61613406Y-101172970D01*
X61802103Y-101402897D01*
X62032030Y-101591594D01*
X62047757Y-101600000D01*
X62032030Y-101608406D01*
X61999625Y-101635000D01*
X58480664Y-101635000D01*
X58419999Y-101629025D01*
X58177897Y-101652870D01*
X57945099Y-101723489D01*
X57730551Y-101838167D01*
X57542498Y-101992498D01*
X57503826Y-102039620D01*
X56319621Y-103223826D01*
X56272499Y-103262498D01*
X56118168Y-103450551D01*
X56003490Y-103665099D01*
X56003489Y-103665101D01*
X55932870Y-103897898D01*
X55909025Y-104140000D01*
X35525000Y-104140000D01*
X35525000Y-94491553D01*
X37341554Y-92675000D01*
X39139625Y-92675000D01*
X39172030Y-92701594D01*
X39434352Y-92841808D01*
X39718988Y-92928151D01*
X39940822Y-92950000D01*
X41339178Y-92950000D01*
X41561012Y-92928151D01*
X41845648Y-92841808D01*
X42107970Y-92701594D01*
X42337897Y-92512897D01*
X42526594Y-92282970D01*
X42666808Y-92020648D01*
X42753151Y-91736012D01*
X42782306Y-91440000D01*
X42753151Y-91143988D01*
X42666808Y-90859352D01*
X42526594Y-90597030D01*
X42337897Y-90367103D01*
X42107970Y-90178406D01*
X41845648Y-90038192D01*
X41561012Y-89951849D01*
X41339178Y-89930000D01*
X39940822Y-89930000D01*
X39718988Y-89951849D01*
X39434352Y-90038192D01*
X39172030Y-90178406D01*
X39139625Y-90205000D01*
X37341554Y-90205000D01*
X35525000Y-88388447D01*
X35525000Y-76200000D01*
X38497694Y-76200000D01*
X38526849Y-76496012D01*
X38613192Y-76780648D01*
X38753406Y-77042970D01*
X38942103Y-77272897D01*
X39172030Y-77461594D01*
X39434352Y-77601808D01*
X39718988Y-77688151D01*
X39940822Y-77710000D01*
X41339178Y-77710000D01*
X41561012Y-77688151D01*
X41845648Y-77601808D01*
X42107970Y-77461594D01*
X42140375Y-77435000D01*
X51558447Y-77435000D01*
X54963826Y-80840380D01*
X55002498Y-80887502D01*
X55190551Y-81041833D01*
X55405099Y-81156511D01*
X55637898Y-81227130D01*
X55880000Y-81250975D01*
X55940665Y-81245000D01*
X61999625Y-81245000D01*
X62032030Y-81271594D01*
X62047757Y-81280000D01*
X62032030Y-81288406D01*
X61999625Y-81315000D01*
X59910665Y-81315000D01*
X59850000Y-81309025D01*
X59789335Y-81315000D01*
X59607898Y-81332870D01*
X59375099Y-81403489D01*
X59160551Y-81518167D01*
X58972498Y-81672498D01*
X58933826Y-81719620D01*
X42828447Y-97825000D01*
X42140375Y-97825000D01*
X42107970Y-97798406D01*
X41845648Y-97658192D01*
X41561012Y-97571849D01*
X41339178Y-97550000D01*
X39940822Y-97550000D01*
X39718988Y-97571849D01*
X39434352Y-97658192D01*
X39172030Y-97798406D01*
X38942103Y-97987103D01*
X38753406Y-98217030D01*
X38613192Y-98479352D01*
X38526849Y-98763988D01*
X38497694Y-99060000D01*
X38526849Y-99356012D01*
X38613192Y-99640648D01*
X38753406Y-99902970D01*
X38942103Y-100132897D01*
X39172030Y-100321594D01*
X39434352Y-100461808D01*
X39718988Y-100548151D01*
X39940822Y-100570000D01*
X41339178Y-100570000D01*
X41561012Y-100548151D01*
X41845648Y-100461808D01*
X42107970Y-100321594D01*
X42140375Y-100295000D01*
X43279335Y-100295000D01*
X43340000Y-100300975D01*
X43400665Y-100295000D01*
X43582102Y-100277130D01*
X43814901Y-100206511D01*
X44029449Y-100091833D01*
X44217502Y-99937502D01*
X44256179Y-99890374D01*
X60361554Y-83785000D01*
X61999625Y-83785000D01*
X62032030Y-83811594D01*
X62047757Y-83820000D01*
X62032030Y-83828406D01*
X61802103Y-84017103D01*
X61613406Y-84247030D01*
X61473192Y-84509352D01*
X61386849Y-84793988D01*
X61357694Y-85090000D01*
X61386849Y-85386012D01*
X61473192Y-85670648D01*
X61613406Y-85932970D01*
X61802103Y-86162897D01*
X62032030Y-86351594D01*
X62047757Y-86360000D01*
X62032030Y-86368406D01*
X61802103Y-86557103D01*
X61613406Y-86787030D01*
X61473192Y-87049352D01*
X61386849Y-87333988D01*
X61357694Y-87630000D01*
X61386849Y-87926012D01*
X61473192Y-88210648D01*
X61613406Y-88472970D01*
X61802103Y-88702897D01*
X62032030Y-88891594D01*
X62294352Y-89031808D01*
X62578988Y-89118151D01*
X62800822Y-89140000D01*
X64199178Y-89140000D01*
X64421012Y-89118151D01*
X64705648Y-89031808D01*
X64967970Y-88891594D01*
X65197897Y-88702897D01*
X65386594Y-88472970D01*
X65526808Y-88210648D01*
X65613151Y-87926012D01*
X65642306Y-87630000D01*
X65613151Y-87333988D01*
X65526808Y-87049352D01*
X65386594Y-86787030D01*
X65197897Y-86557103D01*
X64967970Y-86368406D01*
X64952243Y-86360000D01*
X64967970Y-86351594D01*
X65197897Y-86162897D01*
X65386594Y-85932970D01*
X65526808Y-85670648D01*
X65613151Y-85386012D01*
X65642306Y-85090000D01*
X65613151Y-84793988D01*
X65526808Y-84509352D01*
X65386594Y-84247030D01*
X65197897Y-84017103D01*
X64967970Y-83828406D01*
X64952243Y-83820000D01*
X64967970Y-83811594D01*
X65197897Y-83622897D01*
X65386594Y-83392970D01*
X65526808Y-83130648D01*
X65613151Y-82846012D01*
X65642306Y-82550000D01*
X65613151Y-82253988D01*
X65526808Y-81969352D01*
X65386594Y-81707030D01*
X65197897Y-81477103D01*
X64967970Y-81288406D01*
X64952243Y-81280000D01*
X64967970Y-81271594D01*
X65197897Y-81082897D01*
X65386594Y-80852970D01*
X65526808Y-80590648D01*
X65613151Y-80306012D01*
X65642306Y-80010000D01*
X65613151Y-79713988D01*
X65526808Y-79429352D01*
X65386594Y-79167030D01*
X65197897Y-78937103D01*
X64967970Y-78748406D01*
X64952243Y-78740000D01*
X64967970Y-78731594D01*
X65000375Y-78705000D01*
X68519335Y-78705000D01*
X68580000Y-78710975D01*
X68640665Y-78705000D01*
X68822102Y-78687130D01*
X69054901Y-78616511D01*
X69269449Y-78501833D01*
X69457502Y-78347502D01*
X69496178Y-78300375D01*
X73220380Y-74576174D01*
X73267502Y-74537502D01*
X73421833Y-74349449D01*
X73536511Y-74134901D01*
X73607130Y-73902102D01*
X73625000Y-73720665D01*
X73630975Y-73660000D01*
X73625000Y-73599335D01*
X73625000Y-69091553D01*
X92270381Y-50446173D01*
X92317502Y-50407502D01*
X92471833Y-50219449D01*
X92586511Y-50004901D01*
X92657130Y-49772102D01*
X92675000Y-49590665D01*
X92675000Y-49590656D01*
X92680974Y-49530001D01*
X92675000Y-49469346D01*
X92675000Y-47220375D01*
X92701594Y-47187970D01*
X92841808Y-46925648D01*
X92928151Y-46641012D01*
X92950000Y-46419178D01*
X92950000Y-45020822D01*
X92928151Y-44798988D01*
X92841808Y-44514352D01*
X92701594Y-44252030D01*
X92512897Y-44022103D01*
X92282969Y-43833406D01*
X92020647Y-43693192D01*
X91736011Y-43606849D01*
X91440000Y-43577694D01*
X91143988Y-43606849D01*
X90859352Y-43693192D01*
X90597030Y-43833406D01*
X90367103Y-44022103D01*
X90178406Y-44252031D01*
X90038192Y-44514353D01*
X89951849Y-44798989D01*
X89930000Y-45020823D01*
X89930000Y-46419178D01*
X89951849Y-46641012D01*
X90038192Y-46925648D01*
X90178407Y-47187970D01*
X90205000Y-47220374D01*
X90205001Y-49018445D01*
X71559626Y-67663821D01*
X71512498Y-67702498D01*
X71358167Y-67890552D01*
X71243489Y-68105100D01*
X71243489Y-68105101D01*
X71172870Y-68337898D01*
X71149025Y-68580000D01*
X71155000Y-68640665D01*
X71155001Y-73148445D01*
X68068447Y-76235000D01*
X65000375Y-76235000D01*
X64967970Y-76208406D01*
X64952243Y-76200000D01*
X64967970Y-76191594D01*
X65197897Y-76002897D01*
X65386594Y-75772970D01*
X65526808Y-75510648D01*
X65613151Y-75226012D01*
X65642306Y-74930000D01*
X65613151Y-74633988D01*
X65526808Y-74349352D01*
X65386594Y-74087030D01*
X65197897Y-73857103D01*
X64967970Y-73668406D01*
X64952243Y-73660000D01*
X64967970Y-73651594D01*
X65197897Y-73462897D01*
X65386594Y-73232970D01*
X65526808Y-72970648D01*
X65613151Y-72686012D01*
X65642306Y-72390000D01*
X65613151Y-72093988D01*
X65526808Y-71809352D01*
X65386594Y-71547030D01*
X65197897Y-71317103D01*
X64967970Y-71128406D01*
X64952243Y-71120000D01*
X64967970Y-71111594D01*
X65197897Y-70922897D01*
X65386594Y-70692970D01*
X65526808Y-70430648D01*
X65613151Y-70146012D01*
X65642306Y-69850000D01*
X65613151Y-69553988D01*
X65526808Y-69269352D01*
X65386594Y-69007030D01*
X65197897Y-68777103D01*
X64967970Y-68588406D01*
X64952243Y-68580000D01*
X64967970Y-68571594D01*
X65197897Y-68382897D01*
X65386594Y-68152970D01*
X65526808Y-67890648D01*
X65613151Y-67606012D01*
X65642306Y-67310000D01*
X65613151Y-67013988D01*
X65526808Y-66729352D01*
X65386594Y-66467030D01*
X65197897Y-66237103D01*
X64967970Y-66048406D01*
X64952243Y-66040000D01*
X64967970Y-66031594D01*
X65197897Y-65842897D01*
X65386594Y-65612970D01*
X65526808Y-65350648D01*
X65613151Y-65066012D01*
X65642306Y-64770000D01*
X65613151Y-64473988D01*
X65526808Y-64189352D01*
X65386594Y-63927030D01*
X65197897Y-63697103D01*
X64967970Y-63508406D01*
X64952243Y-63500000D01*
X64967970Y-63491594D01*
X65197897Y-63302897D01*
X65386594Y-63072970D01*
X65526808Y-62810648D01*
X65613151Y-62526012D01*
X65642306Y-62230000D01*
X65613151Y-61933988D01*
X65526808Y-61649352D01*
X65386594Y-61387030D01*
X65197897Y-61157103D01*
X64967970Y-60968406D01*
X64952243Y-60960000D01*
X64967970Y-60951594D01*
X65197897Y-60762897D01*
X65386594Y-60532970D01*
X65526808Y-60270648D01*
X65613151Y-59986012D01*
X65642306Y-59690000D01*
X65613151Y-59393988D01*
X65526808Y-59109352D01*
X65386594Y-58847030D01*
X65197897Y-58617103D01*
X64967970Y-58428406D01*
X64952243Y-58420000D01*
X64967970Y-58411594D01*
X65000375Y-58385000D01*
X74869335Y-58385000D01*
X74930000Y-58390975D01*
X74990665Y-58385000D01*
X75172102Y-58367130D01*
X75404901Y-58296511D01*
X75619449Y-58181833D01*
X75807502Y-58027502D01*
X75846179Y-57980374D01*
X91951554Y-41875000D01*
X102358447Y-41875000D01*
X104175000Y-43691554D01*
X104175000Y-44219626D01*
X104148406Y-44252031D01*
X104008192Y-44514353D01*
X103921849Y-44798989D01*
X103900000Y-45020823D01*
X103900000Y-46419178D01*
X103921849Y-46641012D01*
X104008192Y-46925648D01*
X104148407Y-47187970D01*
X104175000Y-47220374D01*
X104175000Y-47748446D01*
X103628447Y-48295000D01*
X99120654Y-48295000D01*
X99059999Y-48289026D01*
X98999344Y-48295000D01*
X98999335Y-48295000D01*
X98817898Y-48312870D01*
X98585099Y-48383489D01*
X98370551Y-48498167D01*
X98182498Y-48652498D01*
X98143826Y-48699620D01*
X95689621Y-51153826D01*
X95642499Y-51192498D01*
X95488168Y-51380551D01*
X95373489Y-51595099D01*
X95336762Y-51716173D01*
X95302870Y-51827898D01*
X95279025Y-52070000D01*
X95285000Y-52130665D01*
X95285000Y-52605377D01*
X95248320Y-52660273D01*
X95140147Y-52921426D01*
X95085000Y-53198665D01*
X95085000Y-53481335D01*
X95140147Y-53758574D01*
X95248320Y-54019727D01*
X95405363Y-54254759D01*
X95605241Y-54454637D01*
X95840273Y-54611680D01*
X96101426Y-54719853D01*
X96378665Y-54775000D01*
X96661335Y-54775000D01*
X96938574Y-54719853D01*
X97199727Y-54611680D01*
X97434759Y-54454637D01*
X97634637Y-54254759D01*
X97790000Y-54022241D01*
X97945363Y-54254759D01*
X98145241Y-54454637D01*
X98380273Y-54611680D01*
X98641426Y-54719853D01*
X98918665Y-54775000D01*
X99201335Y-54775000D01*
X99478574Y-54719853D01*
X99739727Y-54611680D01*
X99794623Y-54575000D01*
X103698446Y-54575000D01*
X97278447Y-60995000D01*
X90700375Y-60995000D01*
X90667970Y-60968406D01*
X90652243Y-60960000D01*
X90667970Y-60951594D01*
X90897897Y-60762897D01*
X91086594Y-60532970D01*
X91226808Y-60270648D01*
X91313151Y-59986012D01*
X91342306Y-59690000D01*
X91313151Y-59393988D01*
X91226808Y-59109352D01*
X91086594Y-58847030D01*
X90897897Y-58617103D01*
X90667970Y-58428406D01*
X90405648Y-58288192D01*
X90121012Y-58201849D01*
X89899178Y-58180000D01*
X88500822Y-58180000D01*
X88278988Y-58201849D01*
X87994352Y-58288192D01*
X87732030Y-58428406D01*
X87502103Y-58617103D01*
X87313406Y-58847030D01*
X87173192Y-59109352D01*
X87086849Y-59393988D01*
X87057694Y-59690000D01*
X87086849Y-59986012D01*
X87173192Y-60270648D01*
X87313406Y-60532970D01*
X87502103Y-60762897D01*
X87732030Y-60951594D01*
X87747757Y-60960000D01*
X87732030Y-60968406D01*
X87502103Y-61157103D01*
X87313406Y-61387030D01*
X87173192Y-61649352D01*
X87086849Y-61933988D01*
X87057694Y-62230000D01*
X87086849Y-62526012D01*
X87173192Y-62810648D01*
X87313406Y-63072970D01*
X87502103Y-63302897D01*
X87732030Y-63491594D01*
X87747757Y-63500000D01*
X87732030Y-63508406D01*
X87502103Y-63697103D01*
X87313406Y-63927030D01*
X87173192Y-64189352D01*
X87086849Y-64473988D01*
X87057694Y-64770000D01*
X87086849Y-65066012D01*
X87173192Y-65350648D01*
X87313406Y-65612970D01*
X87502103Y-65842897D01*
X87732030Y-66031594D01*
X87747757Y-66040000D01*
X87732030Y-66048406D01*
X87502103Y-66237103D01*
X87313406Y-66467030D01*
X87173192Y-66729352D01*
X87086849Y-67013988D01*
X87057694Y-67310000D01*
X87086849Y-67606012D01*
X87173192Y-67890648D01*
X87313406Y-68152970D01*
X87502103Y-68382897D01*
X87732030Y-68571594D01*
X87747757Y-68580000D01*
X87732030Y-68588406D01*
X87502103Y-68777103D01*
X87313406Y-69007030D01*
X87173192Y-69269352D01*
X87086849Y-69553988D01*
X87057694Y-69850000D01*
X87086849Y-70146012D01*
X87173192Y-70430648D01*
X87313406Y-70692970D01*
X87502103Y-70922897D01*
X87732030Y-71111594D01*
X87994352Y-71251808D01*
X88278988Y-71338151D01*
X88500822Y-71360000D01*
X89899178Y-71360000D01*
X90121012Y-71338151D01*
X90405648Y-71251808D01*
X90667970Y-71111594D01*
X90700375Y-71085000D01*
X92649335Y-71085000D01*
X92710000Y-71090975D01*
X92770665Y-71085000D01*
X92952102Y-71067130D01*
X93184901Y-70996511D01*
X93399449Y-70881833D01*
X93587502Y-70727502D01*
X93626179Y-70680374D01*
X113860374Y-50446179D01*
X113907502Y-50407502D01*
X114061833Y-50219449D01*
X114176511Y-50004901D01*
X114247130Y-49772102D01*
X114265000Y-49590665D01*
X114265000Y-49590664D01*
X114270975Y-49530000D01*
X114265000Y-49469335D01*
X114265000Y-47220375D01*
X114291594Y-47187970D01*
X114431808Y-46925648D01*
X114518151Y-46641012D01*
X114540000Y-46419178D01*
X114540000Y-45554042D01*
X116425000Y-45554042D01*
X116425000Y-45885958D01*
X116489754Y-46211496D01*
X116616772Y-46518147D01*
X116801175Y-46794125D01*
X117035875Y-47028825D01*
X117311853Y-47213228D01*
X117618504Y-47340246D01*
X117944042Y-47405000D01*
X118275958Y-47405000D01*
X118601496Y-47340246D01*
X118908147Y-47213228D01*
X119184125Y-47028825D01*
X119380000Y-46832950D01*
X119575875Y-47028825D01*
X119851853Y-47213228D01*
X120158504Y-47340246D01*
X120484042Y-47405000D01*
X120815958Y-47405000D01*
X121141496Y-47340246D01*
X121448147Y-47213228D01*
X121724125Y-47028825D01*
X121958825Y-46794125D01*
X122143228Y-46518147D01*
X122270246Y-46211496D01*
X122335000Y-45885958D01*
X122335000Y-45554042D01*
X122270246Y-45228504D01*
X122143228Y-44921853D01*
X121958825Y-44645875D01*
X121724125Y-44411175D01*
X121448147Y-44226772D01*
X121141496Y-44099754D01*
X120815958Y-44035000D01*
X120484042Y-44035000D01*
X120158504Y-44099754D01*
X119851853Y-44226772D01*
X119575875Y-44411175D01*
X119380000Y-44607050D01*
X119184125Y-44411175D01*
X118908147Y-44226772D01*
X118601496Y-44099754D01*
X118275958Y-44035000D01*
X117944042Y-44035000D01*
X117618504Y-44099754D01*
X117311853Y-44226772D01*
X117035875Y-44411175D01*
X116801175Y-44645875D01*
X116616772Y-44921853D01*
X116489754Y-45228504D01*
X116425000Y-45554042D01*
X114540000Y-45554042D01*
X114540000Y-45020822D01*
X114518151Y-44798988D01*
X114431808Y-44514352D01*
X114291594Y-44252030D01*
X114265000Y-44219625D01*
X114265000Y-43240665D01*
X114270975Y-43180000D01*
X114247130Y-42937898D01*
X114222979Y-42858283D01*
X114176511Y-42705099D01*
X114061833Y-42490551D01*
X113907502Y-42302498D01*
X113860381Y-42263827D01*
X109342734Y-37746181D01*
X109329853Y-37681426D01*
X109221680Y-37420273D01*
X109064637Y-37185241D01*
X108864759Y-36985363D01*
X108629727Y-36828320D01*
X108368574Y-36720147D01*
X108091335Y-36665000D01*
X107808665Y-36665000D01*
X107531426Y-36720147D01*
X107270273Y-36828320D01*
X107035241Y-36985363D01*
X106835363Y-37185241D01*
X106680000Y-37417759D01*
X106524637Y-37185241D01*
X106324759Y-36985363D01*
X106089727Y-36828320D01*
X105828574Y-36720147D01*
X105551335Y-36665000D01*
X105268665Y-36665000D01*
X104991426Y-36720147D01*
X104730273Y-36828320D01*
X104495241Y-36985363D01*
X104295363Y-37185241D01*
X104138320Y-37420273D01*
X104030147Y-37681426D01*
X104017267Y-37746180D01*
X102358447Y-39405000D01*
X91500665Y-39405000D01*
X91440000Y-39399025D01*
X91379335Y-39405000D01*
X91197898Y-39422870D01*
X90965099Y-39493489D01*
X90750551Y-39608167D01*
X90562498Y-39762498D01*
X90523827Y-39809619D01*
X74418447Y-55915000D01*
X65000375Y-55915000D01*
X64967970Y-55888406D01*
X64705648Y-55748192D01*
X64421012Y-55661849D01*
X64199178Y-55640000D01*
X62800822Y-55640000D01*
X62578988Y-55661849D01*
X62294352Y-55748192D01*
X62032030Y-55888406D01*
X61802103Y-56077103D01*
X61613406Y-56307030D01*
X61473192Y-56569352D01*
X61386849Y-56853988D01*
X61357694Y-57150000D01*
X61386849Y-57446012D01*
X61473192Y-57730648D01*
X61613406Y-57992970D01*
X61802103Y-58222897D01*
X62032030Y-58411594D01*
X62047757Y-58420000D01*
X62032030Y-58428406D01*
X61802103Y-58617103D01*
X61613406Y-58847030D01*
X61473192Y-59109352D01*
X61386849Y-59393988D01*
X61357694Y-59690000D01*
X61386849Y-59986012D01*
X61473192Y-60270648D01*
X61613406Y-60532970D01*
X61802103Y-60762897D01*
X62032030Y-60951594D01*
X62047757Y-60960000D01*
X62032030Y-60968406D01*
X61802103Y-61157103D01*
X61613406Y-61387030D01*
X61473192Y-61649352D01*
X61386849Y-61933988D01*
X61357694Y-62230000D01*
X61386849Y-62526012D01*
X61473192Y-62810648D01*
X61613406Y-63072970D01*
X61802103Y-63302897D01*
X62032030Y-63491594D01*
X62047757Y-63500000D01*
X62032030Y-63508406D01*
X61802103Y-63697103D01*
X61613406Y-63927030D01*
X61473192Y-64189352D01*
X61386849Y-64473988D01*
X61357694Y-64770000D01*
X61386849Y-65066012D01*
X61473192Y-65350648D01*
X61613406Y-65612970D01*
X61802103Y-65842897D01*
X62032030Y-66031594D01*
X62047757Y-66040000D01*
X62032030Y-66048406D01*
X61802103Y-66237103D01*
X61613406Y-66467030D01*
X61473192Y-66729352D01*
X61386849Y-67013988D01*
X61357694Y-67310000D01*
X61386849Y-67606012D01*
X61473192Y-67890648D01*
X61613406Y-68152970D01*
X61802103Y-68382897D01*
X62032030Y-68571594D01*
X62047757Y-68580000D01*
X62032030Y-68588406D01*
X61802103Y-68777103D01*
X61613406Y-69007030D01*
X61473192Y-69269352D01*
X61386849Y-69553988D01*
X61357694Y-69850000D01*
X61386849Y-70146012D01*
X61473192Y-70430648D01*
X61613406Y-70692970D01*
X61802103Y-70922897D01*
X62032030Y-71111594D01*
X62047757Y-71120000D01*
X62032030Y-71128406D01*
X61802103Y-71317103D01*
X61613406Y-71547030D01*
X61473192Y-71809352D01*
X61386849Y-72093988D01*
X61357694Y-72390000D01*
X61386849Y-72686012D01*
X61473192Y-72970648D01*
X61613406Y-73232970D01*
X61802103Y-73462897D01*
X62032030Y-73651594D01*
X62047757Y-73660000D01*
X62032030Y-73668406D01*
X61802103Y-73857103D01*
X61613406Y-74087030D01*
X61473192Y-74349352D01*
X61386849Y-74633988D01*
X61357694Y-74930000D01*
X61386849Y-75226012D01*
X61473192Y-75510648D01*
X61613406Y-75772970D01*
X61802103Y-76002897D01*
X62032030Y-76191594D01*
X62047757Y-76200000D01*
X62032030Y-76208406D01*
X61802103Y-76397103D01*
X61613406Y-76627030D01*
X61473192Y-76889352D01*
X61386849Y-77173988D01*
X61357694Y-77470000D01*
X61386849Y-77766012D01*
X61473192Y-78050648D01*
X61613406Y-78312970D01*
X61802103Y-78542897D01*
X62032030Y-78731594D01*
X62047757Y-78740000D01*
X62032030Y-78748406D01*
X61999625Y-78775000D01*
X56391554Y-78775000D01*
X52986178Y-75369625D01*
X52947502Y-75322498D01*
X52759449Y-75168167D01*
X52544901Y-75053489D01*
X52312102Y-74982870D01*
X52130665Y-74965000D01*
X52070000Y-74959025D01*
X52009335Y-74965000D01*
X42140375Y-74965000D01*
X42107970Y-74938406D01*
X41845648Y-74798192D01*
X41561012Y-74711849D01*
X41339178Y-74690000D01*
X39940822Y-74690000D01*
X39718988Y-74711849D01*
X39434352Y-74798192D01*
X39172030Y-74938406D01*
X38942103Y-75127103D01*
X38753406Y-75357030D01*
X38613192Y-75619352D01*
X38526849Y-75903988D01*
X38497694Y-76200000D01*
X35525000Y-76200000D01*
X35525000Y-71631553D01*
X37341554Y-69815000D01*
X39139625Y-69815000D01*
X39172030Y-69841594D01*
X39434352Y-69981808D01*
X39718988Y-70068151D01*
X39940822Y-70090000D01*
X41339178Y-70090000D01*
X41561012Y-70068151D01*
X41845648Y-69981808D01*
X42107970Y-69841594D01*
X42337897Y-69652897D01*
X42526594Y-69422970D01*
X42666808Y-69160648D01*
X42753151Y-68876012D01*
X42782306Y-68580000D01*
X42753151Y-68283988D01*
X42666808Y-67999352D01*
X42526594Y-67737030D01*
X42337897Y-67507103D01*
X42107970Y-67318406D01*
X41845648Y-67178192D01*
X41561012Y-67091849D01*
X41339178Y-67070000D01*
X39940822Y-67070000D01*
X39718988Y-67091849D01*
X39434352Y-67178192D01*
X39172030Y-67318406D01*
X39139625Y-67345000D01*
X36890654Y-67345000D01*
X36829999Y-67339026D01*
X36769344Y-67345000D01*
X36769335Y-67345000D01*
X36587898Y-67362870D01*
X36355099Y-67433489D01*
X36140551Y-67548167D01*
X35952498Y-67702498D01*
X35913826Y-67749620D01*
X33459625Y-70203822D01*
X33412498Y-70242498D01*
X33258167Y-70430552D01*
X33143489Y-70645100D01*
X33143489Y-70645101D01*
X33072870Y-70877898D01*
X33049025Y-71120000D01*
X33055000Y-71180665D01*
X33055001Y-88839325D01*
X33049025Y-88900000D01*
X33072870Y-89142102D01*
X33128968Y-89327030D01*
X33143490Y-89374901D01*
X33258168Y-89589449D01*
X33412499Y-89777502D01*
X33459621Y-89816174D01*
X35083446Y-91440000D01*
X33459625Y-93063822D01*
X33412498Y-93102498D01*
X33258167Y-93290552D01*
X33143489Y-93505100D01*
X33143489Y-93505101D01*
X33072870Y-93737898D01*
X33049025Y-93980000D01*
X33055000Y-94040665D01*
X33055001Y-112969325D01*
X33049025Y-113030000D01*
X33072870Y-113272102D01*
X33143489Y-113504899D01*
X33143490Y-113504901D01*
X33258168Y-113719449D01*
X33412499Y-113907502D01*
X33459621Y-113946174D01*
X62896446Y-143383000D01*
X29337000Y-143383000D01*
X29337000Y-35687000D01*
X131598530Y-35687000D01*
X131390551Y-35798167D01*
G36*
X106835363Y-39014759D02*
G01*
X107035241Y-39214637D01*
X107270273Y-39371680D01*
X107531426Y-39479853D01*
X107596181Y-39492734D01*
X111795000Y-43691554D01*
X111795000Y-44219626D01*
X111768406Y-44252031D01*
X111760000Y-44267757D01*
X111751594Y-44252030D01*
X111562897Y-44022103D01*
X111332969Y-43833406D01*
X111070647Y-43693192D01*
X110786011Y-43606849D01*
X110490000Y-43577694D01*
X110193988Y-43606849D01*
X109909352Y-43693192D01*
X109647030Y-43833406D01*
X109417103Y-44022103D01*
X109228406Y-44252031D01*
X109088192Y-44514353D01*
X109001849Y-44798989D01*
X108980000Y-45020823D01*
X108980000Y-46419178D01*
X109001849Y-46641012D01*
X109088192Y-46925648D01*
X109228407Y-47187970D01*
X109255001Y-47220374D01*
X109255000Y-49018446D01*
X106168446Y-52105000D01*
X99794623Y-52105000D01*
X99739727Y-52068320D01*
X99478574Y-51960147D01*
X99201335Y-51905000D01*
X98918665Y-51905000D01*
X98641426Y-51960147D01*
X98380273Y-52068320D01*
X98145241Y-52225363D01*
X97945363Y-52425241D01*
X97790000Y-52657759D01*
X97755000Y-52605377D01*
X97755000Y-52581553D01*
X99571554Y-50765000D01*
X104079335Y-50765000D01*
X104140000Y-50770975D01*
X104200665Y-50765000D01*
X104382102Y-50747130D01*
X104614901Y-50676511D01*
X104829449Y-50561833D01*
X105017502Y-50407502D01*
X105056178Y-50360375D01*
X106240381Y-49176173D01*
X106287502Y-49137502D01*
X106441833Y-48949449D01*
X106556511Y-48734901D01*
X106567213Y-48699620D01*
X106627130Y-48502103D01*
X106650975Y-48260001D01*
X106645000Y-48199336D01*
X106645000Y-47220375D01*
X106671594Y-47187970D01*
X106811808Y-46925648D01*
X106898151Y-46641012D01*
X106920000Y-46419178D01*
X106920000Y-45020822D01*
X106898151Y-44798988D01*
X106811808Y-44514352D01*
X106671594Y-44252030D01*
X106645000Y-44219625D01*
X106645000Y-43240654D01*
X106650974Y-43179999D01*
X106645000Y-43119344D01*
X106645000Y-43119335D01*
X106627130Y-42937898D01*
X106556511Y-42705099D01*
X106441833Y-42490551D01*
X106287502Y-42302498D01*
X106240381Y-42263827D01*
X104616553Y-40640000D01*
X105763820Y-39492733D01*
X105828574Y-39479853D01*
X106089727Y-39371680D01*
X106324759Y-39214637D01*
X106524637Y-39014759D01*
X106680000Y-38782241D01*
X106835363Y-39014759D01*
G37*
X106835363Y-39014759D02*
X107035241Y-39214637D01*
X107270273Y-39371680D01*
X107531426Y-39479853D01*
X107596181Y-39492734D01*
X111795000Y-43691554D01*
X111795000Y-44219626D01*
X111768406Y-44252031D01*
X111760000Y-44267757D01*
X111751594Y-44252030D01*
X111562897Y-44022103D01*
X111332969Y-43833406D01*
X111070647Y-43693192D01*
X110786011Y-43606849D01*
X110490000Y-43577694D01*
X110193988Y-43606849D01*
X109909352Y-43693192D01*
X109647030Y-43833406D01*
X109417103Y-44022103D01*
X109228406Y-44252031D01*
X109088192Y-44514353D01*
X109001849Y-44798989D01*
X108980000Y-45020823D01*
X108980000Y-46419178D01*
X109001849Y-46641012D01*
X109088192Y-46925648D01*
X109228407Y-47187970D01*
X109255001Y-47220374D01*
X109255000Y-49018446D01*
X106168446Y-52105000D01*
X99794623Y-52105000D01*
X99739727Y-52068320D01*
X99478574Y-51960147D01*
X99201335Y-51905000D01*
X98918665Y-51905000D01*
X98641426Y-51960147D01*
X98380273Y-52068320D01*
X98145241Y-52225363D01*
X97945363Y-52425241D01*
X97790000Y-52657759D01*
X97755000Y-52605377D01*
X97755000Y-52581553D01*
X99571554Y-50765000D01*
X104079335Y-50765000D01*
X104140000Y-50770975D01*
X104200665Y-50765000D01*
X104382102Y-50747130D01*
X104614901Y-50676511D01*
X104829449Y-50561833D01*
X105017502Y-50407502D01*
X105056178Y-50360375D01*
X106240381Y-49176173D01*
X106287502Y-49137502D01*
X106441833Y-48949449D01*
X106556511Y-48734901D01*
X106567213Y-48699620D01*
X106627130Y-48502103D01*
X106650975Y-48260001D01*
X106645000Y-48199336D01*
X106645000Y-47220375D01*
X106671594Y-47187970D01*
X106811808Y-46925648D01*
X106898151Y-46641012D01*
X106920000Y-46419178D01*
X106920000Y-45020822D01*
X106898151Y-44798988D01*
X106811808Y-44514352D01*
X106671594Y-44252030D01*
X106645000Y-44219625D01*
X106645000Y-43240654D01*
X106650974Y-43179999D01*
X106645000Y-43119344D01*
X106645000Y-43119335D01*
X106627130Y-42937898D01*
X106556511Y-42705099D01*
X106441833Y-42490551D01*
X106287502Y-42302498D01*
X106240381Y-42263827D01*
X104616553Y-40640000D01*
X105763820Y-39492733D01*
X105828574Y-39479853D01*
X106089727Y-39371680D01*
X106324759Y-39214637D01*
X106524637Y-39014759D01*
X106680000Y-38782241D01*
X106835363Y-39014759D01*
%TD*%
M02*
