%TF.GenerationSoftware,KiCad,Pcbnew,(5.1.6)-1*%
%TF.CreationDate,2020-07-07T09:56:18-05:00*%
%TF.ProjectId,Covid,436f7669-642e-46b6-9963-61645f706362,rev?*%
%TF.SameCoordinates,Original*%
%TF.FileFunction,Copper,L2,Bot*%
%TF.FilePolarity,Positive*%
%FSLAX46Y46*%
G04 Gerber Fmt 4.6, Leading zero omitted, Abs format (unit mm)*
G04 Created by KiCad (PCBNEW (5.1.6)-1) date 2020-07-07 09:56:18*
%MOMM*%
%LPD*%
G01*
G04 APERTURE LIST*
%TA.AperFunction,ComponentPad*%
%ADD10O,3.000000X1.750000*%
%TD*%
%TA.AperFunction,ComponentPad*%
%ADD11O,1.750000X3.000000*%
%TD*%
%TA.AperFunction,ComponentPad*%
%ADD12C,1.800000*%
%TD*%
%TA.AperFunction,ComponentPad*%
%ADD13R,1.800000X1.800000*%
%TD*%
%TA.AperFunction,ComponentPad*%
%ADD14C,3.000000*%
%TD*%
%TA.AperFunction,ComponentPad*%
%ADD15O,2.000000X1.000000*%
%TD*%
%TA.AperFunction,ComponentPad*%
%ADD16O,1.500000X2.500000*%
%TD*%
%TA.AperFunction,ViaPad*%
%ADD17C,4.000000*%
%TD*%
%TA.AperFunction,ViaPad*%
%ADD18C,1.500000*%
%TD*%
%TA.AperFunction,Conductor*%
%ADD19C,1.500000*%
%TD*%
%TA.AperFunction,Conductor*%
%ADD20C,1.200000*%
%TD*%
%TA.AperFunction,Conductor*%
%ADD21C,2.100000*%
%TD*%
%TA.AperFunction,Conductor*%
%ADD22C,0.254000*%
%TD*%
G04 APERTURE END LIST*
D10*
%TO.P,U3,4*%
%TO.N,GND*%
X151130000Y-66040000D03*
%TO.P,U3,3*%
%TO.N,AUDIO-*%
X151130000Y-68580000D03*
%TO.P,U3,2*%
%TO.N,AUDIO+*%
X151130000Y-71120000D03*
%TO.P,U3,1*%
%TO.N,VCC_12V*%
X151130000Y-73660000D03*
%TD*%
%TO.P,U1,1*%
%TO.N,VCC_3V*%
X63500000Y-57150000D03*
%TO.P,U1,2*%
%TO.N,Net-(U1-Pad2)*%
X63500000Y-59690000D03*
%TO.P,U1,3*%
%TO.N,Net-(U1-Pad3)*%
X63500000Y-62230000D03*
%TO.P,U1,4*%
%TO.N,Net-(U1-Pad4)*%
X63500000Y-64770000D03*
%TO.P,U1,5*%
%TO.N,Net-(U1-Pad5)*%
X63500000Y-67310000D03*
%TO.P,U1,6*%
%TO.N,Net-(U1-Pad6)*%
X63500000Y-69850000D03*
%TO.P,U1,7*%
%TO.N,Net-(U1-Pad7)*%
X63500000Y-72390000D03*
%TO.P,U1,8*%
%TO.N,Net-(U1-Pad8)*%
X63500000Y-74930000D03*
%TO.P,U1,9*%
%TO.N,LASER*%
X63500000Y-77470000D03*
%TO.P,U1,10*%
%TO.N,NO*%
X63500000Y-80010000D03*
%TO.P,U1,11*%
%TO.N,SI*%
X63500000Y-82550000D03*
%TO.P,U1,12*%
%TO.N,TX_RX_AUDIO*%
X63500000Y-85090000D03*
%TO.P,U1,13*%
%TO.N,RX_TX_AUDIO*%
X63500000Y-87630000D03*
%TO.P,U1,14*%
%TO.N,GND*%
X63500000Y-90170000D03*
%TO.P,U1,15*%
%TO.N,Net-(U1-Pad15)*%
X63500000Y-92710000D03*
%TO.P,U1,16*%
%TO.N,Net-(U1-Pad16)*%
X63500000Y-95250000D03*
%TO.P,U1,17*%
%TO.N,Net-(U1-Pad17)*%
X63500000Y-97790000D03*
%TO.P,U1,18*%
%TO.N,Net-(U1-Pad18)*%
X63500000Y-100330000D03*
%TO.P,U1,19*%
%TO.N,VCC_5V*%
X63500000Y-102870000D03*
%TO.P,U1,20*%
%TO.N,Net-(U1-Pad20)*%
X89200000Y-102870000D03*
%TO.P,U1,21*%
%TO.N,Net-(U1-Pad21)*%
X89200000Y-100330000D03*
%TO.P,U1,22*%
%TO.N,Net-(U1-Pad22)*%
X89200000Y-97790000D03*
%TO.P,U1,23*%
%TO.N,CS*%
X89200000Y-95250000D03*
%TO.P,U1,24*%
%TO.N,RESET*%
X89200000Y-92710000D03*
%TO.P,U1,25*%
%TO.N,Net-(U1-Pad25)*%
X89200000Y-90170000D03*
%TO.P,U1,26*%
%TO.N,DC*%
X89200000Y-87630000D03*
%TO.P,U1,27*%
%TO.N,RX_TX_BAR*%
X89200000Y-85090000D03*
%TO.P,U1,28*%
%TO.N,TX_RX_BAR*%
X89200000Y-82550000D03*
%TO.P,U1,29*%
%TO.N,Net-(U1-Pad29)*%
X89200000Y-80010000D03*
%TO.P,U1,30*%
%TO.N,SCK*%
X89200000Y-77470000D03*
%TO.P,U1,31*%
%TO.N,MISO*%
X89200000Y-74930000D03*
%TO.P,U1,32*%
%TO.N,GND*%
X89200000Y-72390000D03*
%TO.P,U1,33*%
%TO.N,SDA*%
X89200000Y-69850000D03*
%TO.P,U1,34*%
%TO.N,Net-(U1-Pad34)*%
X89200000Y-67310000D03*
%TO.P,U1,35*%
%TO.N,Net-(U1-Pad35)*%
X89200000Y-64770000D03*
%TO.P,U1,36*%
%TO.N,SCL*%
X89200000Y-62230000D03*
%TO.P,U1,37*%
%TO.N,MOSI*%
X89200000Y-59690000D03*
%TO.P,U1,38*%
%TO.N,GND*%
X89200000Y-57150000D03*
%TD*%
D11*
%TO.P,U2,1*%
%TO.N,LASER*%
X91440000Y-45720000D03*
%TO.P,U2,2*%
%TO.N,GND*%
X93980000Y-45720000D03*
%TD*%
D10*
%TO.P,U4,1*%
%TO.N,Net-(U4-Pad1)*%
X64770000Y-120650000D03*
%TO.P,U4,2*%
%TO.N,Net-(U4-Pad2)*%
X64770000Y-123190000D03*
%TO.P,U4,3*%
%TO.N,Net-(U4-Pad3)*%
X64770000Y-125730000D03*
%TO.P,U4,4*%
%TO.N,Net-(U4-Pad4)*%
X64770000Y-128270000D03*
%TO.P,U4,5*%
%TO.N,VCC_5V*%
X64770000Y-130810000D03*
%TO.P,U4,6*%
%TO.N,Net-(U4-Pad6)*%
X77470000Y-130810000D03*
%TO.P,U4,7*%
%TO.N,GND*%
X77470000Y-128270000D03*
%TO.P,U4,8*%
%TO.N,RX_TX_BAR*%
X77470000Y-125730000D03*
%TO.P,U4,9*%
%TO.N,TX_RX_BAR*%
X77470000Y-123190000D03*
%TO.P,U4,10*%
%TO.N,Net-(U4-Pad10)*%
X77470000Y-120650000D03*
%TD*%
%TO.P,U5,1*%
%TO.N,Net-(U5-Pad1)*%
X126760001Y-92710000D03*
%TO.P,U5,2*%
%TO.N,Net-(U5-Pad2)*%
X126760001Y-90170000D03*
%TO.P,U5,3*%
%TO.N,Net-(U5-Pad3)*%
X126760001Y-87630000D03*
%TO.P,U5,4*%
%TO.N,Net-(U5-Pad4)*%
X126760001Y-85090000D03*
%TO.P,U5,5*%
%TO.N,Net-(U5-Pad5)*%
X126760001Y-82550000D03*
%TO.P,U5,6*%
%TO.N,Net-(U5-Pad6)*%
X126760001Y-80010000D03*
%TO.P,U5,7*%
%TO.N,Net-(U5-Pad7)*%
X126760001Y-77470000D03*
%TO.P,U5,8*%
%TO.N,Net-(U5-Pad8)*%
X126760001Y-74930000D03*
%TO.P,U5,9*%
%TO.N,TX_RX_AUDIO*%
X111010001Y-74930000D03*
%TO.P,U5,10*%
%TO.N,RX_TX_AUDIO*%
X111010001Y-77470000D03*
%TO.P,U5,11*%
%TO.N,GND*%
X111010001Y-80010000D03*
%TO.P,U5,12*%
%TO.N,VCC_5V*%
X111010001Y-82550000D03*
%TO.P,U5,13*%
%TO.N,Net-(U5-Pad13)*%
X111010001Y-85090000D03*
%TO.P,U5,14*%
%TO.N,Net-(U5-Pad14)*%
X111010001Y-87630000D03*
%TO.P,U5,15*%
%TO.N,AUDIO-*%
X111010001Y-90170000D03*
%TO.P,U5,16*%
%TO.N,AUDIO+*%
X111010001Y-92710000D03*
%TD*%
D12*
%TO.P,U6,3*%
%TO.N,VCC_5V*%
X139700000Y-115570000D03*
%TO.P,U6,2*%
%TO.N,GND*%
X137160000Y-115570000D03*
D13*
%TO.P,U6,1*%
%TO.N,VCC_12V*%
X134620000Y-115570000D03*
%TD*%
D10*
%TO.P,U7,1*%
%TO.N,VCC_12V*%
X40640000Y-91440000D03*
%TO.P,U7,2*%
%TO.N,GND*%
X40640000Y-93980000D03*
%TO.P,U7,3*%
X40640000Y-96520000D03*
%TO.P,U7,4*%
%TO.N,SI*%
X40640000Y-99060000D03*
%TO.P,U7,5*%
%TO.N,GND*%
X40640000Y-101600000D03*
%TD*%
%TO.P,U8,5*%
%TO.N,GND*%
X40640000Y-78740000D03*
%TO.P,U8,4*%
%TO.N,NO*%
X40640000Y-76200000D03*
%TO.P,U8,3*%
%TO.N,GND*%
X40640000Y-73660000D03*
%TO.P,U8,2*%
X40640000Y-71120000D03*
%TO.P,U8,1*%
%TO.N,VCC_12V*%
X40640000Y-68580000D03*
%TD*%
D11*
%TO.P,U9,1*%
%TO.N,VCC_3V*%
X105410000Y-45720000D03*
%TO.P,U9,2*%
%TO.N,GND*%
X107950000Y-45720000D03*
%TO.P,U9,3*%
%TO.N,SCL*%
X110490000Y-45720000D03*
%TO.P,U9,4*%
%TO.N,SDA*%
X113030000Y-45720000D03*
%TD*%
D14*
%TO.P,U10,1*%
%TO.N,VCC_12V*%
X134620000Y-130810000D03*
%TO.P,U10,2*%
%TO.N,GND*%
X143470000Y-130810000D03*
%TD*%
D15*
%TO.P,C1,1*%
%TO.N,VCC_12V*%
X119380000Y-115570000D03*
%TO.P,C1,2*%
%TO.N,GND*%
X119380000Y-117070000D03*
%TD*%
%TO.P,C2,2*%
%TO.N,GND*%
X154940000Y-117070000D03*
%TO.P,C2,1*%
%TO.N,VCC_5V*%
X154940000Y-115570000D03*
%TD*%
D16*
%TO.P,U11,1*%
%TO.N,MISO*%
X132080000Y-45720000D03*
%TO.P,U11,2*%
%TO.N,VCC_5V*%
X134620000Y-45720000D03*
%TO.P,U11,3*%
%TO.N,SCK*%
X137160000Y-45720000D03*
%TO.P,U11,4*%
%TO.N,MOSI*%
X139700000Y-45720000D03*
%TO.P,U11,5*%
%TO.N,DC*%
X142240000Y-45720000D03*
%TO.P,U11,6*%
%TO.N,RESET*%
X144780000Y-45720000D03*
%TO.P,U11,7*%
%TO.N,CS*%
X147320000Y-45720000D03*
%TO.P,U11,8*%
%TO.N,GND*%
X149860000Y-45720000D03*
%TO.P,U11,9*%
%TO.N,VCC_3V*%
X152400000Y-45720000D03*
%TD*%
D17*
%TO.N,GND*%
X35560000Y-137160000D03*
X177800000Y-137160000D03*
X177800000Y-41910000D03*
X35560000Y-41910000D03*
D18*
%TO.N,RX_TX_AUDIO*%
X96520000Y-100330000D03*
%TO.N,TX_RX_AUDIO*%
X93980000Y-100330000D03*
%TO.N,SCK*%
X137160000Y-53340000D03*
%TO.N,MOSI*%
X130810000Y-40640000D03*
%TO.N,CS*%
X147320000Y-53340000D03*
%TO.N,RESET*%
X144780000Y-53340000D03*
%TO.N,DC*%
X142240000Y-53340000D03*
%TD*%
D19*
%TO.N,VCC_3V*%
X105410000Y-45720000D02*
X105410000Y-43180000D01*
X105410000Y-43180000D02*
X104140000Y-41910000D01*
X104140000Y-41910000D02*
X85090000Y-41910000D01*
X69850000Y-57150000D02*
X63500000Y-57150000D01*
X85090000Y-41910000D02*
X69850000Y-57150000D01*
X110490000Y-38100000D02*
X105410000Y-43180000D01*
X148590000Y-38100000D02*
X110490000Y-38100000D01*
X152400000Y-45720000D02*
X152400000Y-41910000D01*
X152400000Y-41910000D02*
X148590000Y-38100000D01*
%TO.N,LASER*%
X91440000Y-45720000D02*
X91440000Y-49530000D01*
X91440000Y-49530000D02*
X87630000Y-53340000D01*
X87630000Y-53340000D02*
X81280000Y-53340000D01*
X81280000Y-53340000D02*
X69850000Y-64770000D01*
X69850000Y-64770000D02*
X69850000Y-74930000D01*
X67310000Y-77470000D02*
X63500000Y-77470000D01*
X69850000Y-74930000D02*
X67310000Y-77470000D01*
%TO.N,NO*%
X63500000Y-80010000D02*
X54610000Y-80010000D01*
X50800000Y-76200000D02*
X40640000Y-76200000D01*
X54610000Y-80010000D02*
X50800000Y-76200000D01*
%TO.N,SI*%
X60150000Y-82550000D02*
X63500000Y-82550000D01*
X43640000Y-99060000D02*
X60150000Y-82550000D01*
X40640000Y-99060000D02*
X43640000Y-99060000D01*
%TO.N,VCC_5V*%
X59690000Y-102870000D02*
X63500000Y-102870000D01*
X54610000Y-107950000D02*
X59690000Y-102870000D01*
X106680000Y-82550000D02*
X111010001Y-82550000D01*
X101600000Y-87630000D02*
X106680000Y-82550000D01*
X139700000Y-109220000D02*
X134620000Y-104140000D01*
X139700000Y-115570000D02*
X139700000Y-109220000D01*
X134620000Y-104140000D02*
X110490000Y-104140000D01*
X110490000Y-104140000D02*
X101600000Y-95250000D01*
X101600000Y-95250000D02*
X101600000Y-87630000D01*
X54610000Y-107950000D02*
X54610000Y-127000000D01*
X58420000Y-130810000D02*
X64770000Y-130810000D01*
X54610000Y-127000000D02*
X58420000Y-130810000D01*
X64770000Y-130810000D02*
X69850000Y-130810000D01*
X69850000Y-130810000D02*
X72390000Y-133350000D01*
X81280000Y-133350000D02*
X110490000Y-104140000D01*
X72390000Y-133350000D02*
X81280000Y-133350000D01*
D20*
X154940000Y-115570000D02*
X139700000Y-115570000D01*
D19*
X134620000Y-45720000D02*
X134620000Y-52070000D01*
X134620000Y-52070000D02*
X128270000Y-58420000D01*
X128270000Y-58420000D02*
X120650000Y-58420000D01*
X120650000Y-58420000D02*
X115570000Y-63500000D01*
X115570000Y-63500000D02*
X115570000Y-81280000D01*
X114300000Y-82550000D02*
X111010001Y-82550000D01*
X115570000Y-81280000D02*
X114300000Y-82550000D01*
%TO.N,RX_TX_BAR*%
X89200000Y-85090000D02*
X87630000Y-85090000D01*
X87630000Y-85090000D02*
X85090000Y-87630000D01*
X85090000Y-87630000D02*
X85090000Y-121920000D01*
X81280000Y-125730000D02*
X77470000Y-125730000D01*
X85090000Y-121920000D02*
X81280000Y-125730000D01*
%TO.N,TX_RX_BAR*%
X86360000Y-82550000D02*
X89200000Y-82550000D01*
X82550000Y-86360000D02*
X86360000Y-82550000D01*
X82550000Y-86360000D02*
X82550000Y-120650000D01*
X80010000Y-123190000D02*
X77470000Y-123190000D01*
X82550000Y-120650000D02*
X80010000Y-123190000D01*
%TO.N,RX_TX_AUDIO*%
X105410000Y-77470000D02*
X105410000Y-77470000D01*
X96520000Y-86360000D02*
X96520000Y-100330000D01*
X111010001Y-77470000D02*
X105410000Y-77470000D01*
X105410000Y-77470000D02*
X96520000Y-86360000D01*
%TO.N,TX_RX_AUDIO*%
X105410000Y-74930000D02*
X105410000Y-74930000D01*
X111010001Y-74930000D02*
X104140000Y-74930000D01*
X93980000Y-85090000D02*
X93980000Y-100330000D01*
X104140000Y-74930000D02*
X93980000Y-85090000D01*
%TO.N,SDA*%
X113030000Y-45720000D02*
X113030000Y-55880000D01*
X99060000Y-69850000D02*
X89200000Y-69850000D01*
X113030000Y-55880000D02*
X99060000Y-69850000D01*
%TO.N,SCL*%
X110490000Y-45720000D02*
X110490000Y-53340000D01*
X101600000Y-62230000D02*
X89200000Y-62230000D01*
X110490000Y-53340000D02*
X101600000Y-62230000D01*
D21*
%TO.N,VCC_12V*%
X134620000Y-130810000D02*
X134620000Y-115570000D01*
D19*
X37640000Y-68580000D02*
X33020000Y-73200000D01*
X40640000Y-68580000D02*
X37640000Y-68580000D01*
X33020000Y-73200000D02*
X33020000Y-88900000D01*
X35560000Y-91440000D02*
X40640000Y-91440000D01*
X33020000Y-88900000D02*
X35560000Y-91440000D01*
X33020000Y-93980000D02*
X35560000Y-91440000D01*
X102870000Y-130810000D02*
X96520000Y-137160000D01*
X33020000Y-120650000D02*
X33020000Y-93980000D01*
X134620000Y-130810000D02*
X102870000Y-130810000D01*
X33020000Y-120650000D02*
X49530000Y-137160000D01*
X49530000Y-137160000D02*
X96520000Y-137160000D01*
D20*
X134620000Y-115570000D02*
X119380000Y-115570000D01*
D19*
X139700000Y-135890000D02*
X134620000Y-130810000D01*
X151130000Y-73660000D02*
X154940000Y-73660000D01*
X162560000Y-81280000D02*
X162560000Y-120650000D01*
X162560000Y-120650000D02*
X147320000Y-135890000D01*
X154940000Y-73660000D02*
X162560000Y-81280000D01*
X147320000Y-135890000D02*
X139700000Y-135890000D01*
%TO.N,AUDIO+*%
X111010001Y-92710000D02*
X115570000Y-92710000D01*
X115570000Y-92710000D02*
X123190000Y-85090000D01*
X123190000Y-85090000D02*
X123190000Y-73660000D01*
X125730000Y-71120000D02*
X151130000Y-71120000D01*
X123190000Y-73660000D02*
X125730000Y-71120000D01*
%TO.N,AUDIO-*%
X114010001Y-90170000D02*
X119380000Y-84800001D01*
X111010001Y-90170000D02*
X114010001Y-90170000D01*
X119380000Y-84800001D02*
X119380000Y-72390000D01*
X119380000Y-72390000D02*
X123190000Y-68580000D01*
X123190000Y-68580000D02*
X151130000Y-68580000D01*
%TO.N,SCK*%
X137160000Y-45720000D02*
X137160000Y-53340000D01*
X137160000Y-53340000D02*
X137160000Y-53340000D01*
%TO.N,MISO*%
X132080000Y-45720000D02*
X132080000Y-50800000D01*
X132080000Y-50800000D02*
X127000000Y-55880000D01*
X127000000Y-55880000D02*
X119380000Y-55880000D01*
X100330000Y-74930000D02*
X89200000Y-74930000D01*
X119380000Y-55880000D02*
X100330000Y-74930000D01*
%TO.N,MOSI*%
X139700000Y-45720000D02*
X139700000Y-41910000D01*
X139700000Y-41910000D02*
X138430000Y-40640000D01*
X138430000Y-40640000D02*
X130810000Y-40640000D01*
X130810000Y-40640000D02*
X130810000Y-40640000D01*
%TO.N,CS*%
X147320000Y-45720000D02*
X147320000Y-53340000D01*
X147320000Y-53340000D02*
X147320000Y-53340000D01*
%TO.N,RESET*%
X144780000Y-45720000D02*
X144780000Y-53340000D01*
X144780000Y-53340000D02*
X144780000Y-53340000D01*
%TO.N,DC*%
X142240000Y-45720000D02*
X142240000Y-53340000D01*
X142240000Y-53340000D02*
X142240000Y-53340000D01*
%TD*%
D22*
%TO.N,GND*%
G36*
X184023000Y-143383000D02*
G01*
X29337000Y-143383000D01*
X29337000Y-73200000D01*
X31628300Y-73200000D01*
X31635000Y-73268029D01*
X31635001Y-88831961D01*
X31628300Y-88900000D01*
X31655040Y-89171507D01*
X31734236Y-89432580D01*
X31862844Y-89673188D01*
X31992548Y-89831233D01*
X31992551Y-89831236D01*
X32035920Y-89884081D01*
X32088765Y-89927450D01*
X33601315Y-91440000D01*
X32088765Y-92952550D01*
X32035920Y-92995919D01*
X31992551Y-93048764D01*
X31992548Y-93048767D01*
X31862844Y-93206812D01*
X31734236Y-93447420D01*
X31655040Y-93708493D01*
X31628300Y-93980000D01*
X31635001Y-94048039D01*
X31635000Y-120581971D01*
X31628300Y-120650000D01*
X31635000Y-120718029D01*
X31635000Y-120718036D01*
X31652188Y-120892548D01*
X31655040Y-120921507D01*
X31659412Y-120935919D01*
X31734236Y-121182580D01*
X31862843Y-121423187D01*
X32035919Y-121634080D01*
X32088765Y-121677450D01*
X48502550Y-138091236D01*
X48545919Y-138144081D01*
X48598764Y-138187450D01*
X48598766Y-138187452D01*
X48647108Y-138227125D01*
X48756812Y-138317157D01*
X48997419Y-138445764D01*
X49258492Y-138524960D01*
X49281892Y-138527265D01*
X49461963Y-138545000D01*
X49461971Y-138545000D01*
X49530000Y-138551700D01*
X49598029Y-138545000D01*
X96451971Y-138545000D01*
X96520000Y-138551700D01*
X96588029Y-138545000D01*
X96588037Y-138545000D01*
X96791507Y-138524960D01*
X97052581Y-138445764D01*
X97293188Y-138317157D01*
X97504081Y-138144081D01*
X97547454Y-138091231D01*
X103443686Y-132195000D01*
X132985654Y-132195000D01*
X133259017Y-132468363D01*
X133608698Y-132702012D01*
X133997244Y-132862953D01*
X134409721Y-132945000D01*
X134796315Y-132945000D01*
X138672550Y-136821236D01*
X138715919Y-136874081D01*
X138768764Y-136917450D01*
X138768766Y-136917452D01*
X138817108Y-136957125D01*
X138926812Y-137047157D01*
X139137927Y-137160000D01*
X139167419Y-137175764D01*
X139428492Y-137254960D01*
X139451892Y-137257265D01*
X139631963Y-137275000D01*
X139631971Y-137275000D01*
X139700000Y-137281700D01*
X139768029Y-137275000D01*
X147251971Y-137275000D01*
X147320000Y-137281700D01*
X147388029Y-137275000D01*
X147388037Y-137275000D01*
X147591507Y-137254960D01*
X147852581Y-137175764D01*
X148093188Y-137047157D01*
X148304081Y-136874081D01*
X148347454Y-136821231D01*
X163491236Y-121677450D01*
X163544081Y-121634081D01*
X163587453Y-121581233D01*
X163717157Y-121423188D01*
X163845764Y-121182581D01*
X163924960Y-120921507D01*
X163927812Y-120892548D01*
X163945000Y-120718037D01*
X163945000Y-120718029D01*
X163951700Y-120650000D01*
X163945000Y-120581971D01*
X163945000Y-81348026D01*
X163951700Y-81279999D01*
X163945000Y-81211972D01*
X163945000Y-81211963D01*
X163924960Y-81008493D01*
X163845764Y-80747419D01*
X163717157Y-80506812D01*
X163700172Y-80486116D01*
X163587452Y-80348766D01*
X163587445Y-80348759D01*
X163544080Y-80295919D01*
X163491241Y-80252555D01*
X155967452Y-72728767D01*
X155924081Y-72675919D01*
X155713188Y-72502843D01*
X155472581Y-72374236D01*
X155211507Y-72295040D01*
X155008037Y-72275000D01*
X155008029Y-72275000D01*
X154940000Y-72268300D01*
X154871971Y-72275000D01*
X152727855Y-72275000D01*
X152827897Y-72192897D01*
X153016594Y-71962970D01*
X153156808Y-71700648D01*
X153243151Y-71416012D01*
X153272306Y-71120000D01*
X153243151Y-70823988D01*
X153156808Y-70539352D01*
X153016594Y-70277030D01*
X152827897Y-70047103D01*
X152597970Y-69858406D01*
X152582243Y-69850000D01*
X152597970Y-69841594D01*
X152827897Y-69652897D01*
X153016594Y-69422970D01*
X153156808Y-69160648D01*
X153243151Y-68876012D01*
X153272306Y-68580000D01*
X153243151Y-68283988D01*
X153156808Y-67999352D01*
X153016594Y-67737030D01*
X152827897Y-67507103D01*
X152597970Y-67318406D01*
X152335648Y-67178192D01*
X152051012Y-67091849D01*
X151829178Y-67070000D01*
X150430822Y-67070000D01*
X150208988Y-67091849D01*
X149924352Y-67178192D01*
X149892906Y-67195000D01*
X123258029Y-67195000D01*
X123190000Y-67188300D01*
X123121971Y-67195000D01*
X123121963Y-67195000D01*
X122918493Y-67215040D01*
X122657419Y-67294236D01*
X122416812Y-67422843D01*
X122258766Y-67552548D01*
X122258764Y-67552550D01*
X122205919Y-67595919D01*
X122162550Y-67648764D01*
X118448764Y-71362551D01*
X118395920Y-71405919D01*
X118352551Y-71458764D01*
X118352548Y-71458767D01*
X118222844Y-71616812D01*
X118094236Y-71857420D01*
X118015040Y-72118493D01*
X117988300Y-72390000D01*
X117995001Y-72458039D01*
X117995000Y-84226315D01*
X113436316Y-88785000D01*
X112607856Y-88785000D01*
X112707898Y-88702897D01*
X112896595Y-88472970D01*
X113036809Y-88210648D01*
X113123152Y-87926012D01*
X113152307Y-87630000D01*
X113123152Y-87333988D01*
X113036809Y-87049352D01*
X112896595Y-86787030D01*
X112707898Y-86557103D01*
X112477971Y-86368406D01*
X112462244Y-86360000D01*
X112477971Y-86351594D01*
X112707898Y-86162897D01*
X112896595Y-85932970D01*
X113036809Y-85670648D01*
X113123152Y-85386012D01*
X113152307Y-85090000D01*
X113123152Y-84793988D01*
X113036809Y-84509352D01*
X112896595Y-84247030D01*
X112707898Y-84017103D01*
X112607856Y-83935000D01*
X114231971Y-83935000D01*
X114300000Y-83941700D01*
X114368029Y-83935000D01*
X114368037Y-83935000D01*
X114571507Y-83914960D01*
X114832581Y-83835764D01*
X115073188Y-83707157D01*
X115284081Y-83534081D01*
X115327454Y-83481231D01*
X116501236Y-82307450D01*
X116554081Y-82264081D01*
X116727157Y-82053188D01*
X116855764Y-81812581D01*
X116934960Y-81551507D01*
X116955000Y-81348037D01*
X116955000Y-81348028D01*
X116961700Y-81280001D01*
X116955000Y-81211974D01*
X116955000Y-64073685D01*
X121223686Y-59805000D01*
X128201971Y-59805000D01*
X128270000Y-59811700D01*
X128338029Y-59805000D01*
X128338037Y-59805000D01*
X128541507Y-59784960D01*
X128802581Y-59705764D01*
X129043188Y-59577157D01*
X129254081Y-59404081D01*
X129297454Y-59351231D01*
X135551236Y-53097450D01*
X135604081Y-53054081D01*
X135775001Y-52845815D01*
X135775001Y-53203584D01*
X135775000Y-53203589D01*
X135775000Y-53271963D01*
X135768299Y-53340000D01*
X135775000Y-53408037D01*
X135775000Y-53476411D01*
X135788339Y-53543470D01*
X135795040Y-53611507D01*
X135814886Y-53676932D01*
X135828225Y-53743989D01*
X135854389Y-53807155D01*
X135874236Y-53872581D01*
X135906465Y-53932877D01*
X135932629Y-53996043D01*
X135970613Y-54052890D01*
X136002843Y-54113188D01*
X136046217Y-54166040D01*
X136084201Y-54222886D01*
X136132546Y-54271231D01*
X136175919Y-54324081D01*
X136228767Y-54367452D01*
X136277114Y-54415799D01*
X136333960Y-54453783D01*
X136386812Y-54497157D01*
X136447110Y-54529387D01*
X136503957Y-54567371D01*
X136567123Y-54593535D01*
X136627419Y-54625764D01*
X136692845Y-54645611D01*
X136756011Y-54671775D01*
X136823068Y-54685114D01*
X136888493Y-54704960D01*
X136956530Y-54711661D01*
X137023589Y-54725000D01*
X137091964Y-54725000D01*
X137160000Y-54731701D01*
X137228037Y-54725000D01*
X137296411Y-54725000D01*
X137363470Y-54711661D01*
X137431507Y-54704960D01*
X137496932Y-54685114D01*
X137563989Y-54671775D01*
X137627155Y-54645611D01*
X137692581Y-54625764D01*
X137752877Y-54593535D01*
X137816043Y-54567371D01*
X137872890Y-54529387D01*
X137933188Y-54497157D01*
X137986040Y-54453783D01*
X138042886Y-54415799D01*
X138091233Y-54367452D01*
X138144081Y-54324081D01*
X138187454Y-54271231D01*
X138235799Y-54222886D01*
X138273783Y-54166040D01*
X138317157Y-54113188D01*
X138349387Y-54052890D01*
X138387371Y-53996043D01*
X138413535Y-53932877D01*
X138445764Y-53872581D01*
X138465611Y-53807155D01*
X138491775Y-53743989D01*
X138505114Y-53676932D01*
X138524960Y-53611507D01*
X138531661Y-53543470D01*
X138545000Y-53476411D01*
X138545000Y-53408037D01*
X138551701Y-53340000D01*
X138545000Y-53271963D01*
X138545000Y-46995816D01*
X138715920Y-47204081D01*
X138926813Y-47377157D01*
X139167420Y-47505764D01*
X139428494Y-47584960D01*
X139700000Y-47611701D01*
X139971507Y-47584960D01*
X140232581Y-47505764D01*
X140473188Y-47377157D01*
X140684081Y-47204081D01*
X140855000Y-46995816D01*
X140855001Y-53203584D01*
X140855000Y-53203589D01*
X140855000Y-53271963D01*
X140848299Y-53340000D01*
X140855000Y-53408037D01*
X140855000Y-53476411D01*
X140868339Y-53543470D01*
X140875040Y-53611507D01*
X140894886Y-53676932D01*
X140908225Y-53743989D01*
X140934389Y-53807155D01*
X140954236Y-53872581D01*
X140986465Y-53932877D01*
X141012629Y-53996043D01*
X141050613Y-54052890D01*
X141082843Y-54113188D01*
X141126217Y-54166040D01*
X141164201Y-54222886D01*
X141212546Y-54271231D01*
X141255919Y-54324081D01*
X141308767Y-54367452D01*
X141357114Y-54415799D01*
X141413960Y-54453783D01*
X141466812Y-54497157D01*
X141527110Y-54529387D01*
X141583957Y-54567371D01*
X141647123Y-54593535D01*
X141707419Y-54625764D01*
X141772845Y-54645611D01*
X141836011Y-54671775D01*
X141903068Y-54685114D01*
X141968493Y-54704960D01*
X142036530Y-54711661D01*
X142103589Y-54725000D01*
X142171964Y-54725000D01*
X142240000Y-54731701D01*
X142308037Y-54725000D01*
X142376411Y-54725000D01*
X142443470Y-54711661D01*
X142511507Y-54704960D01*
X142576932Y-54685114D01*
X142643989Y-54671775D01*
X142707155Y-54645611D01*
X142772581Y-54625764D01*
X142832877Y-54593535D01*
X142896043Y-54567371D01*
X142952890Y-54529387D01*
X143013188Y-54497157D01*
X143066040Y-54453783D01*
X143122886Y-54415799D01*
X143171233Y-54367452D01*
X143224081Y-54324081D01*
X143267454Y-54271231D01*
X143315799Y-54222886D01*
X143353783Y-54166040D01*
X143397157Y-54113188D01*
X143429387Y-54052890D01*
X143467371Y-53996043D01*
X143493535Y-53932877D01*
X143510000Y-53902073D01*
X143526465Y-53932877D01*
X143552629Y-53996043D01*
X143590613Y-54052890D01*
X143622843Y-54113188D01*
X143666217Y-54166040D01*
X143704201Y-54222886D01*
X143752546Y-54271231D01*
X143795919Y-54324081D01*
X143848767Y-54367452D01*
X143897114Y-54415799D01*
X143953960Y-54453783D01*
X144006812Y-54497157D01*
X144067110Y-54529387D01*
X144123957Y-54567371D01*
X144187123Y-54593535D01*
X144247419Y-54625764D01*
X144312845Y-54645611D01*
X144376011Y-54671775D01*
X144443068Y-54685114D01*
X144508493Y-54704960D01*
X144576530Y-54711661D01*
X144643589Y-54725000D01*
X144711964Y-54725000D01*
X144780000Y-54731701D01*
X144848037Y-54725000D01*
X144916411Y-54725000D01*
X144983470Y-54711661D01*
X145051507Y-54704960D01*
X145116932Y-54685114D01*
X145183989Y-54671775D01*
X145247155Y-54645611D01*
X145312581Y-54625764D01*
X145372877Y-54593535D01*
X145436043Y-54567371D01*
X145492890Y-54529387D01*
X145553188Y-54497157D01*
X145606040Y-54453783D01*
X145662886Y-54415799D01*
X145711233Y-54367452D01*
X145764081Y-54324081D01*
X145807454Y-54271231D01*
X145855799Y-54222886D01*
X145893783Y-54166040D01*
X145937157Y-54113188D01*
X145969387Y-54052890D01*
X146007371Y-53996043D01*
X146033535Y-53932877D01*
X146050000Y-53902073D01*
X146066465Y-53932877D01*
X146092629Y-53996043D01*
X146130613Y-54052890D01*
X146162843Y-54113188D01*
X146206217Y-54166040D01*
X146244201Y-54222886D01*
X146292546Y-54271231D01*
X146335919Y-54324081D01*
X146388767Y-54367452D01*
X146437114Y-54415799D01*
X146493960Y-54453783D01*
X146546812Y-54497157D01*
X146607110Y-54529387D01*
X146663957Y-54567371D01*
X146727123Y-54593535D01*
X146787419Y-54625764D01*
X146852845Y-54645611D01*
X146916011Y-54671775D01*
X146983068Y-54685114D01*
X147048493Y-54704960D01*
X147116530Y-54711661D01*
X147183589Y-54725000D01*
X147251964Y-54725000D01*
X147320000Y-54731701D01*
X147388037Y-54725000D01*
X147456411Y-54725000D01*
X147523470Y-54711661D01*
X147591507Y-54704960D01*
X147656932Y-54685114D01*
X147723989Y-54671775D01*
X147787155Y-54645611D01*
X147852581Y-54625764D01*
X147912877Y-54593535D01*
X147976043Y-54567371D01*
X148032890Y-54529387D01*
X148093188Y-54497157D01*
X148146040Y-54453783D01*
X148202886Y-54415799D01*
X148251233Y-54367452D01*
X148304081Y-54324081D01*
X148347454Y-54271231D01*
X148395799Y-54222886D01*
X148433783Y-54166040D01*
X148477157Y-54113188D01*
X148509387Y-54052890D01*
X148547371Y-53996043D01*
X148573535Y-53932877D01*
X148605764Y-53872581D01*
X148625611Y-53807155D01*
X148651775Y-53743989D01*
X148665114Y-53676932D01*
X148684960Y-53611507D01*
X148691661Y-53543470D01*
X148705000Y-53476411D01*
X148705000Y-53408037D01*
X148711701Y-53340000D01*
X148705000Y-53271963D01*
X148705000Y-45151963D01*
X148684960Y-44948493D01*
X148605764Y-44687419D01*
X148477157Y-44446812D01*
X148304080Y-44235919D01*
X148093187Y-44062843D01*
X147852580Y-43934236D01*
X147591506Y-43855040D01*
X147320000Y-43828299D01*
X147048493Y-43855040D01*
X146787419Y-43934236D01*
X146546812Y-44062843D01*
X146335919Y-44235920D01*
X146162843Y-44446813D01*
X146050000Y-44657927D01*
X145937157Y-44446812D01*
X145764080Y-44235919D01*
X145553187Y-44062843D01*
X145312580Y-43934236D01*
X145051506Y-43855040D01*
X144780000Y-43828299D01*
X144508493Y-43855040D01*
X144247419Y-43934236D01*
X144006812Y-44062843D01*
X143795919Y-44235920D01*
X143622843Y-44446813D01*
X143510000Y-44657927D01*
X143397157Y-44446812D01*
X143224080Y-44235919D01*
X143013187Y-44062843D01*
X142772580Y-43934236D01*
X142511506Y-43855040D01*
X142240000Y-43828299D01*
X141968493Y-43855040D01*
X141707419Y-43934236D01*
X141466812Y-44062843D01*
X141255919Y-44235920D01*
X141085000Y-44444185D01*
X141085000Y-41978026D01*
X141091700Y-41909999D01*
X141085000Y-41841972D01*
X141085000Y-41841963D01*
X141064960Y-41638493D01*
X140985764Y-41377419D01*
X140857157Y-41136812D01*
X140684081Y-40925919D01*
X140631236Y-40882550D01*
X139457454Y-39708769D01*
X139414081Y-39655919D01*
X139205816Y-39485000D01*
X148016315Y-39485000D01*
X151015001Y-42483687D01*
X151015000Y-45151962D01*
X151015000Y-46288037D01*
X151035040Y-46491507D01*
X151114236Y-46752581D01*
X151242843Y-46993188D01*
X151415920Y-47204081D01*
X151626813Y-47377157D01*
X151867420Y-47505764D01*
X152128494Y-47584960D01*
X152400000Y-47611701D01*
X152671507Y-47584960D01*
X152932581Y-47505764D01*
X153173188Y-47377157D01*
X153384081Y-47204081D01*
X153557157Y-46993188D01*
X153685764Y-46752581D01*
X153764960Y-46491507D01*
X153785000Y-46288037D01*
X153785000Y-41978029D01*
X153791700Y-41910000D01*
X153785000Y-41841971D01*
X153785000Y-41841963D01*
X153764960Y-41638493D01*
X153685764Y-41377419D01*
X153557157Y-41136812D01*
X153384081Y-40925919D01*
X153331236Y-40882550D01*
X149617454Y-37168769D01*
X149574081Y-37115919D01*
X149363188Y-36942843D01*
X149122581Y-36814236D01*
X148861507Y-36735040D01*
X148658037Y-36715000D01*
X148658029Y-36715000D01*
X148590000Y-36708300D01*
X148521971Y-36715000D01*
X110558029Y-36715000D01*
X110490000Y-36708300D01*
X110421971Y-36715000D01*
X110421963Y-36715000D01*
X110241892Y-36732735D01*
X110218492Y-36735040D01*
X109957419Y-36814236D01*
X109716812Y-36942843D01*
X109607108Y-37032875D01*
X109558766Y-37072548D01*
X109558764Y-37072550D01*
X109505919Y-37115919D01*
X109462550Y-37168764D01*
X105410000Y-41221315D01*
X105167454Y-40978769D01*
X105124081Y-40925919D01*
X104913188Y-40752843D01*
X104672581Y-40624236D01*
X104411507Y-40545040D01*
X104208037Y-40525000D01*
X104208029Y-40525000D01*
X104140000Y-40518300D01*
X104071971Y-40525000D01*
X85158029Y-40525000D01*
X85090000Y-40518300D01*
X85021971Y-40525000D01*
X85021963Y-40525000D01*
X84818493Y-40545040D01*
X84557419Y-40624236D01*
X84316812Y-40752843D01*
X84158766Y-40882548D01*
X84158764Y-40882550D01*
X84105919Y-40925919D01*
X84062550Y-40978764D01*
X69276315Y-55765000D01*
X64737094Y-55765000D01*
X64705648Y-55748192D01*
X64421012Y-55661849D01*
X64199178Y-55640000D01*
X62800822Y-55640000D01*
X62578988Y-55661849D01*
X62294352Y-55748192D01*
X62032030Y-55888406D01*
X61802103Y-56077103D01*
X61613406Y-56307030D01*
X61473192Y-56569352D01*
X61386849Y-56853988D01*
X61357694Y-57150000D01*
X61386849Y-57446012D01*
X61473192Y-57730648D01*
X61613406Y-57992970D01*
X61802103Y-58222897D01*
X62032030Y-58411594D01*
X62047757Y-58420000D01*
X62032030Y-58428406D01*
X61802103Y-58617103D01*
X61613406Y-58847030D01*
X61473192Y-59109352D01*
X61386849Y-59393988D01*
X61357694Y-59690000D01*
X61386849Y-59986012D01*
X61473192Y-60270648D01*
X61613406Y-60532970D01*
X61802103Y-60762897D01*
X62032030Y-60951594D01*
X62047757Y-60960000D01*
X62032030Y-60968406D01*
X61802103Y-61157103D01*
X61613406Y-61387030D01*
X61473192Y-61649352D01*
X61386849Y-61933988D01*
X61357694Y-62230000D01*
X61386849Y-62526012D01*
X61473192Y-62810648D01*
X61613406Y-63072970D01*
X61802103Y-63302897D01*
X62032030Y-63491594D01*
X62047757Y-63500000D01*
X62032030Y-63508406D01*
X61802103Y-63697103D01*
X61613406Y-63927030D01*
X61473192Y-64189352D01*
X61386849Y-64473988D01*
X61357694Y-64770000D01*
X61386849Y-65066012D01*
X61473192Y-65350648D01*
X61613406Y-65612970D01*
X61802103Y-65842897D01*
X62032030Y-66031594D01*
X62047757Y-66040000D01*
X62032030Y-66048406D01*
X61802103Y-66237103D01*
X61613406Y-66467030D01*
X61473192Y-66729352D01*
X61386849Y-67013988D01*
X61357694Y-67310000D01*
X61386849Y-67606012D01*
X61473192Y-67890648D01*
X61613406Y-68152970D01*
X61802103Y-68382897D01*
X62032030Y-68571594D01*
X62047757Y-68580000D01*
X62032030Y-68588406D01*
X61802103Y-68777103D01*
X61613406Y-69007030D01*
X61473192Y-69269352D01*
X61386849Y-69553988D01*
X61357694Y-69850000D01*
X61386849Y-70146012D01*
X61473192Y-70430648D01*
X61613406Y-70692970D01*
X61802103Y-70922897D01*
X62032030Y-71111594D01*
X62047757Y-71120000D01*
X62032030Y-71128406D01*
X61802103Y-71317103D01*
X61613406Y-71547030D01*
X61473192Y-71809352D01*
X61386849Y-72093988D01*
X61357694Y-72390000D01*
X61386849Y-72686012D01*
X61473192Y-72970648D01*
X61613406Y-73232970D01*
X61802103Y-73462897D01*
X62032030Y-73651594D01*
X62047757Y-73660000D01*
X62032030Y-73668406D01*
X61802103Y-73857103D01*
X61613406Y-74087030D01*
X61473192Y-74349352D01*
X61386849Y-74633988D01*
X61357694Y-74930000D01*
X61386849Y-75226012D01*
X61473192Y-75510648D01*
X61613406Y-75772970D01*
X61802103Y-76002897D01*
X62032030Y-76191594D01*
X62047757Y-76200000D01*
X62032030Y-76208406D01*
X61802103Y-76397103D01*
X61613406Y-76627030D01*
X61473192Y-76889352D01*
X61386849Y-77173988D01*
X61357694Y-77470000D01*
X61386849Y-77766012D01*
X61473192Y-78050648D01*
X61613406Y-78312970D01*
X61802103Y-78542897D01*
X61902145Y-78625000D01*
X55183686Y-78625000D01*
X51827454Y-75268769D01*
X51784081Y-75215919D01*
X51573188Y-75042843D01*
X51332581Y-74914236D01*
X51071507Y-74835040D01*
X50868037Y-74815000D01*
X50868029Y-74815000D01*
X50800000Y-74808300D01*
X50731971Y-74815000D01*
X41877094Y-74815000D01*
X41845648Y-74798192D01*
X41561012Y-74711849D01*
X41339178Y-74690000D01*
X39940822Y-74690000D01*
X39718988Y-74711849D01*
X39434352Y-74798192D01*
X39172030Y-74938406D01*
X38942103Y-75127103D01*
X38753406Y-75357030D01*
X38613192Y-75619352D01*
X38526849Y-75903988D01*
X38497694Y-76200000D01*
X38526849Y-76496012D01*
X38613192Y-76780648D01*
X38753406Y-77042970D01*
X38942103Y-77272897D01*
X39172030Y-77461594D01*
X39434352Y-77601808D01*
X39718988Y-77688151D01*
X39940822Y-77710000D01*
X41339178Y-77710000D01*
X41561012Y-77688151D01*
X41845648Y-77601808D01*
X41877094Y-77585000D01*
X50226315Y-77585000D01*
X53582550Y-80941236D01*
X53625919Y-80994081D01*
X53678764Y-81037450D01*
X53678766Y-81037452D01*
X53681871Y-81040000D01*
X53836812Y-81167157D01*
X54077419Y-81295764D01*
X54338493Y-81374960D01*
X54541963Y-81395000D01*
X54541971Y-81395000D01*
X54610000Y-81401700D01*
X54678029Y-81395000D01*
X59374184Y-81395000D01*
X59274141Y-81477103D01*
X59218766Y-81522548D01*
X59218764Y-81522550D01*
X59165919Y-81565919D01*
X59122550Y-81618764D01*
X43066315Y-97675000D01*
X41877094Y-97675000D01*
X41845648Y-97658192D01*
X41561012Y-97571849D01*
X41339178Y-97550000D01*
X39940822Y-97550000D01*
X39718988Y-97571849D01*
X39434352Y-97658192D01*
X39172030Y-97798406D01*
X38942103Y-97987103D01*
X38753406Y-98217030D01*
X38613192Y-98479352D01*
X38526849Y-98763988D01*
X38497694Y-99060000D01*
X38526849Y-99356012D01*
X38613192Y-99640648D01*
X38753406Y-99902970D01*
X38942103Y-100132897D01*
X39172030Y-100321594D01*
X39434352Y-100461808D01*
X39718988Y-100548151D01*
X39940822Y-100570000D01*
X41339178Y-100570000D01*
X41561012Y-100548151D01*
X41845648Y-100461808D01*
X41877094Y-100445000D01*
X43571971Y-100445000D01*
X43640000Y-100451700D01*
X43708029Y-100445000D01*
X43708037Y-100445000D01*
X43911507Y-100424960D01*
X44172581Y-100345764D01*
X44413188Y-100217157D01*
X44624081Y-100044081D01*
X44667454Y-99991231D01*
X60723686Y-83935000D01*
X61902145Y-83935000D01*
X61802103Y-84017103D01*
X61613406Y-84247030D01*
X61473192Y-84509352D01*
X61386849Y-84793988D01*
X61357694Y-85090000D01*
X61386849Y-85386012D01*
X61473192Y-85670648D01*
X61613406Y-85932970D01*
X61802103Y-86162897D01*
X62032030Y-86351594D01*
X62047757Y-86360000D01*
X62032030Y-86368406D01*
X61802103Y-86557103D01*
X61613406Y-86787030D01*
X61473192Y-87049352D01*
X61386849Y-87333988D01*
X61357694Y-87630000D01*
X61386849Y-87926012D01*
X61473192Y-88210648D01*
X61613406Y-88472970D01*
X61802103Y-88702897D01*
X62032030Y-88891594D01*
X62294352Y-89031808D01*
X62578988Y-89118151D01*
X62800822Y-89140000D01*
X64199178Y-89140000D01*
X64421012Y-89118151D01*
X64705648Y-89031808D01*
X64967970Y-88891594D01*
X65197897Y-88702897D01*
X65386594Y-88472970D01*
X65526808Y-88210648D01*
X65613151Y-87926012D01*
X65642306Y-87630000D01*
X65613151Y-87333988D01*
X65526808Y-87049352D01*
X65386594Y-86787030D01*
X65197897Y-86557103D01*
X64967970Y-86368406D01*
X64952243Y-86360000D01*
X64967970Y-86351594D01*
X65197897Y-86162897D01*
X65386594Y-85932970D01*
X65526808Y-85670648D01*
X65613151Y-85386012D01*
X65642306Y-85090000D01*
X65613151Y-84793988D01*
X65526808Y-84509352D01*
X65386594Y-84247030D01*
X65197897Y-84017103D01*
X64967970Y-83828406D01*
X64952243Y-83820000D01*
X64967970Y-83811594D01*
X65197897Y-83622897D01*
X65386594Y-83392970D01*
X65526808Y-83130648D01*
X65613151Y-82846012D01*
X65642306Y-82550000D01*
X65613151Y-82253988D01*
X65526808Y-81969352D01*
X65386594Y-81707030D01*
X65197897Y-81477103D01*
X64967970Y-81288406D01*
X64952243Y-81280000D01*
X64967970Y-81271594D01*
X65197897Y-81082897D01*
X65386594Y-80852970D01*
X65526808Y-80590648D01*
X65613151Y-80306012D01*
X65642306Y-80010000D01*
X65613151Y-79713988D01*
X65526808Y-79429352D01*
X65386594Y-79167030D01*
X65197897Y-78937103D01*
X65097855Y-78855000D01*
X67241971Y-78855000D01*
X67310000Y-78861700D01*
X67378029Y-78855000D01*
X67378037Y-78855000D01*
X67581507Y-78834960D01*
X67842581Y-78755764D01*
X68083188Y-78627157D01*
X68294081Y-78454081D01*
X68337454Y-78401231D01*
X70781233Y-75957452D01*
X70834081Y-75914081D01*
X71007157Y-75703188D01*
X71135764Y-75462581D01*
X71214960Y-75201507D01*
X71235000Y-74998037D01*
X71235000Y-74998028D01*
X71241700Y-74930001D01*
X71235000Y-74861974D01*
X71235000Y-65343685D01*
X76888685Y-59690000D01*
X87057694Y-59690000D01*
X87086849Y-59986012D01*
X87173192Y-60270648D01*
X87313406Y-60532970D01*
X87502103Y-60762897D01*
X87732030Y-60951594D01*
X87747757Y-60960000D01*
X87732030Y-60968406D01*
X87502103Y-61157103D01*
X87313406Y-61387030D01*
X87173192Y-61649352D01*
X87086849Y-61933988D01*
X87057694Y-62230000D01*
X87086849Y-62526012D01*
X87173192Y-62810648D01*
X87313406Y-63072970D01*
X87502103Y-63302897D01*
X87732030Y-63491594D01*
X87747757Y-63500000D01*
X87732030Y-63508406D01*
X87502103Y-63697103D01*
X87313406Y-63927030D01*
X87173192Y-64189352D01*
X87086849Y-64473988D01*
X87057694Y-64770000D01*
X87086849Y-65066012D01*
X87173192Y-65350648D01*
X87313406Y-65612970D01*
X87502103Y-65842897D01*
X87732030Y-66031594D01*
X87747757Y-66040000D01*
X87732030Y-66048406D01*
X87502103Y-66237103D01*
X87313406Y-66467030D01*
X87173192Y-66729352D01*
X87086849Y-67013988D01*
X87057694Y-67310000D01*
X87086849Y-67606012D01*
X87173192Y-67890648D01*
X87313406Y-68152970D01*
X87502103Y-68382897D01*
X87732030Y-68571594D01*
X87747757Y-68580000D01*
X87732030Y-68588406D01*
X87502103Y-68777103D01*
X87313406Y-69007030D01*
X87173192Y-69269352D01*
X87086849Y-69553988D01*
X87057694Y-69850000D01*
X87086849Y-70146012D01*
X87173192Y-70430648D01*
X87313406Y-70692970D01*
X87502103Y-70922897D01*
X87732030Y-71111594D01*
X87994352Y-71251808D01*
X88278988Y-71338151D01*
X88500822Y-71360000D01*
X89899178Y-71360000D01*
X90121012Y-71338151D01*
X90405648Y-71251808D01*
X90437094Y-71235000D01*
X98991971Y-71235000D01*
X99060000Y-71241700D01*
X99128029Y-71235000D01*
X99128037Y-71235000D01*
X99331507Y-71214960D01*
X99592581Y-71135764D01*
X99833188Y-71007157D01*
X100044081Y-70834081D01*
X100087454Y-70781231D01*
X113961233Y-56907452D01*
X114014081Y-56864081D01*
X114187157Y-56653188D01*
X114315764Y-56412581D01*
X114394960Y-56151507D01*
X114415000Y-55948037D01*
X114415000Y-55948028D01*
X114421700Y-55880001D01*
X114415000Y-55811974D01*
X114415000Y-46957094D01*
X114431808Y-46925648D01*
X114518151Y-46641012D01*
X114540000Y-46419178D01*
X114540000Y-45020822D01*
X114518151Y-44798988D01*
X114431808Y-44514352D01*
X114291594Y-44252030D01*
X114102897Y-44022103D01*
X113872969Y-43833406D01*
X113610647Y-43693192D01*
X113326011Y-43606849D01*
X113030000Y-43577694D01*
X112733988Y-43606849D01*
X112449352Y-43693192D01*
X112187030Y-43833406D01*
X111957103Y-44022103D01*
X111768406Y-44252031D01*
X111760000Y-44267757D01*
X111751594Y-44252030D01*
X111562897Y-44022103D01*
X111332969Y-43833406D01*
X111070647Y-43693192D01*
X110786011Y-43606849D01*
X110490000Y-43577694D01*
X110193988Y-43606849D01*
X109909352Y-43693192D01*
X109647030Y-43833406D01*
X109417103Y-44022103D01*
X109228406Y-44252031D01*
X109088192Y-44514353D01*
X109001849Y-44798989D01*
X108980000Y-45020823D01*
X108980000Y-46419178D01*
X109001849Y-46641012D01*
X109088192Y-46925648D01*
X109105000Y-46957094D01*
X109105001Y-52766313D01*
X101026315Y-60845000D01*
X90797855Y-60845000D01*
X90897897Y-60762897D01*
X91086594Y-60532970D01*
X91226808Y-60270648D01*
X91313151Y-59986012D01*
X91342306Y-59690000D01*
X91313151Y-59393988D01*
X91226808Y-59109352D01*
X91086594Y-58847030D01*
X90897897Y-58617103D01*
X90667970Y-58428406D01*
X90405648Y-58288192D01*
X90121012Y-58201849D01*
X89899178Y-58180000D01*
X88500822Y-58180000D01*
X88278988Y-58201849D01*
X87994352Y-58288192D01*
X87732030Y-58428406D01*
X87502103Y-58617103D01*
X87313406Y-58847030D01*
X87173192Y-59109352D01*
X87086849Y-59393988D01*
X87057694Y-59690000D01*
X76888685Y-59690000D01*
X81853686Y-54725000D01*
X87561971Y-54725000D01*
X87630000Y-54731700D01*
X87698029Y-54725000D01*
X87698037Y-54725000D01*
X87901507Y-54704960D01*
X88162581Y-54625764D01*
X88403188Y-54497157D01*
X88614081Y-54324081D01*
X88657454Y-54271231D01*
X92371236Y-50557450D01*
X92424081Y-50514081D01*
X92597157Y-50303188D01*
X92725764Y-50062581D01*
X92804960Y-49801507D01*
X92825000Y-49598037D01*
X92825000Y-49598029D01*
X92831700Y-49530000D01*
X92825000Y-49461971D01*
X92825000Y-46957094D01*
X92841808Y-46925648D01*
X92928151Y-46641012D01*
X92950000Y-46419178D01*
X92950000Y-45020822D01*
X92928151Y-44798988D01*
X92841808Y-44514352D01*
X92701594Y-44252030D01*
X92512897Y-44022103D01*
X92282969Y-43833406D01*
X92020647Y-43693192D01*
X91736011Y-43606849D01*
X91440000Y-43577694D01*
X91143988Y-43606849D01*
X90859352Y-43693192D01*
X90597030Y-43833406D01*
X90367103Y-44022103D01*
X90178406Y-44252031D01*
X90038192Y-44514353D01*
X89951849Y-44798989D01*
X89930000Y-45020823D01*
X89930000Y-46419178D01*
X89951849Y-46641012D01*
X90038192Y-46925648D01*
X90055000Y-46957094D01*
X90055001Y-48956313D01*
X87056315Y-51955000D01*
X81348028Y-51955000D01*
X81279999Y-51948300D01*
X81211970Y-51955000D01*
X81211963Y-51955000D01*
X81034099Y-51972518D01*
X81008492Y-51975040D01*
X80747419Y-52054236D01*
X80506812Y-52182843D01*
X80506810Y-52182844D01*
X80506811Y-52182844D01*
X80348766Y-52312548D01*
X80348764Y-52312550D01*
X80295919Y-52355919D01*
X80252550Y-52408764D01*
X68918765Y-63742550D01*
X68865919Y-63785920D01*
X68692843Y-63996813D01*
X68564236Y-64237420D01*
X68485040Y-64498494D01*
X68465000Y-64701964D01*
X68465000Y-64701971D01*
X68458300Y-64770000D01*
X68465000Y-64838029D01*
X68465001Y-74356314D01*
X66736315Y-76085000D01*
X65097855Y-76085000D01*
X65197897Y-76002897D01*
X65386594Y-75772970D01*
X65526808Y-75510648D01*
X65613151Y-75226012D01*
X65642306Y-74930000D01*
X65613151Y-74633988D01*
X65526808Y-74349352D01*
X65386594Y-74087030D01*
X65197897Y-73857103D01*
X64967970Y-73668406D01*
X64952243Y-73660000D01*
X64967970Y-73651594D01*
X65197897Y-73462897D01*
X65386594Y-73232970D01*
X65526808Y-72970648D01*
X65613151Y-72686012D01*
X65642306Y-72390000D01*
X65613151Y-72093988D01*
X65526808Y-71809352D01*
X65386594Y-71547030D01*
X65197897Y-71317103D01*
X64967970Y-71128406D01*
X64952243Y-71120000D01*
X64967970Y-71111594D01*
X65197897Y-70922897D01*
X65386594Y-70692970D01*
X65526808Y-70430648D01*
X65613151Y-70146012D01*
X65642306Y-69850000D01*
X65613151Y-69553988D01*
X65526808Y-69269352D01*
X65386594Y-69007030D01*
X65197897Y-68777103D01*
X64967970Y-68588406D01*
X64952243Y-68580000D01*
X64967970Y-68571594D01*
X65197897Y-68382897D01*
X65386594Y-68152970D01*
X65526808Y-67890648D01*
X65613151Y-67606012D01*
X65642306Y-67310000D01*
X65613151Y-67013988D01*
X65526808Y-66729352D01*
X65386594Y-66467030D01*
X65197897Y-66237103D01*
X64967970Y-66048406D01*
X64952243Y-66040000D01*
X64967970Y-66031594D01*
X65197897Y-65842897D01*
X65386594Y-65612970D01*
X65526808Y-65350648D01*
X65613151Y-65066012D01*
X65642306Y-64770000D01*
X65613151Y-64473988D01*
X65526808Y-64189352D01*
X65386594Y-63927030D01*
X65197897Y-63697103D01*
X64967970Y-63508406D01*
X64952243Y-63500000D01*
X64967970Y-63491594D01*
X65197897Y-63302897D01*
X65386594Y-63072970D01*
X65526808Y-62810648D01*
X65613151Y-62526012D01*
X65642306Y-62230000D01*
X65613151Y-61933988D01*
X65526808Y-61649352D01*
X65386594Y-61387030D01*
X65197897Y-61157103D01*
X64967970Y-60968406D01*
X64952243Y-60960000D01*
X64967970Y-60951594D01*
X65197897Y-60762897D01*
X65386594Y-60532970D01*
X65526808Y-60270648D01*
X65613151Y-59986012D01*
X65642306Y-59690000D01*
X65613151Y-59393988D01*
X65526808Y-59109352D01*
X65386594Y-58847030D01*
X65197897Y-58617103D01*
X65097855Y-58535000D01*
X69781971Y-58535000D01*
X69850000Y-58541700D01*
X69918029Y-58535000D01*
X69918037Y-58535000D01*
X70121507Y-58514960D01*
X70382581Y-58435764D01*
X70623188Y-58307157D01*
X70834081Y-58134081D01*
X70877454Y-58081231D01*
X85663686Y-43295000D01*
X103566315Y-43295000D01*
X104025001Y-43753686D01*
X104025000Y-44482907D01*
X104008192Y-44514353D01*
X103921849Y-44798989D01*
X103900000Y-45020823D01*
X103900000Y-46419178D01*
X103921849Y-46641012D01*
X104008192Y-46925648D01*
X104148407Y-47187970D01*
X104337104Y-47417897D01*
X104567031Y-47606594D01*
X104829353Y-47746808D01*
X105113989Y-47833151D01*
X105410000Y-47862306D01*
X105706012Y-47833151D01*
X105990648Y-47746808D01*
X106252970Y-47606594D01*
X106482897Y-47417897D01*
X106671594Y-47187970D01*
X106811808Y-46925648D01*
X106898151Y-46641012D01*
X106920000Y-46419178D01*
X106920000Y-45020822D01*
X106898151Y-44798988D01*
X106811808Y-44514352D01*
X106795000Y-44482906D01*
X106795000Y-43753685D01*
X111063686Y-39485000D01*
X130034184Y-39485000D01*
X129983960Y-39526217D01*
X129927114Y-39564201D01*
X129878769Y-39612546D01*
X129825919Y-39655919D01*
X129782546Y-39708769D01*
X129734201Y-39757114D01*
X129696217Y-39813960D01*
X129652843Y-39866812D01*
X129620613Y-39927110D01*
X129582629Y-39983957D01*
X129556465Y-40047123D01*
X129524236Y-40107419D01*
X129504389Y-40172845D01*
X129478225Y-40236011D01*
X129464886Y-40303068D01*
X129445040Y-40368493D01*
X129438339Y-40436530D01*
X129425000Y-40503589D01*
X129425000Y-40571963D01*
X129418299Y-40640000D01*
X129425000Y-40708037D01*
X129425000Y-40776411D01*
X129438339Y-40843470D01*
X129445040Y-40911507D01*
X129464886Y-40976932D01*
X129478225Y-41043989D01*
X129504389Y-41107155D01*
X129524236Y-41172581D01*
X129556465Y-41232877D01*
X129582629Y-41296043D01*
X129620613Y-41352890D01*
X129652843Y-41413188D01*
X129696217Y-41466040D01*
X129734201Y-41522886D01*
X129782546Y-41571231D01*
X129825919Y-41624081D01*
X129878769Y-41667454D01*
X129927114Y-41715799D01*
X129983960Y-41753783D01*
X130036812Y-41797157D01*
X130097110Y-41829387D01*
X130153957Y-41867371D01*
X130217123Y-41893535D01*
X130277419Y-41925764D01*
X130342845Y-41945611D01*
X130406011Y-41971775D01*
X130473068Y-41985114D01*
X130538493Y-42004960D01*
X130606530Y-42011661D01*
X130673589Y-42025000D01*
X137856315Y-42025000D01*
X138315001Y-42483687D01*
X138315000Y-44444184D01*
X138144080Y-44235919D01*
X137933187Y-44062843D01*
X137692580Y-43934236D01*
X137431506Y-43855040D01*
X137160000Y-43828299D01*
X136888493Y-43855040D01*
X136627419Y-43934236D01*
X136386812Y-44062843D01*
X136175919Y-44235920D01*
X136002843Y-44446813D01*
X135890000Y-44657927D01*
X135777157Y-44446812D01*
X135604080Y-44235919D01*
X135393187Y-44062843D01*
X135152580Y-43934236D01*
X134891506Y-43855040D01*
X134620000Y-43828299D01*
X134348493Y-43855040D01*
X134087419Y-43934236D01*
X133846812Y-44062843D01*
X133635919Y-44235920D01*
X133462843Y-44446813D01*
X133350000Y-44657927D01*
X133237157Y-44446812D01*
X133064080Y-44235919D01*
X132853187Y-44062843D01*
X132612580Y-43934236D01*
X132351506Y-43855040D01*
X132080000Y-43828299D01*
X131808493Y-43855040D01*
X131547419Y-43934236D01*
X131306812Y-44062843D01*
X131095919Y-44235920D01*
X130922843Y-44446813D01*
X130794236Y-44687420D01*
X130715040Y-44948494D01*
X130695000Y-45151964D01*
X130695000Y-45651964D01*
X130695001Y-50226313D01*
X126426315Y-54495000D01*
X119448026Y-54495000D01*
X119379999Y-54488300D01*
X119311972Y-54495000D01*
X119311963Y-54495000D01*
X119108493Y-54515040D01*
X118847419Y-54594236D01*
X118606812Y-54722843D01*
X118606810Y-54722844D01*
X118606811Y-54722844D01*
X118448766Y-54852548D01*
X118448765Y-54852549D01*
X118395919Y-54895919D01*
X118352550Y-54948764D01*
X99756315Y-73545000D01*
X90437094Y-73545000D01*
X90405648Y-73528192D01*
X90121012Y-73441849D01*
X89899178Y-73420000D01*
X88500822Y-73420000D01*
X88278988Y-73441849D01*
X87994352Y-73528192D01*
X87732030Y-73668406D01*
X87502103Y-73857103D01*
X87313406Y-74087030D01*
X87173192Y-74349352D01*
X87086849Y-74633988D01*
X87057694Y-74930000D01*
X87086849Y-75226012D01*
X87173192Y-75510648D01*
X87313406Y-75772970D01*
X87502103Y-76002897D01*
X87732030Y-76191594D01*
X87747757Y-76200000D01*
X87732030Y-76208406D01*
X87502103Y-76397103D01*
X87313406Y-76627030D01*
X87173192Y-76889352D01*
X87086849Y-77173988D01*
X87057694Y-77470000D01*
X87086849Y-77766012D01*
X87173192Y-78050648D01*
X87313406Y-78312970D01*
X87502103Y-78542897D01*
X87732030Y-78731594D01*
X87747757Y-78740000D01*
X87732030Y-78748406D01*
X87502103Y-78937103D01*
X87313406Y-79167030D01*
X87173192Y-79429352D01*
X87086849Y-79713988D01*
X87057694Y-80010000D01*
X87086849Y-80306012D01*
X87173192Y-80590648D01*
X87313406Y-80852970D01*
X87502103Y-81082897D01*
X87602145Y-81165000D01*
X86428029Y-81165000D01*
X86360000Y-81158300D01*
X86291971Y-81165000D01*
X86291963Y-81165000D01*
X86088493Y-81185040D01*
X85827419Y-81264236D01*
X85586812Y-81392843D01*
X85428766Y-81522548D01*
X85428764Y-81522550D01*
X85375919Y-81565919D01*
X85332550Y-81618764D01*
X81618765Y-85332550D01*
X81565919Y-85375920D01*
X81392843Y-85586813D01*
X81264236Y-85827420D01*
X81185040Y-86088494D01*
X81165000Y-86291964D01*
X81165000Y-86291971D01*
X81158300Y-86360000D01*
X81165000Y-86428029D01*
X81165001Y-120076314D01*
X79436315Y-121805000D01*
X79067855Y-121805000D01*
X79167897Y-121722897D01*
X79356594Y-121492970D01*
X79496808Y-121230648D01*
X79583151Y-120946012D01*
X79612306Y-120650000D01*
X79583151Y-120353988D01*
X79496808Y-120069352D01*
X79356594Y-119807030D01*
X79167897Y-119577103D01*
X78937970Y-119388406D01*
X78675648Y-119248192D01*
X78391012Y-119161849D01*
X78169178Y-119140000D01*
X76770822Y-119140000D01*
X76548988Y-119161849D01*
X76264352Y-119248192D01*
X76002030Y-119388406D01*
X75772103Y-119577103D01*
X75583406Y-119807030D01*
X75443192Y-120069352D01*
X75356849Y-120353988D01*
X75327694Y-120650000D01*
X75356849Y-120946012D01*
X75443192Y-121230648D01*
X75583406Y-121492970D01*
X75772103Y-121722897D01*
X76002030Y-121911594D01*
X76017757Y-121920000D01*
X76002030Y-121928406D01*
X75772103Y-122117103D01*
X75583406Y-122347030D01*
X75443192Y-122609352D01*
X75356849Y-122893988D01*
X75327694Y-123190000D01*
X75356849Y-123486012D01*
X75443192Y-123770648D01*
X75583406Y-124032970D01*
X75772103Y-124262897D01*
X76002030Y-124451594D01*
X76017757Y-124460000D01*
X76002030Y-124468406D01*
X75772103Y-124657103D01*
X75583406Y-124887030D01*
X75443192Y-125149352D01*
X75356849Y-125433988D01*
X75327694Y-125730000D01*
X75356849Y-126026012D01*
X75443192Y-126310648D01*
X75583406Y-126572970D01*
X75772103Y-126802897D01*
X76002030Y-126991594D01*
X76264352Y-127131808D01*
X76548988Y-127218151D01*
X76770822Y-127240000D01*
X78169178Y-127240000D01*
X78391012Y-127218151D01*
X78675648Y-127131808D01*
X78707094Y-127115000D01*
X81211971Y-127115000D01*
X81280000Y-127121700D01*
X81348029Y-127115000D01*
X81348037Y-127115000D01*
X81551507Y-127094960D01*
X81812581Y-127015764D01*
X82053188Y-126887157D01*
X82264081Y-126714081D01*
X82307454Y-126661231D01*
X86021236Y-122947450D01*
X86074081Y-122904081D01*
X86247157Y-122693188D01*
X86375764Y-122452581D01*
X86454960Y-122191507D01*
X86475000Y-121988037D01*
X86475000Y-121988029D01*
X86481700Y-121920000D01*
X86475000Y-121851971D01*
X86475000Y-88203685D01*
X87058678Y-87620007D01*
X87057694Y-87630000D01*
X87086849Y-87926012D01*
X87173192Y-88210648D01*
X87313406Y-88472970D01*
X87502103Y-88702897D01*
X87732030Y-88891594D01*
X87747757Y-88900000D01*
X87732030Y-88908406D01*
X87502103Y-89097103D01*
X87313406Y-89327030D01*
X87173192Y-89589352D01*
X87086849Y-89873988D01*
X87057694Y-90170000D01*
X87086849Y-90466012D01*
X87173192Y-90750648D01*
X87313406Y-91012970D01*
X87502103Y-91242897D01*
X87732030Y-91431594D01*
X87747757Y-91440000D01*
X87732030Y-91448406D01*
X87502103Y-91637103D01*
X87313406Y-91867030D01*
X87173192Y-92129352D01*
X87086849Y-92413988D01*
X87057694Y-92710000D01*
X87086849Y-93006012D01*
X87173192Y-93290648D01*
X87313406Y-93552970D01*
X87502103Y-93782897D01*
X87732030Y-93971594D01*
X87747757Y-93980000D01*
X87732030Y-93988406D01*
X87502103Y-94177103D01*
X87313406Y-94407030D01*
X87173192Y-94669352D01*
X87086849Y-94953988D01*
X87057694Y-95250000D01*
X87086849Y-95546012D01*
X87173192Y-95830648D01*
X87313406Y-96092970D01*
X87502103Y-96322897D01*
X87732030Y-96511594D01*
X87747757Y-96520000D01*
X87732030Y-96528406D01*
X87502103Y-96717103D01*
X87313406Y-96947030D01*
X87173192Y-97209352D01*
X87086849Y-97493988D01*
X87057694Y-97790000D01*
X87086849Y-98086012D01*
X87173192Y-98370648D01*
X87313406Y-98632970D01*
X87502103Y-98862897D01*
X87732030Y-99051594D01*
X87747757Y-99060000D01*
X87732030Y-99068406D01*
X87502103Y-99257103D01*
X87313406Y-99487030D01*
X87173192Y-99749352D01*
X87086849Y-100033988D01*
X87057694Y-100330000D01*
X87086849Y-100626012D01*
X87173192Y-100910648D01*
X87313406Y-101172970D01*
X87502103Y-101402897D01*
X87732030Y-101591594D01*
X87747757Y-101600000D01*
X87732030Y-101608406D01*
X87502103Y-101797103D01*
X87313406Y-102027030D01*
X87173192Y-102289352D01*
X87086849Y-102573988D01*
X87057694Y-102870000D01*
X87086849Y-103166012D01*
X87173192Y-103450648D01*
X87313406Y-103712970D01*
X87502103Y-103942897D01*
X87732030Y-104131594D01*
X87994352Y-104271808D01*
X88278988Y-104358151D01*
X88500822Y-104380000D01*
X89899178Y-104380000D01*
X90121012Y-104358151D01*
X90405648Y-104271808D01*
X90667970Y-104131594D01*
X90897897Y-103942897D01*
X91086594Y-103712970D01*
X91226808Y-103450648D01*
X91313151Y-103166012D01*
X91342306Y-102870000D01*
X91313151Y-102573988D01*
X91226808Y-102289352D01*
X91086594Y-102027030D01*
X90897897Y-101797103D01*
X90667970Y-101608406D01*
X90652243Y-101600000D01*
X90667970Y-101591594D01*
X90897897Y-101402897D01*
X91086594Y-101172970D01*
X91226808Y-100910648D01*
X91313151Y-100626012D01*
X91342306Y-100330000D01*
X91313151Y-100033988D01*
X91226808Y-99749352D01*
X91086594Y-99487030D01*
X90897897Y-99257103D01*
X90667970Y-99068406D01*
X90652243Y-99060000D01*
X90667970Y-99051594D01*
X90897897Y-98862897D01*
X91086594Y-98632970D01*
X91226808Y-98370648D01*
X91313151Y-98086012D01*
X91342306Y-97790000D01*
X91313151Y-97493988D01*
X91226808Y-97209352D01*
X91086594Y-96947030D01*
X90897897Y-96717103D01*
X90667970Y-96528406D01*
X90652243Y-96520000D01*
X90667970Y-96511594D01*
X90897897Y-96322897D01*
X91086594Y-96092970D01*
X91226808Y-95830648D01*
X91313151Y-95546012D01*
X91342306Y-95250000D01*
X91313151Y-94953988D01*
X91226808Y-94669352D01*
X91086594Y-94407030D01*
X90897897Y-94177103D01*
X90667970Y-93988406D01*
X90652243Y-93980000D01*
X90667970Y-93971594D01*
X90897897Y-93782897D01*
X91086594Y-93552970D01*
X91226808Y-93290648D01*
X91313151Y-93006012D01*
X91342306Y-92710000D01*
X91313151Y-92413988D01*
X91226808Y-92129352D01*
X91086594Y-91867030D01*
X90897897Y-91637103D01*
X90667970Y-91448406D01*
X90652243Y-91440000D01*
X90667970Y-91431594D01*
X90897897Y-91242897D01*
X91086594Y-91012970D01*
X91226808Y-90750648D01*
X91313151Y-90466012D01*
X91342306Y-90170000D01*
X91313151Y-89873988D01*
X91226808Y-89589352D01*
X91086594Y-89327030D01*
X90897897Y-89097103D01*
X90667970Y-88908406D01*
X90652243Y-88900000D01*
X90667970Y-88891594D01*
X90897897Y-88702897D01*
X91086594Y-88472970D01*
X91226808Y-88210648D01*
X91313151Y-87926012D01*
X91342306Y-87630000D01*
X91313151Y-87333988D01*
X91226808Y-87049352D01*
X91086594Y-86787030D01*
X90897897Y-86557103D01*
X90667970Y-86368406D01*
X90652243Y-86360000D01*
X90667970Y-86351594D01*
X90897897Y-86162897D01*
X91086594Y-85932970D01*
X91226808Y-85670648D01*
X91313151Y-85386012D01*
X91342306Y-85090000D01*
X91313151Y-84793988D01*
X91226808Y-84509352D01*
X91086594Y-84247030D01*
X90897897Y-84017103D01*
X90667970Y-83828406D01*
X90652243Y-83820000D01*
X90667970Y-83811594D01*
X90897897Y-83622897D01*
X91086594Y-83392970D01*
X91226808Y-83130648D01*
X91313151Y-82846012D01*
X91342306Y-82550000D01*
X91313151Y-82253988D01*
X91226808Y-81969352D01*
X91086594Y-81707030D01*
X90897897Y-81477103D01*
X90667970Y-81288406D01*
X90652243Y-81280000D01*
X90667970Y-81271594D01*
X90897897Y-81082897D01*
X91086594Y-80852970D01*
X91226808Y-80590648D01*
X91313151Y-80306012D01*
X91342306Y-80010000D01*
X91313151Y-79713988D01*
X91226808Y-79429352D01*
X91086594Y-79167030D01*
X90897897Y-78937103D01*
X90667970Y-78748406D01*
X90652243Y-78740000D01*
X90667970Y-78731594D01*
X90897897Y-78542897D01*
X91086594Y-78312970D01*
X91226808Y-78050648D01*
X91313151Y-77766012D01*
X91342306Y-77470000D01*
X91313151Y-77173988D01*
X91226808Y-76889352D01*
X91086594Y-76627030D01*
X90897897Y-76397103D01*
X90797855Y-76315000D01*
X100261971Y-76315000D01*
X100330000Y-76321700D01*
X100398029Y-76315000D01*
X100398037Y-76315000D01*
X100601507Y-76294960D01*
X100862581Y-76215764D01*
X100933408Y-76177906D01*
X93048767Y-84062548D01*
X92995919Y-84105920D01*
X92822843Y-84316813D01*
X92694236Y-84557420D01*
X92615040Y-84818494D01*
X92595000Y-85021964D01*
X92595000Y-85021971D01*
X92588300Y-85090000D01*
X92595000Y-85158029D01*
X92595001Y-100193584D01*
X92595000Y-100193589D01*
X92595000Y-100466411D01*
X92608341Y-100533480D01*
X92615041Y-100601507D01*
X92634884Y-100666922D01*
X92648225Y-100733989D01*
X92674393Y-100797165D01*
X92694237Y-100862581D01*
X92726461Y-100922869D01*
X92752629Y-100986043D01*
X92790618Y-101042898D01*
X92822844Y-101103188D01*
X92866213Y-101156033D01*
X92904201Y-101212886D01*
X92952551Y-101261236D01*
X92995920Y-101314081D01*
X93048765Y-101357450D01*
X93097114Y-101405799D01*
X93153966Y-101443786D01*
X93206813Y-101487157D01*
X93267106Y-101519384D01*
X93323957Y-101557371D01*
X93387128Y-101583537D01*
X93447420Y-101615764D01*
X93512842Y-101635609D01*
X93576011Y-101661775D01*
X93643071Y-101675114D01*
X93708494Y-101694960D01*
X93776529Y-101701661D01*
X93843589Y-101715000D01*
X93911964Y-101715000D01*
X93980000Y-101721701D01*
X94048037Y-101715000D01*
X94116411Y-101715000D01*
X94183470Y-101701661D01*
X94251507Y-101694960D01*
X94316932Y-101675114D01*
X94383989Y-101661775D01*
X94447155Y-101635611D01*
X94512581Y-101615764D01*
X94572877Y-101583535D01*
X94636043Y-101557371D01*
X94692890Y-101519387D01*
X94753188Y-101487157D01*
X94806040Y-101443783D01*
X94862886Y-101405799D01*
X94911231Y-101357454D01*
X94964081Y-101314081D01*
X95007454Y-101261231D01*
X95055799Y-101212886D01*
X95093783Y-101156040D01*
X95137157Y-101103188D01*
X95169387Y-101042890D01*
X95207371Y-100986043D01*
X95233535Y-100922877D01*
X95250001Y-100892072D01*
X95266461Y-100922869D01*
X95292629Y-100986043D01*
X95330618Y-101042898D01*
X95362844Y-101103188D01*
X95406213Y-101156033D01*
X95444201Y-101212886D01*
X95492551Y-101261236D01*
X95535920Y-101314081D01*
X95588765Y-101357450D01*
X95637114Y-101405799D01*
X95693966Y-101443786D01*
X95746813Y-101487157D01*
X95807106Y-101519384D01*
X95863957Y-101557371D01*
X95927128Y-101583537D01*
X95987420Y-101615764D01*
X96052842Y-101635609D01*
X96116011Y-101661775D01*
X96183071Y-101675114D01*
X96248494Y-101694960D01*
X96316529Y-101701661D01*
X96383589Y-101715000D01*
X96451964Y-101715000D01*
X96520000Y-101721701D01*
X96588037Y-101715000D01*
X96656411Y-101715000D01*
X96723470Y-101701661D01*
X96791507Y-101694960D01*
X96856932Y-101675114D01*
X96923989Y-101661775D01*
X96987155Y-101635611D01*
X97052581Y-101615764D01*
X97112877Y-101583535D01*
X97176043Y-101557371D01*
X97232890Y-101519387D01*
X97293188Y-101487157D01*
X97346040Y-101443783D01*
X97402886Y-101405799D01*
X97451231Y-101357454D01*
X97504081Y-101314081D01*
X97547454Y-101261231D01*
X97595799Y-101212886D01*
X97633783Y-101156040D01*
X97677157Y-101103188D01*
X97709387Y-101042890D01*
X97747371Y-100986043D01*
X97773535Y-100922877D01*
X97805764Y-100862581D01*
X97825611Y-100797155D01*
X97851775Y-100733989D01*
X97865114Y-100666932D01*
X97884960Y-100601507D01*
X97891661Y-100533470D01*
X97905000Y-100466411D01*
X97905000Y-86933685D01*
X105983686Y-78855000D01*
X109772907Y-78855000D01*
X109804353Y-78871808D01*
X110088989Y-78958151D01*
X110310823Y-78980000D01*
X111709179Y-78980000D01*
X111931013Y-78958151D01*
X112215649Y-78871808D01*
X112477971Y-78731594D01*
X112707898Y-78542897D01*
X112896595Y-78312970D01*
X113036809Y-78050648D01*
X113123152Y-77766012D01*
X113152307Y-77470000D01*
X113123152Y-77173988D01*
X113036809Y-76889352D01*
X112896595Y-76627030D01*
X112707898Y-76397103D01*
X112477971Y-76208406D01*
X112462244Y-76200000D01*
X112477971Y-76191594D01*
X112707898Y-76002897D01*
X112896595Y-75772970D01*
X113036809Y-75510648D01*
X113123152Y-75226012D01*
X113152307Y-74930000D01*
X113123152Y-74633988D01*
X113036809Y-74349352D01*
X112896595Y-74087030D01*
X112707898Y-73857103D01*
X112477971Y-73668406D01*
X112215649Y-73528192D01*
X111931013Y-73441849D01*
X111709179Y-73420000D01*
X110310823Y-73420000D01*
X110088989Y-73441849D01*
X109804353Y-73528192D01*
X109772907Y-73545000D01*
X104208029Y-73545000D01*
X104140000Y-73538300D01*
X104071971Y-73545000D01*
X104071963Y-73545000D01*
X103868493Y-73565040D01*
X103607419Y-73644236D01*
X103536591Y-73682095D01*
X114322095Y-62896591D01*
X114284236Y-62967420D01*
X114205040Y-63228494D01*
X114185000Y-63431964D01*
X114185000Y-63431971D01*
X114178300Y-63500000D01*
X114185000Y-63568029D01*
X114185001Y-80706313D01*
X113726315Y-81165000D01*
X112247095Y-81165000D01*
X112215649Y-81148192D01*
X111931013Y-81061849D01*
X111709179Y-81040000D01*
X110310823Y-81040000D01*
X110088989Y-81061849D01*
X109804353Y-81148192D01*
X109772907Y-81165000D01*
X106748029Y-81165000D01*
X106680000Y-81158300D01*
X106611971Y-81165000D01*
X106611963Y-81165000D01*
X106431892Y-81182735D01*
X106408492Y-81185040D01*
X106147419Y-81264236D01*
X105906812Y-81392843D01*
X105804141Y-81477103D01*
X105748766Y-81522548D01*
X105748764Y-81522550D01*
X105695919Y-81565919D01*
X105652550Y-81618764D01*
X100668764Y-86602551D01*
X100615920Y-86645919D01*
X100572551Y-86698764D01*
X100572548Y-86698767D01*
X100442844Y-86856812D01*
X100314236Y-87097420D01*
X100235040Y-87358493D01*
X100208300Y-87630000D01*
X100215001Y-87698039D01*
X100215000Y-95181971D01*
X100208300Y-95250000D01*
X100215000Y-95318029D01*
X100215000Y-95318036D01*
X100235040Y-95521506D01*
X100314236Y-95782580D01*
X100442843Y-96023187D01*
X100615919Y-96234080D01*
X100668765Y-96277450D01*
X108531314Y-104140000D01*
X80706315Y-131965000D01*
X79067855Y-131965000D01*
X79167897Y-131882897D01*
X79356594Y-131652970D01*
X79496808Y-131390648D01*
X79583151Y-131106012D01*
X79612306Y-130810000D01*
X79583151Y-130513988D01*
X79496808Y-130229352D01*
X79356594Y-129967030D01*
X79167897Y-129737103D01*
X78937970Y-129548406D01*
X78675648Y-129408192D01*
X78391012Y-129321849D01*
X78169178Y-129300000D01*
X76770822Y-129300000D01*
X76548988Y-129321849D01*
X76264352Y-129408192D01*
X76002030Y-129548406D01*
X75772103Y-129737103D01*
X75583406Y-129967030D01*
X75443192Y-130229352D01*
X75356849Y-130513988D01*
X75327694Y-130810000D01*
X75356849Y-131106012D01*
X75443192Y-131390648D01*
X75583406Y-131652970D01*
X75772103Y-131882897D01*
X75872145Y-131965000D01*
X72963685Y-131965000D01*
X70877454Y-129878769D01*
X70834081Y-129825919D01*
X70623188Y-129652843D01*
X70382581Y-129524236D01*
X70121507Y-129445040D01*
X69918037Y-129425000D01*
X69918029Y-129425000D01*
X69850000Y-129418300D01*
X69781971Y-129425000D01*
X66367855Y-129425000D01*
X66467897Y-129342897D01*
X66656594Y-129112970D01*
X66796808Y-128850648D01*
X66883151Y-128566012D01*
X66912306Y-128270000D01*
X66883151Y-127973988D01*
X66796808Y-127689352D01*
X66656594Y-127427030D01*
X66467897Y-127197103D01*
X66237970Y-127008406D01*
X66222243Y-127000000D01*
X66237970Y-126991594D01*
X66467897Y-126802897D01*
X66656594Y-126572970D01*
X66796808Y-126310648D01*
X66883151Y-126026012D01*
X66912306Y-125730000D01*
X66883151Y-125433988D01*
X66796808Y-125149352D01*
X66656594Y-124887030D01*
X66467897Y-124657103D01*
X66237970Y-124468406D01*
X66222243Y-124460000D01*
X66237970Y-124451594D01*
X66467897Y-124262897D01*
X66656594Y-124032970D01*
X66796808Y-123770648D01*
X66883151Y-123486012D01*
X66912306Y-123190000D01*
X66883151Y-122893988D01*
X66796808Y-122609352D01*
X66656594Y-122347030D01*
X66467897Y-122117103D01*
X66237970Y-121928406D01*
X66222243Y-121920000D01*
X66237970Y-121911594D01*
X66467897Y-121722897D01*
X66656594Y-121492970D01*
X66796808Y-121230648D01*
X66883151Y-120946012D01*
X66912306Y-120650000D01*
X66883151Y-120353988D01*
X66796808Y-120069352D01*
X66656594Y-119807030D01*
X66467897Y-119577103D01*
X66237970Y-119388406D01*
X65975648Y-119248192D01*
X65691012Y-119161849D01*
X65469178Y-119140000D01*
X64070822Y-119140000D01*
X63848988Y-119161849D01*
X63564352Y-119248192D01*
X63302030Y-119388406D01*
X63072103Y-119577103D01*
X62883406Y-119807030D01*
X62743192Y-120069352D01*
X62656849Y-120353988D01*
X62627694Y-120650000D01*
X62656849Y-120946012D01*
X62743192Y-121230648D01*
X62883406Y-121492970D01*
X63072103Y-121722897D01*
X63302030Y-121911594D01*
X63317757Y-121920000D01*
X63302030Y-121928406D01*
X63072103Y-122117103D01*
X62883406Y-122347030D01*
X62743192Y-122609352D01*
X62656849Y-122893988D01*
X62627694Y-123190000D01*
X62656849Y-123486012D01*
X62743192Y-123770648D01*
X62883406Y-124032970D01*
X63072103Y-124262897D01*
X63302030Y-124451594D01*
X63317757Y-124460000D01*
X63302030Y-124468406D01*
X63072103Y-124657103D01*
X62883406Y-124887030D01*
X62743192Y-125149352D01*
X62656849Y-125433988D01*
X62627694Y-125730000D01*
X62656849Y-126026012D01*
X62743192Y-126310648D01*
X62883406Y-126572970D01*
X63072103Y-126802897D01*
X63302030Y-126991594D01*
X63317757Y-127000000D01*
X63302030Y-127008406D01*
X63072103Y-127197103D01*
X62883406Y-127427030D01*
X62743192Y-127689352D01*
X62656849Y-127973988D01*
X62627694Y-128270000D01*
X62656849Y-128566012D01*
X62743192Y-128850648D01*
X62883406Y-129112970D01*
X63072103Y-129342897D01*
X63172145Y-129425000D01*
X58993686Y-129425000D01*
X55995000Y-126426315D01*
X55995000Y-108523685D01*
X60263686Y-104255000D01*
X62262906Y-104255000D01*
X62294352Y-104271808D01*
X62578988Y-104358151D01*
X62800822Y-104380000D01*
X64199178Y-104380000D01*
X64421012Y-104358151D01*
X64705648Y-104271808D01*
X64967970Y-104131594D01*
X65197897Y-103942897D01*
X65386594Y-103712970D01*
X65526808Y-103450648D01*
X65613151Y-103166012D01*
X65642306Y-102870000D01*
X65613151Y-102573988D01*
X65526808Y-102289352D01*
X65386594Y-102027030D01*
X65197897Y-101797103D01*
X64967970Y-101608406D01*
X64952243Y-101600000D01*
X64967970Y-101591594D01*
X65197897Y-101402897D01*
X65386594Y-101172970D01*
X65526808Y-100910648D01*
X65613151Y-100626012D01*
X65642306Y-100330000D01*
X65613151Y-100033988D01*
X65526808Y-99749352D01*
X65386594Y-99487030D01*
X65197897Y-99257103D01*
X64967970Y-99068406D01*
X64952243Y-99060000D01*
X64967970Y-99051594D01*
X65197897Y-98862897D01*
X65386594Y-98632970D01*
X65526808Y-98370648D01*
X65613151Y-98086012D01*
X65642306Y-97790000D01*
X65613151Y-97493988D01*
X65526808Y-97209352D01*
X65386594Y-96947030D01*
X65197897Y-96717103D01*
X64967970Y-96528406D01*
X64952243Y-96520000D01*
X64967970Y-96511594D01*
X65197897Y-96322897D01*
X65386594Y-96092970D01*
X65526808Y-95830648D01*
X65613151Y-95546012D01*
X65642306Y-95250000D01*
X65613151Y-94953988D01*
X65526808Y-94669352D01*
X65386594Y-94407030D01*
X65197897Y-94177103D01*
X64967970Y-93988406D01*
X64952243Y-93980000D01*
X64967970Y-93971594D01*
X65197897Y-93782897D01*
X65386594Y-93552970D01*
X65526808Y-93290648D01*
X65613151Y-93006012D01*
X65642306Y-92710000D01*
X65613151Y-92413988D01*
X65526808Y-92129352D01*
X65386594Y-91867030D01*
X65197897Y-91637103D01*
X64967970Y-91448406D01*
X64705648Y-91308192D01*
X64421012Y-91221849D01*
X64199178Y-91200000D01*
X62800822Y-91200000D01*
X62578988Y-91221849D01*
X62294352Y-91308192D01*
X62032030Y-91448406D01*
X61802103Y-91637103D01*
X61613406Y-91867030D01*
X61473192Y-92129352D01*
X61386849Y-92413988D01*
X61357694Y-92710000D01*
X61386849Y-93006012D01*
X61473192Y-93290648D01*
X61613406Y-93552970D01*
X61802103Y-93782897D01*
X62032030Y-93971594D01*
X62047757Y-93980000D01*
X62032030Y-93988406D01*
X61802103Y-94177103D01*
X61613406Y-94407030D01*
X61473192Y-94669352D01*
X61386849Y-94953988D01*
X61357694Y-95250000D01*
X61386849Y-95546012D01*
X61473192Y-95830648D01*
X61613406Y-96092970D01*
X61802103Y-96322897D01*
X62032030Y-96511594D01*
X62047757Y-96520000D01*
X62032030Y-96528406D01*
X61802103Y-96717103D01*
X61613406Y-96947030D01*
X61473192Y-97209352D01*
X61386849Y-97493988D01*
X61357694Y-97790000D01*
X61386849Y-98086012D01*
X61473192Y-98370648D01*
X61613406Y-98632970D01*
X61802103Y-98862897D01*
X62032030Y-99051594D01*
X62047757Y-99060000D01*
X62032030Y-99068406D01*
X61802103Y-99257103D01*
X61613406Y-99487030D01*
X61473192Y-99749352D01*
X61386849Y-100033988D01*
X61357694Y-100330000D01*
X61386849Y-100626012D01*
X61473192Y-100910648D01*
X61613406Y-101172970D01*
X61802103Y-101402897D01*
X61902145Y-101485000D01*
X59758029Y-101485000D01*
X59690000Y-101478300D01*
X59621971Y-101485000D01*
X59621963Y-101485000D01*
X59441892Y-101502735D01*
X59418492Y-101505040D01*
X59245981Y-101557371D01*
X59157419Y-101584236D01*
X58916812Y-101712843D01*
X58814141Y-101797103D01*
X58758766Y-101842548D01*
X58758764Y-101842550D01*
X58705919Y-101885919D01*
X58662550Y-101938764D01*
X53678765Y-106922550D01*
X53625919Y-106965920D01*
X53452843Y-107176813D01*
X53324236Y-107417420D01*
X53245040Y-107678494D01*
X53225000Y-107881964D01*
X53225000Y-107881971D01*
X53218300Y-107950000D01*
X53225000Y-108018029D01*
X53225001Y-126931961D01*
X53218300Y-127000000D01*
X53245040Y-127271507D01*
X53324236Y-127532580D01*
X53452844Y-127773188D01*
X53582548Y-127931233D01*
X53582551Y-127931236D01*
X53625920Y-127984081D01*
X53678764Y-128027449D01*
X57392548Y-131741234D01*
X57435919Y-131794081D01*
X57488764Y-131837450D01*
X57488766Y-131837452D01*
X57544141Y-131882897D01*
X57646812Y-131967157D01*
X57887419Y-132095764D01*
X58148493Y-132174960D01*
X58351963Y-132195000D01*
X58351971Y-132195000D01*
X58420000Y-132201700D01*
X58488029Y-132195000D01*
X63532906Y-132195000D01*
X63564352Y-132211808D01*
X63848988Y-132298151D01*
X64070822Y-132320000D01*
X65469178Y-132320000D01*
X65691012Y-132298151D01*
X65975648Y-132211808D01*
X66007094Y-132195000D01*
X69276315Y-132195000D01*
X71362546Y-134281231D01*
X71405919Y-134334081D01*
X71616812Y-134507157D01*
X71857419Y-134635764D01*
X72118493Y-134714960D01*
X72321963Y-134735000D01*
X72321972Y-134735000D01*
X72389999Y-134741700D01*
X72458026Y-134735000D01*
X81211971Y-134735000D01*
X81280000Y-134741700D01*
X81348029Y-134735000D01*
X81348037Y-134735000D01*
X81551507Y-134714960D01*
X81812581Y-134635764D01*
X82053188Y-134507157D01*
X82264081Y-134334081D01*
X82307454Y-134281231D01*
X111063686Y-105525000D01*
X134046315Y-105525000D01*
X138315001Y-109793687D01*
X138315000Y-114902538D01*
X138223989Y-115122257D01*
X138165000Y-115418816D01*
X138165000Y-115721184D01*
X138223989Y-116017743D01*
X138339701Y-116297095D01*
X138507688Y-116548505D01*
X138721495Y-116762312D01*
X138972905Y-116930299D01*
X139252257Y-117046011D01*
X139548816Y-117105000D01*
X139851184Y-117105000D01*
X140147743Y-117046011D01*
X140427095Y-116930299D01*
X140614618Y-116805000D01*
X155000665Y-116805000D01*
X155182102Y-116787130D01*
X155414901Y-116716511D01*
X155436437Y-116705000D01*
X155495752Y-116705000D01*
X155662499Y-116688577D01*
X155876447Y-116623676D01*
X156073623Y-116518284D01*
X156246449Y-116376449D01*
X156388284Y-116203623D01*
X156493676Y-116006447D01*
X156558577Y-115792499D01*
X156580491Y-115570000D01*
X156558577Y-115347501D01*
X156493676Y-115133553D01*
X156388284Y-114936377D01*
X156246449Y-114763551D01*
X156073623Y-114621716D01*
X155876447Y-114516324D01*
X155662499Y-114451423D01*
X155495752Y-114435000D01*
X155436437Y-114435000D01*
X155414901Y-114423489D01*
X155182102Y-114352870D01*
X155000665Y-114335000D01*
X141085000Y-114335000D01*
X141085000Y-109288029D01*
X141091700Y-109220000D01*
X141085000Y-109151971D01*
X141085000Y-109151963D01*
X141064960Y-108948493D01*
X140985764Y-108687419D01*
X140857157Y-108446812D01*
X140684081Y-108235919D01*
X140631236Y-108192550D01*
X135647454Y-103208769D01*
X135604081Y-103155919D01*
X135393188Y-102982843D01*
X135152581Y-102854236D01*
X134891507Y-102775040D01*
X134688037Y-102755000D01*
X134688029Y-102755000D01*
X134620000Y-102748300D01*
X134551971Y-102755000D01*
X111063686Y-102755000D01*
X102985000Y-94676315D01*
X102985000Y-88203685D01*
X107253686Y-83935000D01*
X109412146Y-83935000D01*
X109312104Y-84017103D01*
X109123407Y-84247030D01*
X108983193Y-84509352D01*
X108896850Y-84793988D01*
X108867695Y-85090000D01*
X108896850Y-85386012D01*
X108983193Y-85670648D01*
X109123407Y-85932970D01*
X109312104Y-86162897D01*
X109542031Y-86351594D01*
X109557758Y-86360000D01*
X109542031Y-86368406D01*
X109312104Y-86557103D01*
X109123407Y-86787030D01*
X108983193Y-87049352D01*
X108896850Y-87333988D01*
X108867695Y-87630000D01*
X108896850Y-87926012D01*
X108983193Y-88210648D01*
X109123407Y-88472970D01*
X109312104Y-88702897D01*
X109542031Y-88891594D01*
X109557758Y-88900000D01*
X109542031Y-88908406D01*
X109312104Y-89097103D01*
X109123407Y-89327030D01*
X108983193Y-89589352D01*
X108896850Y-89873988D01*
X108867695Y-90170000D01*
X108896850Y-90466012D01*
X108983193Y-90750648D01*
X109123407Y-91012970D01*
X109312104Y-91242897D01*
X109542031Y-91431594D01*
X109557758Y-91440000D01*
X109542031Y-91448406D01*
X109312104Y-91637103D01*
X109123407Y-91867030D01*
X108983193Y-92129352D01*
X108896850Y-92413988D01*
X108867695Y-92710000D01*
X108896850Y-93006012D01*
X108983193Y-93290648D01*
X109123407Y-93552970D01*
X109312104Y-93782897D01*
X109542031Y-93971594D01*
X109804353Y-94111808D01*
X110088989Y-94198151D01*
X110310823Y-94220000D01*
X111709179Y-94220000D01*
X111931013Y-94198151D01*
X112215649Y-94111808D01*
X112247095Y-94095000D01*
X115501971Y-94095000D01*
X115570000Y-94101700D01*
X115638029Y-94095000D01*
X115638037Y-94095000D01*
X115841507Y-94074960D01*
X116102581Y-93995764D01*
X116343188Y-93867157D01*
X116554081Y-93694081D01*
X116597454Y-93641231D01*
X124121241Y-86117445D01*
X124174080Y-86074081D01*
X124217445Y-86021241D01*
X124217452Y-86021234D01*
X124347156Y-85863189D01*
X124347157Y-85863188D01*
X124475764Y-85622581D01*
X124554960Y-85361507D01*
X124575000Y-85158037D01*
X124575000Y-85158028D01*
X124581700Y-85090001D01*
X124575000Y-85021974D01*
X124575000Y-74930000D01*
X124617695Y-74930000D01*
X124646850Y-75226012D01*
X124733193Y-75510648D01*
X124873407Y-75772970D01*
X125062104Y-76002897D01*
X125292031Y-76191594D01*
X125307758Y-76200000D01*
X125292031Y-76208406D01*
X125062104Y-76397103D01*
X124873407Y-76627030D01*
X124733193Y-76889352D01*
X124646850Y-77173988D01*
X124617695Y-77470000D01*
X124646850Y-77766012D01*
X124733193Y-78050648D01*
X124873407Y-78312970D01*
X125062104Y-78542897D01*
X125292031Y-78731594D01*
X125307758Y-78740000D01*
X125292031Y-78748406D01*
X125062104Y-78937103D01*
X124873407Y-79167030D01*
X124733193Y-79429352D01*
X124646850Y-79713988D01*
X124617695Y-80010000D01*
X124646850Y-80306012D01*
X124733193Y-80590648D01*
X124873407Y-80852970D01*
X125062104Y-81082897D01*
X125292031Y-81271594D01*
X125307758Y-81280000D01*
X125292031Y-81288406D01*
X125062104Y-81477103D01*
X124873407Y-81707030D01*
X124733193Y-81969352D01*
X124646850Y-82253988D01*
X124617695Y-82550000D01*
X124646850Y-82846012D01*
X124733193Y-83130648D01*
X124873407Y-83392970D01*
X125062104Y-83622897D01*
X125292031Y-83811594D01*
X125307758Y-83820000D01*
X125292031Y-83828406D01*
X125062104Y-84017103D01*
X124873407Y-84247030D01*
X124733193Y-84509352D01*
X124646850Y-84793988D01*
X124617695Y-85090000D01*
X124646850Y-85386012D01*
X124733193Y-85670648D01*
X124873407Y-85932970D01*
X125062104Y-86162897D01*
X125292031Y-86351594D01*
X125307758Y-86360000D01*
X125292031Y-86368406D01*
X125062104Y-86557103D01*
X124873407Y-86787030D01*
X124733193Y-87049352D01*
X124646850Y-87333988D01*
X124617695Y-87630000D01*
X124646850Y-87926012D01*
X124733193Y-88210648D01*
X124873407Y-88472970D01*
X125062104Y-88702897D01*
X125292031Y-88891594D01*
X125307758Y-88900000D01*
X125292031Y-88908406D01*
X125062104Y-89097103D01*
X124873407Y-89327030D01*
X124733193Y-89589352D01*
X124646850Y-89873988D01*
X124617695Y-90170000D01*
X124646850Y-90466012D01*
X124733193Y-90750648D01*
X124873407Y-91012970D01*
X125062104Y-91242897D01*
X125292031Y-91431594D01*
X125307758Y-91440000D01*
X125292031Y-91448406D01*
X125062104Y-91637103D01*
X124873407Y-91867030D01*
X124733193Y-92129352D01*
X124646850Y-92413988D01*
X124617695Y-92710000D01*
X124646850Y-93006012D01*
X124733193Y-93290648D01*
X124873407Y-93552970D01*
X125062104Y-93782897D01*
X125292031Y-93971594D01*
X125554353Y-94111808D01*
X125838989Y-94198151D01*
X126060823Y-94220000D01*
X127459179Y-94220000D01*
X127681013Y-94198151D01*
X127965649Y-94111808D01*
X128227971Y-93971594D01*
X128457898Y-93782897D01*
X128646595Y-93552970D01*
X128786809Y-93290648D01*
X128873152Y-93006012D01*
X128902307Y-92710000D01*
X128873152Y-92413988D01*
X128786809Y-92129352D01*
X128646595Y-91867030D01*
X128457898Y-91637103D01*
X128227971Y-91448406D01*
X128212244Y-91440000D01*
X128227971Y-91431594D01*
X128457898Y-91242897D01*
X128646595Y-91012970D01*
X128786809Y-90750648D01*
X128873152Y-90466012D01*
X128902307Y-90170000D01*
X128873152Y-89873988D01*
X128786809Y-89589352D01*
X128646595Y-89327030D01*
X128457898Y-89097103D01*
X128227971Y-88908406D01*
X128212244Y-88900000D01*
X128227971Y-88891594D01*
X128457898Y-88702897D01*
X128646595Y-88472970D01*
X128786809Y-88210648D01*
X128873152Y-87926012D01*
X128902307Y-87630000D01*
X128873152Y-87333988D01*
X128786809Y-87049352D01*
X128646595Y-86787030D01*
X128457898Y-86557103D01*
X128227971Y-86368406D01*
X128212244Y-86360000D01*
X128227971Y-86351594D01*
X128457898Y-86162897D01*
X128646595Y-85932970D01*
X128786809Y-85670648D01*
X128873152Y-85386012D01*
X128902307Y-85090000D01*
X128873152Y-84793988D01*
X128786809Y-84509352D01*
X128646595Y-84247030D01*
X128457898Y-84017103D01*
X128227971Y-83828406D01*
X128212244Y-83820000D01*
X128227971Y-83811594D01*
X128457898Y-83622897D01*
X128646595Y-83392970D01*
X128786809Y-83130648D01*
X128873152Y-82846012D01*
X128902307Y-82550000D01*
X128873152Y-82253988D01*
X128786809Y-81969352D01*
X128646595Y-81707030D01*
X128457898Y-81477103D01*
X128227971Y-81288406D01*
X128212244Y-81280000D01*
X128227971Y-81271594D01*
X128457898Y-81082897D01*
X128646595Y-80852970D01*
X128786809Y-80590648D01*
X128873152Y-80306012D01*
X128902307Y-80010000D01*
X128873152Y-79713988D01*
X128786809Y-79429352D01*
X128646595Y-79167030D01*
X128457898Y-78937103D01*
X128227971Y-78748406D01*
X128212244Y-78740000D01*
X128227971Y-78731594D01*
X128457898Y-78542897D01*
X128646595Y-78312970D01*
X128786809Y-78050648D01*
X128873152Y-77766012D01*
X128902307Y-77470000D01*
X128873152Y-77173988D01*
X128786809Y-76889352D01*
X128646595Y-76627030D01*
X128457898Y-76397103D01*
X128227971Y-76208406D01*
X128212244Y-76200000D01*
X128227971Y-76191594D01*
X128457898Y-76002897D01*
X128646595Y-75772970D01*
X128786809Y-75510648D01*
X128873152Y-75226012D01*
X128902307Y-74930000D01*
X128873152Y-74633988D01*
X128786809Y-74349352D01*
X128646595Y-74087030D01*
X128457898Y-73857103D01*
X128227971Y-73668406D01*
X127965649Y-73528192D01*
X127681013Y-73441849D01*
X127459179Y-73420000D01*
X126060823Y-73420000D01*
X125838989Y-73441849D01*
X125554353Y-73528192D01*
X125292031Y-73668406D01*
X125062104Y-73857103D01*
X124873407Y-74087030D01*
X124733193Y-74349352D01*
X124646850Y-74633988D01*
X124617695Y-74930000D01*
X124575000Y-74930000D01*
X124575000Y-74233685D01*
X126303685Y-72505000D01*
X149532145Y-72505000D01*
X149432103Y-72587103D01*
X149243406Y-72817030D01*
X149103192Y-73079352D01*
X149016849Y-73363988D01*
X148987694Y-73660000D01*
X149016849Y-73956012D01*
X149103192Y-74240648D01*
X149243406Y-74502970D01*
X149432103Y-74732897D01*
X149662030Y-74921594D01*
X149924352Y-75061808D01*
X150208988Y-75148151D01*
X150430822Y-75170000D01*
X151829178Y-75170000D01*
X152051012Y-75148151D01*
X152335648Y-75061808D01*
X152367094Y-75045000D01*
X154366315Y-75045000D01*
X161175000Y-81853686D01*
X161175001Y-120076313D01*
X146746315Y-134505000D01*
X140273686Y-134505000D01*
X136755000Y-130986315D01*
X136755000Y-130599721D01*
X136672953Y-130187244D01*
X136512012Y-129798698D01*
X136305000Y-129488882D01*
X136305000Y-115487230D01*
X136280619Y-115239682D01*
X136184268Y-114922059D01*
X136158072Y-114873050D01*
X136158072Y-114670000D01*
X136145812Y-114545518D01*
X136109502Y-114425820D01*
X136050537Y-114315506D01*
X135971185Y-114218815D01*
X135874494Y-114139463D01*
X135764180Y-114080498D01*
X135644482Y-114044188D01*
X135520000Y-114031928D01*
X135316950Y-114031928D01*
X135267941Y-114005732D01*
X134950318Y-113909381D01*
X134620000Y-113876848D01*
X134289683Y-113909381D01*
X133972060Y-114005732D01*
X133923051Y-114031928D01*
X133720000Y-114031928D01*
X133595518Y-114044188D01*
X133475820Y-114080498D01*
X133365506Y-114139463D01*
X133268815Y-114218815D01*
X133189463Y-114315506D01*
X133179043Y-114335000D01*
X119319335Y-114335000D01*
X119137898Y-114352870D01*
X118905099Y-114423489D01*
X118883563Y-114435000D01*
X118824248Y-114435000D01*
X118657501Y-114451423D01*
X118443553Y-114516324D01*
X118246377Y-114621716D01*
X118073551Y-114763551D01*
X117931716Y-114936377D01*
X117826324Y-115133553D01*
X117761423Y-115347501D01*
X117739509Y-115570000D01*
X117761423Y-115792499D01*
X117826324Y-116006447D01*
X117931716Y-116203623D01*
X118073551Y-116376449D01*
X118246377Y-116518284D01*
X118443553Y-116623676D01*
X118657501Y-116688577D01*
X118824248Y-116705000D01*
X118883563Y-116705000D01*
X118905099Y-116716511D01*
X119137898Y-116787130D01*
X119319335Y-116805000D01*
X132935001Y-116805000D01*
X132935000Y-129425000D01*
X102938026Y-129425000D01*
X102869999Y-129418300D01*
X102801972Y-129425000D01*
X102801963Y-129425000D01*
X102598493Y-129445040D01*
X102337419Y-129524236D01*
X102096812Y-129652843D01*
X102096810Y-129652844D01*
X102096811Y-129652844D01*
X101938766Y-129782548D01*
X101938764Y-129782550D01*
X101885919Y-129825919D01*
X101842550Y-129878764D01*
X95946315Y-135775000D01*
X50103686Y-135775000D01*
X34405000Y-120076315D01*
X34405000Y-94553685D01*
X36133685Y-92825000D01*
X39402906Y-92825000D01*
X39434352Y-92841808D01*
X39718988Y-92928151D01*
X39940822Y-92950000D01*
X41339178Y-92950000D01*
X41561012Y-92928151D01*
X41845648Y-92841808D01*
X42107970Y-92701594D01*
X42337897Y-92512897D01*
X42526594Y-92282970D01*
X42666808Y-92020648D01*
X42753151Y-91736012D01*
X42782306Y-91440000D01*
X42753151Y-91143988D01*
X42666808Y-90859352D01*
X42526594Y-90597030D01*
X42337897Y-90367103D01*
X42107970Y-90178406D01*
X41845648Y-90038192D01*
X41561012Y-89951849D01*
X41339178Y-89930000D01*
X39940822Y-89930000D01*
X39718988Y-89951849D01*
X39434352Y-90038192D01*
X39402906Y-90055000D01*
X36133685Y-90055000D01*
X34405000Y-88326315D01*
X34405000Y-73773685D01*
X38213686Y-69965000D01*
X39402906Y-69965000D01*
X39434352Y-69981808D01*
X39718988Y-70068151D01*
X39940822Y-70090000D01*
X41339178Y-70090000D01*
X41561012Y-70068151D01*
X41845648Y-69981808D01*
X42107970Y-69841594D01*
X42337897Y-69652897D01*
X42526594Y-69422970D01*
X42666808Y-69160648D01*
X42753151Y-68876012D01*
X42782306Y-68580000D01*
X42753151Y-68283988D01*
X42666808Y-67999352D01*
X42526594Y-67737030D01*
X42337897Y-67507103D01*
X42107970Y-67318406D01*
X41845648Y-67178192D01*
X41561012Y-67091849D01*
X41339178Y-67070000D01*
X39940822Y-67070000D01*
X39718988Y-67091849D01*
X39434352Y-67178192D01*
X39402906Y-67195000D01*
X37708029Y-67195000D01*
X37640000Y-67188300D01*
X37571971Y-67195000D01*
X37571963Y-67195000D01*
X37368493Y-67215040D01*
X37107419Y-67294236D01*
X36866812Y-67422843D01*
X36708766Y-67552548D01*
X36708764Y-67552550D01*
X36655919Y-67595919D01*
X36612550Y-67648764D01*
X32088765Y-72172550D01*
X32035919Y-72215920D01*
X31992550Y-72268765D01*
X31992548Y-72268767D01*
X31948891Y-72321963D01*
X31862843Y-72426813D01*
X31734236Y-72667420D01*
X31655040Y-72928494D01*
X31635000Y-73131964D01*
X31635000Y-73131971D01*
X31628300Y-73200000D01*
X29337000Y-73200000D01*
X29337000Y-35687000D01*
X184023000Y-35687000D01*
X184023000Y-143383000D01*
G37*
X184023000Y-143383000D02*
X29337000Y-143383000D01*
X29337000Y-73200000D01*
X31628300Y-73200000D01*
X31635000Y-73268029D01*
X31635001Y-88831961D01*
X31628300Y-88900000D01*
X31655040Y-89171507D01*
X31734236Y-89432580D01*
X31862844Y-89673188D01*
X31992548Y-89831233D01*
X31992551Y-89831236D01*
X32035920Y-89884081D01*
X32088765Y-89927450D01*
X33601315Y-91440000D01*
X32088765Y-92952550D01*
X32035920Y-92995919D01*
X31992551Y-93048764D01*
X31992548Y-93048767D01*
X31862844Y-93206812D01*
X31734236Y-93447420D01*
X31655040Y-93708493D01*
X31628300Y-93980000D01*
X31635001Y-94048039D01*
X31635000Y-120581971D01*
X31628300Y-120650000D01*
X31635000Y-120718029D01*
X31635000Y-120718036D01*
X31652188Y-120892548D01*
X31655040Y-120921507D01*
X31659412Y-120935919D01*
X31734236Y-121182580D01*
X31862843Y-121423187D01*
X32035919Y-121634080D01*
X32088765Y-121677450D01*
X48502550Y-138091236D01*
X48545919Y-138144081D01*
X48598764Y-138187450D01*
X48598766Y-138187452D01*
X48647108Y-138227125D01*
X48756812Y-138317157D01*
X48997419Y-138445764D01*
X49258492Y-138524960D01*
X49281892Y-138527265D01*
X49461963Y-138545000D01*
X49461971Y-138545000D01*
X49530000Y-138551700D01*
X49598029Y-138545000D01*
X96451971Y-138545000D01*
X96520000Y-138551700D01*
X96588029Y-138545000D01*
X96588037Y-138545000D01*
X96791507Y-138524960D01*
X97052581Y-138445764D01*
X97293188Y-138317157D01*
X97504081Y-138144081D01*
X97547454Y-138091231D01*
X103443686Y-132195000D01*
X132985654Y-132195000D01*
X133259017Y-132468363D01*
X133608698Y-132702012D01*
X133997244Y-132862953D01*
X134409721Y-132945000D01*
X134796315Y-132945000D01*
X138672550Y-136821236D01*
X138715919Y-136874081D01*
X138768764Y-136917450D01*
X138768766Y-136917452D01*
X138817108Y-136957125D01*
X138926812Y-137047157D01*
X139137927Y-137160000D01*
X139167419Y-137175764D01*
X139428492Y-137254960D01*
X139451892Y-137257265D01*
X139631963Y-137275000D01*
X139631971Y-137275000D01*
X139700000Y-137281700D01*
X139768029Y-137275000D01*
X147251971Y-137275000D01*
X147320000Y-137281700D01*
X147388029Y-137275000D01*
X147388037Y-137275000D01*
X147591507Y-137254960D01*
X147852581Y-137175764D01*
X148093188Y-137047157D01*
X148304081Y-136874081D01*
X148347454Y-136821231D01*
X163491236Y-121677450D01*
X163544081Y-121634081D01*
X163587453Y-121581233D01*
X163717157Y-121423188D01*
X163845764Y-121182581D01*
X163924960Y-120921507D01*
X163927812Y-120892548D01*
X163945000Y-120718037D01*
X163945000Y-120718029D01*
X163951700Y-120650000D01*
X163945000Y-120581971D01*
X163945000Y-81348026D01*
X163951700Y-81279999D01*
X163945000Y-81211972D01*
X163945000Y-81211963D01*
X163924960Y-81008493D01*
X163845764Y-80747419D01*
X163717157Y-80506812D01*
X163700172Y-80486116D01*
X163587452Y-80348766D01*
X163587445Y-80348759D01*
X163544080Y-80295919D01*
X163491241Y-80252555D01*
X155967452Y-72728767D01*
X155924081Y-72675919D01*
X155713188Y-72502843D01*
X155472581Y-72374236D01*
X155211507Y-72295040D01*
X155008037Y-72275000D01*
X155008029Y-72275000D01*
X154940000Y-72268300D01*
X154871971Y-72275000D01*
X152727855Y-72275000D01*
X152827897Y-72192897D01*
X153016594Y-71962970D01*
X153156808Y-71700648D01*
X153243151Y-71416012D01*
X153272306Y-71120000D01*
X153243151Y-70823988D01*
X153156808Y-70539352D01*
X153016594Y-70277030D01*
X152827897Y-70047103D01*
X152597970Y-69858406D01*
X152582243Y-69850000D01*
X152597970Y-69841594D01*
X152827897Y-69652897D01*
X153016594Y-69422970D01*
X153156808Y-69160648D01*
X153243151Y-68876012D01*
X153272306Y-68580000D01*
X153243151Y-68283988D01*
X153156808Y-67999352D01*
X153016594Y-67737030D01*
X152827897Y-67507103D01*
X152597970Y-67318406D01*
X152335648Y-67178192D01*
X152051012Y-67091849D01*
X151829178Y-67070000D01*
X150430822Y-67070000D01*
X150208988Y-67091849D01*
X149924352Y-67178192D01*
X149892906Y-67195000D01*
X123258029Y-67195000D01*
X123190000Y-67188300D01*
X123121971Y-67195000D01*
X123121963Y-67195000D01*
X122918493Y-67215040D01*
X122657419Y-67294236D01*
X122416812Y-67422843D01*
X122258766Y-67552548D01*
X122258764Y-67552550D01*
X122205919Y-67595919D01*
X122162550Y-67648764D01*
X118448764Y-71362551D01*
X118395920Y-71405919D01*
X118352551Y-71458764D01*
X118352548Y-71458767D01*
X118222844Y-71616812D01*
X118094236Y-71857420D01*
X118015040Y-72118493D01*
X117988300Y-72390000D01*
X117995001Y-72458039D01*
X117995000Y-84226315D01*
X113436316Y-88785000D01*
X112607856Y-88785000D01*
X112707898Y-88702897D01*
X112896595Y-88472970D01*
X113036809Y-88210648D01*
X113123152Y-87926012D01*
X113152307Y-87630000D01*
X113123152Y-87333988D01*
X113036809Y-87049352D01*
X112896595Y-86787030D01*
X112707898Y-86557103D01*
X112477971Y-86368406D01*
X112462244Y-86360000D01*
X112477971Y-86351594D01*
X112707898Y-86162897D01*
X112896595Y-85932970D01*
X113036809Y-85670648D01*
X113123152Y-85386012D01*
X113152307Y-85090000D01*
X113123152Y-84793988D01*
X113036809Y-84509352D01*
X112896595Y-84247030D01*
X112707898Y-84017103D01*
X112607856Y-83935000D01*
X114231971Y-83935000D01*
X114300000Y-83941700D01*
X114368029Y-83935000D01*
X114368037Y-83935000D01*
X114571507Y-83914960D01*
X114832581Y-83835764D01*
X115073188Y-83707157D01*
X115284081Y-83534081D01*
X115327454Y-83481231D01*
X116501236Y-82307450D01*
X116554081Y-82264081D01*
X116727157Y-82053188D01*
X116855764Y-81812581D01*
X116934960Y-81551507D01*
X116955000Y-81348037D01*
X116955000Y-81348028D01*
X116961700Y-81280001D01*
X116955000Y-81211974D01*
X116955000Y-64073685D01*
X121223686Y-59805000D01*
X128201971Y-59805000D01*
X128270000Y-59811700D01*
X128338029Y-59805000D01*
X128338037Y-59805000D01*
X128541507Y-59784960D01*
X128802581Y-59705764D01*
X129043188Y-59577157D01*
X129254081Y-59404081D01*
X129297454Y-59351231D01*
X135551236Y-53097450D01*
X135604081Y-53054081D01*
X135775001Y-52845815D01*
X135775001Y-53203584D01*
X135775000Y-53203589D01*
X135775000Y-53271963D01*
X135768299Y-53340000D01*
X135775000Y-53408037D01*
X135775000Y-53476411D01*
X135788339Y-53543470D01*
X135795040Y-53611507D01*
X135814886Y-53676932D01*
X135828225Y-53743989D01*
X135854389Y-53807155D01*
X135874236Y-53872581D01*
X135906465Y-53932877D01*
X135932629Y-53996043D01*
X135970613Y-54052890D01*
X136002843Y-54113188D01*
X136046217Y-54166040D01*
X136084201Y-54222886D01*
X136132546Y-54271231D01*
X136175919Y-54324081D01*
X136228767Y-54367452D01*
X136277114Y-54415799D01*
X136333960Y-54453783D01*
X136386812Y-54497157D01*
X136447110Y-54529387D01*
X136503957Y-54567371D01*
X136567123Y-54593535D01*
X136627419Y-54625764D01*
X136692845Y-54645611D01*
X136756011Y-54671775D01*
X136823068Y-54685114D01*
X136888493Y-54704960D01*
X136956530Y-54711661D01*
X137023589Y-54725000D01*
X137091964Y-54725000D01*
X137160000Y-54731701D01*
X137228037Y-54725000D01*
X137296411Y-54725000D01*
X137363470Y-54711661D01*
X137431507Y-54704960D01*
X137496932Y-54685114D01*
X137563989Y-54671775D01*
X137627155Y-54645611D01*
X137692581Y-54625764D01*
X137752877Y-54593535D01*
X137816043Y-54567371D01*
X137872890Y-54529387D01*
X137933188Y-54497157D01*
X137986040Y-54453783D01*
X138042886Y-54415799D01*
X138091233Y-54367452D01*
X138144081Y-54324081D01*
X138187454Y-54271231D01*
X138235799Y-54222886D01*
X138273783Y-54166040D01*
X138317157Y-54113188D01*
X138349387Y-54052890D01*
X138387371Y-53996043D01*
X138413535Y-53932877D01*
X138445764Y-53872581D01*
X138465611Y-53807155D01*
X138491775Y-53743989D01*
X138505114Y-53676932D01*
X138524960Y-53611507D01*
X138531661Y-53543470D01*
X138545000Y-53476411D01*
X138545000Y-53408037D01*
X138551701Y-53340000D01*
X138545000Y-53271963D01*
X138545000Y-46995816D01*
X138715920Y-47204081D01*
X138926813Y-47377157D01*
X139167420Y-47505764D01*
X139428494Y-47584960D01*
X139700000Y-47611701D01*
X139971507Y-47584960D01*
X140232581Y-47505764D01*
X140473188Y-47377157D01*
X140684081Y-47204081D01*
X140855000Y-46995816D01*
X140855001Y-53203584D01*
X140855000Y-53203589D01*
X140855000Y-53271963D01*
X140848299Y-53340000D01*
X140855000Y-53408037D01*
X140855000Y-53476411D01*
X140868339Y-53543470D01*
X140875040Y-53611507D01*
X140894886Y-53676932D01*
X140908225Y-53743989D01*
X140934389Y-53807155D01*
X140954236Y-53872581D01*
X140986465Y-53932877D01*
X141012629Y-53996043D01*
X141050613Y-54052890D01*
X141082843Y-54113188D01*
X141126217Y-54166040D01*
X141164201Y-54222886D01*
X141212546Y-54271231D01*
X141255919Y-54324081D01*
X141308767Y-54367452D01*
X141357114Y-54415799D01*
X141413960Y-54453783D01*
X141466812Y-54497157D01*
X141527110Y-54529387D01*
X141583957Y-54567371D01*
X141647123Y-54593535D01*
X141707419Y-54625764D01*
X141772845Y-54645611D01*
X141836011Y-54671775D01*
X141903068Y-54685114D01*
X141968493Y-54704960D01*
X142036530Y-54711661D01*
X142103589Y-54725000D01*
X142171964Y-54725000D01*
X142240000Y-54731701D01*
X142308037Y-54725000D01*
X142376411Y-54725000D01*
X142443470Y-54711661D01*
X142511507Y-54704960D01*
X142576932Y-54685114D01*
X142643989Y-54671775D01*
X142707155Y-54645611D01*
X142772581Y-54625764D01*
X142832877Y-54593535D01*
X142896043Y-54567371D01*
X142952890Y-54529387D01*
X143013188Y-54497157D01*
X143066040Y-54453783D01*
X143122886Y-54415799D01*
X143171233Y-54367452D01*
X143224081Y-54324081D01*
X143267454Y-54271231D01*
X143315799Y-54222886D01*
X143353783Y-54166040D01*
X143397157Y-54113188D01*
X143429387Y-54052890D01*
X143467371Y-53996043D01*
X143493535Y-53932877D01*
X143510000Y-53902073D01*
X143526465Y-53932877D01*
X143552629Y-53996043D01*
X143590613Y-54052890D01*
X143622843Y-54113188D01*
X143666217Y-54166040D01*
X143704201Y-54222886D01*
X143752546Y-54271231D01*
X143795919Y-54324081D01*
X143848767Y-54367452D01*
X143897114Y-54415799D01*
X143953960Y-54453783D01*
X144006812Y-54497157D01*
X144067110Y-54529387D01*
X144123957Y-54567371D01*
X144187123Y-54593535D01*
X144247419Y-54625764D01*
X144312845Y-54645611D01*
X144376011Y-54671775D01*
X144443068Y-54685114D01*
X144508493Y-54704960D01*
X144576530Y-54711661D01*
X144643589Y-54725000D01*
X144711964Y-54725000D01*
X144780000Y-54731701D01*
X144848037Y-54725000D01*
X144916411Y-54725000D01*
X144983470Y-54711661D01*
X145051507Y-54704960D01*
X145116932Y-54685114D01*
X145183989Y-54671775D01*
X145247155Y-54645611D01*
X145312581Y-54625764D01*
X145372877Y-54593535D01*
X145436043Y-54567371D01*
X145492890Y-54529387D01*
X145553188Y-54497157D01*
X145606040Y-54453783D01*
X145662886Y-54415799D01*
X145711233Y-54367452D01*
X145764081Y-54324081D01*
X145807454Y-54271231D01*
X145855799Y-54222886D01*
X145893783Y-54166040D01*
X145937157Y-54113188D01*
X145969387Y-54052890D01*
X146007371Y-53996043D01*
X146033535Y-53932877D01*
X146050000Y-53902073D01*
X146066465Y-53932877D01*
X146092629Y-53996043D01*
X146130613Y-54052890D01*
X146162843Y-54113188D01*
X146206217Y-54166040D01*
X146244201Y-54222886D01*
X146292546Y-54271231D01*
X146335919Y-54324081D01*
X146388767Y-54367452D01*
X146437114Y-54415799D01*
X146493960Y-54453783D01*
X146546812Y-54497157D01*
X146607110Y-54529387D01*
X146663957Y-54567371D01*
X146727123Y-54593535D01*
X146787419Y-54625764D01*
X146852845Y-54645611D01*
X146916011Y-54671775D01*
X146983068Y-54685114D01*
X147048493Y-54704960D01*
X147116530Y-54711661D01*
X147183589Y-54725000D01*
X147251964Y-54725000D01*
X147320000Y-54731701D01*
X147388037Y-54725000D01*
X147456411Y-54725000D01*
X147523470Y-54711661D01*
X147591507Y-54704960D01*
X147656932Y-54685114D01*
X147723989Y-54671775D01*
X147787155Y-54645611D01*
X147852581Y-54625764D01*
X147912877Y-54593535D01*
X147976043Y-54567371D01*
X148032890Y-54529387D01*
X148093188Y-54497157D01*
X148146040Y-54453783D01*
X148202886Y-54415799D01*
X148251233Y-54367452D01*
X148304081Y-54324081D01*
X148347454Y-54271231D01*
X148395799Y-54222886D01*
X148433783Y-54166040D01*
X148477157Y-54113188D01*
X148509387Y-54052890D01*
X148547371Y-53996043D01*
X148573535Y-53932877D01*
X148605764Y-53872581D01*
X148625611Y-53807155D01*
X148651775Y-53743989D01*
X148665114Y-53676932D01*
X148684960Y-53611507D01*
X148691661Y-53543470D01*
X148705000Y-53476411D01*
X148705000Y-53408037D01*
X148711701Y-53340000D01*
X148705000Y-53271963D01*
X148705000Y-45151963D01*
X148684960Y-44948493D01*
X148605764Y-44687419D01*
X148477157Y-44446812D01*
X148304080Y-44235919D01*
X148093187Y-44062843D01*
X147852580Y-43934236D01*
X147591506Y-43855040D01*
X147320000Y-43828299D01*
X147048493Y-43855040D01*
X146787419Y-43934236D01*
X146546812Y-44062843D01*
X146335919Y-44235920D01*
X146162843Y-44446813D01*
X146050000Y-44657927D01*
X145937157Y-44446812D01*
X145764080Y-44235919D01*
X145553187Y-44062843D01*
X145312580Y-43934236D01*
X145051506Y-43855040D01*
X144780000Y-43828299D01*
X144508493Y-43855040D01*
X144247419Y-43934236D01*
X144006812Y-44062843D01*
X143795919Y-44235920D01*
X143622843Y-44446813D01*
X143510000Y-44657927D01*
X143397157Y-44446812D01*
X143224080Y-44235919D01*
X143013187Y-44062843D01*
X142772580Y-43934236D01*
X142511506Y-43855040D01*
X142240000Y-43828299D01*
X141968493Y-43855040D01*
X141707419Y-43934236D01*
X141466812Y-44062843D01*
X141255919Y-44235920D01*
X141085000Y-44444185D01*
X141085000Y-41978026D01*
X141091700Y-41909999D01*
X141085000Y-41841972D01*
X141085000Y-41841963D01*
X141064960Y-41638493D01*
X140985764Y-41377419D01*
X140857157Y-41136812D01*
X140684081Y-40925919D01*
X140631236Y-40882550D01*
X139457454Y-39708769D01*
X139414081Y-39655919D01*
X139205816Y-39485000D01*
X148016315Y-39485000D01*
X151015001Y-42483687D01*
X151015000Y-45151962D01*
X151015000Y-46288037D01*
X151035040Y-46491507D01*
X151114236Y-46752581D01*
X151242843Y-46993188D01*
X151415920Y-47204081D01*
X151626813Y-47377157D01*
X151867420Y-47505764D01*
X152128494Y-47584960D01*
X152400000Y-47611701D01*
X152671507Y-47584960D01*
X152932581Y-47505764D01*
X153173188Y-47377157D01*
X153384081Y-47204081D01*
X153557157Y-46993188D01*
X153685764Y-46752581D01*
X153764960Y-46491507D01*
X153785000Y-46288037D01*
X153785000Y-41978029D01*
X153791700Y-41910000D01*
X153785000Y-41841971D01*
X153785000Y-41841963D01*
X153764960Y-41638493D01*
X153685764Y-41377419D01*
X153557157Y-41136812D01*
X153384081Y-40925919D01*
X153331236Y-40882550D01*
X149617454Y-37168769D01*
X149574081Y-37115919D01*
X149363188Y-36942843D01*
X149122581Y-36814236D01*
X148861507Y-36735040D01*
X148658037Y-36715000D01*
X148658029Y-36715000D01*
X148590000Y-36708300D01*
X148521971Y-36715000D01*
X110558029Y-36715000D01*
X110490000Y-36708300D01*
X110421971Y-36715000D01*
X110421963Y-36715000D01*
X110241892Y-36732735D01*
X110218492Y-36735040D01*
X109957419Y-36814236D01*
X109716812Y-36942843D01*
X109607108Y-37032875D01*
X109558766Y-37072548D01*
X109558764Y-37072550D01*
X109505919Y-37115919D01*
X109462550Y-37168764D01*
X105410000Y-41221315D01*
X105167454Y-40978769D01*
X105124081Y-40925919D01*
X104913188Y-40752843D01*
X104672581Y-40624236D01*
X104411507Y-40545040D01*
X104208037Y-40525000D01*
X104208029Y-40525000D01*
X104140000Y-40518300D01*
X104071971Y-40525000D01*
X85158029Y-40525000D01*
X85090000Y-40518300D01*
X85021971Y-40525000D01*
X85021963Y-40525000D01*
X84818493Y-40545040D01*
X84557419Y-40624236D01*
X84316812Y-40752843D01*
X84158766Y-40882548D01*
X84158764Y-40882550D01*
X84105919Y-40925919D01*
X84062550Y-40978764D01*
X69276315Y-55765000D01*
X64737094Y-55765000D01*
X64705648Y-55748192D01*
X64421012Y-55661849D01*
X64199178Y-55640000D01*
X62800822Y-55640000D01*
X62578988Y-55661849D01*
X62294352Y-55748192D01*
X62032030Y-55888406D01*
X61802103Y-56077103D01*
X61613406Y-56307030D01*
X61473192Y-56569352D01*
X61386849Y-56853988D01*
X61357694Y-57150000D01*
X61386849Y-57446012D01*
X61473192Y-57730648D01*
X61613406Y-57992970D01*
X61802103Y-58222897D01*
X62032030Y-58411594D01*
X62047757Y-58420000D01*
X62032030Y-58428406D01*
X61802103Y-58617103D01*
X61613406Y-58847030D01*
X61473192Y-59109352D01*
X61386849Y-59393988D01*
X61357694Y-59690000D01*
X61386849Y-59986012D01*
X61473192Y-60270648D01*
X61613406Y-60532970D01*
X61802103Y-60762897D01*
X62032030Y-60951594D01*
X62047757Y-60960000D01*
X62032030Y-60968406D01*
X61802103Y-61157103D01*
X61613406Y-61387030D01*
X61473192Y-61649352D01*
X61386849Y-61933988D01*
X61357694Y-62230000D01*
X61386849Y-62526012D01*
X61473192Y-62810648D01*
X61613406Y-63072970D01*
X61802103Y-63302897D01*
X62032030Y-63491594D01*
X62047757Y-63500000D01*
X62032030Y-63508406D01*
X61802103Y-63697103D01*
X61613406Y-63927030D01*
X61473192Y-64189352D01*
X61386849Y-64473988D01*
X61357694Y-64770000D01*
X61386849Y-65066012D01*
X61473192Y-65350648D01*
X61613406Y-65612970D01*
X61802103Y-65842897D01*
X62032030Y-66031594D01*
X62047757Y-66040000D01*
X62032030Y-66048406D01*
X61802103Y-66237103D01*
X61613406Y-66467030D01*
X61473192Y-66729352D01*
X61386849Y-67013988D01*
X61357694Y-67310000D01*
X61386849Y-67606012D01*
X61473192Y-67890648D01*
X61613406Y-68152970D01*
X61802103Y-68382897D01*
X62032030Y-68571594D01*
X62047757Y-68580000D01*
X62032030Y-68588406D01*
X61802103Y-68777103D01*
X61613406Y-69007030D01*
X61473192Y-69269352D01*
X61386849Y-69553988D01*
X61357694Y-69850000D01*
X61386849Y-70146012D01*
X61473192Y-70430648D01*
X61613406Y-70692970D01*
X61802103Y-70922897D01*
X62032030Y-71111594D01*
X62047757Y-71120000D01*
X62032030Y-71128406D01*
X61802103Y-71317103D01*
X61613406Y-71547030D01*
X61473192Y-71809352D01*
X61386849Y-72093988D01*
X61357694Y-72390000D01*
X61386849Y-72686012D01*
X61473192Y-72970648D01*
X61613406Y-73232970D01*
X61802103Y-73462897D01*
X62032030Y-73651594D01*
X62047757Y-73660000D01*
X62032030Y-73668406D01*
X61802103Y-73857103D01*
X61613406Y-74087030D01*
X61473192Y-74349352D01*
X61386849Y-74633988D01*
X61357694Y-74930000D01*
X61386849Y-75226012D01*
X61473192Y-75510648D01*
X61613406Y-75772970D01*
X61802103Y-76002897D01*
X62032030Y-76191594D01*
X62047757Y-76200000D01*
X62032030Y-76208406D01*
X61802103Y-76397103D01*
X61613406Y-76627030D01*
X61473192Y-76889352D01*
X61386849Y-77173988D01*
X61357694Y-77470000D01*
X61386849Y-77766012D01*
X61473192Y-78050648D01*
X61613406Y-78312970D01*
X61802103Y-78542897D01*
X61902145Y-78625000D01*
X55183686Y-78625000D01*
X51827454Y-75268769D01*
X51784081Y-75215919D01*
X51573188Y-75042843D01*
X51332581Y-74914236D01*
X51071507Y-74835040D01*
X50868037Y-74815000D01*
X50868029Y-74815000D01*
X50800000Y-74808300D01*
X50731971Y-74815000D01*
X41877094Y-74815000D01*
X41845648Y-74798192D01*
X41561012Y-74711849D01*
X41339178Y-74690000D01*
X39940822Y-74690000D01*
X39718988Y-74711849D01*
X39434352Y-74798192D01*
X39172030Y-74938406D01*
X38942103Y-75127103D01*
X38753406Y-75357030D01*
X38613192Y-75619352D01*
X38526849Y-75903988D01*
X38497694Y-76200000D01*
X38526849Y-76496012D01*
X38613192Y-76780648D01*
X38753406Y-77042970D01*
X38942103Y-77272897D01*
X39172030Y-77461594D01*
X39434352Y-77601808D01*
X39718988Y-77688151D01*
X39940822Y-77710000D01*
X41339178Y-77710000D01*
X41561012Y-77688151D01*
X41845648Y-77601808D01*
X41877094Y-77585000D01*
X50226315Y-77585000D01*
X53582550Y-80941236D01*
X53625919Y-80994081D01*
X53678764Y-81037450D01*
X53678766Y-81037452D01*
X53681871Y-81040000D01*
X53836812Y-81167157D01*
X54077419Y-81295764D01*
X54338493Y-81374960D01*
X54541963Y-81395000D01*
X54541971Y-81395000D01*
X54610000Y-81401700D01*
X54678029Y-81395000D01*
X59374184Y-81395000D01*
X59274141Y-81477103D01*
X59218766Y-81522548D01*
X59218764Y-81522550D01*
X59165919Y-81565919D01*
X59122550Y-81618764D01*
X43066315Y-97675000D01*
X41877094Y-97675000D01*
X41845648Y-97658192D01*
X41561012Y-97571849D01*
X41339178Y-97550000D01*
X39940822Y-97550000D01*
X39718988Y-97571849D01*
X39434352Y-97658192D01*
X39172030Y-97798406D01*
X38942103Y-97987103D01*
X38753406Y-98217030D01*
X38613192Y-98479352D01*
X38526849Y-98763988D01*
X38497694Y-99060000D01*
X38526849Y-99356012D01*
X38613192Y-99640648D01*
X38753406Y-99902970D01*
X38942103Y-100132897D01*
X39172030Y-100321594D01*
X39434352Y-100461808D01*
X39718988Y-100548151D01*
X39940822Y-100570000D01*
X41339178Y-100570000D01*
X41561012Y-100548151D01*
X41845648Y-100461808D01*
X41877094Y-100445000D01*
X43571971Y-100445000D01*
X43640000Y-100451700D01*
X43708029Y-100445000D01*
X43708037Y-100445000D01*
X43911507Y-100424960D01*
X44172581Y-100345764D01*
X44413188Y-100217157D01*
X44624081Y-100044081D01*
X44667454Y-99991231D01*
X60723686Y-83935000D01*
X61902145Y-83935000D01*
X61802103Y-84017103D01*
X61613406Y-84247030D01*
X61473192Y-84509352D01*
X61386849Y-84793988D01*
X61357694Y-85090000D01*
X61386849Y-85386012D01*
X61473192Y-85670648D01*
X61613406Y-85932970D01*
X61802103Y-86162897D01*
X62032030Y-86351594D01*
X62047757Y-86360000D01*
X62032030Y-86368406D01*
X61802103Y-86557103D01*
X61613406Y-86787030D01*
X61473192Y-87049352D01*
X61386849Y-87333988D01*
X61357694Y-87630000D01*
X61386849Y-87926012D01*
X61473192Y-88210648D01*
X61613406Y-88472970D01*
X61802103Y-88702897D01*
X62032030Y-88891594D01*
X62294352Y-89031808D01*
X62578988Y-89118151D01*
X62800822Y-89140000D01*
X64199178Y-89140000D01*
X64421012Y-89118151D01*
X64705648Y-89031808D01*
X64967970Y-88891594D01*
X65197897Y-88702897D01*
X65386594Y-88472970D01*
X65526808Y-88210648D01*
X65613151Y-87926012D01*
X65642306Y-87630000D01*
X65613151Y-87333988D01*
X65526808Y-87049352D01*
X65386594Y-86787030D01*
X65197897Y-86557103D01*
X64967970Y-86368406D01*
X64952243Y-86360000D01*
X64967970Y-86351594D01*
X65197897Y-86162897D01*
X65386594Y-85932970D01*
X65526808Y-85670648D01*
X65613151Y-85386012D01*
X65642306Y-85090000D01*
X65613151Y-84793988D01*
X65526808Y-84509352D01*
X65386594Y-84247030D01*
X65197897Y-84017103D01*
X64967970Y-83828406D01*
X64952243Y-83820000D01*
X64967970Y-83811594D01*
X65197897Y-83622897D01*
X65386594Y-83392970D01*
X65526808Y-83130648D01*
X65613151Y-82846012D01*
X65642306Y-82550000D01*
X65613151Y-82253988D01*
X65526808Y-81969352D01*
X65386594Y-81707030D01*
X65197897Y-81477103D01*
X64967970Y-81288406D01*
X64952243Y-81280000D01*
X64967970Y-81271594D01*
X65197897Y-81082897D01*
X65386594Y-80852970D01*
X65526808Y-80590648D01*
X65613151Y-80306012D01*
X65642306Y-80010000D01*
X65613151Y-79713988D01*
X65526808Y-79429352D01*
X65386594Y-79167030D01*
X65197897Y-78937103D01*
X65097855Y-78855000D01*
X67241971Y-78855000D01*
X67310000Y-78861700D01*
X67378029Y-78855000D01*
X67378037Y-78855000D01*
X67581507Y-78834960D01*
X67842581Y-78755764D01*
X68083188Y-78627157D01*
X68294081Y-78454081D01*
X68337454Y-78401231D01*
X70781233Y-75957452D01*
X70834081Y-75914081D01*
X71007157Y-75703188D01*
X71135764Y-75462581D01*
X71214960Y-75201507D01*
X71235000Y-74998037D01*
X71235000Y-74998028D01*
X71241700Y-74930001D01*
X71235000Y-74861974D01*
X71235000Y-65343685D01*
X76888685Y-59690000D01*
X87057694Y-59690000D01*
X87086849Y-59986012D01*
X87173192Y-60270648D01*
X87313406Y-60532970D01*
X87502103Y-60762897D01*
X87732030Y-60951594D01*
X87747757Y-60960000D01*
X87732030Y-60968406D01*
X87502103Y-61157103D01*
X87313406Y-61387030D01*
X87173192Y-61649352D01*
X87086849Y-61933988D01*
X87057694Y-62230000D01*
X87086849Y-62526012D01*
X87173192Y-62810648D01*
X87313406Y-63072970D01*
X87502103Y-63302897D01*
X87732030Y-63491594D01*
X87747757Y-63500000D01*
X87732030Y-63508406D01*
X87502103Y-63697103D01*
X87313406Y-63927030D01*
X87173192Y-64189352D01*
X87086849Y-64473988D01*
X87057694Y-64770000D01*
X87086849Y-65066012D01*
X87173192Y-65350648D01*
X87313406Y-65612970D01*
X87502103Y-65842897D01*
X87732030Y-66031594D01*
X87747757Y-66040000D01*
X87732030Y-66048406D01*
X87502103Y-66237103D01*
X87313406Y-66467030D01*
X87173192Y-66729352D01*
X87086849Y-67013988D01*
X87057694Y-67310000D01*
X87086849Y-67606012D01*
X87173192Y-67890648D01*
X87313406Y-68152970D01*
X87502103Y-68382897D01*
X87732030Y-68571594D01*
X87747757Y-68580000D01*
X87732030Y-68588406D01*
X87502103Y-68777103D01*
X87313406Y-69007030D01*
X87173192Y-69269352D01*
X87086849Y-69553988D01*
X87057694Y-69850000D01*
X87086849Y-70146012D01*
X87173192Y-70430648D01*
X87313406Y-70692970D01*
X87502103Y-70922897D01*
X87732030Y-71111594D01*
X87994352Y-71251808D01*
X88278988Y-71338151D01*
X88500822Y-71360000D01*
X89899178Y-71360000D01*
X90121012Y-71338151D01*
X90405648Y-71251808D01*
X90437094Y-71235000D01*
X98991971Y-71235000D01*
X99060000Y-71241700D01*
X99128029Y-71235000D01*
X99128037Y-71235000D01*
X99331507Y-71214960D01*
X99592581Y-71135764D01*
X99833188Y-71007157D01*
X100044081Y-70834081D01*
X100087454Y-70781231D01*
X113961233Y-56907452D01*
X114014081Y-56864081D01*
X114187157Y-56653188D01*
X114315764Y-56412581D01*
X114394960Y-56151507D01*
X114415000Y-55948037D01*
X114415000Y-55948028D01*
X114421700Y-55880001D01*
X114415000Y-55811974D01*
X114415000Y-46957094D01*
X114431808Y-46925648D01*
X114518151Y-46641012D01*
X114540000Y-46419178D01*
X114540000Y-45020822D01*
X114518151Y-44798988D01*
X114431808Y-44514352D01*
X114291594Y-44252030D01*
X114102897Y-44022103D01*
X113872969Y-43833406D01*
X113610647Y-43693192D01*
X113326011Y-43606849D01*
X113030000Y-43577694D01*
X112733988Y-43606849D01*
X112449352Y-43693192D01*
X112187030Y-43833406D01*
X111957103Y-44022103D01*
X111768406Y-44252031D01*
X111760000Y-44267757D01*
X111751594Y-44252030D01*
X111562897Y-44022103D01*
X111332969Y-43833406D01*
X111070647Y-43693192D01*
X110786011Y-43606849D01*
X110490000Y-43577694D01*
X110193988Y-43606849D01*
X109909352Y-43693192D01*
X109647030Y-43833406D01*
X109417103Y-44022103D01*
X109228406Y-44252031D01*
X109088192Y-44514353D01*
X109001849Y-44798989D01*
X108980000Y-45020823D01*
X108980000Y-46419178D01*
X109001849Y-46641012D01*
X109088192Y-46925648D01*
X109105000Y-46957094D01*
X109105001Y-52766313D01*
X101026315Y-60845000D01*
X90797855Y-60845000D01*
X90897897Y-60762897D01*
X91086594Y-60532970D01*
X91226808Y-60270648D01*
X91313151Y-59986012D01*
X91342306Y-59690000D01*
X91313151Y-59393988D01*
X91226808Y-59109352D01*
X91086594Y-58847030D01*
X90897897Y-58617103D01*
X90667970Y-58428406D01*
X90405648Y-58288192D01*
X90121012Y-58201849D01*
X89899178Y-58180000D01*
X88500822Y-58180000D01*
X88278988Y-58201849D01*
X87994352Y-58288192D01*
X87732030Y-58428406D01*
X87502103Y-58617103D01*
X87313406Y-58847030D01*
X87173192Y-59109352D01*
X87086849Y-59393988D01*
X87057694Y-59690000D01*
X76888685Y-59690000D01*
X81853686Y-54725000D01*
X87561971Y-54725000D01*
X87630000Y-54731700D01*
X87698029Y-54725000D01*
X87698037Y-54725000D01*
X87901507Y-54704960D01*
X88162581Y-54625764D01*
X88403188Y-54497157D01*
X88614081Y-54324081D01*
X88657454Y-54271231D01*
X92371236Y-50557450D01*
X92424081Y-50514081D01*
X92597157Y-50303188D01*
X92725764Y-50062581D01*
X92804960Y-49801507D01*
X92825000Y-49598037D01*
X92825000Y-49598029D01*
X92831700Y-49530000D01*
X92825000Y-49461971D01*
X92825000Y-46957094D01*
X92841808Y-46925648D01*
X92928151Y-46641012D01*
X92950000Y-46419178D01*
X92950000Y-45020822D01*
X92928151Y-44798988D01*
X92841808Y-44514352D01*
X92701594Y-44252030D01*
X92512897Y-44022103D01*
X92282969Y-43833406D01*
X92020647Y-43693192D01*
X91736011Y-43606849D01*
X91440000Y-43577694D01*
X91143988Y-43606849D01*
X90859352Y-43693192D01*
X90597030Y-43833406D01*
X90367103Y-44022103D01*
X90178406Y-44252031D01*
X90038192Y-44514353D01*
X89951849Y-44798989D01*
X89930000Y-45020823D01*
X89930000Y-46419178D01*
X89951849Y-46641012D01*
X90038192Y-46925648D01*
X90055000Y-46957094D01*
X90055001Y-48956313D01*
X87056315Y-51955000D01*
X81348028Y-51955000D01*
X81279999Y-51948300D01*
X81211970Y-51955000D01*
X81211963Y-51955000D01*
X81034099Y-51972518D01*
X81008492Y-51975040D01*
X80747419Y-52054236D01*
X80506812Y-52182843D01*
X80506810Y-52182844D01*
X80506811Y-52182844D01*
X80348766Y-52312548D01*
X80348764Y-52312550D01*
X80295919Y-52355919D01*
X80252550Y-52408764D01*
X68918765Y-63742550D01*
X68865919Y-63785920D01*
X68692843Y-63996813D01*
X68564236Y-64237420D01*
X68485040Y-64498494D01*
X68465000Y-64701964D01*
X68465000Y-64701971D01*
X68458300Y-64770000D01*
X68465000Y-64838029D01*
X68465001Y-74356314D01*
X66736315Y-76085000D01*
X65097855Y-76085000D01*
X65197897Y-76002897D01*
X65386594Y-75772970D01*
X65526808Y-75510648D01*
X65613151Y-75226012D01*
X65642306Y-74930000D01*
X65613151Y-74633988D01*
X65526808Y-74349352D01*
X65386594Y-74087030D01*
X65197897Y-73857103D01*
X64967970Y-73668406D01*
X64952243Y-73660000D01*
X64967970Y-73651594D01*
X65197897Y-73462897D01*
X65386594Y-73232970D01*
X65526808Y-72970648D01*
X65613151Y-72686012D01*
X65642306Y-72390000D01*
X65613151Y-72093988D01*
X65526808Y-71809352D01*
X65386594Y-71547030D01*
X65197897Y-71317103D01*
X64967970Y-71128406D01*
X64952243Y-71120000D01*
X64967970Y-71111594D01*
X65197897Y-70922897D01*
X65386594Y-70692970D01*
X65526808Y-70430648D01*
X65613151Y-70146012D01*
X65642306Y-69850000D01*
X65613151Y-69553988D01*
X65526808Y-69269352D01*
X65386594Y-69007030D01*
X65197897Y-68777103D01*
X64967970Y-68588406D01*
X64952243Y-68580000D01*
X64967970Y-68571594D01*
X65197897Y-68382897D01*
X65386594Y-68152970D01*
X65526808Y-67890648D01*
X65613151Y-67606012D01*
X65642306Y-67310000D01*
X65613151Y-67013988D01*
X65526808Y-66729352D01*
X65386594Y-66467030D01*
X65197897Y-66237103D01*
X64967970Y-66048406D01*
X64952243Y-66040000D01*
X64967970Y-66031594D01*
X65197897Y-65842897D01*
X65386594Y-65612970D01*
X65526808Y-65350648D01*
X65613151Y-65066012D01*
X65642306Y-64770000D01*
X65613151Y-64473988D01*
X65526808Y-64189352D01*
X65386594Y-63927030D01*
X65197897Y-63697103D01*
X64967970Y-63508406D01*
X64952243Y-63500000D01*
X64967970Y-63491594D01*
X65197897Y-63302897D01*
X65386594Y-63072970D01*
X65526808Y-62810648D01*
X65613151Y-62526012D01*
X65642306Y-62230000D01*
X65613151Y-61933988D01*
X65526808Y-61649352D01*
X65386594Y-61387030D01*
X65197897Y-61157103D01*
X64967970Y-60968406D01*
X64952243Y-60960000D01*
X64967970Y-60951594D01*
X65197897Y-60762897D01*
X65386594Y-60532970D01*
X65526808Y-60270648D01*
X65613151Y-59986012D01*
X65642306Y-59690000D01*
X65613151Y-59393988D01*
X65526808Y-59109352D01*
X65386594Y-58847030D01*
X65197897Y-58617103D01*
X65097855Y-58535000D01*
X69781971Y-58535000D01*
X69850000Y-58541700D01*
X69918029Y-58535000D01*
X69918037Y-58535000D01*
X70121507Y-58514960D01*
X70382581Y-58435764D01*
X70623188Y-58307157D01*
X70834081Y-58134081D01*
X70877454Y-58081231D01*
X85663686Y-43295000D01*
X103566315Y-43295000D01*
X104025001Y-43753686D01*
X104025000Y-44482907D01*
X104008192Y-44514353D01*
X103921849Y-44798989D01*
X103900000Y-45020823D01*
X103900000Y-46419178D01*
X103921849Y-46641012D01*
X104008192Y-46925648D01*
X104148407Y-47187970D01*
X104337104Y-47417897D01*
X104567031Y-47606594D01*
X104829353Y-47746808D01*
X105113989Y-47833151D01*
X105410000Y-47862306D01*
X105706012Y-47833151D01*
X105990648Y-47746808D01*
X106252970Y-47606594D01*
X106482897Y-47417897D01*
X106671594Y-47187970D01*
X106811808Y-46925648D01*
X106898151Y-46641012D01*
X106920000Y-46419178D01*
X106920000Y-45020822D01*
X106898151Y-44798988D01*
X106811808Y-44514352D01*
X106795000Y-44482906D01*
X106795000Y-43753685D01*
X111063686Y-39485000D01*
X130034184Y-39485000D01*
X129983960Y-39526217D01*
X129927114Y-39564201D01*
X129878769Y-39612546D01*
X129825919Y-39655919D01*
X129782546Y-39708769D01*
X129734201Y-39757114D01*
X129696217Y-39813960D01*
X129652843Y-39866812D01*
X129620613Y-39927110D01*
X129582629Y-39983957D01*
X129556465Y-40047123D01*
X129524236Y-40107419D01*
X129504389Y-40172845D01*
X129478225Y-40236011D01*
X129464886Y-40303068D01*
X129445040Y-40368493D01*
X129438339Y-40436530D01*
X129425000Y-40503589D01*
X129425000Y-40571963D01*
X129418299Y-40640000D01*
X129425000Y-40708037D01*
X129425000Y-40776411D01*
X129438339Y-40843470D01*
X129445040Y-40911507D01*
X129464886Y-40976932D01*
X129478225Y-41043989D01*
X129504389Y-41107155D01*
X129524236Y-41172581D01*
X129556465Y-41232877D01*
X129582629Y-41296043D01*
X129620613Y-41352890D01*
X129652843Y-41413188D01*
X129696217Y-41466040D01*
X129734201Y-41522886D01*
X129782546Y-41571231D01*
X129825919Y-41624081D01*
X129878769Y-41667454D01*
X129927114Y-41715799D01*
X129983960Y-41753783D01*
X130036812Y-41797157D01*
X130097110Y-41829387D01*
X130153957Y-41867371D01*
X130217123Y-41893535D01*
X130277419Y-41925764D01*
X130342845Y-41945611D01*
X130406011Y-41971775D01*
X130473068Y-41985114D01*
X130538493Y-42004960D01*
X130606530Y-42011661D01*
X130673589Y-42025000D01*
X137856315Y-42025000D01*
X138315001Y-42483687D01*
X138315000Y-44444184D01*
X138144080Y-44235919D01*
X137933187Y-44062843D01*
X137692580Y-43934236D01*
X137431506Y-43855040D01*
X137160000Y-43828299D01*
X136888493Y-43855040D01*
X136627419Y-43934236D01*
X136386812Y-44062843D01*
X136175919Y-44235920D01*
X136002843Y-44446813D01*
X135890000Y-44657927D01*
X135777157Y-44446812D01*
X135604080Y-44235919D01*
X135393187Y-44062843D01*
X135152580Y-43934236D01*
X134891506Y-43855040D01*
X134620000Y-43828299D01*
X134348493Y-43855040D01*
X134087419Y-43934236D01*
X133846812Y-44062843D01*
X133635919Y-44235920D01*
X133462843Y-44446813D01*
X133350000Y-44657927D01*
X133237157Y-44446812D01*
X133064080Y-44235919D01*
X132853187Y-44062843D01*
X132612580Y-43934236D01*
X132351506Y-43855040D01*
X132080000Y-43828299D01*
X131808493Y-43855040D01*
X131547419Y-43934236D01*
X131306812Y-44062843D01*
X131095919Y-44235920D01*
X130922843Y-44446813D01*
X130794236Y-44687420D01*
X130715040Y-44948494D01*
X130695000Y-45151964D01*
X130695000Y-45651964D01*
X130695001Y-50226313D01*
X126426315Y-54495000D01*
X119448026Y-54495000D01*
X119379999Y-54488300D01*
X119311972Y-54495000D01*
X119311963Y-54495000D01*
X119108493Y-54515040D01*
X118847419Y-54594236D01*
X118606812Y-54722843D01*
X118606810Y-54722844D01*
X118606811Y-54722844D01*
X118448766Y-54852548D01*
X118448765Y-54852549D01*
X118395919Y-54895919D01*
X118352550Y-54948764D01*
X99756315Y-73545000D01*
X90437094Y-73545000D01*
X90405648Y-73528192D01*
X90121012Y-73441849D01*
X89899178Y-73420000D01*
X88500822Y-73420000D01*
X88278988Y-73441849D01*
X87994352Y-73528192D01*
X87732030Y-73668406D01*
X87502103Y-73857103D01*
X87313406Y-74087030D01*
X87173192Y-74349352D01*
X87086849Y-74633988D01*
X87057694Y-74930000D01*
X87086849Y-75226012D01*
X87173192Y-75510648D01*
X87313406Y-75772970D01*
X87502103Y-76002897D01*
X87732030Y-76191594D01*
X87747757Y-76200000D01*
X87732030Y-76208406D01*
X87502103Y-76397103D01*
X87313406Y-76627030D01*
X87173192Y-76889352D01*
X87086849Y-77173988D01*
X87057694Y-77470000D01*
X87086849Y-77766012D01*
X87173192Y-78050648D01*
X87313406Y-78312970D01*
X87502103Y-78542897D01*
X87732030Y-78731594D01*
X87747757Y-78740000D01*
X87732030Y-78748406D01*
X87502103Y-78937103D01*
X87313406Y-79167030D01*
X87173192Y-79429352D01*
X87086849Y-79713988D01*
X87057694Y-80010000D01*
X87086849Y-80306012D01*
X87173192Y-80590648D01*
X87313406Y-80852970D01*
X87502103Y-81082897D01*
X87602145Y-81165000D01*
X86428029Y-81165000D01*
X86360000Y-81158300D01*
X86291971Y-81165000D01*
X86291963Y-81165000D01*
X86088493Y-81185040D01*
X85827419Y-81264236D01*
X85586812Y-81392843D01*
X85428766Y-81522548D01*
X85428764Y-81522550D01*
X85375919Y-81565919D01*
X85332550Y-81618764D01*
X81618765Y-85332550D01*
X81565919Y-85375920D01*
X81392843Y-85586813D01*
X81264236Y-85827420D01*
X81185040Y-86088494D01*
X81165000Y-86291964D01*
X81165000Y-86291971D01*
X81158300Y-86360000D01*
X81165000Y-86428029D01*
X81165001Y-120076314D01*
X79436315Y-121805000D01*
X79067855Y-121805000D01*
X79167897Y-121722897D01*
X79356594Y-121492970D01*
X79496808Y-121230648D01*
X79583151Y-120946012D01*
X79612306Y-120650000D01*
X79583151Y-120353988D01*
X79496808Y-120069352D01*
X79356594Y-119807030D01*
X79167897Y-119577103D01*
X78937970Y-119388406D01*
X78675648Y-119248192D01*
X78391012Y-119161849D01*
X78169178Y-119140000D01*
X76770822Y-119140000D01*
X76548988Y-119161849D01*
X76264352Y-119248192D01*
X76002030Y-119388406D01*
X75772103Y-119577103D01*
X75583406Y-119807030D01*
X75443192Y-120069352D01*
X75356849Y-120353988D01*
X75327694Y-120650000D01*
X75356849Y-120946012D01*
X75443192Y-121230648D01*
X75583406Y-121492970D01*
X75772103Y-121722897D01*
X76002030Y-121911594D01*
X76017757Y-121920000D01*
X76002030Y-121928406D01*
X75772103Y-122117103D01*
X75583406Y-122347030D01*
X75443192Y-122609352D01*
X75356849Y-122893988D01*
X75327694Y-123190000D01*
X75356849Y-123486012D01*
X75443192Y-123770648D01*
X75583406Y-124032970D01*
X75772103Y-124262897D01*
X76002030Y-124451594D01*
X76017757Y-124460000D01*
X76002030Y-124468406D01*
X75772103Y-124657103D01*
X75583406Y-124887030D01*
X75443192Y-125149352D01*
X75356849Y-125433988D01*
X75327694Y-125730000D01*
X75356849Y-126026012D01*
X75443192Y-126310648D01*
X75583406Y-126572970D01*
X75772103Y-126802897D01*
X76002030Y-126991594D01*
X76264352Y-127131808D01*
X76548988Y-127218151D01*
X76770822Y-127240000D01*
X78169178Y-127240000D01*
X78391012Y-127218151D01*
X78675648Y-127131808D01*
X78707094Y-127115000D01*
X81211971Y-127115000D01*
X81280000Y-127121700D01*
X81348029Y-127115000D01*
X81348037Y-127115000D01*
X81551507Y-127094960D01*
X81812581Y-127015764D01*
X82053188Y-126887157D01*
X82264081Y-126714081D01*
X82307454Y-126661231D01*
X86021236Y-122947450D01*
X86074081Y-122904081D01*
X86247157Y-122693188D01*
X86375764Y-122452581D01*
X86454960Y-122191507D01*
X86475000Y-121988037D01*
X86475000Y-121988029D01*
X86481700Y-121920000D01*
X86475000Y-121851971D01*
X86475000Y-88203685D01*
X87058678Y-87620007D01*
X87057694Y-87630000D01*
X87086849Y-87926012D01*
X87173192Y-88210648D01*
X87313406Y-88472970D01*
X87502103Y-88702897D01*
X87732030Y-88891594D01*
X87747757Y-88900000D01*
X87732030Y-88908406D01*
X87502103Y-89097103D01*
X87313406Y-89327030D01*
X87173192Y-89589352D01*
X87086849Y-89873988D01*
X87057694Y-90170000D01*
X87086849Y-90466012D01*
X87173192Y-90750648D01*
X87313406Y-91012970D01*
X87502103Y-91242897D01*
X87732030Y-91431594D01*
X87747757Y-91440000D01*
X87732030Y-91448406D01*
X87502103Y-91637103D01*
X87313406Y-91867030D01*
X87173192Y-92129352D01*
X87086849Y-92413988D01*
X87057694Y-92710000D01*
X87086849Y-93006012D01*
X87173192Y-93290648D01*
X87313406Y-93552970D01*
X87502103Y-93782897D01*
X87732030Y-93971594D01*
X87747757Y-93980000D01*
X87732030Y-93988406D01*
X87502103Y-94177103D01*
X87313406Y-94407030D01*
X87173192Y-94669352D01*
X87086849Y-94953988D01*
X87057694Y-95250000D01*
X87086849Y-95546012D01*
X87173192Y-95830648D01*
X87313406Y-96092970D01*
X87502103Y-96322897D01*
X87732030Y-96511594D01*
X87747757Y-96520000D01*
X87732030Y-96528406D01*
X87502103Y-96717103D01*
X87313406Y-96947030D01*
X87173192Y-97209352D01*
X87086849Y-97493988D01*
X87057694Y-97790000D01*
X87086849Y-98086012D01*
X87173192Y-98370648D01*
X87313406Y-98632970D01*
X87502103Y-98862897D01*
X87732030Y-99051594D01*
X87747757Y-99060000D01*
X87732030Y-99068406D01*
X87502103Y-99257103D01*
X87313406Y-99487030D01*
X87173192Y-99749352D01*
X87086849Y-100033988D01*
X87057694Y-100330000D01*
X87086849Y-100626012D01*
X87173192Y-100910648D01*
X87313406Y-101172970D01*
X87502103Y-101402897D01*
X87732030Y-101591594D01*
X87747757Y-101600000D01*
X87732030Y-101608406D01*
X87502103Y-101797103D01*
X87313406Y-102027030D01*
X87173192Y-102289352D01*
X87086849Y-102573988D01*
X87057694Y-102870000D01*
X87086849Y-103166012D01*
X87173192Y-103450648D01*
X87313406Y-103712970D01*
X87502103Y-103942897D01*
X87732030Y-104131594D01*
X87994352Y-104271808D01*
X88278988Y-104358151D01*
X88500822Y-104380000D01*
X89899178Y-104380000D01*
X90121012Y-104358151D01*
X90405648Y-104271808D01*
X90667970Y-104131594D01*
X90897897Y-103942897D01*
X91086594Y-103712970D01*
X91226808Y-103450648D01*
X91313151Y-103166012D01*
X91342306Y-102870000D01*
X91313151Y-102573988D01*
X91226808Y-102289352D01*
X91086594Y-102027030D01*
X90897897Y-101797103D01*
X90667970Y-101608406D01*
X90652243Y-101600000D01*
X90667970Y-101591594D01*
X90897897Y-101402897D01*
X91086594Y-101172970D01*
X91226808Y-100910648D01*
X91313151Y-100626012D01*
X91342306Y-100330000D01*
X91313151Y-100033988D01*
X91226808Y-99749352D01*
X91086594Y-99487030D01*
X90897897Y-99257103D01*
X90667970Y-99068406D01*
X90652243Y-99060000D01*
X90667970Y-99051594D01*
X90897897Y-98862897D01*
X91086594Y-98632970D01*
X91226808Y-98370648D01*
X91313151Y-98086012D01*
X91342306Y-97790000D01*
X91313151Y-97493988D01*
X91226808Y-97209352D01*
X91086594Y-96947030D01*
X90897897Y-96717103D01*
X90667970Y-96528406D01*
X90652243Y-96520000D01*
X90667970Y-96511594D01*
X90897897Y-96322897D01*
X91086594Y-96092970D01*
X91226808Y-95830648D01*
X91313151Y-95546012D01*
X91342306Y-95250000D01*
X91313151Y-94953988D01*
X91226808Y-94669352D01*
X91086594Y-94407030D01*
X90897897Y-94177103D01*
X90667970Y-93988406D01*
X90652243Y-93980000D01*
X90667970Y-93971594D01*
X90897897Y-93782897D01*
X91086594Y-93552970D01*
X91226808Y-93290648D01*
X91313151Y-93006012D01*
X91342306Y-92710000D01*
X91313151Y-92413988D01*
X91226808Y-92129352D01*
X91086594Y-91867030D01*
X90897897Y-91637103D01*
X90667970Y-91448406D01*
X90652243Y-91440000D01*
X90667970Y-91431594D01*
X90897897Y-91242897D01*
X91086594Y-91012970D01*
X91226808Y-90750648D01*
X91313151Y-90466012D01*
X91342306Y-90170000D01*
X91313151Y-89873988D01*
X91226808Y-89589352D01*
X91086594Y-89327030D01*
X90897897Y-89097103D01*
X90667970Y-88908406D01*
X90652243Y-88900000D01*
X90667970Y-88891594D01*
X90897897Y-88702897D01*
X91086594Y-88472970D01*
X91226808Y-88210648D01*
X91313151Y-87926012D01*
X91342306Y-87630000D01*
X91313151Y-87333988D01*
X91226808Y-87049352D01*
X91086594Y-86787030D01*
X90897897Y-86557103D01*
X90667970Y-86368406D01*
X90652243Y-86360000D01*
X90667970Y-86351594D01*
X90897897Y-86162897D01*
X91086594Y-85932970D01*
X91226808Y-85670648D01*
X91313151Y-85386012D01*
X91342306Y-85090000D01*
X91313151Y-84793988D01*
X91226808Y-84509352D01*
X91086594Y-84247030D01*
X90897897Y-84017103D01*
X90667970Y-83828406D01*
X90652243Y-83820000D01*
X90667970Y-83811594D01*
X90897897Y-83622897D01*
X91086594Y-83392970D01*
X91226808Y-83130648D01*
X91313151Y-82846012D01*
X91342306Y-82550000D01*
X91313151Y-82253988D01*
X91226808Y-81969352D01*
X91086594Y-81707030D01*
X90897897Y-81477103D01*
X90667970Y-81288406D01*
X90652243Y-81280000D01*
X90667970Y-81271594D01*
X90897897Y-81082897D01*
X91086594Y-80852970D01*
X91226808Y-80590648D01*
X91313151Y-80306012D01*
X91342306Y-80010000D01*
X91313151Y-79713988D01*
X91226808Y-79429352D01*
X91086594Y-79167030D01*
X90897897Y-78937103D01*
X90667970Y-78748406D01*
X90652243Y-78740000D01*
X90667970Y-78731594D01*
X90897897Y-78542897D01*
X91086594Y-78312970D01*
X91226808Y-78050648D01*
X91313151Y-77766012D01*
X91342306Y-77470000D01*
X91313151Y-77173988D01*
X91226808Y-76889352D01*
X91086594Y-76627030D01*
X90897897Y-76397103D01*
X90797855Y-76315000D01*
X100261971Y-76315000D01*
X100330000Y-76321700D01*
X100398029Y-76315000D01*
X100398037Y-76315000D01*
X100601507Y-76294960D01*
X100862581Y-76215764D01*
X100933408Y-76177906D01*
X93048767Y-84062548D01*
X92995919Y-84105920D01*
X92822843Y-84316813D01*
X92694236Y-84557420D01*
X92615040Y-84818494D01*
X92595000Y-85021964D01*
X92595000Y-85021971D01*
X92588300Y-85090000D01*
X92595000Y-85158029D01*
X92595001Y-100193584D01*
X92595000Y-100193589D01*
X92595000Y-100466411D01*
X92608341Y-100533480D01*
X92615041Y-100601507D01*
X92634884Y-100666922D01*
X92648225Y-100733989D01*
X92674393Y-100797165D01*
X92694237Y-100862581D01*
X92726461Y-100922869D01*
X92752629Y-100986043D01*
X92790618Y-101042898D01*
X92822844Y-101103188D01*
X92866213Y-101156033D01*
X92904201Y-101212886D01*
X92952551Y-101261236D01*
X92995920Y-101314081D01*
X93048765Y-101357450D01*
X93097114Y-101405799D01*
X93153966Y-101443786D01*
X93206813Y-101487157D01*
X93267106Y-101519384D01*
X93323957Y-101557371D01*
X93387128Y-101583537D01*
X93447420Y-101615764D01*
X93512842Y-101635609D01*
X93576011Y-101661775D01*
X93643071Y-101675114D01*
X93708494Y-101694960D01*
X93776529Y-101701661D01*
X93843589Y-101715000D01*
X93911964Y-101715000D01*
X93980000Y-101721701D01*
X94048037Y-101715000D01*
X94116411Y-101715000D01*
X94183470Y-101701661D01*
X94251507Y-101694960D01*
X94316932Y-101675114D01*
X94383989Y-101661775D01*
X94447155Y-101635611D01*
X94512581Y-101615764D01*
X94572877Y-101583535D01*
X94636043Y-101557371D01*
X94692890Y-101519387D01*
X94753188Y-101487157D01*
X94806040Y-101443783D01*
X94862886Y-101405799D01*
X94911231Y-101357454D01*
X94964081Y-101314081D01*
X95007454Y-101261231D01*
X95055799Y-101212886D01*
X95093783Y-101156040D01*
X95137157Y-101103188D01*
X95169387Y-101042890D01*
X95207371Y-100986043D01*
X95233535Y-100922877D01*
X95250001Y-100892072D01*
X95266461Y-100922869D01*
X95292629Y-100986043D01*
X95330618Y-101042898D01*
X95362844Y-101103188D01*
X95406213Y-101156033D01*
X95444201Y-101212886D01*
X95492551Y-101261236D01*
X95535920Y-101314081D01*
X95588765Y-101357450D01*
X95637114Y-101405799D01*
X95693966Y-101443786D01*
X95746813Y-101487157D01*
X95807106Y-101519384D01*
X95863957Y-101557371D01*
X95927128Y-101583537D01*
X95987420Y-101615764D01*
X96052842Y-101635609D01*
X96116011Y-101661775D01*
X96183071Y-101675114D01*
X96248494Y-101694960D01*
X96316529Y-101701661D01*
X96383589Y-101715000D01*
X96451964Y-101715000D01*
X96520000Y-101721701D01*
X96588037Y-101715000D01*
X96656411Y-101715000D01*
X96723470Y-101701661D01*
X96791507Y-101694960D01*
X96856932Y-101675114D01*
X96923989Y-101661775D01*
X96987155Y-101635611D01*
X97052581Y-101615764D01*
X97112877Y-101583535D01*
X97176043Y-101557371D01*
X97232890Y-101519387D01*
X97293188Y-101487157D01*
X97346040Y-101443783D01*
X97402886Y-101405799D01*
X97451231Y-101357454D01*
X97504081Y-101314081D01*
X97547454Y-101261231D01*
X97595799Y-101212886D01*
X97633783Y-101156040D01*
X97677157Y-101103188D01*
X97709387Y-101042890D01*
X97747371Y-100986043D01*
X97773535Y-100922877D01*
X97805764Y-100862581D01*
X97825611Y-100797155D01*
X97851775Y-100733989D01*
X97865114Y-100666932D01*
X97884960Y-100601507D01*
X97891661Y-100533470D01*
X97905000Y-100466411D01*
X97905000Y-86933685D01*
X105983686Y-78855000D01*
X109772907Y-78855000D01*
X109804353Y-78871808D01*
X110088989Y-78958151D01*
X110310823Y-78980000D01*
X111709179Y-78980000D01*
X111931013Y-78958151D01*
X112215649Y-78871808D01*
X112477971Y-78731594D01*
X112707898Y-78542897D01*
X112896595Y-78312970D01*
X113036809Y-78050648D01*
X113123152Y-77766012D01*
X113152307Y-77470000D01*
X113123152Y-77173988D01*
X113036809Y-76889352D01*
X112896595Y-76627030D01*
X112707898Y-76397103D01*
X112477971Y-76208406D01*
X112462244Y-76200000D01*
X112477971Y-76191594D01*
X112707898Y-76002897D01*
X112896595Y-75772970D01*
X113036809Y-75510648D01*
X113123152Y-75226012D01*
X113152307Y-74930000D01*
X113123152Y-74633988D01*
X113036809Y-74349352D01*
X112896595Y-74087030D01*
X112707898Y-73857103D01*
X112477971Y-73668406D01*
X112215649Y-73528192D01*
X111931013Y-73441849D01*
X111709179Y-73420000D01*
X110310823Y-73420000D01*
X110088989Y-73441849D01*
X109804353Y-73528192D01*
X109772907Y-73545000D01*
X104208029Y-73545000D01*
X104140000Y-73538300D01*
X104071971Y-73545000D01*
X104071963Y-73545000D01*
X103868493Y-73565040D01*
X103607419Y-73644236D01*
X103536591Y-73682095D01*
X114322095Y-62896591D01*
X114284236Y-62967420D01*
X114205040Y-63228494D01*
X114185000Y-63431964D01*
X114185000Y-63431971D01*
X114178300Y-63500000D01*
X114185000Y-63568029D01*
X114185001Y-80706313D01*
X113726315Y-81165000D01*
X112247095Y-81165000D01*
X112215649Y-81148192D01*
X111931013Y-81061849D01*
X111709179Y-81040000D01*
X110310823Y-81040000D01*
X110088989Y-81061849D01*
X109804353Y-81148192D01*
X109772907Y-81165000D01*
X106748029Y-81165000D01*
X106680000Y-81158300D01*
X106611971Y-81165000D01*
X106611963Y-81165000D01*
X106431892Y-81182735D01*
X106408492Y-81185040D01*
X106147419Y-81264236D01*
X105906812Y-81392843D01*
X105804141Y-81477103D01*
X105748766Y-81522548D01*
X105748764Y-81522550D01*
X105695919Y-81565919D01*
X105652550Y-81618764D01*
X100668764Y-86602551D01*
X100615920Y-86645919D01*
X100572551Y-86698764D01*
X100572548Y-86698767D01*
X100442844Y-86856812D01*
X100314236Y-87097420D01*
X100235040Y-87358493D01*
X100208300Y-87630000D01*
X100215001Y-87698039D01*
X100215000Y-95181971D01*
X100208300Y-95250000D01*
X100215000Y-95318029D01*
X100215000Y-95318036D01*
X100235040Y-95521506D01*
X100314236Y-95782580D01*
X100442843Y-96023187D01*
X100615919Y-96234080D01*
X100668765Y-96277450D01*
X108531314Y-104140000D01*
X80706315Y-131965000D01*
X79067855Y-131965000D01*
X79167897Y-131882897D01*
X79356594Y-131652970D01*
X79496808Y-131390648D01*
X79583151Y-131106012D01*
X79612306Y-130810000D01*
X79583151Y-130513988D01*
X79496808Y-130229352D01*
X79356594Y-129967030D01*
X79167897Y-129737103D01*
X78937970Y-129548406D01*
X78675648Y-129408192D01*
X78391012Y-129321849D01*
X78169178Y-129300000D01*
X76770822Y-129300000D01*
X76548988Y-129321849D01*
X76264352Y-129408192D01*
X76002030Y-129548406D01*
X75772103Y-129737103D01*
X75583406Y-129967030D01*
X75443192Y-130229352D01*
X75356849Y-130513988D01*
X75327694Y-130810000D01*
X75356849Y-131106012D01*
X75443192Y-131390648D01*
X75583406Y-131652970D01*
X75772103Y-131882897D01*
X75872145Y-131965000D01*
X72963685Y-131965000D01*
X70877454Y-129878769D01*
X70834081Y-129825919D01*
X70623188Y-129652843D01*
X70382581Y-129524236D01*
X70121507Y-129445040D01*
X69918037Y-129425000D01*
X69918029Y-129425000D01*
X69850000Y-129418300D01*
X69781971Y-129425000D01*
X66367855Y-129425000D01*
X66467897Y-129342897D01*
X66656594Y-129112970D01*
X66796808Y-128850648D01*
X66883151Y-128566012D01*
X66912306Y-128270000D01*
X66883151Y-127973988D01*
X66796808Y-127689352D01*
X66656594Y-127427030D01*
X66467897Y-127197103D01*
X66237970Y-127008406D01*
X66222243Y-127000000D01*
X66237970Y-126991594D01*
X66467897Y-126802897D01*
X66656594Y-126572970D01*
X66796808Y-126310648D01*
X66883151Y-126026012D01*
X66912306Y-125730000D01*
X66883151Y-125433988D01*
X66796808Y-125149352D01*
X66656594Y-124887030D01*
X66467897Y-124657103D01*
X66237970Y-124468406D01*
X66222243Y-124460000D01*
X66237970Y-124451594D01*
X66467897Y-124262897D01*
X66656594Y-124032970D01*
X66796808Y-123770648D01*
X66883151Y-123486012D01*
X66912306Y-123190000D01*
X66883151Y-122893988D01*
X66796808Y-122609352D01*
X66656594Y-122347030D01*
X66467897Y-122117103D01*
X66237970Y-121928406D01*
X66222243Y-121920000D01*
X66237970Y-121911594D01*
X66467897Y-121722897D01*
X66656594Y-121492970D01*
X66796808Y-121230648D01*
X66883151Y-120946012D01*
X66912306Y-120650000D01*
X66883151Y-120353988D01*
X66796808Y-120069352D01*
X66656594Y-119807030D01*
X66467897Y-119577103D01*
X66237970Y-119388406D01*
X65975648Y-119248192D01*
X65691012Y-119161849D01*
X65469178Y-119140000D01*
X64070822Y-119140000D01*
X63848988Y-119161849D01*
X63564352Y-119248192D01*
X63302030Y-119388406D01*
X63072103Y-119577103D01*
X62883406Y-119807030D01*
X62743192Y-120069352D01*
X62656849Y-120353988D01*
X62627694Y-120650000D01*
X62656849Y-120946012D01*
X62743192Y-121230648D01*
X62883406Y-121492970D01*
X63072103Y-121722897D01*
X63302030Y-121911594D01*
X63317757Y-121920000D01*
X63302030Y-121928406D01*
X63072103Y-122117103D01*
X62883406Y-122347030D01*
X62743192Y-122609352D01*
X62656849Y-122893988D01*
X62627694Y-123190000D01*
X62656849Y-123486012D01*
X62743192Y-123770648D01*
X62883406Y-124032970D01*
X63072103Y-124262897D01*
X63302030Y-124451594D01*
X63317757Y-124460000D01*
X63302030Y-124468406D01*
X63072103Y-124657103D01*
X62883406Y-124887030D01*
X62743192Y-125149352D01*
X62656849Y-125433988D01*
X62627694Y-125730000D01*
X62656849Y-126026012D01*
X62743192Y-126310648D01*
X62883406Y-126572970D01*
X63072103Y-126802897D01*
X63302030Y-126991594D01*
X63317757Y-127000000D01*
X63302030Y-127008406D01*
X63072103Y-127197103D01*
X62883406Y-127427030D01*
X62743192Y-127689352D01*
X62656849Y-127973988D01*
X62627694Y-128270000D01*
X62656849Y-128566012D01*
X62743192Y-128850648D01*
X62883406Y-129112970D01*
X63072103Y-129342897D01*
X63172145Y-129425000D01*
X58993686Y-129425000D01*
X55995000Y-126426315D01*
X55995000Y-108523685D01*
X60263686Y-104255000D01*
X62262906Y-104255000D01*
X62294352Y-104271808D01*
X62578988Y-104358151D01*
X62800822Y-104380000D01*
X64199178Y-104380000D01*
X64421012Y-104358151D01*
X64705648Y-104271808D01*
X64967970Y-104131594D01*
X65197897Y-103942897D01*
X65386594Y-103712970D01*
X65526808Y-103450648D01*
X65613151Y-103166012D01*
X65642306Y-102870000D01*
X65613151Y-102573988D01*
X65526808Y-102289352D01*
X65386594Y-102027030D01*
X65197897Y-101797103D01*
X64967970Y-101608406D01*
X64952243Y-101600000D01*
X64967970Y-101591594D01*
X65197897Y-101402897D01*
X65386594Y-101172970D01*
X65526808Y-100910648D01*
X65613151Y-100626012D01*
X65642306Y-100330000D01*
X65613151Y-100033988D01*
X65526808Y-99749352D01*
X65386594Y-99487030D01*
X65197897Y-99257103D01*
X64967970Y-99068406D01*
X64952243Y-99060000D01*
X64967970Y-99051594D01*
X65197897Y-98862897D01*
X65386594Y-98632970D01*
X65526808Y-98370648D01*
X65613151Y-98086012D01*
X65642306Y-97790000D01*
X65613151Y-97493988D01*
X65526808Y-97209352D01*
X65386594Y-96947030D01*
X65197897Y-96717103D01*
X64967970Y-96528406D01*
X64952243Y-96520000D01*
X64967970Y-96511594D01*
X65197897Y-96322897D01*
X65386594Y-96092970D01*
X65526808Y-95830648D01*
X65613151Y-95546012D01*
X65642306Y-95250000D01*
X65613151Y-94953988D01*
X65526808Y-94669352D01*
X65386594Y-94407030D01*
X65197897Y-94177103D01*
X64967970Y-93988406D01*
X64952243Y-93980000D01*
X64967970Y-93971594D01*
X65197897Y-93782897D01*
X65386594Y-93552970D01*
X65526808Y-93290648D01*
X65613151Y-93006012D01*
X65642306Y-92710000D01*
X65613151Y-92413988D01*
X65526808Y-92129352D01*
X65386594Y-91867030D01*
X65197897Y-91637103D01*
X64967970Y-91448406D01*
X64705648Y-91308192D01*
X64421012Y-91221849D01*
X64199178Y-91200000D01*
X62800822Y-91200000D01*
X62578988Y-91221849D01*
X62294352Y-91308192D01*
X62032030Y-91448406D01*
X61802103Y-91637103D01*
X61613406Y-91867030D01*
X61473192Y-92129352D01*
X61386849Y-92413988D01*
X61357694Y-92710000D01*
X61386849Y-93006012D01*
X61473192Y-93290648D01*
X61613406Y-93552970D01*
X61802103Y-93782897D01*
X62032030Y-93971594D01*
X62047757Y-93980000D01*
X62032030Y-93988406D01*
X61802103Y-94177103D01*
X61613406Y-94407030D01*
X61473192Y-94669352D01*
X61386849Y-94953988D01*
X61357694Y-95250000D01*
X61386849Y-95546012D01*
X61473192Y-95830648D01*
X61613406Y-96092970D01*
X61802103Y-96322897D01*
X62032030Y-96511594D01*
X62047757Y-96520000D01*
X62032030Y-96528406D01*
X61802103Y-96717103D01*
X61613406Y-96947030D01*
X61473192Y-97209352D01*
X61386849Y-97493988D01*
X61357694Y-97790000D01*
X61386849Y-98086012D01*
X61473192Y-98370648D01*
X61613406Y-98632970D01*
X61802103Y-98862897D01*
X62032030Y-99051594D01*
X62047757Y-99060000D01*
X62032030Y-99068406D01*
X61802103Y-99257103D01*
X61613406Y-99487030D01*
X61473192Y-99749352D01*
X61386849Y-100033988D01*
X61357694Y-100330000D01*
X61386849Y-100626012D01*
X61473192Y-100910648D01*
X61613406Y-101172970D01*
X61802103Y-101402897D01*
X61902145Y-101485000D01*
X59758029Y-101485000D01*
X59690000Y-101478300D01*
X59621971Y-101485000D01*
X59621963Y-101485000D01*
X59441892Y-101502735D01*
X59418492Y-101505040D01*
X59245981Y-101557371D01*
X59157419Y-101584236D01*
X58916812Y-101712843D01*
X58814141Y-101797103D01*
X58758766Y-101842548D01*
X58758764Y-101842550D01*
X58705919Y-101885919D01*
X58662550Y-101938764D01*
X53678765Y-106922550D01*
X53625919Y-106965920D01*
X53452843Y-107176813D01*
X53324236Y-107417420D01*
X53245040Y-107678494D01*
X53225000Y-107881964D01*
X53225000Y-107881971D01*
X53218300Y-107950000D01*
X53225000Y-108018029D01*
X53225001Y-126931961D01*
X53218300Y-127000000D01*
X53245040Y-127271507D01*
X53324236Y-127532580D01*
X53452844Y-127773188D01*
X53582548Y-127931233D01*
X53582551Y-127931236D01*
X53625920Y-127984081D01*
X53678764Y-128027449D01*
X57392548Y-131741234D01*
X57435919Y-131794081D01*
X57488764Y-131837450D01*
X57488766Y-131837452D01*
X57544141Y-131882897D01*
X57646812Y-131967157D01*
X57887419Y-132095764D01*
X58148493Y-132174960D01*
X58351963Y-132195000D01*
X58351971Y-132195000D01*
X58420000Y-132201700D01*
X58488029Y-132195000D01*
X63532906Y-132195000D01*
X63564352Y-132211808D01*
X63848988Y-132298151D01*
X64070822Y-132320000D01*
X65469178Y-132320000D01*
X65691012Y-132298151D01*
X65975648Y-132211808D01*
X66007094Y-132195000D01*
X69276315Y-132195000D01*
X71362546Y-134281231D01*
X71405919Y-134334081D01*
X71616812Y-134507157D01*
X71857419Y-134635764D01*
X72118493Y-134714960D01*
X72321963Y-134735000D01*
X72321972Y-134735000D01*
X72389999Y-134741700D01*
X72458026Y-134735000D01*
X81211971Y-134735000D01*
X81280000Y-134741700D01*
X81348029Y-134735000D01*
X81348037Y-134735000D01*
X81551507Y-134714960D01*
X81812581Y-134635764D01*
X82053188Y-134507157D01*
X82264081Y-134334081D01*
X82307454Y-134281231D01*
X111063686Y-105525000D01*
X134046315Y-105525000D01*
X138315001Y-109793687D01*
X138315000Y-114902538D01*
X138223989Y-115122257D01*
X138165000Y-115418816D01*
X138165000Y-115721184D01*
X138223989Y-116017743D01*
X138339701Y-116297095D01*
X138507688Y-116548505D01*
X138721495Y-116762312D01*
X138972905Y-116930299D01*
X139252257Y-117046011D01*
X139548816Y-117105000D01*
X139851184Y-117105000D01*
X140147743Y-117046011D01*
X140427095Y-116930299D01*
X140614618Y-116805000D01*
X155000665Y-116805000D01*
X155182102Y-116787130D01*
X155414901Y-116716511D01*
X155436437Y-116705000D01*
X155495752Y-116705000D01*
X155662499Y-116688577D01*
X155876447Y-116623676D01*
X156073623Y-116518284D01*
X156246449Y-116376449D01*
X156388284Y-116203623D01*
X156493676Y-116006447D01*
X156558577Y-115792499D01*
X156580491Y-115570000D01*
X156558577Y-115347501D01*
X156493676Y-115133553D01*
X156388284Y-114936377D01*
X156246449Y-114763551D01*
X156073623Y-114621716D01*
X155876447Y-114516324D01*
X155662499Y-114451423D01*
X155495752Y-114435000D01*
X155436437Y-114435000D01*
X155414901Y-114423489D01*
X155182102Y-114352870D01*
X155000665Y-114335000D01*
X141085000Y-114335000D01*
X141085000Y-109288029D01*
X141091700Y-109220000D01*
X141085000Y-109151971D01*
X141085000Y-109151963D01*
X141064960Y-108948493D01*
X140985764Y-108687419D01*
X140857157Y-108446812D01*
X140684081Y-108235919D01*
X140631236Y-108192550D01*
X135647454Y-103208769D01*
X135604081Y-103155919D01*
X135393188Y-102982843D01*
X135152581Y-102854236D01*
X134891507Y-102775040D01*
X134688037Y-102755000D01*
X134688029Y-102755000D01*
X134620000Y-102748300D01*
X134551971Y-102755000D01*
X111063686Y-102755000D01*
X102985000Y-94676315D01*
X102985000Y-88203685D01*
X107253686Y-83935000D01*
X109412146Y-83935000D01*
X109312104Y-84017103D01*
X109123407Y-84247030D01*
X108983193Y-84509352D01*
X108896850Y-84793988D01*
X108867695Y-85090000D01*
X108896850Y-85386012D01*
X108983193Y-85670648D01*
X109123407Y-85932970D01*
X109312104Y-86162897D01*
X109542031Y-86351594D01*
X109557758Y-86360000D01*
X109542031Y-86368406D01*
X109312104Y-86557103D01*
X109123407Y-86787030D01*
X108983193Y-87049352D01*
X108896850Y-87333988D01*
X108867695Y-87630000D01*
X108896850Y-87926012D01*
X108983193Y-88210648D01*
X109123407Y-88472970D01*
X109312104Y-88702897D01*
X109542031Y-88891594D01*
X109557758Y-88900000D01*
X109542031Y-88908406D01*
X109312104Y-89097103D01*
X109123407Y-89327030D01*
X108983193Y-89589352D01*
X108896850Y-89873988D01*
X108867695Y-90170000D01*
X108896850Y-90466012D01*
X108983193Y-90750648D01*
X109123407Y-91012970D01*
X109312104Y-91242897D01*
X109542031Y-91431594D01*
X109557758Y-91440000D01*
X109542031Y-91448406D01*
X109312104Y-91637103D01*
X109123407Y-91867030D01*
X108983193Y-92129352D01*
X108896850Y-92413988D01*
X108867695Y-92710000D01*
X108896850Y-93006012D01*
X108983193Y-93290648D01*
X109123407Y-93552970D01*
X109312104Y-93782897D01*
X109542031Y-93971594D01*
X109804353Y-94111808D01*
X110088989Y-94198151D01*
X110310823Y-94220000D01*
X111709179Y-94220000D01*
X111931013Y-94198151D01*
X112215649Y-94111808D01*
X112247095Y-94095000D01*
X115501971Y-94095000D01*
X115570000Y-94101700D01*
X115638029Y-94095000D01*
X115638037Y-94095000D01*
X115841507Y-94074960D01*
X116102581Y-93995764D01*
X116343188Y-93867157D01*
X116554081Y-93694081D01*
X116597454Y-93641231D01*
X124121241Y-86117445D01*
X124174080Y-86074081D01*
X124217445Y-86021241D01*
X124217452Y-86021234D01*
X124347156Y-85863189D01*
X124347157Y-85863188D01*
X124475764Y-85622581D01*
X124554960Y-85361507D01*
X124575000Y-85158037D01*
X124575000Y-85158028D01*
X124581700Y-85090001D01*
X124575000Y-85021974D01*
X124575000Y-74930000D01*
X124617695Y-74930000D01*
X124646850Y-75226012D01*
X124733193Y-75510648D01*
X124873407Y-75772970D01*
X125062104Y-76002897D01*
X125292031Y-76191594D01*
X125307758Y-76200000D01*
X125292031Y-76208406D01*
X125062104Y-76397103D01*
X124873407Y-76627030D01*
X124733193Y-76889352D01*
X124646850Y-77173988D01*
X124617695Y-77470000D01*
X124646850Y-77766012D01*
X124733193Y-78050648D01*
X124873407Y-78312970D01*
X125062104Y-78542897D01*
X125292031Y-78731594D01*
X125307758Y-78740000D01*
X125292031Y-78748406D01*
X125062104Y-78937103D01*
X124873407Y-79167030D01*
X124733193Y-79429352D01*
X124646850Y-79713988D01*
X124617695Y-80010000D01*
X124646850Y-80306012D01*
X124733193Y-80590648D01*
X124873407Y-80852970D01*
X125062104Y-81082897D01*
X125292031Y-81271594D01*
X125307758Y-81280000D01*
X125292031Y-81288406D01*
X125062104Y-81477103D01*
X124873407Y-81707030D01*
X124733193Y-81969352D01*
X124646850Y-82253988D01*
X124617695Y-82550000D01*
X124646850Y-82846012D01*
X124733193Y-83130648D01*
X124873407Y-83392970D01*
X125062104Y-83622897D01*
X125292031Y-83811594D01*
X125307758Y-83820000D01*
X125292031Y-83828406D01*
X125062104Y-84017103D01*
X124873407Y-84247030D01*
X124733193Y-84509352D01*
X124646850Y-84793988D01*
X124617695Y-85090000D01*
X124646850Y-85386012D01*
X124733193Y-85670648D01*
X124873407Y-85932970D01*
X125062104Y-86162897D01*
X125292031Y-86351594D01*
X125307758Y-86360000D01*
X125292031Y-86368406D01*
X125062104Y-86557103D01*
X124873407Y-86787030D01*
X124733193Y-87049352D01*
X124646850Y-87333988D01*
X124617695Y-87630000D01*
X124646850Y-87926012D01*
X124733193Y-88210648D01*
X124873407Y-88472970D01*
X125062104Y-88702897D01*
X125292031Y-88891594D01*
X125307758Y-88900000D01*
X125292031Y-88908406D01*
X125062104Y-89097103D01*
X124873407Y-89327030D01*
X124733193Y-89589352D01*
X124646850Y-89873988D01*
X124617695Y-90170000D01*
X124646850Y-90466012D01*
X124733193Y-90750648D01*
X124873407Y-91012970D01*
X125062104Y-91242897D01*
X125292031Y-91431594D01*
X125307758Y-91440000D01*
X125292031Y-91448406D01*
X125062104Y-91637103D01*
X124873407Y-91867030D01*
X124733193Y-92129352D01*
X124646850Y-92413988D01*
X124617695Y-92710000D01*
X124646850Y-93006012D01*
X124733193Y-93290648D01*
X124873407Y-93552970D01*
X125062104Y-93782897D01*
X125292031Y-93971594D01*
X125554353Y-94111808D01*
X125838989Y-94198151D01*
X126060823Y-94220000D01*
X127459179Y-94220000D01*
X127681013Y-94198151D01*
X127965649Y-94111808D01*
X128227971Y-93971594D01*
X128457898Y-93782897D01*
X128646595Y-93552970D01*
X128786809Y-93290648D01*
X128873152Y-93006012D01*
X128902307Y-92710000D01*
X128873152Y-92413988D01*
X128786809Y-92129352D01*
X128646595Y-91867030D01*
X128457898Y-91637103D01*
X128227971Y-91448406D01*
X128212244Y-91440000D01*
X128227971Y-91431594D01*
X128457898Y-91242897D01*
X128646595Y-91012970D01*
X128786809Y-90750648D01*
X128873152Y-90466012D01*
X128902307Y-90170000D01*
X128873152Y-89873988D01*
X128786809Y-89589352D01*
X128646595Y-89327030D01*
X128457898Y-89097103D01*
X128227971Y-88908406D01*
X128212244Y-88900000D01*
X128227971Y-88891594D01*
X128457898Y-88702897D01*
X128646595Y-88472970D01*
X128786809Y-88210648D01*
X128873152Y-87926012D01*
X128902307Y-87630000D01*
X128873152Y-87333988D01*
X128786809Y-87049352D01*
X128646595Y-86787030D01*
X128457898Y-86557103D01*
X128227971Y-86368406D01*
X128212244Y-86360000D01*
X128227971Y-86351594D01*
X128457898Y-86162897D01*
X128646595Y-85932970D01*
X128786809Y-85670648D01*
X128873152Y-85386012D01*
X128902307Y-85090000D01*
X128873152Y-84793988D01*
X128786809Y-84509352D01*
X128646595Y-84247030D01*
X128457898Y-84017103D01*
X128227971Y-83828406D01*
X128212244Y-83820000D01*
X128227971Y-83811594D01*
X128457898Y-83622897D01*
X128646595Y-83392970D01*
X128786809Y-83130648D01*
X128873152Y-82846012D01*
X128902307Y-82550000D01*
X128873152Y-82253988D01*
X128786809Y-81969352D01*
X128646595Y-81707030D01*
X128457898Y-81477103D01*
X128227971Y-81288406D01*
X128212244Y-81280000D01*
X128227971Y-81271594D01*
X128457898Y-81082897D01*
X128646595Y-80852970D01*
X128786809Y-80590648D01*
X128873152Y-80306012D01*
X128902307Y-80010000D01*
X128873152Y-79713988D01*
X128786809Y-79429352D01*
X128646595Y-79167030D01*
X128457898Y-78937103D01*
X128227971Y-78748406D01*
X128212244Y-78740000D01*
X128227971Y-78731594D01*
X128457898Y-78542897D01*
X128646595Y-78312970D01*
X128786809Y-78050648D01*
X128873152Y-77766012D01*
X128902307Y-77470000D01*
X128873152Y-77173988D01*
X128786809Y-76889352D01*
X128646595Y-76627030D01*
X128457898Y-76397103D01*
X128227971Y-76208406D01*
X128212244Y-76200000D01*
X128227971Y-76191594D01*
X128457898Y-76002897D01*
X128646595Y-75772970D01*
X128786809Y-75510648D01*
X128873152Y-75226012D01*
X128902307Y-74930000D01*
X128873152Y-74633988D01*
X128786809Y-74349352D01*
X128646595Y-74087030D01*
X128457898Y-73857103D01*
X128227971Y-73668406D01*
X127965649Y-73528192D01*
X127681013Y-73441849D01*
X127459179Y-73420000D01*
X126060823Y-73420000D01*
X125838989Y-73441849D01*
X125554353Y-73528192D01*
X125292031Y-73668406D01*
X125062104Y-73857103D01*
X124873407Y-74087030D01*
X124733193Y-74349352D01*
X124646850Y-74633988D01*
X124617695Y-74930000D01*
X124575000Y-74930000D01*
X124575000Y-74233685D01*
X126303685Y-72505000D01*
X149532145Y-72505000D01*
X149432103Y-72587103D01*
X149243406Y-72817030D01*
X149103192Y-73079352D01*
X149016849Y-73363988D01*
X148987694Y-73660000D01*
X149016849Y-73956012D01*
X149103192Y-74240648D01*
X149243406Y-74502970D01*
X149432103Y-74732897D01*
X149662030Y-74921594D01*
X149924352Y-75061808D01*
X150208988Y-75148151D01*
X150430822Y-75170000D01*
X151829178Y-75170000D01*
X152051012Y-75148151D01*
X152335648Y-75061808D01*
X152367094Y-75045000D01*
X154366315Y-75045000D01*
X161175000Y-81853686D01*
X161175001Y-120076313D01*
X146746315Y-134505000D01*
X140273686Y-134505000D01*
X136755000Y-130986315D01*
X136755000Y-130599721D01*
X136672953Y-130187244D01*
X136512012Y-129798698D01*
X136305000Y-129488882D01*
X136305000Y-115487230D01*
X136280619Y-115239682D01*
X136184268Y-114922059D01*
X136158072Y-114873050D01*
X136158072Y-114670000D01*
X136145812Y-114545518D01*
X136109502Y-114425820D01*
X136050537Y-114315506D01*
X135971185Y-114218815D01*
X135874494Y-114139463D01*
X135764180Y-114080498D01*
X135644482Y-114044188D01*
X135520000Y-114031928D01*
X135316950Y-114031928D01*
X135267941Y-114005732D01*
X134950318Y-113909381D01*
X134620000Y-113876848D01*
X134289683Y-113909381D01*
X133972060Y-114005732D01*
X133923051Y-114031928D01*
X133720000Y-114031928D01*
X133595518Y-114044188D01*
X133475820Y-114080498D01*
X133365506Y-114139463D01*
X133268815Y-114218815D01*
X133189463Y-114315506D01*
X133179043Y-114335000D01*
X119319335Y-114335000D01*
X119137898Y-114352870D01*
X118905099Y-114423489D01*
X118883563Y-114435000D01*
X118824248Y-114435000D01*
X118657501Y-114451423D01*
X118443553Y-114516324D01*
X118246377Y-114621716D01*
X118073551Y-114763551D01*
X117931716Y-114936377D01*
X117826324Y-115133553D01*
X117761423Y-115347501D01*
X117739509Y-115570000D01*
X117761423Y-115792499D01*
X117826324Y-116006447D01*
X117931716Y-116203623D01*
X118073551Y-116376449D01*
X118246377Y-116518284D01*
X118443553Y-116623676D01*
X118657501Y-116688577D01*
X118824248Y-116705000D01*
X118883563Y-116705000D01*
X118905099Y-116716511D01*
X119137898Y-116787130D01*
X119319335Y-116805000D01*
X132935001Y-116805000D01*
X132935000Y-129425000D01*
X102938026Y-129425000D01*
X102869999Y-129418300D01*
X102801972Y-129425000D01*
X102801963Y-129425000D01*
X102598493Y-129445040D01*
X102337419Y-129524236D01*
X102096812Y-129652843D01*
X102096810Y-129652844D01*
X102096811Y-129652844D01*
X101938766Y-129782548D01*
X101938764Y-129782550D01*
X101885919Y-129825919D01*
X101842550Y-129878764D01*
X95946315Y-135775000D01*
X50103686Y-135775000D01*
X34405000Y-120076315D01*
X34405000Y-94553685D01*
X36133685Y-92825000D01*
X39402906Y-92825000D01*
X39434352Y-92841808D01*
X39718988Y-92928151D01*
X39940822Y-92950000D01*
X41339178Y-92950000D01*
X41561012Y-92928151D01*
X41845648Y-92841808D01*
X42107970Y-92701594D01*
X42337897Y-92512897D01*
X42526594Y-92282970D01*
X42666808Y-92020648D01*
X42753151Y-91736012D01*
X42782306Y-91440000D01*
X42753151Y-91143988D01*
X42666808Y-90859352D01*
X42526594Y-90597030D01*
X42337897Y-90367103D01*
X42107970Y-90178406D01*
X41845648Y-90038192D01*
X41561012Y-89951849D01*
X41339178Y-89930000D01*
X39940822Y-89930000D01*
X39718988Y-89951849D01*
X39434352Y-90038192D01*
X39402906Y-90055000D01*
X36133685Y-90055000D01*
X34405000Y-88326315D01*
X34405000Y-73773685D01*
X38213686Y-69965000D01*
X39402906Y-69965000D01*
X39434352Y-69981808D01*
X39718988Y-70068151D01*
X39940822Y-70090000D01*
X41339178Y-70090000D01*
X41561012Y-70068151D01*
X41845648Y-69981808D01*
X42107970Y-69841594D01*
X42337897Y-69652897D01*
X42526594Y-69422970D01*
X42666808Y-69160648D01*
X42753151Y-68876012D01*
X42782306Y-68580000D01*
X42753151Y-68283988D01*
X42666808Y-67999352D01*
X42526594Y-67737030D01*
X42337897Y-67507103D01*
X42107970Y-67318406D01*
X41845648Y-67178192D01*
X41561012Y-67091849D01*
X41339178Y-67070000D01*
X39940822Y-67070000D01*
X39718988Y-67091849D01*
X39434352Y-67178192D01*
X39402906Y-67195000D01*
X37708029Y-67195000D01*
X37640000Y-67188300D01*
X37571971Y-67195000D01*
X37571963Y-67195000D01*
X37368493Y-67215040D01*
X37107419Y-67294236D01*
X36866812Y-67422843D01*
X36708766Y-67552548D01*
X36708764Y-67552550D01*
X36655919Y-67595919D01*
X36612550Y-67648764D01*
X32088765Y-72172550D01*
X32035919Y-72215920D01*
X31992550Y-72268765D01*
X31992548Y-72268767D01*
X31948891Y-72321963D01*
X31862843Y-72426813D01*
X31734236Y-72667420D01*
X31655040Y-72928494D01*
X31635000Y-73131964D01*
X31635000Y-73131971D01*
X31628300Y-73200000D01*
X29337000Y-73200000D01*
X29337000Y-35687000D01*
X184023000Y-35687000D01*
X184023000Y-143383000D01*
%TD*%
M02*
