%TF.GenerationSoftware,KiCad,Pcbnew,(5.1.6)-1*%
%TF.CreationDate,2020-07-07T09:56:18-05:00*%
%TF.ProjectId,Covid,436f7669-642e-46b6-9963-61645f706362,rev?*%
%TF.SameCoordinates,Original*%
%TF.FileFunction,OtherDrawing,Comment*%
%FSLAX46Y46*%
G04 Gerber Fmt 4.6, Leading zero omitted, Abs format (unit mm)*
G04 Created by KiCad (PCBNEW (5.1.6)-1) date 2020-07-07 09:56:18*
%MOMM*%
%LPD*%
G01*
G04 APERTURE LIST*
%ADD10C,0.150000*%
G04 APERTURE END LIST*
D10*
X102632380Y-23282380D02*
X102060952Y-23282380D01*
X102346666Y-23282380D02*
X102346666Y-22282380D01*
X102251428Y-22425238D01*
X102156190Y-22520476D01*
X102060952Y-22568095D01*
X103537142Y-22282380D02*
X103060952Y-22282380D01*
X103013333Y-22758571D01*
X103060952Y-22710952D01*
X103156190Y-22663333D01*
X103394285Y-22663333D01*
X103489523Y-22710952D01*
X103537142Y-22758571D01*
X103584761Y-22853809D01*
X103584761Y-23091904D01*
X103537142Y-23187142D01*
X103489523Y-23234761D01*
X103394285Y-23282380D01*
X103156190Y-23282380D01*
X103060952Y-23234761D01*
X103013333Y-23187142D01*
X103918095Y-22282380D02*
X104584761Y-22282380D01*
X104156190Y-23282380D01*
X105013333Y-23234761D02*
X105013333Y-23282380D01*
X104965714Y-23377619D01*
X104918095Y-23425238D01*
X105870476Y-22615714D02*
X105870476Y-23282380D01*
X105632380Y-22234761D02*
X105394285Y-22949047D01*
X106013333Y-22949047D01*
X106537142Y-22710952D02*
X106441904Y-22663333D01*
X106394285Y-22615714D01*
X106346666Y-22520476D01*
X106346666Y-22472857D01*
X106394285Y-22377619D01*
X106441904Y-22330000D01*
X106537142Y-22282380D01*
X106727619Y-22282380D01*
X106822857Y-22330000D01*
X106870476Y-22377619D01*
X106918095Y-22472857D01*
X106918095Y-22520476D01*
X106870476Y-22615714D01*
X106822857Y-22663333D01*
X106727619Y-22710952D01*
X106537142Y-22710952D01*
X106441904Y-22758571D01*
X106394285Y-22806190D01*
X106346666Y-22901428D01*
X106346666Y-23091904D01*
X106394285Y-23187142D01*
X106441904Y-23234761D01*
X106537142Y-23282380D01*
X106727619Y-23282380D01*
X106822857Y-23234761D01*
X106870476Y-23187142D01*
X106918095Y-23091904D01*
X106918095Y-22901428D01*
X106870476Y-22806190D01*
X106822857Y-22758571D01*
X106727619Y-22710952D01*
X107537142Y-22282380D02*
X107632380Y-22282380D01*
X107727619Y-22330000D01*
X107775238Y-22377619D01*
X107822857Y-22472857D01*
X107870476Y-22663333D01*
X107870476Y-22901428D01*
X107822857Y-23091904D01*
X107775238Y-23187142D01*
X107727619Y-23234761D01*
X107632380Y-23282380D01*
X107537142Y-23282380D01*
X107441904Y-23234761D01*
X107394285Y-23187142D01*
X107346666Y-23091904D01*
X107299047Y-22901428D01*
X107299047Y-22663333D01*
X107346666Y-22472857D01*
X107394285Y-22377619D01*
X107441904Y-22330000D01*
X107537142Y-22282380D01*
X109060952Y-23282380D02*
X109060952Y-22615714D01*
X109060952Y-22710952D02*
X109108571Y-22663333D01*
X109203809Y-22615714D01*
X109346666Y-22615714D01*
X109441904Y-22663333D01*
X109489523Y-22758571D01*
X109489523Y-23282380D01*
X109489523Y-22758571D02*
X109537142Y-22663333D01*
X109632380Y-22615714D01*
X109775238Y-22615714D01*
X109870476Y-22663333D01*
X109918095Y-22758571D01*
X109918095Y-23282380D01*
X110394285Y-23282380D02*
X110394285Y-22615714D01*
X110394285Y-22710952D02*
X110441904Y-22663333D01*
X110537142Y-22615714D01*
X110680000Y-22615714D01*
X110775238Y-22663333D01*
X110822857Y-22758571D01*
X110822857Y-23282380D01*
X110822857Y-22758571D02*
X110870476Y-22663333D01*
X110965714Y-22615714D01*
X111108571Y-22615714D01*
X111203809Y-22663333D01*
X111251428Y-22758571D01*
X111251428Y-23282380D01*
X27940000Y-24130000D02*
X185420000Y-24130000D01*
X27940000Y-29210000D02*
X27940000Y-23543579D01*
X185420000Y-29210000D02*
X185420000Y-23543579D01*
X185420000Y-24130000D02*
X184293496Y-24716421D01*
X185420000Y-24130000D02*
X184293496Y-23543579D01*
X27940000Y-24130000D02*
X29066504Y-24716421D01*
X27940000Y-24130000D02*
X29066504Y-23543579D01*
X16027620Y-85487380D02*
X16027620Y-84915952D01*
X16027620Y-85201666D02*
X17027620Y-85201666D01*
X16884762Y-85106428D01*
X16789524Y-85011190D01*
X16741905Y-84915952D01*
X16027620Y-86439761D02*
X16027620Y-85868333D01*
X16027620Y-86154047D02*
X17027620Y-86154047D01*
X16884762Y-86058809D01*
X16789524Y-85963571D01*
X16741905Y-85868333D01*
X17027620Y-87058809D02*
X17027620Y-87154047D01*
X16980001Y-87249285D01*
X16932381Y-87296904D01*
X16837143Y-87344523D01*
X16646667Y-87392142D01*
X16408572Y-87392142D01*
X16218096Y-87344523D01*
X16122858Y-87296904D01*
X16075239Y-87249285D01*
X16027620Y-87154047D01*
X16027620Y-87058809D01*
X16075239Y-86963571D01*
X16122858Y-86915952D01*
X16218096Y-86868333D01*
X16408572Y-86820714D01*
X16646667Y-86820714D01*
X16837143Y-86868333D01*
X16932381Y-86915952D01*
X16980001Y-86963571D01*
X17027620Y-87058809D01*
X16075239Y-87868333D02*
X16027620Y-87868333D01*
X15932381Y-87820714D01*
X15884762Y-87773095D01*
X16694286Y-88725476D02*
X16027620Y-88725476D01*
X17075239Y-88487380D02*
X16360953Y-88249285D01*
X16360953Y-88868333D01*
X16027620Y-89296904D02*
X16027620Y-89487380D01*
X16075239Y-89582619D01*
X16122858Y-89630238D01*
X16265715Y-89725476D01*
X16456191Y-89773095D01*
X16837143Y-89773095D01*
X16932381Y-89725476D01*
X16980001Y-89677857D01*
X17027620Y-89582619D01*
X17027620Y-89392142D01*
X16980001Y-89296904D01*
X16932381Y-89249285D01*
X16837143Y-89201666D01*
X16599048Y-89201666D01*
X16503810Y-89249285D01*
X16456191Y-89296904D01*
X16408572Y-89392142D01*
X16408572Y-89582619D01*
X16456191Y-89677857D01*
X16503810Y-89725476D01*
X16599048Y-89773095D01*
X17027620Y-90392142D02*
X17027620Y-90487380D01*
X16980001Y-90582619D01*
X16932381Y-90630238D01*
X16837143Y-90677857D01*
X16646667Y-90725476D01*
X16408572Y-90725476D01*
X16218096Y-90677857D01*
X16122858Y-90630238D01*
X16075239Y-90582619D01*
X16027620Y-90487380D01*
X16027620Y-90392142D01*
X16075239Y-90296904D01*
X16122858Y-90249285D01*
X16218096Y-90201666D01*
X16408572Y-90154047D01*
X16646667Y-90154047D01*
X16837143Y-90201666D01*
X16932381Y-90249285D01*
X16980001Y-90296904D01*
X17027620Y-90392142D01*
X16027620Y-91915952D02*
X16694286Y-91915952D01*
X16599048Y-91915952D02*
X16646667Y-91963571D01*
X16694286Y-92058809D01*
X16694286Y-92201666D01*
X16646667Y-92296904D01*
X16551429Y-92344523D01*
X16027620Y-92344523D01*
X16551429Y-92344523D02*
X16646667Y-92392142D01*
X16694286Y-92487380D01*
X16694286Y-92630238D01*
X16646667Y-92725476D01*
X16551429Y-92773095D01*
X16027620Y-92773095D01*
X16027620Y-93249285D02*
X16694286Y-93249285D01*
X16599048Y-93249285D02*
X16646667Y-93296904D01*
X16694286Y-93392142D01*
X16694286Y-93535000D01*
X16646667Y-93630238D01*
X16551429Y-93677857D01*
X16027620Y-93677857D01*
X16551429Y-93677857D02*
X16646667Y-93725476D01*
X16694286Y-93820714D01*
X16694286Y-93963571D01*
X16646667Y-94058809D01*
X16551429Y-94106428D01*
X16027620Y-94106428D01*
X17780001Y-34290000D02*
X17780001Y-144780000D01*
X20320000Y-34290000D02*
X17193580Y-34290000D01*
X20320000Y-144780000D02*
X17193580Y-144780000D01*
X17780001Y-144780000D02*
X17193580Y-143653496D01*
X17780001Y-144780000D02*
X18366422Y-143653496D01*
X17780001Y-34290000D02*
X17193580Y-35416504D01*
X17780001Y-34290000D02*
X18366422Y-35416504D01*
M02*
