%FSLAX45Y45*%
G04 Gerber Fmt 4.5, Leading zero omitted, Abs format (unit mm)*
G04 Created by KiCad (PCBNEW (5.1.6)-1) date 2020-07-17 12:23:26*
%MOMM*%
%LPD*%
G01*
G04 APERTURE LIST*
%TA.AperFunction,Profile*%
%ADD10C,0.050000*%
%TD*%
%ADD11C,0.200000*%
%ADD12C,0.300000*%
G04 APERTURE END LIST*
D10*
X2794000Y-14478000D02*
X2794000Y-3429000D01*
X18542000Y-3429000D02*
X18542000Y-14478000D01*
X18542000Y-14478000D02*
X2794000Y-14478000D01*
X2794000Y-3429000D02*
X18542000Y-3429000D01*
D11*
D12*
X3077928Y-14946214D02*
X3077928Y-14646214D01*
X3149357Y-14646214D01*
X3192214Y-14660500D01*
X3220786Y-14689071D01*
X3235071Y-14717643D01*
X3249357Y-14774786D01*
X3249357Y-14817643D01*
X3235071Y-14874786D01*
X3220786Y-14903357D01*
X3192214Y-14931929D01*
X3149357Y-14946214D01*
X3077928Y-14946214D01*
X3377928Y-14946214D02*
X3377928Y-14746214D01*
X3377928Y-14803357D02*
X3392214Y-14774786D01*
X3406500Y-14760500D01*
X3435071Y-14746214D01*
X3463643Y-14746214D01*
X3563643Y-14946214D02*
X3563643Y-14746214D01*
X3563643Y-14646214D02*
X3549357Y-14660500D01*
X3563643Y-14674786D01*
X3577928Y-14660500D01*
X3563643Y-14646214D01*
X3563643Y-14674786D01*
X3749357Y-14946214D02*
X3720786Y-14931929D01*
X3706500Y-14903357D01*
X3706500Y-14646214D01*
X3906500Y-14946214D02*
X3877928Y-14931929D01*
X3863643Y-14903357D01*
X3863643Y-14646214D01*
X4249357Y-14946214D02*
X4249357Y-14646214D01*
X4349357Y-14860500D01*
X4449357Y-14646214D01*
X4449357Y-14946214D01*
X4720786Y-14946214D02*
X4720786Y-14789071D01*
X4706500Y-14760500D01*
X4677928Y-14746214D01*
X4620786Y-14746214D01*
X4592214Y-14760500D01*
X4720786Y-14931929D02*
X4692214Y-14946214D01*
X4620786Y-14946214D01*
X4592214Y-14931929D01*
X4577928Y-14903357D01*
X4577928Y-14874786D01*
X4592214Y-14846214D01*
X4620786Y-14831929D01*
X4692214Y-14831929D01*
X4720786Y-14817643D01*
X4863643Y-14746214D02*
X4863643Y-15046214D01*
X4863643Y-14760500D02*
X4892214Y-14746214D01*
X4949357Y-14746214D01*
X4977928Y-14760500D01*
X4992214Y-14774786D01*
X5006500Y-14803357D01*
X5006500Y-14889071D01*
X4992214Y-14917643D01*
X4977928Y-14931929D01*
X4949357Y-14946214D01*
X4892214Y-14946214D01*
X4863643Y-14931929D01*
X5135071Y-14917643D02*
X5149357Y-14931929D01*
X5135071Y-14946214D01*
X5120786Y-14931929D01*
X5135071Y-14917643D01*
X5135071Y-14946214D01*
X5135071Y-14760500D02*
X5149357Y-14774786D01*
X5135071Y-14789071D01*
X5120786Y-14774786D01*
X5135071Y-14760500D01*
X5135071Y-14789071D01*
M02*
