%TF.GenerationSoftware,KiCad,Pcbnew,(5.1.6)-1*%
%TF.CreationDate,2020-07-17T12:23:20-05:00*%
%TF.ProjectId,Covid,436f7669-642e-46b6-9963-61645f706362,rev?*%
%TF.SameCoordinates,Original*%
%TF.FileFunction,Legend,Top*%
%TF.FilePolarity,Positive*%
%FSLAX46Y46*%
G04 Gerber Fmt 4.6, Leading zero omitted, Abs format (unit mm)*
G04 Created by KiCad (PCBNEW (5.1.6)-1) date 2020-07-17 12:23:20*
%MOMM*%
%LPD*%
G01*
G04 APERTURE LIST*
%ADD10C,0.120000*%
%ADD11C,0.150000*%
%ADD12O,3.100000X1.850000*%
%ADD13O,1.850000X3.100000*%
%ADD14O,1.600000X2.600000*%
%ADD15C,3.100000*%
%ADD16R,1.150000X1.600000*%
%ADD17C,1.700000*%
%ADD18O,1.700000X1.700000*%
%ADD19O,3.100000X2.100000*%
%ADD20R,2.200000X2.200000*%
%ADD21C,2.200000*%
G04 APERTURE END LIST*
D10*
%TO.C,U3*%
X181610000Y-62230000D02*
X148590000Y-62230000D01*
X181610000Y-92710000D02*
X181610000Y-62230000D01*
X148590000Y-92710000D02*
X181610000Y-92710000D01*
X148590000Y-87630000D02*
X148590000Y-92710000D01*
X148590000Y-62230000D02*
X148590000Y-87630000D01*
%TO.C,U4*%
X62230000Y-139700000D02*
X62230000Y-111760000D01*
X80010000Y-139700000D02*
X62230000Y-139700000D01*
X80010000Y-111760000D02*
X80010000Y-139700000D01*
X62230000Y-111760000D02*
X80010000Y-111760000D01*
%TO.C,U1*%
X60960000Y-104140000D02*
X60960000Y-55880000D01*
X91440000Y-104140000D02*
X60960000Y-104140000D01*
X91440000Y-55880000D02*
X91440000Y-104140000D01*
X60960000Y-55880000D02*
X91440000Y-55880000D01*
%TO.C,U2*%
X88900000Y-48260000D02*
X90170000Y-48260000D01*
X88900000Y-43180000D02*
X88900000Y-48260000D01*
X96520000Y-43180000D02*
X88900000Y-43180000D01*
X96520000Y-48260000D02*
X96520000Y-43180000D01*
X90170000Y-48260000D02*
X96520000Y-48260000D01*
%TO.C,U5*%
X108980001Y-93980000D02*
X129300001Y-93980000D01*
X108980001Y-72390000D02*
X108980001Y-93980000D01*
X129300001Y-72390000D02*
X108980001Y-72390000D01*
X129300001Y-93980000D02*
X129300001Y-72390000D01*
%TO.C,U7*%
X38100000Y-88900000D02*
X38100000Y-90170000D01*
X43180000Y-88900000D02*
X38100000Y-88900000D01*
X43180000Y-104140000D02*
X43180000Y-88900000D01*
X38100000Y-104140000D02*
X43180000Y-104140000D01*
X38100000Y-90170000D02*
X38100000Y-104140000D01*
%TO.C,U8*%
X38100000Y-67310000D02*
X38100000Y-81280000D01*
X38100000Y-81280000D02*
X43180000Y-81280000D01*
X43180000Y-81280000D02*
X43180000Y-66040000D01*
X43180000Y-66040000D02*
X38100000Y-66040000D01*
X38100000Y-66040000D02*
X38100000Y-67310000D01*
%TO.C,U9*%
X114300000Y-48260000D02*
X104140000Y-48260000D01*
X114300000Y-43180000D02*
X114300000Y-48260000D01*
X104140000Y-43180000D02*
X114300000Y-43180000D01*
X104140000Y-48260000D02*
X104140000Y-43180000D01*
%TO.C,U11*%
X154940000Y-48260000D02*
X129540000Y-48260000D01*
X154940000Y-43180000D02*
X154940000Y-48260000D01*
X129540000Y-43180000D02*
X154940000Y-43180000D01*
X129540000Y-48260000D02*
X129540000Y-43180000D01*
%TO.C,U10*%
X171450000Y-144780000D02*
X157480000Y-144780000D01*
X171450000Y-134620000D02*
X171450000Y-144780000D01*
X157480000Y-134620000D02*
X171450000Y-134620000D01*
X157480000Y-144780000D02*
X157480000Y-134620000D01*
%TO.C,Q1*%
X112510000Y-124030000D02*
X108660000Y-124030000D01*
X108621389Y-124039878D02*
G75*
G03*
X112510000Y-124030000I1948611J-1690122D01*
G01*
%TO.C,R1*%
X111461380Y-116765225D02*
G75*
G02*
X109690000Y-116656728I-971380J-1344775D01*
G01*
%TO.C,U6*%
X125730000Y-127000000D02*
X170180000Y-127000000D01*
X125730000Y-105410000D02*
X125730000Y-127000000D01*
X170180000Y-105410000D02*
X125730000Y-105410000D01*
X170180000Y-127000000D02*
X170180000Y-105410000D01*
%TO.C,U12*%
X130810000Y-137160000D02*
X129540000Y-137160000D01*
X130810000Y-142240000D02*
X130810000Y-137160000D01*
X123190000Y-142240000D02*
X130810000Y-142240000D01*
X123190000Y-137160000D02*
X123190000Y-142240000D01*
X129540000Y-137160000D02*
X123190000Y-137160000D01*
%TO.C,J1*%
X117520000Y-63300000D02*
X117920000Y-63300000D01*
X117520000Y-62660000D02*
X117520000Y-63300000D01*
X128621000Y-56320000D02*
X128621000Y-63060000D01*
X117760000Y-56320000D02*
X117760000Y-63060000D01*
X117760000Y-63060000D02*
X128621000Y-63060000D01*
X117760000Y-56320000D02*
X128621000Y-56320000D01*
X117760000Y-57440000D02*
X128621000Y-57440000D01*
X117760000Y-62540000D02*
X128621000Y-62540000D01*
%TO.C,J2*%
X134270000Y-62540000D02*
X145131000Y-62540000D01*
X134270000Y-57440000D02*
X145131000Y-57440000D01*
X134270000Y-56320000D02*
X145131000Y-56320000D01*
X134270000Y-63060000D02*
X145131000Y-63060000D01*
X134270000Y-56320000D02*
X134270000Y-63060000D01*
X145131000Y-56320000D02*
X145131000Y-63060000D01*
X134030000Y-62660000D02*
X134030000Y-63300000D01*
X134030000Y-63300000D02*
X134430000Y-63300000D01*
%TO.C,R2*%
X97715225Y-52368620D02*
G75*
G02*
X97606728Y-54140000I1344775J-971380D01*
G01*
%TO.C,R3*%
X106605225Y-37128620D02*
G75*
G02*
X106496728Y-38900000I1344775J-971380D01*
G01*
%TO.C,U13*%
X127590000Y-42110000D02*
X127190000Y-42110000D01*
X127590000Y-42750000D02*
X127590000Y-42110000D01*
X116489000Y-49090000D02*
X116489000Y-42350000D01*
X127350000Y-49090000D02*
X127350000Y-42350000D01*
X127350000Y-42350000D02*
X116489000Y-42350000D01*
X127350000Y-49090000D02*
X116489000Y-49090000D01*
X127350000Y-47970000D02*
X116489000Y-47970000D01*
X127350000Y-42870000D02*
X116489000Y-42870000D01*
%TO.C,U3*%
D11*
X178308095Y-60412380D02*
X178308095Y-61221904D01*
X178355714Y-61317142D01*
X178403333Y-61364761D01*
X178498571Y-61412380D01*
X178689047Y-61412380D01*
X178784285Y-61364761D01*
X178831904Y-61317142D01*
X178879523Y-61221904D01*
X178879523Y-60412380D01*
X179260476Y-60412380D02*
X179879523Y-60412380D01*
X179546190Y-60793333D01*
X179689047Y-60793333D01*
X179784285Y-60840952D01*
X179831904Y-60888571D01*
X179879523Y-60983809D01*
X179879523Y-61221904D01*
X179831904Y-61317142D01*
X179784285Y-61364761D01*
X179689047Y-61412380D01*
X179403333Y-61412380D01*
X179308095Y-61364761D01*
X179260476Y-61317142D01*
%TO.C,U4*%
X64008095Y-140422380D02*
X64008095Y-141231904D01*
X64055714Y-141327142D01*
X64103333Y-141374761D01*
X64198571Y-141422380D01*
X64389047Y-141422380D01*
X64484285Y-141374761D01*
X64531904Y-141327142D01*
X64579523Y-141231904D01*
X64579523Y-140422380D01*
X65484285Y-140755714D02*
X65484285Y-141422380D01*
X65246190Y-140374761D02*
X65008095Y-141089047D01*
X65627142Y-141089047D01*
%TO.C,U1*%
X62738095Y-104862380D02*
X62738095Y-105671904D01*
X62785714Y-105767142D01*
X62833333Y-105814761D01*
X62928571Y-105862380D01*
X63119047Y-105862380D01*
X63214285Y-105814761D01*
X63261904Y-105767142D01*
X63309523Y-105671904D01*
X63309523Y-104862380D01*
X64309523Y-105862380D02*
X63738095Y-105862380D01*
X64023809Y-105862380D02*
X64023809Y-104862380D01*
X63928571Y-105005238D01*
X63833333Y-105100476D01*
X63738095Y-105148095D01*
%TO.C,U2*%
X97242380Y-46481904D02*
X98051904Y-46481904D01*
X98147142Y-46434285D01*
X98194761Y-46386666D01*
X98242380Y-46291428D01*
X98242380Y-46100952D01*
X98194761Y-46005714D01*
X98147142Y-45958095D01*
X98051904Y-45910476D01*
X97242380Y-45910476D01*
X97337619Y-45481904D02*
X97290000Y-45434285D01*
X97242380Y-45339047D01*
X97242380Y-45100952D01*
X97290000Y-45005714D01*
X97337619Y-44958095D01*
X97432857Y-44910476D01*
X97528095Y-44910476D01*
X97670952Y-44958095D01*
X98242380Y-45529523D01*
X98242380Y-44910476D01*
%TO.C,U5*%
X127268096Y-70572380D02*
X127268096Y-71381904D01*
X127315715Y-71477142D01*
X127363334Y-71524761D01*
X127458572Y-71572380D01*
X127649048Y-71572380D01*
X127744286Y-71524761D01*
X127791905Y-71477142D01*
X127839524Y-71381904D01*
X127839524Y-70572380D01*
X128791905Y-70572380D02*
X128315715Y-70572380D01*
X128268096Y-71048571D01*
X128315715Y-71000952D01*
X128410953Y-70953333D01*
X128649048Y-70953333D01*
X128744286Y-71000952D01*
X128791905Y-71048571D01*
X128839524Y-71143809D01*
X128839524Y-71381904D01*
X128791905Y-71477142D01*
X128744286Y-71524761D01*
X128649048Y-71572380D01*
X128410953Y-71572380D01*
X128315715Y-71524761D01*
X128268096Y-71477142D01*
%TO.C,U7*%
X39878095Y-104862380D02*
X39878095Y-105671904D01*
X39925714Y-105767142D01*
X39973333Y-105814761D01*
X40068571Y-105862380D01*
X40259047Y-105862380D01*
X40354285Y-105814761D01*
X40401904Y-105767142D01*
X40449523Y-105671904D01*
X40449523Y-104862380D01*
X40830476Y-104862380D02*
X41497142Y-104862380D01*
X41068571Y-105862380D01*
%TO.C,U8*%
X39878095Y-82002380D02*
X39878095Y-82811904D01*
X39925714Y-82907142D01*
X39973333Y-82954761D01*
X40068571Y-83002380D01*
X40259047Y-83002380D01*
X40354285Y-82954761D01*
X40401904Y-82907142D01*
X40449523Y-82811904D01*
X40449523Y-82002380D01*
X41068571Y-82430952D02*
X40973333Y-82383333D01*
X40925714Y-82335714D01*
X40878095Y-82240476D01*
X40878095Y-82192857D01*
X40925714Y-82097619D01*
X40973333Y-82050000D01*
X41068571Y-82002380D01*
X41259047Y-82002380D01*
X41354285Y-82050000D01*
X41401904Y-82097619D01*
X41449523Y-82192857D01*
X41449523Y-82240476D01*
X41401904Y-82335714D01*
X41354285Y-82383333D01*
X41259047Y-82430952D01*
X41068571Y-82430952D01*
X40973333Y-82478571D01*
X40925714Y-82526190D01*
X40878095Y-82621428D01*
X40878095Y-82811904D01*
X40925714Y-82907142D01*
X40973333Y-82954761D01*
X41068571Y-83002380D01*
X41259047Y-83002380D01*
X41354285Y-82954761D01*
X41401904Y-82907142D01*
X41449523Y-82811904D01*
X41449523Y-82621428D01*
X41401904Y-82526190D01*
X41354285Y-82478571D01*
X41259047Y-82430952D01*
%TO.C,U9*%
X115022380Y-46481904D02*
X115831904Y-46481904D01*
X115927142Y-46434285D01*
X115974761Y-46386666D01*
X116022380Y-46291428D01*
X116022380Y-46100952D01*
X115974761Y-46005714D01*
X115927142Y-45958095D01*
X115831904Y-45910476D01*
X115022380Y-45910476D01*
X116022380Y-45386666D02*
X116022380Y-45196190D01*
X115974761Y-45100952D01*
X115927142Y-45053333D01*
X115784285Y-44958095D01*
X115593809Y-44910476D01*
X115212857Y-44910476D01*
X115117619Y-44958095D01*
X115070000Y-45005714D01*
X115022380Y-45100952D01*
X115022380Y-45291428D01*
X115070000Y-45386666D01*
X115117619Y-45434285D01*
X115212857Y-45481904D01*
X115450952Y-45481904D01*
X115546190Y-45434285D01*
X115593809Y-45386666D01*
X115641428Y-45291428D01*
X115641428Y-45100952D01*
X115593809Y-45005714D01*
X115546190Y-44958095D01*
X115450952Y-44910476D01*
%TO.C,U11*%
X155662380Y-48228095D02*
X156471904Y-48228095D01*
X156567142Y-48180476D01*
X156614761Y-48132857D01*
X156662380Y-48037619D01*
X156662380Y-47847142D01*
X156614761Y-47751904D01*
X156567142Y-47704285D01*
X156471904Y-47656666D01*
X155662380Y-47656666D01*
X156662380Y-46656666D02*
X156662380Y-47228095D01*
X156662380Y-46942380D02*
X155662380Y-46942380D01*
X155805238Y-47037619D01*
X155900476Y-47132857D01*
X155948095Y-47228095D01*
X156662380Y-45704285D02*
X156662380Y-46275714D01*
X156662380Y-45990000D02*
X155662380Y-45990000D01*
X155805238Y-46085238D01*
X155900476Y-46180476D01*
X155948095Y-46275714D01*
%TO.C,U10*%
X172172380Y-143478095D02*
X172981904Y-143478095D01*
X173077142Y-143430476D01*
X173124761Y-143382857D01*
X173172380Y-143287619D01*
X173172380Y-143097142D01*
X173124761Y-143001904D01*
X173077142Y-142954285D01*
X172981904Y-142906666D01*
X172172380Y-142906666D01*
X173172380Y-141906666D02*
X173172380Y-142478095D01*
X173172380Y-142192380D02*
X172172380Y-142192380D01*
X172315238Y-142287619D01*
X172410476Y-142382857D01*
X172458095Y-142478095D01*
X172172380Y-141287619D02*
X172172380Y-141192380D01*
X172220000Y-141097142D01*
X172267619Y-141049523D01*
X172362857Y-141001904D01*
X172553333Y-140954285D01*
X172791428Y-140954285D01*
X172981904Y-141001904D01*
X173077142Y-141049523D01*
X173124761Y-141097142D01*
X173172380Y-141192380D01*
X173172380Y-141287619D01*
X173124761Y-141382857D01*
X173077142Y-141430476D01*
X172981904Y-141478095D01*
X172791428Y-141525714D01*
X172553333Y-141525714D01*
X172362857Y-141478095D01*
X172267619Y-141430476D01*
X172220000Y-141382857D01*
X172172380Y-141287619D01*
%TO.C,Q1*%
X110474761Y-129837619D02*
X110379523Y-129790000D01*
X110284285Y-129694761D01*
X110141428Y-129551904D01*
X110046190Y-129504285D01*
X109950952Y-129504285D01*
X109998571Y-129742380D02*
X109903333Y-129694761D01*
X109808095Y-129599523D01*
X109760476Y-129409047D01*
X109760476Y-129075714D01*
X109808095Y-128885238D01*
X109903333Y-128790000D01*
X109998571Y-128742380D01*
X110189047Y-128742380D01*
X110284285Y-128790000D01*
X110379523Y-128885238D01*
X110427142Y-129075714D01*
X110427142Y-129409047D01*
X110379523Y-129599523D01*
X110284285Y-129694761D01*
X110189047Y-129742380D01*
X109998571Y-129742380D01*
X111379523Y-129742380D02*
X110808095Y-129742380D01*
X111093809Y-129742380D02*
X111093809Y-128742380D01*
X110998571Y-128885238D01*
X110903333Y-128980476D01*
X110808095Y-129028095D01*
%TO.C,R1*%
X108222380Y-117006666D02*
X107746190Y-117340000D01*
X108222380Y-117578095D02*
X107222380Y-117578095D01*
X107222380Y-117197142D01*
X107270000Y-117101904D01*
X107317619Y-117054285D01*
X107412857Y-117006666D01*
X107555714Y-117006666D01*
X107650952Y-117054285D01*
X107698571Y-117101904D01*
X107746190Y-117197142D01*
X107746190Y-117578095D01*
X108222380Y-116054285D02*
X108222380Y-116625714D01*
X108222380Y-116340000D02*
X107222380Y-116340000D01*
X107365238Y-116435238D01*
X107460476Y-116530476D01*
X107508095Y-116625714D01*
%TO.C,U6*%
X166878095Y-103592380D02*
X166878095Y-104401904D01*
X166925714Y-104497142D01*
X166973333Y-104544761D01*
X167068571Y-104592380D01*
X167259047Y-104592380D01*
X167354285Y-104544761D01*
X167401904Y-104497142D01*
X167449523Y-104401904D01*
X167449523Y-103592380D01*
X168354285Y-103592380D02*
X168163809Y-103592380D01*
X168068571Y-103640000D01*
X168020952Y-103687619D01*
X167925714Y-103830476D01*
X167878095Y-104020952D01*
X167878095Y-104401904D01*
X167925714Y-104497142D01*
X167973333Y-104544761D01*
X168068571Y-104592380D01*
X168259047Y-104592380D01*
X168354285Y-104544761D01*
X168401904Y-104497142D01*
X168449523Y-104401904D01*
X168449523Y-104163809D01*
X168401904Y-104068571D01*
X168354285Y-104020952D01*
X168259047Y-103973333D01*
X168068571Y-103973333D01*
X167973333Y-104020952D01*
X167925714Y-104068571D01*
X167878095Y-104163809D01*
%TO.C,U12*%
X121372380Y-140938095D02*
X122181904Y-140938095D01*
X122277142Y-140890476D01*
X122324761Y-140842857D01*
X122372380Y-140747619D01*
X122372380Y-140557142D01*
X122324761Y-140461904D01*
X122277142Y-140414285D01*
X122181904Y-140366666D01*
X121372380Y-140366666D01*
X122372380Y-139366666D02*
X122372380Y-139938095D01*
X122372380Y-139652380D02*
X121372380Y-139652380D01*
X121515238Y-139747619D01*
X121610476Y-139842857D01*
X121658095Y-139938095D01*
X121467619Y-138985714D02*
X121420000Y-138938095D01*
X121372380Y-138842857D01*
X121372380Y-138604761D01*
X121420000Y-138509523D01*
X121467619Y-138461904D01*
X121562857Y-138414285D01*
X121658095Y-138414285D01*
X121800952Y-138461904D01*
X122372380Y-139033333D01*
X122372380Y-138414285D01*
%TO.C,J1*%
X122856666Y-54772380D02*
X122856666Y-55486666D01*
X122809047Y-55629523D01*
X122713809Y-55724761D01*
X122570952Y-55772380D01*
X122475714Y-55772380D01*
X123856666Y-55772380D02*
X123285238Y-55772380D01*
X123570952Y-55772380D02*
X123570952Y-54772380D01*
X123475714Y-54915238D01*
X123380476Y-55010476D01*
X123285238Y-55058095D01*
%TO.C,J2*%
X139366666Y-54772380D02*
X139366666Y-55486666D01*
X139319047Y-55629523D01*
X139223809Y-55724761D01*
X139080952Y-55772380D01*
X138985714Y-55772380D01*
X139795238Y-54867619D02*
X139842857Y-54820000D01*
X139938095Y-54772380D01*
X140176190Y-54772380D01*
X140271428Y-54820000D01*
X140319047Y-54867619D01*
X140366666Y-54962857D01*
X140366666Y-55058095D01*
X140319047Y-55200952D01*
X139747619Y-55772380D01*
X140366666Y-55772380D01*
%TO.C,R2*%
X97623333Y-56512380D02*
X97290000Y-56036190D01*
X97051904Y-56512380D02*
X97051904Y-55512380D01*
X97432857Y-55512380D01*
X97528095Y-55560000D01*
X97575714Y-55607619D01*
X97623333Y-55702857D01*
X97623333Y-55845714D01*
X97575714Y-55940952D01*
X97528095Y-55988571D01*
X97432857Y-56036190D01*
X97051904Y-56036190D01*
X98004285Y-55607619D02*
X98051904Y-55560000D01*
X98147142Y-55512380D01*
X98385238Y-55512380D01*
X98480476Y-55560000D01*
X98528095Y-55607619D01*
X98575714Y-55702857D01*
X98575714Y-55798095D01*
X98528095Y-55940952D01*
X97956666Y-56512380D01*
X98575714Y-56512380D01*
%TO.C,R3*%
X106513333Y-41272380D02*
X106180000Y-40796190D01*
X105941904Y-41272380D02*
X105941904Y-40272380D01*
X106322857Y-40272380D01*
X106418095Y-40320000D01*
X106465714Y-40367619D01*
X106513333Y-40462857D01*
X106513333Y-40605714D01*
X106465714Y-40700952D01*
X106418095Y-40748571D01*
X106322857Y-40796190D01*
X105941904Y-40796190D01*
X106846666Y-40272380D02*
X107465714Y-40272380D01*
X107132380Y-40653333D01*
X107275238Y-40653333D01*
X107370476Y-40700952D01*
X107418095Y-40748571D01*
X107465714Y-40843809D01*
X107465714Y-41081904D01*
X107418095Y-41177142D01*
X107370476Y-41224761D01*
X107275238Y-41272380D01*
X106989523Y-41272380D01*
X106894285Y-41224761D01*
X106846666Y-41177142D01*
%TO.C,U13*%
X120681904Y-49542380D02*
X120681904Y-50351904D01*
X120729523Y-50447142D01*
X120777142Y-50494761D01*
X120872380Y-50542380D01*
X121062857Y-50542380D01*
X121158095Y-50494761D01*
X121205714Y-50447142D01*
X121253333Y-50351904D01*
X121253333Y-49542380D01*
X122253333Y-50542380D02*
X121681904Y-50542380D01*
X121967619Y-50542380D02*
X121967619Y-49542380D01*
X121872380Y-49685238D01*
X121777142Y-49780476D01*
X121681904Y-49828095D01*
X122586666Y-49542380D02*
X123205714Y-49542380D01*
X122872380Y-49923333D01*
X123015238Y-49923333D01*
X123110476Y-49970952D01*
X123158095Y-50018571D01*
X123205714Y-50113809D01*
X123205714Y-50351904D01*
X123158095Y-50447142D01*
X123110476Y-50494761D01*
X123015238Y-50542380D01*
X122729523Y-50542380D01*
X122634285Y-50494761D01*
X122586666Y-50447142D01*
%TD*%
%LPC*%
D12*
%TO.C,U3*%
X151130000Y-66040000D03*
X151130000Y-68580000D03*
X151130000Y-71120000D03*
X151130000Y-73660000D03*
%TD*%
%TO.C,U4*%
X64770000Y-120650000D03*
X64770000Y-123190000D03*
X64770000Y-125730000D03*
X64770000Y-128270000D03*
X64770000Y-130810000D03*
X77470000Y-130810000D03*
X77470000Y-128270000D03*
X77470000Y-125730000D03*
X77470000Y-123190000D03*
X77470000Y-120650000D03*
%TD*%
%TO.C,U1*%
X63500000Y-57150000D03*
X63500000Y-59690000D03*
X63500000Y-62230000D03*
X63500000Y-64770000D03*
X63500000Y-67310000D03*
X63500000Y-69850000D03*
X63500000Y-72390000D03*
X63500000Y-74930000D03*
X63500000Y-77470000D03*
X63500000Y-80010000D03*
X63500000Y-82550000D03*
X63500000Y-85090000D03*
X63500000Y-87630000D03*
X63500000Y-90170000D03*
X63500000Y-92710000D03*
X63500000Y-95250000D03*
X63500000Y-97790000D03*
X63500000Y-100330000D03*
X63500000Y-102870000D03*
X89200000Y-102870000D03*
X89200000Y-100330000D03*
X89200000Y-97790000D03*
X89200000Y-95250000D03*
X89200000Y-92710000D03*
X89200000Y-90170000D03*
X89200000Y-87630000D03*
X89200000Y-85090000D03*
X89200000Y-82550000D03*
X89200000Y-80010000D03*
X89200000Y-77470000D03*
X89200000Y-74930000D03*
X89200000Y-72390000D03*
X89200000Y-69850000D03*
X89200000Y-67310000D03*
X89200000Y-64770000D03*
X89200000Y-62230000D03*
X89200000Y-59690000D03*
X89200000Y-57150000D03*
%TD*%
D13*
%TO.C,U2*%
X91440000Y-45720000D03*
X93980000Y-45720000D03*
%TD*%
D12*
%TO.C,U5*%
X126760001Y-92710000D03*
X126760001Y-90170000D03*
X126760001Y-87630000D03*
X126760001Y-85090000D03*
X126760001Y-82550000D03*
X126760001Y-80010000D03*
X126760001Y-77470000D03*
X126760001Y-74930000D03*
X111010001Y-74930000D03*
X111010001Y-77470000D03*
X111010001Y-80010000D03*
X111010001Y-82550000D03*
X111010001Y-85090000D03*
X111010001Y-87630000D03*
X111010001Y-90170000D03*
X111010001Y-92710000D03*
%TD*%
%TO.C,U7*%
X40640000Y-91440000D03*
X40640000Y-93980000D03*
X40640000Y-96520000D03*
X40640000Y-99060000D03*
X40640000Y-101600000D03*
%TD*%
%TO.C,U8*%
X40640000Y-78740000D03*
X40640000Y-76200000D03*
X40640000Y-73660000D03*
X40640000Y-71120000D03*
X40640000Y-68580000D03*
%TD*%
D13*
%TO.C,U9*%
X105410000Y-45720000D03*
X107950000Y-45720000D03*
X110490000Y-45720000D03*
X113030000Y-45720000D03*
%TD*%
D14*
%TO.C,U11*%
X132080000Y-45720000D03*
X134620000Y-45720000D03*
X137160000Y-45720000D03*
X139700000Y-45720000D03*
X142240000Y-45720000D03*
X144780000Y-45720000D03*
X147320000Y-45720000D03*
X149860000Y-45720000D03*
X152400000Y-45720000D03*
%TD*%
D15*
%TO.C,U10*%
X160020000Y-139700000D03*
X168870000Y-139700000D03*
%TD*%
%TO.C,Q1*%
G36*
G01*
X111065000Y-125217500D02*
X111065000Y-126242500D01*
G75*
G02*
X110777500Y-126530000I-287500J0D01*
G01*
X110202500Y-126530000D01*
G75*
G02*
X109915000Y-126242500I0J287500D01*
G01*
X109915000Y-125217500D01*
G75*
G02*
X110202500Y-124930000I287500J0D01*
G01*
X110777500Y-124930000D01*
G75*
G02*
X111065000Y-125217500I0J-287500D01*
G01*
G37*
G36*
G01*
X109795000Y-125217500D02*
X109795000Y-126242500D01*
G75*
G02*
X109507500Y-126530000I-287500J0D01*
G01*
X108932500Y-126530000D01*
G75*
G02*
X108645000Y-126242500I0J287500D01*
G01*
X108645000Y-125217500D01*
G75*
G02*
X108932500Y-124930000I287500J0D01*
G01*
X109507500Y-124930000D01*
G75*
G02*
X109795000Y-125217500I0J-287500D01*
G01*
G37*
D16*
X111760000Y-125730000D03*
%TD*%
D17*
%TO.C,R1*%
X110490000Y-118110000D03*
D18*
X110490000Y-115570000D03*
%TD*%
D19*
%TO.C,U6*%
X167640000Y-124460000D03*
X167640000Y-107315000D03*
X128143000Y-124460000D03*
X128143000Y-107315000D03*
%TD*%
D13*
%TO.C,U12*%
X128270000Y-139700000D03*
X125730000Y-139700000D03*
%TD*%
D20*
%TO.C,J1*%
X119380000Y-59690000D03*
D21*
X121920000Y-59690000D03*
X124460000Y-59690000D03*
X127000000Y-59690000D03*
%TD*%
%TO.C,J2*%
X143510000Y-59690000D03*
X140970000Y-59690000D03*
X138430000Y-59690000D03*
D20*
X135890000Y-59690000D03*
%TD*%
D18*
%TO.C,R2*%
X96520000Y-53340000D03*
D17*
X99060000Y-53340000D03*
%TD*%
%TO.C,R3*%
X107950000Y-38100000D03*
D18*
X105410000Y-38100000D03*
%TD*%
D20*
%TO.C,U13*%
X125730000Y-45720000D03*
D21*
X123190000Y-45720000D03*
X120650000Y-45720000D03*
X118110000Y-45720000D03*
%TD*%
M02*
