%TF.GenerationSoftware,KiCad,Pcbnew,(5.1.6)-1*%
%TF.CreationDate,2020-07-17T12:23:20-05:00*%
%TF.ProjectId,Covid,436f7669-642e-46b6-9963-61645f706362,rev?*%
%TF.SameCoordinates,Original*%
%TF.FileFunction,Other,Fab,Top*%
%FSLAX46Y46*%
G04 Gerber Fmt 4.6, Leading zero omitted, Abs format (unit mm)*
G04 Created by KiCad (PCBNEW (5.1.6)-1) date 2020-07-17 12:23:20*
%MOMM*%
%LPD*%
G01*
G04 APERTURE LIST*
%ADD10C,0.100000*%
%ADD11C,0.150000*%
G04 APERTURE END LIST*
D10*
%TO.C,Q1*%
X112460000Y-124130000D02*
X108710000Y-124130000D01*
X108668897Y-124137453D02*
G75*
G03*
X110570000Y-128210000I1901103J-1592547D01*
G01*
X112462818Y-124127615D02*
G75*
G02*
X110570000Y-128210000I-1892818J-1602385D01*
G01*
%TO.C,R1*%
X110490000Y-118110000D02*
X110490000Y-115570000D01*
X112090000Y-118110000D02*
G75*
G03*
X112090000Y-118110000I-1600000J0D01*
G01*
%TO.C,J1*%
X127701000Y-58855000D02*
X126166000Y-60390000D01*
X127835000Y-58990000D02*
X126300000Y-60525000D01*
X125161000Y-58855000D02*
X123626000Y-60390000D01*
X125295000Y-58990000D02*
X123760000Y-60525000D01*
X122621000Y-58855000D02*
X121086000Y-60390000D01*
X122755000Y-58990000D02*
X121220000Y-60525000D01*
X120081000Y-58855000D02*
X118545000Y-60390000D01*
X120215000Y-58990000D02*
X118679000Y-60525000D01*
X117880000Y-57440000D02*
X128500000Y-57440000D01*
X117880000Y-62540000D02*
X128500000Y-62540000D01*
X117880000Y-62540000D02*
X117880000Y-56440000D01*
X118280000Y-62940000D02*
X117880000Y-62540000D01*
X128500000Y-62940000D02*
X118280000Y-62940000D01*
X128500000Y-56440000D02*
X128500000Y-62940000D01*
X117880000Y-56440000D02*
X128500000Y-56440000D01*
X128100000Y-59690000D02*
G75*
G03*
X128100000Y-59690000I-1100000J0D01*
G01*
X125560000Y-59690000D02*
G75*
G03*
X125560000Y-59690000I-1100000J0D01*
G01*
X123020000Y-59690000D02*
G75*
G03*
X123020000Y-59690000I-1100000J0D01*
G01*
X120480000Y-59690000D02*
G75*
G03*
X120480000Y-59690000I-1100000J0D01*
G01*
%TO.C,J2*%
X136990000Y-59690000D02*
G75*
G03*
X136990000Y-59690000I-1100000J0D01*
G01*
X139530000Y-59690000D02*
G75*
G03*
X139530000Y-59690000I-1100000J0D01*
G01*
X142070000Y-59690000D02*
G75*
G03*
X142070000Y-59690000I-1100000J0D01*
G01*
X144610000Y-59690000D02*
G75*
G03*
X144610000Y-59690000I-1100000J0D01*
G01*
X134390000Y-56440000D02*
X145010000Y-56440000D01*
X145010000Y-56440000D02*
X145010000Y-62940000D01*
X145010000Y-62940000D02*
X134790000Y-62940000D01*
X134790000Y-62940000D02*
X134390000Y-62540000D01*
X134390000Y-62540000D02*
X134390000Y-56440000D01*
X134390000Y-62540000D02*
X145010000Y-62540000D01*
X134390000Y-57440000D02*
X145010000Y-57440000D01*
X136725000Y-58990000D02*
X135189000Y-60525000D01*
X136591000Y-58855000D02*
X135055000Y-60390000D01*
X139265000Y-58990000D02*
X137730000Y-60525000D01*
X139131000Y-58855000D02*
X137596000Y-60390000D01*
X141805000Y-58990000D02*
X140270000Y-60525000D01*
X141671000Y-58855000D02*
X140136000Y-60390000D01*
X144345000Y-58990000D02*
X142810000Y-60525000D01*
X144211000Y-58855000D02*
X142676000Y-60390000D01*
%TO.C,R2*%
X100660000Y-53340000D02*
G75*
G03*
X100660000Y-53340000I-1600000J0D01*
G01*
X99060000Y-53340000D02*
X96520000Y-53340000D01*
%TO.C,R3*%
X107950000Y-38100000D02*
X105410000Y-38100000D01*
X109550000Y-38100000D02*
G75*
G03*
X109550000Y-38100000I-1600000J0D01*
G01*
%TO.C,U13*%
X117409000Y-46555000D02*
X118944000Y-45020000D01*
X117275000Y-46420000D02*
X118810000Y-44885000D01*
X119949000Y-46555000D02*
X121484000Y-45020000D01*
X119815000Y-46420000D02*
X121350000Y-44885000D01*
X122489000Y-46555000D02*
X124024000Y-45020000D01*
X122355000Y-46420000D02*
X123890000Y-44885000D01*
X125029000Y-46555000D02*
X126565000Y-45020000D01*
X124895000Y-46420000D02*
X126431000Y-44885000D01*
X127230000Y-47970000D02*
X116610000Y-47970000D01*
X127230000Y-42870000D02*
X116610000Y-42870000D01*
X127230000Y-42870000D02*
X127230000Y-48970000D01*
X126830000Y-42470000D02*
X127230000Y-42870000D01*
X116610000Y-42470000D02*
X126830000Y-42470000D01*
X116610000Y-48970000D02*
X116610000Y-42470000D01*
X127230000Y-48970000D02*
X116610000Y-48970000D01*
X119210000Y-45720000D02*
G75*
G03*
X119210000Y-45720000I-1100000J0D01*
G01*
X121750000Y-45720000D02*
G75*
G03*
X121750000Y-45720000I-1100000J0D01*
G01*
X124290000Y-45720000D02*
G75*
G03*
X124290000Y-45720000I-1100000J0D01*
G01*
X126830000Y-45720000D02*
G75*
G03*
X126830000Y-45720000I-1100000J0D01*
G01*
%TD*%
%TO.C,U3*%
D11*
X171458571Y-94146666D02*
X171934761Y-94146666D01*
X171363333Y-94432380D02*
X171696666Y-93432380D01*
X172030000Y-94432380D01*
X172363333Y-94432380D02*
X172363333Y-93432380D01*
X172696666Y-94146666D01*
X173030000Y-93432380D01*
X173030000Y-94432380D01*
X173506190Y-94432380D02*
X173506190Y-93432380D01*
X173887142Y-93432380D01*
X173982380Y-93480000D01*
X174030000Y-93527619D01*
X174077619Y-93622857D01*
X174077619Y-93765714D01*
X174030000Y-93860952D01*
X173982380Y-93908571D01*
X173887142Y-93956190D01*
X173506190Y-93956190D01*
X174982380Y-94432380D02*
X174506190Y-94432380D01*
X174506190Y-93432380D01*
X175315714Y-94432380D02*
X175315714Y-93432380D01*
X176125238Y-93908571D02*
X175791904Y-93908571D01*
X175791904Y-94432380D02*
X175791904Y-93432380D01*
X176268095Y-93432380D01*
X176649047Y-94432380D02*
X176649047Y-93432380D01*
X177696666Y-94337142D02*
X177649047Y-94384761D01*
X177506190Y-94432380D01*
X177410952Y-94432380D01*
X177268095Y-94384761D01*
X177172857Y-94289523D01*
X177125238Y-94194285D01*
X177077619Y-94003809D01*
X177077619Y-93860952D01*
X177125238Y-93670476D01*
X177172857Y-93575238D01*
X177268095Y-93480000D01*
X177410952Y-93432380D01*
X177506190Y-93432380D01*
X177649047Y-93480000D01*
X177696666Y-93527619D01*
X178077619Y-94146666D02*
X178553809Y-94146666D01*
X177982380Y-94432380D02*
X178315714Y-93432380D01*
X178649047Y-94432380D01*
X178982380Y-94432380D02*
X178982380Y-93432380D01*
X179220476Y-93432380D01*
X179363333Y-93480000D01*
X179458571Y-93575238D01*
X179506190Y-93670476D01*
X179553809Y-93860952D01*
X179553809Y-94003809D01*
X179506190Y-94194285D01*
X179458571Y-94289523D01*
X179363333Y-94384761D01*
X179220476Y-94432380D01*
X178982380Y-94432380D01*
X180172857Y-93432380D02*
X180363333Y-93432380D01*
X180458571Y-93480000D01*
X180553809Y-93575238D01*
X180601428Y-93765714D01*
X180601428Y-94099047D01*
X180553809Y-94289523D01*
X180458571Y-94384761D01*
X180363333Y-94432380D01*
X180172857Y-94432380D01*
X180077619Y-94384761D01*
X179982380Y-94289523D01*
X179934761Y-94099047D01*
X179934761Y-93765714D01*
X179982380Y-93575238D01*
X180077619Y-93480000D01*
X180172857Y-93432380D01*
X181601428Y-94432380D02*
X181268095Y-93956190D01*
X181030000Y-94432380D02*
X181030000Y-93432380D01*
X181410952Y-93432380D01*
X181506190Y-93480000D01*
X181553809Y-93527619D01*
X181601428Y-93622857D01*
X181601428Y-93765714D01*
X181553809Y-93860952D01*
X181506190Y-93908571D01*
X181410952Y-93956190D01*
X181030000Y-93956190D01*
%TO.C,U4*%
X62206666Y-109942380D02*
X62778095Y-109942380D01*
X62492380Y-110942380D02*
X62492380Y-109942380D01*
X63111428Y-110942380D02*
X63111428Y-110275714D01*
X63111428Y-110466190D02*
X63159047Y-110370952D01*
X63206666Y-110323333D01*
X63301904Y-110275714D01*
X63397142Y-110275714D01*
X63730476Y-110942380D02*
X63730476Y-110275714D01*
X63730476Y-109942380D02*
X63682857Y-109990000D01*
X63730476Y-110037619D01*
X63778095Y-109990000D01*
X63730476Y-109942380D01*
X63730476Y-110037619D01*
X64206666Y-110275714D02*
X64206666Y-110942380D01*
X64206666Y-110370952D02*
X64254285Y-110323333D01*
X64349523Y-110275714D01*
X64492380Y-110275714D01*
X64587619Y-110323333D01*
X64635238Y-110418571D01*
X64635238Y-110942380D01*
X65111428Y-110942380D02*
X65111428Y-109942380D01*
X65206666Y-110561428D02*
X65492380Y-110942380D01*
X65492380Y-110275714D02*
X65111428Y-110656666D01*
X66301904Y-110894761D02*
X66206666Y-110942380D01*
X66016190Y-110942380D01*
X65920952Y-110894761D01*
X65873333Y-110799523D01*
X65873333Y-110418571D01*
X65920952Y-110323333D01*
X66016190Y-110275714D01*
X66206666Y-110275714D01*
X66301904Y-110323333D01*
X66349523Y-110418571D01*
X66349523Y-110513809D01*
X65873333Y-110609047D01*
X66635238Y-110275714D02*
X67016190Y-110275714D01*
X66778095Y-109942380D02*
X66778095Y-110799523D01*
X66825714Y-110894761D01*
X66920952Y-110942380D01*
X67016190Y-110942380D01*
X67111428Y-111037619D02*
X67873333Y-111037619D01*
X68111428Y-110942380D02*
X68111428Y-109942380D01*
X68444761Y-110656666D01*
X68778095Y-109942380D01*
X68778095Y-110942380D01*
X69444761Y-109942380D02*
X69540000Y-109942380D01*
X69635238Y-109990000D01*
X69682857Y-110037619D01*
X69730476Y-110132857D01*
X69778095Y-110323333D01*
X69778095Y-110561428D01*
X69730476Y-110751904D01*
X69682857Y-110847142D01*
X69635238Y-110894761D01*
X69540000Y-110942380D01*
X69444761Y-110942380D01*
X69349523Y-110894761D01*
X69301904Y-110847142D01*
X69254285Y-110751904D01*
X69206666Y-110561428D01*
X69206666Y-110323333D01*
X69254285Y-110132857D01*
X69301904Y-110037619D01*
X69349523Y-109990000D01*
X69444761Y-109942380D01*
%TO.C,U1*%
X61357142Y-54538571D02*
X61690476Y-54538571D01*
X61833333Y-55062380D02*
X61357142Y-55062380D01*
X61357142Y-54062380D01*
X61833333Y-54062380D01*
X62214285Y-55014761D02*
X62357142Y-55062380D01*
X62595238Y-55062380D01*
X62690476Y-55014761D01*
X62738095Y-54967142D01*
X62785714Y-54871904D01*
X62785714Y-54776666D01*
X62738095Y-54681428D01*
X62690476Y-54633809D01*
X62595238Y-54586190D01*
X62404761Y-54538571D01*
X62309523Y-54490952D01*
X62261904Y-54443333D01*
X62214285Y-54348095D01*
X62214285Y-54252857D01*
X62261904Y-54157619D01*
X62309523Y-54110000D01*
X62404761Y-54062380D01*
X62642857Y-54062380D01*
X62785714Y-54110000D01*
X63214285Y-55062380D02*
X63214285Y-54062380D01*
X63595238Y-54062380D01*
X63690476Y-54110000D01*
X63738095Y-54157619D01*
X63785714Y-54252857D01*
X63785714Y-54395714D01*
X63738095Y-54490952D01*
X63690476Y-54538571D01*
X63595238Y-54586190D01*
X63214285Y-54586190D01*
X64119047Y-54062380D02*
X64738095Y-54062380D01*
X64404761Y-54443333D01*
X64547619Y-54443333D01*
X64642857Y-54490952D01*
X64690476Y-54538571D01*
X64738095Y-54633809D01*
X64738095Y-54871904D01*
X64690476Y-54967142D01*
X64642857Y-55014761D01*
X64547619Y-55062380D01*
X64261904Y-55062380D01*
X64166666Y-55014761D01*
X64119047Y-54967142D01*
X65119047Y-54157619D02*
X65166666Y-54110000D01*
X65261904Y-54062380D01*
X65500000Y-54062380D01*
X65595238Y-54110000D01*
X65642857Y-54157619D01*
X65690476Y-54252857D01*
X65690476Y-54348095D01*
X65642857Y-54490952D01*
X65071428Y-55062380D01*
X65690476Y-55062380D01*
%TO.C,U2*%
X88082380Y-47267619D02*
X88082380Y-47743809D01*
X87082380Y-47743809D01*
X87796666Y-46981904D02*
X87796666Y-46505714D01*
X88082380Y-47077142D02*
X87082380Y-46743809D01*
X88082380Y-46410476D01*
X88034761Y-46124761D02*
X88082380Y-45981904D01*
X88082380Y-45743809D01*
X88034761Y-45648571D01*
X87987142Y-45600952D01*
X87891904Y-45553333D01*
X87796666Y-45553333D01*
X87701428Y-45600952D01*
X87653809Y-45648571D01*
X87606190Y-45743809D01*
X87558571Y-45934285D01*
X87510952Y-46029523D01*
X87463333Y-46077142D01*
X87368095Y-46124761D01*
X87272857Y-46124761D01*
X87177619Y-46077142D01*
X87130000Y-46029523D01*
X87082380Y-45934285D01*
X87082380Y-45696190D01*
X87130000Y-45553333D01*
X87558571Y-45124761D02*
X87558571Y-44791428D01*
X88082380Y-44648571D02*
X88082380Y-45124761D01*
X87082380Y-45124761D01*
X87082380Y-44648571D01*
X88082380Y-43648571D02*
X87606190Y-43981904D01*
X88082380Y-44220000D02*
X87082380Y-44220000D01*
X87082380Y-43839047D01*
X87130000Y-43743809D01*
X87177619Y-43696190D01*
X87272857Y-43648571D01*
X87415714Y-43648571D01*
X87510952Y-43696190D01*
X87558571Y-43743809D01*
X87606190Y-43839047D01*
X87606190Y-44220000D01*
%TO.C,U5*%
X121132858Y-94702380D02*
X121132858Y-95416666D01*
X121085239Y-95559523D01*
X120990001Y-95654761D01*
X120847143Y-95702380D01*
X120751905Y-95702380D01*
X122275715Y-95797619D02*
X122180477Y-95750000D01*
X122085239Y-95654761D01*
X121942381Y-95511904D01*
X121847143Y-95464285D01*
X121751905Y-95464285D01*
X121799524Y-95702380D02*
X121704286Y-95654761D01*
X121609048Y-95559523D01*
X121561429Y-95369047D01*
X121561429Y-95035714D01*
X121609048Y-94845238D01*
X121704286Y-94750000D01*
X121799524Y-94702380D01*
X121990001Y-94702380D01*
X122085239Y-94750000D01*
X122180477Y-94845238D01*
X122228096Y-95035714D01*
X122228096Y-95369047D01*
X122180477Y-95559523D01*
X122085239Y-95654761D01*
X121990001Y-95702380D01*
X121799524Y-95702380D01*
X123085239Y-94702380D02*
X122894762Y-94702380D01*
X122799524Y-94750000D01*
X122751905Y-94797619D01*
X122656667Y-94940476D01*
X122609048Y-95130952D01*
X122609048Y-95511904D01*
X122656667Y-95607142D01*
X122704286Y-95654761D01*
X122799524Y-95702380D01*
X122990001Y-95702380D01*
X123085239Y-95654761D01*
X123132858Y-95607142D01*
X123180477Y-95511904D01*
X123180477Y-95273809D01*
X123132858Y-95178571D01*
X123085239Y-95130952D01*
X122990001Y-95083333D01*
X122799524Y-95083333D01*
X122704286Y-95130952D01*
X122656667Y-95178571D01*
X122609048Y-95273809D01*
X124085239Y-94702380D02*
X123609048Y-94702380D01*
X123561429Y-95178571D01*
X123609048Y-95130952D01*
X123704286Y-95083333D01*
X123942381Y-95083333D01*
X124037620Y-95130952D01*
X124085239Y-95178571D01*
X124132858Y-95273809D01*
X124132858Y-95511904D01*
X124085239Y-95607142D01*
X124037620Y-95654761D01*
X123942381Y-95702380D01*
X123704286Y-95702380D01*
X123609048Y-95654761D01*
X123561429Y-95607142D01*
X124751905Y-94702380D02*
X124847143Y-94702380D01*
X124942381Y-94750000D01*
X124990001Y-94797619D01*
X125037620Y-94892857D01*
X125085239Y-95083333D01*
X125085239Y-95321428D01*
X125037620Y-95511904D01*
X124990001Y-95607142D01*
X124942381Y-95654761D01*
X124847143Y-95702380D01*
X124751905Y-95702380D01*
X124656667Y-95654761D01*
X124609048Y-95607142D01*
X124561429Y-95511904D01*
X124513810Y-95321428D01*
X124513810Y-95083333D01*
X124561429Y-94892857D01*
X124609048Y-94797619D01*
X124656667Y-94750000D01*
X124751905Y-94702380D01*
X125704286Y-94702380D02*
X125799524Y-94702380D01*
X125894762Y-94750000D01*
X125942381Y-94797619D01*
X125990001Y-94892857D01*
X126037620Y-95083333D01*
X126037620Y-95321428D01*
X125990001Y-95511904D01*
X125942381Y-95607142D01*
X125894762Y-95654761D01*
X125799524Y-95702380D01*
X125704286Y-95702380D01*
X125609048Y-95654761D01*
X125561429Y-95607142D01*
X125513810Y-95511904D01*
X125466191Y-95321428D01*
X125466191Y-95083333D01*
X125513810Y-94892857D01*
X125561429Y-94797619D01*
X125609048Y-94750000D01*
X125704286Y-94702380D01*
X126466191Y-95321428D02*
X127228096Y-95321428D01*
X128228096Y-95702380D02*
X127656667Y-95702380D01*
X127942381Y-95702380D02*
X127942381Y-94702380D01*
X127847143Y-94845238D01*
X127751905Y-94940476D01*
X127656667Y-94988095D01*
X129085239Y-94702380D02*
X128894762Y-94702380D01*
X128799524Y-94750000D01*
X128751905Y-94797619D01*
X128656667Y-94940476D01*
X128609048Y-95130952D01*
X128609048Y-95511904D01*
X128656667Y-95607142D01*
X128704286Y-95654761D01*
X128799524Y-95702380D01*
X128990001Y-95702380D01*
X129085239Y-95654761D01*
X129132858Y-95607142D01*
X129180477Y-95511904D01*
X129180477Y-95273809D01*
X129132858Y-95178571D01*
X129085239Y-95130952D01*
X128990001Y-95083333D01*
X128799524Y-95083333D01*
X128704286Y-95130952D01*
X128656667Y-95178571D01*
X128609048Y-95273809D01*
X129609048Y-95702380D02*
X129609048Y-94702380D01*
X129990001Y-94702380D01*
X130085239Y-94750000D01*
X130132858Y-94797619D01*
X130180477Y-94892857D01*
X130180477Y-95035714D01*
X130132858Y-95130952D01*
X130085239Y-95178571D01*
X129990001Y-95226190D01*
X129609048Y-95226190D01*
%TO.C,U7*%
X39219523Y-87558571D02*
X39362380Y-87606190D01*
X39410000Y-87653809D01*
X39457619Y-87749047D01*
X39457619Y-87891904D01*
X39410000Y-87987142D01*
X39362380Y-88034761D01*
X39267142Y-88082380D01*
X38886190Y-88082380D01*
X38886190Y-87082380D01*
X39219523Y-87082380D01*
X39314761Y-87130000D01*
X39362380Y-87177619D01*
X39410000Y-87272857D01*
X39410000Y-87368095D01*
X39362380Y-87463333D01*
X39314761Y-87510952D01*
X39219523Y-87558571D01*
X38886190Y-87558571D01*
X40029047Y-88082380D02*
X39933809Y-88034761D01*
X39886190Y-87987142D01*
X39838571Y-87891904D01*
X39838571Y-87606190D01*
X39886190Y-87510952D01*
X39933809Y-87463333D01*
X40029047Y-87415714D01*
X40171904Y-87415714D01*
X40267142Y-87463333D01*
X40314761Y-87510952D01*
X40362380Y-87606190D01*
X40362380Y-87891904D01*
X40314761Y-87987142D01*
X40267142Y-88034761D01*
X40171904Y-88082380D01*
X40029047Y-88082380D01*
X40648095Y-87415714D02*
X41029047Y-87415714D01*
X40790952Y-87082380D02*
X40790952Y-87939523D01*
X40838571Y-88034761D01*
X40933809Y-88082380D01*
X41029047Y-88082380D01*
X41505238Y-88082380D02*
X41410000Y-88034761D01*
X41362380Y-87987142D01*
X41314761Y-87891904D01*
X41314761Y-87606190D01*
X41362380Y-87510952D01*
X41410000Y-87463333D01*
X41505238Y-87415714D01*
X41648095Y-87415714D01*
X41743333Y-87463333D01*
X41790952Y-87510952D01*
X41838571Y-87606190D01*
X41838571Y-87891904D01*
X41790952Y-87987142D01*
X41743333Y-88034761D01*
X41648095Y-88082380D01*
X41505238Y-88082380D01*
X42267142Y-87415714D02*
X42267142Y-88082380D01*
X42267142Y-87510952D02*
X42314761Y-87463333D01*
X42410000Y-87415714D01*
X42552857Y-87415714D01*
X42648095Y-87463333D01*
X42695714Y-87558571D01*
X42695714Y-88082380D01*
X42933809Y-88177619D02*
X43695714Y-88177619D01*
X43933809Y-88082380D02*
X43933809Y-87082380D01*
X44981428Y-88082380D02*
X44648095Y-87606190D01*
X44410000Y-88082380D02*
X44410000Y-87082380D01*
X44790952Y-87082380D01*
X44886190Y-87130000D01*
X44933809Y-87177619D01*
X44981428Y-87272857D01*
X44981428Y-87415714D01*
X44933809Y-87510952D01*
X44886190Y-87558571D01*
X44790952Y-87606190D01*
X44410000Y-87606190D01*
%TO.C,U8*%
X39219523Y-64698571D02*
X39362380Y-64746190D01*
X39410000Y-64793809D01*
X39457619Y-64889047D01*
X39457619Y-65031904D01*
X39410000Y-65127142D01*
X39362380Y-65174761D01*
X39267142Y-65222380D01*
X38886190Y-65222380D01*
X38886190Y-64222380D01*
X39219523Y-64222380D01*
X39314761Y-64270000D01*
X39362380Y-64317619D01*
X39410000Y-64412857D01*
X39410000Y-64508095D01*
X39362380Y-64603333D01*
X39314761Y-64650952D01*
X39219523Y-64698571D01*
X38886190Y-64698571D01*
X40029047Y-65222380D02*
X39933809Y-65174761D01*
X39886190Y-65127142D01*
X39838571Y-65031904D01*
X39838571Y-64746190D01*
X39886190Y-64650952D01*
X39933809Y-64603333D01*
X40029047Y-64555714D01*
X40171904Y-64555714D01*
X40267142Y-64603333D01*
X40314761Y-64650952D01*
X40362380Y-64746190D01*
X40362380Y-65031904D01*
X40314761Y-65127142D01*
X40267142Y-65174761D01*
X40171904Y-65222380D01*
X40029047Y-65222380D01*
X40648095Y-64555714D02*
X41029047Y-64555714D01*
X40790952Y-64222380D02*
X40790952Y-65079523D01*
X40838571Y-65174761D01*
X40933809Y-65222380D01*
X41029047Y-65222380D01*
X41505238Y-65222380D02*
X41410000Y-65174761D01*
X41362380Y-65127142D01*
X41314761Y-65031904D01*
X41314761Y-64746190D01*
X41362380Y-64650952D01*
X41410000Y-64603333D01*
X41505238Y-64555714D01*
X41648095Y-64555714D01*
X41743333Y-64603333D01*
X41790952Y-64650952D01*
X41838571Y-64746190D01*
X41838571Y-65031904D01*
X41790952Y-65127142D01*
X41743333Y-65174761D01*
X41648095Y-65222380D01*
X41505238Y-65222380D01*
X42267142Y-64555714D02*
X42267142Y-65222380D01*
X42267142Y-64650952D02*
X42314761Y-64603333D01*
X42410000Y-64555714D01*
X42552857Y-64555714D01*
X42648095Y-64603333D01*
X42695714Y-64698571D01*
X42695714Y-65222380D01*
X42933809Y-65317619D02*
X43695714Y-65317619D01*
X43933809Y-65222380D02*
X43933809Y-64222380D01*
X44981428Y-65222380D02*
X44648095Y-64746190D01*
X44410000Y-65222380D02*
X44410000Y-64222380D01*
X44790952Y-64222380D01*
X44886190Y-64270000D01*
X44933809Y-64317619D01*
X44981428Y-64412857D01*
X44981428Y-64555714D01*
X44933809Y-64650952D01*
X44886190Y-64698571D01*
X44790952Y-64746190D01*
X44410000Y-64746190D01*
%TO.C,U9*%
X103322380Y-48045238D02*
X102322380Y-48045238D01*
X103036666Y-47711904D01*
X102322380Y-47378571D01*
X103322380Y-47378571D01*
X103322380Y-46426190D02*
X103322380Y-46902380D01*
X102322380Y-46902380D01*
X102322380Y-46188095D02*
X103322380Y-45521428D01*
X102322380Y-45521428D02*
X103322380Y-46188095D01*
X103322380Y-45092857D02*
X103322380Y-44902380D01*
X103274761Y-44807142D01*
X103227142Y-44759523D01*
X103084285Y-44664285D01*
X102893809Y-44616666D01*
X102512857Y-44616666D01*
X102417619Y-44664285D01*
X102370000Y-44711904D01*
X102322380Y-44807142D01*
X102322380Y-44997619D01*
X102370000Y-45092857D01*
X102417619Y-45140476D01*
X102512857Y-45188095D01*
X102750952Y-45188095D01*
X102846190Y-45140476D01*
X102893809Y-45092857D01*
X102941428Y-44997619D01*
X102941428Y-44807142D01*
X102893809Y-44711904D01*
X102846190Y-44664285D01*
X102750952Y-44616666D01*
X102322380Y-43997619D02*
X102322380Y-43902380D01*
X102370000Y-43807142D01*
X102417619Y-43759523D01*
X102512857Y-43711904D01*
X102703333Y-43664285D01*
X102941428Y-43664285D01*
X103131904Y-43711904D01*
X103227142Y-43759523D01*
X103274761Y-43807142D01*
X103322380Y-43902380D01*
X103322380Y-43997619D01*
X103274761Y-44092857D01*
X103227142Y-44140476D01*
X103131904Y-44188095D01*
X102941428Y-44235714D01*
X102703333Y-44235714D01*
X102512857Y-44188095D01*
X102417619Y-44140476D01*
X102370000Y-44092857D01*
X102322380Y-43997619D01*
X102322380Y-42807142D02*
X102322380Y-42997619D01*
X102370000Y-43092857D01*
X102417619Y-43140476D01*
X102560476Y-43235714D01*
X102750952Y-43283333D01*
X103131904Y-43283333D01*
X103227142Y-43235714D01*
X103274761Y-43188095D01*
X103322380Y-43092857D01*
X103322380Y-42902380D01*
X103274761Y-42807142D01*
X103227142Y-42759523D01*
X103131904Y-42711904D01*
X102893809Y-42711904D01*
X102798571Y-42759523D01*
X102750952Y-42807142D01*
X102703333Y-42902380D01*
X102703333Y-43092857D01*
X102750952Y-43188095D01*
X102798571Y-43235714D01*
X102893809Y-43283333D01*
X103322380Y-41759523D02*
X103322380Y-42330952D01*
X103322380Y-42045238D02*
X102322380Y-42045238D01*
X102465238Y-42140476D01*
X102560476Y-42235714D01*
X102608095Y-42330952D01*
X102655714Y-40902380D02*
X103322380Y-40902380D01*
X102274761Y-41140476D02*
X102989047Y-41378571D01*
X102989047Y-40759523D01*
%TO.C,U11*%
X128722380Y-47656190D02*
X127722380Y-47656190D01*
X127722380Y-47275238D01*
X127770000Y-47180000D01*
X127817619Y-47132380D01*
X127912857Y-47084761D01*
X128055714Y-47084761D01*
X128150952Y-47132380D01*
X128198571Y-47180000D01*
X128246190Y-47275238D01*
X128246190Y-47656190D01*
X128722380Y-46227619D02*
X128198571Y-46227619D01*
X128103333Y-46275238D01*
X128055714Y-46370476D01*
X128055714Y-46560952D01*
X128103333Y-46656190D01*
X128674761Y-46227619D02*
X128722380Y-46322857D01*
X128722380Y-46560952D01*
X128674761Y-46656190D01*
X128579523Y-46703809D01*
X128484285Y-46703809D01*
X128389047Y-46656190D01*
X128341428Y-46560952D01*
X128341428Y-46322857D01*
X128293809Y-46227619D01*
X128055714Y-45751428D02*
X128722380Y-45751428D01*
X128150952Y-45751428D02*
X128103333Y-45703809D01*
X128055714Y-45608571D01*
X128055714Y-45465714D01*
X128103333Y-45370476D01*
X128198571Y-45322857D01*
X128722380Y-45322857D01*
X128055714Y-44989523D02*
X128055714Y-44608571D01*
X127722380Y-44846666D02*
X128579523Y-44846666D01*
X128674761Y-44799047D01*
X128722380Y-44703809D01*
X128722380Y-44608571D01*
X128722380Y-43846666D02*
X128198571Y-43846666D01*
X128103333Y-43894285D01*
X128055714Y-43989523D01*
X128055714Y-44180000D01*
X128103333Y-44275238D01*
X128674761Y-43846666D02*
X128722380Y-43941904D01*
X128722380Y-44180000D01*
X128674761Y-44275238D01*
X128579523Y-44322857D01*
X128484285Y-44322857D01*
X128389047Y-44275238D01*
X128341428Y-44180000D01*
X128341428Y-43941904D01*
X128293809Y-43846666D01*
X128722380Y-43227619D02*
X128674761Y-43322857D01*
X128579523Y-43370476D01*
X127722380Y-43370476D01*
X128722380Y-42703809D02*
X128674761Y-42799047D01*
X128579523Y-42846666D01*
X127722380Y-42846666D01*
X128722380Y-41894285D02*
X128198571Y-41894285D01*
X128103333Y-41941904D01*
X128055714Y-42037142D01*
X128055714Y-42227619D01*
X128103333Y-42322857D01*
X128674761Y-41894285D02*
X128722380Y-41989523D01*
X128722380Y-42227619D01*
X128674761Y-42322857D01*
X128579523Y-42370476D01*
X128484285Y-42370476D01*
X128389047Y-42322857D01*
X128341428Y-42227619D01*
X128341428Y-41989523D01*
X128293809Y-41894285D01*
X128817619Y-41656190D02*
X128817619Y-40894285D01*
X128674761Y-40703809D02*
X128722380Y-40560952D01*
X128722380Y-40322857D01*
X128674761Y-40227619D01*
X128627142Y-40180000D01*
X128531904Y-40132380D01*
X128436666Y-40132380D01*
X128341428Y-40180000D01*
X128293809Y-40227619D01*
X128246190Y-40322857D01*
X128198571Y-40513333D01*
X128150952Y-40608571D01*
X128103333Y-40656190D01*
X128008095Y-40703809D01*
X127912857Y-40703809D01*
X127817619Y-40656190D01*
X127770000Y-40608571D01*
X127722380Y-40513333D01*
X127722380Y-40275238D01*
X127770000Y-40132380D01*
X128722380Y-39703809D02*
X127722380Y-39703809D01*
X127722380Y-39322857D01*
X127770000Y-39227619D01*
X127817619Y-39180000D01*
X127912857Y-39132380D01*
X128055714Y-39132380D01*
X128150952Y-39180000D01*
X128198571Y-39227619D01*
X128246190Y-39322857D01*
X128246190Y-39703809D01*
X128722380Y-38703809D02*
X127722380Y-38703809D01*
%TO.C,U10*%
X156614761Y-145025714D02*
X156662380Y-144882857D01*
X156662380Y-144644761D01*
X156614761Y-144549523D01*
X156567142Y-144501904D01*
X156471904Y-144454285D01*
X156376666Y-144454285D01*
X156281428Y-144501904D01*
X156233809Y-144549523D01*
X156186190Y-144644761D01*
X156138571Y-144835238D01*
X156090952Y-144930476D01*
X156043333Y-144978095D01*
X155948095Y-145025714D01*
X155852857Y-145025714D01*
X155757619Y-144978095D01*
X155710000Y-144930476D01*
X155662380Y-144835238D01*
X155662380Y-144597142D01*
X155710000Y-144454285D01*
X155662380Y-143835238D02*
X155662380Y-143644761D01*
X155710000Y-143549523D01*
X155805238Y-143454285D01*
X155995714Y-143406666D01*
X156329047Y-143406666D01*
X156519523Y-143454285D01*
X156614761Y-143549523D01*
X156662380Y-143644761D01*
X156662380Y-143835238D01*
X156614761Y-143930476D01*
X156519523Y-144025714D01*
X156329047Y-144073333D01*
X155995714Y-144073333D01*
X155805238Y-144025714D01*
X155710000Y-143930476D01*
X155662380Y-143835238D01*
X155662380Y-142978095D02*
X156471904Y-142978095D01*
X156567142Y-142930476D01*
X156614761Y-142882857D01*
X156662380Y-142787619D01*
X156662380Y-142597142D01*
X156614761Y-142501904D01*
X156567142Y-142454285D01*
X156471904Y-142406666D01*
X155662380Y-142406666D01*
X156662380Y-141359047D02*
X156186190Y-141692380D01*
X156662380Y-141930476D02*
X155662380Y-141930476D01*
X155662380Y-141549523D01*
X155710000Y-141454285D01*
X155757619Y-141406666D01*
X155852857Y-141359047D01*
X155995714Y-141359047D01*
X156090952Y-141406666D01*
X156138571Y-141454285D01*
X156186190Y-141549523D01*
X156186190Y-141930476D01*
X156567142Y-140359047D02*
X156614761Y-140406666D01*
X156662380Y-140549523D01*
X156662380Y-140644761D01*
X156614761Y-140787619D01*
X156519523Y-140882857D01*
X156424285Y-140930476D01*
X156233809Y-140978095D01*
X156090952Y-140978095D01*
X155900476Y-140930476D01*
X155805238Y-140882857D01*
X155710000Y-140787619D01*
X155662380Y-140644761D01*
X155662380Y-140549523D01*
X155710000Y-140406666D01*
X155757619Y-140359047D01*
X156138571Y-139930476D02*
X156138571Y-139597142D01*
X156662380Y-139454285D02*
X156662380Y-139930476D01*
X155662380Y-139930476D01*
X155662380Y-139454285D01*
%TO.C,Q1*%
X107855714Y-122487619D02*
X107903333Y-122440000D01*
X107998571Y-122392380D01*
X108236666Y-122392380D01*
X108331904Y-122440000D01*
X108379523Y-122487619D01*
X108427142Y-122582857D01*
X108427142Y-122678095D01*
X108379523Y-122820952D01*
X107808095Y-123392380D01*
X108427142Y-123392380D01*
X108855714Y-123392380D02*
X108855714Y-122392380D01*
X109427142Y-123392380D01*
X109427142Y-122392380D01*
X109855714Y-122487619D02*
X109903333Y-122440000D01*
X109998571Y-122392380D01*
X110236666Y-122392380D01*
X110331904Y-122440000D01*
X110379523Y-122487619D01*
X110427142Y-122582857D01*
X110427142Y-122678095D01*
X110379523Y-122820952D01*
X109808095Y-123392380D01*
X110427142Y-123392380D01*
X110808095Y-122487619D02*
X110855714Y-122440000D01*
X110950952Y-122392380D01*
X111189047Y-122392380D01*
X111284285Y-122440000D01*
X111331904Y-122487619D01*
X111379523Y-122582857D01*
X111379523Y-122678095D01*
X111331904Y-122820952D01*
X110760476Y-123392380D01*
X111379523Y-123392380D01*
X112331904Y-123392380D02*
X111760476Y-123392380D01*
X112046190Y-123392380D02*
X112046190Y-122392380D01*
X111950952Y-122535238D01*
X111855714Y-122630476D01*
X111760476Y-122678095D01*
X112808095Y-123392380D02*
X112998571Y-123392380D01*
X113093809Y-123344761D01*
X113141428Y-123297142D01*
X113236666Y-123154285D01*
X113284285Y-122963809D01*
X113284285Y-122582857D01*
X113236666Y-122487619D01*
X113189047Y-122440000D01*
X113093809Y-122392380D01*
X112903333Y-122392380D01*
X112808095Y-122440000D01*
X112760476Y-122487619D01*
X112712857Y-122582857D01*
X112712857Y-122820952D01*
X112760476Y-122916190D01*
X112808095Y-122963809D01*
X112903333Y-123011428D01*
X113093809Y-123011428D01*
X113189047Y-122963809D01*
X113236666Y-122916190D01*
X113284285Y-122820952D01*
X110474761Y-129837619D02*
X110379523Y-129790000D01*
X110284285Y-129694761D01*
X110141428Y-129551904D01*
X110046190Y-129504285D01*
X109950952Y-129504285D01*
X109998571Y-129742380D02*
X109903333Y-129694761D01*
X109808095Y-129599523D01*
X109760476Y-129409047D01*
X109760476Y-129075714D01*
X109808095Y-128885238D01*
X109903333Y-128790000D01*
X109998571Y-128742380D01*
X110189047Y-128742380D01*
X110284285Y-128790000D01*
X110379523Y-128885238D01*
X110427142Y-129075714D01*
X110427142Y-129409047D01*
X110379523Y-129599523D01*
X110284285Y-129694761D01*
X110189047Y-129742380D01*
X109998571Y-129742380D01*
X111379523Y-129742380D02*
X110808095Y-129742380D01*
X111093809Y-129742380D02*
X111093809Y-128742380D01*
X110998571Y-128885238D01*
X110903333Y-128980476D01*
X110808095Y-129028095D01*
%TO.C,R1*%
X113662380Y-116530476D02*
X113186190Y-116863809D01*
X113662380Y-117101904D02*
X112662380Y-117101904D01*
X112662380Y-116720952D01*
X112710000Y-116625714D01*
X112757619Y-116578095D01*
X112852857Y-116530476D01*
X112995714Y-116530476D01*
X113090952Y-116578095D01*
X113138571Y-116625714D01*
X113186190Y-116720952D01*
X113186190Y-117101904D01*
X108222380Y-117006666D02*
X107746190Y-117340000D01*
X108222380Y-117578095D02*
X107222380Y-117578095D01*
X107222380Y-117197142D01*
X107270000Y-117101904D01*
X107317619Y-117054285D01*
X107412857Y-117006666D01*
X107555714Y-117006666D01*
X107650952Y-117054285D01*
X107698571Y-117101904D01*
X107746190Y-117197142D01*
X107746190Y-117578095D01*
X108222380Y-116054285D02*
X108222380Y-116625714D01*
X108222380Y-116340000D02*
X107222380Y-116340000D01*
X107365238Y-116435238D01*
X107460476Y-116530476D01*
X107508095Y-116625714D01*
%TO.C,U6*%
X163417619Y-128722380D02*
X163084285Y-128246190D01*
X162846190Y-128722380D02*
X162846190Y-127722380D01*
X163227142Y-127722380D01*
X163322380Y-127770000D01*
X163370000Y-127817619D01*
X163417619Y-127912857D01*
X163417619Y-128055714D01*
X163370000Y-128150952D01*
X163322380Y-128198571D01*
X163227142Y-128246190D01*
X162846190Y-128246190D01*
X164227142Y-128674761D02*
X164131904Y-128722380D01*
X163941428Y-128722380D01*
X163846190Y-128674761D01*
X163798571Y-128579523D01*
X163798571Y-128198571D01*
X163846190Y-128103333D01*
X163941428Y-128055714D01*
X164131904Y-128055714D01*
X164227142Y-128103333D01*
X164274761Y-128198571D01*
X164274761Y-128293809D01*
X163798571Y-128389047D01*
X165131904Y-128055714D02*
X165131904Y-128865238D01*
X165084285Y-128960476D01*
X165036666Y-129008095D01*
X164941428Y-129055714D01*
X164798571Y-129055714D01*
X164703333Y-129008095D01*
X165131904Y-128674761D02*
X165036666Y-128722380D01*
X164846190Y-128722380D01*
X164750952Y-128674761D01*
X164703333Y-128627142D01*
X164655714Y-128531904D01*
X164655714Y-128246190D01*
X164703333Y-128150952D01*
X164750952Y-128103333D01*
X164846190Y-128055714D01*
X165036666Y-128055714D01*
X165131904Y-128103333D01*
X166036666Y-128055714D02*
X166036666Y-128722380D01*
X165608095Y-128055714D02*
X165608095Y-128579523D01*
X165655714Y-128674761D01*
X165750952Y-128722380D01*
X165893809Y-128722380D01*
X165989047Y-128674761D01*
X166036666Y-128627142D01*
X166655714Y-128722380D02*
X166560476Y-128674761D01*
X166512857Y-128579523D01*
X166512857Y-127722380D01*
X167465238Y-128722380D02*
X167465238Y-128198571D01*
X167417619Y-128103333D01*
X167322380Y-128055714D01*
X167131904Y-128055714D01*
X167036666Y-128103333D01*
X167465238Y-128674761D02*
X167370000Y-128722380D01*
X167131904Y-128722380D01*
X167036666Y-128674761D01*
X166989047Y-128579523D01*
X166989047Y-128484285D01*
X167036666Y-128389047D01*
X167131904Y-128341428D01*
X167370000Y-128341428D01*
X167465238Y-128293809D01*
X168370000Y-128722380D02*
X168370000Y-127722380D01*
X168370000Y-128674761D02*
X168274761Y-128722380D01*
X168084285Y-128722380D01*
X167989047Y-128674761D01*
X167941428Y-128627142D01*
X167893809Y-128531904D01*
X167893809Y-128246190D01*
X167941428Y-128150952D01*
X167989047Y-128103333D01*
X168084285Y-128055714D01*
X168274761Y-128055714D01*
X168370000Y-128103333D01*
X168989047Y-128722380D02*
X168893809Y-128674761D01*
X168846190Y-128627142D01*
X168798571Y-128531904D01*
X168798571Y-128246190D01*
X168846190Y-128150952D01*
X168893809Y-128103333D01*
X168989047Y-128055714D01*
X169131904Y-128055714D01*
X169227142Y-128103333D01*
X169274761Y-128150952D01*
X169322380Y-128246190D01*
X169322380Y-128531904D01*
X169274761Y-128627142D01*
X169227142Y-128674761D01*
X169131904Y-128722380D01*
X168989047Y-128722380D01*
X169750952Y-128722380D02*
X169750952Y-128055714D01*
X169750952Y-128246190D02*
X169798571Y-128150952D01*
X169846190Y-128103333D01*
X169941428Y-128055714D01*
X170036666Y-128055714D01*
%TO.C,U12*%
X132532380Y-141247619D02*
X132532380Y-141723809D01*
X131532380Y-141723809D01*
X132246666Y-140961904D02*
X132246666Y-140485714D01*
X132532380Y-141057142D02*
X131532380Y-140723809D01*
X132532380Y-140390476D01*
X132484761Y-140104761D02*
X132532380Y-139961904D01*
X132532380Y-139723809D01*
X132484761Y-139628571D01*
X132437142Y-139580952D01*
X132341904Y-139533333D01*
X132246666Y-139533333D01*
X132151428Y-139580952D01*
X132103809Y-139628571D01*
X132056190Y-139723809D01*
X132008571Y-139914285D01*
X131960952Y-140009523D01*
X131913333Y-140057142D01*
X131818095Y-140104761D01*
X131722857Y-140104761D01*
X131627619Y-140057142D01*
X131580000Y-140009523D01*
X131532380Y-139914285D01*
X131532380Y-139676190D01*
X131580000Y-139533333D01*
X132008571Y-139104761D02*
X132008571Y-138771428D01*
X132532380Y-138628571D02*
X132532380Y-139104761D01*
X131532380Y-139104761D01*
X131532380Y-138628571D01*
X132532380Y-137628571D02*
X132056190Y-137961904D01*
X132532380Y-138200000D02*
X131532380Y-138200000D01*
X131532380Y-137819047D01*
X131580000Y-137723809D01*
X131627619Y-137676190D01*
X131722857Y-137628571D01*
X131865714Y-137628571D01*
X131960952Y-137676190D01*
X132008571Y-137723809D01*
X132056190Y-137819047D01*
X132056190Y-138200000D01*
%TO.C,J1*%
X117356666Y-64417142D02*
X117309047Y-64464761D01*
X117166190Y-64512380D01*
X117070952Y-64512380D01*
X116928095Y-64464761D01*
X116832857Y-64369523D01*
X116785238Y-64274285D01*
X116737619Y-64083809D01*
X116737619Y-63940952D01*
X116785238Y-63750476D01*
X116832857Y-63655238D01*
X116928095Y-63560000D01*
X117070952Y-63512380D01*
X117166190Y-63512380D01*
X117309047Y-63560000D01*
X117356666Y-63607619D01*
X117928095Y-64512380D02*
X117832857Y-64464761D01*
X117785238Y-64417142D01*
X117737619Y-64321904D01*
X117737619Y-64036190D01*
X117785238Y-63940952D01*
X117832857Y-63893333D01*
X117928095Y-63845714D01*
X118070952Y-63845714D01*
X118166190Y-63893333D01*
X118213809Y-63940952D01*
X118261428Y-64036190D01*
X118261428Y-64321904D01*
X118213809Y-64417142D01*
X118166190Y-64464761D01*
X118070952Y-64512380D01*
X117928095Y-64512380D01*
X118690000Y-63845714D02*
X118690000Y-64512380D01*
X118690000Y-63940952D02*
X118737619Y-63893333D01*
X118832857Y-63845714D01*
X118975714Y-63845714D01*
X119070952Y-63893333D01*
X119118571Y-63988571D01*
X119118571Y-64512380D01*
X119594761Y-63845714D02*
X119594761Y-64512380D01*
X119594761Y-63940952D02*
X119642380Y-63893333D01*
X119737619Y-63845714D01*
X119880476Y-63845714D01*
X119975714Y-63893333D01*
X120023333Y-63988571D01*
X120023333Y-64512380D01*
X120261428Y-64607619D02*
X121023333Y-64607619D01*
X121451904Y-63512380D02*
X121547142Y-63512380D01*
X121642380Y-63560000D01*
X121690000Y-63607619D01*
X121737619Y-63702857D01*
X121785238Y-63893333D01*
X121785238Y-64131428D01*
X121737619Y-64321904D01*
X121690000Y-64417142D01*
X121642380Y-64464761D01*
X121547142Y-64512380D01*
X121451904Y-64512380D01*
X121356666Y-64464761D01*
X121309047Y-64417142D01*
X121261428Y-64321904D01*
X121213809Y-64131428D01*
X121213809Y-63893333D01*
X121261428Y-63702857D01*
X121309047Y-63607619D01*
X121356666Y-63560000D01*
X121451904Y-63512380D01*
X122737619Y-64512380D02*
X122166190Y-64512380D01*
X122451904Y-64512380D02*
X122451904Y-63512380D01*
X122356666Y-63655238D01*
X122261428Y-63750476D01*
X122166190Y-63798095D01*
X123070952Y-64512380D02*
X123594761Y-63845714D01*
X123070952Y-63845714D02*
X123594761Y-64512380D01*
X124166190Y-63512380D02*
X124261428Y-63512380D01*
X124356666Y-63560000D01*
X124404285Y-63607619D01*
X124451904Y-63702857D01*
X124499523Y-63893333D01*
X124499523Y-64131428D01*
X124451904Y-64321904D01*
X124404285Y-64417142D01*
X124356666Y-64464761D01*
X124261428Y-64512380D01*
X124166190Y-64512380D01*
X124070952Y-64464761D01*
X124023333Y-64417142D01*
X123975714Y-64321904D01*
X123928095Y-64131428D01*
X123928095Y-63893333D01*
X123975714Y-63702857D01*
X124023333Y-63607619D01*
X124070952Y-63560000D01*
X124166190Y-63512380D01*
X125356666Y-63845714D02*
X125356666Y-64512380D01*
X125118571Y-63464761D02*
X124880476Y-64179047D01*
X125499523Y-64179047D01*
X125642380Y-64607619D02*
X126404285Y-64607619D01*
X126642380Y-64512380D02*
X126642380Y-63512380D01*
X126975714Y-64226666D01*
X127309047Y-63512380D01*
X127309047Y-64512380D01*
X128213809Y-64512380D02*
X128213809Y-63988571D01*
X128166190Y-63893333D01*
X128070952Y-63845714D01*
X127880476Y-63845714D01*
X127785238Y-63893333D01*
X128213809Y-64464761D02*
X128118571Y-64512380D01*
X127880476Y-64512380D01*
X127785238Y-64464761D01*
X127737619Y-64369523D01*
X127737619Y-64274285D01*
X127785238Y-64179047D01*
X127880476Y-64131428D01*
X128118571Y-64131428D01*
X128213809Y-64083809D01*
X128832857Y-64512380D02*
X128737619Y-64464761D01*
X128690000Y-64369523D01*
X128690000Y-63512380D01*
X129594761Y-64464761D02*
X129499523Y-64512380D01*
X129309047Y-64512380D01*
X129213809Y-64464761D01*
X129166190Y-64369523D01*
X129166190Y-63988571D01*
X129213809Y-63893333D01*
X129309047Y-63845714D01*
X129499523Y-63845714D01*
X129594761Y-63893333D01*
X129642380Y-63988571D01*
X129642380Y-64083809D01*
X129166190Y-64179047D01*
X122856666Y-61142380D02*
X122856666Y-61856666D01*
X122809047Y-61999523D01*
X122713809Y-62094761D01*
X122570952Y-62142380D01*
X122475714Y-62142380D01*
X123856666Y-62142380D02*
X123285238Y-62142380D01*
X123570952Y-62142380D02*
X123570952Y-61142380D01*
X123475714Y-61285238D01*
X123380476Y-61380476D01*
X123285238Y-61428095D01*
%TO.C,J2*%
X133866666Y-64417142D02*
X133819047Y-64464761D01*
X133676190Y-64512380D01*
X133580952Y-64512380D01*
X133438095Y-64464761D01*
X133342857Y-64369523D01*
X133295238Y-64274285D01*
X133247619Y-64083809D01*
X133247619Y-63940952D01*
X133295238Y-63750476D01*
X133342857Y-63655238D01*
X133438095Y-63560000D01*
X133580952Y-63512380D01*
X133676190Y-63512380D01*
X133819047Y-63560000D01*
X133866666Y-63607619D01*
X134438095Y-64512380D02*
X134342857Y-64464761D01*
X134295238Y-64417142D01*
X134247619Y-64321904D01*
X134247619Y-64036190D01*
X134295238Y-63940952D01*
X134342857Y-63893333D01*
X134438095Y-63845714D01*
X134580952Y-63845714D01*
X134676190Y-63893333D01*
X134723809Y-63940952D01*
X134771428Y-64036190D01*
X134771428Y-64321904D01*
X134723809Y-64417142D01*
X134676190Y-64464761D01*
X134580952Y-64512380D01*
X134438095Y-64512380D01*
X135200000Y-63845714D02*
X135200000Y-64512380D01*
X135200000Y-63940952D02*
X135247619Y-63893333D01*
X135342857Y-63845714D01*
X135485714Y-63845714D01*
X135580952Y-63893333D01*
X135628571Y-63988571D01*
X135628571Y-64512380D01*
X136104761Y-63845714D02*
X136104761Y-64512380D01*
X136104761Y-63940952D02*
X136152380Y-63893333D01*
X136247619Y-63845714D01*
X136390476Y-63845714D01*
X136485714Y-63893333D01*
X136533333Y-63988571D01*
X136533333Y-64512380D01*
X136771428Y-64607619D02*
X137533333Y-64607619D01*
X137961904Y-63512380D02*
X138057142Y-63512380D01*
X138152380Y-63560000D01*
X138200000Y-63607619D01*
X138247619Y-63702857D01*
X138295238Y-63893333D01*
X138295238Y-64131428D01*
X138247619Y-64321904D01*
X138200000Y-64417142D01*
X138152380Y-64464761D01*
X138057142Y-64512380D01*
X137961904Y-64512380D01*
X137866666Y-64464761D01*
X137819047Y-64417142D01*
X137771428Y-64321904D01*
X137723809Y-64131428D01*
X137723809Y-63893333D01*
X137771428Y-63702857D01*
X137819047Y-63607619D01*
X137866666Y-63560000D01*
X137961904Y-63512380D01*
X139247619Y-64512380D02*
X138676190Y-64512380D01*
X138961904Y-64512380D02*
X138961904Y-63512380D01*
X138866666Y-63655238D01*
X138771428Y-63750476D01*
X138676190Y-63798095D01*
X139580952Y-64512380D02*
X140104761Y-63845714D01*
X139580952Y-63845714D02*
X140104761Y-64512380D01*
X140676190Y-63512380D02*
X140771428Y-63512380D01*
X140866666Y-63560000D01*
X140914285Y-63607619D01*
X140961904Y-63702857D01*
X141009523Y-63893333D01*
X141009523Y-64131428D01*
X140961904Y-64321904D01*
X140914285Y-64417142D01*
X140866666Y-64464761D01*
X140771428Y-64512380D01*
X140676190Y-64512380D01*
X140580952Y-64464761D01*
X140533333Y-64417142D01*
X140485714Y-64321904D01*
X140438095Y-64131428D01*
X140438095Y-63893333D01*
X140485714Y-63702857D01*
X140533333Y-63607619D01*
X140580952Y-63560000D01*
X140676190Y-63512380D01*
X141866666Y-63845714D02*
X141866666Y-64512380D01*
X141628571Y-63464761D02*
X141390476Y-64179047D01*
X142009523Y-64179047D01*
X142152380Y-64607619D02*
X142914285Y-64607619D01*
X143152380Y-64512380D02*
X143152380Y-63512380D01*
X143485714Y-64226666D01*
X143819047Y-63512380D01*
X143819047Y-64512380D01*
X144723809Y-64512380D02*
X144723809Y-63988571D01*
X144676190Y-63893333D01*
X144580952Y-63845714D01*
X144390476Y-63845714D01*
X144295238Y-63893333D01*
X144723809Y-64464761D02*
X144628571Y-64512380D01*
X144390476Y-64512380D01*
X144295238Y-64464761D01*
X144247619Y-64369523D01*
X144247619Y-64274285D01*
X144295238Y-64179047D01*
X144390476Y-64131428D01*
X144628571Y-64131428D01*
X144723809Y-64083809D01*
X145342857Y-64512380D02*
X145247619Y-64464761D01*
X145200000Y-64369523D01*
X145200000Y-63512380D01*
X146104761Y-64464761D02*
X146009523Y-64512380D01*
X145819047Y-64512380D01*
X145723809Y-64464761D01*
X145676190Y-64369523D01*
X145676190Y-63988571D01*
X145723809Y-63893333D01*
X145819047Y-63845714D01*
X146009523Y-63845714D01*
X146104761Y-63893333D01*
X146152380Y-63988571D01*
X146152380Y-64083809D01*
X145676190Y-64179047D01*
X139366666Y-61142380D02*
X139366666Y-61856666D01*
X139319047Y-61999523D01*
X139223809Y-62094761D01*
X139080952Y-62142380D01*
X138985714Y-62142380D01*
X139795238Y-61237619D02*
X139842857Y-61190000D01*
X139938095Y-61142380D01*
X140176190Y-61142380D01*
X140271428Y-61190000D01*
X140319047Y-61237619D01*
X140366666Y-61332857D01*
X140366666Y-61428095D01*
X140319047Y-61570952D01*
X139747619Y-62142380D01*
X140366666Y-62142380D01*
%TO.C,R2*%
X98099523Y-51072380D02*
X97766190Y-50596190D01*
X97528095Y-51072380D02*
X97528095Y-50072380D01*
X97909047Y-50072380D01*
X98004285Y-50120000D01*
X98051904Y-50167619D01*
X98099523Y-50262857D01*
X98099523Y-50405714D01*
X98051904Y-50500952D01*
X98004285Y-50548571D01*
X97909047Y-50596190D01*
X97528095Y-50596190D01*
X97623333Y-56512380D02*
X97290000Y-56036190D01*
X97051904Y-56512380D02*
X97051904Y-55512380D01*
X97432857Y-55512380D01*
X97528095Y-55560000D01*
X97575714Y-55607619D01*
X97623333Y-55702857D01*
X97623333Y-55845714D01*
X97575714Y-55940952D01*
X97528095Y-55988571D01*
X97432857Y-56036190D01*
X97051904Y-56036190D01*
X98004285Y-55607619D02*
X98051904Y-55560000D01*
X98147142Y-55512380D01*
X98385238Y-55512380D01*
X98480476Y-55560000D01*
X98528095Y-55607619D01*
X98575714Y-55702857D01*
X98575714Y-55798095D01*
X98528095Y-55940952D01*
X97956666Y-56512380D01*
X98575714Y-56512380D01*
%TO.C,R3*%
X106989523Y-35832380D02*
X106656190Y-35356190D01*
X106418095Y-35832380D02*
X106418095Y-34832380D01*
X106799047Y-34832380D01*
X106894285Y-34880000D01*
X106941904Y-34927619D01*
X106989523Y-35022857D01*
X106989523Y-35165714D01*
X106941904Y-35260952D01*
X106894285Y-35308571D01*
X106799047Y-35356190D01*
X106418095Y-35356190D01*
X106513333Y-41272380D02*
X106180000Y-40796190D01*
X105941904Y-41272380D02*
X105941904Y-40272380D01*
X106322857Y-40272380D01*
X106418095Y-40320000D01*
X106465714Y-40367619D01*
X106513333Y-40462857D01*
X106513333Y-40605714D01*
X106465714Y-40700952D01*
X106418095Y-40748571D01*
X106322857Y-40796190D01*
X105941904Y-40796190D01*
X106846666Y-40272380D02*
X107465714Y-40272380D01*
X107132380Y-40653333D01*
X107275238Y-40653333D01*
X107370476Y-40700952D01*
X107418095Y-40748571D01*
X107465714Y-40843809D01*
X107465714Y-41081904D01*
X107418095Y-41177142D01*
X107370476Y-41224761D01*
X107275238Y-41272380D01*
X106989523Y-41272380D01*
X106894285Y-41224761D01*
X106846666Y-41177142D01*
%TO.C,U13*%
X118324761Y-41802380D02*
X118324761Y-40802380D01*
X118658095Y-41516666D01*
X118991428Y-40802380D01*
X118991428Y-41802380D01*
X119943809Y-41802380D02*
X119467619Y-41802380D01*
X119467619Y-40802380D01*
X120181904Y-40802380D02*
X120848571Y-41802380D01*
X120848571Y-40802380D02*
X120181904Y-41802380D01*
X121277142Y-41802380D02*
X121467619Y-41802380D01*
X121562857Y-41754761D01*
X121610476Y-41707142D01*
X121705714Y-41564285D01*
X121753333Y-41373809D01*
X121753333Y-40992857D01*
X121705714Y-40897619D01*
X121658095Y-40850000D01*
X121562857Y-40802380D01*
X121372380Y-40802380D01*
X121277142Y-40850000D01*
X121229523Y-40897619D01*
X121181904Y-40992857D01*
X121181904Y-41230952D01*
X121229523Y-41326190D01*
X121277142Y-41373809D01*
X121372380Y-41421428D01*
X121562857Y-41421428D01*
X121658095Y-41373809D01*
X121705714Y-41326190D01*
X121753333Y-41230952D01*
X122372380Y-40802380D02*
X122467619Y-40802380D01*
X122562857Y-40850000D01*
X122610476Y-40897619D01*
X122658095Y-40992857D01*
X122705714Y-41183333D01*
X122705714Y-41421428D01*
X122658095Y-41611904D01*
X122610476Y-41707142D01*
X122562857Y-41754761D01*
X122467619Y-41802380D01*
X122372380Y-41802380D01*
X122277142Y-41754761D01*
X122229523Y-41707142D01*
X122181904Y-41611904D01*
X122134285Y-41421428D01*
X122134285Y-41183333D01*
X122181904Y-40992857D01*
X122229523Y-40897619D01*
X122277142Y-40850000D01*
X122372380Y-40802380D01*
X123562857Y-40802380D02*
X123372380Y-40802380D01*
X123277142Y-40850000D01*
X123229523Y-40897619D01*
X123134285Y-41040476D01*
X123086666Y-41230952D01*
X123086666Y-41611904D01*
X123134285Y-41707142D01*
X123181904Y-41754761D01*
X123277142Y-41802380D01*
X123467619Y-41802380D01*
X123562857Y-41754761D01*
X123610476Y-41707142D01*
X123658095Y-41611904D01*
X123658095Y-41373809D01*
X123610476Y-41278571D01*
X123562857Y-41230952D01*
X123467619Y-41183333D01*
X123277142Y-41183333D01*
X123181904Y-41230952D01*
X123134285Y-41278571D01*
X123086666Y-41373809D01*
X124610476Y-41802380D02*
X124039047Y-41802380D01*
X124324761Y-41802380D02*
X124324761Y-40802380D01*
X124229523Y-40945238D01*
X124134285Y-41040476D01*
X124039047Y-41088095D01*
X125467619Y-41135714D02*
X125467619Y-41802380D01*
X125229523Y-40754761D02*
X124991428Y-41469047D01*
X125610476Y-41469047D01*
X120681904Y-43172380D02*
X120681904Y-43981904D01*
X120729523Y-44077142D01*
X120777142Y-44124761D01*
X120872380Y-44172380D01*
X121062857Y-44172380D01*
X121158095Y-44124761D01*
X121205714Y-44077142D01*
X121253333Y-43981904D01*
X121253333Y-43172380D01*
X122253333Y-44172380D02*
X121681904Y-44172380D01*
X121967619Y-44172380D02*
X121967619Y-43172380D01*
X121872380Y-43315238D01*
X121777142Y-43410476D01*
X121681904Y-43458095D01*
X122586666Y-43172380D02*
X123205714Y-43172380D01*
X122872380Y-43553333D01*
X123015238Y-43553333D01*
X123110476Y-43600952D01*
X123158095Y-43648571D01*
X123205714Y-43743809D01*
X123205714Y-43981904D01*
X123158095Y-44077142D01*
X123110476Y-44124761D01*
X123015238Y-44172380D01*
X122729523Y-44172380D01*
X122634285Y-44124761D01*
X122586666Y-44077142D01*
%TD*%
M02*
