%TF.GenerationSoftware,KiCad,Pcbnew,(5.1.6)-1*%
%TF.CreationDate,2020-07-01T11:51:41-05:00*%
%TF.ProjectId,Covid,436f7669-642e-46b6-9963-61645f706362,rev?*%
%TF.SameCoordinates,Original*%
%TF.FileFunction,Copper,L1,Top*%
%TF.FilePolarity,Positive*%
%FSLAX46Y46*%
G04 Gerber Fmt 4.6, Leading zero omitted, Abs format (unit mm)*
G04 Created by KiCad (PCBNEW (5.1.6)-1) date 2020-07-01 11:51:41*
%MOMM*%
%LPD*%
G01*
G04 APERTURE LIST*
%TA.AperFunction,ComponentPad*%
%ADD10O,3.000000X1.750000*%
%TD*%
%TA.AperFunction,ComponentPad*%
%ADD11O,1.750000X3.000000*%
%TD*%
%TA.AperFunction,ComponentPad*%
%ADD12C,1.800000*%
%TD*%
%TA.AperFunction,ComponentPad*%
%ADD13R,1.800000X1.800000*%
%TD*%
%TA.AperFunction,ComponentPad*%
%ADD14C,3.000000*%
%TD*%
%TA.AperFunction,ComponentPad*%
%ADD15O,2.000000X1.000000*%
%TD*%
%TA.AperFunction,ViaPad*%
%ADD16C,4.000000*%
%TD*%
G04 APERTURE END LIST*
D10*
%TO.P,U3,4*%
%TO.N,GND*%
X151130000Y-66040000D03*
%TO.P,U3,3*%
%TO.N,AUDIO-*%
X151130000Y-68580000D03*
%TO.P,U3,2*%
%TO.N,AUDIO+*%
X151130000Y-71120000D03*
%TO.P,U3,1*%
%TO.N,VCC_12V*%
X151130000Y-73660000D03*
%TD*%
%TO.P,U1,1*%
%TO.N,VCC_3V*%
X63500000Y-57150000D03*
%TO.P,U1,2*%
%TO.N,Net-(U1-Pad2)*%
X63500000Y-59690000D03*
%TO.P,U1,3*%
%TO.N,Net-(U1-Pad3)*%
X63500000Y-62230000D03*
%TO.P,U1,4*%
%TO.N,Net-(U1-Pad4)*%
X63500000Y-64770000D03*
%TO.P,U1,5*%
%TO.N,Net-(U1-Pad5)*%
X63500000Y-67310000D03*
%TO.P,U1,6*%
%TO.N,Net-(U1-Pad6)*%
X63500000Y-69850000D03*
%TO.P,U1,7*%
%TO.N,Net-(U1-Pad7)*%
X63500000Y-72390000D03*
%TO.P,U1,8*%
%TO.N,Net-(U1-Pad8)*%
X63500000Y-74930000D03*
%TO.P,U1,9*%
%TO.N,LASER*%
X63500000Y-77470000D03*
%TO.P,U1,10*%
%TO.N,NO*%
X63500000Y-80010000D03*
%TO.P,U1,11*%
%TO.N,SI*%
X63500000Y-82550000D03*
%TO.P,U1,12*%
%TO.N,Net-(U1-Pad12)*%
X63500000Y-85090000D03*
%TO.P,U1,13*%
%TO.N,Net-(U1-Pad13)*%
X63500000Y-87630000D03*
%TO.P,U1,14*%
%TO.N,GND*%
X63500000Y-90170000D03*
%TO.P,U1,15*%
%TO.N,Net-(U1-Pad15)*%
X63500000Y-92710000D03*
%TO.P,U1,16*%
%TO.N,Net-(U1-Pad16)*%
X63500000Y-95250000D03*
%TO.P,U1,17*%
%TO.N,Net-(U1-Pad17)*%
X63500000Y-97790000D03*
%TO.P,U1,18*%
%TO.N,Net-(U1-Pad18)*%
X63500000Y-100330000D03*
%TO.P,U1,19*%
%TO.N,VCC_5V*%
X63500000Y-102870000D03*
%TO.P,U1,20*%
%TO.N,Net-(U1-Pad20)*%
X89200000Y-102870000D03*
%TO.P,U1,21*%
%TO.N,Net-(U1-Pad21)*%
X89200000Y-100330000D03*
%TO.P,U1,22*%
%TO.N,Net-(U1-Pad22)*%
X89200000Y-97790000D03*
%TO.P,U1,23*%
%TO.N,Net-(U1-Pad23)*%
X89200000Y-95250000D03*
%TO.P,U1,24*%
%TO.N,Net-(U1-Pad24)*%
X89200000Y-92710000D03*
%TO.P,U1,25*%
%TO.N,Net-(U1-Pad25)*%
X89200000Y-90170000D03*
%TO.P,U1,26*%
%TO.N,Net-(U1-Pad26)*%
X89200000Y-87630000D03*
%TO.P,U1,27*%
%TO.N,RX_TX_BAR*%
X89200000Y-85090000D03*
%TO.P,U1,28*%
%TO.N,TX_RX_BAR*%
X89200000Y-82550000D03*
%TO.P,U1,29*%
%TO.N,Net-(U1-Pad29)*%
X89200000Y-80010000D03*
%TO.P,U1,30*%
%TO.N,RX_TX_AUDIO*%
X89200000Y-77470000D03*
%TO.P,U1,31*%
%TO.N,TX_RX_AUDIO*%
X89200000Y-74930000D03*
%TO.P,U1,32*%
%TO.N,GND*%
X89200000Y-72390000D03*
%TO.P,U1,33*%
%TO.N,SDA*%
X89200000Y-69850000D03*
%TO.P,U1,34*%
%TO.N,Net-(U1-Pad34)*%
X89200000Y-67310000D03*
%TO.P,U1,35*%
%TO.N,Net-(U1-Pad35)*%
X89200000Y-64770000D03*
%TO.P,U1,36*%
%TO.N,SCL*%
X89200000Y-62230000D03*
%TO.P,U1,37*%
%TO.N,Net-(U1-Pad37)*%
X89200000Y-59690000D03*
%TO.P,U1,38*%
%TO.N,GND*%
X89200000Y-57150000D03*
%TD*%
D11*
%TO.P,U2,1*%
%TO.N,LASER*%
X91440000Y-45720000D03*
%TO.P,U2,2*%
%TO.N,GND*%
X93980000Y-45720000D03*
%TD*%
D10*
%TO.P,U4,1*%
%TO.N,Net-(U4-Pad1)*%
X64770000Y-120650000D03*
%TO.P,U4,2*%
%TO.N,Net-(U4-Pad2)*%
X64770000Y-123190000D03*
%TO.P,U4,3*%
%TO.N,Net-(U4-Pad3)*%
X64770000Y-125730000D03*
%TO.P,U4,4*%
%TO.N,Net-(U4-Pad4)*%
X64770000Y-128270000D03*
%TO.P,U4,5*%
%TO.N,VCC_5V*%
X64770000Y-130810000D03*
%TO.P,U4,6*%
%TO.N,Net-(U4-Pad6)*%
X77470000Y-130810000D03*
%TO.P,U4,7*%
%TO.N,GND*%
X77470000Y-128270000D03*
%TO.P,U4,8*%
%TO.N,RX_TX_BAR*%
X77470000Y-125730000D03*
%TO.P,U4,9*%
%TO.N,TX_RX_BAR*%
X77470000Y-123190000D03*
%TO.P,U4,10*%
%TO.N,Net-(U4-Pad10)*%
X77470000Y-120650000D03*
%TD*%
%TO.P,U5,1*%
%TO.N,Net-(U5-Pad1)*%
X126760001Y-92710000D03*
%TO.P,U5,2*%
%TO.N,Net-(U5-Pad2)*%
X126760001Y-90170000D03*
%TO.P,U5,3*%
%TO.N,Net-(U5-Pad3)*%
X126760001Y-87630000D03*
%TO.P,U5,4*%
%TO.N,Net-(U5-Pad4)*%
X126760001Y-85090000D03*
%TO.P,U5,5*%
%TO.N,Net-(U5-Pad5)*%
X126760001Y-82550000D03*
%TO.P,U5,6*%
%TO.N,Net-(U5-Pad6)*%
X126760001Y-80010000D03*
%TO.P,U5,7*%
%TO.N,Net-(U5-Pad7)*%
X126760001Y-77470000D03*
%TO.P,U5,8*%
%TO.N,Net-(U5-Pad8)*%
X126760001Y-74930000D03*
%TO.P,U5,9*%
%TO.N,TX_RX_AUDIO*%
X111010001Y-74930000D03*
%TO.P,U5,10*%
%TO.N,RX_TX_AUDIO*%
X111010001Y-77470000D03*
%TO.P,U5,11*%
%TO.N,GND*%
X111010001Y-80010000D03*
%TO.P,U5,12*%
%TO.N,VCC_5V*%
X111010001Y-82550000D03*
%TO.P,U5,13*%
%TO.N,Net-(U5-Pad13)*%
X111010001Y-85090000D03*
%TO.P,U5,14*%
%TO.N,Net-(U5-Pad14)*%
X111010001Y-87630000D03*
%TO.P,U5,15*%
%TO.N,AUDIO-*%
X111010001Y-90170000D03*
%TO.P,U5,16*%
%TO.N,AUDIO+*%
X111010001Y-92710000D03*
%TD*%
D12*
%TO.P,U6,3*%
%TO.N,VCC_5V*%
X139700000Y-115570000D03*
%TO.P,U6,2*%
%TO.N,GND*%
X137160000Y-115570000D03*
D13*
%TO.P,U6,1*%
%TO.N,VCC_12V*%
X134620000Y-115570000D03*
%TD*%
D10*
%TO.P,U7,1*%
%TO.N,VCC_12V*%
X40640000Y-91440000D03*
%TO.P,U7,2*%
%TO.N,GND*%
X40640000Y-93980000D03*
%TO.P,U7,3*%
X40640000Y-96520000D03*
%TO.P,U7,4*%
%TO.N,SI*%
X40640000Y-99060000D03*
%TO.P,U7,5*%
%TO.N,GND*%
X40640000Y-101600000D03*
%TD*%
%TO.P,U8,5*%
%TO.N,GND*%
X40640000Y-78740000D03*
%TO.P,U8,4*%
%TO.N,NO*%
X40640000Y-76200000D03*
%TO.P,U8,3*%
%TO.N,GND*%
X40640000Y-73660000D03*
%TO.P,U8,2*%
X40640000Y-71120000D03*
%TO.P,U8,1*%
%TO.N,VCC_12V*%
X40640000Y-68580000D03*
%TD*%
D11*
%TO.P,U9,1*%
%TO.N,VCC_3V*%
X105410000Y-45720000D03*
%TO.P,U9,2*%
%TO.N,GND*%
X107950000Y-45720000D03*
%TO.P,U9,3*%
%TO.N,SCL*%
X110490000Y-45720000D03*
%TO.P,U9,4*%
%TO.N,SDA*%
X113030000Y-45720000D03*
%TD*%
D14*
%TO.P,U10,1*%
%TO.N,VCC_12V*%
X134620000Y-130810000D03*
%TO.P,U10,2*%
%TO.N,GND*%
X143470000Y-130810000D03*
%TD*%
D15*
%TO.P,C1,1*%
%TO.N,VCC_12V*%
X119380000Y-115570000D03*
%TO.P,C1,2*%
%TO.N,GND*%
X119380000Y-117070000D03*
%TD*%
%TO.P,C2,2*%
%TO.N,GND*%
X154940000Y-117070000D03*
%TO.P,C2,1*%
%TO.N,VCC_5V*%
X154940000Y-115570000D03*
%TD*%
D16*
%TO.N,GND*%
X35560000Y-137160000D03*
X177800000Y-137160000D03*
X177800000Y-41910000D03*
X35560000Y-41910000D03*
%TD*%
M02*
