M48
; DRILL file {KiCad (5.1.6)-1} date 07/07/20 09:56:25
; FORMAT={-:-/ absolute / metric / decimal}
; #@! TF.CreationDate,2020-07-07T09:56:25-05:00
; #@! TF.GenerationSoftware,Kicad,Pcbnew,(5.1.6)-1
; #@! TF.FileFunction,Plated,1,2,PTH
FMAT,2
METRIC
T1C0.500
T2C0.762
T3C0.800
T4C0.900
T5C1.000
T6C3.000
%
G90
G05
T1
X154.94Y-115.57
X154.94Y-117.07
X119.38Y-115.57
X119.38Y-117.07
T2
X132.08Y-45.72
X134.62Y-45.72
X137.16Y-45.72
X139.7Y-45.72
X142.24Y-45.72
X144.78Y-45.72
X147.32Y-45.72
X149.86Y-45.72
X152.4Y-45.72
T3
X40.64Y-91.44
X40.64Y-93.98
X40.64Y-96.52
X40.64Y-99.06
X40.64Y-101.6
X40.64Y-68.58
X40.64Y-71.12
X40.64Y-73.66
X40.64Y-76.2
X40.64Y-78.74
X91.44Y-45.72
X93.98Y-45.72
X151.13Y-66.04
X151.13Y-68.58
X151.13Y-71.12
X151.13Y-73.66
X64.77Y-120.65
X64.77Y-123.19
X64.77Y-125.73
X64.77Y-128.27
X64.77Y-130.81
X77.47Y-120.65
X77.47Y-123.19
X77.47Y-125.73
X77.47Y-128.27
X77.47Y-130.81
X111.01Y-74.93
X111.01Y-77.47
X111.01Y-80.01
X111.01Y-82.55
X111.01Y-85.09
X111.01Y-87.63
X111.01Y-90.17
X111.01Y-92.71
X126.76Y-74.93
X126.76Y-77.47
X126.76Y-80.01
X126.76Y-82.55
X126.76Y-85.09
X126.76Y-87.63
X126.76Y-90.17
X126.76Y-92.71
X63.5Y-57.15
X63.5Y-59.69
X63.5Y-62.23
X63.5Y-64.77
X63.5Y-67.31
X63.5Y-69.85
X63.5Y-72.39
X63.5Y-74.93
X63.5Y-77.47
X63.5Y-80.01
X63.5Y-82.55
X63.5Y-85.09
X63.5Y-87.63
X63.5Y-90.17
X63.5Y-92.71
X63.5Y-95.25
X63.5Y-97.79
X63.5Y-100.33
X63.5Y-102.87
X89.2Y-57.15
X89.2Y-59.69
X89.2Y-62.23
X89.2Y-64.77
X89.2Y-67.31
X89.2Y-69.85
X89.2Y-72.39
X89.2Y-74.93
X89.2Y-77.47
X89.2Y-80.01
X89.2Y-82.55
X89.2Y-85.09
X89.2Y-87.63
X89.2Y-90.17
X89.2Y-92.71
X89.2Y-95.25
X89.2Y-97.79
X89.2Y-100.33
X89.2Y-102.87
X105.41Y-45.72
X107.95Y-45.72
X110.49Y-45.72
X113.03Y-45.72
T4
X134.62Y-130.81
X143.47Y-130.81
T5
X93.98Y-100.33
X96.52Y-100.33
X130.81Y-40.64
X137.16Y-53.34
X142.24Y-53.34
X144.78Y-53.34
X147.32Y-53.34
X134.62Y-115.57
X137.16Y-115.57
X139.7Y-115.57
T6
X35.56Y-41.91
X35.56Y-137.16
X177.8Y-41.91
X177.8Y-137.16
T0
M30
