%TF.GenerationSoftware,KiCad,Pcbnew,(5.1.6)-1*%
%TF.CreationDate,2020-07-17T12:23:20-05:00*%
%TF.ProjectId,Covid,436f7669-642e-46b6-9963-61645f706362,rev?*%
%TF.SameCoordinates,Original*%
%TF.FileFunction,Legend,Bot*%
%TF.FilePolarity,Positive*%
%FSLAX46Y46*%
G04 Gerber Fmt 4.6, Leading zero omitted, Abs format (unit mm)*
G04 Created by KiCad (PCBNEW (5.1.6)-1) date 2020-07-17 12:23:20*
%MOMM*%
%LPD*%
G01*
G04 APERTURE LIST*
%ADD10O,3.100000X1.850000*%
%ADD11O,1.850000X3.100000*%
%ADD12O,1.600000X2.600000*%
%ADD13C,3.100000*%
%ADD14R,1.150000X1.600000*%
%ADD15C,1.700000*%
%ADD16O,1.700000X1.700000*%
%ADD17O,3.100000X2.100000*%
%ADD18R,2.200000X2.200000*%
%ADD19C,2.200000*%
G04 APERTURE END LIST*
%LPC*%
D10*
%TO.C,U3*%
X151130000Y-66040000D03*
X151130000Y-68580000D03*
X151130000Y-71120000D03*
X151130000Y-73660000D03*
%TD*%
%TO.C,U4*%
X64770000Y-120650000D03*
X64770000Y-123190000D03*
X64770000Y-125730000D03*
X64770000Y-128270000D03*
X64770000Y-130810000D03*
X77470000Y-130810000D03*
X77470000Y-128270000D03*
X77470000Y-125730000D03*
X77470000Y-123190000D03*
X77470000Y-120650000D03*
%TD*%
%TO.C,U1*%
X63500000Y-57150000D03*
X63500000Y-59690000D03*
X63500000Y-62230000D03*
X63500000Y-64770000D03*
X63500000Y-67310000D03*
X63500000Y-69850000D03*
X63500000Y-72390000D03*
X63500000Y-74930000D03*
X63500000Y-77470000D03*
X63500000Y-80010000D03*
X63500000Y-82550000D03*
X63500000Y-85090000D03*
X63500000Y-87630000D03*
X63500000Y-90170000D03*
X63500000Y-92710000D03*
X63500000Y-95250000D03*
X63500000Y-97790000D03*
X63500000Y-100330000D03*
X63500000Y-102870000D03*
X89200000Y-102870000D03*
X89200000Y-100330000D03*
X89200000Y-97790000D03*
X89200000Y-95250000D03*
X89200000Y-92710000D03*
X89200000Y-90170000D03*
X89200000Y-87630000D03*
X89200000Y-85090000D03*
X89200000Y-82550000D03*
X89200000Y-80010000D03*
X89200000Y-77470000D03*
X89200000Y-74930000D03*
X89200000Y-72390000D03*
X89200000Y-69850000D03*
X89200000Y-67310000D03*
X89200000Y-64770000D03*
X89200000Y-62230000D03*
X89200000Y-59690000D03*
X89200000Y-57150000D03*
%TD*%
D11*
%TO.C,U2*%
X91440000Y-45720000D03*
X93980000Y-45720000D03*
%TD*%
D10*
%TO.C,U5*%
X126760001Y-92710000D03*
X126760001Y-90170000D03*
X126760001Y-87630000D03*
X126760001Y-85090000D03*
X126760001Y-82550000D03*
X126760001Y-80010000D03*
X126760001Y-77470000D03*
X126760001Y-74930000D03*
X111010001Y-74930000D03*
X111010001Y-77470000D03*
X111010001Y-80010000D03*
X111010001Y-82550000D03*
X111010001Y-85090000D03*
X111010001Y-87630000D03*
X111010001Y-90170000D03*
X111010001Y-92710000D03*
%TD*%
%TO.C,U7*%
X40640000Y-91440000D03*
X40640000Y-93980000D03*
X40640000Y-96520000D03*
X40640000Y-99060000D03*
X40640000Y-101600000D03*
%TD*%
%TO.C,U8*%
X40640000Y-78740000D03*
X40640000Y-76200000D03*
X40640000Y-73660000D03*
X40640000Y-71120000D03*
X40640000Y-68580000D03*
%TD*%
D11*
%TO.C,U9*%
X105410000Y-45720000D03*
X107950000Y-45720000D03*
X110490000Y-45720000D03*
X113030000Y-45720000D03*
%TD*%
D12*
%TO.C,U11*%
X132080000Y-45720000D03*
X134620000Y-45720000D03*
X137160000Y-45720000D03*
X139700000Y-45720000D03*
X142240000Y-45720000D03*
X144780000Y-45720000D03*
X147320000Y-45720000D03*
X149860000Y-45720000D03*
X152400000Y-45720000D03*
%TD*%
D13*
%TO.C,U10*%
X160020000Y-139700000D03*
X168870000Y-139700000D03*
%TD*%
%TO.C,Q1*%
G36*
G01*
X111065000Y-125217500D02*
X111065000Y-126242500D01*
G75*
G02*
X110777500Y-126530000I-287500J0D01*
G01*
X110202500Y-126530000D01*
G75*
G02*
X109915000Y-126242500I0J287500D01*
G01*
X109915000Y-125217500D01*
G75*
G02*
X110202500Y-124930000I287500J0D01*
G01*
X110777500Y-124930000D01*
G75*
G02*
X111065000Y-125217500I0J-287500D01*
G01*
G37*
G36*
G01*
X109795000Y-125217500D02*
X109795000Y-126242500D01*
G75*
G02*
X109507500Y-126530000I-287500J0D01*
G01*
X108932500Y-126530000D01*
G75*
G02*
X108645000Y-126242500I0J287500D01*
G01*
X108645000Y-125217500D01*
G75*
G02*
X108932500Y-124930000I287500J0D01*
G01*
X109507500Y-124930000D01*
G75*
G02*
X109795000Y-125217500I0J-287500D01*
G01*
G37*
D14*
X111760000Y-125730000D03*
%TD*%
D15*
%TO.C,R1*%
X110490000Y-118110000D03*
D16*
X110490000Y-115570000D03*
%TD*%
D17*
%TO.C,U6*%
X167640000Y-124460000D03*
X167640000Y-107315000D03*
X128143000Y-124460000D03*
X128143000Y-107315000D03*
%TD*%
D11*
%TO.C,U12*%
X128270000Y-139700000D03*
X125730000Y-139700000D03*
%TD*%
D18*
%TO.C,J1*%
X119380000Y-59690000D03*
D19*
X121920000Y-59690000D03*
X124460000Y-59690000D03*
X127000000Y-59690000D03*
%TD*%
%TO.C,J2*%
X143510000Y-59690000D03*
X140970000Y-59690000D03*
X138430000Y-59690000D03*
D18*
X135890000Y-59690000D03*
%TD*%
D16*
%TO.C,R2*%
X96520000Y-53340000D03*
D15*
X99060000Y-53340000D03*
%TD*%
%TO.C,R3*%
X107950000Y-38100000D03*
D16*
X105410000Y-38100000D03*
%TD*%
D18*
%TO.C,U13*%
X125730000Y-45720000D03*
D19*
X123190000Y-45720000D03*
X120650000Y-45720000D03*
X118110000Y-45720000D03*
%TD*%
M02*
