G04 #@! TF.GenerationSoftware,KiCad,Pcbnew,(5.1.6)-1*
G04 #@! TF.CreationDate,2020-07-07T11:59:46-05:00*
G04 #@! TF.ProjectId,Xbee,58626565-2e6b-4696-9361-645f70636258,rev?*
G04 #@! TF.SameCoordinates,Original*
G04 #@! TF.FileFunction,OtherDrawing,Comment*
%FSLAX46Y46*%
G04 Gerber Fmt 4.6, Leading zero omitted, Abs format (unit mm)*
G04 Created by KiCad (PCBNEW (5.1.6)-1) date 2020-07-07 11:59:46*
%MOMM*%
%LPD*%
G01*
G04 APERTURE LIST*
%ADD10C,0.150000*%
G04 APERTURE END LIST*
D10*
X154809523Y-56152380D02*
X155428571Y-56152380D01*
X155095238Y-56533333D01*
X155238095Y-56533333D01*
X155333333Y-56580952D01*
X155380952Y-56628571D01*
X155428571Y-56723809D01*
X155428571Y-56961904D01*
X155380952Y-57057142D01*
X155333333Y-57104761D01*
X155238095Y-57152380D01*
X154952380Y-57152380D01*
X154857142Y-57104761D01*
X154809523Y-57057142D01*
X156285714Y-56152380D02*
X156095238Y-56152380D01*
X156000000Y-56200000D01*
X155952380Y-56247619D01*
X155857142Y-56390476D01*
X155809523Y-56580952D01*
X155809523Y-56961904D01*
X155857142Y-57057142D01*
X155904761Y-57104761D01*
X156000000Y-57152380D01*
X156190476Y-57152380D01*
X156285714Y-57104761D01*
X156333333Y-57057142D01*
X156380952Y-56961904D01*
X156380952Y-56723809D01*
X156333333Y-56628571D01*
X156285714Y-56580952D01*
X156190476Y-56533333D01*
X156000000Y-56533333D01*
X155904761Y-56580952D01*
X155857142Y-56628571D01*
X155809523Y-56723809D01*
X156857142Y-57104761D02*
X156857142Y-57152380D01*
X156809523Y-57247619D01*
X156761904Y-57295238D01*
X157476190Y-56152380D02*
X157571428Y-56152380D01*
X157666666Y-56200000D01*
X157714285Y-56247619D01*
X157761904Y-56342857D01*
X157809523Y-56533333D01*
X157809523Y-56771428D01*
X157761904Y-56961904D01*
X157714285Y-57057142D01*
X157666666Y-57104761D01*
X157571428Y-57152380D01*
X157476190Y-57152380D01*
X157380952Y-57104761D01*
X157333333Y-57057142D01*
X157285714Y-56961904D01*
X157238095Y-56771428D01*
X157238095Y-56533333D01*
X157285714Y-56342857D01*
X157333333Y-56247619D01*
X157380952Y-56200000D01*
X157476190Y-56152380D01*
X158428571Y-56152380D02*
X158523809Y-56152380D01*
X158619047Y-56200000D01*
X158666666Y-56247619D01*
X158714285Y-56342857D01*
X158761904Y-56533333D01*
X158761904Y-56771428D01*
X158714285Y-56961904D01*
X158666666Y-57057142D01*
X158619047Y-57104761D01*
X158523809Y-57152380D01*
X158428571Y-57152380D01*
X158333333Y-57104761D01*
X158285714Y-57057142D01*
X158238095Y-56961904D01*
X158190476Y-56771428D01*
X158190476Y-56533333D01*
X158238095Y-56342857D01*
X158285714Y-56247619D01*
X158333333Y-56200000D01*
X158428571Y-56152380D01*
X159380952Y-56152380D02*
X159476190Y-56152380D01*
X159571428Y-56200000D01*
X159619047Y-56247619D01*
X159666666Y-56342857D01*
X159714285Y-56533333D01*
X159714285Y-56771428D01*
X159666666Y-56961904D01*
X159619047Y-57057142D01*
X159571428Y-57104761D01*
X159476190Y-57152380D01*
X159380952Y-57152380D01*
X159285714Y-57104761D01*
X159238095Y-57057142D01*
X159190476Y-56961904D01*
X159142857Y-56771428D01*
X159142857Y-56533333D01*
X159190476Y-56342857D01*
X159238095Y-56247619D01*
X159285714Y-56200000D01*
X159380952Y-56152380D01*
X160904761Y-57152380D02*
X160904761Y-56485714D01*
X160904761Y-56580952D02*
X160952380Y-56533333D01*
X161047619Y-56485714D01*
X161190476Y-56485714D01*
X161285714Y-56533333D01*
X161333333Y-56628571D01*
X161333333Y-57152380D01*
X161333333Y-56628571D02*
X161380952Y-56533333D01*
X161476190Y-56485714D01*
X161619047Y-56485714D01*
X161714285Y-56533333D01*
X161761904Y-56628571D01*
X161761904Y-57152380D01*
X162238095Y-57152380D02*
X162238095Y-56485714D01*
X162238095Y-56580952D02*
X162285714Y-56533333D01*
X162380952Y-56485714D01*
X162523809Y-56485714D01*
X162619047Y-56533333D01*
X162666666Y-56628571D01*
X162666666Y-57152380D01*
X162666666Y-56628571D02*
X162714285Y-56533333D01*
X162809523Y-56485714D01*
X162952380Y-56485714D01*
X163047619Y-56533333D01*
X163095238Y-56628571D01*
X163095238Y-57152380D01*
X141000000Y-58000000D02*
X177000000Y-58000000D01*
X141000000Y-69000000D02*
X141000000Y-57413579D01*
X177000000Y-69000000D02*
X177000000Y-57413579D01*
X177000000Y-58000000D02*
X175873496Y-58586421D01*
X177000000Y-58000000D02*
X175873496Y-57413579D01*
X141000000Y-58000000D02*
X142126504Y-58586421D01*
X141000000Y-58000000D02*
X142126504Y-57413579D01*
X184752380Y-88190476D02*
X184752380Y-87571428D01*
X185133333Y-87904761D01*
X185133333Y-87761904D01*
X185180952Y-87666666D01*
X185228571Y-87619047D01*
X185323809Y-87571428D01*
X185561904Y-87571428D01*
X185657142Y-87619047D01*
X185704761Y-87666666D01*
X185752380Y-87761904D01*
X185752380Y-88047619D01*
X185704761Y-88142857D01*
X185657142Y-88190476D01*
X184752380Y-86952380D02*
X184752380Y-86857142D01*
X184800000Y-86761904D01*
X184847619Y-86714285D01*
X184942857Y-86666666D01*
X185133333Y-86619047D01*
X185371428Y-86619047D01*
X185561904Y-86666666D01*
X185657142Y-86714285D01*
X185704761Y-86761904D01*
X185752380Y-86857142D01*
X185752380Y-86952380D01*
X185704761Y-87047619D01*
X185657142Y-87095238D01*
X185561904Y-87142857D01*
X185371428Y-87190476D01*
X185133333Y-87190476D01*
X184942857Y-87142857D01*
X184847619Y-87095238D01*
X184800000Y-87047619D01*
X184752380Y-86952380D01*
X185704761Y-86142857D02*
X185752380Y-86142857D01*
X185847619Y-86190476D01*
X185895238Y-86238095D01*
X184752380Y-85523809D02*
X184752380Y-85428571D01*
X184800000Y-85333333D01*
X184847619Y-85285714D01*
X184942857Y-85238095D01*
X185133333Y-85190476D01*
X185371428Y-85190476D01*
X185561904Y-85238095D01*
X185657142Y-85285714D01*
X185704761Y-85333333D01*
X185752380Y-85428571D01*
X185752380Y-85523809D01*
X185704761Y-85619047D01*
X185657142Y-85666666D01*
X185561904Y-85714285D01*
X185371428Y-85761904D01*
X185133333Y-85761904D01*
X184942857Y-85714285D01*
X184847619Y-85666666D01*
X184800000Y-85619047D01*
X184752380Y-85523809D01*
X184752380Y-84571428D02*
X184752380Y-84476190D01*
X184800000Y-84380952D01*
X184847619Y-84333333D01*
X184942857Y-84285714D01*
X185133333Y-84238095D01*
X185371428Y-84238095D01*
X185561904Y-84285714D01*
X185657142Y-84333333D01*
X185704761Y-84380952D01*
X185752380Y-84476190D01*
X185752380Y-84571428D01*
X185704761Y-84666666D01*
X185657142Y-84714285D01*
X185561904Y-84761904D01*
X185371428Y-84809523D01*
X185133333Y-84809523D01*
X184942857Y-84761904D01*
X184847619Y-84714285D01*
X184800000Y-84666666D01*
X184752380Y-84571428D01*
X184752380Y-83619047D02*
X184752380Y-83523809D01*
X184800000Y-83428571D01*
X184847619Y-83380952D01*
X184942857Y-83333333D01*
X185133333Y-83285714D01*
X185371428Y-83285714D01*
X185561904Y-83333333D01*
X185657142Y-83380952D01*
X185704761Y-83428571D01*
X185752380Y-83523809D01*
X185752380Y-83619047D01*
X185704761Y-83714285D01*
X185657142Y-83761904D01*
X185561904Y-83809523D01*
X185371428Y-83857142D01*
X185133333Y-83857142D01*
X184942857Y-83809523D01*
X184847619Y-83761904D01*
X184800000Y-83714285D01*
X184752380Y-83619047D01*
X185752380Y-82095238D02*
X185085714Y-82095238D01*
X185180952Y-82095238D02*
X185133333Y-82047619D01*
X185085714Y-81952380D01*
X185085714Y-81809523D01*
X185133333Y-81714285D01*
X185228571Y-81666666D01*
X185752380Y-81666666D01*
X185228571Y-81666666D02*
X185133333Y-81619047D01*
X185085714Y-81523809D01*
X185085714Y-81380952D01*
X185133333Y-81285714D01*
X185228571Y-81238095D01*
X185752380Y-81238095D01*
X185752380Y-80761904D02*
X185085714Y-80761904D01*
X185180952Y-80761904D02*
X185133333Y-80714285D01*
X185085714Y-80619047D01*
X185085714Y-80476190D01*
X185133333Y-80380952D01*
X185228571Y-80333333D01*
X185752380Y-80333333D01*
X185228571Y-80333333D02*
X185133333Y-80285714D01*
X185085714Y-80190476D01*
X185085714Y-80047619D01*
X185133333Y-79952380D01*
X185228571Y-79904761D01*
X185752380Y-79904761D01*
X184000000Y-99000000D02*
X184000000Y-69000000D01*
X177000000Y-99000000D02*
X184586421Y-99000000D01*
X177000000Y-69000000D02*
X184586421Y-69000000D01*
X184000000Y-69000000D02*
X184586421Y-70126504D01*
X184000000Y-69000000D02*
X183413579Y-70126504D01*
X184000000Y-99000000D02*
X184586421Y-97873496D01*
X184000000Y-99000000D02*
X183413579Y-97873496D01*
M02*
