G04 #@! TF.GenerationSoftware,KiCad,Pcbnew,(5.1.6)-1*
G04 #@! TF.CreationDate,2020-07-07T11:59:46-05:00*
G04 #@! TF.ProjectId,Xbee,58626565-2e6b-4696-9361-645f70636258,rev?*
G04 #@! TF.SameCoordinates,Original*
G04 #@! TF.FileFunction,Soldermask,Bot*
G04 #@! TF.FilePolarity,Negative*
%FSLAX46Y46*%
G04 Gerber Fmt 4.6, Leading zero omitted, Abs format (unit mm)*
G04 Created by KiCad (PCBNEW (5.1.6)-1) date 2020-07-07 11:59:46*
%MOMM*%
%LPD*%
G01*
G04 APERTURE LIST*
%ADD10C,0.100000*%
G04 APERTURE END LIST*
D10*
G36*
X121066822Y-125731313D02*
G01*
X121227241Y-125779976D01*
X121375077Y-125858995D01*
X121504659Y-125965341D01*
X121611004Y-126094922D01*
X121611005Y-126094924D01*
X121690024Y-126242758D01*
X121738687Y-126403177D01*
X121751000Y-126528196D01*
X121751000Y-127511803D01*
X121738687Y-127636823D01*
X121690024Y-127797242D01*
X121619114Y-127929906D01*
X121611004Y-127945078D01*
X121504659Y-128074659D01*
X121375078Y-128181004D01*
X121375076Y-128181005D01*
X121227242Y-128260024D01*
X121066823Y-128308687D01*
X120900000Y-128325117D01*
X120733178Y-128308687D01*
X120572759Y-128260024D01*
X120424925Y-128181005D01*
X120424923Y-128181004D01*
X120295342Y-128074659D01*
X120188997Y-127945078D01*
X120180887Y-127929906D01*
X120109977Y-127797242D01*
X120061314Y-127636823D01*
X120049000Y-127511803D01*
X120049000Y-126528197D01*
X120061313Y-126403178D01*
X120109976Y-126242759D01*
X120188995Y-126094923D01*
X120295341Y-125965341D01*
X120424922Y-125858996D01*
X120440094Y-125850886D01*
X120572758Y-125779976D01*
X120733177Y-125731313D01*
X120900000Y-125714883D01*
X121066822Y-125731313D01*
G37*
G36*
X115066822Y-125731313D02*
G01*
X115227241Y-125779976D01*
X115375077Y-125858995D01*
X115504659Y-125965341D01*
X115611004Y-126094922D01*
X115611005Y-126094924D01*
X115690024Y-126242758D01*
X115738687Y-126403177D01*
X115751000Y-126528196D01*
X115751000Y-127511803D01*
X115738687Y-127636823D01*
X115690024Y-127797242D01*
X115619114Y-127929906D01*
X115611004Y-127945078D01*
X115504659Y-128074659D01*
X115375078Y-128181004D01*
X115375076Y-128181005D01*
X115227242Y-128260024D01*
X115066823Y-128308687D01*
X114900000Y-128325117D01*
X114733178Y-128308687D01*
X114572759Y-128260024D01*
X114424925Y-128181005D01*
X114424923Y-128181004D01*
X114295342Y-128074659D01*
X114188997Y-127945078D01*
X114180887Y-127929906D01*
X114109977Y-127797242D01*
X114061314Y-127636823D01*
X114049000Y-127511803D01*
X114049000Y-126528197D01*
X114061313Y-126403178D01*
X114109976Y-126242759D01*
X114188995Y-126094923D01*
X114295341Y-125965341D01*
X114424922Y-125858996D01*
X114440094Y-125850886D01*
X114572758Y-125779976D01*
X114733177Y-125731313D01*
X114900000Y-125714883D01*
X115066822Y-125731313D01*
G37*
G36*
X131066822Y-125731313D02*
G01*
X131227241Y-125779976D01*
X131375077Y-125858995D01*
X131504659Y-125965341D01*
X131611004Y-126094922D01*
X131611005Y-126094924D01*
X131690024Y-126242758D01*
X131738687Y-126403177D01*
X131751000Y-126528196D01*
X131751000Y-127511803D01*
X131738687Y-127636823D01*
X131690024Y-127797242D01*
X131619114Y-127929906D01*
X131611004Y-127945078D01*
X131504659Y-128074659D01*
X131375078Y-128181004D01*
X131375076Y-128181005D01*
X131227242Y-128260024D01*
X131066823Y-128308687D01*
X130900000Y-128325117D01*
X130733178Y-128308687D01*
X130572759Y-128260024D01*
X130424925Y-128181005D01*
X130424923Y-128181004D01*
X130295342Y-128074659D01*
X130188997Y-127945078D01*
X130180887Y-127929906D01*
X130109977Y-127797242D01*
X130061314Y-127636823D01*
X130049000Y-127511803D01*
X130049000Y-126528197D01*
X130061313Y-126403178D01*
X130109976Y-126242759D01*
X130188995Y-126094923D01*
X130295341Y-125965341D01*
X130424922Y-125858996D01*
X130440094Y-125850886D01*
X130572758Y-125779976D01*
X130733177Y-125731313D01*
X130900000Y-125714883D01*
X131066822Y-125731313D01*
G37*
G36*
X129066822Y-125731313D02*
G01*
X129227241Y-125779976D01*
X129375077Y-125858995D01*
X129504659Y-125965341D01*
X129611004Y-126094922D01*
X129611005Y-126094924D01*
X129690024Y-126242758D01*
X129738687Y-126403177D01*
X129751000Y-126528196D01*
X129751000Y-127511803D01*
X129738687Y-127636823D01*
X129690024Y-127797242D01*
X129619114Y-127929906D01*
X129611004Y-127945078D01*
X129504659Y-128074659D01*
X129375078Y-128181004D01*
X129375076Y-128181005D01*
X129227242Y-128260024D01*
X129066823Y-128308687D01*
X128900000Y-128325117D01*
X128733178Y-128308687D01*
X128572759Y-128260024D01*
X128424925Y-128181005D01*
X128424923Y-128181004D01*
X128295342Y-128074659D01*
X128188997Y-127945078D01*
X128180887Y-127929906D01*
X128109977Y-127797242D01*
X128061314Y-127636823D01*
X128049000Y-127511803D01*
X128049000Y-126528197D01*
X128061313Y-126403178D01*
X128109976Y-126242759D01*
X128188995Y-126094923D01*
X128295341Y-125965341D01*
X128424922Y-125858996D01*
X128440094Y-125850886D01*
X128572758Y-125779976D01*
X128733177Y-125731313D01*
X128900000Y-125714883D01*
X129066822Y-125731313D01*
G37*
G36*
X127066822Y-125731313D02*
G01*
X127227241Y-125779976D01*
X127375077Y-125858995D01*
X127504659Y-125965341D01*
X127611004Y-126094922D01*
X127611005Y-126094924D01*
X127690024Y-126242758D01*
X127738687Y-126403177D01*
X127751000Y-126528196D01*
X127751000Y-127511803D01*
X127738687Y-127636823D01*
X127690024Y-127797242D01*
X127619114Y-127929906D01*
X127611004Y-127945078D01*
X127504659Y-128074659D01*
X127375078Y-128181004D01*
X127375076Y-128181005D01*
X127227242Y-128260024D01*
X127066823Y-128308687D01*
X126900000Y-128325117D01*
X126733178Y-128308687D01*
X126572759Y-128260024D01*
X126424925Y-128181005D01*
X126424923Y-128181004D01*
X126295342Y-128074659D01*
X126188997Y-127945078D01*
X126180887Y-127929906D01*
X126109977Y-127797242D01*
X126061314Y-127636823D01*
X126049000Y-127511803D01*
X126049000Y-126528197D01*
X126061313Y-126403178D01*
X126109976Y-126242759D01*
X126188995Y-126094923D01*
X126295341Y-125965341D01*
X126424922Y-125858996D01*
X126440094Y-125850886D01*
X126572758Y-125779976D01*
X126733177Y-125731313D01*
X126900000Y-125714883D01*
X127066822Y-125731313D01*
G37*
G36*
X125066822Y-125731313D02*
G01*
X125227241Y-125779976D01*
X125375077Y-125858995D01*
X125504659Y-125965341D01*
X125611004Y-126094922D01*
X125611005Y-126094924D01*
X125690024Y-126242758D01*
X125738687Y-126403177D01*
X125751000Y-126528196D01*
X125751000Y-127511803D01*
X125738687Y-127636823D01*
X125690024Y-127797242D01*
X125619114Y-127929906D01*
X125611004Y-127945078D01*
X125504659Y-128074659D01*
X125375078Y-128181004D01*
X125375076Y-128181005D01*
X125227242Y-128260024D01*
X125066823Y-128308687D01*
X124900000Y-128325117D01*
X124733178Y-128308687D01*
X124572759Y-128260024D01*
X124424925Y-128181005D01*
X124424923Y-128181004D01*
X124295342Y-128074659D01*
X124188997Y-127945078D01*
X124180887Y-127929906D01*
X124109977Y-127797242D01*
X124061314Y-127636823D01*
X124049000Y-127511803D01*
X124049000Y-126528197D01*
X124061313Y-126403178D01*
X124109976Y-126242759D01*
X124188995Y-126094923D01*
X124295341Y-125965341D01*
X124424922Y-125858996D01*
X124440094Y-125850886D01*
X124572758Y-125779976D01*
X124733177Y-125731313D01*
X124900000Y-125714883D01*
X125066822Y-125731313D01*
G37*
G36*
X123066822Y-125731313D02*
G01*
X123227241Y-125779976D01*
X123375077Y-125858995D01*
X123504659Y-125965341D01*
X123611004Y-126094922D01*
X123611005Y-126094924D01*
X123690024Y-126242758D01*
X123738687Y-126403177D01*
X123751000Y-126528196D01*
X123751000Y-127511803D01*
X123738687Y-127636823D01*
X123690024Y-127797242D01*
X123619114Y-127929906D01*
X123611004Y-127945078D01*
X123504659Y-128074659D01*
X123375078Y-128181004D01*
X123375076Y-128181005D01*
X123227242Y-128260024D01*
X123066823Y-128308687D01*
X122900000Y-128325117D01*
X122733178Y-128308687D01*
X122572759Y-128260024D01*
X122424925Y-128181005D01*
X122424923Y-128181004D01*
X122295342Y-128074659D01*
X122188997Y-127945078D01*
X122180887Y-127929906D01*
X122109977Y-127797242D01*
X122061314Y-127636823D01*
X122049000Y-127511803D01*
X122049000Y-126528197D01*
X122061313Y-126403178D01*
X122109976Y-126242759D01*
X122188995Y-126094923D01*
X122295341Y-125965341D01*
X122424922Y-125858996D01*
X122440094Y-125850886D01*
X122572758Y-125779976D01*
X122733177Y-125731313D01*
X122900000Y-125714883D01*
X123066822Y-125731313D01*
G37*
G36*
X117066822Y-125731313D02*
G01*
X117227241Y-125779976D01*
X117375077Y-125858995D01*
X117504659Y-125965341D01*
X117611004Y-126094922D01*
X117611005Y-126094924D01*
X117690024Y-126242758D01*
X117738687Y-126403177D01*
X117751000Y-126528196D01*
X117751000Y-127511803D01*
X117738687Y-127636823D01*
X117690024Y-127797242D01*
X117619114Y-127929906D01*
X117611004Y-127945078D01*
X117504659Y-128074659D01*
X117375078Y-128181004D01*
X117375076Y-128181005D01*
X117227242Y-128260024D01*
X117066823Y-128308687D01*
X116900000Y-128325117D01*
X116733178Y-128308687D01*
X116572759Y-128260024D01*
X116424925Y-128181005D01*
X116424923Y-128181004D01*
X116295342Y-128074659D01*
X116188997Y-127945078D01*
X116180887Y-127929906D01*
X116109977Y-127797242D01*
X116061314Y-127636823D01*
X116049000Y-127511803D01*
X116049000Y-126528197D01*
X116061313Y-126403178D01*
X116109976Y-126242759D01*
X116188995Y-126094923D01*
X116295341Y-125965341D01*
X116424922Y-125858996D01*
X116440094Y-125850886D01*
X116572758Y-125779976D01*
X116733177Y-125731313D01*
X116900000Y-125714883D01*
X117066822Y-125731313D01*
G37*
G36*
X119066822Y-125731313D02*
G01*
X119227241Y-125779976D01*
X119375077Y-125858995D01*
X119504659Y-125965341D01*
X119611004Y-126094922D01*
X119611005Y-126094924D01*
X119690024Y-126242758D01*
X119738687Y-126403177D01*
X119751000Y-126528196D01*
X119751000Y-127511803D01*
X119738687Y-127636823D01*
X119690024Y-127797242D01*
X119619114Y-127929906D01*
X119611004Y-127945078D01*
X119504659Y-128074659D01*
X119375078Y-128181004D01*
X119375076Y-128181005D01*
X119227242Y-128260024D01*
X119066823Y-128308687D01*
X118900000Y-128325117D01*
X118733178Y-128308687D01*
X118572759Y-128260024D01*
X118424925Y-128181005D01*
X118424923Y-128181004D01*
X118295342Y-128074659D01*
X118188997Y-127945078D01*
X118180887Y-127929906D01*
X118109977Y-127797242D01*
X118061314Y-127636823D01*
X118049000Y-127511803D01*
X118049000Y-126528197D01*
X118061313Y-126403178D01*
X118109976Y-126242759D01*
X118188995Y-126094923D01*
X118295341Y-125965341D01*
X118424922Y-125858996D01*
X118440094Y-125850886D01*
X118572758Y-125779976D01*
X118733177Y-125731313D01*
X118900000Y-125714883D01*
X119066822Y-125731313D01*
G37*
G36*
X113751000Y-128321000D02*
G01*
X112049000Y-128321000D01*
X112049000Y-125719000D01*
X113751000Y-125719000D01*
X113751000Y-128321000D01*
G37*
G36*
X108503097Y-123414069D02*
G01*
X108606032Y-123424207D01*
X108804146Y-123484305D01*
X108804149Y-123484306D01*
X108900975Y-123536061D01*
X108986729Y-123581897D01*
X109146765Y-123713235D01*
X109278103Y-123873271D01*
X109323939Y-123959025D01*
X109375694Y-124055851D01*
X109375695Y-124055854D01*
X109435793Y-124253968D01*
X109456085Y-124460000D01*
X109435793Y-124666032D01*
X109375695Y-124864146D01*
X109375694Y-124864149D01*
X109323939Y-124960975D01*
X109278103Y-125046729D01*
X109146765Y-125206765D01*
X108986729Y-125338103D01*
X108900975Y-125383939D01*
X108804149Y-125435694D01*
X108804146Y-125435695D01*
X108606032Y-125495793D01*
X108503097Y-125505931D01*
X108451631Y-125511000D01*
X107348369Y-125511000D01*
X107296903Y-125505931D01*
X107193968Y-125495793D01*
X106995854Y-125435695D01*
X106995851Y-125435694D01*
X106899025Y-125383939D01*
X106813271Y-125338103D01*
X106653235Y-125206765D01*
X106521897Y-125046729D01*
X106476061Y-124960975D01*
X106424306Y-124864149D01*
X106424305Y-124864146D01*
X106364207Y-124666032D01*
X106343915Y-124460000D01*
X106364207Y-124253968D01*
X106424305Y-124055854D01*
X106424306Y-124055851D01*
X106476061Y-123959025D01*
X106521897Y-123873271D01*
X106653235Y-123713235D01*
X106813271Y-123581897D01*
X106899025Y-123536061D01*
X106995851Y-123484306D01*
X106995854Y-123484305D01*
X107193968Y-123424207D01*
X107296903Y-123414069D01*
X107348369Y-123409000D01*
X108451631Y-123409000D01*
X108503097Y-123414069D01*
G37*
G36*
X136503097Y-123414069D02*
G01*
X136606032Y-123424207D01*
X136804146Y-123484305D01*
X136804149Y-123484306D01*
X136900975Y-123536061D01*
X136986729Y-123581897D01*
X137146765Y-123713235D01*
X137278103Y-123873271D01*
X137323939Y-123959025D01*
X137375694Y-124055851D01*
X137375695Y-124055854D01*
X137435793Y-124253968D01*
X137456085Y-124460000D01*
X137435793Y-124666032D01*
X137375695Y-124864146D01*
X137375694Y-124864149D01*
X137323939Y-124960975D01*
X137278103Y-125046729D01*
X137146765Y-125206765D01*
X136986729Y-125338103D01*
X136900975Y-125383939D01*
X136804149Y-125435694D01*
X136804146Y-125435695D01*
X136606032Y-125495793D01*
X136503097Y-125505931D01*
X136451631Y-125511000D01*
X135348369Y-125511000D01*
X135296903Y-125505931D01*
X135193968Y-125495793D01*
X134995854Y-125435695D01*
X134995851Y-125435694D01*
X134899025Y-125383939D01*
X134813271Y-125338103D01*
X134653235Y-125206765D01*
X134521897Y-125046729D01*
X134476061Y-124960975D01*
X134424306Y-124864149D01*
X134424305Y-124864146D01*
X134364207Y-124666032D01*
X134343915Y-124460000D01*
X134364207Y-124253968D01*
X134424305Y-124055854D01*
X134424306Y-124055851D01*
X134476061Y-123959025D01*
X134521897Y-123873271D01*
X134653235Y-123713235D01*
X134813271Y-123581897D01*
X134899025Y-123536061D01*
X134995851Y-123484306D01*
X134995854Y-123484305D01*
X135193968Y-123424207D01*
X135296903Y-123414069D01*
X135348369Y-123409000D01*
X136451631Y-123409000D01*
X136503097Y-123414069D01*
G37*
G36*
X136503097Y-120874069D02*
G01*
X136606032Y-120884207D01*
X136804146Y-120944305D01*
X136804149Y-120944306D01*
X136900975Y-120996061D01*
X136986729Y-121041897D01*
X137146765Y-121173235D01*
X137278103Y-121333271D01*
X137323939Y-121419025D01*
X137375694Y-121515851D01*
X137375695Y-121515854D01*
X137435793Y-121713968D01*
X137456085Y-121920000D01*
X137435793Y-122126032D01*
X137375695Y-122324146D01*
X137375694Y-122324149D01*
X137323939Y-122420975D01*
X137278103Y-122506729D01*
X137146765Y-122666765D01*
X136986729Y-122798103D01*
X136900975Y-122843939D01*
X136804149Y-122895694D01*
X136804146Y-122895695D01*
X136606032Y-122955793D01*
X136503097Y-122965931D01*
X136451631Y-122971000D01*
X135348369Y-122971000D01*
X135296903Y-122965931D01*
X135193968Y-122955793D01*
X134995854Y-122895695D01*
X134995851Y-122895694D01*
X134899025Y-122843939D01*
X134813271Y-122798103D01*
X134653235Y-122666765D01*
X134521897Y-122506729D01*
X134476061Y-122420975D01*
X134424306Y-122324149D01*
X134424305Y-122324146D01*
X134364207Y-122126032D01*
X134343915Y-121920000D01*
X134364207Y-121713968D01*
X134424305Y-121515854D01*
X134424306Y-121515851D01*
X134476061Y-121419025D01*
X134521897Y-121333271D01*
X134653235Y-121173235D01*
X134813271Y-121041897D01*
X134899025Y-120996061D01*
X134995851Y-120944306D01*
X134995854Y-120944305D01*
X135193968Y-120884207D01*
X135296903Y-120874069D01*
X135348369Y-120869000D01*
X136451631Y-120869000D01*
X136503097Y-120874069D01*
G37*
G36*
X108503097Y-120874069D02*
G01*
X108606032Y-120884207D01*
X108804146Y-120944305D01*
X108804149Y-120944306D01*
X108900975Y-120996061D01*
X108986729Y-121041897D01*
X109146765Y-121173235D01*
X109278103Y-121333271D01*
X109323939Y-121419025D01*
X109375694Y-121515851D01*
X109375695Y-121515854D01*
X109435793Y-121713968D01*
X109456085Y-121920000D01*
X109435793Y-122126032D01*
X109375695Y-122324146D01*
X109375694Y-122324149D01*
X109323939Y-122420975D01*
X109278103Y-122506729D01*
X109146765Y-122666765D01*
X108986729Y-122798103D01*
X108900975Y-122843939D01*
X108804149Y-122895694D01*
X108804146Y-122895695D01*
X108606032Y-122955793D01*
X108503097Y-122965931D01*
X108451631Y-122971000D01*
X107348369Y-122971000D01*
X107296903Y-122965931D01*
X107193968Y-122955793D01*
X106995854Y-122895695D01*
X106995851Y-122895694D01*
X106899025Y-122843939D01*
X106813271Y-122798103D01*
X106653235Y-122666765D01*
X106521897Y-122506729D01*
X106476061Y-122420975D01*
X106424306Y-122324149D01*
X106424305Y-122324146D01*
X106364207Y-122126032D01*
X106343915Y-121920000D01*
X106364207Y-121713968D01*
X106424305Y-121515854D01*
X106424306Y-121515851D01*
X106476061Y-121419025D01*
X106521897Y-121333271D01*
X106653235Y-121173235D01*
X106813271Y-121041897D01*
X106899025Y-120996061D01*
X106995851Y-120944306D01*
X106995854Y-120944305D01*
X107193968Y-120884207D01*
X107296903Y-120874069D01*
X107348369Y-120869000D01*
X108451631Y-120869000D01*
X108503097Y-120874069D01*
G37*
G36*
X136503097Y-118334069D02*
G01*
X136606032Y-118344207D01*
X136804146Y-118404305D01*
X136804149Y-118404306D01*
X136900975Y-118456061D01*
X136986729Y-118501897D01*
X137146765Y-118633235D01*
X137278103Y-118793271D01*
X137323939Y-118879025D01*
X137375694Y-118975851D01*
X137375695Y-118975854D01*
X137435793Y-119173968D01*
X137456085Y-119380000D01*
X137435793Y-119586032D01*
X137375695Y-119784146D01*
X137375694Y-119784149D01*
X137323939Y-119880975D01*
X137278103Y-119966729D01*
X137146765Y-120126765D01*
X136986729Y-120258103D01*
X136900975Y-120303939D01*
X136804149Y-120355694D01*
X136804146Y-120355695D01*
X136606032Y-120415793D01*
X136503097Y-120425931D01*
X136451631Y-120431000D01*
X135348369Y-120431000D01*
X135296903Y-120425931D01*
X135193968Y-120415793D01*
X134995854Y-120355695D01*
X134995851Y-120355694D01*
X134899025Y-120303939D01*
X134813271Y-120258103D01*
X134653235Y-120126765D01*
X134521897Y-119966729D01*
X134476061Y-119880975D01*
X134424306Y-119784149D01*
X134424305Y-119784146D01*
X134364207Y-119586032D01*
X134343915Y-119380000D01*
X134364207Y-119173968D01*
X134424305Y-118975854D01*
X134424306Y-118975851D01*
X134476061Y-118879025D01*
X134521897Y-118793271D01*
X134653235Y-118633235D01*
X134813271Y-118501897D01*
X134899025Y-118456061D01*
X134995851Y-118404306D01*
X134995854Y-118404305D01*
X135193968Y-118344207D01*
X135296903Y-118334069D01*
X135348369Y-118329000D01*
X136451631Y-118329000D01*
X136503097Y-118334069D01*
G37*
G36*
X108503097Y-118334069D02*
G01*
X108606032Y-118344207D01*
X108804146Y-118404305D01*
X108804149Y-118404306D01*
X108900975Y-118456061D01*
X108986729Y-118501897D01*
X109146765Y-118633235D01*
X109278103Y-118793271D01*
X109323939Y-118879025D01*
X109375694Y-118975851D01*
X109375695Y-118975854D01*
X109435793Y-119173968D01*
X109456085Y-119380000D01*
X109435793Y-119586032D01*
X109375695Y-119784146D01*
X109375694Y-119784149D01*
X109323939Y-119880975D01*
X109278103Y-119966729D01*
X109146765Y-120126765D01*
X108986729Y-120258103D01*
X108900975Y-120303939D01*
X108804149Y-120355694D01*
X108804146Y-120355695D01*
X108606032Y-120415793D01*
X108503097Y-120425931D01*
X108451631Y-120431000D01*
X107348369Y-120431000D01*
X107296903Y-120425931D01*
X107193968Y-120415793D01*
X106995854Y-120355695D01*
X106995851Y-120355694D01*
X106899025Y-120303939D01*
X106813271Y-120258103D01*
X106653235Y-120126765D01*
X106521897Y-119966729D01*
X106476061Y-119880975D01*
X106424306Y-119784149D01*
X106424305Y-119784146D01*
X106364207Y-119586032D01*
X106343915Y-119380000D01*
X106364207Y-119173968D01*
X106424305Y-118975854D01*
X106424306Y-118975851D01*
X106476061Y-118879025D01*
X106521897Y-118793271D01*
X106653235Y-118633235D01*
X106813271Y-118501897D01*
X106899025Y-118456061D01*
X106995851Y-118404306D01*
X106995854Y-118404305D01*
X107193968Y-118344207D01*
X107296903Y-118334069D01*
X107348369Y-118329000D01*
X108451631Y-118329000D01*
X108503097Y-118334069D01*
G37*
G36*
X108503097Y-115794069D02*
G01*
X108606032Y-115804207D01*
X108804146Y-115864305D01*
X108804149Y-115864306D01*
X108900975Y-115916061D01*
X108986729Y-115961897D01*
X109146765Y-116093235D01*
X109278103Y-116253271D01*
X109323939Y-116339025D01*
X109375694Y-116435851D01*
X109375695Y-116435854D01*
X109435793Y-116633968D01*
X109456085Y-116840000D01*
X109435793Y-117046032D01*
X109375695Y-117244146D01*
X109375694Y-117244149D01*
X109323939Y-117340975D01*
X109278103Y-117426729D01*
X109146765Y-117586765D01*
X108986729Y-117718103D01*
X108900975Y-117763939D01*
X108804149Y-117815694D01*
X108804146Y-117815695D01*
X108606032Y-117875793D01*
X108503097Y-117885931D01*
X108451631Y-117891000D01*
X107348369Y-117891000D01*
X107296903Y-117885931D01*
X107193968Y-117875793D01*
X106995854Y-117815695D01*
X106995851Y-117815694D01*
X106899025Y-117763939D01*
X106813271Y-117718103D01*
X106653235Y-117586765D01*
X106521897Y-117426729D01*
X106476061Y-117340975D01*
X106424306Y-117244149D01*
X106424305Y-117244146D01*
X106364207Y-117046032D01*
X106343915Y-116840000D01*
X106364207Y-116633968D01*
X106424305Y-116435854D01*
X106424306Y-116435851D01*
X106476061Y-116339025D01*
X106521897Y-116253271D01*
X106653235Y-116093235D01*
X106813271Y-115961897D01*
X106899025Y-115916061D01*
X106995851Y-115864306D01*
X106995854Y-115864305D01*
X107193968Y-115804207D01*
X107296903Y-115794069D01*
X107348369Y-115789000D01*
X108451631Y-115789000D01*
X108503097Y-115794069D01*
G37*
G36*
X136503097Y-115794069D02*
G01*
X136606032Y-115804207D01*
X136804146Y-115864305D01*
X136804149Y-115864306D01*
X136900975Y-115916061D01*
X136986729Y-115961897D01*
X137146765Y-116093235D01*
X137278103Y-116253271D01*
X137323939Y-116339025D01*
X137375694Y-116435851D01*
X137375695Y-116435854D01*
X137435793Y-116633968D01*
X137456085Y-116840000D01*
X137435793Y-117046032D01*
X137375695Y-117244146D01*
X137375694Y-117244149D01*
X137323939Y-117340975D01*
X137278103Y-117426729D01*
X137146765Y-117586765D01*
X136986729Y-117718103D01*
X136900975Y-117763939D01*
X136804149Y-117815694D01*
X136804146Y-117815695D01*
X136606032Y-117875793D01*
X136503097Y-117885931D01*
X136451631Y-117891000D01*
X135348369Y-117891000D01*
X135296903Y-117885931D01*
X135193968Y-117875793D01*
X134995854Y-117815695D01*
X134995851Y-117815694D01*
X134899025Y-117763939D01*
X134813271Y-117718103D01*
X134653235Y-117586765D01*
X134521897Y-117426729D01*
X134476061Y-117340975D01*
X134424306Y-117244149D01*
X134424305Y-117244146D01*
X134364207Y-117046032D01*
X134343915Y-116840000D01*
X134364207Y-116633968D01*
X134424305Y-116435854D01*
X134424306Y-116435851D01*
X134476061Y-116339025D01*
X134521897Y-116253271D01*
X134653235Y-116093235D01*
X134813271Y-115961897D01*
X134899025Y-115916061D01*
X134995851Y-115864306D01*
X134995854Y-115864305D01*
X135193968Y-115804207D01*
X135296903Y-115794069D01*
X135348369Y-115789000D01*
X136451631Y-115789000D01*
X136503097Y-115794069D01*
G37*
G36*
X136503097Y-113254069D02*
G01*
X136606032Y-113264207D01*
X136804146Y-113324305D01*
X136804149Y-113324306D01*
X136900975Y-113376061D01*
X136986729Y-113421897D01*
X137146765Y-113553235D01*
X137278103Y-113713271D01*
X137323939Y-113799025D01*
X137375694Y-113895851D01*
X137375695Y-113895854D01*
X137435793Y-114093968D01*
X137456085Y-114300000D01*
X137435793Y-114506032D01*
X137375695Y-114704146D01*
X137375694Y-114704149D01*
X137323939Y-114800975D01*
X137278103Y-114886729D01*
X137146765Y-115046765D01*
X136986729Y-115178103D01*
X136900975Y-115223939D01*
X136804149Y-115275694D01*
X136804146Y-115275695D01*
X136606032Y-115335793D01*
X136503097Y-115345931D01*
X136451631Y-115351000D01*
X135348369Y-115351000D01*
X135296903Y-115345931D01*
X135193968Y-115335793D01*
X134995854Y-115275695D01*
X134995851Y-115275694D01*
X134899025Y-115223939D01*
X134813271Y-115178103D01*
X134653235Y-115046765D01*
X134521897Y-114886729D01*
X134476061Y-114800975D01*
X134424306Y-114704149D01*
X134424305Y-114704146D01*
X134364207Y-114506032D01*
X134343915Y-114300000D01*
X134364207Y-114093968D01*
X134424305Y-113895854D01*
X134424306Y-113895851D01*
X134476061Y-113799025D01*
X134521897Y-113713271D01*
X134653235Y-113553235D01*
X134813271Y-113421897D01*
X134899025Y-113376061D01*
X134995851Y-113324306D01*
X134995854Y-113324305D01*
X135193968Y-113264207D01*
X135296903Y-113254069D01*
X135348369Y-113249000D01*
X136451631Y-113249000D01*
X136503097Y-113254069D01*
G37*
G36*
X108503097Y-113254069D02*
G01*
X108606032Y-113264207D01*
X108804146Y-113324305D01*
X108804149Y-113324306D01*
X108900975Y-113376061D01*
X108986729Y-113421897D01*
X109146765Y-113553235D01*
X109278103Y-113713271D01*
X109323939Y-113799025D01*
X109375694Y-113895851D01*
X109375695Y-113895854D01*
X109435793Y-114093968D01*
X109456085Y-114300000D01*
X109435793Y-114506032D01*
X109375695Y-114704146D01*
X109375694Y-114704149D01*
X109323939Y-114800975D01*
X109278103Y-114886729D01*
X109146765Y-115046765D01*
X108986729Y-115178103D01*
X108900975Y-115223939D01*
X108804149Y-115275694D01*
X108804146Y-115275695D01*
X108606032Y-115335793D01*
X108503097Y-115345931D01*
X108451631Y-115351000D01*
X107348369Y-115351000D01*
X107296903Y-115345931D01*
X107193968Y-115335793D01*
X106995854Y-115275695D01*
X106995851Y-115275694D01*
X106899025Y-115223939D01*
X106813271Y-115178103D01*
X106653235Y-115046765D01*
X106521897Y-114886729D01*
X106476061Y-114800975D01*
X106424306Y-114704149D01*
X106424305Y-114704146D01*
X106364207Y-114506032D01*
X106343915Y-114300000D01*
X106364207Y-114093968D01*
X106424305Y-113895854D01*
X106424306Y-113895851D01*
X106476061Y-113799025D01*
X106521897Y-113713271D01*
X106653235Y-113553235D01*
X106813271Y-113421897D01*
X106899025Y-113376061D01*
X106995851Y-113324306D01*
X106995854Y-113324305D01*
X107193968Y-113264207D01*
X107296903Y-113254069D01*
X107348369Y-113249000D01*
X108451631Y-113249000D01*
X108503097Y-113254069D01*
G37*
G36*
X108503097Y-110714069D02*
G01*
X108606032Y-110724207D01*
X108804146Y-110784305D01*
X108804149Y-110784306D01*
X108900975Y-110836061D01*
X108986729Y-110881897D01*
X109146765Y-111013235D01*
X109278103Y-111173271D01*
X109323939Y-111259025D01*
X109375694Y-111355851D01*
X109375695Y-111355854D01*
X109435793Y-111553968D01*
X109456085Y-111760000D01*
X109435793Y-111966032D01*
X109375695Y-112164146D01*
X109375694Y-112164149D01*
X109323939Y-112260975D01*
X109278103Y-112346729D01*
X109146765Y-112506765D01*
X108986729Y-112638103D01*
X108900975Y-112683939D01*
X108804149Y-112735694D01*
X108804146Y-112735695D01*
X108606032Y-112795793D01*
X108503097Y-112805931D01*
X108451631Y-112811000D01*
X107348369Y-112811000D01*
X107296903Y-112805931D01*
X107193968Y-112795793D01*
X106995854Y-112735695D01*
X106995851Y-112735694D01*
X106899025Y-112683939D01*
X106813271Y-112638103D01*
X106653235Y-112506765D01*
X106521897Y-112346729D01*
X106476061Y-112260975D01*
X106424306Y-112164149D01*
X106424305Y-112164146D01*
X106364207Y-111966032D01*
X106343915Y-111760000D01*
X106364207Y-111553968D01*
X106424305Y-111355854D01*
X106424306Y-111355851D01*
X106476061Y-111259025D01*
X106521897Y-111173271D01*
X106653235Y-111013235D01*
X106813271Y-110881897D01*
X106899025Y-110836061D01*
X106995851Y-110784306D01*
X106995854Y-110784305D01*
X107193968Y-110724207D01*
X107296903Y-110714069D01*
X107348369Y-110709000D01*
X108451631Y-110709000D01*
X108503097Y-110714069D01*
G37*
G36*
X136503097Y-110714069D02*
G01*
X136606032Y-110724207D01*
X136804146Y-110784305D01*
X136804149Y-110784306D01*
X136900975Y-110836061D01*
X136986729Y-110881897D01*
X137146765Y-111013235D01*
X137278103Y-111173271D01*
X137323939Y-111259025D01*
X137375694Y-111355851D01*
X137375695Y-111355854D01*
X137435793Y-111553968D01*
X137456085Y-111760000D01*
X137435793Y-111966032D01*
X137375695Y-112164146D01*
X137375694Y-112164149D01*
X137323939Y-112260975D01*
X137278103Y-112346729D01*
X137146765Y-112506765D01*
X136986729Y-112638103D01*
X136900975Y-112683939D01*
X136804149Y-112735694D01*
X136804146Y-112735695D01*
X136606032Y-112795793D01*
X136503097Y-112805931D01*
X136451631Y-112811000D01*
X135348369Y-112811000D01*
X135296903Y-112805931D01*
X135193968Y-112795793D01*
X134995854Y-112735695D01*
X134995851Y-112735694D01*
X134899025Y-112683939D01*
X134813271Y-112638103D01*
X134653235Y-112506765D01*
X134521897Y-112346729D01*
X134476061Y-112260975D01*
X134424306Y-112164149D01*
X134424305Y-112164146D01*
X134364207Y-111966032D01*
X134343915Y-111760000D01*
X134364207Y-111553968D01*
X134424305Y-111355854D01*
X134424306Y-111355851D01*
X134476061Y-111259025D01*
X134521897Y-111173271D01*
X134653235Y-111013235D01*
X134813271Y-110881897D01*
X134899025Y-110836061D01*
X134995851Y-110784306D01*
X134995854Y-110784305D01*
X135193968Y-110724207D01*
X135296903Y-110714069D01*
X135348369Y-110709000D01*
X136451631Y-110709000D01*
X136503097Y-110714069D01*
G37*
G36*
X108503097Y-108174069D02*
G01*
X108606032Y-108184207D01*
X108804146Y-108244305D01*
X108804149Y-108244306D01*
X108900975Y-108296061D01*
X108986729Y-108341897D01*
X109146765Y-108473235D01*
X109278103Y-108633271D01*
X109323939Y-108719025D01*
X109375694Y-108815851D01*
X109375695Y-108815854D01*
X109435793Y-109013968D01*
X109456085Y-109220000D01*
X109435793Y-109426032D01*
X109375695Y-109624146D01*
X109375694Y-109624149D01*
X109323939Y-109720975D01*
X109278103Y-109806729D01*
X109146765Y-109966765D01*
X108986729Y-110098103D01*
X108900975Y-110143939D01*
X108804149Y-110195694D01*
X108804146Y-110195695D01*
X108606032Y-110255793D01*
X108503097Y-110265931D01*
X108451631Y-110271000D01*
X107348369Y-110271000D01*
X107296903Y-110265931D01*
X107193968Y-110255793D01*
X106995854Y-110195695D01*
X106995851Y-110195694D01*
X106899025Y-110143939D01*
X106813271Y-110098103D01*
X106653235Y-109966765D01*
X106521897Y-109806729D01*
X106476061Y-109720975D01*
X106424306Y-109624149D01*
X106424305Y-109624146D01*
X106364207Y-109426032D01*
X106343915Y-109220000D01*
X106364207Y-109013968D01*
X106424305Y-108815854D01*
X106424306Y-108815851D01*
X106476061Y-108719025D01*
X106521897Y-108633271D01*
X106653235Y-108473235D01*
X106813271Y-108341897D01*
X106899025Y-108296061D01*
X106995851Y-108244306D01*
X106995854Y-108244305D01*
X107193968Y-108184207D01*
X107296903Y-108174069D01*
X107348369Y-108169000D01*
X108451631Y-108169000D01*
X108503097Y-108174069D01*
G37*
G36*
X136503097Y-108174069D02*
G01*
X136606032Y-108184207D01*
X136804146Y-108244305D01*
X136804149Y-108244306D01*
X136900975Y-108296061D01*
X136986729Y-108341897D01*
X137146765Y-108473235D01*
X137278103Y-108633271D01*
X137323939Y-108719025D01*
X137375694Y-108815851D01*
X137375695Y-108815854D01*
X137435793Y-109013968D01*
X137456085Y-109220000D01*
X137435793Y-109426032D01*
X137375695Y-109624146D01*
X137375694Y-109624149D01*
X137323939Y-109720975D01*
X137278103Y-109806729D01*
X137146765Y-109966765D01*
X136986729Y-110098103D01*
X136900975Y-110143939D01*
X136804149Y-110195694D01*
X136804146Y-110195695D01*
X136606032Y-110255793D01*
X136503097Y-110265931D01*
X136451631Y-110271000D01*
X135348369Y-110271000D01*
X135296903Y-110265931D01*
X135193968Y-110255793D01*
X134995854Y-110195695D01*
X134995851Y-110195694D01*
X134899025Y-110143939D01*
X134813271Y-110098103D01*
X134653235Y-109966765D01*
X134521897Y-109806729D01*
X134476061Y-109720975D01*
X134424306Y-109624149D01*
X134424305Y-109624146D01*
X134364207Y-109426032D01*
X134343915Y-109220000D01*
X134364207Y-109013968D01*
X134424305Y-108815854D01*
X134424306Y-108815851D01*
X134476061Y-108719025D01*
X134521897Y-108633271D01*
X134653235Y-108473235D01*
X134813271Y-108341897D01*
X134899025Y-108296061D01*
X134995851Y-108244306D01*
X134995854Y-108244305D01*
X135193968Y-108184207D01*
X135296903Y-108174069D01*
X135348369Y-108169000D01*
X136451631Y-108169000D01*
X136503097Y-108174069D01*
G37*
G36*
X137051000Y-107831000D02*
G01*
X134749000Y-107831000D01*
X134749000Y-105529000D01*
X137051000Y-105529000D01*
X137051000Y-107831000D01*
G37*
G36*
X109051000Y-107831000D02*
G01*
X106749000Y-107831000D01*
X106749000Y-105529000D01*
X109051000Y-105529000D01*
X109051000Y-107831000D01*
G37*
G36*
X131066822Y-103731313D02*
G01*
X131227241Y-103779976D01*
X131375077Y-103858995D01*
X131504659Y-103965341D01*
X131611004Y-104094922D01*
X131611005Y-104094924D01*
X131690024Y-104242758D01*
X131738687Y-104403177D01*
X131751000Y-104528196D01*
X131751000Y-105511803D01*
X131738687Y-105636823D01*
X131690024Y-105797242D01*
X131619114Y-105929906D01*
X131611004Y-105945078D01*
X131504659Y-106074659D01*
X131375078Y-106181004D01*
X131375076Y-106181005D01*
X131227242Y-106260024D01*
X131066823Y-106308687D01*
X130900000Y-106325117D01*
X130733178Y-106308687D01*
X130572759Y-106260024D01*
X130424925Y-106181005D01*
X130424923Y-106181004D01*
X130295342Y-106074659D01*
X130188997Y-105945078D01*
X130180887Y-105929906D01*
X130109977Y-105797242D01*
X130061314Y-105636823D01*
X130049000Y-105511803D01*
X130049000Y-104528197D01*
X130061313Y-104403178D01*
X130109976Y-104242759D01*
X130188995Y-104094923D01*
X130295341Y-103965341D01*
X130424922Y-103858996D01*
X130440094Y-103850886D01*
X130572758Y-103779976D01*
X130733177Y-103731313D01*
X130900000Y-103714883D01*
X131066822Y-103731313D01*
G37*
G36*
X129066822Y-103731313D02*
G01*
X129227241Y-103779976D01*
X129375077Y-103858995D01*
X129504659Y-103965341D01*
X129611004Y-104094922D01*
X129611005Y-104094924D01*
X129690024Y-104242758D01*
X129738687Y-104403177D01*
X129751000Y-104528196D01*
X129751000Y-105511803D01*
X129738687Y-105636823D01*
X129690024Y-105797242D01*
X129619114Y-105929906D01*
X129611004Y-105945078D01*
X129504659Y-106074659D01*
X129375078Y-106181004D01*
X129375076Y-106181005D01*
X129227242Y-106260024D01*
X129066823Y-106308687D01*
X128900000Y-106325117D01*
X128733178Y-106308687D01*
X128572759Y-106260024D01*
X128424925Y-106181005D01*
X128424923Y-106181004D01*
X128295342Y-106074659D01*
X128188997Y-105945078D01*
X128180887Y-105929906D01*
X128109977Y-105797242D01*
X128061314Y-105636823D01*
X128049000Y-105511803D01*
X128049000Y-104528197D01*
X128061313Y-104403178D01*
X128109976Y-104242759D01*
X128188995Y-104094923D01*
X128295341Y-103965341D01*
X128424922Y-103858996D01*
X128440094Y-103850886D01*
X128572758Y-103779976D01*
X128733177Y-103731313D01*
X128900000Y-103714883D01*
X129066822Y-103731313D01*
G37*
G36*
X127066822Y-103731313D02*
G01*
X127227241Y-103779976D01*
X127375077Y-103858995D01*
X127504659Y-103965341D01*
X127611004Y-104094922D01*
X127611005Y-104094924D01*
X127690024Y-104242758D01*
X127738687Y-104403177D01*
X127751000Y-104528196D01*
X127751000Y-105511803D01*
X127738687Y-105636823D01*
X127690024Y-105797242D01*
X127619114Y-105929906D01*
X127611004Y-105945078D01*
X127504659Y-106074659D01*
X127375078Y-106181004D01*
X127375076Y-106181005D01*
X127227242Y-106260024D01*
X127066823Y-106308687D01*
X126900000Y-106325117D01*
X126733178Y-106308687D01*
X126572759Y-106260024D01*
X126424925Y-106181005D01*
X126424923Y-106181004D01*
X126295342Y-106074659D01*
X126188997Y-105945078D01*
X126180887Y-105929906D01*
X126109977Y-105797242D01*
X126061314Y-105636823D01*
X126049000Y-105511803D01*
X126049000Y-104528197D01*
X126061313Y-104403178D01*
X126109976Y-104242759D01*
X126188995Y-104094923D01*
X126295341Y-103965341D01*
X126424922Y-103858996D01*
X126440094Y-103850886D01*
X126572758Y-103779976D01*
X126733177Y-103731313D01*
X126900000Y-103714883D01*
X127066822Y-103731313D01*
G37*
G36*
X125066822Y-103731313D02*
G01*
X125227241Y-103779976D01*
X125375077Y-103858995D01*
X125504659Y-103965341D01*
X125611004Y-104094922D01*
X125611005Y-104094924D01*
X125690024Y-104242758D01*
X125738687Y-104403177D01*
X125751000Y-104528196D01*
X125751000Y-105511803D01*
X125738687Y-105636823D01*
X125690024Y-105797242D01*
X125619114Y-105929906D01*
X125611004Y-105945078D01*
X125504659Y-106074659D01*
X125375078Y-106181004D01*
X125375076Y-106181005D01*
X125227242Y-106260024D01*
X125066823Y-106308687D01*
X124900000Y-106325117D01*
X124733178Y-106308687D01*
X124572759Y-106260024D01*
X124424925Y-106181005D01*
X124424923Y-106181004D01*
X124295342Y-106074659D01*
X124188997Y-105945078D01*
X124180887Y-105929906D01*
X124109977Y-105797242D01*
X124061314Y-105636823D01*
X124049000Y-105511803D01*
X124049000Y-104528197D01*
X124061313Y-104403178D01*
X124109976Y-104242759D01*
X124188995Y-104094923D01*
X124295341Y-103965341D01*
X124424922Y-103858996D01*
X124440094Y-103850886D01*
X124572758Y-103779976D01*
X124733177Y-103731313D01*
X124900000Y-103714883D01*
X125066822Y-103731313D01*
G37*
G36*
X123066822Y-103731313D02*
G01*
X123227241Y-103779976D01*
X123375077Y-103858995D01*
X123504659Y-103965341D01*
X123611004Y-104094922D01*
X123611005Y-104094924D01*
X123690024Y-104242758D01*
X123738687Y-104403177D01*
X123751000Y-104528196D01*
X123751000Y-105511803D01*
X123738687Y-105636823D01*
X123690024Y-105797242D01*
X123619114Y-105929906D01*
X123611004Y-105945078D01*
X123504659Y-106074659D01*
X123375078Y-106181004D01*
X123375076Y-106181005D01*
X123227242Y-106260024D01*
X123066823Y-106308687D01*
X122900000Y-106325117D01*
X122733178Y-106308687D01*
X122572759Y-106260024D01*
X122424925Y-106181005D01*
X122424923Y-106181004D01*
X122295342Y-106074659D01*
X122188997Y-105945078D01*
X122180887Y-105929906D01*
X122109977Y-105797242D01*
X122061314Y-105636823D01*
X122049000Y-105511803D01*
X122049000Y-104528197D01*
X122061313Y-104403178D01*
X122109976Y-104242759D01*
X122188995Y-104094923D01*
X122295341Y-103965341D01*
X122424922Y-103858996D01*
X122440094Y-103850886D01*
X122572758Y-103779976D01*
X122733177Y-103731313D01*
X122900000Y-103714883D01*
X123066822Y-103731313D01*
G37*
G36*
X121066822Y-103731313D02*
G01*
X121227241Y-103779976D01*
X121375077Y-103858995D01*
X121504659Y-103965341D01*
X121611004Y-104094922D01*
X121611005Y-104094924D01*
X121690024Y-104242758D01*
X121738687Y-104403177D01*
X121751000Y-104528196D01*
X121751000Y-105511803D01*
X121738687Y-105636823D01*
X121690024Y-105797242D01*
X121619114Y-105929906D01*
X121611004Y-105945078D01*
X121504659Y-106074659D01*
X121375078Y-106181004D01*
X121375076Y-106181005D01*
X121227242Y-106260024D01*
X121066823Y-106308687D01*
X120900000Y-106325117D01*
X120733178Y-106308687D01*
X120572759Y-106260024D01*
X120424925Y-106181005D01*
X120424923Y-106181004D01*
X120295342Y-106074659D01*
X120188997Y-105945078D01*
X120180887Y-105929906D01*
X120109977Y-105797242D01*
X120061314Y-105636823D01*
X120049000Y-105511803D01*
X120049000Y-104528197D01*
X120061313Y-104403178D01*
X120109976Y-104242759D01*
X120188995Y-104094923D01*
X120295341Y-103965341D01*
X120424922Y-103858996D01*
X120440094Y-103850886D01*
X120572758Y-103779976D01*
X120733177Y-103731313D01*
X120900000Y-103714883D01*
X121066822Y-103731313D01*
G37*
G36*
X117066822Y-103731313D02*
G01*
X117227241Y-103779976D01*
X117375077Y-103858995D01*
X117504659Y-103965341D01*
X117611004Y-104094922D01*
X117611005Y-104094924D01*
X117690024Y-104242758D01*
X117738687Y-104403177D01*
X117751000Y-104528196D01*
X117751000Y-105511803D01*
X117738687Y-105636823D01*
X117690024Y-105797242D01*
X117619114Y-105929906D01*
X117611004Y-105945078D01*
X117504659Y-106074659D01*
X117375078Y-106181004D01*
X117375076Y-106181005D01*
X117227242Y-106260024D01*
X117066823Y-106308687D01*
X116900000Y-106325117D01*
X116733178Y-106308687D01*
X116572759Y-106260024D01*
X116424925Y-106181005D01*
X116424923Y-106181004D01*
X116295342Y-106074659D01*
X116188997Y-105945078D01*
X116180887Y-105929906D01*
X116109977Y-105797242D01*
X116061314Y-105636823D01*
X116049000Y-105511803D01*
X116049000Y-104528197D01*
X116061313Y-104403178D01*
X116109976Y-104242759D01*
X116188995Y-104094923D01*
X116295341Y-103965341D01*
X116424922Y-103858996D01*
X116440094Y-103850886D01*
X116572758Y-103779976D01*
X116733177Y-103731313D01*
X116900000Y-103714883D01*
X117066822Y-103731313D01*
G37*
G36*
X115066822Y-103731313D02*
G01*
X115227241Y-103779976D01*
X115375077Y-103858995D01*
X115504659Y-103965341D01*
X115611004Y-104094922D01*
X115611005Y-104094924D01*
X115690024Y-104242758D01*
X115738687Y-104403177D01*
X115751000Y-104528196D01*
X115751000Y-105511803D01*
X115738687Y-105636823D01*
X115690024Y-105797242D01*
X115619114Y-105929906D01*
X115611004Y-105945078D01*
X115504659Y-106074659D01*
X115375078Y-106181004D01*
X115375076Y-106181005D01*
X115227242Y-106260024D01*
X115066823Y-106308687D01*
X114900000Y-106325117D01*
X114733178Y-106308687D01*
X114572759Y-106260024D01*
X114424925Y-106181005D01*
X114424923Y-106181004D01*
X114295342Y-106074659D01*
X114188997Y-105945078D01*
X114180887Y-105929906D01*
X114109977Y-105797242D01*
X114061314Y-105636823D01*
X114049000Y-105511803D01*
X114049000Y-104528197D01*
X114061313Y-104403178D01*
X114109976Y-104242759D01*
X114188995Y-104094923D01*
X114295341Y-103965341D01*
X114424922Y-103858996D01*
X114440094Y-103850886D01*
X114572758Y-103779976D01*
X114733177Y-103731313D01*
X114900000Y-103714883D01*
X115066822Y-103731313D01*
G37*
G36*
X113066822Y-103731313D02*
G01*
X113227241Y-103779976D01*
X113375077Y-103858995D01*
X113504659Y-103965341D01*
X113611004Y-104094922D01*
X113611005Y-104094924D01*
X113690024Y-104242758D01*
X113738687Y-104403177D01*
X113751000Y-104528196D01*
X113751000Y-105511803D01*
X113738687Y-105636823D01*
X113690024Y-105797242D01*
X113619114Y-105929906D01*
X113611004Y-105945078D01*
X113504659Y-106074659D01*
X113375078Y-106181004D01*
X113375076Y-106181005D01*
X113227242Y-106260024D01*
X113066823Y-106308687D01*
X112900000Y-106325117D01*
X112733178Y-106308687D01*
X112572759Y-106260024D01*
X112424925Y-106181005D01*
X112424923Y-106181004D01*
X112295342Y-106074659D01*
X112188997Y-105945078D01*
X112180887Y-105929906D01*
X112109977Y-105797242D01*
X112061314Y-105636823D01*
X112049000Y-105511803D01*
X112049000Y-104528197D01*
X112061313Y-104403178D01*
X112109976Y-104242759D01*
X112188995Y-104094923D01*
X112295341Y-103965341D01*
X112424922Y-103858996D01*
X112440094Y-103850886D01*
X112572758Y-103779976D01*
X112733177Y-103731313D01*
X112900000Y-103714883D01*
X113066822Y-103731313D01*
G37*
G36*
X119066822Y-103731313D02*
G01*
X119227241Y-103779976D01*
X119375077Y-103858995D01*
X119504659Y-103965341D01*
X119611004Y-104094922D01*
X119611005Y-104094924D01*
X119690024Y-104242758D01*
X119738687Y-104403177D01*
X119751000Y-104528196D01*
X119751000Y-105511803D01*
X119738687Y-105636823D01*
X119690024Y-105797242D01*
X119619114Y-105929906D01*
X119611004Y-105945078D01*
X119504659Y-106074659D01*
X119375078Y-106181004D01*
X119375076Y-106181005D01*
X119227242Y-106260024D01*
X119066823Y-106308687D01*
X118900000Y-106325117D01*
X118733178Y-106308687D01*
X118572759Y-106260024D01*
X118424925Y-106181005D01*
X118424923Y-106181004D01*
X118295342Y-106074659D01*
X118188997Y-105945078D01*
X118180887Y-105929906D01*
X118109977Y-105797242D01*
X118061314Y-105636823D01*
X118049000Y-105511803D01*
X118049000Y-104528197D01*
X118061313Y-104403178D01*
X118109976Y-104242759D01*
X118188995Y-104094923D01*
X118295341Y-103965341D01*
X118424922Y-103858996D01*
X118440094Y-103850886D01*
X118572758Y-103779976D01*
X118733177Y-103731313D01*
X118900000Y-103714883D01*
X119066822Y-103731313D01*
G37*
M02*
