G04 #@! TF.GenerationSoftware,KiCad,Pcbnew,(5.1.6)-1*
G04 #@! TF.CreationDate,2020-07-07T11:59:46-05:00*
G04 #@! TF.ProjectId,Xbee,58626565-2e6b-4696-9361-645f70636258,rev?*
G04 #@! TF.SameCoordinates,Original*
G04 #@! TF.FileFunction,Other,Fab,Top*
%FSLAX46Y46*%
G04 Gerber Fmt 4.6, Leading zero omitted, Abs format (unit mm)*
G04 Created by KiCad (PCBNEW (5.1.6)-1) date 2020-07-07 11:59:46*
%MOMM*%
%LPD*%
G01*
G04 APERTURE LIST*
%ADD10C,0.100000*%
%ADD11C,0.150000*%
G04 APERTURE END LIST*
D10*
X106630000Y-125730000D02*
X106630000Y-105410000D01*
X109170000Y-125730000D02*
X106630000Y-125730000D01*
X109170000Y-106045000D02*
X109170000Y-125730000D01*
X108535000Y-105410000D02*
X109170000Y-106045000D01*
X106630000Y-105410000D02*
X108535000Y-105410000D01*
X131900000Y-128020000D02*
X111900000Y-128020000D01*
X131900000Y-126020000D02*
X131900000Y-128020000D01*
X112400000Y-126020000D02*
X131900000Y-126020000D01*
X111900000Y-126520000D02*
X112400000Y-126020000D01*
X111900000Y-128020000D02*
X111900000Y-126520000D01*
X111900000Y-106020000D02*
X111900000Y-104520000D01*
X111900000Y-104520000D02*
X112400000Y-104020000D01*
X112400000Y-104020000D02*
X131900000Y-104020000D01*
X131900000Y-104020000D02*
X131900000Y-106020000D01*
X131900000Y-106020000D02*
X111900000Y-106020000D01*
X134630000Y-105410000D02*
X136535000Y-105410000D01*
X136535000Y-105410000D02*
X137170000Y-106045000D01*
X137170000Y-106045000D02*
X137170000Y-125730000D01*
X137170000Y-125730000D02*
X134630000Y-125730000D01*
X134630000Y-125730000D02*
X134630000Y-105410000D01*
D11*
X101114285Y-127587142D02*
X101066666Y-127634761D01*
X100923809Y-127682380D01*
X100828571Y-127682380D01*
X100685714Y-127634761D01*
X100590476Y-127539523D01*
X100542857Y-127444285D01*
X100495238Y-127253809D01*
X100495238Y-127110952D01*
X100542857Y-126920476D01*
X100590476Y-126825238D01*
X100685714Y-126730000D01*
X100828571Y-126682380D01*
X100923809Y-126682380D01*
X101066666Y-126730000D01*
X101114285Y-126777619D01*
X101685714Y-127682380D02*
X101590476Y-127634761D01*
X101542857Y-127587142D01*
X101495238Y-127491904D01*
X101495238Y-127206190D01*
X101542857Y-127110952D01*
X101590476Y-127063333D01*
X101685714Y-127015714D01*
X101828571Y-127015714D01*
X101923809Y-127063333D01*
X101971428Y-127110952D01*
X102019047Y-127206190D01*
X102019047Y-127491904D01*
X101971428Y-127587142D01*
X101923809Y-127634761D01*
X101828571Y-127682380D01*
X101685714Y-127682380D01*
X102447619Y-127015714D02*
X102447619Y-127682380D01*
X102447619Y-127110952D02*
X102495238Y-127063333D01*
X102590476Y-127015714D01*
X102733333Y-127015714D01*
X102828571Y-127063333D01*
X102876190Y-127158571D01*
X102876190Y-127682380D01*
X103352380Y-127015714D02*
X103352380Y-127682380D01*
X103352380Y-127110952D02*
X103400000Y-127063333D01*
X103495238Y-127015714D01*
X103638095Y-127015714D01*
X103733333Y-127063333D01*
X103780952Y-127158571D01*
X103780952Y-127682380D01*
X104019047Y-127777619D02*
X104780952Y-127777619D01*
X105209523Y-126682380D02*
X105304761Y-126682380D01*
X105400000Y-126730000D01*
X105447619Y-126777619D01*
X105495238Y-126872857D01*
X105542857Y-127063333D01*
X105542857Y-127301428D01*
X105495238Y-127491904D01*
X105447619Y-127587142D01*
X105400000Y-127634761D01*
X105304761Y-127682380D01*
X105209523Y-127682380D01*
X105114285Y-127634761D01*
X105066666Y-127587142D01*
X105019047Y-127491904D01*
X104971428Y-127301428D01*
X104971428Y-127063333D01*
X105019047Y-126872857D01*
X105066666Y-126777619D01*
X105114285Y-126730000D01*
X105209523Y-126682380D01*
X106495238Y-127682380D02*
X105923809Y-127682380D01*
X106209523Y-127682380D02*
X106209523Y-126682380D01*
X106114285Y-126825238D01*
X106019047Y-126920476D01*
X105923809Y-126968095D01*
X106828571Y-127682380D02*
X107352380Y-127015714D01*
X106828571Y-127015714D02*
X107352380Y-127682380D01*
X107923809Y-126682380D02*
X108019047Y-126682380D01*
X108114285Y-126730000D01*
X108161904Y-126777619D01*
X108209523Y-126872857D01*
X108257142Y-127063333D01*
X108257142Y-127301428D01*
X108209523Y-127491904D01*
X108161904Y-127587142D01*
X108114285Y-127634761D01*
X108019047Y-127682380D01*
X107923809Y-127682380D01*
X107828571Y-127634761D01*
X107780952Y-127587142D01*
X107733333Y-127491904D01*
X107685714Y-127301428D01*
X107685714Y-127063333D01*
X107733333Y-126872857D01*
X107780952Y-126777619D01*
X107828571Y-126730000D01*
X107923809Y-126682380D01*
X108828571Y-127110952D02*
X108733333Y-127063333D01*
X108685714Y-127015714D01*
X108638095Y-126920476D01*
X108638095Y-126872857D01*
X108685714Y-126777619D01*
X108733333Y-126730000D01*
X108828571Y-126682380D01*
X109019047Y-126682380D01*
X109114285Y-126730000D01*
X109161904Y-126777619D01*
X109209523Y-126872857D01*
X109209523Y-126920476D01*
X109161904Y-127015714D01*
X109114285Y-127063333D01*
X109019047Y-127110952D01*
X108828571Y-127110952D01*
X108733333Y-127158571D01*
X108685714Y-127206190D01*
X108638095Y-127301428D01*
X108638095Y-127491904D01*
X108685714Y-127587142D01*
X108733333Y-127634761D01*
X108828571Y-127682380D01*
X109019047Y-127682380D01*
X109114285Y-127634761D01*
X109161904Y-127587142D01*
X109209523Y-127491904D01*
X109209523Y-127301428D01*
X109161904Y-127206190D01*
X109114285Y-127158571D01*
X109019047Y-127110952D01*
X109400000Y-127777619D02*
X110161904Y-127777619D01*
X110733333Y-127158571D02*
X110400000Y-127158571D01*
X110400000Y-127682380D02*
X110400000Y-126682380D01*
X110876190Y-126682380D01*
X111638095Y-127634761D02*
X111542857Y-127682380D01*
X111352380Y-127682380D01*
X111257142Y-127634761D01*
X111209523Y-127539523D01*
X111209523Y-127158571D01*
X111257142Y-127063333D01*
X111352380Y-127015714D01*
X111542857Y-127015714D01*
X111638095Y-127063333D01*
X111685714Y-127158571D01*
X111685714Y-127253809D01*
X111209523Y-127349047D01*
X112114285Y-127682380D02*
X112114285Y-127015714D01*
X112114285Y-127110952D02*
X112161904Y-127063333D01*
X112257142Y-127015714D01*
X112400000Y-127015714D01*
X112495238Y-127063333D01*
X112542857Y-127158571D01*
X112542857Y-127682380D01*
X112542857Y-127158571D02*
X112590476Y-127063333D01*
X112685714Y-127015714D01*
X112828571Y-127015714D01*
X112923809Y-127063333D01*
X112971428Y-127158571D01*
X112971428Y-127682380D01*
X113876190Y-127682380D02*
X113876190Y-127158571D01*
X113828571Y-127063333D01*
X113733333Y-127015714D01*
X113542857Y-127015714D01*
X113447619Y-127063333D01*
X113876190Y-127634761D02*
X113780952Y-127682380D01*
X113542857Y-127682380D01*
X113447619Y-127634761D01*
X113400000Y-127539523D01*
X113400000Y-127444285D01*
X113447619Y-127349047D01*
X113542857Y-127301428D01*
X113780952Y-127301428D01*
X113876190Y-127253809D01*
X114495238Y-127682380D02*
X114400000Y-127634761D01*
X114352380Y-127539523D01*
X114352380Y-126682380D01*
X115257142Y-127634761D02*
X115161904Y-127682380D01*
X114971428Y-127682380D01*
X114876190Y-127634761D01*
X114828571Y-127539523D01*
X114828571Y-127158571D01*
X114876190Y-127063333D01*
X114971428Y-127015714D01*
X115161904Y-127015714D01*
X115257142Y-127063333D01*
X115304761Y-127158571D01*
X115304761Y-127253809D01*
X114828571Y-127349047D01*
X107352380Y-115903333D02*
X108066666Y-115903333D01*
X108209523Y-115950952D01*
X108304761Y-116046190D01*
X108352380Y-116189047D01*
X108352380Y-116284285D01*
X108352380Y-114903333D02*
X108352380Y-115474761D01*
X108352380Y-115189047D02*
X107352380Y-115189047D01*
X107495238Y-115284285D01*
X107590476Y-115379523D01*
X107638095Y-115474761D01*
X133757142Y-133805714D02*
X133804761Y-133853333D01*
X133852380Y-133996190D01*
X133852380Y-134091428D01*
X133804761Y-134234285D01*
X133709523Y-134329523D01*
X133614285Y-134377142D01*
X133423809Y-134424761D01*
X133280952Y-134424761D01*
X133090476Y-134377142D01*
X132995238Y-134329523D01*
X132900000Y-134234285D01*
X132852380Y-134091428D01*
X132852380Y-133996190D01*
X132900000Y-133853333D01*
X132947619Y-133805714D01*
X133852380Y-133234285D02*
X133804761Y-133329523D01*
X133757142Y-133377142D01*
X133661904Y-133424761D01*
X133376190Y-133424761D01*
X133280952Y-133377142D01*
X133233333Y-133329523D01*
X133185714Y-133234285D01*
X133185714Y-133091428D01*
X133233333Y-132996190D01*
X133280952Y-132948571D01*
X133376190Y-132900952D01*
X133661904Y-132900952D01*
X133757142Y-132948571D01*
X133804761Y-132996190D01*
X133852380Y-133091428D01*
X133852380Y-133234285D01*
X133185714Y-132472380D02*
X133852380Y-132472380D01*
X133280952Y-132472380D02*
X133233333Y-132424761D01*
X133185714Y-132329523D01*
X133185714Y-132186666D01*
X133233333Y-132091428D01*
X133328571Y-132043809D01*
X133852380Y-132043809D01*
X133185714Y-131567619D02*
X133852380Y-131567619D01*
X133280952Y-131567619D02*
X133233333Y-131520000D01*
X133185714Y-131424761D01*
X133185714Y-131281904D01*
X133233333Y-131186666D01*
X133328571Y-131139047D01*
X133852380Y-131139047D01*
X133947619Y-130900952D02*
X133947619Y-130139047D01*
X132852380Y-129710476D02*
X132852380Y-129615238D01*
X132900000Y-129520000D01*
X132947619Y-129472380D01*
X133042857Y-129424761D01*
X133233333Y-129377142D01*
X133471428Y-129377142D01*
X133661904Y-129424761D01*
X133757142Y-129472380D01*
X133804761Y-129520000D01*
X133852380Y-129615238D01*
X133852380Y-129710476D01*
X133804761Y-129805714D01*
X133757142Y-129853333D01*
X133661904Y-129900952D01*
X133471428Y-129948571D01*
X133233333Y-129948571D01*
X133042857Y-129900952D01*
X132947619Y-129853333D01*
X132900000Y-129805714D01*
X132852380Y-129710476D01*
X133852380Y-128424761D02*
X133852380Y-128996190D01*
X133852380Y-128710476D02*
X132852380Y-128710476D01*
X132995238Y-128805714D01*
X133090476Y-128900952D01*
X133138095Y-128996190D01*
X133852380Y-128091428D02*
X133185714Y-127567619D01*
X133185714Y-128091428D02*
X133852380Y-127567619D01*
X133852380Y-126662857D02*
X133852380Y-127234285D01*
X133852380Y-126948571D02*
X132852380Y-126948571D01*
X132995238Y-127043809D01*
X133090476Y-127139047D01*
X133138095Y-127234285D01*
X132852380Y-126043809D02*
X132852380Y-125948571D01*
X132900000Y-125853333D01*
X132947619Y-125805714D01*
X133042857Y-125758095D01*
X133233333Y-125710476D01*
X133471428Y-125710476D01*
X133661904Y-125758095D01*
X133757142Y-125805714D01*
X133804761Y-125853333D01*
X133852380Y-125948571D01*
X133852380Y-126043809D01*
X133804761Y-126139047D01*
X133757142Y-126186666D01*
X133661904Y-126234285D01*
X133471428Y-126281904D01*
X133233333Y-126281904D01*
X133042857Y-126234285D01*
X132947619Y-126186666D01*
X132900000Y-126139047D01*
X132852380Y-126043809D01*
X133947619Y-125520000D02*
X133947619Y-124758095D01*
X133328571Y-124186666D02*
X133328571Y-124520000D01*
X133852380Y-124520000D02*
X132852380Y-124520000D01*
X132852380Y-124043809D01*
X133804761Y-123281904D02*
X133852380Y-123377142D01*
X133852380Y-123567619D01*
X133804761Y-123662857D01*
X133709523Y-123710476D01*
X133328571Y-123710476D01*
X133233333Y-123662857D01*
X133185714Y-123567619D01*
X133185714Y-123377142D01*
X133233333Y-123281904D01*
X133328571Y-123234285D01*
X133423809Y-123234285D01*
X133519047Y-123710476D01*
X133852380Y-122805714D02*
X133185714Y-122805714D01*
X133280952Y-122805714D02*
X133233333Y-122758095D01*
X133185714Y-122662857D01*
X133185714Y-122520000D01*
X133233333Y-122424761D01*
X133328571Y-122377142D01*
X133852380Y-122377142D01*
X133328571Y-122377142D02*
X133233333Y-122329523D01*
X133185714Y-122234285D01*
X133185714Y-122091428D01*
X133233333Y-121996190D01*
X133328571Y-121948571D01*
X133852380Y-121948571D01*
X133852380Y-121043809D02*
X133328571Y-121043809D01*
X133233333Y-121091428D01*
X133185714Y-121186666D01*
X133185714Y-121377142D01*
X133233333Y-121472380D01*
X133804761Y-121043809D02*
X133852380Y-121139047D01*
X133852380Y-121377142D01*
X133804761Y-121472380D01*
X133709523Y-121520000D01*
X133614285Y-121520000D01*
X133519047Y-121472380D01*
X133471428Y-121377142D01*
X133471428Y-121139047D01*
X133423809Y-121043809D01*
X133852380Y-120424761D02*
X133804761Y-120520000D01*
X133709523Y-120567619D01*
X132852380Y-120567619D01*
X133804761Y-119662857D02*
X133852380Y-119758095D01*
X133852380Y-119948571D01*
X133804761Y-120043809D01*
X133709523Y-120091428D01*
X133328571Y-120091428D01*
X133233333Y-120043809D01*
X133185714Y-119948571D01*
X133185714Y-119758095D01*
X133233333Y-119662857D01*
X133328571Y-119615238D01*
X133423809Y-119615238D01*
X133519047Y-120091428D01*
X121566666Y-126472380D02*
X121566666Y-127186666D01*
X121519047Y-127329523D01*
X121423809Y-127424761D01*
X121280952Y-127472380D01*
X121185714Y-127472380D01*
X121995238Y-126567619D02*
X122042857Y-126520000D01*
X122138095Y-126472380D01*
X122376190Y-126472380D01*
X122471428Y-126520000D01*
X122519047Y-126567619D01*
X122566666Y-126662857D01*
X122566666Y-126758095D01*
X122519047Y-126900952D01*
X121947619Y-127472380D01*
X122566666Y-127472380D01*
X133757142Y-111805714D02*
X133804761Y-111853333D01*
X133852380Y-111996190D01*
X133852380Y-112091428D01*
X133804761Y-112234285D01*
X133709523Y-112329523D01*
X133614285Y-112377142D01*
X133423809Y-112424761D01*
X133280952Y-112424761D01*
X133090476Y-112377142D01*
X132995238Y-112329523D01*
X132900000Y-112234285D01*
X132852380Y-112091428D01*
X132852380Y-111996190D01*
X132900000Y-111853333D01*
X132947619Y-111805714D01*
X133852380Y-111234285D02*
X133804761Y-111329523D01*
X133757142Y-111377142D01*
X133661904Y-111424761D01*
X133376190Y-111424761D01*
X133280952Y-111377142D01*
X133233333Y-111329523D01*
X133185714Y-111234285D01*
X133185714Y-111091428D01*
X133233333Y-110996190D01*
X133280952Y-110948571D01*
X133376190Y-110900952D01*
X133661904Y-110900952D01*
X133757142Y-110948571D01*
X133804761Y-110996190D01*
X133852380Y-111091428D01*
X133852380Y-111234285D01*
X133185714Y-110472380D02*
X133852380Y-110472380D01*
X133280952Y-110472380D02*
X133233333Y-110424761D01*
X133185714Y-110329523D01*
X133185714Y-110186666D01*
X133233333Y-110091428D01*
X133328571Y-110043809D01*
X133852380Y-110043809D01*
X133185714Y-109567619D02*
X133852380Y-109567619D01*
X133280952Y-109567619D02*
X133233333Y-109520000D01*
X133185714Y-109424761D01*
X133185714Y-109281904D01*
X133233333Y-109186666D01*
X133328571Y-109139047D01*
X133852380Y-109139047D01*
X133947619Y-108900952D02*
X133947619Y-108139047D01*
X132852380Y-107710476D02*
X132852380Y-107615238D01*
X132900000Y-107520000D01*
X132947619Y-107472380D01*
X133042857Y-107424761D01*
X133233333Y-107377142D01*
X133471428Y-107377142D01*
X133661904Y-107424761D01*
X133757142Y-107472380D01*
X133804761Y-107520000D01*
X133852380Y-107615238D01*
X133852380Y-107710476D01*
X133804761Y-107805714D01*
X133757142Y-107853333D01*
X133661904Y-107900952D01*
X133471428Y-107948571D01*
X133233333Y-107948571D01*
X133042857Y-107900952D01*
X132947619Y-107853333D01*
X132900000Y-107805714D01*
X132852380Y-107710476D01*
X133852380Y-106424761D02*
X133852380Y-106996190D01*
X133852380Y-106710476D02*
X132852380Y-106710476D01*
X132995238Y-106805714D01*
X133090476Y-106900952D01*
X133138095Y-106996190D01*
X133852380Y-106091428D02*
X133185714Y-105567619D01*
X133185714Y-106091428D02*
X133852380Y-105567619D01*
X133852380Y-104662857D02*
X133852380Y-105234285D01*
X133852380Y-104948571D02*
X132852380Y-104948571D01*
X132995238Y-105043809D01*
X133090476Y-105139047D01*
X133138095Y-105234285D01*
X132852380Y-104043809D02*
X132852380Y-103948571D01*
X132900000Y-103853333D01*
X132947619Y-103805714D01*
X133042857Y-103758095D01*
X133233333Y-103710476D01*
X133471428Y-103710476D01*
X133661904Y-103758095D01*
X133757142Y-103805714D01*
X133804761Y-103853333D01*
X133852380Y-103948571D01*
X133852380Y-104043809D01*
X133804761Y-104139047D01*
X133757142Y-104186666D01*
X133661904Y-104234285D01*
X133471428Y-104281904D01*
X133233333Y-104281904D01*
X133042857Y-104234285D01*
X132947619Y-104186666D01*
X132900000Y-104139047D01*
X132852380Y-104043809D01*
X133947619Y-103520000D02*
X133947619Y-102758095D01*
X133328571Y-102186666D02*
X133328571Y-102520000D01*
X133852380Y-102520000D02*
X132852380Y-102520000D01*
X132852380Y-102043809D01*
X133804761Y-101281904D02*
X133852380Y-101377142D01*
X133852380Y-101567619D01*
X133804761Y-101662857D01*
X133709523Y-101710476D01*
X133328571Y-101710476D01*
X133233333Y-101662857D01*
X133185714Y-101567619D01*
X133185714Y-101377142D01*
X133233333Y-101281904D01*
X133328571Y-101234285D01*
X133423809Y-101234285D01*
X133519047Y-101710476D01*
X133852380Y-100805714D02*
X133185714Y-100805714D01*
X133280952Y-100805714D02*
X133233333Y-100758095D01*
X133185714Y-100662857D01*
X133185714Y-100520000D01*
X133233333Y-100424761D01*
X133328571Y-100377142D01*
X133852380Y-100377142D01*
X133328571Y-100377142D02*
X133233333Y-100329523D01*
X133185714Y-100234285D01*
X133185714Y-100091428D01*
X133233333Y-99996190D01*
X133328571Y-99948571D01*
X133852380Y-99948571D01*
X133852380Y-99043809D02*
X133328571Y-99043809D01*
X133233333Y-99091428D01*
X133185714Y-99186666D01*
X133185714Y-99377142D01*
X133233333Y-99472380D01*
X133804761Y-99043809D02*
X133852380Y-99139047D01*
X133852380Y-99377142D01*
X133804761Y-99472380D01*
X133709523Y-99520000D01*
X133614285Y-99520000D01*
X133519047Y-99472380D01*
X133471428Y-99377142D01*
X133471428Y-99139047D01*
X133423809Y-99043809D01*
X133852380Y-98424761D02*
X133804761Y-98520000D01*
X133709523Y-98567619D01*
X132852380Y-98567619D01*
X133804761Y-97662857D02*
X133852380Y-97758095D01*
X133852380Y-97948571D01*
X133804761Y-98043809D01*
X133709523Y-98091428D01*
X133328571Y-98091428D01*
X133233333Y-98043809D01*
X133185714Y-97948571D01*
X133185714Y-97758095D01*
X133233333Y-97662857D01*
X133328571Y-97615238D01*
X133423809Y-97615238D01*
X133519047Y-98091428D01*
X121566666Y-104472380D02*
X121566666Y-105186666D01*
X121519047Y-105329523D01*
X121423809Y-105424761D01*
X121280952Y-105472380D01*
X121185714Y-105472380D01*
X121947619Y-104472380D02*
X122566666Y-104472380D01*
X122233333Y-104853333D01*
X122376190Y-104853333D01*
X122471428Y-104900952D01*
X122519047Y-104948571D01*
X122566666Y-105043809D01*
X122566666Y-105281904D01*
X122519047Y-105377142D01*
X122471428Y-105424761D01*
X122376190Y-105472380D01*
X122090476Y-105472380D01*
X121995238Y-105424761D01*
X121947619Y-105377142D01*
X129114285Y-127587142D02*
X129066666Y-127634761D01*
X128923809Y-127682380D01*
X128828571Y-127682380D01*
X128685714Y-127634761D01*
X128590476Y-127539523D01*
X128542857Y-127444285D01*
X128495238Y-127253809D01*
X128495238Y-127110952D01*
X128542857Y-126920476D01*
X128590476Y-126825238D01*
X128685714Y-126730000D01*
X128828571Y-126682380D01*
X128923809Y-126682380D01*
X129066666Y-126730000D01*
X129114285Y-126777619D01*
X129685714Y-127682380D02*
X129590476Y-127634761D01*
X129542857Y-127587142D01*
X129495238Y-127491904D01*
X129495238Y-127206190D01*
X129542857Y-127110952D01*
X129590476Y-127063333D01*
X129685714Y-127015714D01*
X129828571Y-127015714D01*
X129923809Y-127063333D01*
X129971428Y-127110952D01*
X130019047Y-127206190D01*
X130019047Y-127491904D01*
X129971428Y-127587142D01*
X129923809Y-127634761D01*
X129828571Y-127682380D01*
X129685714Y-127682380D01*
X130447619Y-127015714D02*
X130447619Y-127682380D01*
X130447619Y-127110952D02*
X130495238Y-127063333D01*
X130590476Y-127015714D01*
X130733333Y-127015714D01*
X130828571Y-127063333D01*
X130876190Y-127158571D01*
X130876190Y-127682380D01*
X131352380Y-127015714D02*
X131352380Y-127682380D01*
X131352380Y-127110952D02*
X131400000Y-127063333D01*
X131495238Y-127015714D01*
X131638095Y-127015714D01*
X131733333Y-127063333D01*
X131780952Y-127158571D01*
X131780952Y-127682380D01*
X132019047Y-127777619D02*
X132780952Y-127777619D01*
X133209523Y-126682380D02*
X133304761Y-126682380D01*
X133400000Y-126730000D01*
X133447619Y-126777619D01*
X133495238Y-126872857D01*
X133542857Y-127063333D01*
X133542857Y-127301428D01*
X133495238Y-127491904D01*
X133447619Y-127587142D01*
X133400000Y-127634761D01*
X133304761Y-127682380D01*
X133209523Y-127682380D01*
X133114285Y-127634761D01*
X133066666Y-127587142D01*
X133019047Y-127491904D01*
X132971428Y-127301428D01*
X132971428Y-127063333D01*
X133019047Y-126872857D01*
X133066666Y-126777619D01*
X133114285Y-126730000D01*
X133209523Y-126682380D01*
X134495238Y-127682380D02*
X133923809Y-127682380D01*
X134209523Y-127682380D02*
X134209523Y-126682380D01*
X134114285Y-126825238D01*
X134019047Y-126920476D01*
X133923809Y-126968095D01*
X134828571Y-127682380D02*
X135352380Y-127015714D01*
X134828571Y-127015714D02*
X135352380Y-127682380D01*
X135923809Y-126682380D02*
X136019047Y-126682380D01*
X136114285Y-126730000D01*
X136161904Y-126777619D01*
X136209523Y-126872857D01*
X136257142Y-127063333D01*
X136257142Y-127301428D01*
X136209523Y-127491904D01*
X136161904Y-127587142D01*
X136114285Y-127634761D01*
X136019047Y-127682380D01*
X135923809Y-127682380D01*
X135828571Y-127634761D01*
X135780952Y-127587142D01*
X135733333Y-127491904D01*
X135685714Y-127301428D01*
X135685714Y-127063333D01*
X135733333Y-126872857D01*
X135780952Y-126777619D01*
X135828571Y-126730000D01*
X135923809Y-126682380D01*
X136828571Y-127110952D02*
X136733333Y-127063333D01*
X136685714Y-127015714D01*
X136638095Y-126920476D01*
X136638095Y-126872857D01*
X136685714Y-126777619D01*
X136733333Y-126730000D01*
X136828571Y-126682380D01*
X137019047Y-126682380D01*
X137114285Y-126730000D01*
X137161904Y-126777619D01*
X137209523Y-126872857D01*
X137209523Y-126920476D01*
X137161904Y-127015714D01*
X137114285Y-127063333D01*
X137019047Y-127110952D01*
X136828571Y-127110952D01*
X136733333Y-127158571D01*
X136685714Y-127206190D01*
X136638095Y-127301428D01*
X136638095Y-127491904D01*
X136685714Y-127587142D01*
X136733333Y-127634761D01*
X136828571Y-127682380D01*
X137019047Y-127682380D01*
X137114285Y-127634761D01*
X137161904Y-127587142D01*
X137209523Y-127491904D01*
X137209523Y-127301428D01*
X137161904Y-127206190D01*
X137114285Y-127158571D01*
X137019047Y-127110952D01*
X137400000Y-127777619D02*
X138161904Y-127777619D01*
X138733333Y-127158571D02*
X138400000Y-127158571D01*
X138400000Y-127682380D02*
X138400000Y-126682380D01*
X138876190Y-126682380D01*
X139638095Y-127634761D02*
X139542857Y-127682380D01*
X139352380Y-127682380D01*
X139257142Y-127634761D01*
X139209523Y-127539523D01*
X139209523Y-127158571D01*
X139257142Y-127063333D01*
X139352380Y-127015714D01*
X139542857Y-127015714D01*
X139638095Y-127063333D01*
X139685714Y-127158571D01*
X139685714Y-127253809D01*
X139209523Y-127349047D01*
X140114285Y-127682380D02*
X140114285Y-127015714D01*
X140114285Y-127110952D02*
X140161904Y-127063333D01*
X140257142Y-127015714D01*
X140400000Y-127015714D01*
X140495238Y-127063333D01*
X140542857Y-127158571D01*
X140542857Y-127682380D01*
X140542857Y-127158571D02*
X140590476Y-127063333D01*
X140685714Y-127015714D01*
X140828571Y-127015714D01*
X140923809Y-127063333D01*
X140971428Y-127158571D01*
X140971428Y-127682380D01*
X141876190Y-127682380D02*
X141876190Y-127158571D01*
X141828571Y-127063333D01*
X141733333Y-127015714D01*
X141542857Y-127015714D01*
X141447619Y-127063333D01*
X141876190Y-127634761D02*
X141780952Y-127682380D01*
X141542857Y-127682380D01*
X141447619Y-127634761D01*
X141400000Y-127539523D01*
X141400000Y-127444285D01*
X141447619Y-127349047D01*
X141542857Y-127301428D01*
X141780952Y-127301428D01*
X141876190Y-127253809D01*
X142495238Y-127682380D02*
X142400000Y-127634761D01*
X142352380Y-127539523D01*
X142352380Y-126682380D01*
X143257142Y-127634761D02*
X143161904Y-127682380D01*
X142971428Y-127682380D01*
X142876190Y-127634761D01*
X142828571Y-127539523D01*
X142828571Y-127158571D01*
X142876190Y-127063333D01*
X142971428Y-127015714D01*
X143161904Y-127015714D01*
X143257142Y-127063333D01*
X143304761Y-127158571D01*
X143304761Y-127253809D01*
X142828571Y-127349047D01*
X135352380Y-115903333D02*
X136066666Y-115903333D01*
X136209523Y-115950952D01*
X136304761Y-116046190D01*
X136352380Y-116189047D01*
X136352380Y-116284285D01*
X135685714Y-114998571D02*
X136352380Y-114998571D01*
X135304761Y-115236666D02*
X136019047Y-115474761D01*
X136019047Y-114855714D01*
M02*
