M48
; DRILL file {KiCad (5.1.6)-1} date 07/07/20 11:59:48
; FORMAT={-:-/ absolute / metric / decimal}
; #@! TF.CreationDate,2020-07-07T11:59:48-05:00
; #@! TF.GenerationSoftware,Kicad,Pcbnew,(5.1.6)-1
; #@! TF.FileFunction,Plated,1,2,PTH
FMAT,2
METRIC
T1C0.800
T2C1.000
%
G90
G05
T1
X112.9Y-127.02
X114.9Y-127.02
X116.9Y-127.02
X118.9Y-127.02
X120.9Y-127.02
X122.9Y-127.02
X124.9Y-127.02
X126.9Y-127.02
X128.9Y-127.02
X130.9Y-127.02
X112.9Y-105.02
X114.9Y-105.02
X116.9Y-105.02
X118.9Y-105.02
X120.9Y-105.02
X122.9Y-105.02
X124.9Y-105.02
X126.9Y-105.02
X128.9Y-105.02
X130.9Y-105.02
T2
X107.9Y-106.68
X107.9Y-109.22
X107.9Y-111.76
X107.9Y-114.3
X107.9Y-116.84
X107.9Y-119.38
X107.9Y-121.92
X107.9Y-124.46
X135.9Y-106.68
X135.9Y-109.22
X135.9Y-111.76
X135.9Y-114.3
X135.9Y-116.84
X135.9Y-119.38
X135.9Y-121.92
X135.9Y-124.46
T0
M30
