G04 #@! TF.GenerationSoftware,KiCad,Pcbnew,(5.1.6)-1*
G04 #@! TF.CreationDate,2020-07-07T11:59:46-05:00*
G04 #@! TF.ProjectId,Xbee,58626565-2e6b-4696-9361-645f70636258,rev?*
G04 #@! TF.SameCoordinates,Original*
G04 #@! TF.FileFunction,Copper,L2,Bot*
G04 #@! TF.FilePolarity,Positive*
%FSLAX46Y46*%
G04 Gerber Fmt 4.6, Leading zero omitted, Abs format (unit mm)*
G04 Created by KiCad (PCBNEW (5.1.6)-1) date 2020-07-07 11:59:46*
%MOMM*%
%LPD*%
G01*
G04 APERTURE LIST*
G04 #@! TA.AperFunction,ComponentPad*
%ADD10R,2.200000X2.200000*%
G04 #@! TD*
G04 #@! TA.AperFunction,ComponentPad*
%ADD11O,3.000000X2.000000*%
G04 #@! TD*
G04 #@! TA.AperFunction,ComponentPad*
%ADD12R,1.600000X2.500000*%
G04 #@! TD*
G04 #@! TA.AperFunction,ComponentPad*
%ADD13O,1.600000X2.500000*%
G04 #@! TD*
G04 #@! TA.AperFunction,Conductor*
%ADD14C,1.500000*%
G04 #@! TD*
G04 APERTURE END LIST*
D10*
X107900000Y-106680000D03*
D11*
X107900000Y-109220000D03*
X107900000Y-111760000D03*
X107900000Y-114300000D03*
X107900000Y-116840000D03*
X107900000Y-119380000D03*
X107900000Y-121920000D03*
X107900000Y-124460000D03*
D12*
X112900000Y-127020000D03*
D13*
X114900000Y-127020000D03*
X116900000Y-127020000D03*
X118900000Y-127020000D03*
X120900000Y-127020000D03*
X122900000Y-127020000D03*
X124900000Y-127020000D03*
X126900000Y-127020000D03*
X128900000Y-127020000D03*
X130900000Y-127020000D03*
X130900000Y-105020000D03*
X128900000Y-105020000D03*
X126900000Y-105020000D03*
X124900000Y-105020000D03*
X122900000Y-105020000D03*
X120900000Y-105020000D03*
X118900000Y-105020000D03*
X116900000Y-105020000D03*
X114900000Y-105020000D03*
X112900000Y-105020000D03*
D11*
X135900000Y-124460000D03*
X135900000Y-121920000D03*
X135900000Y-119380000D03*
X135900000Y-116840000D03*
X135900000Y-114300000D03*
X135900000Y-111760000D03*
X135900000Y-109220000D03*
D10*
X135900000Y-106680000D03*
D14*
X107900000Y-106680000D02*
X107182270Y-106680000D01*
X107182270Y-106680000D02*
X104900000Y-108962270D01*
X104900000Y-108962270D02*
X104900000Y-127020000D01*
X104900000Y-127020000D02*
X107900000Y-130020000D01*
X120900000Y-128020000D02*
X118900000Y-130020000D01*
X118900000Y-130020000D02*
X107900000Y-130020000D01*
X110460000Y-127020000D02*
X107900000Y-124460000D01*
X112900000Y-127020000D02*
X110460000Y-127020000D01*
X132900000Y-109220000D02*
X135900000Y-109220000D01*
X116900000Y-125220000D02*
X132900000Y-109220000D01*
X116900000Y-127020000D02*
X116900000Y-125220000D01*
X114900000Y-124520000D02*
X114900000Y-127020000D01*
X114900000Y-124115823D02*
X114900000Y-124520000D01*
X132335823Y-106680000D02*
X114900000Y-124115823D01*
X135900000Y-106680000D02*
X132335823Y-106680000D01*
X133340000Y-127020000D02*
X135900000Y-124460000D01*
X130900000Y-127020000D02*
X133340000Y-127020000D01*
M02*
