G04 #@! TF.GenerationSoftware,KiCad,Pcbnew,(5.1.6)-1*
G04 #@! TF.CreationDate,2020-07-07T10:11:21-05:00*
G04 #@! TF.ProjectId,Ductos,44756374-6f73-42e6-9b69-6361645f7063,rev?*
G04 #@! TF.SameCoordinates,Original*
G04 #@! TF.FileFunction,Other,Fab,Top*
%FSLAX46Y46*%
G04 Gerber Fmt 4.6, Leading zero omitted, Abs format (unit mm)*
G04 Created by KiCad (PCBNEW (5.1.6)-1) date 2020-07-07 10:11:21*
%MOMM*%
%LPD*%
G01*
G04 APERTURE LIST*
%ADD10C,0.100000*%
%ADD11C,0.150000*%
G04 APERTURE END LIST*
D10*
X40640000Y-66040000D02*
X42570000Y-66040000D01*
X50800000Y-66040000D02*
X48870000Y-66040000D01*
X42570000Y-67290000D02*
X48870000Y-67290000D01*
X42570000Y-64790000D02*
X42570000Y-67290000D01*
X48870000Y-64790000D02*
X42570000Y-64790000D01*
X48870000Y-67290000D02*
X48870000Y-64790000D01*
X51050000Y-77130000D02*
X47750000Y-77130000D01*
X51430000Y-77130000D02*
X51050000Y-77130000D01*
X47370000Y-77130000D02*
X47750000Y-77130000D01*
X52750000Y-77130000D02*
X56060000Y-77130000D01*
X52370000Y-77130000D02*
X52750000Y-77130000D01*
X56440000Y-77130000D02*
X56060000Y-77130000D01*
X55900000Y-81200000D02*
X52860000Y-81830000D01*
X56030000Y-81330000D02*
X52980000Y-81960000D01*
X50900000Y-81200000D02*
X47850000Y-81830000D01*
X51030000Y-81330000D02*
X47980000Y-81960000D01*
X52370000Y-82850000D02*
X56440000Y-82850000D01*
X56440000Y-80310000D02*
X56440000Y-82850000D01*
X52370000Y-80310000D02*
X56440000Y-80310000D01*
X52370000Y-80310000D02*
X52370000Y-82850000D01*
X47370000Y-80310000D02*
X51430000Y-80310000D01*
X47370000Y-82850000D02*
X47370000Y-80310000D01*
X51430000Y-82850000D02*
X47370000Y-82850000D01*
X51430000Y-80310000D02*
X51430000Y-82850000D01*
X56970000Y-80050000D02*
X56970000Y-83100000D01*
X56970000Y-77520000D02*
X56970000Y-80050000D01*
X56970000Y-70660000D02*
X56970000Y-77520000D01*
X47750000Y-76370000D02*
X48130000Y-76370000D01*
X51050000Y-76370000D02*
X50670000Y-76370000D01*
X52750000Y-76370000D02*
X53130000Y-76370000D01*
X56060000Y-76370000D02*
X55670000Y-76370000D01*
X56060000Y-73200000D02*
X56060000Y-76370000D01*
X52750000Y-73200000D02*
X56060000Y-73200000D01*
X52750000Y-73200000D02*
X52750000Y-76370000D01*
X51050000Y-73200000D02*
X51050000Y-76370000D01*
X47750000Y-73200000D02*
X51050000Y-73200000D01*
X47750000Y-73200000D02*
X47750000Y-76370000D01*
X56440000Y-72560000D02*
X56440000Y-70660000D01*
X52370000Y-72560000D02*
X52370000Y-77130000D01*
X52370000Y-72560000D02*
X56440000Y-72560000D01*
X47370000Y-72560000D02*
X47370000Y-70660000D01*
X51430000Y-72560000D02*
X51430000Y-77130000D01*
X51430000Y-72560000D02*
X47370000Y-72560000D01*
X56440000Y-70660000D02*
X52370000Y-70660000D01*
X56970000Y-70660000D02*
X56440000Y-70660000D01*
X56440000Y-77130000D02*
X56440000Y-72560000D01*
X52370000Y-70660000D02*
X51430000Y-70660000D01*
X52370000Y-70660000D02*
X52370000Y-72560000D01*
X51430000Y-70660000D02*
X47370000Y-70660000D01*
X47370000Y-77130000D02*
X47370000Y-72560000D01*
X51430000Y-70660000D02*
X51430000Y-72560000D01*
X41440000Y-72820000D02*
X41440000Y-71670000D01*
X41440000Y-71670000D02*
X41440000Y-70660000D01*
X50670000Y-74340000D02*
X50670000Y-77130000D01*
X50670000Y-77130000D02*
X48130000Y-77130000D01*
X48130000Y-74340000D02*
X48130000Y-77130000D01*
X50670000Y-74340000D02*
X48130000Y-74340000D01*
X55670000Y-74340000D02*
X55670000Y-77130000D01*
X55670000Y-77130000D02*
X53130000Y-77130000D01*
X53130000Y-74340000D02*
X53130000Y-77130000D01*
X55670000Y-74340000D02*
X53130000Y-74340000D01*
X40660000Y-74340000D02*
X38120000Y-74340000D01*
X38120000Y-74340000D02*
X38120000Y-77130000D01*
X40660000Y-77130000D02*
X38120000Y-77130000D01*
X40660000Y-74340000D02*
X40660000Y-77130000D01*
X36800000Y-83100000D02*
X36800000Y-80050000D01*
X36800000Y-83100000D02*
X36290000Y-83100000D01*
X36290000Y-83100000D02*
X36290000Y-78280000D01*
X36290000Y-78280000D02*
X36800000Y-78530000D01*
X36290000Y-71420000D02*
X36800000Y-71670000D01*
X36800000Y-71670000D02*
X36800000Y-70660000D01*
X36290000Y-73070000D02*
X36800000Y-72820000D01*
X36800000Y-72820000D02*
X36800000Y-71670000D01*
X36290000Y-73070000D02*
X36290000Y-71420000D01*
X41420000Y-70660000D02*
X41420000Y-72560000D01*
X37360000Y-77130000D02*
X37360000Y-72560000D01*
X37360000Y-70660000D02*
X36800000Y-70660000D01*
X41420000Y-72560000D02*
X37360000Y-72560000D01*
X37360000Y-72560000D02*
X37360000Y-70660000D01*
X37740000Y-73200000D02*
X37740000Y-76370000D01*
X37740000Y-73200000D02*
X41040000Y-73200000D01*
X41040000Y-73200000D02*
X41040000Y-76370000D01*
X41040000Y-76370000D02*
X40660000Y-76370000D01*
X37740000Y-76370000D02*
X38120000Y-76370000D01*
X36800000Y-78530000D02*
X36800000Y-77520000D01*
X36800000Y-77520000D02*
X36800000Y-72820000D01*
X36800000Y-80050000D02*
X36800000Y-78530000D01*
X41420000Y-80310000D02*
X41420000Y-82850000D01*
X41420000Y-82850000D02*
X37360000Y-82850000D01*
X37360000Y-82850000D02*
X37360000Y-80310000D01*
X37360000Y-80310000D02*
X41420000Y-80310000D01*
X41020000Y-81330000D02*
X37970000Y-81960000D01*
X40890000Y-81200000D02*
X37840000Y-81830000D01*
X37360000Y-77130000D02*
X37740000Y-77130000D01*
X41420000Y-77130000D02*
X41040000Y-77130000D01*
X41040000Y-77130000D02*
X37740000Y-77130000D01*
X41440000Y-72880000D02*
X41440000Y-77130000D01*
X41730000Y-77520000D02*
X56910000Y-77520000D01*
X36650000Y-83100000D02*
X56970000Y-83100000D01*
X36800000Y-79930000D02*
X56970000Y-79930000D01*
X41220000Y-70660000D02*
X47320000Y-70660000D01*
X37440000Y-70660000D02*
X41370000Y-70660000D01*
X46400000Y-77130000D02*
X42340000Y-77130000D01*
X46400000Y-70660000D02*
X46400000Y-77130000D01*
X41880000Y-77520000D02*
X36800000Y-77520000D01*
X42720000Y-76370000D02*
X43100000Y-76370000D01*
X42720000Y-73200000D02*
X42720000Y-76370000D01*
X46020000Y-73200000D02*
X42720000Y-73200000D01*
X46020000Y-76370000D02*
X46020000Y-73200000D01*
X46020000Y-76370000D02*
X45640000Y-76370000D01*
X42340000Y-70660000D02*
X42340000Y-77130000D01*
X46400000Y-72560000D02*
X42340000Y-72560000D01*
X45920000Y-81200000D02*
X42870000Y-81830000D01*
X46050000Y-81330000D02*
X43000000Y-81960000D01*
X42390000Y-80310000D02*
X46450000Y-80310000D01*
X42390000Y-82850000D02*
X42390000Y-80310000D01*
X46450000Y-82850000D02*
X42390000Y-82850000D01*
X46450000Y-80310000D02*
X46450000Y-82850000D01*
X43100000Y-74340000D02*
X43100000Y-77130000D01*
X45640000Y-74340000D02*
X43100000Y-74340000D01*
X45640000Y-77130000D02*
X45640000Y-74340000D01*
X42944380Y-80966004D02*
G75*
G03*
X42900000Y-81930000I455620J-503996D01*
G01*
X45892333Y-81048263D02*
G75*
G03*
X42910000Y-81000000I-1522333J-1901737D01*
G01*
X42901761Y-81941687D02*
G75*
G03*
X46050000Y-81880000I1548239J1351687D01*
G01*
X45992972Y-81938699D02*
G75*
G03*
X45850000Y-81010000I-432972J408699D01*
G01*
X40962972Y-81938699D02*
G75*
G03*
X40820000Y-81010000I-432972J408699D01*
G01*
X37871761Y-81941687D02*
G75*
G03*
X41020000Y-81880000I1548239J1351687D01*
G01*
X40862333Y-81048263D02*
G75*
G03*
X37880000Y-81000000I-1522333J-1901737D01*
G01*
X37914380Y-80966004D02*
G75*
G03*
X37870000Y-81930000I455620J-503996D01*
G01*
X47924380Y-80966004D02*
G75*
G03*
X47880000Y-81930000I455620J-503996D01*
G01*
X50872333Y-81048263D02*
G75*
G03*
X47890000Y-81000000I-1522333J-1901737D01*
G01*
X47881761Y-81941687D02*
G75*
G03*
X51030000Y-81880000I1548239J1351687D01*
G01*
X50972972Y-81938699D02*
G75*
G03*
X50830000Y-81010000I-432972J408699D01*
G01*
X52934468Y-80956005D02*
G75*
G03*
X52880000Y-81930000I455532J-513995D01*
G01*
X55872333Y-81048263D02*
G75*
G03*
X52890000Y-81000000I-1522333J-1901737D01*
G01*
X52881761Y-81941687D02*
G75*
G03*
X56030000Y-81880000I1548239J1351687D01*
G01*
X55985426Y-81929005D02*
G75*
G03*
X55830000Y-81010000I-435426J399005D01*
G01*
X48870000Y-63480000D02*
X48870000Y-60980000D01*
X48870000Y-60980000D02*
X42570000Y-60980000D01*
X42570000Y-60980000D02*
X42570000Y-63480000D01*
X42570000Y-63480000D02*
X48870000Y-63480000D01*
X50800000Y-62230000D02*
X48870000Y-62230000D01*
X40640000Y-62230000D02*
X42570000Y-62230000D01*
D11*
X46029523Y-64122380D02*
X45696190Y-63646190D01*
X45458095Y-64122380D02*
X45458095Y-63122380D01*
X45839047Y-63122380D01*
X45934285Y-63170000D01*
X45981904Y-63217619D01*
X46029523Y-63312857D01*
X46029523Y-63455714D01*
X45981904Y-63550952D01*
X45934285Y-63598571D01*
X45839047Y-63646190D01*
X45458095Y-63646190D01*
X45553333Y-66492380D02*
X45220000Y-66016190D01*
X44981904Y-66492380D02*
X44981904Y-65492380D01*
X45362857Y-65492380D01*
X45458095Y-65540000D01*
X45505714Y-65587619D01*
X45553333Y-65682857D01*
X45553333Y-65825714D01*
X45505714Y-65920952D01*
X45458095Y-65968571D01*
X45362857Y-66016190D01*
X44981904Y-66016190D01*
X46505714Y-66492380D02*
X45934285Y-66492380D01*
X46220000Y-66492380D02*
X46220000Y-65492380D01*
X46124761Y-65635238D01*
X46029523Y-65730476D01*
X45934285Y-65778095D01*
X38390000Y-40564761D02*
X38532857Y-40612380D01*
X38770952Y-40612380D01*
X38866190Y-40564761D01*
X38913809Y-40517142D01*
X38961428Y-40421904D01*
X38961428Y-40326666D01*
X38913809Y-40231428D01*
X38866190Y-40183809D01*
X38770952Y-40136190D01*
X38580476Y-40088571D01*
X38485238Y-40040952D01*
X38437619Y-39993333D01*
X38390000Y-39898095D01*
X38390000Y-39802857D01*
X38437619Y-39707619D01*
X38485238Y-39660000D01*
X38580476Y-39612380D01*
X38818571Y-39612380D01*
X38961428Y-39660000D01*
X39770952Y-40564761D02*
X39675714Y-40612380D01*
X39485238Y-40612380D01*
X39390000Y-40564761D01*
X39342380Y-40469523D01*
X39342380Y-40088571D01*
X39390000Y-39993333D01*
X39485238Y-39945714D01*
X39675714Y-39945714D01*
X39770952Y-39993333D01*
X39818571Y-40088571D01*
X39818571Y-40183809D01*
X39342380Y-40279047D01*
X40247142Y-39945714D02*
X40247142Y-40612380D01*
X40247142Y-40040952D02*
X40294761Y-39993333D01*
X40390000Y-39945714D01*
X40532857Y-39945714D01*
X40628095Y-39993333D01*
X40675714Y-40088571D01*
X40675714Y-40612380D01*
X41104285Y-40564761D02*
X41199523Y-40612380D01*
X41389999Y-40612380D01*
X41485238Y-40564761D01*
X41532857Y-40469523D01*
X41532857Y-40421904D01*
X41485238Y-40326666D01*
X41389999Y-40279047D01*
X41247142Y-40279047D01*
X41151904Y-40231428D01*
X41104285Y-40136190D01*
X41104285Y-40088571D01*
X41151904Y-39993333D01*
X41247142Y-39945714D01*
X41389999Y-39945714D01*
X41485238Y-39993333D01*
X42104285Y-40612380D02*
X42009047Y-40564761D01*
X41961428Y-40517142D01*
X41913809Y-40421904D01*
X41913809Y-40136190D01*
X41961428Y-40040952D01*
X42009047Y-39993333D01*
X42104285Y-39945714D01*
X42247142Y-39945714D01*
X42342380Y-39993333D01*
X42389999Y-40040952D01*
X42437619Y-40136190D01*
X42437619Y-40421904D01*
X42389999Y-40517142D01*
X42342380Y-40564761D01*
X42247142Y-40612380D01*
X42104285Y-40612380D01*
X42866190Y-40612380D02*
X42866190Y-39945714D01*
X42866190Y-40136190D02*
X42913809Y-40040952D01*
X42961428Y-39993333D01*
X43056666Y-39945714D01*
X43151904Y-39945714D01*
X43913809Y-40612380D02*
X43913809Y-39612380D01*
X43913809Y-40564761D02*
X43818571Y-40612380D01*
X43628095Y-40612380D01*
X43532857Y-40564761D01*
X43485238Y-40517142D01*
X43437619Y-40421904D01*
X43437619Y-40136190D01*
X43485238Y-40040952D01*
X43532857Y-39993333D01*
X43628095Y-39945714D01*
X43818571Y-39945714D01*
X43913809Y-39993333D01*
X44770952Y-40564761D02*
X44675714Y-40612380D01*
X44485238Y-40612380D01*
X44390000Y-40564761D01*
X44342380Y-40469523D01*
X44342380Y-40088571D01*
X44390000Y-39993333D01*
X44485238Y-39945714D01*
X44675714Y-39945714D01*
X44770952Y-39993333D01*
X44818571Y-40088571D01*
X44818571Y-40183809D01*
X44342380Y-40279047D01*
X45247142Y-40612380D02*
X45247142Y-39612380D01*
X45628095Y-39612380D01*
X45723333Y-39660000D01*
X45770952Y-39707619D01*
X45818571Y-39802857D01*
X45818571Y-39945714D01*
X45770952Y-40040952D01*
X45723333Y-40088571D01*
X45628095Y-40136190D01*
X45247142Y-40136190D01*
X46247142Y-40612380D02*
X46247142Y-39945714D01*
X46247142Y-40136190D02*
X46294761Y-40040952D01*
X46342380Y-39993333D01*
X46437619Y-39945714D01*
X46532857Y-39945714D01*
X47247142Y-40564761D02*
X47151904Y-40612380D01*
X46961428Y-40612380D01*
X46866190Y-40564761D01*
X46818571Y-40469523D01*
X46818571Y-40088571D01*
X46866190Y-39993333D01*
X46961428Y-39945714D01*
X47151904Y-39945714D01*
X47247142Y-39993333D01*
X47294761Y-40088571D01*
X47294761Y-40183809D01*
X46818571Y-40279047D01*
X47675714Y-40564761D02*
X47770952Y-40612380D01*
X47961428Y-40612380D01*
X48056666Y-40564761D01*
X48104285Y-40469523D01*
X48104285Y-40421904D01*
X48056666Y-40326666D01*
X47961428Y-40279047D01*
X47818571Y-40279047D01*
X47723333Y-40231428D01*
X47675714Y-40136190D01*
X47675714Y-40088571D01*
X47723333Y-39993333D01*
X47818571Y-39945714D01*
X47961428Y-39945714D01*
X48056666Y-39993333D01*
X48532857Y-40612380D02*
X48532857Y-39945714D01*
X48532857Y-39612380D02*
X48485238Y-39660000D01*
X48532857Y-39707619D01*
X48580476Y-39660000D01*
X48532857Y-39612380D01*
X48532857Y-39707619D01*
X49151904Y-40612380D02*
X49056666Y-40564761D01*
X49009047Y-40517142D01*
X48961428Y-40421904D01*
X48961428Y-40136190D01*
X49009047Y-40040952D01*
X49056666Y-39993333D01*
X49151904Y-39945714D01*
X49294761Y-39945714D01*
X49390000Y-39993333D01*
X49437619Y-40040952D01*
X49485238Y-40136190D01*
X49485238Y-40421904D01*
X49437619Y-40517142D01*
X49390000Y-40564761D01*
X49294761Y-40612380D01*
X49151904Y-40612380D01*
X49913809Y-39945714D02*
X49913809Y-40612380D01*
X49913809Y-40040952D02*
X49961428Y-39993333D01*
X50056666Y-39945714D01*
X50199523Y-39945714D01*
X50294761Y-39993333D01*
X50342380Y-40088571D01*
X50342380Y-40612380D01*
X40154285Y-69787142D02*
X40106666Y-69834761D01*
X39963809Y-69882380D01*
X39868571Y-69882380D01*
X39725714Y-69834761D01*
X39630476Y-69739523D01*
X39582857Y-69644285D01*
X39535238Y-69453809D01*
X39535238Y-69310952D01*
X39582857Y-69120476D01*
X39630476Y-69025238D01*
X39725714Y-68930000D01*
X39868571Y-68882380D01*
X39963809Y-68882380D01*
X40106666Y-68930000D01*
X40154285Y-68977619D01*
X40725714Y-69882380D02*
X40630476Y-69834761D01*
X40582857Y-69787142D01*
X40535238Y-69691904D01*
X40535238Y-69406190D01*
X40582857Y-69310952D01*
X40630476Y-69263333D01*
X40725714Y-69215714D01*
X40868571Y-69215714D01*
X40963809Y-69263333D01*
X41011428Y-69310952D01*
X41059047Y-69406190D01*
X41059047Y-69691904D01*
X41011428Y-69787142D01*
X40963809Y-69834761D01*
X40868571Y-69882380D01*
X40725714Y-69882380D01*
X41487619Y-69215714D02*
X41487619Y-69882380D01*
X41487619Y-69310952D02*
X41535238Y-69263333D01*
X41630476Y-69215714D01*
X41773333Y-69215714D01*
X41868571Y-69263333D01*
X41916190Y-69358571D01*
X41916190Y-69882380D01*
X42392380Y-69215714D02*
X42392380Y-69882380D01*
X42392380Y-69310952D02*
X42440000Y-69263333D01*
X42535238Y-69215714D01*
X42678095Y-69215714D01*
X42773333Y-69263333D01*
X42820952Y-69358571D01*
X42820952Y-69882380D01*
X43059047Y-69977619D02*
X43820952Y-69977619D01*
X44249523Y-68882380D02*
X44344761Y-68882380D01*
X44440000Y-68930000D01*
X44487619Y-68977619D01*
X44535238Y-69072857D01*
X44582857Y-69263333D01*
X44582857Y-69501428D01*
X44535238Y-69691904D01*
X44487619Y-69787142D01*
X44440000Y-69834761D01*
X44344761Y-69882380D01*
X44249523Y-69882380D01*
X44154285Y-69834761D01*
X44106666Y-69787142D01*
X44059047Y-69691904D01*
X44011428Y-69501428D01*
X44011428Y-69263333D01*
X44059047Y-69072857D01*
X44106666Y-68977619D01*
X44154285Y-68930000D01*
X44249523Y-68882380D01*
X45535238Y-69882380D02*
X44963809Y-69882380D01*
X45249523Y-69882380D02*
X45249523Y-68882380D01*
X45154285Y-69025238D01*
X45059047Y-69120476D01*
X44963809Y-69168095D01*
X45868571Y-69882380D02*
X46392380Y-69215714D01*
X45868571Y-69215714D02*
X46392380Y-69882380D01*
X46963809Y-68882380D02*
X47059047Y-68882380D01*
X47154285Y-68930000D01*
X47201904Y-68977619D01*
X47249523Y-69072857D01*
X47297142Y-69263333D01*
X47297142Y-69501428D01*
X47249523Y-69691904D01*
X47201904Y-69787142D01*
X47154285Y-69834761D01*
X47059047Y-69882380D01*
X46963809Y-69882380D01*
X46868571Y-69834761D01*
X46820952Y-69787142D01*
X46773333Y-69691904D01*
X46725714Y-69501428D01*
X46725714Y-69263333D01*
X46773333Y-69072857D01*
X46820952Y-68977619D01*
X46868571Y-68930000D01*
X46963809Y-68882380D01*
X48154285Y-69215714D02*
X48154285Y-69882380D01*
X47916190Y-68834761D02*
X47678095Y-69549047D01*
X48297142Y-69549047D01*
X48440000Y-69977619D02*
X49201904Y-69977619D01*
X49773333Y-69358571D02*
X49440000Y-69358571D01*
X49440000Y-69882380D02*
X49440000Y-68882380D01*
X49916190Y-68882380D01*
X50678095Y-69834761D02*
X50582857Y-69882380D01*
X50392380Y-69882380D01*
X50297142Y-69834761D01*
X50249523Y-69739523D01*
X50249523Y-69358571D01*
X50297142Y-69263333D01*
X50392380Y-69215714D01*
X50582857Y-69215714D01*
X50678095Y-69263333D01*
X50725714Y-69358571D01*
X50725714Y-69453809D01*
X50249523Y-69549047D01*
X51154285Y-69882380D02*
X51154285Y-69215714D01*
X51154285Y-69310952D02*
X51201904Y-69263333D01*
X51297142Y-69215714D01*
X51440000Y-69215714D01*
X51535238Y-69263333D01*
X51582857Y-69358571D01*
X51582857Y-69882380D01*
X51582857Y-69358571D02*
X51630476Y-69263333D01*
X51725714Y-69215714D01*
X51868571Y-69215714D01*
X51963809Y-69263333D01*
X52011428Y-69358571D01*
X52011428Y-69882380D01*
X52916190Y-69882380D02*
X52916190Y-69358571D01*
X52868571Y-69263333D01*
X52773333Y-69215714D01*
X52582857Y-69215714D01*
X52487619Y-69263333D01*
X52916190Y-69834761D02*
X52820952Y-69882380D01*
X52582857Y-69882380D01*
X52487619Y-69834761D01*
X52440000Y-69739523D01*
X52440000Y-69644285D01*
X52487619Y-69549047D01*
X52582857Y-69501428D01*
X52820952Y-69501428D01*
X52916190Y-69453809D01*
X53535238Y-69882380D02*
X53440000Y-69834761D01*
X53392380Y-69739523D01*
X53392380Y-68882380D01*
X54297142Y-69834761D02*
X54201904Y-69882380D01*
X54011428Y-69882380D01*
X53916190Y-69834761D01*
X53868571Y-69739523D01*
X53868571Y-69358571D01*
X53916190Y-69263333D01*
X54011428Y-69215714D01*
X54201904Y-69215714D01*
X54297142Y-69263333D01*
X54344761Y-69358571D01*
X54344761Y-69453809D01*
X53868571Y-69549047D01*
X46556666Y-78332380D02*
X46556666Y-79046666D01*
X46509047Y-79189523D01*
X46413809Y-79284761D01*
X46270952Y-79332380D01*
X46175714Y-79332380D01*
X47556666Y-79332380D02*
X46985238Y-79332380D01*
X47270952Y-79332380D02*
X47270952Y-78332380D01*
X47175714Y-78475238D01*
X47080476Y-78570476D01*
X46985238Y-78618095D01*
X46029523Y-60312380D02*
X45696190Y-59836190D01*
X45458095Y-60312380D02*
X45458095Y-59312380D01*
X45839047Y-59312380D01*
X45934285Y-59360000D01*
X45981904Y-59407619D01*
X46029523Y-59502857D01*
X46029523Y-59645714D01*
X45981904Y-59740952D01*
X45934285Y-59788571D01*
X45839047Y-59836190D01*
X45458095Y-59836190D01*
X45553333Y-62682380D02*
X45220000Y-62206190D01*
X44981904Y-62682380D02*
X44981904Y-61682380D01*
X45362857Y-61682380D01*
X45458095Y-61730000D01*
X45505714Y-61777619D01*
X45553333Y-61872857D01*
X45553333Y-62015714D01*
X45505714Y-62110952D01*
X45458095Y-62158571D01*
X45362857Y-62206190D01*
X44981904Y-62206190D01*
X45934285Y-61777619D02*
X45981904Y-61730000D01*
X46077142Y-61682380D01*
X46315238Y-61682380D01*
X46410476Y-61730000D01*
X46458095Y-61777619D01*
X46505714Y-61872857D01*
X46505714Y-61968095D01*
X46458095Y-62110952D01*
X45886666Y-62682380D01*
X46505714Y-62682380D01*
M02*
