G04 #@! TF.GenerationSoftware,KiCad,Pcbnew,(5.1.6)-1*
G04 #@! TF.CreationDate,2020-07-07T10:11:21-05:00*
G04 #@! TF.ProjectId,Ductos,44756374-6f73-42e6-9b69-6361645f7063,rev?*
G04 #@! TF.SameCoordinates,Original*
G04 #@! TF.FileFunction,Soldermask,Bot*
G04 #@! TF.FilePolarity,Negative*
%FSLAX46Y46*%
G04 Gerber Fmt 4.6, Leading zero omitted, Abs format (unit mm)*
G04 Created by KiCad (PCBNEW (5.1.6)-1) date 2020-07-07 10:11:21*
%MOMM*%
%LPD*%
G01*
G04 APERTURE LIST*
%ADD10C,0.100000*%
G04 APERTURE END LIST*
D10*
G36*
X39594072Y-74864063D02*
G01*
X39790301Y-74923589D01*
X39790303Y-74923590D01*
X39971145Y-75020252D01*
X40129660Y-75150340D01*
X40259747Y-75308854D01*
X40356411Y-75489699D01*
X40415937Y-75685928D01*
X40431000Y-75838868D01*
X40431000Y-77921132D01*
X40415937Y-78074072D01*
X40356411Y-78270300D01*
X40356410Y-78270303D01*
X40259748Y-78451145D01*
X40129660Y-78609660D01*
X40012437Y-78705860D01*
X39971146Y-78739747D01*
X39790300Y-78836411D01*
X39594071Y-78895937D01*
X39390000Y-78916036D01*
X39185928Y-78895937D01*
X38989699Y-78836411D01*
X38989697Y-78836410D01*
X38808855Y-78739748D01*
X38650340Y-78609660D01*
X38554140Y-78492437D01*
X38520253Y-78451146D01*
X38423589Y-78270300D01*
X38364063Y-78074071D01*
X38349000Y-77921131D01*
X38349001Y-75838868D01*
X38364064Y-75685928D01*
X38423590Y-75489699D01*
X38520254Y-75308854D01*
X38650341Y-75150340D01*
X38808856Y-75020252D01*
X38989698Y-74923590D01*
X38989700Y-74923589D01*
X39185929Y-74864063D01*
X39390000Y-74843964D01*
X39594072Y-74864063D01*
G37*
G36*
X44594072Y-74864063D02*
G01*
X44790301Y-74923589D01*
X44790303Y-74923590D01*
X44971145Y-75020252D01*
X45129660Y-75150340D01*
X45259747Y-75308854D01*
X45356411Y-75489699D01*
X45415937Y-75685928D01*
X45431000Y-75838868D01*
X45431000Y-77921132D01*
X45415937Y-78074072D01*
X45356411Y-78270300D01*
X45356410Y-78270303D01*
X45259748Y-78451145D01*
X45129660Y-78609660D01*
X45012437Y-78705860D01*
X44971146Y-78739747D01*
X44790300Y-78836411D01*
X44594071Y-78895937D01*
X44390000Y-78916036D01*
X44185928Y-78895937D01*
X43989699Y-78836411D01*
X43989697Y-78836410D01*
X43808855Y-78739748D01*
X43650340Y-78609660D01*
X43554140Y-78492437D01*
X43520253Y-78451146D01*
X43423589Y-78270300D01*
X43364063Y-78074071D01*
X43349000Y-77921131D01*
X43349001Y-75838868D01*
X43364064Y-75685928D01*
X43423590Y-75489699D01*
X43520254Y-75308854D01*
X43650341Y-75150340D01*
X43808856Y-75020252D01*
X43989698Y-74923590D01*
X43989700Y-74923589D01*
X44185929Y-74864063D01*
X44390000Y-74843964D01*
X44594072Y-74864063D01*
G37*
G36*
X49594072Y-74864063D02*
G01*
X49790301Y-74923589D01*
X49790303Y-74923590D01*
X49971145Y-75020252D01*
X50129660Y-75150340D01*
X50259747Y-75308854D01*
X50356411Y-75489699D01*
X50415937Y-75685928D01*
X50431000Y-75838868D01*
X50431000Y-77921132D01*
X50415937Y-78074072D01*
X50356411Y-78270300D01*
X50356410Y-78270303D01*
X50259748Y-78451145D01*
X50129660Y-78609660D01*
X50012437Y-78705860D01*
X49971146Y-78739747D01*
X49790300Y-78836411D01*
X49594071Y-78895937D01*
X49390000Y-78916036D01*
X49185928Y-78895937D01*
X48989699Y-78836411D01*
X48989697Y-78836410D01*
X48808855Y-78739748D01*
X48650340Y-78609660D01*
X48554140Y-78492437D01*
X48520253Y-78451146D01*
X48423589Y-78270300D01*
X48364063Y-78074071D01*
X48349000Y-77921131D01*
X48349001Y-75838868D01*
X48364064Y-75685928D01*
X48423590Y-75489699D01*
X48520254Y-75308854D01*
X48650341Y-75150340D01*
X48808856Y-75020252D01*
X48989698Y-74923590D01*
X48989700Y-74923589D01*
X49185929Y-74864063D01*
X49390000Y-74843964D01*
X49594072Y-74864063D01*
G37*
G36*
X55431000Y-78911000D02*
G01*
X53349000Y-78911000D01*
X53349000Y-74849000D01*
X55431000Y-74849000D01*
X55431000Y-78911000D01*
G37*
G36*
X51106564Y-65029389D02*
G01*
X51297833Y-65108615D01*
X51297835Y-65108616D01*
X51469973Y-65223635D01*
X51616365Y-65370027D01*
X51731385Y-65542167D01*
X51810611Y-65733436D01*
X51851000Y-65936484D01*
X51851000Y-66143516D01*
X51810611Y-66346564D01*
X51731385Y-66537833D01*
X51731384Y-66537835D01*
X51616365Y-66709973D01*
X51469973Y-66856365D01*
X51297835Y-66971384D01*
X51297834Y-66971385D01*
X51297833Y-66971385D01*
X51106564Y-67050611D01*
X50903516Y-67091000D01*
X50696484Y-67091000D01*
X50493436Y-67050611D01*
X50302167Y-66971385D01*
X50302166Y-66971385D01*
X50302165Y-66971384D01*
X50130027Y-66856365D01*
X49983635Y-66709973D01*
X49868616Y-66537835D01*
X49868615Y-66537833D01*
X49789389Y-66346564D01*
X49749000Y-66143516D01*
X49749000Y-65936484D01*
X49789389Y-65733436D01*
X49868615Y-65542167D01*
X49983635Y-65370027D01*
X50130027Y-65223635D01*
X50302165Y-65108616D01*
X50302167Y-65108615D01*
X50493436Y-65029389D01*
X50696484Y-64989000D01*
X50903516Y-64989000D01*
X51106564Y-65029389D01*
G37*
G36*
X40946564Y-65029389D02*
G01*
X41137833Y-65108615D01*
X41137835Y-65108616D01*
X41309973Y-65223635D01*
X41456365Y-65370027D01*
X41571385Y-65542167D01*
X41650611Y-65733436D01*
X41691000Y-65936484D01*
X41691000Y-66143516D01*
X41650611Y-66346564D01*
X41571385Y-66537833D01*
X41571384Y-66537835D01*
X41456365Y-66709973D01*
X41309973Y-66856365D01*
X41137835Y-66971384D01*
X41137834Y-66971385D01*
X41137833Y-66971385D01*
X40946564Y-67050611D01*
X40743516Y-67091000D01*
X40536484Y-67091000D01*
X40333436Y-67050611D01*
X40142167Y-66971385D01*
X40142166Y-66971385D01*
X40142165Y-66971384D01*
X39970027Y-66856365D01*
X39823635Y-66709973D01*
X39708616Y-66537835D01*
X39708615Y-66537833D01*
X39629389Y-66346564D01*
X39589000Y-66143516D01*
X39589000Y-65936484D01*
X39629389Y-65733436D01*
X39708615Y-65542167D01*
X39823635Y-65370027D01*
X39970027Y-65223635D01*
X40142165Y-65108616D01*
X40142167Y-65108615D01*
X40333436Y-65029389D01*
X40536484Y-64989000D01*
X40743516Y-64989000D01*
X40946564Y-65029389D01*
G37*
G36*
X51106564Y-61219389D02*
G01*
X51297833Y-61298615D01*
X51297835Y-61298616D01*
X51469973Y-61413635D01*
X51616365Y-61560027D01*
X51731385Y-61732167D01*
X51810611Y-61923436D01*
X51851000Y-62126484D01*
X51851000Y-62333516D01*
X51810611Y-62536564D01*
X51731385Y-62727833D01*
X51731384Y-62727835D01*
X51616365Y-62899973D01*
X51469973Y-63046365D01*
X51297835Y-63161384D01*
X51297834Y-63161385D01*
X51297833Y-63161385D01*
X51106564Y-63240611D01*
X50903516Y-63281000D01*
X50696484Y-63281000D01*
X50493436Y-63240611D01*
X50302167Y-63161385D01*
X50302166Y-63161385D01*
X50302165Y-63161384D01*
X50130027Y-63046365D01*
X49983635Y-62899973D01*
X49868616Y-62727835D01*
X49868615Y-62727833D01*
X49789389Y-62536564D01*
X49749000Y-62333516D01*
X49749000Y-62126484D01*
X49789389Y-61923436D01*
X49868615Y-61732167D01*
X49983635Y-61560027D01*
X50130027Y-61413635D01*
X50302165Y-61298616D01*
X50302167Y-61298615D01*
X50493436Y-61219389D01*
X50696484Y-61179000D01*
X50903516Y-61179000D01*
X51106564Y-61219389D01*
G37*
G36*
X40946564Y-61219389D02*
G01*
X41137833Y-61298615D01*
X41137835Y-61298616D01*
X41309973Y-61413635D01*
X41456365Y-61560027D01*
X41571385Y-61732167D01*
X41650611Y-61923436D01*
X41691000Y-62126484D01*
X41691000Y-62333516D01*
X41650611Y-62536564D01*
X41571385Y-62727833D01*
X41571384Y-62727835D01*
X41456365Y-62899973D01*
X41309973Y-63046365D01*
X41137835Y-63161384D01*
X41137834Y-63161385D01*
X41137833Y-63161385D01*
X40946564Y-63240611D01*
X40743516Y-63281000D01*
X40536484Y-63281000D01*
X40333436Y-63240611D01*
X40142167Y-63161385D01*
X40142166Y-63161385D01*
X40142165Y-63161384D01*
X39970027Y-63046365D01*
X39823635Y-62899973D01*
X39708616Y-62727835D01*
X39708615Y-62727833D01*
X39629389Y-62536564D01*
X39589000Y-62333516D01*
X39589000Y-62126484D01*
X39629389Y-61923436D01*
X39708615Y-61732167D01*
X39823635Y-61560027D01*
X39970027Y-61413635D01*
X40142165Y-61298616D01*
X40142167Y-61298615D01*
X40333436Y-61219389D01*
X40536484Y-61179000D01*
X40743516Y-61179000D01*
X40946564Y-61219389D01*
G37*
M02*
