G04 #@! TF.GenerationSoftware,KiCad,Pcbnew,(5.1.6)-1*
G04 #@! TF.CreationDate,2020-07-07T10:11:21-05:00*
G04 #@! TF.ProjectId,Ductos,44756374-6f73-42e6-9b69-6361645f7063,rev?*
G04 #@! TF.SameCoordinates,Original*
G04 #@! TF.FileFunction,Legend,Top*
G04 #@! TF.FilePolarity,Positive*
%FSLAX46Y46*%
G04 Gerber Fmt 4.6, Leading zero omitted, Abs format (unit mm)*
G04 Created by KiCad (PCBNEW (5.1.6)-1) date 2020-07-07 10:11:21*
%MOMM*%
%LPD*%
G01*
G04 APERTURE LIST*
%ADD10C,0.150000*%
%ADD11C,0.120000*%
G04 APERTURE END LIST*
D10*
X95552142Y-31297619D02*
X95599761Y-31250000D01*
X95695000Y-31202380D01*
X95933095Y-31202380D01*
X96028333Y-31250000D01*
X96075952Y-31297619D01*
X96123571Y-31392857D01*
X96123571Y-31488095D01*
X96075952Y-31630952D01*
X95504523Y-32202380D01*
X96123571Y-32202380D01*
X96980714Y-31202380D02*
X96790238Y-31202380D01*
X96695000Y-31250000D01*
X96647380Y-31297619D01*
X96552142Y-31440476D01*
X96504523Y-31630952D01*
X96504523Y-32011904D01*
X96552142Y-32107142D01*
X96599761Y-32154761D01*
X96695000Y-32202380D01*
X96885476Y-32202380D01*
X96980714Y-32154761D01*
X97028333Y-32107142D01*
X97075952Y-32011904D01*
X97075952Y-31773809D01*
X97028333Y-31678571D01*
X96980714Y-31630952D01*
X96885476Y-31583333D01*
X96695000Y-31583333D01*
X96599761Y-31630952D01*
X96552142Y-31678571D01*
X96504523Y-31773809D01*
X97552142Y-32154761D02*
X97552142Y-32202380D01*
X97504523Y-32297619D01*
X97456904Y-32345238D01*
X98409285Y-31202380D02*
X98218809Y-31202380D01*
X98123571Y-31250000D01*
X98075952Y-31297619D01*
X97980714Y-31440476D01*
X97933095Y-31630952D01*
X97933095Y-32011904D01*
X97980714Y-32107142D01*
X98028333Y-32154761D01*
X98123571Y-32202380D01*
X98314047Y-32202380D01*
X98409285Y-32154761D01*
X98456904Y-32107142D01*
X98504523Y-32011904D01*
X98504523Y-31773809D01*
X98456904Y-31678571D01*
X98409285Y-31630952D01*
X98314047Y-31583333D01*
X98123571Y-31583333D01*
X98028333Y-31630952D01*
X97980714Y-31678571D01*
X97933095Y-31773809D01*
X98837857Y-31202380D02*
X99504523Y-31202380D01*
X99075952Y-32202380D01*
X100075952Y-31202380D02*
X100171190Y-31202380D01*
X100266428Y-31250000D01*
X100314047Y-31297619D01*
X100361666Y-31392857D01*
X100409285Y-31583333D01*
X100409285Y-31821428D01*
X100361666Y-32011904D01*
X100314047Y-32107142D01*
X100266428Y-32154761D01*
X100171190Y-32202380D01*
X100075952Y-32202380D01*
X99980714Y-32154761D01*
X99933095Y-32107142D01*
X99885476Y-32011904D01*
X99837857Y-31821428D01*
X99837857Y-31583333D01*
X99885476Y-31392857D01*
X99933095Y-31297619D01*
X99980714Y-31250000D01*
X100075952Y-31202380D01*
X101599761Y-32202380D02*
X101599761Y-31535714D01*
X101599761Y-31630952D02*
X101647380Y-31583333D01*
X101742619Y-31535714D01*
X101885476Y-31535714D01*
X101980714Y-31583333D01*
X102028333Y-31678571D01*
X102028333Y-32202380D01*
X102028333Y-31678571D02*
X102075952Y-31583333D01*
X102171190Y-31535714D01*
X102314047Y-31535714D01*
X102409285Y-31583333D01*
X102456904Y-31678571D01*
X102456904Y-32202380D01*
X102933095Y-32202380D02*
X102933095Y-31535714D01*
X102933095Y-31630952D02*
X102980714Y-31583333D01*
X103075952Y-31535714D01*
X103218809Y-31535714D01*
X103314047Y-31583333D01*
X103361666Y-31678571D01*
X103361666Y-32202380D01*
X103361666Y-31678571D02*
X103409285Y-31583333D01*
X103504523Y-31535714D01*
X103647380Y-31535714D01*
X103742619Y-31583333D01*
X103790238Y-31678571D01*
X103790238Y-32202380D01*
D11*
X86360000Y-33020000D02*
X113030000Y-33020000D01*
X86360000Y-38100000D02*
X86360000Y-32433579D01*
X113030000Y-38100000D02*
X113030000Y-32433579D01*
X113030000Y-33020000D02*
X111903496Y-33606421D01*
X113030000Y-33020000D02*
X111903496Y-32433579D01*
X86360000Y-33020000D02*
X87486504Y-33606421D01*
X86360000Y-33020000D02*
X87486504Y-32433579D01*
D10*
X123912380Y-69659047D02*
X123912380Y-70135238D01*
X124388571Y-70182857D01*
X124340952Y-70135238D01*
X124293333Y-70040000D01*
X124293333Y-69801904D01*
X124340952Y-69706666D01*
X124388571Y-69659047D01*
X124483809Y-69611428D01*
X124721904Y-69611428D01*
X124817142Y-69659047D01*
X124864761Y-69706666D01*
X124912380Y-69801904D01*
X124912380Y-70040000D01*
X124864761Y-70135238D01*
X124817142Y-70182857D01*
X123912380Y-69278095D02*
X123912380Y-68659047D01*
X124293333Y-68992380D01*
X124293333Y-68849523D01*
X124340952Y-68754285D01*
X124388571Y-68706666D01*
X124483809Y-68659047D01*
X124721904Y-68659047D01*
X124817142Y-68706666D01*
X124864761Y-68754285D01*
X124912380Y-68849523D01*
X124912380Y-69135238D01*
X124864761Y-69230476D01*
X124817142Y-69278095D01*
X124864761Y-68182857D02*
X124912380Y-68182857D01*
X125007619Y-68230476D01*
X125055238Y-68278095D01*
X123912380Y-67849523D02*
X123912380Y-67230476D01*
X124293333Y-67563809D01*
X124293333Y-67420952D01*
X124340952Y-67325714D01*
X124388571Y-67278095D01*
X124483809Y-67230476D01*
X124721904Y-67230476D01*
X124817142Y-67278095D01*
X124864761Y-67325714D01*
X124912380Y-67420952D01*
X124912380Y-67706666D01*
X124864761Y-67801904D01*
X124817142Y-67849523D01*
X124245714Y-66373333D02*
X124912380Y-66373333D01*
X123864761Y-66611428D02*
X124579047Y-66849523D01*
X124579047Y-66230476D01*
X123912380Y-65659047D02*
X123912380Y-65563809D01*
X123960000Y-65468571D01*
X124007619Y-65420952D01*
X124102857Y-65373333D01*
X124293333Y-65325714D01*
X124531428Y-65325714D01*
X124721904Y-65373333D01*
X124817142Y-65420952D01*
X124864761Y-65468571D01*
X124912380Y-65563809D01*
X124912380Y-65659047D01*
X124864761Y-65754285D01*
X124817142Y-65801904D01*
X124721904Y-65849523D01*
X124531428Y-65897142D01*
X124293333Y-65897142D01*
X124102857Y-65849523D01*
X124007619Y-65801904D01*
X123960000Y-65754285D01*
X123912380Y-65659047D01*
X124912380Y-64135238D02*
X124245714Y-64135238D01*
X124340952Y-64135238D02*
X124293333Y-64087619D01*
X124245714Y-63992380D01*
X124245714Y-63849523D01*
X124293333Y-63754285D01*
X124388571Y-63706666D01*
X124912380Y-63706666D01*
X124388571Y-63706666D02*
X124293333Y-63659047D01*
X124245714Y-63563809D01*
X124245714Y-63420952D01*
X124293333Y-63325714D01*
X124388571Y-63278095D01*
X124912380Y-63278095D01*
X124912380Y-62801904D02*
X124245714Y-62801904D01*
X124340952Y-62801904D02*
X124293333Y-62754285D01*
X124245714Y-62659047D01*
X124245714Y-62516190D01*
X124293333Y-62420952D01*
X124388571Y-62373333D01*
X124912380Y-62373333D01*
X124388571Y-62373333D02*
X124293333Y-62325714D01*
X124245714Y-62230476D01*
X124245714Y-62087619D01*
X124293333Y-61992380D01*
X124388571Y-61944761D01*
X124912380Y-61944761D01*
D11*
X123190000Y-92710000D02*
X123190000Y-39370000D01*
X115570000Y-92710000D02*
X123776421Y-92710000D01*
X115570000Y-39370000D02*
X123776421Y-39370000D01*
X123190000Y-39370000D02*
X123776421Y-40496504D01*
X123190000Y-39370000D02*
X122603579Y-40496504D01*
X123190000Y-92710000D02*
X123776421Y-91583496D01*
X123190000Y-92710000D02*
X122603579Y-91583496D01*
D10*
X103391255Y-41947257D02*
X103439250Y-41900018D01*
X103534863Y-41853156D01*
X103772951Y-41855045D01*
X103867808Y-41903419D01*
X103915048Y-41951414D01*
X103961909Y-42047027D01*
X103961153Y-42142262D01*
X103912402Y-42284737D01*
X103336457Y-42851613D01*
X103955485Y-42856526D01*
X104432038Y-42812687D02*
X104431660Y-42860305D01*
X104383287Y-42955162D01*
X104335291Y-43002402D01*
X105344330Y-41867517D02*
X104868154Y-41863738D01*
X104816758Y-42339535D01*
X104864753Y-42292295D01*
X104960366Y-42245434D01*
X105198454Y-42247323D01*
X105293311Y-42295697D01*
X105340551Y-42343692D01*
X105387412Y-42439305D01*
X105385523Y-42677393D01*
X105337149Y-42772250D01*
X105289154Y-42819490D01*
X105193541Y-42866351D01*
X104955453Y-42864462D01*
X104860596Y-42816088D01*
X104813356Y-42768093D01*
X105772132Y-41966153D02*
X105820127Y-41918913D01*
X105915740Y-41872052D01*
X106153828Y-41873941D01*
X106248685Y-41922315D01*
X106295925Y-41970310D01*
X106342787Y-42065923D01*
X106342031Y-42161158D01*
X106293280Y-42303633D01*
X105717334Y-42870509D01*
X106336362Y-42875421D01*
X106963326Y-41880366D02*
X107058562Y-41881122D01*
X107153419Y-41929495D01*
X107200658Y-41977491D01*
X107247520Y-42073104D01*
X107293626Y-42263952D01*
X107291736Y-42502039D01*
X107242607Y-42692132D01*
X107194234Y-42786989D01*
X107146238Y-42834228D01*
X107050625Y-42881090D01*
X106955390Y-42880334D01*
X106860533Y-42831961D01*
X106813293Y-42783966D01*
X106766432Y-42688353D01*
X106720326Y-42497504D01*
X106722215Y-42259417D01*
X106771345Y-42069324D01*
X106819718Y-41974467D01*
X106867713Y-41927228D01*
X106963326Y-41880366D01*
X108479152Y-42892428D02*
X108484443Y-42225782D01*
X108483687Y-42321017D02*
X108531682Y-42273778D01*
X108627295Y-42226916D01*
X108770148Y-42228050D01*
X108865005Y-42276423D01*
X108911867Y-42372036D01*
X108907710Y-42895829D01*
X108911867Y-42372036D02*
X108960240Y-42277179D01*
X109055853Y-42230317D01*
X109198706Y-42231451D01*
X109293563Y-42279824D01*
X109340425Y-42375437D01*
X109336268Y-42899230D01*
X109812443Y-42903009D02*
X109817734Y-42236364D01*
X109816978Y-42331599D02*
X109864974Y-42284359D01*
X109960587Y-42237497D01*
X110103439Y-42238631D01*
X110198296Y-42287005D01*
X110245158Y-42382618D01*
X110241001Y-42906411D01*
X110245158Y-42382618D02*
X110293531Y-42287760D01*
X110389144Y-42240899D01*
X110531997Y-42242032D01*
X110626854Y-42290406D01*
X110673716Y-42386019D01*
X110669559Y-42909812D01*
D11*
X105784137Y-43688684D02*
X108304137Y-43708684D01*
X105740000Y-49250000D02*
X105788791Y-43102282D01*
X108260000Y-49270000D02*
X108308791Y-43122282D01*
X108304137Y-43708684D02*
X107173015Y-44286146D01*
X108304137Y-43708684D02*
X107182323Y-43113342D01*
X105784137Y-43688684D02*
X106905951Y-44284026D01*
X105784137Y-43688684D02*
X106915259Y-43111222D01*
D10*
X82172380Y-56201428D02*
X82172380Y-56772857D01*
X82172380Y-56487142D02*
X81172380Y-56487142D01*
X81315238Y-56582380D01*
X81410476Y-56677619D01*
X81458095Y-56772857D01*
X81505714Y-55344285D02*
X82172380Y-55344285D01*
X81124761Y-55582380D02*
X81839047Y-55820476D01*
X81839047Y-55201428D01*
X82124761Y-54772857D02*
X82172380Y-54772857D01*
X82267619Y-54820476D01*
X82315238Y-54868095D01*
X81172380Y-54439523D02*
X81172380Y-53772857D01*
X82172380Y-54201428D01*
X81505714Y-52963333D02*
X82172380Y-52963333D01*
X81124761Y-53201428D02*
X81839047Y-53439523D01*
X81839047Y-52820476D01*
X81172380Y-52249047D02*
X81172380Y-52153809D01*
X81220000Y-52058571D01*
X81267619Y-52010952D01*
X81362857Y-51963333D01*
X81553333Y-51915714D01*
X81791428Y-51915714D01*
X81981904Y-51963333D01*
X82077142Y-52010952D01*
X82124761Y-52058571D01*
X82172380Y-52153809D01*
X82172380Y-52249047D01*
X82124761Y-52344285D01*
X82077142Y-52391904D01*
X81981904Y-52439523D01*
X81791428Y-52487142D01*
X81553333Y-52487142D01*
X81362857Y-52439523D01*
X81267619Y-52391904D01*
X81220000Y-52344285D01*
X81172380Y-52249047D01*
X82172380Y-50725238D02*
X81505714Y-50725238D01*
X81600952Y-50725238D02*
X81553333Y-50677619D01*
X81505714Y-50582380D01*
X81505714Y-50439523D01*
X81553333Y-50344285D01*
X81648571Y-50296666D01*
X82172380Y-50296666D01*
X81648571Y-50296666D02*
X81553333Y-50249047D01*
X81505714Y-50153809D01*
X81505714Y-50010952D01*
X81553333Y-49915714D01*
X81648571Y-49868095D01*
X82172380Y-49868095D01*
X82172380Y-49391904D02*
X81505714Y-49391904D01*
X81600952Y-49391904D02*
X81553333Y-49344285D01*
X81505714Y-49249047D01*
X81505714Y-49106190D01*
X81553333Y-49010952D01*
X81648571Y-48963333D01*
X82172380Y-48963333D01*
X81648571Y-48963333D02*
X81553333Y-48915714D01*
X81505714Y-48820476D01*
X81505714Y-48677619D01*
X81553333Y-48582380D01*
X81648571Y-48534761D01*
X82172380Y-48534761D01*
D11*
X82990000Y-60000000D02*
X82990000Y-45260000D01*
X99000000Y-60000000D02*
X82403579Y-60000000D01*
X99000000Y-45260000D02*
X82403579Y-45260000D01*
X82990000Y-45260000D02*
X83576421Y-46386504D01*
X82990000Y-45260000D02*
X82403579Y-46386504D01*
X82990000Y-60000000D02*
X83576421Y-58873496D01*
X82990000Y-60000000D02*
X82403579Y-58873496D01*
D10*
X86575687Y-58189857D02*
X86575155Y-58761285D01*
X86575421Y-58475571D02*
X85575421Y-58474640D01*
X85718190Y-58570011D01*
X85813339Y-58665338D01*
X85860869Y-58760620D01*
X85576264Y-57569878D02*
X85576352Y-57474640D01*
X85624060Y-57379447D01*
X85671723Y-57331872D01*
X85767006Y-57284341D01*
X85957526Y-57236900D01*
X86195621Y-57237121D01*
X86386053Y-57284918D01*
X86481247Y-57332626D01*
X86528822Y-57380289D01*
X86576352Y-57475571D01*
X86576263Y-57570809D01*
X86528556Y-57666003D01*
X86480892Y-57713578D01*
X86385610Y-57761108D01*
X86195089Y-57808550D01*
X85956994Y-57808328D01*
X85766562Y-57760532D01*
X85671369Y-57712824D01*
X85623794Y-57665161D01*
X85576264Y-57569878D01*
X86529398Y-56761242D02*
X86577017Y-56761286D01*
X86672211Y-56808994D01*
X86719785Y-56856657D01*
X85577328Y-56427022D02*
X85577949Y-55760355D01*
X86577549Y-56189858D01*
X85912036Y-54951142D02*
X86578702Y-54951763D01*
X85530862Y-55188883D02*
X86244925Y-55427643D01*
X86245502Y-54808595D01*
X85579367Y-54236546D02*
X85579456Y-54141308D01*
X85627164Y-54046115D01*
X85674827Y-53998540D01*
X85770110Y-53951010D01*
X85960630Y-53903568D01*
X86198725Y-53903790D01*
X86389157Y-53951586D01*
X86484351Y-53999294D01*
X86531925Y-54046957D01*
X86579456Y-54142239D01*
X86579367Y-54237477D01*
X86531659Y-54332671D01*
X86483996Y-54380246D01*
X86388714Y-54427776D01*
X86198193Y-54475218D01*
X85960098Y-54474996D01*
X85769666Y-54427200D01*
X85674472Y-54379492D01*
X85626898Y-54331829D01*
X85579367Y-54236546D01*
X86580786Y-52713669D02*
X85914119Y-52713048D01*
X86009357Y-52713137D02*
X85961783Y-52665473D01*
X85914252Y-52570191D01*
X85914385Y-52427334D01*
X85962093Y-52332140D01*
X86057376Y-52284610D01*
X86581185Y-52285097D01*
X86057376Y-52284610D02*
X85962182Y-52236902D01*
X85914651Y-52141620D01*
X85914784Y-51998762D01*
X85962492Y-51903569D01*
X86057775Y-51856038D01*
X86581584Y-51856526D01*
X86582027Y-51380336D02*
X85915361Y-51379715D01*
X86010599Y-51379804D02*
X85963024Y-51332140D01*
X85915494Y-51236858D01*
X85915627Y-51094001D01*
X85963335Y-50998807D01*
X86058617Y-50951277D01*
X86582426Y-50951765D01*
X86058617Y-50951277D02*
X85963423Y-50903569D01*
X85915893Y-50808287D01*
X85916026Y-50665430D01*
X85963734Y-50570236D01*
X86059016Y-50522706D01*
X86582825Y-50523193D01*
D11*
X87391631Y-59989191D02*
X87401631Y-49249191D01*
X99000000Y-60000000D02*
X86805211Y-59988645D01*
X99010000Y-49260000D02*
X86815211Y-49248645D01*
X87401631Y-49249191D02*
X87987003Y-50376240D01*
X87401631Y-49249191D02*
X86814162Y-50375148D01*
X87391631Y-59989191D02*
X87979100Y-58863234D01*
X87391631Y-59989191D02*
X86806259Y-58862142D01*
D10*
X89215714Y-61190476D02*
X89882380Y-61190476D01*
X88834761Y-61428571D02*
X89549047Y-61666666D01*
X89549047Y-61047619D01*
X89834761Y-60619047D02*
X89882380Y-60619047D01*
X89977619Y-60666666D01*
X90025238Y-60714285D01*
X88882380Y-60000000D02*
X88882380Y-59904761D01*
X88930000Y-59809523D01*
X88977619Y-59761904D01*
X89072857Y-59714285D01*
X89263333Y-59666666D01*
X89501428Y-59666666D01*
X89691904Y-59714285D01*
X89787142Y-59761904D01*
X89834761Y-59809523D01*
X89882380Y-59904761D01*
X89882380Y-60000000D01*
X89834761Y-60095238D01*
X89787142Y-60142857D01*
X89691904Y-60190476D01*
X89501428Y-60238095D01*
X89263333Y-60238095D01*
X89072857Y-60190476D01*
X88977619Y-60142857D01*
X88930000Y-60095238D01*
X88882380Y-60000000D01*
X88882380Y-59047619D02*
X88882380Y-58952380D01*
X88930000Y-58857142D01*
X88977619Y-58809523D01*
X89072857Y-58761904D01*
X89263333Y-58714285D01*
X89501428Y-58714285D01*
X89691904Y-58761904D01*
X89787142Y-58809523D01*
X89834761Y-58857142D01*
X89882380Y-58952380D01*
X89882380Y-59047619D01*
X89834761Y-59142857D01*
X89787142Y-59190476D01*
X89691904Y-59238095D01*
X89501428Y-59285714D01*
X89263333Y-59285714D01*
X89072857Y-59238095D01*
X88977619Y-59190476D01*
X88930000Y-59142857D01*
X88882380Y-59047619D01*
X88882380Y-58095238D02*
X88882380Y-58000000D01*
X88930000Y-57904761D01*
X88977619Y-57857142D01*
X89072857Y-57809523D01*
X89263333Y-57761904D01*
X89501428Y-57761904D01*
X89691904Y-57809523D01*
X89787142Y-57857142D01*
X89834761Y-57904761D01*
X89882380Y-58000000D01*
X89882380Y-58095238D01*
X89834761Y-58190476D01*
X89787142Y-58238095D01*
X89691904Y-58285714D01*
X89501428Y-58333333D01*
X89263333Y-58333333D01*
X89072857Y-58285714D01*
X88977619Y-58238095D01*
X88930000Y-58190476D01*
X88882380Y-58095238D01*
X89882380Y-56571428D02*
X89215714Y-56571428D01*
X89310952Y-56571428D02*
X89263333Y-56523809D01*
X89215714Y-56428571D01*
X89215714Y-56285714D01*
X89263333Y-56190476D01*
X89358571Y-56142857D01*
X89882380Y-56142857D01*
X89358571Y-56142857D02*
X89263333Y-56095238D01*
X89215714Y-56000000D01*
X89215714Y-55857142D01*
X89263333Y-55761904D01*
X89358571Y-55714285D01*
X89882380Y-55714285D01*
X89882380Y-55238095D02*
X89215714Y-55238095D01*
X89310952Y-55238095D02*
X89263333Y-55190476D01*
X89215714Y-55095238D01*
X89215714Y-54952380D01*
X89263333Y-54857142D01*
X89358571Y-54809523D01*
X89882380Y-54809523D01*
X89358571Y-54809523D02*
X89263333Y-54761904D01*
X89215714Y-54666666D01*
X89215714Y-54523809D01*
X89263333Y-54428571D01*
X89358571Y-54380952D01*
X89882380Y-54380952D01*
D11*
X90700000Y-60000000D02*
X90700000Y-56000000D01*
X99000000Y-60000000D02*
X90113579Y-60000000D01*
X99000000Y-56000000D02*
X90113579Y-56000000D01*
X90700000Y-56000000D02*
X91286421Y-57126504D01*
X90700000Y-56000000D02*
X90113579Y-57126504D01*
X90700000Y-60000000D02*
X91286421Y-58873496D01*
X90700000Y-60000000D02*
X90113579Y-58873496D01*
X41680000Y-66040000D02*
X42450000Y-66040000D01*
X49760000Y-66040000D02*
X48990000Y-66040000D01*
X42450000Y-67410000D02*
X48990000Y-67410000D01*
X42450000Y-64670000D02*
X42450000Y-67410000D01*
X48990000Y-64670000D02*
X42450000Y-64670000D01*
X48990000Y-67410000D02*
X48990000Y-64670000D01*
X44400000Y-48380000D02*
X51110000Y-48380000D01*
X51120000Y-48380000D02*
X51120000Y-41650000D01*
X44400000Y-41640000D02*
X51090000Y-41630000D01*
X37650000Y-41640000D02*
X37650000Y-48380000D01*
X44390000Y-48380000D02*
X37650000Y-48380000D01*
X44330000Y-41630000D02*
X37690000Y-41630000D01*
X57040000Y-70580000D02*
X57040000Y-83180000D01*
X36740000Y-70580000D02*
X57040000Y-70580000D01*
X36740000Y-71530000D02*
X36740000Y-70580000D01*
X36190000Y-71230000D02*
X36740000Y-71530000D01*
X36190000Y-73280000D02*
X36190000Y-71230000D01*
X36740000Y-72980000D02*
X36190000Y-73280000D01*
X36740000Y-78380000D02*
X36740000Y-72980000D01*
X36240000Y-78130000D02*
X36740000Y-78380000D01*
X36240000Y-83180000D02*
X36240000Y-78130000D01*
X57040000Y-83180000D02*
X36240000Y-83180000D01*
X48990000Y-63600000D02*
X48990000Y-60860000D01*
X48990000Y-60860000D02*
X42450000Y-60860000D01*
X42450000Y-60860000D02*
X42450000Y-63600000D01*
X42450000Y-63600000D02*
X48990000Y-63600000D01*
X49760000Y-62230000D02*
X48990000Y-62230000D01*
X41680000Y-62230000D02*
X42450000Y-62230000D01*
D10*
X45553333Y-68862380D02*
X45220000Y-68386190D01*
X44981904Y-68862380D02*
X44981904Y-67862380D01*
X45362857Y-67862380D01*
X45458095Y-67910000D01*
X45505714Y-67957619D01*
X45553333Y-68052857D01*
X45553333Y-68195714D01*
X45505714Y-68290952D01*
X45458095Y-68338571D01*
X45362857Y-68386190D01*
X44981904Y-68386190D01*
X46505714Y-68862380D02*
X45934285Y-68862380D01*
X46220000Y-68862380D02*
X46220000Y-67862380D01*
X46124761Y-68005238D01*
X46029523Y-68100476D01*
X45934285Y-68148095D01*
X43758095Y-48772380D02*
X43758095Y-49581904D01*
X43805714Y-49677142D01*
X43853333Y-49724761D01*
X43948571Y-49772380D01*
X44139047Y-49772380D01*
X44234285Y-49724761D01*
X44281904Y-49677142D01*
X44329523Y-49581904D01*
X44329523Y-48772380D01*
X45329523Y-49772380D02*
X44758095Y-49772380D01*
X45043809Y-49772380D02*
X45043809Y-48772380D01*
X44948571Y-48915238D01*
X44853333Y-49010476D01*
X44758095Y-49058095D01*
X46556666Y-83482380D02*
X46556666Y-84196666D01*
X46509047Y-84339523D01*
X46413809Y-84434761D01*
X46270952Y-84482380D01*
X46175714Y-84482380D01*
X47556666Y-84482380D02*
X46985238Y-84482380D01*
X47270952Y-84482380D02*
X47270952Y-83482380D01*
X47175714Y-83625238D01*
X47080476Y-83720476D01*
X46985238Y-83768095D01*
X45553333Y-65052380D02*
X45220000Y-64576190D01*
X44981904Y-65052380D02*
X44981904Y-64052380D01*
X45362857Y-64052380D01*
X45458095Y-64100000D01*
X45505714Y-64147619D01*
X45553333Y-64242857D01*
X45553333Y-64385714D01*
X45505714Y-64480952D01*
X45458095Y-64528571D01*
X45362857Y-64576190D01*
X44981904Y-64576190D01*
X45934285Y-64147619D02*
X45981904Y-64100000D01*
X46077142Y-64052380D01*
X46315238Y-64052380D01*
X46410476Y-64100000D01*
X46458095Y-64147619D01*
X46505714Y-64242857D01*
X46505714Y-64338095D01*
X46458095Y-64480952D01*
X45886666Y-65052380D01*
X46505714Y-65052380D01*
M02*
